# Blender 3.6.5
# www.blender.org
mtllib Inside_Poly_Crate_03.mtl
o Cube
v -0.500000 0.000000 0.300000
v -0.500000 0.500000 0.300000
v -0.500000 0.000000 -0.300000
v -0.500000 0.500000 -0.300000
v 0.500000 0.000000 0.300000
v 0.500000 0.500000 0.300000
v 0.500000 0.000000 -0.300000
v 0.500000 0.500000 -0.300000
v -0.500000 0.050000 0.300000
v -0.500000 0.050000 -0.300000
v 0.500000 0.050000 -0.300000
v 0.500000 0.050000 0.300000
v -0.500000 0.450000 0.300000
v -0.500000 0.450000 -0.300000
v 0.500000 0.450000 -0.300000
v 0.500000 0.450000 0.300000
v -0.500000 0.000000 0.240000
v -0.500000 0.500000 0.240000
v 0.500000 0.000000 0.240000
v 0.500000 0.500000 0.240000
v 0.500000 0.050000 0.240000
v -0.500000 0.050000 0.240000
v 0.500000 0.450000 0.240000
v -0.500000 0.450000 0.240000
v -0.500000 0.500000 -0.240000
v 0.500000 0.000000 -0.240000
v -0.500000 0.050000 -0.240000
v -0.500000 0.450000 -0.240000
v -0.500000 0.000000 -0.240000
v 0.500000 0.500000 -0.240000
v 0.500000 0.050000 -0.240000
v 0.500000 0.450000 -0.240000
v 0.400000 0.000000 -0.300000
v 0.400000 0.500000 -0.300000
v 0.400000 0.000000 0.300000
v 0.400000 0.500000 0.300000
v 0.400000 0.050000 0.300000
v 0.400000 0.050000 -0.300000
v 0.400000 0.450000 0.300000
v 0.400000 0.450000 -0.300000
v 0.400000 0.500000 0.240000
v 0.400000 0.000000 0.240000
v 0.400000 0.000000 -0.240000
v 0.400000 0.500000 -0.240000
v -0.400000 0.000000 -0.300000
v -0.400000 0.500000 0.300000
v -0.400000 0.050000 0.300000
v -0.400000 0.450000 0.300000
v -0.400000 0.000000 0.240000
v -0.400000 0.000000 -0.240000
v -0.400000 0.500000 -0.300000
v -0.400000 0.000000 0.300000
v -0.400000 0.050000 -0.300000
v -0.400000 0.450000 -0.300000
v -0.400000 0.500000 0.240000
v -0.400000 0.500000 -0.240000
v 0.460000 0.050000 -0.240000
v 0.460000 0.050000 0.240000
v 0.460000 0.450000 -0.240000
v 0.460000 0.450000 0.240000
v -0.460000 0.450000 0.240000
v -0.460000 0.050000 0.240000
v -0.460000 0.050000 -0.240000
v -0.460000 0.450000 -0.240000
v -0.400000 0.050000 -0.260000
v 0.400000 0.050000 -0.260000
v -0.400000 0.450000 -0.260000
v 0.400000 0.450000 -0.260000
v 0.400000 0.450000 0.260000
v 0.400000 0.050000 0.260000
v -0.400000 0.050000 0.260000
v -0.400000 0.450000 0.260000
vn -1.0000 -0.0000 -0.0000
vn -0.0000 -0.0000 -1.0000
vn 1.0000 -0.0000 -0.0000
vn -0.0000 -0.0000 1.0000
vn -0.0000 -1.0000 -0.0000
vn -0.0000 1.0000 -0.0000
vt 0.743656 0.056139
vt 0.749879 0.056139
vt 0.749879 0.062395
vt 0.743656 0.062395
vt 0.743656 0.007693
vt 0.749879 0.007693
vt 0.749879 0.000139
vt 0.743656 0.000139
vt 0.695071 0.056139
vt 0.687643 0.056139
vt 0.687643 0.062395
vt 0.695071 0.062395
vt 0.505171 0.246137
vt 0.500082 0.246137
vt 0.500082 0.249971
vt 0.505171 0.249971
vt 0.687643 0.007693
vt 0.695071 0.007693
vt 0.695071 0.000139
vt 0.687643 0.000139
vt 0.695071 0.056149
vt 0.743656 0.056149
vt 0.743656 0.062136
vt 0.695071 0.062136
vt 0.505171 0.222281
vt 0.500082 0.222281
vt 0.500082 0.245657
vt 0.505171 0.245657
vt 0.505171 0.218762
vt 0.500082 0.218762
vt 0.500082 0.222636
vt 0.505171 0.222636
vt 0.562489 0.218762
vt 0.557314 0.218762
vt 0.557314 0.222636
vt 0.562489 0.222636
vt 0.562489 0.222281
vt 0.557314 0.222281
vt 0.557314 0.246788
vt 0.562489 0.246788
vt 0.562489 0.246137
vt 0.557314 0.246137
vt 0.557314 0.249971
vt 0.562489 0.249971
vt 0.555943 0.195393
vt 0.555943 0.213451
vt 0.506576 0.213451
vt 0.506576 0.195393
vt 0.506253 0.246137
vt 0.506253 0.249971
vt 0.556057 0.249971
vt 0.556057 0.246137
vt 0.506253 0.218762
vt 0.506253 0.222636
vt 0.556057 0.222636
vt 0.556057 0.218762
s 0
usemtl Material
f 28/1/1 25/2/1 4/3/1 14/4/1
f 40/5/2 34/6/2 8/7/2 15/8/2
f 23/1/3 20/2/3 6/3/3 16/4/3
f 48/5/4 46/6/4 2/7/4 13/8/4
f 42/9/5 19/10/5 5/11/5 35/12/5
f 55/13/6 18/14/6 2/15/6 46/16/6
f 52/17/4 47/18/4 9/19/4 1/20/4
f 19/10/3 21/9/3 12/12/3 5/11/3
f 33/17/2 38/18/2 11/19/2 7/20/2
f 29/10/1 27/9/1 10/12/1 3/11/1
f 47/21/4 48/22/4 13/23/4 9/24/4
f 21/9/3 23/1/3 16/4/3 12/12/3
f 38/21/2 40/22/2 15/23/2 11/24/2
f 27/9/1 28/1/1 14/4/1 10/12/1
f 9/24/1 13/23/1 24/22/1 22/21/1
f 28/4/4 27/12/4 63/9/4 64/1/4
f 1/20/1 9/19/1 22/18/1 17/17/1
f 26/20/3 31/19/3 21/12/3 19/11/3
f 56/25/6 25/26/6 18/27/6 55/28/6
f 43/18/5 26/17/5 19/10/5 42/9/5
f 32/19/3 30/20/3 20/11/3 23/12/3
f 13/8/1 2/7/1 18/6/1 24/5/1
f 15/8/3 8/7/3 30/6/3 32/5/3
f 33/19/5 7/20/5 26/17/5 43/18/5
f 51/29/6 4/30/6 25/31/6 56/32/6
f 7/20/3 11/19/3 31/18/3 26/17/3
f 11/12/3 15/4/3 32/1/3 31/9/3
f 17/17/1 22/18/1 27/9/1 29/10/1
f 24/5/1 18/6/1 25/2/1 28/1/1
f 8/33/6 34/34/6 44/35/6 30/36/6
f 47/20/6 37/11/6 70/12/6 71/19/6
f 45/8/5 33/19/5 43/18/5 50/5/5
f 30/37/6 44/38/6 41/39/6 20/40/6
f 32/20/5 23/11/5 60/12/5 59/19/5
f 12/12/4 16/4/4 39/1/4 37/9/4
f 50/5/5 43/18/5 42/9/5 49/1/5
f 5/11/4 12/12/4 37/9/4 35/10/4
f 20/41/6 41/42/6 36/43/6 6/44/6
f 53/12/2 38/19/2 33/20/2 45/11/2
f 16/4/4 6/3/4 36/2/4 39/1/4
f 49/1/5 42/9/5 35/12/5 52/4/5
f 14/4/2 4/3/2 51/2/2 54/1/2
f 17/2/5 49/1/5 52/4/5 1/3/5
f 3/11/2 10/12/2 53/9/2 45/10/2
f 10/12/2 14/4/2 54/1/2 53/9/2
f 29/6/5 50/5/5 49/1/5 17/2/5
f 3/7/5 45/8/5 50/5/5 29/6/5
f 31/12/4 32/4/4 59/1/4 57/9/4
f 57/45/3 59/46/3 60/47/3 58/48/3
f 62/45/1 61/46/1 64/47/1 63/48/1
f 51/11/2 34/20/2 40/19/2 54/12/2
f 22/12/2 24/4/2 61/1/2 62/9/2
f 23/4/2 21/12/2 58/9/2 60/1/2
f 48/4/3 47/12/3 71/9/3 72/1/3
f 67/46/2 68/47/2 66/48/2 65/45/2
f 27/12/6 22/19/6 62/20/6 63/11/6
f 40/4/1 38/12/1 66/9/1 68/1/1
f 21/12/6 31/19/6 57/20/6 58/11/6
f 24/20/5 28/11/5 64/12/5 61/19/5
f 53/12/3 54/4/3 67/1/3 65/9/3
f 37/12/1 39/4/1 69/1/1 70/9/1
f 47/18/4 52/17/4 35/10/4 37/9/4
f 55/49/6 46/50/6 36/51/6 41/52/6
f 46/6/4 48/5/4 39/1/4 36/2/4
f 72/46/4 71/45/4 70/48/4 69/47/4
f 48/20/5 72/19/5 69/12/5 39/11/5
f 53/11/6 65/12/6 66/19/6 38/20/6
f 54/11/5 40/20/5 68/19/5 67/12/5
f 51/53/6 56/54/6 44/55/6 34/56/6
o Icosphere
v 0.130808 0.574527 0.230024
v -0.342352 0.574527 0.142146
v -0.342352 0.574527 -0.142229
v 0.130808 0.574527 -0.230107
v 0.423240 0.574526 -0.000041
v 0.000031 0.705652 -0.000041
v 0.450036 0.494926 0.230529
v 0.450036 0.494926 -0.230612
v 0.000031 0.494926 0.242813
v 0.262701 0.494926 0.238650
v -0.449973 0.494926 0.230529
v -0.262638 0.494926 0.238650
v -0.262638 0.494926 -0.238732
v -0.449973 0.494926 -0.230612
v 0.262701 0.494926 -0.238732
v 0.000031 0.494926 -0.242896
v 0.325656 0.593152 0.135187
v -0.124348 0.593152 0.218763
v -0.402463 0.593152 -0.000041
v -0.124348 0.593152 -0.218846
v 0.325656 0.593152 -0.135270
v 0.076899 0.670226 0.135187
v 0.248787 0.670225 -0.000041
v -0.201215 0.670226 0.083534
v -0.201215 0.670226 -0.083616
v 0.076899 0.670226 -0.135270
vn 0.2316 0.7475 0.6226
vn -0.2719 0.7614 0.5885
vn -0.4471 0.8428 -0.2994
vn 0.0207 0.7096 -0.7043
vn 0.4691 0.8551 -0.2207
vn 0.1388 0.9745 -0.1764
vn 0.2770 0.8940 -0.3521
vn 0.2316 0.7475 -0.6226
vn -0.0521 0.9584 -0.2807
vn -0.0993 0.8392 -0.5347
vn -0.2719 0.7614 -0.5885
vn -0.1734 0.9849 -0.0000
vn -0.3576 0.9339 -0.0000
vn -0.4471 0.8428 0.2994
vn -0.0521 0.9584 0.2807
vn -0.0993 0.8392 0.5347
vn 0.0207 0.7096 0.7043
vn 0.1388 0.9745 0.1764
vn 0.2770 0.8940 0.3521
vn 0.4691 0.8551 0.2207
vn 0.4855 0.8422 -0.2343
vn 0.0303 0.7156 -0.6978
vn 0.3071 0.5898 -0.7469
vn -0.0283 0.2037 -0.9786
vn -0.0155 0.2193 -0.9755
vn -0.3121 0.5901 -0.7446
vn -0.4070 0.8676 -0.2857
vn -0.9002 0.4354 -0.0000
vn -0.4070 0.8676 0.2857
vn -0.3121 0.5901 0.7446
vn -0.0155 0.2193 0.9755
vn -0.0283 0.2037 0.9786
vn 0.3071 0.5898 0.7469
vn 0.0303 0.7156 0.6978
vn 0.4855 0.8422 0.2343
vn 0.0157 0.1334 -0.9909
vn -0.0282 0.7596 -0.6498
vn -0.0282 0.7596 0.6498
vn 0.0157 0.1334 0.9909
vn 0.9477 0.3190 -0.0000
vt 0.532740 0.168292
vt 0.541976 0.168292
vt 0.537358 0.176291
vt 0.514267 0.168292
vt 0.523503 0.168292
vt 0.518885 0.176291
vt 0.551203 0.168292
vt 0.541966 0.168292
vt 0.546585 0.176291
vt 0.532816 0.168292
vt 0.542062 0.168292
vt 0.537444 0.176291
vt 0.551213 0.168292
vt 0.542052 0.168292
vt 0.546670 0.176291
vt 0.537434 0.176291
vt 0.542052 0.184290
vt 0.546680 0.176291
vt 0.542062 0.184290
vt 0.537348 0.176291
vt 0.541966 0.184290
vt 0.532730 0.168292
vt 0.528122 0.176291
vt 0.523503 0.184290
vt 0.546595 0.176291
vt 0.541976 0.184290
vt 0.546670 0.160292
vt 0.537434 0.160292
vt 0.537444 0.160292
vt 0.546680 0.160292
vt 0.546585 0.160292
vt 0.537348 0.160292
vt 0.518885 0.160292
vt 0.528122 0.160292
vt 0.537358 0.160292
vt 0.546595 0.160292
vt 0.528112 0.160292
s 0
usemtl Material
f 73/57/7 89/58/7 94/59/7
f 74/60/8 90/61/8 96/62/8
f 75/63/9 91/64/9 97/65/9
f 76/66/10 92/67/10 98/68/10
f 77/69/11 93/70/11 95/71/11
f 95/71/12 98/72/12 78/73/12
f 95/71/13 93/70/13 98/72/13
f 93/70/14 76/66/14 98/72/14
f 98/68/15 97/74/15 78/75/15
f 98/68/16 92/67/16 97/74/16
f 92/67/17 75/63/17 97/74/17
f 97/65/18 96/76/18 78/77/18
f 97/65/19 91/64/19 96/76/19
f 91/64/20 74/78/20 96/76/20
f 96/62/21 94/79/21 78/80/21
f 96/62/22 90/61/22 94/79/22
f 90/61/23 73/57/23 94/79/23
f 94/59/24 95/81/24 78/82/24
f 94/59/25 89/58/25 95/81/25
f 89/58/26 77/69/26 95/81/26
f 80/83/27 93/70/27 77/69/27
f 80/83/28 87/84/28 93/70/28
f 87/84/29 76/66/29 93/70/29
f 88/85/30 92/67/30 76/66/30
f 88/85/31 85/86/31 92/67/31
f 85/86/32 75/63/32 92/67/32
f 86/87/33 91/64/33 75/63/33
f 86/87/34 83/88/34 91/64/34
f 83/88/35 74/78/35 91/64/35
f 84/89/36 90/61/36 74/60/36
f 84/89/37 81/90/37 90/61/37
f 81/90/38 73/57/38 90/61/38
f 82/91/39 89/58/39 73/57/39
f 82/91/40 79/92/40 89/58/40
f 79/92/41 77/69/41 89/58/41
f 87/84/42 88/85/42 76/66/42
f 85/86/43 86/87/43 75/63/43
f 83/88/44 84/93/44 74/78/44
f 81/90/45 82/91/45 73/57/45
f 79/92/46 80/83/46 77/69/46
