# Blender v3.0.1 OBJ File: 'Inside_Poly_Kitchen_Table_01.blend'
# www.blender.org
mtllib Inside_Poly_Kitchen_Table_01.mtl
o Cube
v -0.500000 0.000000 0.500000
v -0.500000 0.600000 0.500000
v -0.500000 0.000000 -0.500000
v -0.500000 0.600000 -0.500000
v 0.500000 0.000000 0.500000
v 0.500000 0.600000 0.500000
v 0.500000 0.000000 -0.500000
v 0.500000 0.600000 -0.500000
v -0.370000 0.050000 0.540000
v -0.370000 0.420000 0.540000
v -0.370000 0.050000 0.500000
v -0.370000 0.420000 0.500000
v -0.150000 0.050000 0.540000
v -0.150000 0.420000 0.540000
v -0.150000 0.050000 0.500000
v -0.150000 0.420000 0.500000
v -0.110000 0.050000 0.540000
v -0.110000 0.420000 0.540000
v -0.110000 0.050000 0.500000
v -0.110000 0.420000 0.500000
v 0.390000 0.050000 0.540000
v 0.390000 0.420000 0.540000
v 0.390000 0.050000 0.500000
v 0.390000 0.420000 0.500000
v -0.500000 0.500000 0.500000
v -0.500000 0.500000 -0.500000
v 0.500000 0.500000 -0.500000
v 0.500000 0.500000 0.500000
v -0.500000 0.500000 0.550000
v -0.500000 0.600000 0.550000
v 0.500000 0.600000 0.550000
v 0.500000 0.500000 0.550000
vt 0.688520 0.432162
vt 0.688520 0.436746
vt 0.630108 0.436746
vt 0.630108 0.432162
vt 0.688520 0.436746
vt 0.688520 0.432162
vt 0.630108 0.432162
vt 0.630108 0.436746
vt 0.688520 0.436746
vt 0.688520 0.432162
vt 0.562601 0.399747
vt 0.500160 0.399747
vt 0.500160 0.402345
vt 0.562601 0.402345
vt 0.562601 0.437498
vt 0.500160 0.437498
vt 0.500160 0.402345
vt 0.562601 0.402345
vt 0.508046 0.394223
vt 0.522415 0.394223
vt 0.522415 0.396708
vt 0.508046 0.396708
vt 0.508046 0.396708
vt 0.522415 0.396708
vt 0.522415 0.394223
vt 0.508046 0.394223
vt 0.521998 0.376713
vt 0.521998 0.394007
vt 0.508070 0.394007
vt 0.508070 0.376713
vt 0.519639 0.396694
vt 0.519668 0.394242
vt 0.519668 0.394242
vt 0.508033 0.394242
vt 0.508004 0.396694
vt 0.519639 0.396694
vt 0.525284 0.376982
vt 0.525284 0.394274
vt 0.525284 0.394274
vt 0.525284 0.376982
vt 0.554842 0.376982
vt 0.554842 0.394274
vt 0.554842 0.394274
vt 0.554842 0.376982
vt 0.555803 0.376713
vt 0.555803 0.394007
vt 0.524951 0.394007
vt 0.524951 0.376713
vt 0.562601 0.375093
vt 0.562601 0.397058
vt 0.500160 0.397058
vt 0.500160 0.375093
vt 0.630108 0.401820
vt 0.688520 0.401820
vt 0.630108 0.401820
vt 0.688520 0.401820
vt 0.688520 0.401820
vt 0.562601 0.397058
vt 0.562601 0.399669
vt 0.500160 0.399669
vt 0.500160 0.397058
vt 0.688520 0.432162
vt 0.688520 0.436746
vt 0.688520 0.436746
vt 0.688520 0.432162
vn -1.0000 0.0000 0.0000
vn 0.0000 0.0000 -1.0000
vn 1.0000 0.0000 0.0000
vn 0.0000 1.0000 0.0000
vn 0.0000 0.0000 1.0000
vn 0.0000 -1.0000 0.0000
usemtl Wood_CLock
s off
f 25/1/1 2/2/1 4/3/1 26/4/1
f 26/4/2 4/3/2 8/5/2 27/6/2
f 27/7/3 8/8/3 6/9/3 28/10/3
f 6/11/4 2/12/4 30/13/4 31/14/4
f 8/15/4 4/16/4 2/17/4 6/18/4
f 9/19/1 10/20/1 12/21/1 11/22/1
f 15/23/3 16/24/3 14/25/3 13/26/3
f 13/27/5 14/28/5 10/29/5 9/30/5
f 11/22/6 15/31/6 13/32/6 9/19/6
f 16/33/4 12/34/4 10/35/4 14/36/4
f 17/37/1 18/38/1 20/39/1 19/40/1
f 23/41/3 24/42/3 22/43/3 21/44/3
f 21/45/5 22/46/5 18/47/5 17/48/5
f 19/40/6 23/41/6 21/44/6 17/37/6
f 24/42/4 20/39/4 18/38/4 22/43/4
f 5/49/5 28/50/5 25/51/5 1/52/5
f 7/53/3 27/7/3 28/10/3 5/54/3
f 3/55/2 26/4/2 27/6/2 7/56/2
f 1/57/1 25/1/1 26/4/1 3/55/1
f 32/58/5 31/59/5 30/60/5 29/61/5
f 25/51/6 28/50/6 32/58/6 29/61/6
f 2/2/1 25/1/1 29/62/1 30/63/1
f 28/10/3 6/9/3 31/64/3 32/65/3
