# Blender v3.0.1 OBJ File: 'Inside_Poly_Fire_Place_03.blend'
# www.blender.org
mtllib Inside_Poly_Fire_Place_03.mtl
o Cube_Cube.004
v -0.500248 0.000000 0.300121
v -0.500000 1.050000 0.300000
v -0.500248 0.000000 -0.500267
v -0.500000 1.050000 -0.500000
v 0.500259 0.000000 0.295266
v 0.500000 1.050000 0.300000
v 0.500259 0.000000 -0.500267
v 0.500000 1.050000 -0.500000
v -0.500248 0.000000 -0.100073
v -0.500000 1.050000 -0.100000
v 0.500259 0.000000 -0.100073
v 0.500000 1.050000 -0.100000
v -0.500000 0.800000 0.300000
v -0.500000 0.800000 -0.500000
v 0.500000 0.800000 -0.500000
v 0.500000 0.800000 0.300000
v 0.500000 0.800000 -0.100000
v -0.500000 0.800000 -0.100000
v 0.300000 1.050000 -0.500000
v 0.300000 0.000000 0.300000
v 0.300000 1.050000 0.300000
v 0.300000 1.050000 -0.100000
v 0.300000 0.800000 0.300000
v -0.300000 1.050000 0.300000
v -0.300000 0.800000 0.300000
v -0.300000 1.050000 -0.500000
v -0.300000 0.000000 0.300000
v -0.300000 1.050000 -0.100000
v -0.300000 0.000000 -0.400000
v 0.300000 0.000000 -0.400000
v 0.300000 0.800000 -0.400000
v -0.300000 0.800000 -0.400000
v 0.300000 1.050000 -0.500000
v 0.300000 3.000000 -0.500000
v 0.200000 1.050000 -0.130000
v 0.200000 3.000000 -0.130000
v -0.200000 1.050000 -0.129764
v -0.200000 3.000000 -0.129764
v -0.300000 1.050000 -0.500000
v -0.300000 3.000000 -0.500000
v -0.500248 0.000000 0.100024
v 0.500000 1.050000 0.100000
v -0.500000 1.050000 0.100000
v 0.500259 0.000000 0.097597
v -0.500000 0.800000 0.100000
v 0.500000 0.800000 0.100000
v 0.300000 1.050000 0.100000
v -0.300000 1.050000 0.100000
v -0.500000 1.050000 -0.300000
v 0.500259 0.000000 -0.300170
v -0.500248 0.000000 -0.300170
v 0.500000 1.050000 -0.300000
v 0.500000 0.800000 -0.300000
v -0.500000 0.800000 -0.300000
v 0.300000 1.050000 -0.300000
v -0.300000 1.050000 -0.300000
v 0.000000 1.050000 -0.500000
v 0.000000 1.050000 -0.100000
v 0.000000 1.050000 0.300000
v 0.000000 0.800000 0.300000
v 0.000000 0.000000 -0.400000
v 0.000000 0.800000 -0.400000
v 0.000000 1.050000 0.100000
v 0.000000 1.050000 -0.300000
vt 0.750376 0.497901
vt 0.750376 0.506494
vt 0.766284 0.506494
vt 0.766284 0.497901
vt 0.762410 0.482300
vt 0.762410 0.495630
vt 0.750071 0.495630
vt 0.750071 0.482300
vt 0.750463 0.497901
vt 0.750463 0.505052
vt 0.766469 0.505052
vt 0.766469 0.497901
vt 0.757663 0.482300
vt 0.757663 0.495630
vt 0.750071 0.495630
vt 0.750071 0.482300
vt 0.757663 0.482300
vt 0.757663 0.495630
vt 0.750071 0.495630
vt 0.750071 0.482300
vt 0.757663 0.482300
vt 0.757663 0.495630
vt 0.752692 0.495630
vt 0.752692 0.482300
vt 0.757663 0.482300
vt 0.757663 0.495630
vt 0.752696 0.495630
vt 0.752696 0.482300
vt 0.750550 0.497901
vt 0.750550 0.506494
vt 0.766654 0.506494
vt 0.766654 0.497901
vt 0.762616 0.438124
vt 0.750071 0.438124
vt 0.812243 0.438124
vt 0.812243 0.482300
vt 0.799970 0.482300
vt 0.799970 0.438124
vt 0.750071 0.438124
vt 0.757663 0.438124
vt 0.750071 0.438124
vt 0.757663 0.438124
vt 0.812243 0.495630
vt 0.799970 0.495630
vt 0.750463 0.497901
vt 0.750463 0.505052
vt 0.766469 0.505052
vt 0.766469 0.497901
vt 0.766469 0.497901
vt 0.750463 0.497901
vt 0.750463 0.505052
vt 0.766469 0.505052
vt 0.766654 0.497901
vt 0.750550 0.497901
vt 0.750550 0.506494
vt 0.766654 0.506494
vt 0.781126 0.482337
vt 0.781190 0.495630
vt 0.781065 0.456391
vt 0.781064 0.482373
vt 0.762182 0.482373
vt 0.762182 0.456391
vt 0.762182 0.456391
vt 0.762182 0.482373
vt 0.799947 0.482373
vt 0.799947 0.456391
vt 0.799947 0.482373
vt 0.799947 0.456391
vt 0.762205 0.482373
vt 0.776065 0.497611
vt 0.776065 0.549741
vt 0.786251 0.549741
vt 0.786251 0.497611
vt 0.776065 0.549741
vt 0.776065 0.497611
vt 0.786251 0.549741
vt 0.786251 0.497611
vt 0.752692 0.438124
vt 0.757663 0.438124
vt 0.752696 0.438124
vt 0.757663 0.438124
vt 0.766469 0.497901
vt 0.766469 0.497901
vt 0.750463 0.497901
vt 0.766469 0.497901
vt 0.750071 0.482300
vt 0.750071 0.438124
vt 0.766654 0.506494
vt 0.750550 0.506494
vt 0.766654 0.497901
vt 0.750550 0.506494
vt 0.766654 0.497901
vt 0.766654 0.506494
vt 0.750071 0.495630
vt 0.750376 0.506494
vt 0.750376 0.497901
vt 0.766284 0.497901
vt 0.766284 0.506494
vt 0.766284 0.506494
vt 0.766284 0.497901
vt 0.799921 0.482373
vt 0.766284 0.497901
vt 0.766284 0.506494
vn 0.0000 1.0000 0.0000
vn 0.0000 0.0000 1.0000
vn -1.0000 0.0000 0.0000
vn 1.0000 0.0000 0.0000
vn 0.0003 0.0001 1.0000
vn 0.0118 -0.0030 0.9999
vn -1.0000 0.0003 0.0000
vn 1.0000 0.0003 0.0000
vn 0.0000 -1.0000 0.0000
vn 0.9654 0.0000 0.2609
vn 0.0006 0.0000 1.0000
vn -0.9654 0.0000 0.2608
usemtl Wood_CLock
s off
f 63/1/1 59/2/1 21/3/1 47/4/1
f 25/5/2 24/6/2 2/7/2 13/8/2
f 64/9/1 58/10/1 22/11/1 55/12/1
f 54/13/3 49/14/3 4/15/3 14/16/3
f 46/17/4 42/18/4 6/19/4 16/20/4
f 53/21/4 52/22/4 12/23/4 17/24/4
f 45/25/3 43/26/3 10/27/3 18/28/3
f 47/29/1 21/30/1 6/31/1 42/32/1
f 27/33/5 25/5/5 13/8/5 1/34/5
f 5/35/6 16/36/6 23/37/6 20/38/6
f 54/13/7 14/16/7 3/39/7 51/40/7
f 46/17/8 16/20/8 5/41/8 44/42/8
f 16/36/2 6/43/2 21/44/2 23/37/2
f 55/45/1 22/46/1 12/47/1 52/48/1
f 56/49/1 49/50/1 10/51/1 28/52/1
f 48/53/1 43/54/1 2/55/1 24/56/1
f 60/57/2 59/58/2 24/6/2 25/5/2
f 61/59/2 62/60/2 32/61/2 29/62/2
f 20/63/3 23/64/3 31/65/3 30/66/3
f 25/67/4 27/68/4 29/62/4 32/61/4
f 60/57/9 25/69/9 32/61/9 62/60/9
f 33/70/10 34/71/10 36/72/10 35/73/10
f 35/73/11 36/72/11 38/74/11 37/75/11
f 37/75/12 38/74/12 40/76/12 39/77/12
f 53/21/8 17/24/8 11/78/8 50/79/8
f 45/25/7 18/28/7 9/80/7 41/81/7
f 13/8/7 45/25/7 41/81/7 1/34/7
f 28/52/1 10/51/1 43/54/1 48/82/1
f 17/24/8 46/17/8 44/42/8 11/78/8
f 22/46/1 47/29/1 42/83/1 12/47/1
f 13/8/3 2/7/3 43/26/3 45/25/3
f 17/24/4 12/23/4 42/18/4 46/17/4
f 58/10/1 63/84/1 47/85/1 22/11/1
f 15/86/8 53/21/8 50/79/8 7/87/8
f 26/88/1 4/89/1 49/50/1 56/90/1
f 19/91/1 55/45/1 52/92/1 8/93/1
f 18/28/7 54/13/7 51/40/7 9/80/7
f 15/86/4 8/94/4 52/22/4 53/21/4
f 18/28/3 10/27/3 49/14/3 54/13/3
f 57/95/1 64/96/1 55/97/1 19/98/1
f 26/99/1 56/100/1 64/96/1 57/95/1
f 28/52/1 48/82/1 63/84/1 58/10/1
f 23/101/9 60/57/9 62/60/9 31/65/9
f 30/66/2 31/65/2 62/60/2 61/59/2
f 23/37/2 21/44/2 59/58/2 60/57/2
f 56/49/1 28/52/1 58/10/1 64/9/1
f 48/102/1 24/103/1 59/2/1 63/1/1
o Circle
v -0.300000 3.000000 -0.500000
v -0.200000 3.000000 -0.130000
v 0.200000 3.000000 -0.130000
v 0.300000 3.000000 -0.500000
vt 0.774596 0.549903
vt 0.788309 0.549934
vt 0.795114 0.556356
vt 0.767689 0.556292
vn 0.0000 1.0000 0.0000
usemtl Wood_CLock
s off
f 66/104/13 67/105/13 68/106/13 65/107/13
o Cube.001
v -0.300000 0.000000 0.300000
v 0.300000 0.000000 0.300000
v -0.300000 0.030000 -0.400000
v 0.300000 0.030000 -0.400000
v -0.300000 0.030000 0.300000
v 0.300000 0.030000 0.300000
vt 0.761977 0.439881
vt 0.800462 0.439881
vt 0.800462 0.455679
vt 0.761977 0.455679
vt 0.761977 0.437750
vt 0.800462 0.437750
vn 0.0000 1.0000 0.0000
vn 0.0000 0.0000 1.0000
usemtl Wood_CLock
s off
f 73/108/14 74/109/14 72/110/14 71/111/14
f 69/112/15 70/113/15 74/109/15 73/108/15
o Cube.002
v -0.261492 0.774358 0.400000
v -0.261492 0.893928 0.400000
v -0.371427 0.799269 0.308161
v -0.306001 0.926600 0.308161
v 0.261492 0.774358 0.400000
v 0.261492 0.893928 0.400000
v 0.370021 0.799269 0.308161
v 0.304594 0.926600 0.308161
v -0.000703 0.756409 0.308161
v -0.000703 1.007421 0.308161
v -0.000000 0.754691 0.445848
v 0.000000 0.913595 0.445848
vt 0.764783 0.475474
vt 0.764783 0.484012
vt 0.761971 0.487872
vt 0.757837 0.480878
vt 0.781261 0.475842
vt 0.781261 0.487872
vt 0.800551 0.487872
vt 0.804685 0.475842
vt 0.804685 0.480878
vt 0.797828 0.484012
vt 0.797828 0.475474
vt 0.781306 0.475474
vt 0.781306 0.484012
vt 0.781261 0.472115
vt 0.800431 0.472115
vt 0.794819 0.473043
vt 0.781298 0.472026
vt 0.781261 0.491437
vt 0.762092 0.472115
vt 0.767776 0.473043
vt 0.757837 0.475842
vn -0.7210 0.1911 0.6661
vn 0.0000 0.0000 -1.0000
vn 0.7263 0.1925 0.6599
vn -0.1727 0.0000 0.9850
vn 0.0930 -0.9931 -0.0715
vn -0.1902 0.8435 0.5023
vn 0.1902 0.8445 0.5006
vn -0.0931 -0.9932 -0.0703
vn 0.1727 -0.0000 0.9850
usemtl Wood_CLock
s off
f 75/114/16 76/115/16 78/116/16 77/117/16
f 83/118/17 84/119/17 82/120/17 81/121/17
f 81/122/18 82/120/18 80/123/18 79/124/18
f 85/125/19 86/126/19 76/115/19 75/114/19
f 83/127/20 81/128/20 79/129/20 85/130/20
f 84/131/21 78/116/21 76/115/21 86/126/21
f 82/120/22 84/131/22 86/126/22 80/123/22
f 77/132/23 83/127/23 85/130/23 75/133/23
f 79/124/24 80/123/24 86/126/24 85/125/24
f 77/134/17 78/116/17 84/119/17 83/118/17
