# Blender 3.6.5
# www.blender.org
mtllib Inside_Poly_Table_05_Damaged.mtl
o Cube.001
v -0.000000 0.500000 -0.514000
v -0.000000 0.468000 -0.566000
v 0.257000 0.500000 -0.445000
v 0.283000 0.468000 -0.490000
v 0.514000 0.500000 -0.000000
v 0.566000 0.468000 -0.000000
v 0.490000 0.468000 0.283000
v 0.257000 0.500000 0.445000
v 0.283000 0.468000 0.490000
v -0.000000 0.500000 0.514000
v -0.000000 0.468000 0.566000
v -0.257000 0.500000 0.445000
v -0.283000 0.468000 0.490000
v -0.445000 0.500000 0.257000
v -0.445000 0.500000 -0.257000
v -0.490000 0.468000 -0.283000
v -0.257000 0.500000 -0.445000
v -0.283000 0.468000 -0.490000
v -0.000000 0.418000 -0.575000
v -0.288000 0.418000 -0.498000
v 0.288000 0.418000 -0.498000
v 0.575000 0.418000 -0.000000
v 0.498000 0.418000 0.288000
v 0.288000 0.418000 0.498000
v -0.000000 0.418000 0.575000
v -0.288000 0.418000 0.498000
v -0.498000 0.418000 -0.288000
v 0.423000 0.468000 -0.351000
v -0.541000 0.468000 -0.096000
v 0.459000 0.418000 -0.327000
v -0.292000 0.418000 -0.036000
v -0.260000 0.500000 -0.037000
v 0.255000 0.418000 -0.081000
v 0.255000 0.500000 -0.081000
v 0.493000 0.500000 -0.081000
v 0.554000 0.418000 -0.081000
v 0.545000 0.468000 -0.081000
v -0.549000 0.418000 -0.096000
v 0.364000 0.485000 -0.372000
v -0.420000 0.418000 0.025000
v -0.441000 0.500000 0.025000
v -0.527000 0.468000 0.147000
v -0.492000 0.468000 0.277000
v 0.355000 0.500000 -0.347000
v 0.178000 0.418000 -0.142000
v 0.145000 0.500000 -0.142000
v 0.306000 0.418000 -0.202000
v 0.327000 0.500000 -0.202000
v -0.501000 0.418000 0.277000
v -0.536000 0.418000 0.147000
v -0.369000 0.418000 0.086000
v -0.369000 0.500000 0.086000
v -0.409000 0.468000 0.365000
v -0.370000 0.418000 -0.097000
v -0.370000 0.500000 -0.097000
v -0.419000 0.418000 0.367000
v 0.493000 0.468000 0.273000
v 0.255000 0.418000 -0.263000
v 0.521000 0.468000 0.168000
v 0.526000 0.468000 0.151000
v 0.255000 0.500000 -0.263000
v 0.521000 0.468000 0.169000
v 0.222000 0.468000 0.507000
v 0.248000 0.468000 0.500000
v -0.480000 0.475000 0.277000
v -0.363000 0.418000 0.275000
v -0.363000 0.500000 0.275000
v -0.426000 0.500000 0.276000
v 0.226000 0.418000 0.515000
v 0.255000 0.418000 0.507000
v 0.473000 0.480000 0.273000
v 0.467000 0.493000 0.215000
v 0.456000 0.500000 0.218000
v 0.457000 0.500000 0.213000
v 0.523000 0.458000 0.169000
v 0.523000 0.418000 0.169000
v 0.466000 0.500000 0.181000
v 0.474000 0.500000 0.151000
v -0.382000 0.500000 0.320000
v 0.473000 0.500000 0.153000
v -0.315000 0.418000 0.303000
v -0.293000 0.500000 0.303000
v 0.465000 0.418000 0.151000
v 0.466000 0.500000 0.151000
v -0.428000 0.473000 0.334000
v 0.429000 0.500000 0.273000
v -0.383000 0.500000 0.320000
v -0.427000 0.418000 0.334000
v 0.535000 0.418000 0.151000
v 0.502000 0.418000 0.273000
v 0.223000 0.487000 0.476000
v -0.330000 0.418000 0.347000
v -0.331000 0.500000 0.347000
v -0.351000 0.500000 0.352000
v 0.220000 0.470000 0.505000
v 0.182000 0.500000 0.466000
v 0.200000 0.500000 0.461000
v 0.401000 0.418000 0.273000
v 0.401000 0.500000 0.273000
v 0.354000 0.418000 0.244000
v 0.332000 0.500000 0.244000
v 0.467000 0.418000 0.215000
v 0.220000 0.418000 0.505000
v 0.370000 0.418000 0.200000
v 0.370000 0.500000 0.200000
v -0.359000 0.500000 0.343000
v 0.106000 0.418000 0.393000
v 0.099000 0.500000 0.384000
v -0.462000 0.500000 0.150000
v -0.496000 0.487000 0.147000
v 0.222000 0.418000 0.475000
v 0.344000 0.418000 -0.360000
v -0.488000 0.500000 -0.096000
v -0.470000 0.418000 0.147000
vn 0.6953 0.1735 -0.6975
vn 0.1394 0.8433 -0.5190
vn 0.3776 0.8445 -0.3798
vn 0.5193 0.8439 -0.1346
vn 0.5191 0.8436 0.1375
vn 0.5549 0.8245 0.1110
vn 0.5085 0.8475 0.1525
vn 0.5209 0.8443 0.1257
vn 0.3802 0.8434 0.3798
vn 0.1463 0.8448 0.5146
vn 0.1371 0.8424 0.5211
vn -0.1394 0.8433 0.5190
vn -0.3786 0.8431 0.3820
vn -0.3824 0.8412 0.3824
vn -0.3790 0.8367 0.3954
vn -0.4810 0.8683 0.1213
vn -0.5153 0.8456 -0.1392
vn -0.3801 0.8433 -0.3801
vn -0.1394 0.8433 -0.5190
vn -0.0000 1.0000 -0.0000
vn 0.2549 0.1744 -0.9511
vn -0.6955 0.1808 -0.6955
vn -0.9524 0.1652 -0.2563
vn -0.9514 0.1712 0.2561
vn -0.6950 0.1740 0.6977
vn -0.2549 0.1744 0.9511
vn 0.2529 0.1720 0.9521
vn 0.2650 0.1741 0.9484
vn 0.6955 0.1808 0.6955
vn 0.9482 0.1745 0.2655
vn 0.9806 0.1961 -0.0000
vn 0.9523 0.1714 0.2523
vn 0.9536 0.1717 -0.2472
vn -0.2549 0.1744 -0.9511
vn 0.7090 -0.1111 0.6964
vn -0.2646 0.2504 0.9313
vn -0.0000 -0.0000 -1.0000
vn 0.3609 0.0264 0.9322
vn 0.7014 -0.0898 -0.7071
vn 0.5431 0.1093 -0.8325
vn 0.2957 -0.0059 -0.9553
vn -0.0000 -0.0000 1.0000
vn 0.2275 0.0265 0.9734
vn 0.1987 -0.0019 0.9801
vn 0.4464 0.0599 -0.8928
vn 0.1526 -0.0027 -0.9883
vn -0.4749 0.0411 -0.8791
vn 0.0061 -0.0023 1.0000
vn -0.3698 0.0191 -0.9289
vn -0.7014 -0.0898 0.7071
vn -0.5379 0.1101 0.8358
vn 0.0155 -0.0017 0.9999
vn -0.2396 0.0088 -0.9708
vn -0.2231 0.0029 -0.9748
vn -0.4280 0.0574 0.9019
vn -0.1330 -0.0001 0.9911
vn 0.8312 -0.0110 -0.5559
vn -0.5876 0.0076 0.8091
vn 0.7032 -0.0142 -0.7108
vn -0.6944 0.0013 0.7196
vt 0.350846 0.139547
vt 0.329472 0.139547
vt 0.329472 0.143270
vt 0.347154 0.143270
vt 0.329472 0.148547
vt 0.355775 0.148547
vt 0.354565 0.151988
vt 0.330683 0.151988
vt 0.342101 0.150336
vt 0.347154 0.148547
vt 0.330683 0.151988
vt 0.343107 0.151988
vt 0.336970 0.148547
vt 0.338181 0.151988
vt 0.343523 0.148547
vt 0.344734 0.151988
vt 0.350497 0.151988
vt 0.350970 0.151988
vt 0.350391 0.151275
vt 0.354833 0.148547
vt 0.355304 0.149887
vt 0.345201 0.148547
vt 0.345114 0.148547
vt 0.344932 0.151988
vt 0.347461 0.151988
vt 0.352545 0.151988
vt 0.335968 0.151988
vt 0.334387 0.150586
vt 0.332751 0.148547
vt 0.354565 0.151988
vt 0.335177 0.148547
vt 0.335241 0.148726
vt 0.337701 0.151988
vt 0.345423 0.148547
vt 0.342572 0.151988
vt 0.355495 0.149344
vt 0.352149 0.151988
vt 0.346607 0.151988
vt 0.348554 0.149102
vt 0.343622 0.151988
vt 0.341514 0.151988
vt 0.343859 0.150613
vt 0.343147 0.148547
vt 0.355236 0.148547
vt 0.339619 0.151988
vt 0.338383 0.148547
vt 0.330683 0.151988
vt 0.076028 0.093927
vt 0.081134 0.090873
vt 0.076134 0.087325
vt 0.063007 0.084828
vt 0.049880 0.087325
vt 0.040270 0.094145
vt 0.038069 0.099976
vt 0.044131 0.099954
vt 0.049743 0.102137
vt 0.040481 0.104375
vt 0.044179 0.106565
vt 0.038348 0.107688
vt 0.040270 0.112780
vt 0.041243 0.113470
vt 0.044466 0.113428
vt 0.048029 0.114435
vt 0.043489 0.115049
vt 0.043473 0.115053
vt 0.044674 0.115905
vt 0.046121 0.116041
vt 0.045096 0.116205
vt 0.049880 0.119601
vt 0.063007 0.122097
vt 0.072277 0.120335
vt 0.068051 0.117396
vt 0.073229 0.120153
vt 0.076134 0.119601
vt 0.084931 0.113357
vt 0.083506 0.113357
vt 0.079969 0.112303
vt 0.086273 0.111378
vt 0.086343 0.111193
vt 0.081919 0.110723
vt 0.086790 0.110009
vt 0.087163 0.109022
vt 0.086805 0.108945
vt 0.087192 0.108945
vt 0.089261 0.103463
vt 0.088157 0.100538
vt 0.076028 0.100538
vt 0.070432 0.098334
vt 0.079710 0.096130
vt 0.355775 0.139547
vt 0.355775 0.143270
vt 0.338383 0.143270
vt 0.338241 0.139547
vt 0.355235 0.143270
vt 0.343147 0.143270
vt 0.342940 0.139547
vt 0.354853 0.139547
vt 0.345423 0.143270
vt 0.345859 0.139547
vt 0.355775 0.139547
vt 0.335176 0.143270
vt 0.335084 0.139547
vt 0.332440 0.139547
vt 0.329472 0.139547
vt 0.332751 0.143270
vt 0.354442 0.139547
vt 0.354833 0.143270
vt 0.345200 0.143270
vt 0.345113 0.142500
vt 0.345114 0.143270
vt 0.343523 0.143270
vt 0.343306 0.139547
vt 0.336854 0.139547
vt 0.336970 0.143270
vt 0.285667 0.085809
vt 0.284435 0.087041
vt 0.284518 0.092718
vt 0.290977 0.092679
vt 0.290916 0.085778
vt 0.291187 0.092905
vt 0.287116 0.089835
vt 0.285667 0.085809
vt 0.290916 0.085778
vt 0.291024 0.098159
vt 0.291157 0.113382
vt 0.284698 0.113421
vt 0.284593 0.101308
vt 0.287088 0.098635
vt 0.291097 0.106481
vt 0.291037 0.099580
vt 0.284578 0.099619
vt 0.284638 0.106520
vt 0.291037 0.099580
vt 0.284578 0.099619
vt 0.284698 0.113421
vt 0.291097 0.106481
vt 0.289197 0.092485
vt 0.290904 0.092679
vt 0.297440 0.092640
vt 0.297380 0.085739
vt 0.283873 0.085820
vt 0.283881 0.086669
vt 0.297465 0.095538
vt 0.289213 0.094296
vt 0.283882 0.086896
vt 0.284088 0.110448
vt 0.287263 0.105791
vt 0.289294 0.103615
vt 0.297527 0.102620
vt 0.297620 0.113344
vt 0.284113 0.113425
vt 0.297500 0.099541
vt 0.285085 0.099616
vt 0.284003 0.100249
vt 0.284053 0.106523
vt 0.297560 0.106442
vt 0.289200 0.092733
vt 0.283945 0.094013
vt 0.283963 0.096172
vt 0.297470 0.096091
vt 0.297440 0.092640
vt 0.290904 0.092679
vt 0.284053 0.106523
vt 0.297560 0.106442
vt 0.297470 0.096091
vt 0.283963 0.096172
vt 0.283990 0.099251
vt 0.285464 0.085810
vt 0.284343 0.087153
vt 0.284518 0.092718
vt 0.286997 0.088229
vt 0.290916 0.085778
vt 0.290952 0.089818
vt 0.284645 0.107367
vt 0.287140 0.104690
vt 0.291077 0.104214
vt 0.284698 0.113421
vt 0.284578 0.099619
vt 0.291037 0.099580
vt 0.291037 0.099580
vt 0.284638 0.106520
vt 0.288052 0.100936
vt 0.289260 0.099648
vt 0.297492 0.098658
vt 0.284055 0.106691
vt 0.288410 0.099596
vt 0.284031 0.102037
vt 0.284031 0.102054
vt 0.289214 0.094363
vt 0.283959 0.095716
vt 0.283963 0.096172
vt 0.297452 0.094087
vt 0.283972 0.097177
vt 0.289376 0.112970
vt 0.297604 0.111538
vt 0.289106 0.113395
vt 0.286139 0.099609
vt 0.284006 0.100847
vt 0.284093 0.111192
vt 0.297485 0.097805
vt 0.289248 0.098251
s 0
usemtl Material
f 30/1/1 21/2/1 4/3/1 28/4/1
f 4/5/2 2/6/2 1/7/2 3/8/2
f 39/9/3 28/10/3 4/5/3 3/11/3 44/12/3
f 5/11/4 6/5/4 37/13/4 35/14/4
f 60/15/5 6/5/5 5/8/5 78/16/5
f 74/17/6 73/18/6 72/19/6
f 7/6/7 57/20/7 71/21/7
f 62/22/8 59/23/8 80/24/8 77/25/8
f 8/11/9 9/5/9 7/6/9 71/21/9 86/26/9
f 8/11/10 97/27/10 91/28/10 64/29/10 9/5/10
f 10/30/11 11/6/11 63/31/11 95/32/11 96/33/11
f 13/5/12 11/6/12 10/7/12 12/11/12
f 53/34/13 13/5/13 12/11/13 94/35/13
f 14/7/14 65/36/14 68/37/14
f 87/38/15 85/39/15 106/40/15
f 65/36/16 14/7/16 109/41/16 110/42/16 42/43/16 43/44/16
f 113/45/17 15/30/17 16/6/17 29/46/17
f 18/5/18 16/6/18 15/7/18 17/11/18
f 2/6/19 18/5/19 17/47/19 1/7/19
f 61/48/20 44/49/20 3/50/20 1/51/20 17/52/20 15/53/20 113/54/20 55/55/20 32/56/20 41/57/20 52/58/20 109/59/20 14/60/20 68/61/20 67/62/20 82/63/20 79/64/20 87/65/20 106/66/20 93/67/20 94/68/20 12/69/20 10/70/20 96/71/20 108/72/20 97/73/20 8/74/20 86/75/20 99/76/20 101/77/20 73/78/20 74/79/20 105/80/20 77/81/20 80/82/20 84/83/20 78/84/20 5/85/20 35/86/20 34/87/20 46/88/20 48/89/20
f 19/90/21 2/91/21 4/3/21 21/2/21
f 27/90/22 16/91/22 18/3/22 20/2/22
f 29/92/23 16/91/23 27/90/23 38/93/23
f 43/94/24 42/95/24 50/96/24 49/97/24
f 26/2/25 13/3/25 53/98/25 56/99/25
f 25/100/26 11/91/26 13/3/26 26/2/26
f 63/101/27 11/91/27 25/100/27 69/102/27
f 70/103/28 24/104/28 9/3/28 64/105/28
f 23/100/29 7/91/29 9/3/29 24/104/29
f 7/91/30 23/100/30 90/106/30 57/107/30
f 62/108/31 75/109/31 59/110/31
f 22/104/32 6/3/32 60/111/32 89/112/32
f 6/3/33 22/104/33 36/113/33 37/114/33
f 20/2/34 18/3/34 2/91/34 19/90/34
f 39/115/35 44/116/35 61/117/35 58/118/35 112/119/35
f 30/120/36 28/121/36 39/122/36 112/123/36
f 36/124/37 33/125/37 34/126/37 35/127/37 37/128/37
f 45/129/38 47/130/38 48/131/38 46/132/38
f 47/133/39 58/118/39 61/117/39 48/134/39
f 34/135/40 33/125/40 45/136/40 46/132/40
f 59/137/41 75/138/41 76/139/41 83/140/41 84/141/41 80/142/41
f 89/143/42 60/144/42 78/145/42 84/141/42 83/140/42
f 86/146/37 71/147/37 57/148/37 90/149/37 98/150/37 99/151/37
f 102/152/43 72/153/43 73/154/43 101/155/43 100/156/43
f 62/157/44 77/158/44 105/159/44 104/160/44 76/161/44 75/162/44
f 101/163/45 99/151/45 98/150/45 100/164/45
f 72/153/46 102/152/46 104/165/46 105/166/46 74/167/46
f 110/168/47 109/169/47 52/170/47 51/118/47 114/119/47
f 42/171/37 110/168/37 114/172/37 50/173/37
f 113/174/48 29/175/48 38/176/48 54/125/48 55/177/48
f 41/178/49 32/132/49 31/129/49 40/179/49
f 41/134/50 40/180/50 51/118/50 52/117/50
f 55/177/51 54/125/51 31/136/51 32/181/51
f 65/182/52 43/183/52 49/184/52 66/150/52 67/151/52 68/185/52
f 85/186/53 87/187/53 79/188/53 82/155/53 81/156/53 88/152/53
f 53/189/54 94/190/54 93/191/54 92/160/54 56/192/54
f 81/164/55 82/163/55 67/151/55 66/150/55
f 85/186/56 88/152/56 92/160/56 93/159/56 106/193/56
f 63/194/57 69/195/57 103/150/57 95/196/57
f 111/152/58 91/197/58 97/198/58 108/155/58 107/164/58
f 96/199/59 95/196/59 103/150/59 107/164/59 108/155/59
f 70/200/60 64/201/60 91/197/60 111/152/60
o Cube.002
v -0.040368 0.122827 0.040358
v -0.040368 0.203627 0.040358
v -0.040368 0.122827 -0.040441
v -0.040368 0.203627 -0.040441
v 0.040431 0.122827 0.040358
v 0.040431 0.203627 0.040358
v 0.040431 0.122827 -0.040441
v 0.040431 0.203627 -0.040441
v -0.040368 0.418641 0.040358
v -0.040368 0.418641 -0.040441
v 0.040431 0.418641 -0.040441
v 0.040431 0.418641 0.040358
v -0.036595 0.062823 -0.457441
v -0.036595 0.136014 -0.457441
v 0.036595 0.062823 -0.457441
v 0.036595 0.136014 -0.457441
v 0.457441 0.062823 0.036595
v 0.457441 0.136014 0.036595
v 0.457441 0.062823 -0.036595
v 0.457441 0.136014 -0.036595
v -0.036595 0.062823 0.457441
v -0.036595 0.136014 0.457441
v 0.036595 0.062823 0.457441
v 0.036595 0.136014 0.457441
v -0.457441 0.062823 0.036595
v -0.457441 0.136014 0.036595
v -0.457441 0.062823 -0.036595
v -0.457441 0.136014 -0.036595
v 0.270216 0.080101 0.040179
v 0.270216 0.080101 -0.040221
v 0.270216 -0.000299 -0.040221
v 0.270216 -0.000299 0.040179
v 0.040216 -0.000299 -0.270221
v 0.040216 0.080101 -0.270221
v -0.040184 -0.000299 -0.270221
v -0.040184 0.080101 -0.270221
v -0.270184 0.080101 -0.040221
v -0.270184 0.080101 0.040179
v -0.270184 -0.000299 0.040179
v -0.270184 -0.000299 -0.040221
v 0.040216 -0.000299 0.270179
v -0.040184 -0.000299 0.270179
v -0.040184 0.080101 0.270179
v 0.040216 0.080101 0.270179
v -0.385092 0.080050 -0.040110
v -0.385092 -0.000149 0.040090
v -0.385092 0.080050 0.040090
v -0.385092 -0.000149 -0.040110
v 0.386570 0.080050 0.040088
v 0.386570 -0.000147 0.040088
v 0.386570 0.080050 -0.040109
v 0.386570 -0.000147 -0.040109
v 0.040108 -0.000149 0.385090
v -0.040092 0.080050 0.385090
v -0.040092 -0.000149 0.385090
v 0.040108 0.080050 0.385090
v 0.040108 -0.000149 -0.385110
v -0.040092 -0.000149 -0.385110
v 0.040108 0.080050 -0.385110
v -0.040092 0.080050 -0.385110
vn 0.6118 0.7910 -0.0000
vn 0.9988 -0.0000 -0.0485
vn -0.6197 0.7848 -0.0000
vn -0.0000 -0.7543 0.6565
vn -0.0000 -1.0000 -0.0000
vn 1.0000 -0.0000 -0.0000
vn -0.0000 1.0000 -0.0000
vn -1.0000 -0.0000 -0.0000
vn -0.0000 -0.0000 1.0000
vn -0.0000 -0.0000 -1.0000
vn -0.0000 -0.7542 -0.6566
vn -0.0000 0.7909 0.6119
vn -0.9988 -0.0000 -0.0483
vn 0.0495 -0.0000 -0.9988
vn 0.0492 -0.0000 0.9988
vn 0.6642 -0.7475 -0.0000
vn -0.0000 0.7910 -0.6118
vn 0.9988 -0.0000 0.0485
vn -0.9988 -0.0000 0.0483
vn -0.6565 -0.7543 -0.0000
vn -0.0485 -0.0000 -0.9988
vn -0.0482 -0.0000 0.9988
vn -0.4723 -0.8814 -0.0000
vn 0.0008 -0.0000 1.0000
vn 0.0010 -0.0000 -1.0000
vn 0.4735 0.8808 -0.0000
vn -1.0000 -0.0000 -0.0008
vn -0.0000 0.8808 -0.4735
vn -0.0000 -0.8814 0.4723
vn 1.0000 -0.0000 -0.0009
vn -0.0008 -0.0000 1.0000
vn -0.0010 -0.0000 -1.0000
vn 0.4723 -0.8815 -0.0000
vn -0.4734 0.8808 -0.0000
vn -1.0000 -0.0000 0.0008
vn 1.0000 -0.0000 0.0009
vn -0.0000 0.8808 0.4734
vn -0.0000 -0.8815 -0.4722
vn -0.0013 -1.0000 -0.0000
vn -0.0004 1.0000 -0.0000
vn 0.0013 -1.0000 -0.0000
vn 0.0004 1.0000 -0.0000
vn -0.0000 1.0000 0.0004
vn -0.0000 -1.0000 0.0013
vn -0.0000 1.0000 -0.0004
vn -0.0000 -1.0000 -0.0013
vt 0.355275 0.139454
vt 0.355275 0.147034
vt 0.366285 0.147034
vt 0.366285 0.139454
vt 0.355275 0.147034
vt 0.355415 0.139454
vt 0.355415 0.147034
vt 0.322247 0.147034
vt 0.322247 0.139454
vt 0.322247 0.139454
vt 0.366285 0.139454
vt 0.355275 0.139454
vt 0.333256 0.139454
vt 0.333256 0.147034
vt 0.333116 0.147034
vt 0.333116 0.139454
vt 0.344266 0.139454
vt 0.344266 0.147034
vt 0.344266 0.139454
s 0
usemtl Material
f 161/202/61 159/203/61 142/204/61 140/205/61
f 173/206/62 171/202/62 129/205/62 130/204/62
f 165/207/63 163/208/63 132/204/63 134/205/63
f 169/204/64 167/209/64 137/209/64 135/204/64
f 117/205/65 121/210/65 119/209/65 115/204/65
f 120/209/66 122/210/66 125/205/66 126/204/66
f 125/205/67 124/210/67 123/209/67 126/204/67
f 118/209/68 116/210/68 123/205/68 124/204/68
f 116/210/69 120/209/69 126/204/69 123/205/69
f 122/205/70 118/204/70 124/204/70 125/205/70
f 127/209/70 128/204/70 130/205/70 129/210/70
f 171/211/71 172/212/71 127/205/71 129/210/71
f 174/203/72 173/213/72 130/205/72 128/204/72
f 172/214/73 174/215/73 128/209/73 127/210/73
f 133/210/66 134/205/66 132/204/66 131/209/66
f 166/207/74 165/208/74 134/204/74 133/205/74
f 163/216/75 164/217/75 131/210/75 132/209/75
f 164/209/76 166/210/76 133/210/76 131/209/76
f 137/209/69 138/204/69 136/205/69 135/210/69
f 170/203/77 168/202/77 136/205/77 138/204/77
f 167/215/78 170/214/78 138/210/78 137/209/78
f 168/203/79 169/202/79 135/205/79 136/204/79
f 139/210/68 140/205/68 142/204/68 141/209/68
f 162/202/80 160/203/80 139/204/80 141/205/80
f 159/202/81 162/203/81 141/204/81 142/205/81
f 160/202/82 161/203/82 140/204/82 139/205/82
f 119/209/83 121/210/83 145/210/83 146/209/83
f 120/204/84 119/205/84 146/218/84 143/219/84
f 121/210/85 122/209/85 144/219/85 145/220/85
f 122/210/86 120/209/86 143/219/86 144/218/86
f 117/205/87 118/204/87 150/219/87 149/218/87
f 118/209/88 122/210/88 148/218/88 150/219/88
f 121/210/89 117/205/89 149/205/89 147/210/89
f 122/209/90 121/210/90 147/220/90 148/219/90
f 115/210/91 116/209/91 152/219/91 153/218/91
f 118/210/92 117/209/92 154/219/92 151/218/92
f 117/210/93 115/209/93 153/219/93 154/218/93
f 116/210/94 118/209/94 151/219/94 152/218/94
f 116/209/95 115/210/95 156/218/95 157/219/95
f 119/204/96 120/205/96 158/218/96 155/219/96
f 120/209/97 116/210/97 157/218/97 158/219/97
f 115/204/98 119/209/98 155/209/98 156/204/98
f 153/218/91 152/219/91 161/203/91 160/202/91
f 151/218/92 154/219/92 162/203/92 159/202/92
f 154/218/99 153/219/99 160/203/99 162/202/99
f 152/218/100 151/219/100 159/203/100 161/202/100
f 146/209/101 145/210/101 166/210/101 164/209/101
f 143/219/84 146/218/84 164/217/84 163/216/84
f 145/220/85 144/219/85 165/208/85 166/207/85
f 144/218/102 143/219/102 163/208/102 165/207/102
f 157/219/95 156/218/95 169/202/95 168/203/95
f 155/219/96 158/218/96 170/214/96 167/215/96
f 158/219/103 157/218/103 168/202/103 170/203/103
f 156/204/104 155/209/104 167/209/104 169/204/104
f 149/218/87 150/219/87 174/215/87 172/214/87
f 150/219/105 148/218/105 173/213/105 174/203/105
f 147/210/106 149/205/106 172/212/106 171/211/106
f 148/219/90 147/220/90 171/202/90 173/206/90
o Plane
v 0.039057 0.132878 0.460318
v 0.128253 -0.036823 0.427218
v 0.037647 0.422501 0.183312
v 0.203639 0.003548 0.261932
v 0.037375 0.132081 0.459442
v 0.126571 -0.037620 0.426342
v 0.035965 0.421704 0.182437
v 0.201957 0.002751 0.261056
vn 0.8177 0.3874 0.4258
vn -0.8177 -0.3874 -0.4258
vn -0.5756 0.5638 0.5924
vn -0.3057 -0.3345 0.8914
vn 0.4368 -0.8993 -0.0205
vn 0.4566 0.0140 -0.8896
vt 0.976528 0.135528
vt 0.989650 0.135786
vt 0.989650 0.147875
vt 0.976528 0.147617
s 0
usemtl Material
f 175/221/107 176/222/107 178/223/107 177/224/107
f 179/221/108 181/224/108 182/223/108 180/222/108
f 175/221/109 177/224/109 181/224/109 179/221/109
f 176/222/110 175/221/110 179/221/110 180/222/110
f 178/223/111 176/222/111 180/222/111 182/223/111
f 177/224/112 178/223/112 182/223/112 181/224/112
o Plane.001
v -0.458969 0.132878 -0.029149
v -0.447999 -0.036823 -0.152669
v -0.206493 0.422501 -0.266733
v -0.359685 0.003548 -0.324331
v -0.460695 0.133566 -0.030031
v -0.449724 -0.036134 -0.153551
v -0.208219 0.423189 -0.267615
v -0.361411 0.004236 -0.325213
vn 0.8391 -0.3347 0.4289
vn -0.8391 0.3347 -0.4289
vn -0.0990 0.6813 0.7253
vn -0.5440 -0.5165 0.6613
vn -0.2040 -0.9244 -0.3223
vn 0.4425 -0.0386 -0.8959
vt 0.976528 0.135528
vt 0.989650 0.135786
vt 0.989650 0.147875
vt 0.976528 0.147617
s 0
usemtl Material
f 183/225/113 184/226/113 186/227/113 185/228/113
f 187/225/114 189/228/114 190/227/114 188/226/114
f 183/225/115 185/228/115 189/228/115 187/225/115
f 184/226/116 183/225/116 187/225/116 188/226/116
f 186/227/117 184/226/117 188/226/117 190/227/117
f 185/228/118 186/227/118 190/227/118 189/228/118
