# Blender 3.6.5
# www.blender.org
mtllib Inside_Poly_Chair_06.mtl
o Cube.013
v -0.149924 0.100000 -0.150000
v -0.149924 0.194998 -0.150000
v -0.149924 0.194998 -0.254876
v -0.149924 0.100000 -0.254876
v -0.039924 0.194998 -0.254876
v -0.040000 0.180000 -0.254876
v -0.039924 0.194998 -0.150000
v -0.040000 0.180000 -0.150000
v -0.254875 0.000091 -0.149927
v -0.254875 0.194996 -0.149927
v -0.254875 0.194996 -0.254875
v -0.254875 0.000091 -0.254875
v -0.149927 0.194996 -0.254875
v -0.149927 0.000091 -0.254875
v -0.149927 0.194996 -0.149927
v -0.149927 0.000091 -0.149927
v -0.254875 0.180003 -0.044977
v -0.254875 0.194997 -0.044977
v -0.254875 0.194997 -0.149925
v -0.254876 0.100002 -0.150000
v -0.149926 0.194997 -0.149925
v -0.150000 0.100000 -0.150000
v -0.149926 0.194997 -0.044977
v -0.149926 0.180003 -0.044977
v 0.149924 0.100000 -0.150000
v 0.149924 0.194998 -0.150000
v 0.149924 0.194998 -0.254876
v 0.149924 0.100000 -0.254876
v 0.039924 0.194998 -0.254876
v 0.040000 0.180000 -0.254876
v 0.039924 0.194998 -0.150000
v 0.040000 0.180000 -0.150000
v 0.254875 0.000091 -0.149927
v 0.254875 0.194996 -0.149927
v 0.254875 0.194996 -0.254875
v 0.254875 0.000091 -0.254875
v 0.149927 0.194996 -0.254875
v 0.149927 0.000091 -0.254875
v 0.149927 0.194996 -0.149927
v 0.149927 0.000091 -0.149927
v 0.254875 0.180003 -0.044977
v 0.254875 0.194997 -0.044977
v 0.254875 0.194997 -0.149925
v 0.254876 0.100002 -0.150000
v 0.149926 0.194997 -0.149925
v 0.150000 0.100000 -0.150000
v 0.149926 0.194997 -0.044977
v 0.149926 0.180003 -0.044977
v -0.149924 0.100000 0.150000
v -0.149924 0.194998 0.150000
v -0.149924 0.194998 0.254876
v -0.149924 0.100000 0.254876
v -0.039924 0.194998 0.254876
v -0.040000 0.180000 0.254876
v -0.039924 0.194998 0.150000
v -0.040000 0.180000 0.150000
v -0.254875 0.000091 0.149927
v -0.254875 0.194996 0.149927
v -0.254875 0.194996 0.254875
v -0.254875 0.000091 0.254875
v -0.149927 0.194996 0.254875
v -0.149927 0.000091 0.254875
v -0.149927 0.194996 0.149927
v -0.149927 0.000091 0.149927
v -0.254875 0.180003 0.044977
v -0.254875 0.194997 0.044977
v -0.254875 0.194997 0.149925
v -0.254876 0.100002 0.150000
v -0.149926 0.194997 0.149925
v -0.150000 0.100000 0.150000
v -0.149926 0.194997 0.044977
v -0.149926 0.180003 0.044977
v 0.149924 0.100000 0.150000
v 0.149924 0.194998 0.150000
v 0.149924 0.194998 0.254876
v 0.149924 0.100000 0.254876
v 0.039924 0.194998 0.254876
v 0.040000 0.180000 0.254876
v 0.039924 0.194998 0.150000
v 0.040000 0.180000 0.150000
v 0.254875 0.000091 0.149927
v 0.254875 0.194996 0.149927
v 0.254875 0.194996 0.254875
v 0.254875 0.000091 0.254875
v 0.149927 0.194996 0.254875
v 0.149927 0.000091 0.254875
v 0.149927 0.194996 0.149927
v 0.149927 0.000091 0.149927
v 0.254875 0.180003 0.044977
v 0.254875 0.194997 0.044977
v 0.254875 0.194997 0.149925
v 0.254876 0.100002 0.150000
v 0.149926 0.194997 0.149925
v 0.150000 0.100000 0.150000
v 0.149926 0.194997 0.044977
v 0.149926 0.180003 0.044977
vn -1.0000 -0.0000 -0.0000
vn -0.0000 -0.0000 -1.0000
vn 1.0000 -0.0051 -0.0000
vn -0.0000 -0.0000 1.0000
vn 0.5884 -0.8085 -0.0000
vn -0.0000 1.0000 -0.0000
vn 1.0000 -0.0000 -0.0000
vn -0.0000 -1.0000 -0.0000
vn -0.0000 0.0008 -1.0000
vn 1.0000 -0.0007 -0.0001
vn -0.0000 -0.7955 0.6060
vn -1.0000 -0.0051 -0.0000
vn -0.5884 -0.8085 -0.0000
vn -1.0000 -0.0007 -0.0001
vn -0.0000 0.0008 1.0000
vn 1.0000 -0.0007 0.0001
vn -0.0000 -0.7955 -0.6060
vn -1.0000 -0.0007 0.0001
vt 0.139417 0.022054
vt 0.139417 0.013067
vt 0.144439 0.013067
vt 0.144439 0.022054
vt 0.139527 0.021817
vt 0.144310 0.021817
vt 0.144310 0.016279
vt 0.143555 0.016283
vt 0.171769 0.013101
vt 0.166814 0.013101
vt 0.166814 0.021931
vt 0.171769 0.021927
vt 0.171769 0.021927
s 1
usemtl Material
f 1/1/1 2/2/1 3/3/1 4/4/1
f 4/5/2 3/6/2 5/7/2 6/8/2
f 6/1/3 5/2/3 7/3/3 8/4/3
f 8/8/4 7/7/4 2/6/4 1/5/4
f 4/9/5 6/10/5 8/11/5 1/12/5
f 5/10/6 3/9/6 2/13/6 7/11/6
f 9/1/1 10/2/1 11/3/1 12/4/1
f 12/1/2 11/2/2 13/3/2 14/4/2
f 14/1/7 13/2/7 15/3/7 16/4/7
f 16/1/4 15/2/4 10/3/4 9/4/4
f 12/9/8 14/10/8 16/11/8 9/12/8
f 13/10/6 11/9/6 10/13/6 15/11/6
f 17/1/1 18/2/1 19/3/1 20/4/1
f 20/1/9 19/2/9 21/3/9 22/4/9
f 22/1/10 21/2/10 23/3/10 24/4/10
f 24/1/4 23/2/4 18/3/4 17/4/4
f 20/9/11 22/10/11 24/11/11 17/12/11
f 21/10/6 19/9/6 18/13/6 23/11/6
f 25/1/7 28/4/7 27/3/7 26/2/7
f 28/5/2 30/8/2 29/7/2 27/6/2
f 30/1/12 32/4/12 31/3/12 29/2/12
f 32/8/4 25/5/4 26/6/4 31/7/4
f 28/9/13 25/12/13 32/11/13 30/10/13
f 29/10/6 31/11/6 26/13/6 27/9/6
f 33/1/7 36/4/7 35/3/7 34/2/7
f 36/1/2 38/4/2 37/3/2 35/2/2
f 38/1/1 40/4/1 39/3/1 37/2/1
f 40/1/4 33/4/4 34/3/4 39/2/4
f 36/9/8 33/12/8 40/11/8 38/10/8
f 37/10/6 39/11/6 34/13/6 35/9/6
f 41/1/7 44/4/7 43/3/7 42/2/7
f 44/1/9 46/4/9 45/3/9 43/2/9
f 46/1/14 48/4/14 47/3/14 45/2/14
f 48/1/4 41/4/4 42/3/4 47/2/4
f 44/9/11 41/12/11 48/11/11 46/10/11
f 45/10/6 47/11/6 42/13/6 43/9/6
f 49/1/1 52/4/1 51/3/1 50/2/1
f 52/5/4 54/8/4 53/7/4 51/6/4
f 54/1/3 56/4/3 55/3/3 53/2/3
f 56/8/2 49/5/2 50/6/2 55/7/2
f 52/9/5 49/12/5 56/11/5 54/10/5
f 53/10/6 55/11/6 50/13/6 51/9/6
f 57/1/1 60/4/1 59/3/1 58/2/1
f 60/1/4 62/4/4 61/3/4 59/2/4
f 62/1/7 64/4/7 63/3/7 61/2/7
f 64/1/2 57/4/2 58/3/2 63/2/2
f 60/9/8 57/12/8 64/11/8 62/10/8
f 61/10/6 63/11/6 58/13/6 59/9/6
f 65/1/1 68/4/1 67/3/1 66/2/1
f 68/1/15 70/4/15 69/3/15 67/2/15
f 70/1/16 72/4/16 71/3/16 69/2/16
f 72/1/2 65/4/2 66/3/2 71/2/2
f 68/9/17 65/12/17 72/11/17 70/10/17
f 69/10/6 71/11/6 66/13/6 67/9/6
f 73/1/7 74/2/7 75/3/7 76/4/7
f 76/5/4 75/6/4 77/7/4 78/8/4
f 78/1/12 77/2/12 79/3/12 80/4/12
f 80/8/2 79/7/2 74/6/2 73/5/2
f 76/9/13 78/10/13 80/11/13 73/12/13
f 77/10/6 75/9/6 74/13/6 79/11/6
f 81/1/7 82/2/7 83/3/7 84/4/7
f 84/1/4 83/2/4 85/3/4 86/4/4
f 86/1/1 85/2/1 87/3/1 88/4/1
f 88/1/2 87/2/2 82/3/2 81/4/2
f 84/9/8 86/10/8 88/11/8 81/12/8
f 85/10/6 83/9/6 82/13/6 87/11/6
f 89/1/7 90/2/7 91/3/7 92/4/7
f 92/1/15 91/2/15 93/3/15 94/4/15
f 94/1/18 93/2/18 95/3/18 96/4/18
f 96/1/2 95/2/2 90/3/2 89/4/2
f 92/9/17 94/10/17 96/11/17 89/12/17
f 93/10/6 91/9/6 90/13/6 95/11/6
o Cube.001
v -0.279084 0.194808 0.279074
v -0.279084 0.300646 0.279074
v -0.279084 0.194808 -0.279157
v -0.279084 0.300646 -0.279157
v 0.279147 0.194808 0.279074
v 0.279147 0.300646 0.279074
v 0.279147 0.194808 -0.279157
v 0.279147 0.300646 -0.279157
vn -1.0000 -0.0000 -0.0000
vn -0.0000 -0.0000 -1.0000
vn 1.0000 -0.0000 -0.0000
vn -0.0000 -0.0000 1.0000
vn -0.0000 -1.0000 -0.0000
vn -0.0000 1.0000 -0.0000
vt 0.136962 0.026239
vt 0.136962 0.029824
vt 0.174234 0.029824
vt 0.174234 0.026239
vt 0.137066 0.049200
vt 0.174298 0.049200
vt 0.174298 0.028883
vt 0.137066 0.028883
s 0
usemtl Material
f 97/14/19 98/15/19 100/16/19 99/17/19
f 99/17/20 100/16/20 104/15/20 103/14/20
f 103/14/21 104/15/21 102/16/21 101/17/21
f 101/17/22 102/16/22 98/15/22 97/14/22
f 99/18/23 103/19/23 101/20/23 97/21/23
f 104/19/24 100/18/24 98/21/24 102/20/24
