# Blender v3.0.1 OBJ File: 'Inside_Poly_Wall_Pillar_02.blend'
# www.blender.org
mtllib Inside_Poly_Wall_Pillar_02.mtl
o Cube.001
v -0.531842 0.000000 0.531842
v 0.531842 0.000000 0.531842
v -0.531842 0.000000 -0.531842
v 0.531842 0.000000 -0.531842
v -0.531842 0.197531 0.531842
v 0.531842 0.197531 0.531842
v -0.531842 0.197531 -0.531842
v 0.531842 0.197531 -0.531842
v -0.534836 0.445491 -0.534836
v 0.534836 0.559317 -0.534836
v 0.534836 0.445491 0.534836
v -0.534836 0.320106 0.534836
v -0.531842 0.000000 0.000000
v 0.531842 0.000000 0.000000
v -0.531842 0.197531 0.000000
v 0.531842 0.197531 0.000000
v -0.534836 0.340663 0.000000
v 0.534836 0.597205 0.000000
v 0.000000 0.000000 0.531842
v 0.000000 0.000000 -0.531842
v 0.000000 0.197531 0.531842
v 0.000000 0.197531 -0.531842
v 0.000000 0.258445 0.534836
v 0.000000 0.445491 -0.534836
v 0.000000 0.318029 0.000000
v 0.000000 0.000000 0.000000
vt 0.157026 0.786100
vt 0.157026 0.765790
vt 0.181679 0.765790
vt 0.181679 0.786100
vt 0.157026 0.688629
vt 0.132373 0.688629
vt 0.132373 0.700110
vt 0.157026 0.699949
vt 0.157026 0.688629
vt 0.132373 0.688629
vt 0.132373 0.700110
vt 0.157026 0.699949
vt 0.157026 0.688629
vt 0.181679 0.688629
vt 0.181679 0.700110
vt 0.157026 0.699949
vt 0.157026 0.688629
vt 0.181679 0.688629
vt 0.181679 0.700110
vt 0.157026 0.699949
vt 0.157115 0.659437
vt 0.157115 0.677408
vt 0.181521 0.677408
vt 0.181521 0.659437
vt 0.157115 0.637711
vt 0.157115 0.646474
vt 0.132373 0.652113
vt 0.132373 0.637550
vt 0.157115 0.637711
vt 0.157115 0.649345
vt 0.132168 0.649345
vt 0.132373 0.637550
vt 0.157115 0.637711
vt 0.157115 0.645962
vt 0.132373 0.652113
vt 0.132373 0.637550
vt 0.157115 0.637711
vt 0.157115 0.643706
vt 0.181063 0.649858
vt 0.181679 0.637550
vt 0.181679 0.652113
vt 0.181679 0.637550
vt 0.181679 0.646474
vt 0.157115 0.645729
vt 0.181521 0.645729
vt 0.157026 0.806411
vt 0.181679 0.806411
vt 0.132373 0.806411
vt 0.132373 0.786100
vt 0.133296 0.645729
vt 0.133296 0.659437
vt 0.131758 0.649858
vt 0.181679 0.637550
vt 0.181679 0.652113
vt 0.133296 0.677408
vt 0.132373 0.765790
vn 0.0000 -1.0000 0.0000
vn 0.0000 0.0000 -1.0000
vn 0.0000 0.0000 1.0000
vn 1.0000 0.0000 0.0000
vn -1.0000 0.0000 0.0000
vn -0.3932 0.9020 0.1782
vn -0.9999 -0.0153 -0.0015
vn 1.0000 -0.0092 -0.0013
vn -0.0019 -0.0327 0.9995
vn 0.0010 -0.0098 -1.0000
vn 1.0000 -0.0079 0.0003
vn -0.9997 -0.0225 -0.0004
vn -0.3438 0.9358 0.0784
vn 0.0207 0.9770 0.2122
vn 0.0000 -0.0121 -0.9999
vn 0.0034 -0.0194 0.9998
vn 0.0783 0.9941 0.0745
usemtl Material
s off
f 26/1/1 20/2/1 4/3/1 14/4/1
f 20/5/2 3/6/2 7/7/2 22/8/2
f 19/9/3 2/10/3 6/11/3 21/12/3
f 14/13/4 4/14/4 8/15/4 16/16/4
f 13/17/5 1/18/5 5/19/5 15/20/5
f 25/21/6 23/22/6 11/23/6 18/24/6
f 15/25/7 17/26/7 9/27/7 7/28/7
f 16/29/8 18/30/8 11/31/8 6/32/8
f 21/33/9 23/34/9 12/35/9 5/36/9
f 22/37/10 24/38/10 10/39/10 8/40/10
f 8/40/11 10/41/11 18/30/11 16/29/11
f 5/42/12 12/43/12 17/26/12 15/25/12
f 24/44/13 25/21/13 18/24/13 10/45/13
f 3/6/5 13/17/5 15/20/5 7/7/5
f 2/10/4 14/13/4 16/16/4 6/11/4
f 19/46/1 26/1/1 14/4/1 2/47/1
f 1/48/1 13/49/1 26/1/1 19/46/1
f 9/50/14 17/51/14 25/21/14 24/44/14
f 7/28/15 9/52/15 24/38/15 22/37/15
f 6/53/16 11/54/16 23/34/16 21/33/16
f 17/51/17 12/55/17 23/22/17 25/21/17
f 1/18/3 19/9/3 21/12/3 5/19/3
f 4/14/2 20/5/2 22/8/2 8/15/2
f 13/49/1 3/56/1 20/2/1 26/1/1
