# Blender v3.0.1 OBJ File: 'Inside_Poly_Curtain_07.blend'
# www.blender.org
mtllib Inside_Poly_Curtain_07.mtl
o Plane.001
v -0.500000 2.000000 0.000000
v -0.500000 0.000000 0.000000
v 0.200000 2.000000 0.000000
v -0.170000 0.230000 -0.170000
v -0.150000 2.000000 0.000000
v -0.330000 0.050000 0.080000
v -0.320000 2.000000 0.000000
v -0.400000 0.000000 0.110000
v -0.220000 0.150000 -0.070000
v 0.030000 2.000000 0.000000
v -0.410000 2.000000 0.180000
v -0.460000 0.000000 0.100000
v -0.370000 0.020000 0.180000
v -0.240000 2.000000 0.180000
v -0.060000 2.000000 0.180000
v -0.260000 0.100000 0.110000
v -0.180000 0.180000 -0.030000
v 0.120000 2.000000 0.180000
v -0.500000 1.870000 0.000000
v 0.200000 1.870000 0.000000
v -0.150000 1.870000 0.000000
v -0.320000 1.870000 0.000000
v 0.030000 1.870000 0.000000
v -0.410000 1.870000 0.100000
v -0.240000 1.870000 0.100000
v -0.060000 1.870000 0.100000
v 0.120000 1.870000 0.100000
v 0.200000 1.900000 0.000000
v -0.150000 1.900000 0.000000
v -0.320000 1.900000 0.000000
v 0.030000 1.900000 0.000000
v -0.410000 1.900000 0.180000
v -0.240000 1.900000 0.180000
v -0.060000 1.900000 0.180000
v 0.120000 1.900000 0.180000
v -0.500000 1.900000 0.000000
v -0.490000 0.970000 0.000000
v -0.280000 0.980000 0.000000
v -0.390000 0.890000 0.000000
v -0.440000 0.910000 -0.000000
v -0.330000 0.900000 -0.000000
v -0.470000 0.930000 0.100000
v -0.410000 0.890000 0.100000
v -0.360000 0.890000 0.100000
v -0.300000 0.910000 0.100000
v -0.280000 1.050000 0.000000
v -0.380000 1.010000 0.090000
v -0.440000 1.030000 -0.000000
v -0.330000 1.030000 -0.000000
v -0.470000 1.030000 0.100000
v -0.410000 1.020000 0.140000
v -0.360000 1.010000 0.140000
v -0.300000 1.030000 0.100000
v -0.490000 1.050000 0.000000
v -0.491056 2.000000 -0.004472
v -0.490422 0.000000 -0.002873
v 0.190862 2.000000 -0.004061
v -0.179769 0.228846 -0.171798
v -0.150000 2.000000 -0.010000
v -0.336062 0.049286 0.072079
v -0.319773 2.000000 -0.009997
v -0.398176 -0.000527 0.100182
v -0.225608 0.150144 -0.078278
v 0.030000 2.000000 -0.010000
v -0.410000 2.000000 0.170000
v -0.457667 -0.000603 0.090295
v -0.365661 0.019133 0.171032
v -0.239773 2.000000 0.170003
v -0.060000 2.000000 0.170000
v -0.258016 0.099561 0.100209
v -0.177228 0.181835 -0.039431
v 0.119773 2.000000 0.170003
v -0.491782 1.872957 -0.004869
v 0.192319 1.875053 -0.003932
v -0.149222 1.874386 -0.008953
v -0.319111 1.875073 -0.008571
v 0.031077 1.874910 -0.008644
v -0.410108 1.876180 0.092139
v -0.239728 1.875838 0.091886
v -0.061065 1.876319 0.092323
v 0.118583 1.876711 0.092724
v 0.191438 1.902884 -0.004286
v -0.150000 1.905509 -0.008345
v -0.319702 1.905542 -0.008318
v 0.030000 1.905509 -0.008345
v -0.410000 1.903334 0.170572
v -0.239845 1.903310 0.170565
v -0.060000 1.903334 0.170572
v 0.119845 1.903310 0.170565
v -0.491705 1.903077 -0.004660
v -0.480271 0.970000 -0.002311
v -0.289808 0.979585 -0.001905
v -0.391412 0.891289 -0.009815
v -0.438404 0.909894 -0.009871
v -0.331335 0.900995 -0.009860
v -0.468387 0.929633 0.090138
v -0.409624 0.891496 0.090120
v -0.361074 0.890749 0.090086
v -0.300693 0.910248 0.090027
v -0.289166 1.052618 -0.003020
v -0.380093 1.011537 0.080119
v -0.439930 1.029747 -0.009996
v -0.331129 1.030411 -0.009927
v -0.469475 1.030463 0.090025
v -0.408481 1.021075 0.130175
v -0.360069 1.010830 0.130035
v -0.299730 1.029773 0.090006
v -0.480679 1.049850 -0.003620
vt 0.379558 0.552661
vt 0.379558 0.500227
vt 0.383861 0.500227
vt 0.383861 0.552661
vt 0.379558 0.552661
vt 0.379558 0.500330
vt 0.383861 0.500227
vt 0.383861 0.552661
vt 0.379558 0.552661
vt 0.379558 0.500227
vt 0.383861 0.500227
vt 0.383861 0.552661
vt 0.385303 0.552173
vt 0.389709 0.503812
vt 0.396678 0.507042
vt 0.387719 0.552173
vt 0.375766 0.552661
vt 0.375766 0.500227
vt 0.375766 0.552661
vt 0.375766 0.500227
vt 0.383741 0.552173
vt 0.383231 0.504219
vt 0.375766 0.552661
vt 0.375766 0.500227
vt 0.352625 0.618534
vt 0.352625 0.617124
vt 0.358714 0.617124
vt 0.358714 0.618534
vt 0.338380 0.618534
vt 0.338380 0.617124
vt 0.344856 0.617124
vt 0.344856 0.618534
vt 0.325685 0.618534
vt 0.325685 0.617124
vt 0.330612 0.617124
vt 0.330612 0.618534
vt 0.312798 0.618534
vt 0.312803 0.617124
vt 0.317917 0.617124
vt 0.317917 0.618534
vt 0.363123 0.617124
vt 0.363123 0.618534
vt 0.358714 0.624939
vt 0.363123 0.624939
vt 0.330612 0.624939
vt 0.338380 0.624939
vt 0.317917 0.624939
vt 0.325685 0.624939
vt 0.344856 0.624939
vt 0.352625 0.624939
vt 0.312778 0.624939
vt 0.386347 0.562427
vt 0.386347 0.553733
vt 0.387984 0.553733
vt 0.387984 0.562427
vt 0.382515 0.562427
vt 0.382515 0.553733
vt 0.384257 0.553733
vt 0.384257 0.562427
vt 0.379101 0.562427
vt 0.379101 0.553733
vt 0.380426 0.553733
vt 0.380426 0.562427
vt 0.375684 0.562427
vt 0.375691 0.553733
vt 0.377012 0.553733
vt 0.377012 0.562427
vt 0.389170 0.553733
vt 0.389170 0.562427
vt 0.379663 0.617043
vt 0.378280 0.561467
vt 0.375868 0.561467
vt 0.375909 0.617043
vt 0.379663 0.617043
vt 0.378280 0.561467
vt 0.375663 0.561467
vt 0.376114 0.617043
vt 0.379663 0.617043
vt 0.378280 0.561467
vt 0.381302 0.561467
vt 0.389033 0.617043
vt 0.379663 0.617043
vt 0.378280 0.561467
vt 0.381302 0.561467
vt 0.389033 0.617043
vt 0.375749 0.617043
vt 0.375749 0.561467
vt 0.375749 0.617043
vt 0.375749 0.561467
vt 0.375749 0.617043
vt 0.375749 0.617043
vt 0.375749 0.561467
vt 0.379558 0.552661
vt 0.383861 0.552661
vt 0.383861 0.500227
vt 0.379558 0.500227
vt 0.379558 0.552661
vt 0.383861 0.552661
vt 0.383861 0.500227
vt 0.379558 0.500330
vt 0.379558 0.552661
vt 0.383861 0.552661
vt 0.383861 0.500227
vt 0.379558 0.500227
vt 0.385303 0.552173
vt 0.387719 0.552173
vt 0.396678 0.507042
vt 0.389709 0.503812
vt 0.375766 0.552661
vt 0.375766 0.500227
vt 0.375766 0.552661
vt 0.375766 0.500227
vt 0.383741 0.552173
vt 0.383231 0.504219
vt 0.375766 0.552661
vt 0.375766 0.500227
vt 0.352625 0.618534
vt 0.358714 0.618534
vt 0.358714 0.617124
vt 0.352625 0.617124
vt 0.338380 0.618534
vt 0.344856 0.618534
vt 0.344856 0.617124
vt 0.338380 0.617124
vt 0.325685 0.618534
vt 0.330612 0.618534
vt 0.330612 0.617124
vt 0.325685 0.617124
vt 0.312798 0.618534
vt 0.317917 0.618534
vt 0.317917 0.617124
vt 0.312803 0.617124
vt 0.363123 0.618534
vt 0.363123 0.617124
vt 0.358714 0.624939
vt 0.363123 0.624939
vt 0.330612 0.624939
vt 0.338380 0.624939
vt 0.317917 0.624939
vt 0.325685 0.624939
vt 0.344856 0.624939
vt 0.352625 0.624939
vt 0.312778 0.624939
vt 0.386347 0.562427
vt 0.387984 0.562427
vt 0.387984 0.553733
vt 0.386347 0.553733
vt 0.382515 0.562427
vt 0.384257 0.562427
vt 0.384257 0.553733
vt 0.382515 0.553733
vt 0.379101 0.562427
vt 0.380426 0.562427
vt 0.380426 0.553733
vt 0.379101 0.553733
vt 0.375684 0.562427
vt 0.377012 0.562427
vt 0.377012 0.553733
vt 0.375691 0.553733
vt 0.389170 0.562427
vt 0.389170 0.553733
vt 0.379663 0.617043
vt 0.375909 0.617043
vt 0.375868 0.561467
vt 0.378280 0.561467
vt 0.379663 0.617043
vt 0.376114 0.617043
vt 0.375663 0.561467
vt 0.378280 0.561467
vt 0.379663 0.617043
vt 0.389033 0.617043
vt 0.381302 0.561467
vt 0.378280 0.561467
vt 0.379663 0.617043
vt 0.389033 0.617043
vt 0.381302 0.561467
vt 0.378280 0.561467
vt 0.375749 0.617043
vt 0.375749 0.561467
vt 0.375749 0.617043
vt 0.375749 0.561467
vt 0.375749 0.617043
vt 0.375749 0.617043
vt 0.375749 0.561467
vn 0.9769 0.1154 0.1798
vn 0.9510 0.0835 0.2978
vn 0.7125 0.0611 0.6990
vn 0.9568 0.1201 0.2649
vn -0.9578 0.0000 0.2873
vn -0.9430 -0.0069 0.3328
vn -0.7839 -0.0427 0.6194
vn -0.8530 -0.1978 0.4830
vn -0.6823 -0.5848 0.4386
vn -0.7241 -0.5517 0.4138
vn 0.6823 -0.5848 0.4386
vn 0.7241 -0.5517 0.4138
vn 0.9138 0.0000 0.4061
vn 0.8944 0.0000 0.4472
vn -0.8944 0.0000 0.4472
vn -0.9138 0.0000 0.4061
vn -0.9406 -0.1306 0.3135
vn -0.9705 -0.0381 0.2379
vn -0.9806 0.0000 0.1961
vn 0.9705 -0.0381 0.2379
vn 0.9578 0.0000 0.2873
vn 0.9245 -0.2043 0.3218
vn 0.9806 0.0000 0.1961
vn 0.8185 -0.4438 0.3649
vn 0.7696 -0.1326 0.6246
vn 0.8539 -0.0915 0.5123
vn 0.8569 -0.3232 0.4015
vn -0.8748 0.0263 0.4838
vn -0.8943 0.1633 0.4167
vn -0.7738 0.2813 0.5675
vn -0.7967 0.3699 0.4780
vn -0.9853 -0.1340 -0.1062
vn -0.9665 -0.0792 -0.2443
vn -0.7150 -0.0615 -0.6964
vn -0.9628 -0.1212 -0.2414
vn 0.9723 0.0003 -0.2338
vn 0.9412 0.0083 -0.3377
vn 0.7557 0.0365 -0.6539
vn 0.8253 0.1986 -0.5287
vn 0.6840 0.5879 -0.4320
vn 0.6841 0.5859 -0.4345
vn 0.7191 0.5632 -0.4070
vn 0.6949 0.5805 -0.4244
vn -0.6740 0.5956 -0.4370
vn -0.6778 0.5912 -0.4371
vn -0.6833 0.5835 -0.4389
vn -0.7260 0.5644 -0.3929
vn -0.9256 -0.0038 -0.3785
vn -0.8942 -0.0049 -0.4476
vn -0.8933 -0.0056 -0.4494
vn -0.8939 -0.0052 -0.4483
vn 0.9066 -0.0039 -0.4220
vn 0.9135 -0.0048 -0.4069
vn 0.8939 -0.0052 -0.4483
vn 0.8942 -0.0049 -0.4476
vn 0.9551 -0.0046 -0.2963
vn 0.9411 0.1222 -0.3153
vn 0.9702 0.0397 -0.2388
vn 0.9926 0.0073 -0.1208
vn -0.9717 0.0419 -0.2325
vn -0.9587 -0.0117 -0.2841
vn -0.9311 0.2039 -0.3025
vn -0.9937 0.0076 -0.1114
vn -0.8337 0.4497 -0.3203
vn -0.7736 0.1341 -0.6193
vn -0.8533 0.0920 -0.5132
vn -0.8554 0.3221 -0.4056
vn 0.8978 -0.0257 -0.4396
vn 0.8944 -0.1614 -0.4172
vn 0.7817 -0.2805 -0.5570
vn 0.8013 -0.3686 -0.4712
vn 0.0000 1.0000 0.0000
vn -0.2593 0.0030 -0.9658
vn 0.3947 -0.8689 -0.2987
vn 0.4268 0.0023 -0.9043
vn 0.6591 -0.7521 0.0032
vn -0.0087 -0.9984 0.0559
vn 0.5903 -0.8003 -0.1053
vn -0.0385 -0.9992 0.0114
vn 0.2563 -0.9541 0.1549
vn 0.5805 -0.8102 -0.0809
vn 0.6692 -0.7190 -0.1875
vn -0.5008 0.0036 -0.8655
vn 0.3046 -0.1788 -0.9355
vn 0.4520 0.0014 -0.8920
vn -0.4685 0.0024 -0.8835
vn -0.2973 -0.0086 -0.9547
vn 0.1618 0.2405 -0.9571
vn 0.2503 -0.0087 -0.9681
vn -0.4348 -0.0063 -0.9005
usemtl Material
s off
f 45/1/1 17/2/1 4/3/1 38/4/1
f 43/5/2 13/6/2 6/7/2 39/8/2
f 42/9/3 12/10/3 8/11/3 40/12/3
f 44/13/4 16/14/4 9/15/4 41/16/4
f 37/17/5 2/18/5 12/10/5 42/9/5
f 40/19/6 8/20/6 13/6/6 43/5/6
f 39/21/7 6/22/7 16/14/7 44/13/7
f 41/23/8 9/24/8 17/2/8 45/1/8
f 31/25/9 23/26/9 27/27/9 35/28/9
f 29/29/9 21/30/9 26/31/9 34/32/9
f 30/33/10 22/34/10 25/35/10 33/36/10
f 36/37/9 19/38/9 24/39/9 32/40/9
f 34/32/11 26/31/11 23/26/11 31/25/11
f 32/40/11 24/39/11 22/34/11 30/33/11
f 33/36/11 25/35/11 21/30/11 29/29/11
f 35/28/12 27/27/12 20/41/12 28/42/12
f 18/43/13 35/28/13 28/42/13 3/44/13
f 14/45/14 33/36/14 29/29/14 5/46/14
f 11/47/14 32/40/14 30/33/14 7/48/14
f 15/49/14 34/32/14 31/25/14 10/50/14
f 1/51/15 36/37/15 32/40/15 11/47/15
f 7/48/16 30/33/16 33/36/16 14/45/16
f 5/46/15 29/29/15 34/32/15 15/49/15
f 10/50/15 31/25/15 35/28/15 18/43/15
f 49/52/5 41/53/5 45/54/5 53/55/5
f 47/56/17 39/57/17 44/58/17 52/59/17
f 48/60/18 40/61/18 43/62/18 51/63/18
f 54/64/19 37/65/19 42/66/19 50/67/19
f 52/59/20 44/58/20 41/53/20 49/52/20
f 50/67/21 42/66/21 40/61/21 48/60/21
f 51/63/22 43/62/22 39/57/22 47/56/22
f 53/55/23 45/54/23 38/68/23 46/69/23
f 27/70/24 53/71/24 46/72/24 20/73/24
f 25/74/25 51/75/25 47/76/25 21/77/25
f 24/78/26 50/79/26 48/80/26 22/81/26
f 26/82/27 52/83/27 49/84/27 23/85/27
f 19/86/28 54/87/28 50/79/28 24/78/28
f 22/88/29 48/89/29 51/75/29 25/74/29
f 21/90/30 47/76/30 52/83/30 26/82/30
f 23/91/31 49/92/31 53/71/31 27/70/31
f 99/93/32 92/94/32 58/95/32 71/96/32
f 97/97/33 93/98/33 60/99/33 67/100/33
f 96/101/34 94/102/34 62/103/34 66/104/34
f 98/105/35 95/106/35 63/107/35 70/108/35
f 91/109/36 96/101/36 66/104/36 56/110/36
f 94/111/37 97/97/37 67/100/37 62/112/37
f 93/113/38 98/105/38 70/108/38 60/114/38
f 95/115/39 99/93/39 71/96/39 63/116/39
f 85/117/40 89/118/40 81/119/40 77/120/40
f 83/121/41 88/122/41 80/123/41 75/124/41
f 84/125/42 87/126/42 79/127/42 76/128/42
f 90/129/43 86/130/43 78/131/43 73/132/43
f 88/122/44 85/117/44 77/120/44 80/123/44
f 86/130/45 84/125/45 76/128/45 78/131/45
f 87/126/46 83/121/46 75/124/46 79/127/46
f 89/118/47 82/133/47 74/134/47 81/119/47
f 72/135/48 57/136/48 82/133/48 89/118/48
f 68/137/49 59/138/49 83/121/49 87/126/49
f 65/139/50 61/140/50 84/125/50 86/130/50
f 69/141/51 64/142/51 85/117/51 88/122/51
f 55/143/52 65/139/52 86/130/52 90/129/52
f 61/140/53 68/137/53 87/126/53 84/125/53
f 59/138/54 69/141/54 88/122/54 83/121/54
f 64/142/55 72/135/55 89/118/55 85/117/55
f 103/144/56 107/145/56 99/146/56 95/147/56
f 101/148/57 106/149/57 98/150/57 93/151/57
f 102/152/58 105/153/58 97/154/58 94/155/58
f 108/156/59 104/157/59 96/158/59 91/159/59
f 106/149/60 103/144/60 95/147/60 98/150/60
f 104/157/61 102/152/61 94/155/61 96/158/61
f 105/153/62 101/148/62 93/151/62 97/154/62
f 107/145/63 100/160/63 92/161/63 99/146/63
f 81/162/64 74/163/64 100/164/64 107/165/64
f 79/166/65 75/167/65 101/168/65 105/169/65
f 78/170/66 76/171/66 102/172/66 104/173/66
f 80/174/67 77/175/67 103/176/67 106/177/67
f 73/178/68 78/170/68 104/173/68 108/179/68
f 76/180/69 79/166/69 105/169/69 102/181/69
f 75/182/70 80/174/70 106/177/70 101/168/70
f 77/183/71 81/162/71 107/165/71 103/184/71
f 1/51/72 11/47/72 65/139/72 55/143/72
f 2/18/73 37/17/73 91/109/73 56/110/73
f 4/3/74 17/2/74 71/96/74 58/95/74
f 3/44/75 28/42/75 82/133/75 57/136/75
f 5/46/72 15/49/72 69/141/72 59/138/72
f 6/7/76 13/6/76 67/100/76 60/99/76
f 7/48/72 14/45/72 68/137/72 61/140/72
f 8/11/77 12/10/77 66/104/77 62/103/77
f 9/15/78 16/14/78 70/108/78 63/107/78
f 10/50/72 18/43/72 72/135/72 64/142/72
f 11/47/72 7/48/72 61/140/72 65/139/72
f 12/10/79 2/18/79 56/110/79 66/104/79
f 13/6/80 8/20/80 62/112/80 67/100/80
f 14/45/72 5/46/72 59/138/72 68/137/72
f 15/49/72 10/50/72 64/142/72 69/141/72
f 16/14/81 6/22/81 60/114/81 70/108/81
f 17/2/82 9/24/82 63/116/82 71/96/82
f 18/43/72 3/44/72 57/136/72 72/135/72
f 19/38/83 36/37/83 90/129/83 73/132/83
f 20/73/84 46/72/84 100/164/84 74/163/84
f 28/42/85 20/41/85 74/134/85 82/133/85
f 36/37/86 1/51/86 55/143/86 90/129/86
f 37/65/87 54/64/87 108/156/87 91/159/87
f 38/4/88 4/3/88 58/95/88 92/94/88
f 46/69/89 38/68/89 92/161/89 100/160/89
f 54/87/90 19/86/90 73/178/90 108/179/90
