# Blender 3.6.5
# www.blender.org
mtllib Inside_Poly_Bed_01_Without_Blanket_Broken.mtl
o Cube.001
v -0.470000 0.130000 1.300000
v -0.470000 0.440000 1.301000
v -0.470000 0.440000 -0.299000
v -0.470000 0.130000 -0.300000
v 0.470000 0.440000 -0.299000
v 0.470000 0.130000 -0.300000
v 0.470000 0.130000 1.300000
v 0.420000 0.500000 1.261000
v 0.420000 0.500000 -0.259000
v -0.420000 0.500000 -0.259000
v -0.420000 0.500000 1.261000
v 0.470000 0.440000 1.301000
v -0.460000 0.470000 -0.289000
v -0.460000 0.470000 1.291000
v 0.460000 0.470000 1.291000
v 0.460000 0.470000 -0.289000
vn -1.0000 -0.0000 -0.0000
vn -0.0000 1.0000 -0.0000
vn -0.0000 -0.0032 1.0000
vn 0.0048 0.9015 0.4328
vn -0.0031 0.4646 0.8855
vn 0.0031 0.4646 0.8855
vn -0.0048 0.9015 0.4328
vn -0.0019 0.4449 -0.8956
vn 0.0016 0.1860 -0.9825
vn -0.0016 0.1860 -0.9825
vn 0.0019 0.4449 -0.8956
vn 0.3024 0.9530 0.0202
vn 0.8181 0.5749 -0.0139
vn 0.8181 0.5749 0.0139
vn 0.3024 0.9530 -0.0202
vn 0.8928 0.4504 -0.0036
vn 0.9839 0.1785 0.0031
vn 0.9839 0.1785 -0.0031
vn 0.8928 0.4504 0.0036
vn -0.3024 0.9530 -0.0202
vn -0.8181 0.5749 0.0139
vn -0.8181 0.5749 -0.0139
vn -0.3024 0.9530 0.0202
vn -0.0048 0.9015 -0.4328
vn 0.0031 0.4646 -0.8855
vn -0.0031 0.4646 -0.8855
vn 0.0048 0.9015 -0.4328
vn -0.8928 0.4504 0.0036
vn -0.9839 0.1785 -0.0031
vn -0.9839 0.1785 0.0031
vn -0.8928 0.4504 -0.0036
vn 1.0000 -0.0000 -0.0000
vn 0.0019 0.4449 0.8956
vn -0.0016 0.1860 0.9825
vn 0.0016 0.1860 0.9825
vn -0.0019 0.4449 0.8956
vt 0.528163 0.660000
s 1
usemtl Material
f 1/1/1 2/1/1 3/1/1 4/1/1
f 8/1/2 9/1/2 10/1/2 11/1/2
f 7/1/3 12/1/3 2/1/3 1/1/3
f 11/1/4 14/1/5 15/1/6 8/1/7
f 16/1/8 5/1/9 3/1/10 13/1/11
f 8/1/12 15/1/13 16/1/14 9/1/15
f 15/1/16 12/1/17 5/1/18 16/1/19
f 10/1/20 13/1/21 14/1/22 11/1/23
f 9/1/24 16/1/25 13/1/26 10/1/27
f 13/1/28 3/1/29 2/1/30 14/1/31
f 6/1/32 5/1/32 12/1/32 7/1/32
f 14/1/33 2/1/34 12/1/35 15/1/36
o Cube.002
v 0.350000 0.000000 1.100000
v 0.350000 0.130000 1.100000
v 0.470000 0.130000 1.100000
v 0.470000 0.000000 1.100000
v 0.470000 0.130000 1.300000
v 0.470000 0.000000 1.300000
v 0.350000 0.130000 1.300000
v 0.350000 0.000000 1.300000
v -0.470000 0.000000 1.100000
v -0.470000 0.130000 1.100000
v -0.350000 0.130000 1.100000
v -0.350000 0.000000 1.100000
v -0.350000 0.130000 1.300000
v -0.350000 0.000000 1.300000
v -0.470000 0.130000 1.300000
v -0.470000 0.000000 1.300000
vn -0.0000 -0.0000 -1.0000
vn 1.0000 -0.0000 -0.0000
vn -0.0000 -0.0000 1.0000
vn -1.0000 -0.0000 -0.0000
vn -0.0000 -1.0000 -0.0000
vn -0.0000 1.0000 -0.0000
vt 0.999170 0.659011
vt 0.999170 0.686760
vt 0.994200 0.686760
vt 0.994200 0.659011
vt 0.943606 0.659011
vt 0.943606 0.686760
vt 0.938293 0.686760
vt 0.938293 0.659011
s 1
usemtl Material
f 17/2/37 18/3/37 19/4/37 20/5/37
f 20/6/38 19/7/38 21/8/38 22/9/38
f 22/2/39 21/3/39 23/4/39 24/5/39
f 24/2/40 23/3/40 18/4/40 17/5/40
f 20/2/41 22/3/41 24/4/41 17/5/41
f 21/4/42 19/5/42 18/2/42 23/3/42
f 25/6/37 26/7/37 27/8/37 28/9/37
f 28/2/38 27/3/38 29/4/38 30/5/38
f 30/6/39 29/7/39 31/8/39 32/9/39
f 32/6/40 31/7/40 26/8/40 25/9/40
f 28/6/41 30/7/41 32/8/41 25/9/41
f 29/8/42 27/9/42 26/6/42 31/7/42
o Cube.003
v 0.350000 0.680000 -0.500000
v 0.350000 0.790000 -0.500000
v -0.350000 0.130000 -0.500000
v -0.350000 0.000000 -0.500000
v -0.470000 0.000000 -0.500000
v -0.350000 0.790000 -0.500000
v -0.470000 0.840000 -0.500000
v -0.350000 0.840000 -0.500000
v 0.350000 0.840000 -0.500000
v 0.470000 0.840000 -0.500000
v 0.470000 -0.000000 -0.500000
v 0.240000 0.770000 -0.500000
v 0.240000 0.880000 -0.500000
v -0.350000 0.680000 -0.500000
v -0.240000 0.880000 -0.500000
v -0.240000 0.130000 -0.500000
v 0.350000 0.000000 -0.500000
v 0.350000 0.130000 -0.500000
v 0.240000 0.130000 -0.500000
v -0.240000 0.770000 -0.500000
v -0.350000 0.660000 -0.465942
v -0.240000 0.740000 -0.465942
v 0.240000 0.740000 -0.465942
v 0.350000 0.660000 -0.465942
v 0.350000 0.310000 -0.500000
v 0.240000 0.370000 -0.500000
v -0.350000 0.310000 -0.500000
v -0.240000 0.370000 -0.500000
v 0.350000 0.370000 -0.465942
v 0.240000 0.420000 -0.465942
v -0.350000 0.370000 -0.465942
v -0.240000 0.420000 -0.465942
v 0.350000 0.680000 -0.299981
v 0.350000 0.790000 -0.299981
v -0.350000 0.130000 -0.299981
v -0.350000 0.000000 -0.299981
v -0.470000 0.000000 -0.299981
v -0.350000 0.790000 -0.299981
v -0.470000 0.840000 -0.299981
v -0.350000 0.840000 -0.299981
v 0.350000 0.840000 -0.299981
v 0.470000 0.840000 -0.299981
v 0.470000 -0.000000 -0.299981
v 0.240000 0.770000 -0.299981
v 0.240000 0.880000 -0.299981
v -0.350000 0.680000 -0.299981
v -0.240000 0.880000 -0.299981
v -0.240000 0.130000 -0.299981
v 0.350000 0.000000 -0.299981
v 0.350000 0.130000 -0.299981
v 0.240000 0.130000 -0.299981
v -0.240000 0.770000 -0.299981
v -0.350000 0.660000 -0.334038
v -0.240000 0.740000 -0.334038
v 0.240000 0.740000 -0.334038
v 0.350000 0.660000 -0.334038
v 0.350000 0.310000 -0.299981
v 0.240000 0.370000 -0.299981
v -0.350000 0.310000 -0.299981
v -0.240000 0.370000 -0.299981
v 0.350000 0.370000 -0.334038
v 0.240000 0.420000 -0.334038
v -0.350000 0.370000 -0.334038
v -0.240000 0.420000 -0.334038
vn 0.0012 0.1047 -0.9945
vn 0.0326 0.1724 -0.9845
vn -0.1742 -0.1663 -0.9706
vn -0.2671 -0.2747 -0.9237
vn -0.0652 -0.0000 -0.9979
vn -0.1108 -0.0000 -0.9938
vn -0.0740 -0.0000 -0.9973
vn -0.1031 -0.3226 -0.9409
vn -0.0000 -0.0000 -1.0000
vn -1.0000 -0.0000 -0.0000
vn -0.0000 -1.0000 -0.0000
vn -0.6332 0.7740 -0.0000
vn -0.0000 1.0000 -0.0000
vn 1.0000 -0.0000 -0.0000
vn 0.1031 -0.3226 -0.9409
vn 0.2671 -0.2747 -0.9237
vn 0.0652 -0.0000 -0.9979
vn 0.6332 0.7740 -0.0000
vn 0.1742 -0.1663 -0.9706
vn 0.1811 -0.4469 -0.8761
vn -0.1811 -0.4469 -0.8761
vn 0.0809 0.3075 -0.9481
vn -0.0809 0.3075 -0.9481
vn 0.0740 -0.0000 -0.9973
vn -0.0012 0.1047 -0.9945
vn 0.0592 0.2784 -0.9586
vn -0.0592 0.2784 -0.9586
vn -0.0326 0.1724 -0.9845
vn 0.1108 -0.0000 -0.9938
vn -0.1031 -0.3226 0.9409
vn -0.1662 -0.3799 0.9100
vn -0.0323 -0.0039 0.9995
vn -0.0000 -0.0000 1.0000
vn 0.1031 -0.3226 0.9409
vn 0.1662 -0.4587 0.8729
vn -0.0308 -0.0096 0.9995
vn 0.2148 -0.2780 0.9363
vn 0.1811 -0.4469 0.8761
vn -0.1811 -0.4469 0.8761
vn -0.2148 -0.2780 0.9363
vn -0.0740 -0.0000 0.9973
vn 0.0479 0.1708 0.9841
vn 0.0809 0.3075 0.9481
vn -0.0809 0.3075 0.9481
vn 0.0740 -0.0000 0.9973
vn -0.0470 0.1709 0.9842
vn -0.1597 0.3195 0.9340
vn -0.0592 0.2784 0.9586
vn 0.0592 0.2784 0.9586
vn 0.1597 0.3195 0.9340
vt 0.943880 0.632754
vt 0.943880 0.638925
vt 0.943880 0.668547
vt 0.943880 0.671016
vt 0.943880 0.682124
vt 0.943880 0.687061
vt 0.938000 0.687061
vt 0.938000 0.600663
vt 0.943880 0.600663
vt 0.943880 0.614240
vt 0.902469 0.677220
vt 0.902469 0.684824
vt 0.894456 0.684824
vt 0.894456 0.677220
vt 0.993372 0.677228
vt 0.993372 0.683458
vt 0.944111 0.683458
vt 0.944111 0.677228
vt 0.943606 0.677228
vt 0.947785 0.677228
vt 0.947785 0.683458
vt 0.943606 0.683458
vt 0.899538 0.677220
vt 0.899538 0.684834
vt 0.914315 0.684834
vt 0.914315 0.677220
vt 0.952859 0.677228
vt 0.947846 0.677228
vt 0.947846 0.683458
vt 0.952859 0.683458
vt 0.994200 0.683458
vt 0.994200 0.677228
vt 0.990209 0.677228
vt 0.990209 0.683458
vt 0.985084 0.677228
vt 0.985084 0.683458
vt 0.892256 0.677220
vt 0.892256 0.684824
vt 0.921507 0.684824
vt 0.921507 0.677220
vt 0.914333 0.677231
vt 0.914333 0.684876
vt 0.899460 0.684876
vt 0.899460 0.677231
vt 0.902469 0.684834
vt 0.894474 0.684834
vt 0.894474 0.677220
vt 0.994641 0.665145
vt 0.994641 0.666615
vt 0.986554 0.673231
vt 0.986554 0.671026
vt 0.951268 0.673231
vt 0.951268 0.671026
vt 0.943182 0.666615
vt 0.943182 0.665145
vt 0.952859 0.601227
vt 0.952859 0.636413
vt 0.943606 0.636413
vt 0.943606 0.601227
vt 0.984620 0.601227
vt 0.985084 0.636413
vt 0.994200 0.601227
vt 0.994200 0.636413
vt 0.943182 0.643827
vt 0.951268 0.647502
vt 0.986554 0.647502
vt 0.994641 0.643827
vt 0.994200 0.645217
vt 0.985084 0.645217
vt 0.952859 0.645217
vt 0.999670 0.687061
vt 0.993705 0.687061
vt 0.993705 0.682124
vt 0.993705 0.671016
vt 0.993705 0.668547
vt 0.993705 0.638925
vt 0.993705 0.632754
vt 0.993705 0.614240
vt 0.993705 0.600663
vt 0.999670 0.600663
vt 0.943606 0.645217
vt 0.959101 0.677228
vt 0.959101 0.683458
vt 0.978912 0.677228
vt 0.978912 0.683458
vt 0.921507 0.684834
vt 0.890770 0.684834
vt 0.890770 0.677220
vt 0.899460 0.677231
vt 0.914333 0.677231
vt 0.914333 0.684876
vt 0.899460 0.684876
vt 0.994200 0.636909
vt 0.985084 0.636909
vt 0.952859 0.636909
vt 0.943606 0.636909
vt 0.943141 0.675893
vt 0.943907 0.674154
vt 0.943907 0.648970
vt 0.943141 0.643762
vt 0.993126 0.677258
vt 0.944386 0.677269
vt 0.944388 0.683479
vt 0.951931 0.683477
vt 0.962375 0.683475
vt 0.983844 0.683470
vt 0.990226 0.683469
vt 0.993127 0.683468
vt 0.983853 0.683485
vt 0.962385 0.683480
vt 0.951941 0.683478
vt 0.944398 0.683476
vt 0.944399 0.677266
vt 0.993139 0.677276
vt 0.993137 0.683487
vt 0.990236 0.683486
s 1
usemtl Material
f 57/10/43 61/11/44 56/12/45 33/13/46 34/14/47 41/15/48 42/16/48 43/17/48 49/18/48 50/19/49
f 44/20/50 45/21/51 34/22/47 33/23/46
f 71/24/52 39/25/52 37/26/52 69/27/52
f 75/28/53 81/29/53 49/30/53 43/31/53
f 38/32/54 70/33/54 79/34/54 47/35/54
f 66/36/52 73/37/52 41/38/52 34/39/52
f 39/40/55 71/41/55 72/42/55 40/43/55
f 40/43/56 72/42/56 70/44/56 38/45/56
f 52/46/57 47/47/51 45/48/51 44/49/50
f 46/50/58 38/51/59 47/52/51 52/53/57
f 45/20/60 77/54/60 66/55/60 34/56/60
f 53/57/61 46/58/58 52/59/57 54/60/62
f 54/60/62 52/59/57 44/61/50 55/62/63
f 55/62/63 44/61/50 33/63/46 56/64/45
f 51/65/51 58/66/64 57/67/43 50/68/49
f 48/69/51 60/70/65 58/66/64 51/65/51
f 35/71/66 59/72/67 60/70/65 48/69/51
f 54/60/62 55/62/63 56/64/45 61/73/44 62/74/68 64/75/69 63/76/70 53/57/61
f 74/24/56 75/27/56 43/26/56 42/25/56
f 59/72/67 63/77/70 64/78/69 60/70/65
f 60/70/65 64/78/69 62/79/68 58/66/64
f 39/80/71 40/81/71 38/82/59 46/83/58 53/84/61 63/85/70 59/86/67 35/87/66 36/88/71 37/89/71
f 58/66/64 62/79/68 61/90/44 57/67/43
f 82/36/53 83/91/53 51/92/53 50/39/53
f 49/30/52 81/29/52 82/36/52 50/39/52
f 67/44/56 68/42/56 36/43/56 35/45/56
f 68/42/53 69/41/53 37/40/53 36/43/53
f 80/93/53 67/44/53 35/45/53 48/94/53
f 47/49/55 79/95/55 77/96/55 45/97/55
f 41/38/55 73/37/55 74/28/55 42/31/55
f 76/20/72 65/23/73 66/22/74 77/21/75
f 84/49/76 76/46/72 77/47/75 79/48/75
f 78/98/77 84/99/76 79/100/75 70/101/78
f 85/57/79 86/60/80 84/59/76 78/58/77
f 86/60/80 87/62/81 76/61/72 84/59/76
f 87/62/81 88/64/82 65/63/73 76/61/72
f 83/65/75 82/68/83 89/67/84 90/66/85
f 80/69/75 83/65/75 90/66/85 92/70/86
f 67/71/87 80/69/75 92/70/86 91/72/88
f 86/60/80 85/57/79 95/76/89 96/75/90 94/74/91 93/73/92 88/64/82 87/62/81
f 91/102/88 92/103/86 96/78/90 95/77/89
f 92/103/86 90/104/85 94/79/91 96/78/90
f 90/104/85 89/105/84 93/90/92 94/79/91
f 83/91/53 80/93/53 48/94/53 51/92/53
s 0
f 78/106/52 85/107/52 95/108/52 91/109/52
f 65/106/52 88/107/52 93/108/52 89/109/52
s 1
f 71/110/75 69/111/75 68/112/75 67/113/87 91/114/88 78/115/77 70/116/78 72/117/75
f 65/118/73 89/119/84 82/120/83 81/121/75 75/122/75 74/123/75 73/124/75 66/125/74
