# Blender 3.6.5
# www.blender.org
mtllib Inside_Poly_Pottery_02.mtl
o Circle.001
v -0.000541 -0.000808 -0.233375
v -0.202614 -0.000808 -0.116708
v -0.202614 -0.000808 0.116626
v -0.000541 -0.000808 0.233293
v 0.201532 -0.000808 0.116626
v 0.201532 -0.000808 -0.116708
v -0.000541 0.138541 -0.356344
v -0.309108 0.138541 -0.178192
v -0.309108 0.138541 0.178110
v -0.000541 0.138541 0.356261
v 0.308026 0.138541 0.178110
v 0.308026 0.138541 -0.178192
v -0.000541 0.551758 -0.356344
v -0.309108 0.551758 -0.178192
v -0.309108 0.551758 0.178110
v -0.000541 0.551758 0.356261
v 0.308026 0.551758 0.178110
v 0.308026 0.551758 -0.178192
v -0.000461 0.624406 -0.196646
v -0.170726 0.624406 -0.098344
v -0.170726 0.624406 0.098261
v -0.000461 0.624406 0.196564
v 0.169803 0.624406 0.098261
v 0.169803 0.624406 -0.098344
v 0.360111 0.353839 -0.208264
v -0.000541 0.353839 -0.416487
v -0.000541 0.353839 0.416404
v 0.360111 0.353839 0.208181
v -0.361193 0.353839 -0.208264
v -0.361193 0.353839 0.208181
vn -0.3973 -0.6072 0.6881
vn -0.3973 -0.6072 -0.6881
vn 0.3973 -0.6072 -0.6881
vn 0.3973 -0.6072 0.6881
vn -0.7945 -0.6072 -0.0000
vn 0.7945 -0.6072 -0.0000
vn 0.4835 0.2545 -0.8375
vn 0.4835 0.2545 0.8375
vn -0.9671 0.2545 -0.0000
vn 0.9671 0.2545 -0.0000
vn -0.4835 0.2545 0.8375
vn -0.4835 0.2545 -0.8375
vn 0.4652 0.8852 -0.0000
vn -0.2325 0.8854 0.4026
vn -0.2325 0.8854 -0.4026
vn 0.2326 0.8852 -0.4028
vn 0.2326 0.8852 0.4028
vn -0.4648 0.8854 -0.0000
vn -0.4860 -0.2351 -0.8417
vn -0.4860 -0.2351 0.8417
vn 0.9720 -0.2351 -0.0000
vn -0.9720 -0.2351 -0.0000
vn 0.4860 -0.2351 0.8417
vn 0.4860 -0.2351 -0.8417
vt 0.594948 0.315501
vt 0.594948 0.321334
vt 0.579870 0.321334
vt 0.589729 0.315501
vt 0.594948 0.330905
vt 0.594948 0.340475
vt 0.572744 0.340475
vt 0.572998 0.330905
vt 0.594948 0.330905
vt 0.594948 0.343675
vt 0.572744 0.343675
s 0
usemtl Wood_CLock
f 4/1/1 10/2/1 9/3/1 3/4/1
f 2/4/2 8/3/2 7/2/2 1/1/2
f 1/1/3 7/2/3 12/3/3 6/4/3
f 5/4/4 11/3/4 10/2/4 4/1/4
f 3/1/5 9/2/5 8/3/5 2/4/5
f 6/1/6 12/2/6 11/3/6 5/4/6
f 26/5/7 13/6/7 18/7/7 25/8/7
f 28/8/8 17/7/8 16/6/8 27/9/8
f 30/9/9 15/6/9 14/7/9 29/8/9
f 25/9/10 18/6/10 17/7/10 28/8/10
f 27/9/11 16/6/11 15/7/11 30/8/11
f 29/8/12 14/7/12 13/6/12 26/5/12
f 18/6/13 24/10/13 23/11/13 17/7/13
f 16/6/14 22/10/14 21/11/14 15/7/14
f 14/7/15 20/11/15 19/10/15 13/6/15
f 13/6/16 19/10/16 24/11/16 18/7/16
f 17/7/17 23/11/17 22/10/17 16/6/17
f 15/6/18 21/10/18 20/11/18 14/7/18
f 8/3/19 29/8/19 26/5/19 7/2/19
f 10/2/20 27/9/20 30/8/20 9/3/20
f 12/2/21 25/9/21 28/8/21 11/3/21
f 9/2/22 30/9/22 29/8/22 8/3/22
f 11/3/23 28/8/23 27/9/23 10/2/23
f 7/2/24 26/5/24 25/8/24 12/3/24
o Circle.002
v -0.000461 0.678869 -0.196646
v -0.170726 0.678869 -0.098344
v -0.170726 0.678869 0.098261
v -0.000461 0.678869 0.196564
v 0.169803 0.678869 0.098261
v 0.169803 0.678869 -0.098344
v -0.000461 0.737179 -0.241425
v -0.209506 0.737179 -0.120733
v -0.209506 0.737179 0.120650
v -0.000461 0.737179 0.241342
v 0.208583 0.737179 0.120650
v 0.208583 0.737179 -0.120733
v -0.001241 0.762394 -0.216916
v -0.189060 0.762394 -0.108479
v -0.189060 0.762394 0.108396
v -0.001241 0.762394 0.216833
v 0.186578 0.762394 0.108396
v 0.186578 0.762394 -0.108479
v -0.001241 0.745790 -0.165469
v -0.001241 0.745790 0.165387
vn 0.8327 -0.5538 -0.0000
vn -0.4163 -0.5538 0.7211
vn -0.4163 -0.5538 -0.7211
vn 0.4163 -0.5538 -0.7211
vn 0.4163 -0.5538 0.7211
vn -0.8327 -0.5538 -0.0000
vn 0.3796 0.6508 -0.6575
vn 0.3796 0.6508 0.6575
vn -0.7767 0.6298 -0.0000
vn 0.7534 0.6575 -0.0000
vn -0.3854 0.6370 0.6676
vn -0.3854 0.6370 -0.6676
vn -0.0000 1.0000 -0.0000
vt 0.591467 0.343746
vt 0.591514 0.347299
vt 0.598548 0.347299
vt 0.598548 0.343746
vt 0.591168 0.343746
vt 0.591168 0.347299
vt 0.598548 0.343728
vt 0.598548 0.347280
vt 0.591168 0.347280
vt 0.591168 0.343728
vt 0.591607 0.343746
vt 0.591607 0.347299
vt 0.586375 0.347771
vt 0.586338 0.349914
vt 0.599976 0.349914
vt 0.599976 0.347771
vt 0.651210 0.365085
vt 0.643327 0.356665
vt 0.651210 0.346535
vt 0.661943 0.346535
vt 0.669314 0.357284
vt 0.661943 0.365085
s 0
usemtl Wood_CLock
f 36/12/25 42/13/25 41/14/25 35/15/25
f 34/16/26 40/17/26 39/14/26 33/15/26
f 32/15/27 38/14/27 37/17/27 31/16/27
f 31/16/28 37/17/28 42/14/28 36/15/28
f 35/18/29 41/19/29 40/20/29 34/21/29
f 33/22/30 39/23/30 38/14/30 32/15/30
f 37/24/31 43/25/31 48/26/31 42/27/31
f 41/27/32 47/26/32 46/25/32 40/24/32
f 39/27/33 45/26/33 44/26/33 38/27/33
f 42/27/34 48/26/34 47/26/34 41/27/34
f 40/24/35 46/25/35 45/26/35 39/27/35
f 38/27/36 44/26/36 43/25/36 37/24/36
f 44/28/37 45/29/37 46/30/37 47/31/37 48/32/37 43/33/37
l 50 46
l 43 49
o Circle.003
v 0.169214 0.643415 -0.002685
v 0.136882 0.643415 -0.065601
v -0.142612 0.643415 -0.057070
v -0.171285 0.643415 0.001637
v -0.141496 0.643415 0.059602
v 0.138093 0.643415 0.061036
v 0.398470 0.475852 0.005502
v 0.366577 0.528403 -0.099911
v 0.364747 0.546857 0.098839
v -0.406659 0.457836 -0.069394
v -0.437953 0.420188 0.011562
v -0.405134 0.444120 0.078395
v -0.346177 0.605870 0.004067
v -0.335024 0.563583 -0.112034
v -0.332465 0.563583 0.120159
v 0.333931 0.578553 0.000330
v 0.317633 0.578627 0.117908
v 0.319872 0.556040 -0.125359
vn 0.7672 0.6405 -0.0339
vn 0.7668 0.6381 -0.0695
vn -0.8614 0.4347 0.2627
vn -0.8691 0.4533 -0.1979
vn 0.3657 0.9093 -0.1985
vn -0.2476 0.9255 0.2867
vn 0.3376 0.9372 0.0879
vn -0.2552 0.9249 -0.2819
vt 0.677497 0.347582
vt 0.677497 0.342656
vt 0.682049 0.342656
vt 0.682049 0.347582
vt 0.667197 0.342656
vt 0.667197 0.345910
s 0
usemtl Wood_CLock
f 66/34/38 67/35/38 59/36/38 57/37/38
f 68/35/39 66/34/39 57/37/39 58/36/39
f 65/35/40 63/34/40 61/37/40 62/36/40
f 63/34/41 64/35/41 60/36/41 61/37/41
f 52/38/42 51/39/42 66/34/42 68/35/42
f 55/38/43 54/39/43 63/34/43 65/35/43
f 51/39/44 56/38/44 67/35/44 66/34/44
f 54/39/45 53/38/45 64/35/45 63/34/45
o Circle.004
v -0.000461 0.624406 -0.196646
v -0.170726 0.624406 -0.098344
v -0.170726 0.624406 0.098261
v -0.000461 0.624406 0.196564
v 0.169803 0.624406 0.098261
v 0.169803 0.624406 -0.098344
v -0.000461 0.678869 -0.196646
v -0.170726 0.678869 -0.098344
v -0.170726 0.678869 0.098261
v -0.000461 0.678869 0.196564
v 0.169803 0.678869 0.098261
v 0.169803 0.678869 -0.098344
vn 1.0000 -0.0000 -0.0000
vn -0.5000 -0.0000 0.8660
vn -0.5000 -0.0000 -0.8660
vn 0.5000 -0.0000 -0.8660
vn 0.5000 -0.0000 0.8660
vn -1.0000 -0.0000 -0.0000
vt 0.654792 0.328271
vt 0.651174 0.328255
vt 0.651113 0.337137
vt 0.654731 0.337152
s 0
usemtl Wood_CLock
f 74/40/46 80/41/46 79/42/46 73/43/46
f 72/43/47 78/42/47 77/41/47 71/40/47
f 70/40/48 76/41/48 75/42/48 69/43/48
f 69/43/49 75/42/49 80/41/49 74/40/49
f 73/40/50 79/41/50 78/42/50 72/43/50
f 71/40/51 77/41/51 76/42/51 70/43/51
o Circle.005
v -0.082070 0.578650 0.153803
v -0.127750 0.598930 0.181314
v -0.148863 0.575521 0.289841
v -0.053659 0.591227 0.305167
v -0.013558 0.644865 0.231769
v -0.020543 0.605296 0.189295
v -0.063491 0.660871 0.178087
v -0.138001 0.648097 0.204859
v -0.156101 0.624688 0.306467
v -0.080209 0.633893 0.320029
v -0.020797 0.694031 0.248395
v -0.020789 0.654463 0.191163
v 0.038423 0.624093 0.180531
v 0.032436 0.641197 0.229983
v 0.063018 0.575521 0.279187
v 0.124762 0.565595 0.289914
v 0.144995 0.575521 0.193145
v 0.077354 0.605296 0.153070
v 0.038302 0.679124 0.179693
v 0.032290 0.690364 0.232577
v 0.061249 0.624688 0.293774
v 0.132318 0.616432 0.300147
v 0.155766 0.624688 0.207733
v 0.076857 0.654463 0.155558
v -0.079759 0.567748 0.192219
v -0.100911 0.590603 0.209780
v -0.115951 0.588018 0.270851
v -0.071961 0.596551 0.270001
v -0.052744 0.640758 0.224868
v -0.045757 0.600023 0.219897
v -0.066362 0.651394 0.216842
v -0.105266 0.643689 0.227419
v -0.126019 0.638068 0.283751
v -0.094046 0.641410 0.283258
v -0.057501 0.690188 0.232967
v -0.053909 0.649341 0.213000
v 0.070224 0.623838 0.204792
v 0.071819 0.643168 0.223263
v 0.082393 0.583539 0.245124
v 0.102769 0.577858 0.258835
v 0.108542 0.578640 0.209314
v 0.070771 0.602589 0.192432
v 0.074478 0.678974 0.196759
v 0.072116 0.691780 0.229138
v 0.088664 0.631270 0.265400
v 0.110927 0.628698 0.268652
v 0.118497 0.628450 0.221763
v 0.083061 0.652629 0.195031
vn 0.9832 0.1032 -0.1507
vn -0.1048 -0.3568 0.9283
vn -0.3697 0.3384 -0.8653
vn 0.3990 0.1251 -0.9084
vn 0.7903 0.0826 0.6071
vn -0.9751 -0.0908 -0.2022
vn 0.5554 0.0856 -0.8271
vn -0.1551 -0.2295 0.9609
vn -0.9932 -0.0006 -0.1163
vn -0.5503 0.0100 -0.8349
vn 0.9541 -0.2242 0.1987
vn -0.9161 -0.0862 0.3915
vn -0.9916 -0.1297 0.0035
vn -0.0558 0.2477 -0.9672
vn 0.3423 -0.2981 0.8911
vn -0.3986 -0.1057 0.9110
vn -0.8127 -0.1014 -0.5737
vn 0.9546 0.0464 0.2943
vn -0.5183 -0.0134 0.8551
vn 0.3966 0.2144 -0.8926
vn 0.9982 -0.0429 0.0422
vn 0.7037 -0.0742 0.7066
vn -0.9699 0.2040 -0.1331
vn 0.9313 0.0349 -0.3625
vn -0.5442 -0.8390 -0.0040
vn 0.0898 -0.9871 -0.1321
vn 0.1918 -0.9465 -0.2597
vn 0.3420 -0.8015 -0.4905
vn 0.3641 -0.4738 0.8019
vn 0.5347 -0.8448 -0.0206
vn -0.0878 0.9615 0.2605
vn -0.1395 0.9794 0.1457
vn -0.1454 0.9452 0.2923
vn -0.3835 0.8179 0.4289
vn -0.1532 0.6808 -0.7163
vn 0.0980 0.9527 0.2877
vn -0.0936 -0.8799 0.4659
vn -0.4120 -0.5481 -0.7279
vn -0.0938 -0.9517 -0.2925
vn -0.2264 -0.9677 -0.1111
vn -0.3297 -0.9107 -0.2488
vn -0.5922 -0.7810 0.1984
vn 0.0321 0.9628 -0.2684
vn 0.2617 0.6473 0.7159
vn 0.0784 0.9486 0.3066
vn 0.2322 0.9667 0.1073
vn 0.3300 0.9306 0.1581
vn 0.5645 0.7233 -0.3977
vt 0.654706 0.328263
vt 0.651088 0.328263
vt 0.651088 0.332116
vt 0.654706 0.332116
s 0
usemtl Wood_CLock
f 86/44/52 92/45/52 91/46/52 85/47/52
f 84/47/53 90/46/53 89/45/53 83/44/53
f 82/44/54 88/45/54 87/46/54 81/47/54
f 81/47/55 87/46/55 92/45/55 86/44/55
f 85/44/56 91/45/56 90/46/56 84/47/56
f 83/44/57 89/45/57 88/46/57 82/47/57
f 98/44/58 104/45/58 103/46/58 97/47/58
f 96/47/59 102/46/59 101/45/59 95/44/59
f 94/44/60 100/45/60 99/46/60 93/47/60
f 93/47/61 99/46/61 104/45/61 98/44/61
f 97/44/62 103/45/62 102/46/62 96/47/62
f 95/44/63 101/45/63 100/46/63 94/47/63
f 110/44/64 109/47/64 115/46/64 116/45/64
f 108/47/65 107/44/65 113/45/65 114/46/65
f 106/44/66 105/47/66 111/46/66 112/45/66
f 105/47/67 110/44/67 116/45/67 111/46/67
f 109/44/68 108/47/68 114/46/68 115/45/68
f 107/44/69 106/47/69 112/46/69 113/45/69
f 122/44/70 121/47/70 127/46/70 128/45/70
f 120/47/71 119/44/71 125/45/71 126/46/71
f 118/44/72 117/47/72 123/46/72 124/45/72
f 117/47/73 122/44/73 128/45/73 123/46/73
f 121/44/74 120/47/74 126/46/74 127/45/74
f 119/44/75 118/47/75 124/46/75 125/45/75
f 82/44/76 81/47/76 105/47/76 106/44/76
f 83/44/77 82/47/77 106/47/77 107/44/77
f 84/47/78 83/44/78 107/44/78 108/47/78
f 85/44/79 84/47/79 108/47/79 109/44/79
f 86/44/80 85/47/80 109/47/80 110/44/80
f 81/47/81 86/44/81 110/44/81 105/47/81
f 87/46/82 88/45/82 112/45/82 111/46/82
f 88/46/83 89/45/83 113/45/83 112/46/83
f 89/45/84 90/46/84 114/46/84 113/45/84
f 90/46/85 91/45/85 115/45/85 114/46/85
f 91/46/86 92/45/86 116/45/86 115/46/86
f 92/45/87 87/46/87 111/46/87 116/45/87
f 94/44/88 93/47/88 117/47/88 118/44/88
f 95/44/89 94/47/89 118/47/89 119/44/89
f 96/47/90 95/44/90 119/44/90 120/47/90
f 97/44/91 96/47/91 120/47/91 121/44/91
f 98/44/92 97/47/92 121/47/92 122/44/92
f 93/47/93 98/44/93 122/44/93 117/47/93
f 99/46/94 100/45/94 124/45/94 123/46/94
f 100/46/95 101/45/95 125/45/95 124/46/95
f 101/45/96 102/46/96 126/46/96 125/45/96
f 102/46/97 103/45/97 127/45/97 126/46/97
f 103/46/98 104/45/98 128/45/98 127/46/98
f 104/45/99 99/46/99 123/46/99 128/45/99
o Cube
v -0.084804 0.497548 0.393207
v -0.037000 0.660000 0.196000
v -0.075042 0.481800 0.370088
v -0.037000 0.624000 0.196000
v -0.051660 0.497548 0.407202
v -0.001000 0.660000 0.196000
v -0.041898 0.481800 0.384083
v -0.001000 0.624000 0.196000
v -0.052084 0.605088 0.315717
v -0.046858 0.576072 0.303340
v -0.013714 0.576072 0.317335
v -0.018940 0.605088 0.329712
v -0.037467 0.628521 0.269275
v -0.037467 0.599505 0.255839
v -0.001490 0.599505 0.255839
v -0.001490 0.628521 0.269275
v -0.066190 0.553061 0.349123
v -0.033046 0.553061 0.363118
v -0.038272 0.582077 0.375495
v -0.071416 0.582077 0.361499
v 0.055559 0.497548 0.394202
v 0.017028 0.660000 0.196000
v 0.047702 0.481800 0.370368
v 0.017028 0.624000 0.196000
v 0.089728 0.497548 0.382937
v 0.053028 0.660000 0.196000
v 0.081870 0.481800 0.359104
v 0.053028 0.624000 0.196000
v 0.029223 0.605088 0.314316
v 0.025017 0.576072 0.301556
v 0.059186 0.576072 0.290292
v 0.063392 0.605088 0.303052
v 0.016560 0.628521 0.269275
v 0.016560 0.599505 0.255839
v 0.052538 0.599505 0.255839
v 0.052538 0.628521 0.269275
v 0.040577 0.553061 0.348755
v 0.074745 0.553061 0.337490
v 0.078952 0.582077 0.350250
v 0.044783 0.582077 0.361514
vn -1.0000 0.0013 -0.0065
vn -0.0000 -0.9255 -0.3788
vn 1.0000 -0.0014 0.0068
vn -0.0000 0.9188 0.3947
vn -0.2068 -0.8470 0.4897
vn -0.0000 -0.0000 -1.0000
vn -0.1634 0.9074 0.3871
vn 0.9212 -0.0000 0.3890
vn 0.1634 -0.9074 -0.3871
vn -0.9212 -0.0000 -0.3890
vn -0.0771 0.9214 0.3809
vn 0.9728 -0.0151 0.2310
vn 0.0771 -0.9214 -0.3809
vn -0.9709 0.0188 -0.2388
vn 0.3706 -0.3042 -0.8776
vn -0.3603 0.3771 0.8532
vn 0.1664 -0.8470 0.5048
vn 0.1316 0.9074 0.3990
vn 0.9497 -0.0000 -0.3131
vn -0.1316 -0.9074 -0.3990
vn -0.9497 -0.0000 0.3131
vn 0.0790 0.8670 0.4920
vn 0.9732 0.0322 -0.2275
vn -0.0790 -0.8670 -0.4920
vn -0.9765 -0.0258 0.2139
vn -0.2983 -0.3042 -0.9047
vn 0.2900 0.3771 0.8796
vt 0.651289 0.333924
vt 0.651289 0.335787
vt 0.654713 0.335787
vt 0.654713 0.333924
vt 0.654743 0.335787
vt 0.654743 0.333924
vt 0.651179 0.333924
vt 0.651179 0.335787
vt 0.654713 0.328403
vt 0.654743 0.328403
vt 0.651289 0.328403
vt 0.654743 0.330232
vt 0.654743 0.332061
vt 0.651289 0.332061
vt 0.651289 0.330232
vt 0.651179 0.330232
vt 0.651179 0.332061
vt 0.654713 0.332061
vt 0.654713 0.330232
vt 0.651179 0.328403
s 0
usemtl Wood_CLock
f 141/48/100 130/49/100 132/50/100 142/51/100
f 142/48/101 132/49/101 136/52/101 143/53/101
f 143/54/102 136/55/102 134/52/102 144/53/102
f 144/53/103 134/52/103 130/49/103 141/48/103
f 131/56/104 135/57/104 133/57/104 129/58/104
f 136/52/105 132/50/105 130/49/105 134/52/105
f 147/59/106 140/60/106 137/61/106 148/62/106
f 146/63/107 139/64/107 140/60/107 147/59/107
f 145/62/108 138/61/108 139/60/108 146/59/108
f 148/62/109 137/61/109 138/65/109 145/66/109
f 140/60/110 144/53/110 141/48/110 137/61/110
f 139/64/111 143/54/111 144/53/111 140/60/111
f 138/61/112 142/48/112 143/53/112 139/60/112
f 137/61/113 141/48/113 142/51/113 138/65/113
f 129/58/109 148/62/109 145/66/109 131/56/109
f 131/58/114 145/62/114 146/59/114 135/57/114
f 135/67/107 146/63/107 147/59/107 133/57/107
f 133/57/115 147/59/115 148/62/115 129/58/115
f 161/48/100 150/49/100 152/50/100 162/51/100
f 162/48/101 152/49/101 156/52/101 163/53/101
f 163/54/102 156/55/102 154/52/102 164/53/102
f 164/53/103 154/52/103 150/49/103 161/48/103
f 151/56/116 155/57/116 153/57/116 149/58/116
f 156/52/105 152/50/105 150/49/105 154/52/105
f 167/59/117 160/60/117 157/61/117 168/62/117
f 166/63/118 159/64/118 160/60/118 167/59/118
f 165/62/119 158/61/119 159/60/119 166/59/119
f 168/62/120 157/61/120 158/65/120 165/66/120
f 160/60/121 164/53/121 161/48/121 157/61/121
f 159/64/122 163/54/122 164/53/122 160/60/122
f 158/61/123 162/48/123 163/53/123 159/60/123
f 157/61/124 161/48/124 162/51/124 158/65/124
f 149/58/120 168/62/120 165/66/120 151/56/120
f 151/58/125 165/62/125 166/59/125 155/57/125
f 155/67/118 166/63/118 167/59/118 153/57/118
f 153/57/126 167/59/126 168/62/126 149/58/126
