# Blender 3.6.5
# www.blender.org
mtllib Inside_Poly_Bed_04_With_Blanket.mtl
o Plane
v -0.437947 0.118985 1.301129
v 0.437947 0.118985 1.301129
v -0.437947 0.118985 -0.547968
v 0.437947 0.118985 -0.547968
v -0.285462 0.054662 1.301129
v -0.285462 0.054662 -0.547968
v 0.306644 0.054662 1.301129
v 0.306644 0.054662 -0.547968
v -0.437947 0.054662 -0.424535
v 0.437947 0.054662 -0.424535
v -0.285462 0.000410 -0.424535
v 0.306644 0.000410 -0.424535
v -0.437947 0.054662 1.150541
v 0.437947 0.054662 1.150541
v -0.285462 0.000410 1.150541
v 0.306644 0.000410 1.150541
v -0.439437 0.115153 1.302638
v 0.439644 0.115228 1.302608
v -0.439396 0.115259 -0.549758
v 0.439598 0.115328 -0.549724
v -0.286249 0.050631 1.302649
v -0.286231 0.050745 -0.549770
v 0.307548 0.050652 1.302641
v 0.307530 0.050765 -0.549761
v -0.439438 0.050657 -0.425493
v 0.439645 0.050737 -0.425480
v -0.286202 -0.003811 -0.425436
v 0.307488 -0.003793 -0.425429
v -0.439450 0.050626 1.151338
v 0.439658 0.050707 1.151326
v -0.286210 -0.003838 1.151298
v 0.307497 -0.003819 1.151292
vn -0.3770 0.8349 0.4010
vn 0.3307 0.8507 0.4086
vn -0.0000 0.9155 0.4024
vn -0.0000 1.0000 -0.0000
vn 0.3352 0.9421 -0.0000
vn -0.3819 0.9242 -0.0000
vn -0.3873 0.8578 -0.3377
vn 0.3402 0.8750 -0.3445
vn -0.0000 0.9408 -0.3389
vn 0.3765 -0.8354 -0.4004
vn -0.3304 -0.8511 -0.4080
vn -0.0000 -0.9157 -0.4018
vn -0.0000 -1.0000 -0.0000
vn -0.3349 -0.9423 -0.0000
vn 0.3814 -0.9244 -0.0000
vn 0.3868 -0.8582 0.3374
vn -0.3398 -0.8753 0.3441
vn -0.0000 -0.9409 0.3386
vn -0.9386 0.3173 -0.1354
vn -0.1518 0.3105 0.9384
vn 0.9220 0.3435 0.1786
vn 0.1607 0.3813 -0.9104
vn 0.1356 0.3217 0.9371
vn -0.0000 0.4180 -0.9085
vn -0.0000 0.3528 0.9357
vn -0.1800 0.3681 -0.9122
vn -0.9404 0.3018 0.1569
vn 0.9178 0.3969 -0.0000
vn -0.9372 0.3489 -0.0000
vn 0.9197 0.3611 -0.1541
vt 0.865400 0.675019
vt 0.874570 0.675019
vt 0.874570 0.687103
vt 0.865400 0.687103
vt 0.813399 0.675019
vt 0.824048 0.675019
vt 0.824048 0.687103
vt 0.813399 0.687103
vt 0.824048 0.577136
vt 0.865400 0.577136
vt 0.813399 0.577136
vt 0.874570 0.577136
vt 0.865400 0.562393
vt 0.874570 0.562393
vt 0.813399 0.562393
vt 0.824048 0.562393
s 0
usemtl Material
f 12/1/1 10/2/1 4/3/1 8/4/1
f 9/5/2 11/6/2 6/7/2 3/8/2
f 11/6/3 12/1/3 8/4/3 6/7/3
f 15/9/4 16/10/4 12/1/4 11/6/4
f 13/11/5 15/9/5 11/6/5 9/5/5
f 16/10/6 14/12/6 10/2/6 12/1/6
f 7/13/7 2/14/7 14/12/7 16/10/7
f 1/15/8 5/16/8 15/9/8 13/11/8
f 5/16/9 7/13/9 16/10/9 15/9/9
f 28/1/10 24/4/10 20/3/10 26/2/10
f 25/5/11 19/8/11 22/7/11 27/6/11
f 27/6/12 22/7/12 24/4/12 28/1/12
f 31/9/13 27/6/13 28/1/13 32/10/13
f 29/11/14 25/5/14 27/6/14 31/9/14
f 32/10/15 28/1/15 26/2/15 30/12/15
f 23/13/16 32/10/16 30/12/16 18/14/16
f 17/15/17 29/11/17 31/9/17 21/16/17
f 21/16/18 31/9/18 32/10/18 23/13/18
f 1/15/19 13/11/19 29/11/19 17/15/19
f 2/14/20 7/13/20 23/13/20 18/14/20
f 4/3/21 10/2/21 26/2/21 20/3/21
f 3/8/22 6/7/22 22/7/22 19/8/22
f 5/16/23 1/15/23 17/15/23 21/16/23
f 6/7/24 8/4/24 24/4/24 22/7/24
f 7/13/25 5/16/25 21/16/25 23/13/25
f 8/4/26 4/3/26 20/3/26 24/4/26
f 9/5/27 3/8/27 19/8/27 25/5/27
f 10/2/28 14/12/28 30/12/28 26/2/28
f 13/11/29 9/5/29 25/5/29 29/11/29
f 14/12/30 2/14/30 18/14/30 30/12/30
o Plane.001
v -0.250000 -0.000000 -0.197786
v -0.249075 0.105802 -0.194239
v -0.250000 -0.000000 -0.431644
v -0.249075 0.105802 -0.427886
v 0.240000 -0.000000 -0.211003
v 0.240751 0.101842 -0.207657
v 0.240000 -0.000000 -0.418426
v 0.240751 0.101842 -0.414468
v -0.004162 0.015168 -0.461594
v -0.004162 0.108296 -0.461594
v -0.004162 -0.003949 -0.160532
v -0.004162 0.108296 -0.160532
v -0.250000 -0.000000 -0.320556
v -0.249075 0.120943 -0.323513
v 0.240000 -0.000000 -0.320556
v 0.240751 0.116983 -0.323513
v -0.004162 0.130891 -0.323513
v -0.004162 -0.003949 -0.323513
vn -1.0000 0.0082 -0.0006
vn 0.1823 0.0193 -0.9830
vn 1.0000 -0.0069 -0.0005
vn -0.1431 -0.0155 0.9896
vn 0.0162 -0.9999 -0.0000
vn -0.0340 0.9912 0.1280
vn 0.0540 0.9895 0.1339
vn -0.0161 -0.9999 -0.0000
vn 0.1956 -0.0160 0.9806
vn -0.1293 0.0193 -0.9914
vn 0.0176 -0.9969 -0.0765
vn 0.0566 0.9851 -0.1623
vn -0.0357 0.9875 -0.1537
vn -0.0153 -0.9966 -0.0807
vn 1.0000 -0.0069 0.0006
vn -1.0000 0.0082 0.0005
vt 0.828534 0.668225
vt 0.831369 0.668662
vt 0.831369 0.675516
vt 0.828534 0.673727
vt 0.843739 0.676569
vt 0.843753 0.672371
vt 0.858914 0.672371
vt 0.854868 0.676569
vt 0.858868 0.668225
vt 0.853983 0.668364
vt 0.853983 0.660855
vt 0.858868 0.660855
vt 0.843744 0.657883
vt 0.843753 0.662340
vt 0.828698 0.662340
vt 0.831141 0.657883
vt 0.843753 0.668364
vt 0.843753 0.660855
vt 0.828591 0.668364
vt 0.828591 0.660855
vt 0.858914 0.668364
vt 0.858914 0.660855
vt 0.828534 0.660855
vt 0.856261 0.657883
vt 0.858808 0.662340
vt 0.832534 0.676569
vt 0.828591 0.672371
vt 0.843753 0.673727
vt 0.858914 0.673727
vt 0.828591 0.673727
vt 0.858868 0.673727
vt 0.853983 0.673727
vt 0.831369 0.659065
s 0
usemtl Material
f 45/17/31 46/18/31 36/19/31 35/20/31
f 41/21/32 42/22/32 40/23/32 39/24/32
f 47/25/33 48/26/33 38/27/33 37/28/33
f 43/29/34 44/30/34 34/31/34 33/32/34
f 50/33/35 47/25/35 37/28/35 43/34/35
f 49/33/36 46/35/36 34/36/36 44/34/36
f 48/37/37 49/33/37 44/34/37 38/38/37
f 45/17/38 50/33/38 43/34/38 33/39/38
f 37/40/39 38/41/39 44/30/39 43/29/39
f 35/42/40 36/43/40 42/22/40 41/21/40
f 35/20/41 41/44/41 50/33/41 45/17/41
f 40/45/42 42/44/42 49/33/42 48/37/42
f 42/44/43 36/46/43 46/35/43 49/33/43
f 41/44/44 39/47/44 47/25/44 50/33/44
f 39/47/45 40/48/45 48/26/45 47/25/45
f 33/39/46 34/49/46 46/18/46 45/17/46
o Cube
v 0.438929 0.051155 -0.219680
v -0.433997 0.049728 -0.219680
v 0.438929 0.089492 1.250094
v -0.433997 0.095275 1.250094
v -0.433997 0.049728 0.515207
v 0.438929 0.051155 0.515207
v -0.433997 0.049728 0.882650
v 0.438929 0.051155 0.882650
v 0.438929 0.051155 0.147763
v -0.433997 0.049728 0.147763
v 0.002466 0.031791 1.250094
v 0.002466 -0.003766 -0.219680
v 0.002466 0.266725 0.515207
v 0.002466 0.280272 0.882650
v 0.002466 0.244147 0.147763
v -0.215766 -0.004307 -0.219680
v -0.215766 0.197225 0.515207
v -0.215766 0.210772 0.882650
v -0.215766 0.174647 0.147763
v -0.215766 0.034825 1.250094
v 0.220698 0.051212 1.305343
v 0.220698 -0.002956 -0.219680
v 0.220698 0.197225 0.515207
v 0.220698 0.210772 0.882650
v 0.220698 0.174647 0.147763
v 0.438929 0.051155 0.698928
v -0.433997 0.049728 0.698928
v 0.002466 0.238006 0.698928
v -0.215766 0.253671 0.698928
v 0.220698 0.287939 0.698928
v -0.433997 0.049728 1.066372
v 0.438929 0.051155 1.066372
v 0.002466 0.276934 1.066372
v -0.215766 0.253671 1.066372
v 0.220698 0.253671 1.066372
v -0.433997 0.049728 0.331485
v 0.438929 0.051155 0.331485
v 0.002466 0.323171 0.331485
v -0.215766 0.253671 0.331485
v 0.220698 0.253671 0.331485
v 0.438929 0.051155 -0.035959
v -0.433997 0.049728 -0.035959
v 0.002466 0.323171 -0.035959
v -0.215766 0.164981 -0.035959
v 0.220698 0.295904 -0.035959
v -0.324881 0.022710 -0.219680
v -0.324881 0.145993 0.515207
v -0.324881 0.152766 0.882650
v -0.324881 0.134704 0.147763
v -0.324881 0.041541 1.250094
v -0.324881 0.211154 0.698928
v -0.324881 0.174216 1.066372
v -0.324881 0.174216 0.331485
v -0.324881 0.091124 -0.035959
v 0.329813 0.046844 1.250094
v 0.329813 0.024099 -0.219680
v 0.329814 0.147348 0.515207
v 0.329814 0.154121 0.882650
v 0.329814 0.136058 0.147763
v 0.329814 0.235223 0.698928
v 0.329814 0.175570 1.066372
v 0.329814 0.091577 0.331485
v 0.329814 0.175570 -0.035959
v 0.438929 0.051155 -0.127820
v 0.002466 0.158185 -0.127820
v -0.215766 0.040371 -0.127820
v 0.220698 0.242422 -0.127820
v -0.433997 0.049728 -0.127820
v -0.324881 0.054811 -0.127820
v 0.329814 0.225988 -0.127820
vn 0.4147 0.6124 -0.6730
vn 0.4181 0.8343 0.3594
vn 0.6967 0.7173 0.0013
vn 0.4953 0.8624 0.1044
vn 0.7209 0.6919 -0.0404
vn 0.7806 0.6079 -0.1454
vn -0.1773 0.6539 -0.7355
vn 0.1726 0.9088 -0.3798
vn -0.1221 0.9897 -0.0747
vn -0.2067 0.9728 -0.1047
vn -0.2808 0.8817 -0.3792
vn -0.4618 0.8441 -0.2723
vn -0.5272 0.8370 -0.1466
vn -0.3776 0.8791 -0.2909
vn -0.0799 0.4098 -0.9087
vn 0.5196 0.8416 -0.1474
vn 0.0446 0.9945 0.0945
vn -0.4058 0.8811 0.2429
vn -0.1224 0.9925 0.0017
vn -0.0857 0.6841 0.7244
vn -0.2342 0.7025 0.6721
vn -0.0288 0.6206 0.7836
vn 0.3419 0.9125 0.2245
vn 0.3894 0.8284 -0.4026
vn 0.2912 0.9145 0.2810
vn -0.5040 0.8416 0.1939
vn -0.2912 0.9145 0.2810
vn 0.1911 0.8619 0.4698
vn -0.4586 0.8795 -0.1274
vn -0.4562 0.8744 0.1651
vn 0.6901 0.7195 0.0774
vn -0.4985 0.8609 -0.1021
vn 0.5263 0.8407 -0.1276
vn -0.3009 0.9279 0.2200
vn 0.7890 0.5999 0.1324
vn 0.2808 0.8817 -0.3792
vn 0.2067 0.9728 -0.1047
vn 0.0442 0.9851 -0.1662
vn 0.0985 0.9803 -0.1713
vn 0.5550 0.7621 0.3334
vn -0.7101 0.7020 0.0539
vn 0.4131 0.7169 0.5617
vn -0.7674 0.6332 0.1006
vn -0.6904 0.7193 -0.0773
vn -0.7211 0.6916 -0.0404
vn -0.7582 0.6421 -0.1139
vn -0.0185 0.3799 -0.9248
vn 0.5310 0.8473 -0.0141
vn -0.2045 0.9603 -0.1898
vn -0.0837 0.6414 -0.7627
vn -0.2006 0.7369 -0.6455
vn -0.3208 0.5074 -0.7998
vn 0.7976 0.5817 0.1596
vn 0.6753 0.7343 -0.0690
vt 0.865734 0.652848
vt 0.873148 0.652868
vt 0.873148 0.658578
vt 0.865734 0.658558
vt 0.858320 0.590016
vt 0.865734 0.590037
vt 0.865734 0.601457
vt 0.858320 0.601436
vt 0.858320 0.612857
vt 0.865734 0.612877
vt 0.865734 0.624297
vt 0.858320 0.624277
vt 0.873148 0.624318
vt 0.873148 0.635738
vt 0.865734 0.635718
vt 0.865734 0.578616
vt 0.873148 0.578637
vt 0.873148 0.590057
vt 0.873148 0.601477
vt 0.873148 0.612897
vt 0.828663 0.652746
vt 0.843491 0.652787
vt 0.843491 0.658497
vt 0.828663 0.658456
vt 0.821249 0.652726
vt 0.821249 0.658436
vt 0.828663 0.601355
vt 0.843491 0.601396
vt 0.843491 0.612816
vt 0.828663 0.612775
vt 0.828663 0.578515
vt 0.843491 0.578555
vt 0.843491 0.589975
vt 0.828663 0.589935
vt 0.828663 0.624196
vt 0.843491 0.624236
vt 0.843491 0.635656
vt 0.828663 0.635616
vt 0.821249 0.624175
vt 0.821249 0.635595
vt 0.821249 0.578494
vt 0.821249 0.589914
vt 0.821249 0.601335
vt 0.821249 0.612755
vt 0.858320 0.652828
vt 0.858320 0.658538
vt 0.858320 0.578596
vt 0.843491 0.567135
vt 0.858320 0.567176
vt 0.821249 0.567074
vt 0.828663 0.567094
vt 0.865734 0.567196
vt 0.873148 0.567216
vt 0.858320 0.635697
vt 0.858320 0.647117
vt 0.843491 0.647077
vt 0.828663 0.647036
vt 0.821249 0.647016
vt 0.873148 0.647158
vt 0.865734 0.647138
vt 0.813835 0.635575
vt 0.813835 0.646995
vt 0.813835 0.567054
vt 0.813835 0.578474
vt 0.813835 0.652705
vt 0.813835 0.658416
vt 0.813835 0.612735
vt 0.813835 0.624155
vt 0.813835 0.589894
vt 0.813835 0.601314
s 0
usemtl Material
f 120/50/47 114/51/47 51/52/47 106/53/47
f 74/54/48 108/55/48 110/56/48 80/57/48
f 73/58/49 107/59/49 112/60/49 90/61/49
f 112/60/50 87/62/50 59/63/50 109/64/50
f 111/65/51 82/66/51 58/67/51 108/55/51
f 110/56/52 76/68/52 56/69/52 107/59/52
f 116/70/53 115/71/53 62/72/53 66/73/53
f 119/74/54 116/70/54 66/73/54 96/75/54
f 79/76/55 78/77/55 63/78/55 67/79/55
f 84/80/56 83/81/56 64/82/56 68/83/56
f 89/84/57 88/85/57 65/86/57 69/87/57
f 103/88/58 89/84/58 69/87/58 99/89/58
f 102/90/59 84/80/59 68/83/59 98/91/59
f 101/92/60 79/76/60 67/79/60 97/93/60
f 115/71/61 117/94/61 72/95/61 62/72/61
f 85/96/62 111/65/62 108/55/62 74/54/62
f 64/82/63 74/54/63 80/57/63 78/77/63
f 98/91/64 68/83/64 79/76/64 101/92/64
f 68/83/65 64/82/65 78/77/65 79/76/65
f 61/97/66 71/98/66 85/96/66 83/81/66
f 100/99/67 70/100/67 84/80/67 102/90/67
f 70/100/68 61/97/68 83/81/68 84/80/68
f 105/101/69 53/102/69 82/66/69 111/65/69
f 80/57/70 110/56/70 107/59/70 73/58/70
f 63/78/71 73/58/71 90/61/71 88/85/71
f 97/93/72 67/79/72 89/84/72 103/88/72
f 67/79/73 63/78/73 88/85/73 89/84/73
f 65/86/74 75/103/74 95/104/74 93/105/74
f 99/89/75 69/87/75 94/106/75 104/107/75
f 69/87/76 65/86/76 93/105/76 94/106/76
f 109/64/77 59/63/77 91/108/77 113/109/77
f 60/110/78 99/89/78 104/107/78 92/111/78
f 107/59/79 56/69/79 87/62/79 112/60/79
f 54/112/80 100/99/80 102/90/80 81/113/80
f 108/55/81 58/67/81 76/68/81 110/56/81
f 88/85/82 90/61/82 75/103/82 65/86/82
f 83/81/83 85/96/83 74/54/83 64/82/83
f 78/77/84 80/57/84 73/58/84 63/78/84
f 118/114/85 119/74/85 96/75/85 52/115/85
f 75/103/86 109/64/86 113/109/86 95/104/86
f 55/116/87 97/93/87 103/88/87 86/117/87
f 71/98/88 105/101/88 111/65/88 85/96/88
f 57/118/89 98/91/89 101/92/89 77/119/89
f 86/117/90 103/88/90 99/89/90 60/110/90
f 81/113/91 102/90/91 98/91/91 57/118/91
f 77/119/92 101/92/92 97/93/92 55/116/92
f 117/94/93 120/50/93 106/53/93 72/95/93
f 95/104/94 113/109/94 120/50/94 117/94/94
f 92/111/95 104/107/95 119/74/95 118/114/95
f 93/105/96 95/104/96 117/94/96 115/71/96
f 104/107/97 94/106/97 116/70/97 119/74/97
f 94/106/98 93/105/98 115/71/98 116/70/98
f 113/109/99 91/108/99 114/51/99 120/50/99
f 90/61/100 112/60/100 109/64/100 75/103/100
