# Blender v3.0.1 OBJ File: 'Inside_Poly_Kitchen_Table_02.blend'
# www.blender.org
mtllib Inside_Poly_Kitchen_Table_02.mtl
o Cube
v -0.500000 0.000000 0.500000
v -0.500000 0.600000 0.500000
v -0.500000 0.000000 -0.500000
v -0.500000 0.600000 -0.500000
v 0.500000 0.000000 0.500000
v 0.500000 0.600000 0.500000
v 0.500000 0.000000 -0.500000
v 0.500000 0.600000 -0.500000
v -0.160000 0.380000 0.609191
v -0.500000 0.600000 0.330000
v 0.500000 0.600000 0.330000
v 0.500000 0.600000 -0.360000
v -0.500000 0.600000 -0.360000
v -0.420000 0.600000 0.330000
v -0.420000 0.600000 -0.360000
v 0.230000 0.466663 0.550000
v 0.230000 0.380000 0.550000
v 0.430000 0.600000 0.330000
v 0.430000 0.600000 -0.360000
v 0.230000 0.466663 0.609191
v -0.420000 0.400000 -0.360000
v -0.420000 0.400000 0.330000
v 0.430000 0.400000 0.330000
v 0.430000 0.400000 -0.360000
v -0.210000 0.466663 0.609191
v -0.210000 0.380000 0.609191
v -0.420000 0.600000 -0.015000
v 0.430000 0.600000 -0.015000
v -0.420000 0.400000 -0.015000
v 0.430000 0.400000 -0.015000
v 0.230000 0.380000 0.609191
v -0.210000 0.466663 0.550000
v -0.210000 0.380000 0.550000
v 0.000000 0.600000 0.330000
v 0.000000 0.600000 -0.360000
v 0.000000 0.400000 0.330000
v 0.000000 0.400000 -0.360000
v 0.000000 0.400000 -0.020000
v -0.160000 0.466663 0.550000
v -0.160000 0.380000 0.550000
v -0.160000 0.466663 0.609191
v 0.180000 0.380000 0.609191
v 0.180000 0.466663 0.550000
v 0.180000 0.466663 0.609191
v 0.180000 0.380000 0.550000
v 0.230000 0.466663 0.500000
v 0.230000 0.380000 0.500000
v 0.180000 0.466663 0.500000
v 0.180000 0.380000 0.500000
v -0.210000 0.466663 0.500000
v -0.210000 0.380000 0.500000
v -0.160000 0.466663 0.500000
v -0.160000 0.380000 0.500000
v 0.010000 0.466663 0.609191
v 0.010000 0.380000 0.550000
v 0.010000 0.380000 0.609191
v 0.010000 0.466663 0.550000
v 0.010000 0.135604 0.609191
v 0.180000 0.135604 0.609191
v 0.180000 0.135604 0.550000
v 0.010000 0.135604 0.550000
v 0.010000 0.107832 0.550000
v -0.160000 0.107832 0.550000
v -0.160000 0.107832 0.609191
v 0.010000 0.107832 0.609191
v -0.000000 0.600000 0.500000
v -0.000000 0.000000 0.500000
v -0.500000 0.500000 0.500000
v 0.500000 0.500000 0.500000
v 0.000000 0.500000 0.500000
v -0.500000 0.500000 0.549853
v -0.500000 0.600000 0.549853
v -0.000000 0.600000 0.549853
v 0.500000 0.600000 0.549853
v 0.000000 0.500000 0.549853
v 0.500000 0.500000 0.549853
vt 0.531131 0.381580
vt 0.531131 0.387911
vt 0.528723 0.387911
vt 0.528723 0.381580
vt 0.528723 0.387911
vt 0.528723 0.381580
vt 0.630108 0.401820
vt 0.688520 0.401820
vt 0.688520 0.431561
vt 0.688520 0.436746
vt 0.678531 0.436746
vt 0.638432 0.436746
vt 0.630108 0.436746
vt 0.531131 0.381580
vt 0.528723 0.381580
vt 0.528723 0.381580
vt 0.531131 0.381580
vt 0.606939 0.397078
vt 0.606895 0.375093
vt 0.624295 0.375093
vt 0.624295 0.397078
vt 0.528723 0.387911
vt 0.528723 0.381580
vt 0.593694 0.427673
vt 0.570861 0.427673
vt 0.570861 0.421012
vt 0.593694 0.421012
vt 0.593602 0.391096
vt 0.586157 0.391142
vt 0.586157 0.394429
vt 0.593602 0.394429
vt 0.619842 0.406213
vt 0.593762 0.406172
vt 0.567681 0.406132
vt 0.562785 0.406124
vt 0.562785 0.401041
vt 0.593489 0.401041
vt 0.624295 0.401041
vt 0.624295 0.406220
vt 0.567681 0.432078
vt 0.562785 0.432040
vt 0.567681 0.419105
vt 0.624295 0.437497
vt 0.562785 0.437497
vt 0.593762 0.432281
vt 0.619842 0.432484
vt 0.624295 0.432519
vt 0.688520 0.436746
vt 0.688520 0.401820
vt 0.591200 0.418154
vt 0.570704 0.418154
vt 0.570704 0.410830
vt 0.591106 0.410830
vt 0.593694 0.427673
vt 0.616526 0.427673
vt 0.616526 0.421012
vt 0.593694 0.421012
vt 0.593694 0.427673
vt 0.570861 0.427673
vt 0.570861 0.421012
vt 0.593694 0.421012
vt 0.593694 0.427673
vt 0.570861 0.427673
vt 0.570861 0.421012
vt 0.593694 0.421012
vt 0.595019 0.420729
vt 0.570891 0.420729
vt 0.570891 0.410889
vt 0.595019 0.410889
vt 0.528723 0.387911
vt 0.528723 0.387911
vt 0.616526 0.427673
vt 0.616526 0.421012
vt 0.630108 0.401820
vt 0.630108 0.436746
vt 0.638432 0.436746
vt 0.678531 0.436746
vt 0.688520 0.436746
vt 0.688520 0.431561
vt 0.688520 0.401820
vt 0.531131 0.387911
vt 0.528723 0.387911
vt 0.531131 0.387911
vt 0.570891 0.420729
vt 0.570891 0.410889
vt 0.616526 0.427673
vt 0.616526 0.421012
vt 0.570704 0.418154
vt 0.570704 0.410830
vt 0.531131 0.387911
vt 0.619842 0.419349
vt 0.531131 0.381580
vt 0.593646 0.391160
vt 0.593646 0.394459
vt 0.585984 0.394459
vt 0.585984 0.391160
vt 0.531131 0.387911
vt 0.593646 0.391160
vt 0.593646 0.394429
vt 0.601424 0.394429
vt 0.601424 0.391179
vt 0.548008 0.390955
vt 0.548008 0.393075
vt 0.548008 0.393075
vt 0.548008 0.390955
vt 0.531131 0.381580
vt 0.528723 0.381580
vt 0.531131 0.381580
vt 0.531131 0.387911
vt 0.529392 0.393075
vt 0.529392 0.390955
vt 0.529392 0.390955
vt 0.529392 0.393075
vt 0.585984 0.391160
vt 0.585984 0.394459
vt 0.593646 0.394459
vt 0.601424 0.391179
vt 0.601424 0.394478
vt 0.601424 0.394478
vt 0.593646 0.381579
vt 0.601424 0.381597
vt 0.601424 0.381597
vt 0.593646 0.381579
vt 0.593646 0.380278
vt 0.585984 0.380278
vt 0.585984 0.380278
vt 0.593646 0.380278
vt 0.562580 0.397078
vt 0.562580 0.375093
vt 0.580276 0.375093
vt 0.580320 0.397078
vt 0.593489 0.397147
vt 0.562785 0.397147
vt 0.562785 0.401041
vt 0.593489 0.401041
vt 0.624295 0.397078
vt 0.606939 0.397078
vt 0.562580 0.400911
vt 0.562580 0.397078
vt 0.580320 0.397078
vt 0.580327 0.400911
vt 0.606946 0.400911
vt 0.624295 0.400911
vt 0.688520 0.431561
vt 0.688520 0.436746
vt 0.688520 0.436746
vt 0.688520 0.431561
vt 0.624295 0.397147
vt 0.624295 0.401041
vn 0.0000 0.0000 1.0000
vn -1.0000 0.0000 0.0000
vn 0.0000 -1.0000 0.0000
vn 1.0000 0.0000 0.0000
vn 0.0000 1.0000 0.0000
vn 0.0000 0.0000 -1.0000
usemtl Wood_CLock
s off
f 9/1/1 41/2/1 25/3/1 26/4/1
f 26/4/2 25/3/2 32/5/2 33/6/2
f 3/7/2 1/8/2 68/9/2 2/10/2 10/11/2 13/12/2 4/13/2
f 45/14/3 17/15/3 31/16/3 42/17/3
f 70/18/1 67/19/1 5/20/1 69/21/1
f 33/6/2 32/5/2 50/22/2 51/23/2
f 27/24/4 14/25/4 22/26/4 29/27/4
f 57/28/5 39/29/5 41/30/5 54/31/5
f 18/32/5 34/33/5 14/34/5 10/35/5 2/36/5 66/37/5 6/38/5 11/39/5
f 15/40/5 13/41/5 10/35/5 14/34/5 27/42/5
f 8/43/5 4/44/5 13/41/5 15/40/5 35/45/5 19/46/5 12/47/5
f 8/48/6 7/49/6 3/7/6 4/13/6
f 38/50/5 29/51/5 22/52/5 36/53/5
f 34/54/6 18/55/6 23/56/6 36/57/6
f 28/58/2 19/59/2 24/60/2 30/61/2
f 35/62/1 15/63/1 21/64/1 37/65/1
f 18/55/2 28/58/2 30/61/2 23/56/2
f 37/66/5 21/67/5 29/68/5 38/69/5
f 17/15/4 16/70/4 20/71/4 31/16/4
f 15/72/4 27/24/4 29/27/4 21/73/4
f 7/74/4 8/75/4 12/76/4 11/77/4 6/78/4 69/79/4 5/80/4
f 43/81/5 16/70/5 46/82/5 48/83/5
f 24/84/5 37/66/5 38/69/5 30/85/5
f 19/86/1 35/62/1 37/65/1 24/87/1
f 14/25/6 34/54/6 36/57/6 22/26/6
f 30/88/5 38/50/5 36/53/5 23/89/5
f 39/90/5 32/5/5 25/3/5 41/2/5
f 12/47/5 19/46/5 28/91/5 18/32/5 11/39/5
f 33/6/3 40/92/3 9/1/3 26/4/3
f 56/93/1 54/94/1 41/95/1 9/96/1
f 31/16/1 20/71/1 44/97/1 42/17/1
f 55/98/6 57/99/6 43/100/6 45/101/6
f 16/70/5 43/81/5 44/97/5 20/71/5
f 45/102/2 43/103/2 48/104/2 49/105/2
f 17/15/3 45/14/3 49/106/3 47/107/3
f 16/70/4 17/15/4 47/107/4 46/82/4
f 40/92/3 33/6/3 51/23/3 53/108/3
f 32/5/5 39/90/5 52/109/5 50/22/5
f 39/110/4 40/111/4 53/112/4 52/113/4
f 40/114/6 39/115/6 57/116/6 55/98/6
f 42/117/1 44/118/1 54/94/1 56/93/1
f 43/119/5 57/116/5 54/94/5 44/118/5
f 42/117/1 56/93/1 58/120/1 59/121/1
f 55/98/6 45/101/6 60/122/6 61/123/6
f 40/114/6 55/98/6 62/124/6 63/125/6
f 56/93/1 9/96/1 64/126/1 65/127/1
f 68/128/1 1/129/1 67/130/1 70/131/1
f 66/132/5 2/133/5 72/134/5 73/135/5
f 70/18/3 69/21/3 76/136/3 75/137/3
f 72/138/1 71/139/1 75/140/1 73/141/1
f 73/142/1 75/137/1 76/136/1 74/143/1
f 2/10/2 68/9/2 71/144/2 72/145/2
f 68/128/3 70/131/3 75/140/3 71/139/3
f 69/79/4 6/78/4 74/146/4 76/147/4
f 6/148/5 66/132/5 73/135/5 74/149/5
