# Blender 3.6.5
# www.blender.org
mtllib Inside_Poly_Hole_Rope_01_Down.mtl
o Cube.001_Cube.002
v -0.100000 -0.340000 -0.280000
v -0.100000 -0.260000 -0.280000
v -0.100000 -0.340000 -0.440000
v -0.100000 -0.260000 -0.440000
v 0.100000 -0.340000 -0.280000
v 0.100000 -0.260000 -0.280000
v 0.100000 -0.340000 -0.440000
v 0.100000 -0.260000 -0.440000
v 0.050000 -0.340000 -0.440000
v 0.050000 -0.260000 -0.440000
v 0.050000 -0.340000 -0.280000
v 0.050000 -0.260000 -0.280000
v -0.050000 -0.340000 -0.440000
v -0.050000 -0.260000 -0.280000
v -0.050000 -0.260000 -0.440000
v -0.050000 -0.340000 -0.280000
v -0.050000 -0.260000 -0.320000
v 0.050000 -0.260000 -0.320000
v 0.050000 -0.340000 -0.320000
v -0.050000 -0.340000 -0.320000
vn -1.0000 -0.0000 -0.0000
vn -0.0000 -0.0000 -1.0000
vn 1.0000 -0.0000 -0.0000
vn -0.0000 -0.0000 1.0000
vn -0.0000 -1.0000 -0.0000
vn -0.0000 1.0000 -0.0000
vt 0.320525 0.767450
vt 0.326247 0.767450
vt 0.326247 0.792514
vt 0.320525 0.792514
vt 0.326247 0.784471
vt 0.320525 0.784471
vt 0.326247 0.776037
vt 0.320525 0.776037
vt 0.347933 0.787938
vt 0.347933 0.787938
vt 0.356943 0.787938
vt 0.320417 0.788039
vt 0.326544 0.788039
vt 0.326544 0.807960
vt 0.320417 0.807960
vt 0.366613 0.788039
vt 0.366613 0.807960
vt 0.361086 0.807960
vt 0.361086 0.788039
vt 0.320525 0.776037
vt 0.326247 0.776037
vt 0.328865 0.787938
vt 0.338485 0.787938
vt 0.338485 0.787938
vt 0.361086 0.794040
vt 0.326544 0.794040
s 0
usemtl Material
f 4/1/1 3/2/1 1/3/1 2/4/1
f 7/3/2 9/5/2 10/6/2 8/4/2
f 5/3/3 7/2/3 8/1/3 6/4/3
f 1/2/4 16/7/4 14/8/4 2/1/4
f 11/9/5 9/10/5 7/11/5 5/11/5
f 2/12/6 14/13/6 15/14/6 4/15/6
f 6/16/6 8/17/6 10/18/6 12/19/6
f 11/5/4 5/3/4 6/4/4 12/6/4
f 15/20/2 13/21/2 3/2/2 4/1/2
f 1/22/5 3/22/5 13/23/5 16/24/5
f 14/13/6 12/19/6 18/25/6 17/26/6
f 14/8/4 16/7/4 11/5/4 12/6/4
f 19/5/2 20/21/2 17/20/2 18/6/2
f 20/21/3 13/21/3 15/20/3 17/20/3
f 19/5/1 18/6/1 10/6/1 9/5/1
o Cube.001
v -0.440000 -0.500000 0.440000
v -0.440000 0.050000 0.440000
v -0.440000 -0.500000 -0.440000
v -0.440000 0.050000 -0.440000
v 0.440000 -0.500000 0.440000
v 0.440000 0.050000 0.440000
v 0.440000 -0.500000 -0.440000
v 0.440000 0.050000 -0.440000
v -0.500000 0.050000 0.500000
v -0.500000 0.050000 -0.500000
v 0.500000 0.050000 0.500000
v 0.500000 0.050000 -0.500000
v -0.500000 0.000000 0.500000
v -0.500000 0.000000 -0.500000
v 0.500000 0.000000 0.500000
v 0.500000 0.000000 -0.500000
v -0.440000 -1.110000 -0.440000
v -0.440000 -1.110000 0.440000
v 0.440000 -1.110000 -0.440000
v 0.440000 -1.110000 0.440000
vn -0.0000 -0.0000 -1.0000
vn 1.0000 -0.0000 -0.0000
vn -0.0000 -0.0000 1.0000
vn -1.0000 -0.0000 -0.0000
vn -0.0000 1.0000 -0.0000
vt 0.057969 0.889883
vt 0.004358 0.889883
vt 0.004358 0.930906
vt 0.057969 0.930906
vt 0.057969 0.930906
vt 0.004358 0.930906
vt 0.180998 0.932383
vt 0.129035 0.932384
vt 0.124145 0.936745
vt 0.185889 0.936745
vt 0.180998 0.932384
vt 0.129035 0.932383
vt 0.180840 0.932003
vt 0.129136 0.932003
vt 0.129136 0.927675
vt 0.180840 0.927675
vt 0.181047 0.932118
vt 0.129281 0.932118
vt 0.129260 0.927270
vt 0.181027 0.927270
vt 0.057969 0.898797
vt 0.057969 0.878321
vt 0.004358 0.878321
vt 0.004358 0.898797
s 0
usemtl Material
f 21/27/7 25/28/7 40/28/7 38/27/7
f 21/27/8 23/28/8 24/29/8 22/30/8
f 23/27/9 27/28/9 28/29/9 24/31/9
f 27/27/10 25/28/10 26/32/10 28/31/10
f 28/33/11 26/34/11 31/35/11 32/36/11
f 22/37/11 24/38/11 30/35/11 29/36/11
f 26/37/11 22/34/11 29/35/11 31/36/11
f 24/38/11 28/33/11 32/36/11 30/35/11
f 31/39/9 29/40/9 33/41/9 35/42/9
f 30/40/7 32/39/7 36/42/7 34/41/7
f 32/43/8 31/44/8 35/45/8 36/46/8
f 29/44/10 30/43/10 34/46/10 33/45/10
f 25/28/7 21/27/7 22/30/7 26/32/7
f 37/47/11 38/48/11 40/49/11 39/50/11
f 25/28/10 27/27/10 39/27/10 40/28/10
f 27/28/9 23/27/9 37/27/9 39/28/9
f 23/28/8 21/27/8 38/27/8 37/28/8
o Cube_Cube.002
v 0.145830 -0.189794 -0.418579
v 0.172183 -0.233241 -0.425668
v 0.147044 -0.271098 -0.401852
v 0.105153 -0.251048 -0.380044
v 0.104404 -0.200799 -0.390382
v 0.043950 -0.095043 -0.362813
v 0.056136 -0.091783 -0.412544
v 0.012545 -0.092085 -0.439602
v -0.026581 -0.095532 -0.406593
v -0.007172 -0.097361 -0.359134
v -0.031593 -0.206346 -0.340833
v -0.046936 -0.176189 -0.302265
v -0.056419 -0.255142 -0.278428
v -0.037453 -0.255142 -0.326101
v -0.062280 -0.206347 -0.263697
v -0.026559 -0.195083 -0.450291
v -0.048515 -0.270552 -0.423570
v -0.055045 -0.217165 -0.486806
v -0.022524 -0.228078 -0.411209
v -0.068614 -0.263807 -0.470292
v 0.058519 -0.178570 -0.367075
v 0.097162 -0.244245 -0.400016
v 0.105450 -0.163732 -0.381559
v 0.053398 -0.228329 -0.378482
v 0.129332 -0.204322 -0.401918
v 0.071457 -0.238705 -0.452667
v 0.031575 -0.306188 -0.425332
v 0.071977 -0.273709 -0.490175
v 0.046487 -0.258778 -0.412592
v 0.047328 -0.315416 -0.473281
v -0.048409 -0.208789 -0.373672
v -0.115600 -0.257393 -0.377505
v -0.089654 -0.178536 -0.377672
v -0.064444 -0.257525 -0.373569
v -0.131180 -0.208575 -0.380041
v 0.059904 -0.176189 -0.292583
v 0.041764 -0.255142 -0.310723
v 0.089254 -0.206347 -0.263233
v 0.030553 -0.206347 -0.321934
v 0.078043 -0.255142 -0.274444
v 0.036644 -0.148015 -0.385395
v 0.076157 -0.157089 -0.440475
v 0.086526 -0.154822 -0.375503
v 0.030235 -0.149416 -0.436280
v 0.110946 -0.160430 -0.420275
v 0.032792 -0.270228 -0.340046
v -0.041972 -0.273250 -0.376003
v -0.006775 -0.268283 -0.413001
v 0.039432 -0.266415 -0.390779
v -0.017519 -0.274452 -0.330915
v -0.042804 -0.157672 -0.367578
v 0.034381 -0.170129 -0.395490
v 0.007624 -0.169413 -0.322651
v -0.014660 -0.165337 -0.409787
v 0.048301 -0.193884 -0.345238
v 0.104885 -0.175304 -0.380676
v 0.130161 -0.199559 -0.343190
v 0.180220 -0.189939 -0.349019
v 0.185882 -0.159738 -0.390107
v 0.139322 -0.150693 -0.409672
v 0.091807 -0.165768 -0.376146
v 0.098414 -0.160882 -0.325501
v 0.110908 -0.112079 -0.315778
v 0.112023 -0.086803 -0.360413
v 0.100218 -0.119985 -0.397722
v 0.066439 -0.148902 -0.362224
v 0.062480 -0.164005 -0.314913
v 0.035337 -0.108109 -0.296953
v 0.006882 -0.096385 -0.338005
v 0.026104 -0.121596 -0.378344
v 0.032792 -0.320381 -0.340046
v -0.041972 -0.323403 -0.376003
v -0.006775 -0.318436 -0.413001
v 0.039432 -0.316568 -0.390779
v -0.017519 -0.324605 -0.330915
v 0.032792 -1.126558 -0.340046
v -0.041972 -1.129580 -0.376003
v -0.006775 -1.124613 -0.413001
v 0.039432 -1.122745 -0.390779
v -0.017519 -1.130781 -0.330915
v 0.044986 0.033330 -0.407707
v -0.019619 0.025734 -0.401253
v -0.007172 0.004931 -0.359134
v 0.019705 0.060862 -0.391490
v 0.021404 0.061317 -0.398425
v 0.015325 0.061275 -0.402199
v 0.009868 0.060794 -0.397595
v 0.012575 0.060539 -0.390977
v 0.064201 -0.024247 -0.359287
v 0.085145 -0.018643 -0.424337
v -0.057026 -0.025087 -0.414108
v -0.023666 -0.028230 -0.352965
v 0.010223 -0.019162 -0.448884
v -0.077442 0.048610 -0.407208
v -0.081420 0.050261 -0.392682
v -0.070490 0.045838 -0.375047
v 0.043950 0.007248 -0.362813
v 0.012545 0.010207 -0.439602
v 0.085452 0.059113 -0.386152
v 0.090227 0.059248 -0.400163
v 0.084835 0.060036 -0.414352
vn -0.0737 -0.3825 0.9210
vn -0.4018 -0.1761 -0.8986
vn 0.7842 0.5485 0.2901
vn -0.6626 -0.7292 0.1708
vn 0.4703 0.4650 -0.7501
vn -0.8311 -0.2449 0.4992
vn 0.8541 -0.2602 -0.4503
vn -0.5838 0.7453 0.3221
vn 0.0130 -0.9996 0.0239
vn 0.5757 0.7392 -0.3494
vn 0.3409 0.7367 0.5840
vn -0.4054 -0.9132 0.0426
vn 0.2948 0.6996 -0.6509
vn -0.0831 -0.2328 0.9690
vn -0.1540 -0.2905 -0.9444
vn 0.8772 -0.4472 0.1746
vn -0.9332 -0.0570 -0.3549
vn 0.7385 0.5958 0.3157
vn -0.1528 -0.9651 -0.2125
vn -0.5053 0.8627 -0.0182
vn 0.6017 -0.6286 -0.4928
vn -0.4895 0.0496 0.8706
vn 0.1918 0.5338 -0.8235
vn 0.1601 -0.8560 0.4916
vn -0.5679 0.8015 -0.1874
vn 0.6600 0.6841 0.3106
vn -0.1453 -0.9869 0.0704
vn -0.3844 0.8252 -0.4140
vn 0.7517 -0.4152 0.5124
vn -0.8489 -0.1206 -0.5147
vn 0.1138 0.7311 -0.6727
vn -0.0000 -1.0000 -0.0000
vn -0.0262 0.7448 0.6668
vn 0.2289 -0.2384 -0.9438
vn -0.0150 -0.2561 0.9665
vn 0.3910 -0.2765 -0.8779
vn -0.9353 -0.1683 0.3113
vn 0.7876 0.5944 0.1625
vn -0.3605 -0.5441 -0.7576
vn 0.0189 0.3145 0.9491
vn -0.7809 0.0021 -0.6246
vn 0.9938 -0.0653 -0.0895
vn -0.7657 0.0358 0.6422
vn 0.3584 0.0163 -0.9334
vn 0.3109 -0.0857 0.9466
vn 0.1666 -0.6014 0.7814
vn 0.3783 0.3190 -0.8690
vn 0.9372 -0.3365 0.0919
vn -0.8778 0.0009 0.4791
vn -0.6404 0.1569 -0.7518
vn 0.3651 0.6613 -0.6553
vn -0.4868 -0.2945 -0.8224
vn -0.7050 -0.7020 0.1008
vn 0.1814 -0.2575 0.9491
vn 0.7415 0.5350 0.4049
vn 0.0581 0.9231 0.3801
vn 0.2476 -0.2151 0.9447
vn -0.2533 -0.9629 -0.0936
vn -0.1887 0.7761 -0.6017
vn -0.3402 -0.5441 -0.7669
vn -0.4476 -0.3997 0.7999
vn -0.7595 0.4827 0.4360
vn -0.6654 0.5485 0.5063
vn -0.6435 -0.1529 0.7500
vn -0.3054 -0.7441 0.5941
vn -0.0075 -0.2970 0.9548
vn -0.1330 -0.3726 0.9184
vn -0.0464 -0.5621 0.8257
vn -0.7126 0.6710 -0.2049
vn -0.1697 0.6044 -0.7784
vn -0.2844 0.6251 -0.7269
vn -0.5905 0.7279 -0.3485
vn 0.1571 0.2542 -0.9543
vn 0.5725 0.4249 -0.7012
vn 0.5086 0.2434 -0.8259
vn 0.3418 0.4446 -0.8280
vn 0.3386 -0.9172 0.2100
vn 0.7202 0.1340 -0.6807
vn 0.7065 0.3138 -0.6343
vn 0.4768 -0.8586 0.1885
vn 0.9915 -0.0000 0.1298
vn 0.4334 -0.0000 -0.9012
vn -0.7245 -0.0000 -0.6893
vn -0.8790 -0.0000 0.4767
vn 0.1786 -0.0000 0.9839
vn 0.7927 0.5251 0.3098
vn -0.7686 0.4577 0.4471
vn 0.3454 0.4269 -0.8358
vn 0.0641 0.1516 0.9864
vn -0.4999 0.4517 -0.7390
vn 0.0408 0.4855 0.8733
vn -0.5450 0.5184 -0.6590
vn 0.7842 0.5345 0.3151
vn -0.7174 0.5301 0.4521
vn 0.3713 0.5426 -0.7534
vn -0.0412 0.9976 0.0553
vn -0.5114 -0.2144 -0.8322
vn 0.0748 -0.0709 0.9947
vn 0.3922 -0.2012 -0.8976
vn -0.8666 -0.2875 0.4079
vn 0.9220 -0.3016 0.2428
vn 0.3717 0.9272 -0.0472
vn 0.4456 0.8738 0.1946
vn -0.6154 0.7409 0.2690
vn -0.5505 0.8334 0.0480
vt 0.471015 0.881646
vt 0.471015 0.898327
vt 0.464938 0.898327
vt 0.464938 0.881646
vt 0.464913 0.898327
vt 0.471039 0.898327
vt 0.464913 0.881655
vt 0.464913 0.898246
vt 0.470988 0.898327
vt 0.470988 0.881655
vt 0.464913 0.968575
vt 0.470988 0.968494
vt 0.462612 0.850748
vt 0.464964 0.856327
vt 0.471130 0.856327
vt 0.473482 0.850748
vt 0.462612 0.850748
vt 0.473482 0.850748
vt 0.473482 0.850748
vt 0.473015 0.856351
vt 0.471021 0.845318
vt 0.465080 0.845318
vt 0.463085 0.856351
vt 0.471130 0.856346
vt 0.464964 0.856346
s 0
usemtl Material
f 83/51/12 46/52/12 50/53/12 81/54/12
f 84/51/13 49/52/13 48/53/13 82/54/13
f 85/51/14 47/52/14 46/53/14 83/54/14
f 81/54/15 50/53/15 49/52/15 84/51/15
f 82/54/16 48/53/16 47/52/16 85/51/16
f 72/54/17 53/53/17 55/52/17 75/51/17
f 71/54/18 51/53/18 54/52/18 74/51/18
f 75/51/19 55/52/19 52/53/19 73/54/19
f 74/51/20 54/52/20 53/53/20 72/54/20
f 73/51/21 52/52/21 51/53/21 71/54/21
f 66/51/22 56/52/22 59/53/22 69/54/22
f 67/51/23 57/52/23 60/53/23 70/54/23
f 68/51/24 58/52/24 56/53/24 66/54/24
f 69/54/25 59/53/25 57/52/25 67/51/25
f 70/54/26 60/53/26 58/52/26 68/51/26
f 80/54/27 62/53/27 65/52/27 78/51/27
f 79/54/28 61/53/28 64/52/28 77/51/28
f 78/51/29 65/52/29 63/53/29 76/54/29
f 77/51/30 64/52/30 62/53/30 80/54/30
f 76/51/31 63/52/31 61/53/31 79/54/31
f 43/53/32 70/54/32 68/51/32 42/52/32
f 45/53/33 69/54/33 67/51/33 44/52/33
f 42/52/34 68/51/34 66/54/34 41/53/34
f 44/52/35 67/51/35 70/54/35 43/53/35
f 41/52/36 66/51/36 69/54/36 45/53/36
f 56/52/37 73/51/37 71/54/37 59/53/37
f 57/52/38 74/51/38 72/54/38 60/53/38
f 58/52/39 75/51/39 73/54/39 56/53/39
f 59/53/40 71/54/40 74/51/40 57/52/40
f 60/53/41 72/54/41 75/51/41 58/52/41
f 52/52/42 76/51/42 79/54/42 51/53/42
f 54/52/43 77/51/43 80/54/43 53/53/43
f 55/52/44 78/51/44 76/54/44 52/53/44
f 51/53/45 79/54/45 77/51/45 54/52/45
f 53/53/46 80/54/46 78/51/46 55/52/46
f 62/53/47 82/54/47 85/51/47 65/52/47
f 61/53/48 81/54/48 84/51/48 64/52/48
f 65/52/49 85/51/49 83/54/49 63/53/49
f 64/52/50 84/51/50 82/54/50 62/53/50
f 63/52/51 83/51/51 81/54/51 61/53/51
f 87/52/52 91/51/52 94/54/52 88/53/52
f 89/52/53 92/51/53 95/54/53 86/53/53
f 90/52/54 93/51/54 91/54/54 87/53/54
f 88/53/55 94/54/55 92/51/55 89/52/55
f 86/53/56 95/54/56 93/51/56 90/52/56
f 43/54/57 98/53/57 97/52/57 44/51/57
f 41/54/58 100/53/58 99/52/58 42/51/58
f 42/51/59 99/52/59 98/53/59 43/54/59
f 44/51/60 97/52/60 96/53/60 45/54/60
f 45/54/61 96/53/61 100/52/61 41/51/61
f 100/54/62 105/53/62 104/52/62 99/51/62
f 96/54/63 101/53/63 105/52/63 100/51/63
f 97/51/64 102/52/64 101/53/64 96/54/64
f 98/54/65 103/53/65 102/52/65 97/51/65
f 99/51/66 104/52/66 103/53/66 98/54/66
f 104/52/67 109/51/67 108/54/67 103/53/67
f 103/54/68 108/53/68 107/52/68 102/51/68
f 102/51/69 107/52/69 106/53/69 101/54/69
f 105/54/70 110/53/70 109/52/70 104/51/70
f 101/54/71 106/53/71 110/52/71 105/51/71
f 91/51/72 93/54/73 108/53/74 109/52/75
f 93/51/76 95/54/77 107/53/78 108/52/79
f 94/54/80 91/51/81 109/52/82 110/53/83
f 92/51/84 94/54/85 110/55/86 106/56/87
f 95/54/88 92/51/89 106/52/90 107/53/91
f 86/57/92 111/58/92 114/59/92 89/60/92
f 89/60/93 114/59/93 113/58/93 88/57/93
f 88/57/94 113/58/94 112/59/94 87/60/94
f 87/58/95 112/57/95 115/60/95 90/59/95
f 90/60/96 115/59/96 111/58/96 86/57/96
f 112/61/95 117/57/95 120/60/95 115/62/95
f 115/62/96 120/60/96 116/57/96 111/61/96
f 111/61/92 116/57/92 119/60/92 114/62/92
f 114/62/93 119/60/93 118/57/93 113/61/93
f 113/62/94 118/60/94 117/57/94 112/61/94
f 130/63/97 121/64/97 137/65/97 129/66/97
f 132/67/98 123/64/98 122/65/98 131/68/98
f 133/69/99 138/65/99 121/64/99 130/63/99
f 129/66/100 137/65/100 123/64/100 132/67/100
f 131/68/101 122/65/101 138/64/101 133/67/101
f 137/70/102 124/71/102 128/72/102 123/73/102
f 122/70/103 127/71/103 126/72/103 138/73/103
f 121/73/104 125/72/104 124/71/104 137/70/104
f 123/73/105 128/72/105 127/71/105 122/70/105
f 138/70/106 126/71/106 125/72/106 121/73/106
f 125/52/107 126/53/107 127/52/107 128/53/107 124/52/107
f 49/74/108 131/68/108 133/67/108 48/75/108
f 46/74/109 129/66/109 132/67/109 50/75/109
f 48/74/110 133/69/110 130/63/110 47/75/110
f 50/75/111 132/67/111 131/68/111 49/74/111
f 47/75/112 130/63/112 129/66/112 46/74/112
f 122/70/113 138/73/113 134/72/113 135/71/113
f 123/73/114 122/70/114 135/71/114 136/72/114
f 121/73/115 137/70/115 139/71/115 140/72/115
f 138/70/116 121/73/116 140/72/116 141/71/116
