# Blender 3.6.5
# www.blender.org
mtllib Inside_Poly_Stairs_02.mtl
o Cube.001
v 0.500000 0.547000 -0.500000
v 0.500000 0.000000 -0.500000
v 0.500000 0.000000 0.502000
v 0.500000 0.547000 -0.249000
v 0.500000 0.137000 0.502000
v 0.500000 0.410000 -0.249000
v 0.500000 0.410000 0.002000
v 0.500000 0.274000 0.002000
v 0.500000 0.274000 0.251000
v 0.500000 0.137000 0.251000
v 0.000000 0.000000 0.502000
v 0.000000 0.547000 -0.500000
v 0.000000 0.000000 -0.500000
v 0.000000 0.547000 -0.249000
v 0.000000 0.410000 -0.249000
v 0.000000 0.410000 0.002000
v 0.000000 0.274000 0.002000
v 0.000000 0.274000 0.251000
v 0.000000 0.137000 0.251000
v 0.000000 0.137000 0.502000
v -0.500000 0.547000 -0.500000
v -0.500000 0.000000 -0.500000
v -0.500000 0.000000 0.502000
v -0.500000 0.547000 -0.249000
v -0.500000 0.137000 0.502000
v -0.500000 0.410000 -0.249000
v -0.500000 0.410000 0.002000
v -0.500000 0.274000 0.002000
v -0.500000 0.274000 0.251000
v -0.500000 0.137000 0.251000
vn -0.0000 -0.0000 -1.0000
vn 1.0000 -0.0000 -0.0000
vn -0.0000 1.0000 -0.0000
vn -0.0000 -0.0000 1.0000
vn -1.0000 -0.0000 -0.0000
vt 0.193316 0.903857
vt 0.193316 0.930720
vt 0.212125 0.930720
vt 0.212125 0.903857
vt 0.249020 0.937857
vt 0.249020 0.960305
vt 0.238719 0.960305
vt 0.238719 0.954683
vt 0.228419 0.954683
vt 0.228419 0.949102
vt 0.218201 0.949102
vt 0.218201 0.943480
vt 0.207901 0.943480
vt 0.207901 0.937857
vt 0.248758 0.972939
vt 0.248758 0.989292
vt 0.231974 0.989394
vt 0.231960 0.972939
vt 0.200421 0.946923
vt 0.200421 0.963276
vt 0.187601 0.963276
vt 0.187601 0.946923
vt 0.233314 0.967457
vt 0.233314 0.989944
vt 0.248678 0.989944
vt 0.248678 0.967457
vt 0.216054 0.954853
vt 0.216054 0.971206
vt 0.200648 0.971206
vt 0.200648 0.954853
vt 0.231960 0.963906
vt 0.231960 0.980259
vt 0.216273 0.980259
vt 0.216273 0.963906
s 0
usemtl Material
f 13/1/1 12/2/1 1/3/1 2/4/1
f 2/5/2 1/6/2 4/7/2 6/8/2 7/9/2 8/10/2 9/11/2 10/12/2 5/13/2 3/14/2
f 1/15/3 12/16/3 14/17/3 4/18/3
f 10/19/3 19/20/3 20/21/3 5/22/3
f 9/23/4 18/24/4 19/25/4 10/26/4
f 8/27/3 17/28/3 18/29/3 9/30/3
f 7/23/4 16/24/4 17/25/4 8/26/4
f 6/31/3 15/32/3 16/33/3 7/34/3
f 4/23/4 14/24/4 15/25/4 6/26/4
f 3/26/4 5/23/4 20/24/4 11/25/4
f 13/1/1 22/4/1 21/3/1 12/2/1
f 22/5/5 23/14/5 25/13/5 30/12/5 29/11/5 28/10/5 27/9/5 26/8/5 24/7/5 21/6/5
f 21/15/3 24/18/3 14/17/3 12/16/3
f 30/19/3 25/22/3 20/21/3 19/20/3
f 29/23/4 30/26/4 19/25/4 18/24/4
f 28/27/3 29/30/3 18/29/3 17/28/3
f 27/23/4 28/26/4 17/25/4 16/24/4
f 26/31/3 27/34/3 16/33/3 15/32/3
f 24/23/4 26/26/4 15/25/4 14/24/4
f 23/26/4 11/25/4 20/24/4 25/23/4
o Cube.004
v -0.501000 0.517000 -0.230000
v -0.501000 0.577000 -0.230000
v -0.501000 0.577000 -0.500000
v -0.501000 0.517000 -0.500000
v 0.000000 0.577000 -0.500000
v 0.000000 0.577000 -0.230000
v 0.000000 0.517000 -0.230000
v -0.501000 0.517000 -0.250000
v -0.501000 0.577000 -0.250000
v -0.501000 0.547000 -0.500000
v -0.501000 0.577000 -0.230000
v -0.501000 0.517000 -0.230000
v -0.501000 0.517000 -0.500000
v -0.501000 0.577000 -0.500000
v 0.000000 0.547000 -0.500000
v -0.501000 0.577000 -0.250000
v -0.501000 0.517000 -0.250000
v 0.000000 0.577000 -0.250000
v 0.000000 0.517000 -0.250000
v 0.000000 0.547000 -0.250000
v 0.501000 0.517000 -0.230000
v 0.501000 0.577000 -0.230000
v 0.501000 0.577000 -0.500000
v 0.501000 0.517000 -0.500000
v 0.501000 0.517000 -0.250000
v 0.501000 0.577000 -0.250000
v 0.501000 0.547000 -0.500000
v 0.501000 0.577000 -0.230000
v 0.501000 0.517000 -0.230000
v 0.501000 0.517000 -0.500000
v 0.501000 0.577000 -0.500000
v 0.501000 0.577000 -0.250000
v 0.501000 0.517000 -0.250000
v -0.501000 0.379000 0.020560
v -0.501000 0.439000 0.020560
v -0.501000 0.439000 -0.249440
v -0.501000 0.379000 -0.249440
v 0.000000 0.439000 -0.249440
v 0.000000 0.439000 0.020560
v 0.000000 0.379000 0.020560
v -0.501000 0.379000 0.000560
v -0.501000 0.439000 0.000560
v -0.501000 0.409000 -0.249440
v -0.501000 0.439000 0.020560
v -0.501000 0.379000 0.020560
v -0.501000 0.379000 -0.249440
v -0.501000 0.439000 -0.249440
v 0.000000 0.409000 -0.249440
v -0.501000 0.439000 0.000560
v -0.501000 0.379000 0.000560
v 0.000000 0.439000 0.000560
v 0.000000 0.379000 0.000560
v 0.000000 0.409000 0.000560
v 0.501000 0.379000 0.020560
v 0.501000 0.439000 0.020560
v 0.501000 0.439000 -0.249440
v 0.501000 0.379000 -0.249440
v 0.501000 0.379000 0.000560
v 0.501000 0.439000 0.000560
v 0.501000 0.409000 -0.249440
v 0.501000 0.439000 0.020560
v 0.501000 0.379000 0.020560
v 0.501000 0.379000 -0.249440
v 0.501000 0.439000 -0.249440
v 0.501000 0.439000 0.000560
v 0.501000 0.379000 0.000560
v -0.501000 0.241000 0.271120
v -0.501000 0.301000 0.271120
v -0.501000 0.301000 0.001120
v -0.501000 0.241000 0.001120
v 0.000000 0.301000 0.001120
v 0.000000 0.301000 0.271120
v 0.000000 0.241000 0.271120
v -0.501000 0.241000 0.251120
v -0.501000 0.301000 0.251120
v -0.501000 0.271000 0.001120
v -0.501000 0.301000 0.271120
v -0.501000 0.241000 0.271120
v -0.501000 0.241000 0.001120
v -0.501000 0.301000 0.001120
v 0.000000 0.271000 0.001120
v -0.501000 0.301000 0.251120
v -0.501000 0.241000 0.251120
v 0.000000 0.301000 0.251120
v 0.000000 0.241000 0.251120
v 0.000000 0.271000 0.251120
v 0.501000 0.241000 0.271120
v 0.501000 0.301000 0.271120
v 0.501000 0.301000 0.001120
v 0.501000 0.241000 0.001120
v 0.501000 0.241000 0.251120
v 0.501000 0.301000 0.251120
v 0.501000 0.271000 0.001120
v 0.501000 0.301000 0.271120
v 0.501000 0.241000 0.271120
v 0.501000 0.241000 0.001120
v 0.501000 0.301000 0.001120
v 0.501000 0.301000 0.251120
v 0.501000 0.241000 0.251120
v -0.501000 0.103000 0.521680
v -0.501000 0.163000 0.521680
v -0.501000 0.163000 0.251680
v -0.501000 0.103000 0.251680
v 0.000000 0.163000 0.251680
v 0.000000 0.163000 0.521680
v 0.000000 0.103000 0.521680
v -0.501000 0.103000 0.501680
v -0.501000 0.163000 0.501680
v -0.501000 0.133000 0.251680
v -0.501000 0.163000 0.521680
v -0.501000 0.103000 0.521680
v -0.501000 0.103000 0.251680
v -0.501000 0.163000 0.251680
v 0.000000 0.133000 0.251680
v -0.501000 0.163000 0.501680
v -0.501000 0.103000 0.501680
v 0.000000 0.163000 0.501680
v 0.000000 0.103000 0.501680
v 0.000000 0.133000 0.501680
v 0.501000 0.103000 0.521680
v 0.501000 0.163000 0.521680
v 0.501000 0.163000 0.251680
v 0.501000 0.103000 0.251680
v 0.501000 0.103000 0.501680
v 0.501000 0.163000 0.501680
v 0.501000 0.133000 0.251680
v 0.501000 0.163000 0.521680
v 0.501000 0.103000 0.521680
v 0.501000 0.103000 0.251680
v 0.501000 0.163000 0.251680
v 0.501000 0.163000 0.501680
v 0.501000 0.103000 0.501680
vn -1.0000 -0.0000 -0.0000
vn 0.8944 -0.0000 -0.4473
vn 0.7071 -0.0000 -0.7071
vn -0.0000 -0.0000 -1.0000
vn 1.0000 -0.0000 -0.0000
vn -0.0000 -0.4472 0.8944
vn -0.0000 -1.0000 -0.0000
vn -0.0000 -0.7071 0.7071
vn -0.0000 0.7071 0.7071
vn -0.0000 -0.0000 -0.0000
vn -0.0000 -0.0000 1.0000
vn -0.0000 1.0000 -0.0000
vn -0.8944 -0.0000 -0.4473
vn -0.7071 -0.0000 -0.7071
vn -0.0000 1.0000 0.0001
vn 0.0003 1.0000 -0.0000
vn 1.0000 0.0008 -0.0000
vt 0.232069 0.968644
vt 0.233287 0.968644
vt 0.233287 0.964988
vt 0.232069 0.964988
vt 0.248615 0.966282
vt 0.248615 0.968488
vt 0.232431 0.968488
vt 0.232431 0.966282
vt 0.248520 0.968644
vt 0.248520 0.964988
vt 0.233287 0.966816
vt 0.246572 0.972916
vt 0.232302 0.972916
vt 0.232302 0.973350
vt 0.246572 0.973350
vt 0.233445 0.972916
vt 0.233445 0.973350
vt 0.247716 0.973350
vt 0.247716 0.972956
vt 0.245090 0.972956
vt 0.232302 0.972956
vt 0.232302 0.968430
vt 0.247716 0.968430
vt 0.247716 0.968036
vt 0.232302 0.968036
vt 0.246572 0.968036
vt 0.247716 0.972916
vt 0.233259 0.971297
vt 0.233259 0.965058
vt 0.234336 0.965058
vt 0.234336 0.971297
vt 0.248874 0.992713
vt 0.248874 0.967505
vt 0.233259 0.967505
vt 0.233259 0.992713
vt 0.233445 0.968036
vt 0.248520 0.966816
vt 0.248546 0.964875
vt 0.248546 0.968561
vt 0.233182 0.968561
vt 0.233182 0.964875
s 1
usemtl Material
f 32/35/6 46/36/6 47/37/6 31/38/6
f 40/39/7 44/40/8 35/41/9 45/42/9
f 47/37/6 46/36/6 33/43/6 34/44/6
f 49/37/10 50/45/10 48/36/10 36/35/10 37/38/10
f 38/46/11 49/47/12 37/48/12 42/49/13
f 39/50/14 46/47/15 32/48/15 41/51/14
f 34/48/10 33/52/10 44/53/8 40/54/7 43/55/10
f 42/56/16 41/57/16 32/58/16 31/59/16
f 34/58/15 43/60/15 38/46/11 47/61/15
f 48/62/17 39/63/14 41/64/14 36/65/17
f 47/61/15 38/46/11 42/49/13 31/52/15
f 35/66/17 44/67/14 39/68/14 48/69/17
f 44/70/14 33/59/15 46/47/15 39/50/14
f 45/71/10 35/43/10 48/36/10 50/45/10
f 37/72/16 36/73/16 41/74/16 42/75/16
f 52/35/10 51/38/10 63/37/10 62/36/10
f 57/39/18 45/42/9 35/41/9 61/40/19
f 63/37/10 54/44/10 53/43/10 62/36/10
f 55/46/11 59/49/13 37/48/12 49/47/12
f 56/50/14 58/51/14 52/48/15 62/47/15
f 54/48/6 60/55/6 57/54/18 61/53/19 53/52/6
f 59/56/16 51/59/16 52/58/16 58/57/16
f 54/58/15 63/61/10 55/46/11 60/60/15
f 48/62/17 36/65/17 58/64/14 56/63/14
f 63/61/10 51/52/15 59/49/13 55/46/11
f 35/66/17 48/69/17 56/68/14 61/67/14
f 61/70/14 56/50/14 62/47/15 53/59/15
f 37/72/16 59/75/16 58/74/16 36/73/16
f 65/35/6 79/36/6 80/37/6 64/38/6
f 73/39/16 77/40/12 68/41/9 78/42/9
f 80/37/6 79/36/6 66/43/6 67/44/6
f 82/37/10 83/45/10 81/36/10 69/35/10 70/38/10
f 71/46/11 82/47/12 70/48/12 75/49/13
f 72/50/14 79/47/20 65/48/15 74/51/14
f 67/48/16 66/52/16 77/53/12 73/54/16 76/55/16
f 75/56/16 74/57/16 65/58/16 64/59/16
f 67/58/15 76/60/15 71/46/11 80/61/21
f 81/62/17 72/63/14 74/64/14 69/65/17
f 80/61/21 71/46/11 75/49/13 64/52/15
f 68/66/17 77/67/14 72/68/14 81/69/17
f 77/70/14 66/59/15 79/47/20 72/50/14
f 78/71/10 68/43/10 81/36/10 83/45/10
f 70/72/16 69/73/16 74/74/16 75/75/16
f 85/35/10 84/38/10 96/37/10 95/36/10
f 90/39/16 78/42/9 68/41/9 94/40/12
f 96/37/10 87/44/10 86/43/10 95/36/10
f 88/46/11 92/49/13 70/48/12 82/47/12
f 89/50/14 91/51/14 85/48/15 95/47/16
f 87/48/16 93/55/16 90/54/16 94/53/12 86/52/16
f 92/56/16 84/59/16 85/58/16 91/57/16
f 87/58/15 96/61/16 88/46/11 93/60/15
f 81/62/17 69/65/17 91/64/14 89/63/14
f 96/61/16 84/52/15 92/49/13 88/46/11
f 68/66/17 81/69/17 89/68/14 94/67/14
f 94/70/14 89/50/14 95/47/16 86/59/15
f 70/72/16 92/75/16 91/74/16 69/73/16
f 98/35/6 112/36/6 113/37/6 97/38/6
f 106/39/7 110/40/8 101/41/9 111/42/9
f 113/37/6 112/36/6 99/43/6 100/44/6
f 115/37/10 116/45/10 114/36/10 102/35/10 103/38/10
f 104/46/11 115/47/12 103/48/12 108/49/13
f 105/50/14 112/47/15 98/48/15 107/51/14
f 100/48/10 99/52/10 110/53/8 106/54/7 109/55/10
f 108/56/16 107/57/16 98/58/16 97/59/16
f 100/58/15 109/60/15 104/46/11 113/61/17
f 114/62/17 105/63/14 107/64/14 102/65/17
f 113/61/17 104/46/11 108/49/13 97/52/15
f 101/66/17 110/67/14 105/68/14 114/69/17
f 110/70/14 99/59/15 112/47/15 105/50/14
f 111/71/10 101/43/10 114/36/10 116/45/10
f 103/72/16 102/73/16 107/74/16 108/75/16
f 118/35/10 117/38/10 129/37/10 128/36/10
f 123/39/18 111/42/9 101/41/9 127/40/19
f 129/37/10 120/44/10 119/43/10 128/36/10
f 121/46/11 125/49/13 103/48/12 115/47/12
f 122/50/14 124/51/14 118/48/15 128/47/17
f 120/48/6 126/55/6 123/54/18 127/53/19 119/52/6
f 125/56/16 117/59/16 118/58/16 124/57/16
f 120/58/15 129/61/16 121/46/11 126/60/15
f 114/62/17 102/65/17 124/64/14 122/63/14
f 129/61/16 117/52/15 125/49/13 121/46/11
f 101/66/17 114/69/17 122/68/14 127/67/14
f 127/70/14 122/50/14 128/47/17 119/59/15
f 103/72/16 125/75/16 124/74/16 102/73/16
f 131/35/6 145/36/6 146/37/6 130/38/6
f 139/39/7 143/40/8 134/41/9 144/42/9
f 146/37/6 145/36/6 132/43/6 133/44/6
f 148/37/10 149/45/10 147/36/10 135/35/10 136/38/10
f 137/46/11 148/47/12 136/48/12 141/49/13
f 138/50/14 145/47/10 131/48/15 140/51/14
f 133/48/10 132/52/10 143/53/8 139/54/7 142/55/10
f 141/56/16 140/57/16 131/58/16 130/59/16
f 133/58/15 142/60/15 137/46/11 146/61/17
f 147/62/17 138/63/14 140/64/14 135/65/17
f 146/61/17 137/46/11 141/49/13 130/52/15
f 134/66/17 143/67/14 138/68/14 147/69/17
f 143/70/14 132/59/15 145/47/10 138/50/14
f 144/71/10 134/43/10 147/36/10 149/45/10
f 136/72/16 135/73/16 140/74/16 141/75/16
f 151/35/10 150/38/10 162/37/10 161/36/10
f 156/39/18 144/42/9 134/41/9 160/40/19
f 162/37/10 153/44/10 152/43/10 161/36/10
f 154/46/11 158/49/13 136/48/12 148/47/12
f 155/50/14 157/51/14 151/48/15 161/47/22
f 153/48/6 159/55/6 156/54/18 160/53/19 152/52/6
f 158/56/16 150/59/16 151/58/16 157/57/16
f 153/58/15 162/61/10 154/46/11 159/60/15
f 147/62/17 135/65/17 157/64/14 155/63/14
f 162/61/10 150/52/10 158/49/13 154/46/11
f 134/66/17 147/69/17 155/68/14 160/67/14
f 160/70/14 155/50/14 161/47/22 152/59/15
f 136/72/16 158/75/16 157/74/16 135/73/16
