# Blender 3.6.5
# www.blender.org
mtllib Inside_Poly_Shelf_Wall_04.mtl
o Circle
v 0.188205 0.199193 -0.409076
v 0.071982 0.199193 -0.359942
v 0.071732 0.199193 -0.240106
v 0.175763 0.199193 -0.180189
v 0.279543 0.199193 -0.240106
v 0.279543 0.199193 -0.359942
v 0.188205 0.260111 -0.439634
v 0.045518 0.260111 -0.375221
v 0.052308 0.259502 -0.238485
v 0.175763 0.260111 -0.149630
v 0.291077 0.235358 -0.232293
v 0.290247 0.260111 -0.372732
v 0.175763 0.336556 -0.353454
v 0.129491 0.336556 -0.326739
v 0.129491 0.336556 -0.273309
v 0.175763 0.336556 -0.246594
v 0.222034 0.336556 -0.273309
v 0.222034 0.336556 -0.326739
v 0.175763 0.362834 -0.383654
v 0.103337 0.362834 -0.341839
v 0.103337 0.362834 -0.258209
v 0.175763 0.362834 -0.216394
v 0.248189 0.362834 -0.258209
v 0.248189 0.362834 -0.341839
v 0.175763 0.364086 -0.371815
v 0.113590 0.364086 -0.335919
v 0.113590 0.364086 -0.264128
v 0.175763 0.364086 -0.228233
v 0.237936 0.364086 -0.264128
v 0.237936 0.364086 -0.335919
v 0.175763 0.327900 -0.311664
v 0.165683 0.327900 -0.305844
v 0.165683 0.327900 -0.294204
v 0.175763 0.327900 -0.288384
v 0.185843 0.327900 -0.294204
v 0.185843 0.327900 -0.305844
v -0.118389 0.199973 -0.431576
v -0.258573 0.199973 -0.372312
v -0.246671 0.199973 -0.227770
v -0.133396 0.199973 -0.155499
v -0.008219 0.199973 -0.227770
v -0.008219 0.199973 -0.372312
v -0.118389 0.273450 -0.468434
v -0.290493 0.273450 -0.390741
v -0.282304 0.272716 -0.225814
v -0.133396 0.273450 -0.118641
v 0.005692 0.243595 -0.218345
v 0.004691 0.273450 -0.387739
v -0.133396 0.365656 -0.364486
v -0.189208 0.365656 -0.332263
v -0.189208 0.365656 -0.267818
v -0.133396 0.365656 -0.235595
v -0.077585 0.365656 -0.267818
v -0.077585 0.365656 -0.332263
v -0.133396 0.397352 -0.400913
v -0.220754 0.397352 -0.350477
v -0.220754 0.397352 -0.249605
v -0.133396 0.397352 -0.199169
v -0.046039 0.397352 -0.249605
v -0.046039 0.397352 -0.350477
v -0.133396 0.398862 -0.386633
v -0.208387 0.398862 -0.343337
v -0.208387 0.398862 -0.256745
v -0.133396 0.398862 -0.213448
v -0.058405 0.398862 -0.256745
v -0.058405 0.398862 -0.343337
v -0.133396 0.355216 -0.314080
v -0.145555 0.355216 -0.307060
v -0.145555 0.355216 -0.293021
v -0.133396 0.355216 -0.286001
v -0.121238 0.355216 -0.293021
v -0.121238 0.355216 -0.307060
vn -0.9358 -0.3517 0.0230
vn 0.9742 -0.2244 -0.0244
vn -0.5223 -0.2960 0.7998
vn -0.3687 -0.3964 -0.8408
vn 0.4856 -0.3306 -0.8093
vn 0.4765 -0.3715 0.7968
vn 0.7901 0.6084 0.0743
vn -0.4012 0.7044 0.5855
vn -0.3077 0.7059 -0.6380
vn 0.3751 0.7115 -0.5942
vn 0.4937 0.6450 0.5834
vn -0.6906 0.7227 0.0270
vn 0.3544 -0.7054 -0.6138
vn 0.3544 -0.7054 0.6138
vn -0.7088 -0.7054 -0.0000
vn 0.7088 -0.7054 -0.0000
vn -0.3544 -0.7054 0.6138
vn -0.3544 -0.7054 -0.6138
vn 0.0606 0.9926 -0.1049
vn 0.0606 0.9926 0.1049
vn -0.1212 0.9926 -0.0000
vn 0.1212 0.9926 -0.0000
vn -0.0606 0.9926 0.1049
vn -0.0606 0.9926 -0.1049
vn -0.5705 0.8213 -0.0000
vn 0.2853 0.8213 -0.4941
vn 0.2853 0.8213 0.4941
vn -0.2853 0.8213 0.4941
vn -0.2853 0.8213 -0.4941
vn 0.5705 0.8213 -0.0000
vn -0.0000 1.0000 -0.0000
vn -0.9087 -0.4133 0.0580
vn -0.5313 -0.3359 0.7777
vt 0.543105 0.464327
vt 0.543105 0.469499
vt 0.548448 0.469499
vt 0.544922 0.464327
vt 0.544866 0.464327
vt 0.547270 0.469499
vt 0.543268 0.469499
vt 0.543127 0.464327
vt 0.539626 0.464327
vt 0.538554 0.469499
vt 0.526578 0.469499
vt 0.535317 0.464327
vt 0.550531 0.469499
vt 0.543934 0.464327
vt 0.541699 0.464327
vt 0.546478 0.469499
vt 0.545750 0.476605
vt 0.543268 0.476605
vt 0.539626 0.476140
vt 0.530054 0.476140
vt 0.530054 0.476605
vt 0.539626 0.475674
vt 0.545750 0.476140
vt 0.543105 0.476605
vt 0.545866 0.476605
vt 0.539626 0.477845
vt 0.545608 0.477845
vt 0.545618 0.466383
vt 0.546743 0.465144
vt 0.533643 0.465144
vt 0.530054 0.466383
vt 0.545750 0.466383
vt 0.546820 0.465144
vt 0.533783 0.465144
vt 0.530327 0.466383
vt 0.533643 0.477845
vt 0.539533 0.479615
vt 0.531440 0.485308
vt 0.534583 0.480642
vt 0.536435 0.480642
vt 0.536410 0.485308
vt 0.536435 0.480618
vt 0.534583 0.480618
vt 0.538793 0.474959
vt 0.539626 0.474959
vt 0.540458 0.474959
s 0
usemtl Wood_CLock
f 3/1/1 9/2/1 8/3/1 2/4/1
f 6/5/2 12/6/2 11/7/2 5/8/2
f 4/9/3 10/10/3 9/11/3 3/12/3
f 2/12/4 8/11/4 7/10/4 1/9/4
f 1/9/5 7/10/5 12/13/5 6/14/5
f 5/15/6 11/16/6 10/10/6 4/9/6
f 12/6/7 18/17/7 17/18/7 11/7/7
f 10/10/8 16/19/8 15/20/8 9/11/8
f 8/11/9 14/21/9 13/22/9 7/10/9
f 7/10/10 13/22/10 18/17/10 12/13/10
f 11/16/11 17/23/11 16/19/11 10/10/11
f 9/2/12 15/24/12 14/25/12 8/3/12
f 13/22/13 19/26/13 24/27/13 18/17/13
f 17/17/14 23/27/14 22/26/14 16/22/14
f 15/28/15 21/29/15 20/30/15 14/31/15
f 18/32/16 24/33/16 23/34/16 17/35/16
f 16/19/17 22/26/17 21/36/17 15/20/17
f 14/21/18 20/36/18 19/26/18 13/22/18
f 19/37/19 25/37/19 30/37/19 24/37/19
f 23/37/20 29/37/20 28/37/20 22/37/20
f 21/37/21 27/37/21 26/37/21 20/37/21
f 24/37/22 30/37/22 29/37/22 23/37/22
f 22/37/23 28/37/23 27/37/23 21/37/23
f 20/37/24 26/37/24 25/37/24 19/37/24
f 30/38/25 36/39/25 35/40/25 29/41/25
f 28/41/26 34/42/26 33/43/26 27/38/26
f 26/38/27 32/43/27 31/42/27 25/41/27
f 25/41/28 31/42/28 36/43/28 30/38/28
f 29/38/29 35/43/29 34/42/29 28/41/29
f 27/38/30 33/39/30 32/40/30 26/41/30
f 32/44/31 33/44/31 34/45/31 35/46/31 36/46/31 31/45/31
f 39/1/32 45/2/32 44/3/32 38/4/32
f 42/5/2 48/6/2 47/7/2 41/8/2
f 40/9/33 46/10/33 45/11/33 39/12/33
f 38/12/4 44/11/4 43/10/4 37/9/4
f 37/9/5 43/10/5 48/13/5 42/14/5
f 41/15/6 47/16/6 46/10/6 40/9/6
f 48/6/7 54/17/7 53/18/7 47/7/7
f 46/10/8 52/19/8 51/20/8 45/11/8
f 44/11/9 50/21/9 49/22/9 43/10/9
f 43/10/10 49/22/10 54/17/10 48/13/10
f 47/16/11 53/23/11 52/19/11 46/10/11
f 45/2/12 51/24/12 50/25/12 44/3/12
f 49/22/13 55/26/13 60/27/13 54/17/13
f 53/17/14 59/27/14 58/26/14 52/22/14
f 51/28/15 57/29/15 56/30/15 50/31/15
f 54/32/16 60/33/16 59/34/16 53/35/16
f 52/19/17 58/26/17 57/36/17 51/20/17
f 50/21/18 56/36/18 55/26/18 49/22/18
f 55/37/19 61/37/19 66/37/19 60/37/19
f 59/37/20 65/37/20 64/37/20 58/37/20
f 57/37/21 63/37/21 62/37/21 56/37/21
f 60/37/22 66/37/22 65/37/22 59/37/22
f 58/37/23 64/37/23 63/37/23 57/37/23
f 56/37/24 62/37/24 61/37/24 55/37/24
f 66/38/25 72/39/25 71/40/25 65/41/25
f 64/41/26 70/42/26 69/43/26 63/38/26
f 62/38/27 68/43/27 67/42/27 61/41/27
f 61/41/28 67/42/28 72/43/28 66/38/28
f 65/38/29 71/43/29 70/42/29 64/41/29
f 63/38/30 69/39/30 68/40/30 62/41/30
f 68/44/31 69/44/31 70/45/31 71/46/31 72/46/31 67/45/31
o Cube.003
v -0.350000 0.100000 -0.220000
v -0.350000 0.100000 -0.360000
v -0.350000 -0.170000 -0.500000
v -0.350000 -0.030000 -0.500000
v -0.250000 0.100000 -0.220000
v -0.250000 0.100000 -0.360000
v -0.250000 -0.170000 -0.500000
v -0.250000 -0.030000 -0.500000
v 0.250000 0.100000 -0.220000
v 0.250000 0.100000 -0.360000
v 0.250000 -0.170000 -0.500000
v 0.250000 -0.030000 -0.500000
v 0.350000 0.100000 -0.220000
v 0.350000 0.100000 -0.360000
v 0.350000 -0.170000 -0.500000
v 0.350000 -0.030000 -0.500000
vn -1.0000 -0.0000 -0.0000
vn -0.0000 -0.0000 -1.0000
vn 1.0000 -0.0000 -0.0000
vn -0.0000 1.0000 -0.0000
vn -0.0000 -0.7198 0.6941
vn -0.0000 0.7328 -0.6805
vt 0.956556 0.644352
vt 0.956556 0.638242
vt 0.942817 0.638242
vt 0.942832 0.644352
s 0
usemtl Wood_CLock
f 73/47/34 74/48/34 76/49/34 75/50/34
f 75/47/35 76/48/35 80/49/35 79/50/35
f 79/50/36 80/49/36 78/48/36 77/47/36
f 77/50/37 78/49/37 74/48/37 73/47/37
f 75/49/38 79/50/38 77/47/38 73/48/38
f 80/50/39 76/49/39 74/48/39 78/47/39
f 81/47/34 82/48/34 84/49/34 83/50/34
f 83/47/35 84/48/35 88/49/35 87/50/35
f 87/50/36 88/49/36 86/48/36 85/47/36
f 85/50/37 86/49/37 82/48/37 81/47/37
f 83/49/38 87/50/38 85/47/38 81/48/38
f 88/50/39 84/49/39 82/48/39 86/47/39
o Cube.001
v -0.400000 0.100000 -0.100000
v -0.400000 0.200000 -0.100000
v -0.400000 0.100000 -0.500000
v -0.400000 0.200000 -0.500000
v 0.400000 0.100000 -0.100000
v 0.400000 0.200000 -0.100000
v 0.400000 0.100000 -0.500000
v 0.400000 0.200000 -0.500000
vn -1.0000 -0.0000 -0.0000
vn -0.0000 -0.0000 -1.0000
vn 1.0000 -0.0000 -0.0000
vn -0.0000 -0.0000 1.0000
vn -0.0000 -1.0000 -0.0000
vn -0.0000 1.0000 -0.0000
vt 0.560728 0.331057
vt 0.560728 0.335599
vt 0.500542 0.335599
vt 0.500542 0.331057
vt 0.560728 0.336046
vt 0.560728 0.353971
vt 0.500542 0.353971
vt 0.500542 0.336046
s 0
usemtl Wood_CLock
f 89/51/40 90/52/40 92/53/40 91/54/40
f 91/55/41 92/56/41 96/57/41 95/58/41
f 95/54/42 96/53/42 94/52/42 93/51/42
f 93/54/43 94/53/43 90/52/43 89/51/43
f 91/57/44 95/56/44 93/55/44 89/58/44
f 96/56/45 92/57/45 90/58/45 94/55/45
