# Blender v3.0.1 OBJ File: 'Inside_Poly_Wall_Deco_06.blend'
# www.blender.org
mtllib Inside_Poly_Wall_Deco_06.mtl
o Cube
v 0.400000 1.000000 -0.500000
v 0.400000 0.000000 -0.500000
v -0.400000 1.000000 -0.500000
v -0.400000 0.000000 -0.500000
v 0.400000 1.000000 -0.340000
v 0.400000 0.000000 -0.340000
v -0.400000 1.000000 -0.340000
v -0.400000 0.000000 -0.340000
v -0.400000 0.880000 -0.340000
v 0.400000 0.880000 -0.340000
v 0.280000 0.880000 -0.340000
v -0.280000 0.880000 -0.340000
v -0.400000 0.120000 -0.340000
v 0.400000 0.120000 -0.340000
v 0.280000 0.120000 -0.340000
v -0.280000 0.120000 -0.340000
v -0.280000 0.880000 -0.380000
v 0.280000 0.120000 -0.380000
v -0.280000 0.120000 -0.380000
v 0.280000 0.880000 -0.380000
vt 0.866770 0.984177
vt 0.858830 0.984177
vt 0.858830 0.980540
vt 0.858830 0.955190
vt 0.858830 0.951553
vt 0.866770 0.951553
vt 0.827411 0.950726
vt 0.819732 0.950726
vt 0.819732 0.941894
vt 0.866770 0.941894
vt 0.866770 0.950726
vt 0.858522 0.950726
vt 0.829954 0.942163
vt 0.829825 0.950950
vt 0.856108 0.950780
vt 0.856237 0.942163
vt 0.819732 0.996685
vt 0.819732 0.985004
vt 0.827411 0.985004
vt 0.858522 0.985004
vt 0.866770 0.985004
vt 0.866770 0.996685
vt 0.866683 0.985004
vt 0.858522 0.985004
vt 0.858522 0.950726
vt 0.866683 0.950726
vt 0.819802 0.950726
vt 0.819802 0.985004
vt 0.819732 0.980540
vt 0.819732 0.984177
vt 0.827086 0.984177
vt 0.827086 0.951553
vt 0.819732 0.951553
vt 0.819732 0.955190
vt 0.858522 0.996647
vt 0.827411 0.996654
vt 0.827411 0.985004
vt 0.858522 0.942732
vt 0.827411 0.942348
vt 0.857220 0.952381
vt 0.857317 0.983834
vt 0.829883 0.983834
vt 0.829786 0.952381
vt 0.829825 0.984357
vt 0.829825 0.996685
vt 0.856108 0.996685
vt 0.856108 0.984357
vn 1.0000 0.0000 0.0000
vn 0.0000 0.0000 1.0000
vn 0.0000 -1.0000 0.0000
vn -1.0000 0.0000 0.0000
vn 0.0000 1.0000 0.0000
usemtl Material
s off
f 1/1/1 5/2/1 10/3/1 14/4/1 6/5/1 2/6/1
f 16/7/2 13/8/2 8/9/2 6/10/2 14/11/2 15/12/2
f 8/13/3 4/14/3 2/15/3 6/16/3
f 7/17/2 9/18/2 12/19/2 11/20/2 10/21/2 5/22/2
f 11/23/4 20/24/4 18/25/4 15/26/4
f 12/19/1 16/7/1 19/27/1 17/28/1
f 9/29/4 7/30/4 3/31/4 4/32/4 8/33/4 13/34/4
f 11/35/3 12/36/3 17/37/3 20/24/3
f 16/7/2 12/19/2 9/18/2 13/8/2
f 16/7/5 15/12/5 18/38/5 19/39/5
f 14/11/2 10/21/2 11/20/2 15/12/2
f 18/40/2 20/41/2 17/42/2 19/43/2
f 3/44/5 7/45/5 5/46/5 1/47/5
