# Blender 3.6.5
# www.blender.org
mtllib Inside_Poly_Stairs_01.mtl
o Cube.001
v 0.500000 0.547000 -0.500000
v 0.500000 0.000000 -0.500000
v 0.500000 0.000000 0.502000
v 0.500000 0.547000 -0.249000
v 0.500000 0.137000 0.502000
v 0.500000 0.410000 -0.249000
v 0.500000 0.410000 0.002000
v 0.500000 0.274000 0.002000
v 0.500000 0.274000 0.251000
v 0.500000 0.137000 0.251000
v 0.000000 0.000000 0.502000
v 0.000000 0.547000 -0.500000
v 0.000000 0.000000 -0.500000
v 0.000000 0.547000 -0.249000
v 0.000000 0.410000 -0.249000
v 0.000000 0.410000 0.002000
v 0.000000 0.274000 0.002000
v 0.000000 0.274000 0.251000
v 0.000000 0.137000 0.251000
v 0.000000 0.137000 0.502000
v -0.500000 0.547000 -0.500000
v -0.500000 0.000000 -0.500000
v -0.500000 0.000000 0.502000
v -0.500000 0.547000 -0.249000
v -0.500000 0.137000 0.502000
v -0.500000 0.410000 -0.249000
v -0.500000 0.410000 0.002000
v -0.500000 0.274000 0.002000
v -0.500000 0.274000 0.251000
v -0.500000 0.137000 0.251000
vn -0.0000 -0.0000 -1.0000
vn 1.0000 -0.0000 -0.0000
vn -0.0000 1.0000 -0.0000
vn -0.0000 -0.0000 1.0000
vn -1.0000 -0.0000 -0.0000
vt 0.031837 0.901704
vt 0.031837 0.930720
vt 0.058541 0.930720
vt 0.058541 0.901704
vt 0.123930 0.937857
vt 0.123930 0.960305
vt 0.113630 0.960305
vt 0.113630 0.954683
vt 0.103329 0.954683
vt 0.103329 0.949102
vt 0.093111 0.949102
vt 0.093111 0.943480
vt 0.082811 0.943480
vt 0.082811 0.937857
vt 0.123668 0.972939
vt 0.123668 0.989292
vt 0.106884 0.989394
vt 0.106870 0.972939
vt 0.075331 0.946923
vt 0.075331 0.963276
vt 0.062511 0.963276
vt 0.062511 0.946923
vt 0.106898 0.973133
vt 0.106898 0.983187
vt 0.123589 0.983187
vt 0.123589 0.973133
vt 0.090964 0.954853
vt 0.090964 0.971206
vt 0.075558 0.971206
vt 0.075558 0.954853
vt 0.106870 0.963906
vt 0.106870 0.980259
vt 0.091183 0.980259
vt 0.091183 0.963906
vt 0.106884 0.983085
vt 0.106898 0.983170
vt 0.123589 0.983170
s 0
usemtl Material
f 13/1/1 12/2/1 1/3/1 2/4/1
f 2/5/2 1/6/2 4/7/2 6/8/2 7/9/2 8/10/2 9/11/2 10/12/2 5/13/2 3/14/2
f 1/15/3 12/16/3 14/17/3 4/18/3
f 10/19/3 19/20/3 20/21/3 5/22/3
f 9/23/4 18/24/4 19/25/4 10/26/4
f 8/27/3 17/28/3 18/29/3 9/30/3
f 7/23/4 16/24/4 17/25/4 8/26/4
f 6/31/3 15/32/3 16/33/3 7/34/3
f 4/23/4 14/35/4 15/25/4 6/26/4
f 3/26/4 5/23/4 20/36/4 11/37/4
f 13/1/1 22/4/1 21/3/1 12/2/1
f 22/5/5 23/14/5 25/13/5 30/12/5 29/11/5 28/10/5 27/9/5 26/8/5 24/7/5 21/6/5
f 21/15/3 24/18/3 14/17/3 12/16/3
f 30/19/3 25/22/3 20/21/3 19/20/3
f 29/23/4 30/26/4 19/25/4 18/24/4
f 28/27/3 29/30/3 18/29/3 17/28/3
f 27/23/4 28/26/4 17/25/4 16/24/4
f 26/31/3 27/34/3 16/33/3 15/32/3
f 24/23/4 26/26/4 15/25/4 14/35/4
f 23/26/4 11/37/4 20/36/4 25/23/4
o Cube.004
v -0.501000 0.517000 -0.230000
v -0.501000 0.577000 -0.230000
v -0.501000 0.577000 -0.500000
v -0.501000 0.517000 -0.500000
v -0.300000 0.577000 -0.500000
v -0.300000 0.577000 -0.230000
v -0.300000 0.517000 -0.230000
v -0.501000 0.517000 -0.250000
v -0.501000 0.577000 -0.250000
v -0.501000 0.547000 -0.500000
v -0.501000 0.577000 -0.230000
v -0.501000 0.517000 -0.230000
v -0.501000 0.517000 -0.500000
v -0.501000 0.577000 -0.500000
v -0.300000 0.547000 -0.500000
v -0.501000 0.577000 -0.250000
v -0.501000 0.517000 -0.250000
v -0.300000 0.577000 -0.250000
v -0.300000 0.517000 -0.250000
v -0.300000 0.547000 -0.250000
v 0.501000 0.517000 -0.230000
v 0.501000 0.577000 -0.230000
v 0.501000 0.577000 -0.500000
v 0.501000 0.517000 -0.500000
v 0.300000 0.577000 -0.500000
v 0.300000 0.577000 -0.230000
v 0.300000 0.517000 -0.230000
v 0.501000 0.517000 -0.250000
v 0.501000 0.577000 -0.250000
v 0.501000 0.547000 -0.500000
v 0.501000 0.577000 -0.230000
v 0.501000 0.517000 -0.230000
v 0.501000 0.517000 -0.500000
v 0.501000 0.577000 -0.500000
v 0.300000 0.547000 -0.500000
v 0.501000 0.577000 -0.250000
v 0.501000 0.517000 -0.250000
v 0.300000 0.577000 -0.250000
v 0.300000 0.517000 -0.250000
v 0.300000 0.547000 -0.250000
v -0.501000 0.379000 0.020560
v -0.501000 0.439000 0.020560
v -0.501000 0.439000 -0.249440
v -0.501000 0.379000 -0.249440
v -0.300000 0.439000 -0.249440
v -0.300000 0.439000 0.020560
v -0.300000 0.379000 0.020560
v -0.501000 0.379000 0.000560
v -0.501000 0.439000 0.000560
v -0.501000 0.409000 -0.249440
v -0.501000 0.439000 0.020560
v -0.501000 0.379000 0.020560
v -0.501000 0.379000 -0.249440
v -0.501000 0.439000 -0.249440
v -0.300000 0.409000 -0.249440
v -0.501000 0.439000 0.000560
v -0.501000 0.379000 0.000560
v -0.300000 0.439000 0.000560
v -0.300000 0.379000 0.000560
v -0.300000 0.409000 0.000560
v 0.501000 0.379000 0.020560
v 0.501000 0.439000 0.020560
v 0.501000 0.439000 -0.249440
v 0.501000 0.379000 -0.249440
v 0.300000 0.439000 -0.249440
v 0.300000 0.439000 0.020560
v 0.300000 0.379000 0.020560
v 0.501000 0.379000 0.000560
v 0.501000 0.439000 0.000560
v 0.501000 0.409000 -0.249440
v 0.501000 0.439000 0.020560
v 0.501000 0.379000 0.020560
v 0.501000 0.379000 -0.249440
v 0.501000 0.439000 -0.249440
v 0.300000 0.409000 -0.249440
v 0.501000 0.439000 0.000560
v 0.501000 0.379000 0.000560
v 0.300000 0.439000 0.000560
v 0.300000 0.379000 0.000560
v 0.300000 0.409000 0.000560
v -0.501000 0.241000 0.271120
v -0.501000 0.301000 0.271120
v -0.501000 0.301000 0.001120
v -0.501000 0.241000 0.001120
v -0.300000 0.301000 0.001120
v -0.300000 0.301000 0.271120
v -0.300000 0.241000 0.271120
v -0.501000 0.241000 0.251120
v -0.501000 0.301000 0.251120
v -0.501000 0.271000 0.001120
v -0.501000 0.301000 0.271120
v -0.501000 0.241000 0.271120
v -0.501000 0.241000 0.001120
v -0.501000 0.301000 0.001120
v -0.300000 0.271000 0.001120
v -0.501000 0.301000 0.251120
v -0.501000 0.241000 0.251120
v -0.300000 0.301000 0.251120
v -0.300000 0.241000 0.251120
v -0.300000 0.271000 0.251120
v 0.501000 0.241000 0.271120
v 0.501000 0.301000 0.271120
v 0.501000 0.301000 0.001120
v 0.501000 0.241000 0.001120
v 0.300000 0.301000 0.001120
v 0.300000 0.301000 0.271120
v 0.300000 0.241000 0.271120
v 0.501000 0.241000 0.251120
v 0.501000 0.301000 0.251120
v 0.501000 0.271000 0.001120
v 0.501000 0.301000 0.271120
v 0.501000 0.241000 0.271120
v 0.501000 0.241000 0.001120
v 0.501000 0.301000 0.001120
v 0.300000 0.271000 0.001120
v 0.501000 0.301000 0.251120
v 0.501000 0.241000 0.251120
v 0.300000 0.301000 0.251120
v 0.300000 0.241000 0.251120
v 0.300000 0.271000 0.251120
v -0.501000 0.103000 0.521680
v -0.501000 0.163000 0.521680
v -0.501000 0.163000 0.251680
v -0.501000 0.103000 0.251680
v -0.300000 0.163000 0.251680
v -0.300000 0.163000 0.521680
v -0.300000 0.103000 0.521680
v -0.501000 0.103000 0.501680
v -0.501000 0.163000 0.501680
v -0.501000 0.133000 0.251680
v -0.501000 0.163000 0.521680
v -0.501000 0.103000 0.521680
v -0.501000 0.103000 0.251680
v -0.501000 0.163000 0.251680
v -0.300000 0.133000 0.251680
v -0.501000 0.163000 0.501680
v -0.501000 0.103000 0.501680
v -0.300000 0.163000 0.501680
v -0.300000 0.103000 0.501680
v -0.300000 0.133000 0.501680
v 0.501000 0.103000 0.521680
v 0.501000 0.163000 0.521680
v 0.501000 0.163000 0.251680
v 0.501000 0.103000 0.251680
v 0.300000 0.163000 0.251680
v 0.300000 0.163000 0.521680
v 0.300000 0.103000 0.521680
v 0.501000 0.103000 0.501680
v 0.501000 0.163000 0.501680
v 0.501000 0.133000 0.251680
v 0.501000 0.163000 0.521680
v 0.501000 0.103000 0.521680
v 0.501000 0.103000 0.251680
v 0.501000 0.163000 0.251680
v 0.300000 0.133000 0.251680
v 0.501000 0.163000 0.501680
v 0.501000 0.103000 0.501680
v 0.300000 0.163000 0.501680
v 0.300000 0.103000 0.501680
v 0.300000 0.133000 0.501680
vn -1.0000 -0.0000 -0.0000
vn 0.8944 -0.0000 -0.4473
vn 0.7071 -0.0000 -0.7071
vn -0.0000 -0.0000 -1.0000
vn 1.0000 -0.0000 -0.0000
vn -0.0000 -1.0000 -0.0000
vn -0.0000 1.0000 -0.0000
vn -0.0000 -0.0000 -0.0000
vn -0.0000 -0.0000 1.0000
vn -0.8944 -0.0000 -0.4473
vn -0.7071 -0.0000 -0.7071
vn -0.8283 -0.5563 0.0672
vn -0.7071 -0.0000 0.7071
vn -0.3156 -0.0855 -0.9450
vn -0.8541 0.2711 -0.4438
vt 0.106979 0.968644
vt 0.108197 0.968644
vt 0.108197 0.964988
vt 0.106979 0.964988
vt 0.123525 0.966282
vt 0.123525 0.968488
vt 0.107341 0.968488
vt 0.107341 0.966282
vt 0.123430 0.968644
vt 0.123430 0.964988
vt 0.108197 0.966816
vt 0.121483 0.972916
vt 0.107212 0.972916
vt 0.107212 0.973350
vt 0.121483 0.973350
vt 0.108355 0.972916
vt 0.108355 0.973350
vt 0.122626 0.973350
vt 0.122626 0.972956
vt 0.120000 0.972956
vt 0.107212 0.972956
vt 0.107212 0.968430
vt 0.122626 0.968430
vt 0.122626 0.968036
vt 0.107212 0.968036
vt 0.121483 0.968036
vt 0.122626 0.972916
vt 0.108169 0.993607
vt 0.108169 0.999847
vt 0.106811 0.999847
vt 0.106811 0.993607
vt 0.123784 0.993640
vt 0.123784 0.999847
vt 0.108169 0.993640
vt 0.108355 0.968036
vt 0.123430 0.966816
vt 0.124596 0.964875
vt 0.124596 0.968724
vt 0.105650 0.968724
vt 0.105650 0.964875
s 1
usemtl Material
f 32/38/6 46/39/6 47/40/6 31/41/6
f 40/42/7 44/43/8 35/44/9 45/45/9
f 47/40/6 46/39/6 33/46/6 34/47/6
f 49/40/10 50/48/10 48/39/10 36/38/10 37/41/10
f 38/49/11 49/50/11 37/51/11 42/52/11
f 39/53/12 46/50/13 32/51/13 41/54/12
f 34/51/10 33/55/10 44/56/8 40/57/7 43/58/10
f 42/59/14 41/60/14 32/61/13 31/62/13
f 34/61/13 43/63/13 38/49/11 47/64/13
f 48/65/12 39/66/12 41/67/12 36/68/12
f 47/64/13 38/49/11 42/52/11 31/55/13
f 35/69/12 44/70/12 39/66/12 48/71/12
f 44/72/12 33/62/13 46/50/13 39/53/12
f 45/73/10 35/46/10 48/39/10 50/48/10
f 37/74/14 36/75/14 41/76/14 42/77/14
f 52/38/10 51/41/10 67/40/10 66/39/10
f 60/42/15 65/45/9 55/44/9 64/43/16
f 67/40/10 54/47/10 53/46/10 66/39/10
f 69/40/6 57/41/6 56/38/6 68/39/6 70/48/6
f 58/49/11 62/52/11 57/51/11 69/50/11
f 59/53/12 61/54/12 52/51/14 66/50/13
f 54/51/6 63/58/6 60/57/15 64/56/16 53/55/6
f 62/59/14 51/62/13 52/61/13 61/60/14
f 54/61/9 67/64/17 58/49/11 63/63/13
f 68/65/12 56/68/12 61/67/12 59/66/12
f 67/64/17 51/55/13 62/52/11 58/49/11
f 55/69/12 68/71/12 59/66/12 64/70/12
f 64/72/12 59/53/12 66/50/13 53/62/13
f 65/73/6 70/48/6 68/39/6 55/46/6
f 57/74/14 62/77/14 61/76/14 56/75/14
f 72/38/6 86/39/6 87/40/6 71/41/6
f 80/42/14 84/43/11 75/44/9 85/45/9
f 87/40/6 86/39/6 73/46/6 74/47/6
f 89/40/10 90/48/10 88/39/10 76/38/10 77/41/10
f 78/49/11 89/50/11 77/51/11 82/52/11
f 79/53/12 86/50/18 72/51/13 81/54/12
f 74/51/14 73/55/14 84/56/11 80/57/14 83/58/14
f 82/59/14 81/60/14 72/61/13 71/62/13
f 74/61/13 83/63/13 78/49/11 87/64/18
f 88/65/12 79/66/12 81/67/12 76/68/12
f 87/64/18 78/49/11 82/52/11 71/55/13
f 75/69/12 84/70/12 79/66/12 88/71/12
f 84/72/12 73/62/13 86/50/18 79/53/12
f 85/73/10 75/46/10 88/39/10 90/48/10
f 77/74/14 76/75/14 81/76/14 82/77/14
f 92/38/10 91/41/10 107/40/10 106/39/10
f 100/42/14 105/45/9 95/44/9 104/43/11
f 107/40/10 94/47/10 93/46/10 106/39/10
f 109/40/6 97/41/6 96/38/6 108/39/6 110/48/6
f 98/49/11 102/52/11 97/51/11 109/50/11
f 99/53/12 101/54/12 92/51/14 106/50/19
f 94/51/14 103/58/14 100/57/14 104/56/11 93/55/14
f 102/59/14 91/62/13 92/61/13 101/60/14
f 94/61/9 107/64/20 98/49/11 103/63/13
f 108/65/12 96/68/12 101/67/12 99/66/12
f 107/64/20 91/55/13 102/52/11 98/49/11
f 95/69/12 108/71/12 99/66/12 104/70/12
f 104/72/12 99/53/12 106/50/19 93/62/13
f 105/73/6 110/48/6 108/39/6 95/46/6
f 97/74/14 102/77/14 101/76/14 96/75/14
f 112/38/6 126/39/6 127/40/6 111/41/6
f 120/42/7 124/43/8 115/44/9 125/45/9
f 127/40/6 126/39/6 113/46/6 114/47/6
f 129/40/10 130/48/10 128/39/10 116/38/10 117/41/10
f 118/49/11 129/50/11 117/51/11 122/52/11
f 119/53/12 126/50/18 112/51/13 121/54/12
f 114/51/10 113/55/10 124/56/8 120/57/7 123/58/10
f 122/59/14 121/60/14 112/61/13 111/62/13
f 114/61/13 123/63/13 118/49/11 127/64/18
f 128/65/12 119/66/12 121/67/12 116/68/12
f 127/64/18 118/49/11 122/52/11 111/55/13
f 115/69/12 124/70/12 119/66/12 128/71/12
f 124/72/12 113/62/13 126/50/18 119/53/12
f 125/73/10 115/46/10 128/39/10 130/48/10
f 117/74/14 116/75/14 121/76/14 122/77/14
f 132/38/10 131/41/10 147/40/10 146/39/10
f 140/42/15 145/45/9 135/44/9 144/43/16
f 147/40/10 134/47/10 133/46/10 146/39/10
f 149/40/6 137/41/6 136/38/6 148/39/6 150/48/6
f 138/49/11 142/52/11 137/51/11 149/50/11
f 139/53/12 141/54/12 132/51/14 146/50/19
f 134/51/6 143/58/6 140/57/15 144/56/16 133/55/6
f 142/59/14 131/62/13 132/61/13 141/60/14
f 134/61/9 147/64/20 138/49/11 143/63/13
f 148/65/12 136/68/12 141/67/12 139/66/12
f 147/64/20 131/55/13 142/52/11 138/49/11
f 135/69/12 148/71/12 139/66/12 144/70/12
f 144/72/12 139/53/12 146/50/19 133/62/13
f 145/73/6 150/48/6 148/39/6 135/46/6
f 137/74/14 142/77/14 141/76/14 136/75/14
f 152/38/6 166/39/6 167/40/6 151/41/6
f 160/42/7 164/43/8 155/44/9 165/45/9
f 167/40/6 166/39/6 153/46/6 154/47/6
f 169/40/10 170/48/10 168/39/10 156/38/10 157/41/10
f 158/49/11 169/50/11 157/51/11 162/52/11
f 159/53/12 166/50/18 152/51/13 161/54/12
f 154/51/10 153/55/10 164/56/8 160/57/7 163/58/10
f 162/59/14 161/60/14 152/61/13 151/62/13
f 154/61/13 163/63/13 158/49/11 167/64/18
f 168/65/12 159/66/12 161/67/12 156/68/12
f 167/64/18 158/49/11 162/52/11 151/55/13
f 155/69/12 164/70/12 159/66/12 168/71/12
f 164/72/12 153/62/13 166/50/18 159/53/12
f 165/73/10 155/46/10 168/39/10 170/48/10
f 157/74/14 156/75/14 161/76/14 162/77/14
f 172/38/10 171/41/10 187/40/10 186/39/10
f 180/42/15 185/45/9 175/44/9 184/43/16
f 187/40/10 174/47/10 173/46/10 186/39/10
f 189/40/6 177/41/6 176/38/6 188/39/6 190/48/6
f 178/49/11 182/52/11 177/51/11 189/50/11
f 179/53/12 181/54/12 172/51/14 186/50/19
f 174/51/6 183/58/6 180/57/15 184/56/16 173/55/6
f 182/59/14 171/62/13 172/61/13 181/60/14
f 174/61/9 187/64/20 178/49/11 183/63/13
f 188/65/12 176/68/12 181/67/12 179/66/12
f 187/64/20 171/55/13 182/52/11 178/49/11
f 175/69/12 188/71/12 179/66/12 184/70/12
f 184/72/12 179/53/12 186/50/19 173/62/13
f 185/73/6 190/48/6 188/39/6 175/46/6
f 177/74/14 182/77/14 181/76/14 176/75/14
