# Blender v3.0.1 OBJ File: 'Inside_Poly_Kitchen_Table_03.blend'
# www.blender.org
mtllib Inside_Poly_Kitchen_Table_03.mtl
o Cube
v -0.500000 0.000000 0.500000
v -0.500000 0.600000 0.500000
v -0.500000 0.000000 -0.500000
v -0.500000 0.600000 -0.500000
v 0.500000 0.000000 0.500000
v 0.500000 0.600000 0.500000
v 0.500000 0.000000 -0.500000
v 0.500000 0.600000 -0.500000
v -0.010000 0.420000 0.500000
v -0.010000 0.176785 0.500000
v -0.010000 0.420000 0.540000
v -0.010000 0.176785 0.540000
v -0.476359 0.420000 0.500000
v -0.476359 0.176785 0.500000
v -0.476359 0.420000 0.540000
v -0.476359 0.176785 0.540000
v 0.010000 0.176785 0.540000
v 0.010000 0.420000 0.540000
v 0.010000 0.176785 0.500000
v 0.010000 0.420000 0.500000
v 0.480681 0.176785 0.540000
v 0.480681 0.420000 0.540000
v 0.480681 0.176785 0.500000
v 0.480681 0.420000 0.500000
v -0.500000 0.500000 0.500000
v -0.500000 0.500000 -0.500000
v 0.500000 0.500000 -0.500000
v 0.500000 0.500000 0.500000
v -0.500000 0.500000 0.550000
v -0.500000 0.600000 0.550000
v 0.500000 0.600000 0.550000
v 0.500000 0.500000 0.550000
v -0.000000 0.000000 -0.500000
v -0.000000 0.600000 -0.500000
v -0.000000 0.000000 0.500000
v -0.000000 0.600000 0.500000
v -0.000000 0.500000 0.500000
v -0.000000 0.500000 -0.500000
v -0.000000 0.600000 0.550000
v -0.000000 0.500000 0.550000
vt 0.688520 0.432162
vt 0.688520 0.436746
vt 0.630108 0.436746
vt 0.630108 0.432162
vt 0.659314 0.432162
vt 0.659314 0.436746
vt 0.688520 0.436746
vt 0.688520 0.432162
vt 0.630108 0.432162
vt 0.630108 0.436746
vt 0.688520 0.436746
vt 0.688520 0.432162
vt 0.656030 0.401038
vt 0.624809 0.401038
vt 0.624809 0.397144
vt 0.656030 0.397144
vt 0.656030 0.437499
vt 0.624809 0.437499
vt 0.625251 0.382963
vt 0.656121 0.382963
vt 0.656121 0.382963
vt 0.625251 0.382963
vt 0.625251 0.394437
vt 0.625251 0.394437
vt 0.656121 0.394437
vt 0.656121 0.394437
vt 0.625251 0.382963
vt 0.625251 0.394437
vt 0.625251 0.394437
vt 0.625251 0.382963
vt 0.656121 0.382963
vt 0.656121 0.394437
vt 0.656121 0.394437
vt 0.656121 0.382963
vt 0.580497 0.375093
vt 0.580497 0.397058
vt 0.562753 0.397116
vt 0.562753 0.375152
vt 0.630108 0.402188
vt 0.688520 0.402188
vt 0.659314 0.402188
vt 0.688520 0.402188
vt 0.688520 0.402188
vt 0.630108 0.402188
vt 0.656030 0.397058
vt 0.656030 0.399669
vt 0.624809 0.399669
vt 0.624809 0.397058
vt 0.656030 0.397058
vt 0.687250 0.397058
vt 0.687250 0.397058
vt 0.688520 0.432162
vt 0.688520 0.436746
vt 0.688520 0.436746
vt 0.688520 0.432162
vt 0.624809 0.397058
vt 0.687250 0.399669
vt 0.607118 0.375152
vt 0.607118 0.397117
vt 0.624862 0.397058
vt 0.624862 0.375093
vt 0.687250 0.437499
vt 0.687250 0.401038
vt 0.687250 0.397144
vn -1.0000 0.0000 0.0000
vn 0.0000 0.0000 -1.0000
vn 1.0000 0.0000 0.0000
vn 0.0000 1.0000 0.0000
vn 0.0000 -1.0000 0.0000
vn 0.0000 0.0000 1.0000
usemtl Wood_CLock
s off
f 25/1/1 2/2/1 4/3/1 26/4/1
f 38/5/2 34/6/2 8/7/2 27/8/2
f 27/9/3 8/10/3 6/11/3 28/12/3
f 36/13/4 2/14/4 30/15/4 39/16/4
f 34/17/4 4/18/4 2/14/4 36/13/4
f 14/19/5 10/20/5 12/21/5 16/22/5
f 16/22/1 15/23/1 13/24/1 14/19/1
f 12/21/6 11/25/6 15/23/6 16/22/6
f 9/26/4 13/24/4 15/23/4 11/25/4
f 10/20/3 9/26/3 11/25/3 12/21/3
f 17/27/1 18/28/1 20/29/1 19/30/1
f 23/31/3 24/32/3 22/33/3 21/34/3
f 21/34/6 22/33/6 18/28/6 17/27/6
f 19/30/5 23/31/5 21/34/5 17/27/5
f 24/32/4 20/29/4 18/28/4 22/33/4
f 35/35/6 37/36/6 25/37/6 1/38/6
f 7/39/3 27/9/3 28/12/3 5/40/3
f 33/41/2 38/5/2 27/8/2 7/42/2
f 1/43/1 25/1/1 26/4/1 3/44/1
f 40/45/6 39/46/6 30/47/6 29/48/6
f 37/49/5 28/50/5 32/51/5 40/45/5
f 2/2/1 25/1/1 29/52/1 30/53/1
f 28/12/3 6/11/3 31/54/3 32/55/3
f 25/56/5 37/49/5 40/45/5 29/48/5
f 32/51/6 31/57/6 39/46/6 40/45/6
f 3/44/2 26/4/2 38/5/2 33/41/2
f 5/58/6 28/59/6 37/60/6 35/61/6
f 8/62/4 34/17/4 36/13/4 6/63/4
f 6/63/4 36/13/4 39/16/4 31/64/4
f 26/4/2 4/3/2 34/6/2 38/5/2
