# Blender v3.0.1 OBJ File: 'Inside_Poly_Wall_Deco_01.blend'
# www.blender.org
mtllib Inside_Poly_Wall_Deco_01.mtl
o Cube_Cube.003
v -0.333511 0.316148 -0.449248
v -0.333511 0.366005 -0.449248
v -0.333511 0.316148 -0.493922
v -0.333511 0.366005 -0.493922
v 0.336601 0.318739 -0.449248
v 0.336601 0.363413 -0.449248
v 0.336601 0.318739 -0.493922
v 0.336601 0.363413 -0.493922
v -0.333511 0.301987 -0.471585
v -0.333511 0.380166 -0.471585
v 0.336601 0.301987 -0.471585
v 0.336601 0.380166 -0.471585
v -0.418355 0.341076 -0.471585
v -0.418330 0.341076 -0.471585
v -0.501039 0.341076 -0.471585
v -0.501039 0.341076 -0.471585
v -0.501039 0.341076 -0.471585
v -0.501039 0.341076 -0.471585
v 0.392443 0.307571 -0.449248
v 0.392443 0.368998 -0.449248
v 0.392443 0.307571 -0.493922
v 0.392443 0.368998 -0.493922
v 0.392443 0.307571 -0.471585
v 0.392443 0.368998 -0.471585
v 0.336601 0.430425 -0.449248
v 0.336601 0.430425 -0.493922
v 0.364522 0.452762 -0.471585
v 0.392443 0.430425 -0.449248
v 0.392443 0.430425 -0.493922
v 0.392443 0.452762 -0.471585
v 0.336601 0.251728 -0.449248
v 0.336601 0.251728 -0.493922
v 0.358938 0.229391 -0.471585
v 0.392443 0.251728 -0.449248
v 0.392443 0.251728 -0.493922
v 0.392443 0.229391 -0.471585
v 0.392443 0.368998 -0.493922
v 0.392443 0.307571 -0.493922
v 0.587893 0.307571 -0.449248
v 0.587893 0.368998 -0.449248
v 0.587893 0.307571 -0.493922
v 0.587893 0.368998 -0.493922
v 0.587893 0.307571 -0.471585
v 0.587893 0.368998 -0.471585
v 0.587893 0.368998 -0.493922
v 0.587893 0.307571 -0.493922
vt 0.134960 0.331737
vt 0.134960 0.330008
vt 0.127555 0.328286
vt 0.127555 0.328286
vt 0.135024 0.328286
vt 0.166622 0.330008
vt 0.166686 0.328286
vt 0.166686 0.328286
vt 0.166622 0.330008
vt 0.134960 0.330008
vt 0.135024 0.328286
vt 0.134960 0.331718
vt 0.166622 0.331718
vt 0.166622 0.330008
vt 0.134960 0.330008
vt 0.166622 0.331737
vt 0.134960 0.330008
vt 0.166622 0.330008
vt 0.169818 0.330510
vt 0.169818 0.329796
vt 0.169818 0.332651
vt 0.171459 0.333602
vt 0.127555 0.328286
vt 0.127555 0.328286
vt 0.127555 0.328286
vt 0.127555 0.328286
vt 0.169818 0.327894
vt 0.169818 0.329796
vt 0.172649 0.330034
vt 0.172649 0.327418
vt 0.171233 0.330008
vt 0.171233 0.331737
vt 0.169679 0.331737
vt 0.169679 0.330008
vt 0.169818 0.327894
vt 0.172649 0.327418
vt 0.172649 0.330034
vt 0.171233 0.324891
vt 0.171233 0.327398
vt 0.169679 0.327398
vt 0.169679 0.324891
vt 0.169818 0.327180
vt 0.171221 0.324088
vt 0.169818 0.325039
vt 0.172649 0.332651
vt 0.172649 0.333602
vt 0.169818 0.332651
vt 0.172649 0.332651
vt 0.171233 0.330008
vt 0.169679 0.330008
vt 0.172649 0.330034
vt 0.169818 0.325039
vt 0.172649 0.325039
vt 0.172649 0.324088
vt 0.172649 0.325039
vt 0.172649 0.327418
vt 0.171233 0.327398
vt 0.169679 0.327398
vt 0.173487 0.330542
vt 0.173487 0.330542
vt 0.185973 0.330542
vt 0.185973 0.330542
vt 0.173487 0.330542
vt 0.185973 0.330542
vt 0.173487 0.327021
vt 0.173487 0.330542
vt 0.185973 0.330542
vt 0.185973 0.327021
vt 0.173487 0.327021
vt 0.185973 0.327021
vt 0.173487 0.327021
vt 0.173487 0.327021
vt 0.185973 0.327021
vt 0.185973 0.327021
vt 0.171233 0.324891
vt 0.171233 0.327398
vt 0.172649 0.330034
vt 0.172649 0.327418
vt 0.171233 0.330008
vt 0.171233 0.331737
vt 0.172649 0.330034
vt 0.171233 0.327398
vn -0.1933 0.8286 -0.5253
vn 0.0000 0.0000 -1.0000
vn 0.0000 0.0000 1.0000
vn 0.0016 -0.8223 0.5690
vn 0.0016 0.8223 0.5690
vn 0.0016 0.8223 -0.5690
vn 0.0016 -0.8223 -0.5690
vn -0.8971 0.1794 -0.4037
vn -0.1782 0.3866 0.9049
vn 0.0000 1.0000 0.0000
vn -0.1782 -0.3868 0.9048
vn -0.1322 0.0000 -0.9912
vn -0.1933 -0.8286 -0.5253
vn -0.2546 0.0001 0.9670
vn 1.0000 0.0000 0.0000
vn -0.9304 -0.1489 -0.3349
vn 0.0000 0.7071 0.7071
vn 0.0000 0.7071 -0.7071
vn -0.8971 0.1794 0.4037
vn 0.0000 -0.7071 -0.7071
vn 0.0000 -0.7071 0.7071
vn -0.9304 -0.1489 0.3349
vn 0.0000 -1.0000 0.0000
usemtl Material
s off
f 10/1/1 4/2/1 16/3/1 18/4/1
f 3/5/2 4/2/2 8/6/2 7/7/2
f 5/8/3 6/9/3 2/10/3 1/11/3
f 9/12/4 11/13/4 5/14/4 1/15/4
f 12/16/5 10/1/5 2/10/5 6/9/5
f 8/6/6 4/2/6 10/1/6 12/16/6
f 3/17/7 7/18/7 11/13/7 9/12/7
f 12/19/8 6/20/8 25/21/8 27/22/8
f 2/10/9 10/1/9 18/4/9 14/23/9
f 17/24/3 18/4/3 16/3/3 15/25/3
f 13/26/10 14/23/10 18/4/10 17/24/10
f 9/12/11 1/15/11 13/26/11 17/24/11
f 4/2/12 3/5/12 15/25/12 16/3/12
f 3/17/13 9/12/13 17/24/13 15/25/13
f 1/11/14 2/10/14 14/23/14 13/26/14
f 7/27/2 8/28/2 37/29/2 38/30/2
f 20/31/15 24/32/15 30/33/15 28/34/15
f 6/20/3 5/35/3 19/36/3 20/37/3
f 23/38/15 19/39/15 34/40/15 36/41/15
f 5/35/16 11/42/16 33/43/16 31/44/16
f 27/22/17 25/21/17 28/45/17 30/46/17
f 26/47/18 27/22/18 30/46/18 29/48/18
f 24/32/15 22/49/15 29/50/15 30/33/15
f 8/28/19 12/19/19 27/22/19 26/47/19
f 22/51/2 8/28/2 26/47/2 29/48/2
f 6/20/3 20/37/3 28/45/3 25/21/3
f 33/43/20 32/52/20 35/53/20 36/54/20
f 31/44/21 33/43/21 36/54/21 34/55/21
f 7/27/2 21/56/2 35/53/2 32/52/2
f 21/57/15 23/38/15 36/41/15 35/58/15
f 19/36/3 5/35/3 31/44/3 34/55/3
f 11/42/22 7/27/22 32/52/22 33/43/22
f 24/59/10 20/60/10 40/61/10 44/62/10
f 22/63/10 24/59/10 44/62/10 42/64/10
f 38/65/2 37/66/2 45/67/2 46/68/2
f 20/60/3 19/69/3 39/70/3 40/61/3
f 23/71/23 21/72/23 41/73/23 43/74/23
f 19/69/23 23/71/23 43/74/23 39/70/23
f 43/75/15 41/76/15 45/77/15 46/78/15 42/79/15 44/80/15 40/81/15 39/82/15
o Cube.001_Cube.004
v -0.277668 0.229391 -0.443663
v -0.277668 0.335492 -0.443663
v -0.277668 0.229391 -0.499506
v -0.277668 0.335492 -0.499506
v -0.221826 0.229391 -0.443663
v -0.221826 0.335492 -0.443663
v -0.221826 0.229391 -0.499506
v -0.221826 0.335492 -0.499506
v 0.224916 0.229391 -0.443663
v 0.224916 0.335492 -0.443663
v 0.224916 0.229391 -0.499506
v 0.224916 0.335492 -0.499506
v 0.280758 0.229391 -0.443663
v 0.280758 0.335492 -0.443663
v 0.280758 0.229391 -0.499506
v 0.280758 0.335492 -0.499506
vt 0.166502 0.339979
vt 0.166502 0.344999
vt 0.162888 0.344999
vt 0.162888 0.339979
vt 0.135609 0.340039
vt 0.135609 0.344853
vt 0.139212 0.344853
vt 0.139212 0.340039
vt 0.162888 0.339979
vt 0.162888 0.344999
vt 0.166502 0.344999
vt 0.166502 0.339979
vt 0.139212 0.340039
vt 0.139212 0.344853
vt 0.135609 0.344853
vt 0.135609 0.340039
vt 0.166502 0.339979
vt 0.166502 0.344999
vt 0.162888 0.344999
vt 0.162888 0.339979
vt 0.135609 0.340039
vt 0.135609 0.344853
vt 0.139212 0.344853
vt 0.139212 0.340039
vt 0.162888 0.339979
vt 0.162888 0.344999
vt 0.166502 0.344999
vt 0.166502 0.339979
vt 0.139212 0.340039
vt 0.139212 0.344853
vt 0.135609 0.344853
vt 0.135609 0.340039
vn -1.0000 0.0000 0.0000
vn 0.0000 0.0000 -1.0000
vn 1.0000 0.0000 0.0000
vn 0.0000 0.0000 1.0000
vn 0.0000 -1.0000 0.0000
vn 0.0000 1.0000 0.0000
usemtl Material
s off
f 47/83/24 48/84/24 50/85/24 49/86/24
f 49/87/25 50/88/25 54/89/25 53/90/25
f 53/91/26 54/92/26 52/93/26 51/94/26
f 51/95/27 52/96/27 48/97/27 47/98/27
f 49/87/28 53/90/28 51/95/28 47/98/28
f 54/89/29 50/88/29 48/97/29 52/96/29
f 55/99/24 56/100/24 58/101/24 57/102/24
f 57/103/25 58/104/25 62/105/25 61/106/25
f 61/107/26 62/108/26 60/109/26 59/110/26
f 59/111/27 60/112/27 56/113/27 55/114/27
f 57/103/28 61/106/28 59/111/28 55/114/28
f 62/105/29 58/104/29 56/113/29 60/112/29
o Cube.002_Cube.005
v -0.333511 0.695374 -0.449248
v -0.333511 0.762385 -0.449248
v -0.333511 0.695374 -0.493922
v -0.333511 0.762385 -0.493922
v 0.336601 0.695374 -0.449248
v 0.336601 0.762385 -0.449248
v 0.336601 0.695374 -0.493922
v 0.336601 0.762385 -0.493922
v -0.333511 0.673036 -0.471585
v -0.333511 0.784722 -0.471585
v 0.336601 0.673036 -0.471585
v 0.336601 0.784722 -0.471585
v -0.501039 0.728879 -0.471585
v -0.501039 0.728879 -0.471585
v -0.501039 0.728879 -0.471585
v -0.501039 0.728879 -0.471585
v -0.501039 0.728879 -0.471585
v -0.501039 0.728879 -0.471585
v 0.392443 0.695374 -0.449248
v 0.392443 0.762385 -0.449248
v 0.392443 0.695374 -0.493922
v 0.392443 0.762385 -0.493922
v 0.336601 0.818227 -0.449248
v 0.336601 0.818227 -0.493922
v 0.364522 0.840564 -0.471585
v 0.392443 0.818227 -0.449248
v 0.392443 0.818227 -0.493922
v 0.392443 0.840564 -0.471585
v 0.336601 0.639531 -0.449248
v 0.336601 0.639531 -0.493922
v 0.358938 0.617194 -0.471585
v 0.392443 0.639531 -0.449248
v 0.392443 0.639531 -0.493922
v 0.392443 0.617194 -0.471585
v 0.392443 0.762385 -0.493922
v 0.392443 0.695374 -0.493922
v 0.587893 0.762385 -0.493922
v 0.587893 0.695374 -0.493922
v 0.587893 0.762385 -0.449248
v 0.587893 0.695374 -0.449248
v 0.415158 0.818227 -0.449248
v 0.415158 0.818227 -0.493922
v 0.415158 0.840564 -0.471585
v 0.414490 0.639531 -0.449248
v 0.414490 0.639531 -0.493922
v 0.414490 0.617194 -0.471585
vt 0.134960 0.350856
vt 0.134960 0.349179
vt 0.127517 0.347149
vt 0.127517 0.347164
vt 0.134960 0.345072
vt 0.166622 0.349179
vt 0.166622 0.345072
vt 0.173406 0.345299
vt 0.173406 0.345299
vt 0.186069 0.345299
vt 0.186069 0.345299
vt 0.166622 0.345072
vt 0.166622 0.349179
vt 0.134960 0.349179
vt 0.134960 0.345072
vt 0.134960 0.350837
vt 0.166622 0.350837
vt 0.166622 0.349075
vt 0.134960 0.349075
vt 0.166622 0.350856
vt 0.134960 0.349075
vt 0.166622 0.349075
vt 0.169874 0.350044
vt 0.169874 0.348852
vt 0.169874 0.351831
vt 0.171363 0.353023
vt 0.127517 0.347149
vt 0.127517 0.347087
vt 0.127517 0.347103
vt 0.127517 0.347103
vt 0.169874 0.345278
vt 0.169874 0.348852
vt 0.172853 0.348852
vt 0.172853 0.345278
vt 0.172540 0.346232
vt 0.169746 0.346232
vt 0.169746 0.346232
vt 0.172540 0.346232
vt 0.171185 0.344662
vt 0.171185 0.344662
vt 0.169544 0.344662
vt 0.169544 0.342985
vt 0.169544 0.344662
vt 0.169874 0.345278
vt 0.172853 0.345278
vt 0.172853 0.348852
vt 0.169874 0.344086
vt 0.171065 0.341107
vt 0.169874 0.342299
vt 0.172853 0.351831
vt 0.172853 0.353023
vt 0.169874 0.351831
vt 0.172853 0.351831
vt 0.172853 0.348852
vt 0.169874 0.342299
vt 0.172851 0.342308
vt 0.172851 0.341107
vt 0.172851 0.342308
vt 0.172853 0.345278
vt 0.173398 0.345299
vt 0.173398 0.348828
vt 0.186069 0.348828
vt 0.173406 0.348828
vt 0.186069 0.348828
vt 0.173406 0.348828
vt 0.169746 0.349063
vt 0.172540 0.349063
vt 0.172540 0.349063
vt 0.169746 0.349063
vt 0.174216 0.353023
vt 0.174216 0.351831
vt 0.174219 0.351829
vt 0.174064 0.342300
vt 0.174064 0.341092
vt 0.172856 0.341092
vt 0.172856 0.342300
vt 0.174068 0.342308
vt 0.174068 0.341101
vt 0.172954 0.345072
vt 0.172159 0.345072
vt 0.172954 0.342337
vt 0.174211 0.342337
vt 0.172159 0.343036
vt 0.172853 0.351831
vt 0.172159 0.349179
vt 0.172954 0.349179
vt 0.174211 0.351831
vt 0.172853 0.353023
vt 0.171185 0.349179
vt 0.171185 0.349179
vt 0.169544 0.349179
vt 0.169544 0.350856
vt 0.169544 0.349179
vn -0.2294 0.6882 -0.6882
vn 0.0000 0.0000 -1.0000
vn 0.0000 -1.0000 0.0000
vn 0.0000 0.0000 1.0000
vn 0.0000 -0.7071 0.7071
vn 0.0000 0.7071 0.7071
vn 0.0000 0.7071 -0.7071
vn 0.0000 -0.7071 -0.7071
vn -0.9117 0.2279 -0.3419
vn -0.2294 0.6882 0.6882
vn -0.2294 -0.6882 0.6882
vn -0.1322 0.0000 -0.9912
vn -0.2294 -0.6882 -0.6882
vn -0.1322 0.0000 0.9912
vn 1.0000 -0.0000 0.0000
vn -0.9407 -0.1881 -0.2822
vn -0.9117 0.2279 0.3419
vn -0.9407 -0.1881 0.2822
vn 0.0000 1.0000 0.0000
usemtl Material
s off
f 72/115/30 66/116/30 78/117/30 80/118/30
f 65/119/31 66/116/31 70/120/31 69/121/31
f 81/122/32 83/123/32 100/124/32 102/125/32
f 67/126/33 68/127/33 64/128/33 63/129/33
f 71/130/34 73/131/34 67/132/34 63/133/34
f 74/134/35 72/115/35 64/128/35 68/127/35
f 70/120/36 66/116/36 72/115/36 74/134/36
f 65/135/37 69/136/37 73/131/37 71/130/37
f 74/137/38 68/138/38 85/139/38 87/140/38
f 64/128/39 72/115/39 80/118/39 76/141/39
f 79/142/33 80/118/33 78/117/33 77/143/33
f 75/144/33 76/141/33 80/118/33 79/142/33
f 71/130/40 63/133/40 75/144/40 79/142/40
f 66/116/41 65/119/41 77/143/41 78/117/41
f 65/135/42 71/130/42 79/142/42 77/143/42
f 63/129/43 64/128/43 76/141/43 75/144/43
f 69/145/31 70/146/31 97/147/31 98/148/31
f 83/149/33 69/150/33 98/151/33 100/152/33
f 83/153/44 81/154/44 94/155/44 96/156/44 95/157/44
f 68/138/33 67/158/33 81/159/33 82/160/33
f 67/158/45 73/161/45 93/162/45 91/163/45
f 87/140/35 85/139/35 88/164/35 90/165/35
f 86/166/36 87/140/36 90/165/36 89/167/36
f 70/146/46 74/137/46 87/140/46 86/166/46
f 84/168/31 70/146/31 86/166/31 89/167/31
f 68/138/33 82/160/33 88/164/33 85/139/33
f 93/162/37 92/169/37 95/170/37 96/171/37
f 91/163/34 93/162/34 96/171/34 94/172/34
f 69/145/31 83/173/31 95/170/31 92/169/31
f 81/159/33 67/158/33 91/163/33 94/172/33
f 73/161/47 69/145/47 92/169/47 93/162/47
f 98/174/31 97/175/31 99/176/31 100/124/31
f 82/177/48 101/178/48 99/176/48 84/179/48
f 82/177/33 81/122/33 102/125/33 101/178/33
f 70/180/33 84/181/33 99/182/33 97/183/33
f 90/165/36 105/184/36 104/185/36 89/167/36
f 90/165/35 88/164/35 103/186/35 105/184/35
f 94/187/34 96/188/34 108/189/34 106/190/34
f 95/170/37 107/191/37 108/192/37 96/171/37
f 94/193/48 106/194/48 107/195/48 95/196/48
f 108/197/44 107/195/44 106/194/44
f 104/198/32 103/199/32 88/200/32 89/201/32
f 105/202/44 103/199/44 104/198/44
f 82/203/44 84/204/44 89/205/44 90/206/44 88/207/44
f 100/124/44 99/176/44 101/178/44 102/125/44
o Cube.003_Cube.006
v -0.277668 0.617194 -0.443663
v -0.277668 0.723295 -0.443663
v -0.277668 0.617194 -0.499506
v -0.277668 0.723295 -0.499506
v -0.221826 0.617194 -0.443663
v -0.221826 0.723295 -0.443663
v -0.221826 0.617194 -0.499506
v -0.221826 0.723295 -0.499506
v 0.224916 0.617194 -0.443663
v 0.224916 0.723295 -0.443663
v 0.224916 0.617194 -0.499506
v 0.224916 0.723295 -0.499506
v 0.280758 0.617194 -0.443663
v 0.280758 0.723295 -0.443663
v 0.280758 0.617194 -0.499506
v 0.280758 0.723295 -0.499506
vt 0.166526 0.323072
vt 0.166526 0.327932
vt 0.162885 0.327932
vt 0.162885 0.323072
vt 0.135609 0.340039
vt 0.135609 0.344853
vt 0.139212 0.344853
vt 0.139212 0.340039
vt 0.162885 0.323072
vt 0.162885 0.327932
vt 0.166526 0.327932
vt 0.166526 0.323072
vt 0.139212 0.340039
vt 0.139212 0.344853
vt 0.135609 0.344853
vt 0.135609 0.340039
vt 0.166526 0.323072
vt 0.166526 0.327932
vt 0.162885 0.327932
vt 0.162885 0.323072
vt 0.135609 0.340039
vt 0.135609 0.344853
vt 0.139212 0.344853
vt 0.139212 0.340039
vt 0.162885 0.323072
vt 0.162885 0.327932
vt 0.166526 0.327932
vt 0.166526 0.323072
vt 0.139212 0.340039
vt 0.139212 0.344853
vt 0.135609 0.344853
vt 0.135609 0.340039
vn -1.0000 0.0000 0.0000
vn 0.0000 0.0000 -1.0000
vn 1.0000 0.0000 0.0000
vn 0.0000 0.0000 1.0000
vn 0.0000 -1.0000 0.0000
vn 0.0000 1.0000 0.0000
usemtl Material
s off
f 109/208/49 110/209/49 112/210/49 111/211/49
f 111/212/50 112/213/50 116/214/50 115/215/50
f 115/216/51 116/217/51 114/218/51 113/219/51
f 113/220/52 114/221/52 110/222/52 109/223/52
f 111/212/53 115/215/53 113/220/53 109/223/53
f 116/214/54 112/213/54 110/222/54 114/221/54
f 117/224/49 118/225/49 120/226/49 119/227/49
f 119/228/50 120/229/50 124/230/50 123/231/50
f 123/232/51 124/233/51 122/234/51 121/235/51
f 121/236/52 122/237/52 118/238/52 117/239/52
f 119/228/53 123/231/53 121/236/53 117/239/53
f 124/230/54 120/229/54 118/238/54 122/237/54
