# Blender 3.6.5
# www.blender.org
mtllib Inside_Poly_Table_06.mtl
o Cube
v 0.750000 0.400000 0.600000
v 0.750000 0.482485 0.600000
v -0.750000 0.482485 0.600000
v -0.750000 0.400000 0.600000
v -0.750000 0.482485 -0.600000
v -0.750000 0.400000 -0.600000
v 0.750000 0.400000 -0.600000
v 0.732485 0.500000 -0.582485
v -0.732485 0.500000 -0.582485
v -0.732485 0.500000 0.582485
v 0.732485 0.500000 0.582485
v 0.750000 0.482485 -0.600000
vn -0.0000 -0.0000 1.0000
vn -1.0000 -0.0000 -0.0000
vn -0.0000 1.0000 -0.0000
vn 1.0000 -0.0000 -0.0000
vn -0.0000 0.7071 0.7071
vn 0.7071 0.7071 -0.0000
vn -0.7071 0.7071 -0.0000
vn -0.0000 0.7071 -0.7071
vn -0.0000 -0.0000 -1.0000
vn -0.0000 -1.0000 -0.0000
vt 0.310754 0.078394
vt 0.310767 0.083245
vt 0.251499 0.083245
vt 0.251486 0.078394
vt 0.310838 0.115424
vt 0.250991 0.115424
vt 0.250862 0.084007
vt 0.310709 0.084007
vt 0.308837 0.085493
vt 0.252245 0.085493
vt 0.251568 0.085067
vt 0.309514 0.085067
vt 0.308837 0.113874
vt 0.309514 0.114300
vt 0.252245 0.113874
vt 0.251568 0.114300
vt 0.251416 0.115015
vt 0.310754 0.115504
vt 0.310754 0.085161
vt 0.251416 0.085161
s 1
usemtl Material
f 1/1/1 2/2/1 3/3/1 4/4/1
f 4/1/2 3/2/2 5/3/2 6/4/2
f 8/5/3 9/6/3 10/7/3 11/8/3
f 7/1/4 12/2/4 2/3/4 1/4/4
f 11/9/5 10/10/5 3/11/5 2/12/5
f 8/13/6 11/9/6 2/12/6 12/14/6
f 10/10/7 9/15/7 5/16/7 3/11/7
f 9/15/8 8/13/8 12/14/8 5/16/8
f 6/1/9 5/2/9 12/3/9 7/4/9
f 1/17/10 4/18/10 6/19/10 7/20/10
o Cube.001
v 0.600000 0.000000 -0.500000
v 0.666000 0.000000 -0.500000
v 0.700000 0.000000 -0.466000
v 0.700000 0.000000 -0.400000
v 0.600000 0.000000 -0.400000
v 0.600000 0.400000 -0.400000
v 0.600000 0.400000 -0.500000
v 0.700000 0.400000 -0.466007
v 0.700000 0.400000 -0.400000
v 0.666007 0.400000 -0.500000
v -0.600000 0.000000 -0.500000
v -0.666000 0.000000 -0.500000
v -0.700000 0.000000 -0.466000
v -0.700000 0.000000 -0.400000
v -0.600000 0.000000 -0.400000
v -0.600000 0.400000 -0.400000
v -0.600000 0.400000 -0.500000
v -0.700000 0.400000 -0.466007
v -0.700000 0.400000 -0.400000
v -0.666007 0.400000 -0.500000
v 0.600000 -0.000000 0.500000
v 0.666000 -0.000000 0.500000
v 0.700000 -0.000000 0.466000
v 0.700000 -0.000000 0.400000
v 0.600000 -0.000000 0.400000
v 0.600000 0.400000 0.400000
v 0.600000 0.400000 0.500000
v 0.700000 0.400000 0.466007
v 0.700000 0.400000 0.400000
v 0.666007 0.400000 0.500000
v -0.600000 -0.000000 0.500000
v -0.666000 -0.000000 0.500000
v -0.700000 -0.000000 0.466000
v -0.700000 -0.000000 0.400000
v -0.600000 -0.000000 0.400000
v -0.600000 0.400000 0.400000
v -0.600000 0.400000 0.500000
v -0.700000 0.400000 0.466007
v -0.700000 0.400000 0.400000
v -0.666007 0.400000 0.500000
vn -1.0000 -0.0000 -0.0000
vn 1.0000 -0.0000 -0.0000
vn -0.0000 1.0000 -0.0000
vn -0.0000 -0.0000 1.0000
vn -0.0000 -0.0000 -1.0000
vn 0.7071 -0.0000 -0.7071
vn -0.7071 -0.0000 -0.7071
vn 0.7071 -0.0000 0.7071
vn -0.7071 -0.0000 0.7071
vt 0.252691 0.065242
vt 0.252691 0.074171
vt 0.258881 0.074171
vt 0.258881 0.065242
vt 0.250758 0.094286
vt 0.271057 0.083606
vt 0.310609 0.083742
vt 0.310814 0.115364
vt 0.250893 0.115159
s 1
usemtl Material
f 17/21/11 18/22/11 19/23/11 13/24/11
f 15/21/12 20/22/12 21/23/12 16/24/12
f 20/25/13 22/26/13 19/27/13 18/28/13 21/29/13
f 16/21/14 21/22/14 18/23/14 17/24/14
f 13/21/15 19/22/15 22/23/15 14/24/15
f 20/22/16 15/21/16 14/24/16 22/23/16
f 27/21/12 23/24/12 29/23/12 28/22/12
f 25/21/11 26/24/11 31/23/11 30/22/11
f 30/25/13 31/29/13 28/28/13 29/27/13 32/26/13
f 26/21/14 27/24/14 28/23/14 31/22/14
f 23/21/15 24/24/15 32/23/15 29/22/15
f 30/22/17 32/23/17 24/24/17 25/21/17
f 37/21/11 33/24/11 39/23/11 38/22/11
f 35/21/12 36/24/12 41/23/12 40/22/12
f 40/25/13 41/29/13 38/28/13 39/27/13 42/26/13
f 36/21/15 37/24/15 38/23/15 41/22/15
f 33/21/14 34/24/14 42/23/14 39/22/14
f 40/22/18 42/23/18 34/24/18 35/21/18
f 47/21/12 48/22/12 49/23/12 43/24/12
f 45/21/11 50/22/11 51/23/11 46/24/11
f 50/25/13 52/26/13 49/27/13 48/28/13 51/29/13
f 46/21/15 51/22/15 48/23/15 47/24/15
f 43/21/14 49/22/14 52/23/14 44/24/14
f 50/22/19 45/21/19 44/24/19 52/23/19
o Cube.002
v 0.200000 0.400000 0.500000
v 0.200000 0.400000 0.400000
v 0.600000 0.400000 0.400000
v 0.600000 0.300000 0.400000
v 0.600000 0.400000 0.500000
v 0.600000 0.300000 0.500000
v 0.600000 0.400000 0.200000
v 0.700000 0.400000 0.200000
v 0.700000 0.400000 0.400000
v 0.700000 0.300000 0.400000
v -0.200000 0.400000 0.500000
v -0.200000 0.400000 0.400000
v -0.600000 0.400000 0.400000
v -0.600000 0.300000 0.400000
v -0.600000 0.400000 0.500000
v -0.600000 0.300000 0.500000
v -0.600000 0.400000 0.200000
v -0.700000 0.400000 0.200000
v -0.700000 0.400000 0.400000
v -0.700000 0.300000 0.400000
v 0.200000 0.400000 -0.500000
v 0.200000 0.400000 -0.400000
v 0.600000 0.400000 -0.400000
v 0.600000 0.300000 -0.400000
v 0.600000 0.400000 -0.500000
v 0.600000 0.300000 -0.500000
v 0.600000 0.400000 -0.200000
v 0.700000 0.400000 -0.200000
v 0.700000 0.400000 -0.400000
v 0.700000 0.300000 -0.400000
v -0.200000 0.400000 -0.500000
v -0.200000 0.400000 -0.400000
v -0.600000 0.400000 -0.400000
v -0.600000 0.300000 -0.400000
v -0.600000 0.400000 -0.500000
v -0.600000 0.300000 -0.500000
v -0.600000 0.400000 -0.200000
v -0.700000 0.400000 -0.200000
v -0.700000 0.400000 -0.400000
v -0.700000 0.300000 -0.400000
vn -0.0000 -0.0000 -1.0000
vn -0.0000 -0.0000 1.0000
vn 0.0234 0.3819 -0.9239
vn -0.2425 -0.9701 -0.0000
vn -0.0000 1.0000 -0.0000
vn 1.0000 -0.0000 -0.0000
vn -1.0000 -0.0000 -0.0000
vn -0.0000 -0.8944 -0.4472
vn -0.0234 0.3819 -0.9239
vn 0.2425 -0.9701 -0.0000
vn 0.0234 0.3819 0.9239
vn -0.0000 -0.8944 0.4472
vn -0.0234 0.3819 0.9239
vt 0.295835 0.078968
vt 0.310746 0.078968
vt 0.310746 0.075240
vt 0.252780 0.075455
vt 0.252780 0.065518
vt 0.258942 0.065518
vt 0.258942 0.075455
vt 0.258559 0.069928
vt 0.258559 0.075193
vt 0.268001 0.075193
vt 0.258559 0.065379
vt 0.252854 0.065379
vt 0.252854 0.075193
s 1
usemtl Material
f 54/30/20 55/31/20 56/32/20
f 58/32/21 57/31/21 53/30/22
f 54/33/23 56/34/23 58/35/23 53/36/23
f 55/31/24 54/30/24 53/30/24 57/31/24
f 60/37/25 61/38/25 62/39/25
f 56/38/26 55/39/26 59/37/26
f 60/38/27 62/40/27 56/41/27 59/42/27
f 61/41/24 60/42/24 59/38/24 55/40/24
f 64/30/20 66/32/20 65/31/20
f 68/32/21 63/30/28 67/31/21
f 64/33/29 63/36/29 68/35/29 66/34/29
f 65/31/24 67/31/24 63/30/24 64/30/24
f 70/37/26 72/39/26 71/38/26
f 66/38/25 69/37/25 65/39/25
f 70/38/27 69/42/27 66/41/27 72/40/27
f 71/41/24 65/40/24 69/38/24 70/42/24
f 74/30/21 76/32/21 75/31/21
f 78/32/20 73/30/30 77/31/20
f 74/33/23 73/36/23 78/35/23 76/34/23
f 75/31/24 77/31/24 73/30/24 74/30/24
f 80/37/25 82/39/25 81/38/25
f 76/38/26 79/37/26 75/39/26
f 80/38/31 79/42/31 76/41/31 82/40/31
f 81/41/24 75/40/24 79/38/24 80/42/24
f 84/30/21 85/31/21 86/32/21
f 88/32/20 87/31/20 83/30/32
f 84/33/29 86/34/29 88/35/29 83/36/29
f 85/31/24 84/30/24 83/30/24 87/31/24
f 90/37/26 91/38/26 92/39/26
f 86/38/25 85/39/25 89/37/25
f 90/38/31 92/40/31 86/41/31 89/42/31
f 91/41/24 90/42/24 89/38/24 85/40/24
o Vase
v 0.000032 0.510082 -0.146795
v -0.127061 0.510082 -0.073418
v -0.127061 0.510082 0.073335
v 0.000032 0.510082 0.146712
v 0.127124 0.510082 0.073335
v 0.127124 0.510082 -0.073418
v 0.000032 0.593380 -0.210865
v -0.182547 0.593380 -0.105453
v -0.182547 0.593380 0.105370
v 0.000032 0.593380 0.210782
v 0.182610 0.593380 0.105370
v 0.182610 0.593380 -0.105453
v 0.000032 0.669652 -0.210865
v -0.182547 0.669652 -0.105453
v -0.182547 0.669652 0.105370
v 0.000032 0.669652 0.210782
v 0.182610 0.669652 0.105370
v 0.182610 0.669652 -0.105453
v 0.000032 0.698756 -0.114754
v -0.099312 0.698756 -0.057398
v -0.099312 0.698756 0.057315
v 0.000032 0.698756 0.114671
v 0.099376 0.698756 0.057315
v 0.099376 0.698756 -0.057398
vn 0.4161 -0.5544 -0.7208
vn 0.4161 -0.5544 0.7208
vn -0.8323 -0.5544 -0.0000
vn 0.8323 -0.5544 -0.0000
vn -0.4161 -0.5544 0.7208
vn -0.4161 -0.5544 -0.7208
vn 1.0000 -0.0000 -0.0000
vn -0.5000 -0.0000 0.8660
vn -0.5000 -0.0000 -0.8660
vn 0.5000 -0.0000 -0.8660
vn 0.5000 -0.0000 0.8660
vn -1.0000 -0.0000 -0.0000
vn 0.1650 0.9440 -0.2858
vn 0.1650 0.9440 0.2858
vn -0.3301 0.9440 -0.0000
vn 0.3301 0.9440 -0.0000
vn -0.1650 0.9440 0.2858
vn -0.1650 0.9440 -0.2858
vt 0.285169 0.031314
vt 0.286356 0.036376
vt 0.277437 0.036319
vt 0.278624 0.031314
vt 0.277437 0.037693
vt 0.277437 0.032673
vt 0.286356 0.032673
vt 0.286356 0.037693
vt 0.277437 0.037693
vt 0.286356 0.037693
vt 0.286340 0.036376
vt 0.284290 0.031314
vt 0.279531 0.031314
vt 0.277451 0.036319
s 0
usemtl Material
f 93/43/33 99/44/33 104/45/33 98/46/33
f 97/43/34 103/44/34 102/45/34 96/46/34
f 95/43/35 101/44/35 100/45/35 94/46/35
f 98/46/36 104/45/36 103/44/36 97/43/36
f 96/46/37 102/45/37 101/44/37 95/43/37
f 94/46/38 100/45/38 99/44/38 93/43/38
f 104/47/39 110/48/39 109/49/39 103/50/39
f 102/51/40 108/48/40 107/49/40 101/52/40
f 100/51/41 106/48/41 105/49/41 99/50/41
f 99/50/42 105/49/42 110/48/42 104/47/42
f 103/50/43 109/49/43 108/48/43 102/51/43
f 101/52/44 107/49/44 106/48/44 100/51/44
f 105/53/45 111/54/45 116/55/45 110/56/45
f 109/53/46 115/54/46 114/55/46 108/56/46
f 107/53/47 113/54/47 112/55/47 106/56/47
f 110/56/48 116/55/48 115/54/48 109/53/48
f 108/56/49 114/55/49 113/54/49 107/53/49
f 106/56/50 112/55/50 111/54/50 105/53/50
o Leaves
v -0.177996 0.709050 0.111195
v -0.188107 0.732933 0.043915
v -0.198218 0.709050 -0.023364
v -0.053547 0.689924 0.023693
v -0.322667 0.668420 0.064137
v -0.260565 0.673984 0.123604
v -0.095427 0.709050 0.098787
v -0.127802 0.709050 -0.033947
v -0.268634 0.673984 -0.012782
v -0.179689 0.709050 -0.079801
v -0.136924 0.732933 -0.132715
v -0.094159 0.709050 -0.185630
v -0.031095 0.689924 -0.047185
v -0.242753 0.668420 -0.218246
v -0.244628 0.673984 -0.132284
v -0.114750 0.709050 -0.027318
v -0.038778 0.709050 -0.140872
v -0.149540 0.673984 -0.230388
v 0.026919 0.708200 0.205887
v -0.034639 0.730357 0.191924
v -0.096197 0.708200 0.177961
v -0.006713 0.690455 0.068808
v -0.062565 0.670503 0.315040
v 0.009783 0.675666 0.281433
v 0.044055 0.708200 0.130341
v -0.081583 0.708200 0.113534
v -0.110810 0.675666 0.242388
v 0.167661 0.721443 -0.025347
v 0.144745 0.737790 0.035340
v 0.137612 0.712738 0.096958
v 0.044882 0.656323 0.005006
v 0.280136 0.726065 0.067769
v 0.249246 0.718166 -0.005536
v 0.097663 0.694327 -0.044475
v 0.077916 0.689613 0.080646
v 0.208894 0.705470 0.113954
v 0.016856 0.722239 -0.196793
v 0.068406 0.739719 -0.157905
v 0.119912 0.713217 -0.124438
v -0.004549 0.687581 -0.060495
v 0.141263 0.692849 -0.267518
v 0.061566 0.697641 -0.263541
v -0.027886 0.714547 -0.134025
v 0.081755 0.706657 -0.070908
v 0.158037 0.687487 -0.181947
v 0.039381 0.762208 0.157192
v -0.020115 0.785896 0.137845
v -0.085568 0.778545 0.149561
v -0.030426 0.687082 0.041156
v -0.020663 0.788153 0.268881
v 0.040229 0.770668 0.220130
v 0.036793 0.725579 0.067196
v -0.087604 0.749919 0.067668
v -0.085780 0.781018 0.211076
v -0.080573 0.779951 -0.113389
v -0.018077 0.803639 -0.110497
v 0.041932 0.796288 -0.139136
v 0.009341 0.687082 -0.053998
v -0.051095 0.850323 -0.237973
v -0.100598 0.811534 -0.188627
v -0.062375 0.725579 -0.061298
v 0.057452 0.749919 -0.094712
v 0.024585 0.819869 -0.206707
vn 0.2050 0.9756 0.0783
vn -0.3527 0.8765 0.3276
vn 0.1799 0.9708 -0.1585
vn -0.4532 0.8565 -0.2469
vn 0.0808 0.9756 0.2041
vn -0.4799 0.8765 -0.0386
vn 0.2384 0.9708 0.0255
vn -0.1243 0.8565 -0.5009
vn 0.1475 0.9756 -0.1625
vn 0.1769 0.8765 0.4477
vn -0.0822 0.9708 -0.2252
vn -0.3948 0.8565 0.3324
vn -0.4945 0.8520 -0.1723
vn 0.1117 0.9767 -0.1834
vn -0.5587 0.8275 0.0558
vn -0.0074 0.9227 0.3854
vn -0.1975 0.9570 0.2123
vn 0.0088 0.9288 -0.3705
vn -0.0093 0.9343 0.3565
vn 0.4928 0.8687 -0.0501
vn 0.1173 0.8000 -0.5885
vn 0.3116 0.9488 -0.0529
vn 0.1790 0.7950 -0.5797
vn -0.1016 0.9945 -0.0248
vn -0.0051 0.5353 0.8447
vn -0.3077 0.8578 0.4117
vn 0.2279 0.5554 0.7997
vn 0.2536 0.9291 0.2692
vt 0.284607 0.043738
vt 0.281962 0.043738
vt 0.281962 0.040668
vt 0.284607 0.040668
vt 0.281962 0.043774
vt 0.284607 0.043774
s 0
usemtl Material
f 123/57/51 120/58/51 118/59/51 117/60/51
f 117/60/52 118/59/52 121/61/52 122/62/52
f 120/58/53 124/57/53 119/60/53 118/59/53
f 118/59/54 119/60/54 125/62/54 121/61/54
f 132/57/55 129/58/55 127/59/55 126/60/55
f 126/60/56 127/59/56 130/61/56 131/62/56
f 129/58/57 133/57/57 128/60/57 127/59/57
f 127/59/58 128/60/58 134/62/58 130/61/58
f 141/57/59 138/58/59 136/59/59 135/60/59
f 135/60/60 136/59/60 139/61/60 140/62/60
f 138/58/61 142/57/61 137/60/61 136/59/61
f 136/59/62 137/60/62 143/62/62 139/61/62
f 150/57/63 147/58/63 145/59/63 144/60/63
f 144/60/64 145/59/64 148/61/64 149/62/64
f 147/58/65 151/57/65 146/60/65 145/59/65
f 145/59/66 146/60/66 152/62/66 148/61/66
f 159/57/67 156/58/67 154/59/67 153/60/67
f 153/60/68 154/59/68 157/61/68 158/62/68
f 156/58/69 160/57/69 155/60/69 154/59/69
f 154/59/70 155/60/70 161/62/70 157/61/70
f 168/57/71 165/58/71 163/59/71 162/60/71
f 162/60/72 163/59/72 166/61/72 167/62/72
f 165/58/73 169/57/73 164/60/73 163/59/73
f 163/59/74 164/60/74 170/62/74 166/61/74
f 177/57/75 174/58/75 172/59/75 171/60/75
f 171/60/76 172/59/76 175/61/76 176/62/76
f 174/58/77 178/57/77 173/60/77 172/59/77
f 172/59/78 173/60/78 179/62/78 175/61/78
o Vase.001
v 0.096688 0.746638 -0.071980
v 0.049582 0.773149 -0.048557
v 0.042347 0.774098 0.009900
v 0.082217 0.748535 0.044933
v 0.129543 0.738879 0.019857
v 0.116357 0.753705 -0.035612
v 0.053807 0.705850 -0.016547
v 0.052605 0.706526 -0.015949
v 0.052420 0.706550 -0.014457
v 0.053438 0.705898 -0.013563
v 0.054640 0.705221 -0.014161
v 0.054824 0.705197 -0.015652
v 0.098454 0.738767 -0.105816
v 0.024226 0.780542 -0.068906
v 0.012825 0.782037 0.023208
v 0.075651 0.741756 0.078413
v 0.164378 0.734019 0.028289
v 0.143601 0.757382 -0.059117
vn -0.5643 0.8070 0.1743
vn -0.1159 0.8261 -0.5515
vn 0.9873 0.1038 0.1205
vn -0.5124 0.7954 0.3237
vn 0.7332 0.3248 -0.5974
vn 0.5745 0.3807 0.7246
vn 0.0768 0.9676 0.2404
vn 0.3556 0.9000 0.2520
vn 0.4099 0.8929 -0.1863
vn -0.1781 0.9707 -0.1611
vn 0.1989 0.9706 0.1354
vn 0.2670 0.9635 0.0174
vt 0.282428 0.049193
vt 0.282398 0.044925
vt 0.284832 0.044925
vt 0.284832 0.049135
vt 0.284802 0.049193
vt 0.280271 0.049135
s 0
usemtl Material
f 180/63/79 186/64/79 191/65/79 185/66/79
f 184/63/80 190/64/80 189/65/80 183/66/80
f 182/63/81 188/64/81 187/65/81 181/66/81
f 185/66/82 191/65/82 190/64/82 184/63/82
f 183/66/83 189/65/83 188/64/83 182/63/83
f 181/66/84 187/65/84 186/64/84 180/63/84
f 184/67/85 196/67/85 197/68/85 185/68/85
f 182/67/86 194/67/86 195/68/86 183/68/86
f 180/67/87 192/67/87 193/68/87 181/68/87
f 185/68/88 197/68/88 192/67/88 180/67/88
f 183/68/89 195/68/89 196/67/89 184/67/89
f 181/68/90 193/68/90 194/67/90 182/67/90
o Vase.002
v -0.098487 0.743567 0.026123
v -0.124257 0.729325 0.045744
v -0.120240 0.726366 0.080773
v -0.090453 0.737649 0.096180
v -0.064684 0.751891 0.076558
v -0.068701 0.754849 0.041530
v -0.076525 0.688577 0.040894
v -0.077341 0.688405 0.041505
v -0.077216 0.688344 0.042531
v -0.076275 0.688456 0.042945
v -0.075458 0.688629 0.042333
v -0.075583 0.688689 0.041308
v -0.098051 0.741596 0.005329
v -0.138658 0.719154 0.036248
v -0.132328 0.714492 0.091445
v -0.085392 0.732271 0.115723
v -0.044785 0.754713 0.084804
v -0.051115 0.759375 0.029607
vn -0.4710 0.0472 0.8809
vn -0.6827 0.4356 -0.5867
vn 0.6563 0.7544 -0.0122
vn -0.9873 0.1022 0.1220
vn 0.0675 0.7429 -0.6660
vn 0.4153 0.3886 0.8225
vn -0.1816 0.9779 0.1034
vn -0.4837 0.8038 0.3464
vn -0.5338 0.8407 -0.0909
vn -0.3087 0.9463 -0.0961
vn -0.2612 0.9113 0.3184
vn -0.6301 0.7644 0.1368
vt 0.283513 0.047853
vt 0.283525 0.045855
vt 0.281577 0.045855
vt 0.281577 0.047828
vt 0.284802 0.047077
vt 0.280271 0.047019
s 0
usemtl Material
f 198/69/91 204/70/91 209/71/91 203/72/91
f 202/69/92 208/70/92 207/71/92 201/72/92
f 200/69/93 206/70/93 205/71/93 199/72/93
f 203/72/94 209/71/94 208/70/94 202/69/94
f 201/72/95 207/71/95 206/70/95 200/69/95
f 199/72/96 205/71/96 204/70/96 198/69/96
f 202/73/97 214/73/97 215/74/97 203/74/97
f 200/73/98 212/73/98 213/74/98 201/74/98
f 198/73/99 210/73/99 211/74/99 199/74/99
f 203/74/100 215/74/100 210/73/100 198/73/100
f 201/74/101 213/74/101 214/73/101 202/73/101
f 199/74/102 211/74/102 212/73/102 200/73/102
o Vase.003
v -0.085242 0.749107 -0.074917
v -0.122026 0.737217 -0.055866
v -0.121260 0.720111 -0.016316
v -0.083710 0.714895 0.004182
v -0.046926 0.726785 -0.014869
v -0.047692 0.743891 -0.054419
v -0.082688 0.717033 -0.058170
v -0.095451 0.712907 -0.051560
v -0.095185 0.706972 -0.037838
v -0.082157 0.705163 -0.030726
v -0.069395 0.709288 -0.037336
v -0.069660 0.715223 -0.051058
v -0.083971 0.754035 -0.099850
v -0.141934 0.735299 -0.069829
v -0.140726 0.708345 -0.007508
v -0.081556 0.700125 0.024792
v -0.023593 0.718861 -0.005228
v -0.024801 0.745816 -0.067550
vn -0.3957 0.4001 0.8266
vn -0.4168 0.8707 -0.2613
vn 0.6162 0.7272 0.3026
vn -0.7470 0.6048 0.2761
vn 0.2648 0.9319 -0.2480
vn 0.2859 0.4613 0.8399
vn 0.1474 0.9088 0.3902
vn -0.2098 0.7842 0.5839
vn -0.2177 0.9595 0.1786
vn 0.0296 0.9803 0.1953
vn 0.0370 0.8141 0.5795
vn -0.3477 0.8581 0.3779
vt 0.275558 0.055583
vt 0.275587 0.051044
vt 0.271162 0.051044
vt 0.271162 0.055527
s 0
usemtl Material
f 216/75/103 222/76/103 227/77/103 221/78/103
f 220/75/104 226/76/104 225/77/104 219/78/104
f 218/75/105 224/76/105 223/77/105 217/78/105
f 221/78/106 227/77/106 226/76/106 220/75/106
f 219/78/107 225/77/107 224/76/107 218/75/107
f 217/78/108 223/77/108 222/76/108 216/75/108
f 220/75/109 232/75/109 233/78/109 221/78/109
f 218/75/110 230/75/110 231/78/110 219/78/110
f 216/75/111 228/75/111 229/78/111 217/78/111
f 221/78/112 233/78/112 228/75/112 216/75/112
f 219/78/113 231/78/113 232/75/113 220/75/113
f 217/78/114 229/78/114 230/75/114 218/75/114
o Vase.004
v -0.007877 0.745408 -0.001992
v -0.049468 0.745408 0.022021
v -0.049468 0.745408 0.070046
v -0.007877 0.745408 0.094059
v 0.033714 0.745408 0.070046
v 0.033714 0.745408 0.022021
v -0.007877 0.719909 0.037601
v -0.015180 0.719909 0.041817
v -0.015180 0.719909 0.050250
v -0.007877 0.719909 0.054466
v -0.000574 0.719909 0.050250
v -0.000574 0.719909 0.041817
v -0.006514 0.739272 -0.029643
v -0.072051 0.739272 0.008195
v -0.072051 0.739272 0.083872
v -0.006514 0.739272 0.121710
v 0.059024 0.739272 0.083872
v 0.059024 0.739272 0.008195
vn -0.2984 0.8024 0.5168
vn -0.2984 0.8024 -0.5168
vn 0.5967 0.8024 -0.0000
vn -0.5967 0.8024 -0.0000
vn 0.2984 0.8024 -0.5168
vn 0.2984 0.8024 0.5168
vn 0.2356 0.9718 -0.0000
vn -0.1275 0.9669 0.2209
vn -0.1275 0.9669 -0.2209
vn 0.1209 0.9703 -0.2094
vn 0.1209 0.9703 0.2094
vn -0.2622 0.9650 -0.0000
vt 0.291556 0.055581
vt 0.291586 0.052409
vt 0.288287 0.052409
vt 0.288287 0.055524
s 0
usemtl Material
f 234/79/115 240/80/115 245/81/115 239/82/115
f 238/79/116 244/80/116 243/81/116 237/82/116
f 236/79/117 242/80/117 241/81/117 235/82/117
f 239/82/118 245/81/118 244/80/118 238/79/118
f 237/82/119 243/81/119 242/80/119 236/79/119
f 235/82/120 241/81/120 240/80/120 234/79/120
f 238/79/121 250/79/121 251/82/121 239/82/121
f 236/79/122 248/79/122 249/82/122 237/82/122
f 234/79/123 246/79/123 247/82/123 235/82/123
f 239/82/124 251/82/124 246/79/124 234/79/124
f 237/82/125 249/82/125 250/79/125 238/79/125
f 235/82/126 247/82/126 248/79/126 236/79/126
o Vase.005
v 0.082280 0.748646 0.070576
v 0.044172 0.748500 0.090706
v 0.039204 0.726242 0.127274
v 0.072343 0.704129 0.143714
v 0.110450 0.704275 0.123584
v 0.115418 0.726533 0.087015
v 0.071342 0.709460 0.092668
v 0.068819 0.709450 0.094000
v 0.068490 0.707976 0.096421
v 0.070684 0.706512 0.097510
v 0.073207 0.706522 0.096177
v 0.073536 0.707996 0.093756
v 0.084793 0.756673 0.046559
v 0.024745 0.756444 0.078279
v 0.016915 0.721370 0.135903
v 0.069134 0.686526 0.161807
v 0.129182 0.686755 0.130087
v 0.137011 0.721828 0.072463
vn -0.0866 0.5075 0.8573
vn 0.0230 0.9985 0.0507
vn 0.7539 0.5107 0.4133
vn -0.2938 0.8337 0.4675
vn 0.5468 0.8369 0.0235
vn 0.4372 0.3460 0.8302
vn 0.4924 0.7122 0.5004
vn 0.1190 0.7010 0.7031
vn 0.1699 0.9292 0.3283
vn 0.4066 0.8529 0.3276
vn 0.3583 0.6366 0.6829
vn 0.0153 0.8532 0.5214
vt 0.275558 0.055583
vt 0.275587 0.051044
vt 0.271162 0.051044
vt 0.271162 0.055527
s 0
usemtl Material
f 252/83/127 258/84/127 263/85/127 257/86/127
f 256/83/128 262/84/128 261/85/128 255/86/128
f 254/83/129 260/84/129 259/85/129 253/86/129
f 257/86/130 263/85/130 262/84/130 256/83/130
f 255/86/131 261/85/131 260/84/131 254/83/131
f 253/86/132 259/85/132 258/84/132 252/83/132
f 256/83/133 268/83/133 269/86/133 257/86/133
f 254/83/134 266/83/134 267/86/134 255/86/134
f 252/83/135 264/83/135 265/86/135 253/86/135
f 257/86/136 269/86/136 264/83/136 252/83/136
f 255/86/137 267/86/137 268/83/137 256/83/137
f 253/86/138 265/86/138 266/83/138 254/83/138
o Plane
v -0.500000 0.511616 -0.000000
v 0.000000 0.511616 0.500000
v 0.000000 0.511616 -0.500000
v 0.500000 0.511616 -0.000000
v -0.500000 0.500000 -0.000000
v 0.000000 0.500000 0.500000
v 0.000000 0.500000 -0.500000
v 0.500000 0.500000 -0.000000
v -0.250000 0.511616 0.250000
v 0.250000 0.511616 -0.250000
v -0.250000 0.500000 0.250000
v 0.250000 0.500000 -0.250000
v -0.250000 0.511616 -0.250000
v 0.250000 0.511616 0.250000
v -0.250000 0.500000 -0.250000
v 0.250000 0.500000 0.250000
v 0.000000 0.511616 -0.000000
vn -0.0000 1.0000 -0.0000
vn -0.7071 -0.0000 0.7071
vn 0.7071 -0.0000 0.7071
vn -0.7071 -0.0000 -0.7071
vn 0.7071 -0.0000 -0.7071
vt 0.281706 0.030699
vt 0.291387 0.030699
vt 0.281706 0.025655
vt 0.291305 0.030699
vt 0.272482 0.030699
vt 0.291387 0.030699
s 0
usemtl Material
f 286/87/139 283/88/139 273/89/139 279/90/139
f 278/91/140 280/91/140 275/89/140 271/89/140
f 283/88/141 285/92/141 277/89/141 273/89/141
f 282/91/142 284/91/142 274/89/142 270/89/142
f 279/90/143 281/90/143 276/89/143 272/89/143
f 273/89/143 277/89/143 281/90/143 279/90/143
f 270/89/140 274/89/140 280/91/140 278/91/140
f 282/91/139 286/87/139 279/90/139 272/89/139
f 270/89/139 278/91/139 286/87/139 282/91/139
f 272/89/142 276/89/142 284/91/142 282/91/142
f 271/89/141 275/89/141 285/92/141 283/88/141
f 278/91/139 271/89/139 283/88/139 286/87/139
