# Blender 3.6.5
# www.blender.org
mtllib Inside_Poly_Barrel_01_Damaged.mtl
o Sphere_Sphere.003
v 0.002089 0.009667 -0.272725
v 0.001224 0.149841 -0.311593
v 0.228520 0.149841 -0.220330
v 0.201031 0.009667 -0.192845
v 0.001224 0.309890 -0.332029
v 0.243427 0.309890 -0.234780
v -0.007442 0.298342 0.321561
v 0.006413 0.024058 -0.241923
v 0.003927 0.001903 -0.256272
v 0.190868 0.001903 -0.181212
v 0.182887 0.024058 -0.171066
v 0.322669 0.149841 0.000000
v 0.283436 0.009667 0.000000
v 0.343751 0.309890 0.000000
v 0.268301 0.001903 0.000000
v 0.255985 0.024058 0.000000
v 0.201031 0.009667 0.192846
v 0.190868 0.001903 0.181212
v 0.182887 0.024058 0.171066
v 0.243427 0.309890 0.234780
v 0.228520 0.149841 0.220330
v 0.228520 0.472517 0.220330
v 0.001224 0.309890 0.332030
v 0.001224 0.149841 0.311594
v 0.002089 0.009667 0.272725
v 0.003927 0.001903 0.256272
v 0.006413 0.024058 0.241923
v -0.226072 0.149841 0.220330
v -0.196854 0.009667 0.192846
v -0.226072 0.472517 0.220330
v -0.240979 0.309890 0.234780
v -0.183015 0.001903 0.181212
v -0.170061 0.024058 0.171066
v 0.260704 0.424667 0.158334
v -0.341303 0.309890 0.000000
v -0.279258 0.009667 0.000000
v -0.260448 0.001903 0.000000
v -0.243158 0.024058 0.000000
v -0.320221 0.149841 0.000000
v -0.196854 0.009667 -0.192845
v -0.183015 0.001903 -0.181212
v -0.170061 0.024058 -0.171066
v -0.240979 0.309890 -0.234780
v -0.226072 0.149841 -0.220330
v 0.002172 0.027651 -0.248714
v 0.001241 0.155668 -0.282164
v 0.207948 0.155694 -0.199294
v 0.184144 0.027363 -0.175477
v 0.001224 0.309918 -0.302030
v 0.222432 0.309919 -0.213351
v -0.240896 0.471541 -0.176195
v 0.293259 0.155755 0.000000
v 0.259154 0.027283 0.000000
v 0.313752 0.309919 0.000000
v 0.184144 0.027363 0.175478
v 0.222432 0.309919 0.213351
v 0.207948 0.155694 0.199294
v 0.207915 0.466839 0.199279
v 0.001224 0.309918 0.302031
v 0.001241 0.155668 0.282165
v 0.002172 0.027651 0.248714
v -0.205498 0.155805 0.199328
v -0.180242 0.028038 0.175919
v -0.205467 0.466839 0.199279
v -0.219984 0.309919 0.213351
v -0.311304 0.309919 0.000000
v -0.255682 0.028219 0.000000
v -0.290843 0.155912 0.000000
v -0.180242 0.028038 -0.175918
v -0.219984 0.309919 -0.213351
v -0.205498 0.155805 -0.199328
v -0.197929 0.508960 0.192030
v -0.186206 0.514609 0.195351
v 0.003140 0.461204 0.312246
v 0.061268 0.472517 0.287485
v 0.001224 0.429437 0.317008
v -0.326596 0.423343 0.000000
v -0.323309 0.419261 -0.008931
v -0.017069 0.471541 -0.304370
v -0.017069 0.471541 -0.273659
v -0.016873 0.466911 -0.274867
v 0.171322 0.547937 0.223538
v 0.222404 0.504518 0.214402
v -0.207190 0.286468 -0.215463
v -0.213967 0.309919 -0.215764
v -0.206628 0.309919 -0.218706
v -0.007442 0.261761 -0.322404
v -0.007442 0.258312 -0.291908
v 0.000324 0.309918 -0.301669
v -0.009808 0.309918 -0.297607
v -0.009649 0.309890 -0.327663
v -0.043215 0.472517 0.293751
v -0.014496 0.335987 0.322439
v -0.003032 0.366211 0.323244
v -0.007442 0.360730 0.322162
v -0.039897 0.471540 0.295206
v 0.334201 0.354124 -0.008931
v 0.260704 0.438133 -0.155443
v -0.000908 0.299561 -0.299841
v 0.337203 0.360405 0.000000
v 0.249579 0.455550 -0.176195
v 0.171322 0.435285 -0.217947
v 0.209757 0.446931 -0.201064
v 0.229114 0.466041 -0.220905
v 0.221164 0.441108 -0.176195
v 0.171322 0.448538 -0.246309
v 0.003140 0.461204 0.282078
v 0.032439 0.466906 0.269610
v 0.001224 0.421008 0.287943
v -0.297308 0.416867 0.000000
v -0.294020 0.412786 -0.008931
v 0.171322 0.565775 0.189824
v -0.275588 0.429658 0.046834
v 0.193047 0.549910 0.184983
v -0.275588 0.453471 0.110229
v -0.214350 0.501048 0.158334
v -0.245126 0.466801 0.106641
v -0.259998 0.472517 0.140935
v 0.238405 0.472517 0.197198
v -0.249420 0.484150 0.158334
v -0.223010 0.408312 -0.176195
v -0.217993 0.331443 -0.211421
v -0.261008 0.435116 -0.079227
v -0.238868 0.466807 -0.121259
v -0.227868 0.466817 -0.146952
v -0.228226 0.481518 -0.137445
v -0.221256 0.497720 0.215661
v -0.225870 0.309890 -0.240846
v -0.220640 0.291761 -0.240632
v -0.236017 0.364019 -0.229970
v -0.242581 0.463857 -0.184322
v -0.039028 0.466903 0.265988
v 0.260704 0.379461 -0.102670
v 0.307846 0.325839 -0.008931
v 0.310847 0.332119 0.000000
v 0.261212 0.424689 0.158334
v 0.260987 0.424679 0.158863
v -0.220197 0.309890 -0.243124
v 0.260704 0.424912 0.159454
v -0.212210 0.367164 -0.239134
v -0.006257 0.309918 0.299032
v -0.203016 0.335716 -0.216883
v -0.010174 0.309918 0.297462
v 0.232138 0.466816 0.142697
v 0.216293 0.503057 0.158334
v -0.245254 0.470028 -0.176195
v -0.186206 0.514609 0.225310
v -0.007442 0.290962 0.296115
v -0.039897 0.471540 0.264508
v 0.001224 0.327309 -0.329840
v 0.017616 0.448244 -0.308062
v -0.004771 0.278621 -0.325629
v -0.022471 0.472517 -0.302079
v -0.143627 0.472517 -0.253433
v -0.001050 0.309890 -0.331116
v 0.260704 0.375914 0.103760
v 0.017616 0.437697 -0.279255
v 0.001224 0.316807 -0.301156
v -0.117435 0.466873 -0.234562
vn 0.1916 -0.0726 0.9788
vn 0.1892 -0.1728 0.9666
vn 0.5330 -0.1742 0.8280
vn 0.5398 -0.0732 0.8386
vn -0.8227 -0.5591 0.1024
vn -0.8599 -0.4780 0.1791
vn -0.7211 -0.4859 0.4939
vn -0.6552 -0.5793 0.4848
vn 0.3701 0.1158 0.9217
vn 0.3621 0.2362 0.9017
vn 0.2451 -0.8916 0.3808
vn 0.0847 -0.8974 0.4330
vn -0.1646 -0.6212 -0.7661
vn -0.5375 -0.5638 -0.6271
vn -0.5370 -0.5638 0.6274
vn -0.4682 -0.5018 0.7274
vn -0.1637 -0.5233 0.8363
vn -0.1646 -0.6212 0.7661
vn 0.5648 -0.6374 0.5241
vn 0.6628 -0.5955 0.4540
vn 0.7779 -0.6071 0.1620
vn 0.7383 -0.6653 0.1105
vn -0.9763 -0.0747 -0.2034
vn -0.8227 -0.0741 -0.5636
vn -0.8121 -0.1762 -0.5563
vn -0.9634 -0.1777 -0.2007
vn 0.9763 -0.0747 -0.2034
vn 0.9634 -0.1776 -0.2007
vn 0.8121 -0.1762 -0.5563
vn 0.8228 -0.0741 -0.5635
vn 0.9131 0.1184 -0.3902
vn 0.4544 -0.8858 0.0946
vn 0.3801 -0.8876 0.2603
vn -0.6552 -0.5793 -0.4848
vn -0.8227 -0.5591 -0.1025
vn 0.8924 0.2412 0.3813
vn -0.5398 -0.0732 0.8386
vn -0.5330 -0.1742 0.8280
vn -0.1892 -0.1728 0.9666
vn -0.1916 -0.0726 0.9788
vn -0.8924 0.2412 0.3813
vn -0.8034 -0.2274 0.5503
vn -0.9529 -0.2294 0.1985
vn -0.9212 -0.3384 0.1919
vn -0.7776 -0.3343 0.5326
vn 0.5276 -0.2232 0.8197
vn 0.1873 -0.2219 0.9569
vn 0.1822 -0.3170 0.9308
vn 0.5136 -0.3154 0.7980
vn -0.1637 -0.5233 -0.8363
vn -0.4682 -0.5018 -0.7274
vn 0.2452 -0.8915 -0.3808
vn 0.0847 -0.8974 -0.4330
vn -0.9131 0.1184 0.3902
vn 0.0015 -0.5936 -0.8047
vn 0.4020 -0.6575 -0.6372
vn 0.4431 -0.5743 -0.6884
vn 0.1606 -0.5492 -0.8201
vn 0.9131 0.1184 0.3902
vn 0.3701 0.1158 -0.9217
vn 0.1873 -0.2219 -0.9569
vn 0.5276 -0.2232 -0.8197
vn 0.5136 -0.3154 -0.7980
vn 0.1822 -0.3170 -0.9308
vn -0.1873 -0.2223 0.9568
vn -0.5274 -0.2245 0.8194
vn -0.5114 -0.3276 0.7945
vn -0.1819 -0.3213 0.9293
vn -0.3701 0.1158 -0.9217
vn -0.3701 0.1158 -0.9218
vn -0.3621 0.2362 0.9017
vn -0.5274 -0.2245 -0.8194
vn -0.1873 -0.2223 -0.9568
vn -0.1819 -0.3213 -0.9293
vn -0.5114 -0.3276 -0.7945
vn 0.5648 -0.6374 -0.5241
vn 0.7383 -0.6653 -0.1105
vn 0.7779 -0.6071 -0.1620
vn 0.6628 -0.5955 -0.4540
vn 0.8228 -0.0741 0.5635
vn 0.8121 -0.1762 0.5563
vn 0.9634 -0.1776 0.2007
vn 0.9763 -0.0747 0.2034
vn 0.8038 -0.2254 0.5506
vn 0.7828 -0.3157 0.5362
vn 0.9287 -0.3165 0.1934
vn 0.9534 -0.2270 0.1986
vn -0.3803 -0.9215 0.0792
vn -0.3269 -0.9182 0.2239
vn -0.8227 -0.0741 0.5636
vn -0.9763 -0.0747 0.2034
vn -0.9634 -0.1777 0.2007
vn -0.8121 -0.1762 0.5563
vn -0.3700 -0.1177 -0.9215
vn -0.9129 0.1188 -0.3904
vn -0.9131 0.1184 -0.3902
vn -0.9130 0.1186 -0.3903
vn -0.9529 -0.2294 -0.1985
vn -0.8034 -0.2274 -0.5503
vn -0.7776 -0.3343 -0.5326
vn -0.9212 -0.3384 -0.1919
vn -0.3803 -0.9215 -0.0792
vn -0.3269 -0.9182 -0.2239
vn 0.7828 -0.3157 -0.5362
vn 0.8038 -0.2254 -0.5506
vn 0.9534 -0.2270 -0.1986
vn 0.9287 -0.3165 -0.1934
vn 0.1892 -0.1728 -0.9666
vn 0.1916 -0.0726 -0.9788
vn 0.5398 -0.0732 -0.8386
vn 0.5330 -0.1742 -0.8280
vn -0.3701 0.1158 0.9217
vn -0.7211 -0.4859 -0.4939
vn -0.8599 -0.4780 -0.1791
vn 0.0015 -0.5937 0.8047
vn 0.1606 -0.5492 0.8201
vn 0.4431 -0.5743 0.6884
vn 0.4020 -0.6575 0.6372
vn -0.2219 -0.9121 -0.3448
vn -0.0818 -0.9048 -0.4179
vn -0.0818 -0.9048 0.4178
vn -0.2219 -0.9121 0.3447
vn 0.4544 -0.8858 -0.0946
vn 0.3801 -0.8876 -0.2603
vn -0.4027 0.2998 -0.8648
vn -0.3057 0.3011 -0.9033
vn -0.3249 -0.0712 -0.9431
vn -0.4162 -0.0693 -0.9066
vn -0.3695 -0.1169 -0.9218
vn -0.3653 -0.2247 -0.9034
vn -0.3654 -0.2247 -0.9033
vn -0.3654 -0.2247 -0.9034
vn 0.8955 -0.2261 0.3833
vn 0.8511 0.3115 0.4225
vn 0.8956 -0.0766 0.4382
vn 0.9352 -0.0747 0.3461
vn 0.8935 0.3101 0.3248
vn -0.8512 0.3115 0.4225
vn -0.8935 0.3101 0.3248
vn -0.9352 -0.0747 0.3461
vn -0.8957 -0.0766 0.4381
vn -0.9127 -0.1195 0.3907
vn -0.8955 -0.2262 -0.3833
vn 0.3694 0.1187 -0.9217
vn 0.8955 -0.2262 -0.3833
vn 0.8502 0.4223 -0.3144
vn 0.9417 0.0554 -0.3319
vn 0.8895 0.0526 -0.4538
vn 0.8134 0.4233 -0.3991
vn -0.3039 0.4058 -0.8619
vn -0.3192 0.0484 -0.9464
vn -0.4256 0.0500 -0.9035
vn -0.3780 0.4045 -0.8328
vn 0.9127 -0.1195 -0.3907
vn -0.9127 -0.1195 -0.3907
vn -0.3695 -0.1169 0.9218
vn -0.3780 0.4045 0.8328
vn -0.4256 0.0500 0.9035
vn -0.3192 0.0484 0.9464
vn -0.3039 0.4059 0.8619
vn 0.3629 -0.2208 0.9053
vn 0.3781 0.4077 -0.8312
vn 0.4266 0.0543 -0.9028
vn 0.3117 0.0514 -0.9488
vn 0.2980 0.4085 -0.8628
vn 0.3696 -0.1169 0.9218
vn 0.3695 -0.1169 0.9218
vn 0.3629 -0.2208 -0.9053
vn 0.2980 0.4085 0.8628
vn 0.3116 0.0514 0.9488
vn 0.4266 0.0543 0.9028
vn 0.3781 0.4077 0.8312
vn -0.8935 0.3101 -0.3248
vn -0.8512 0.3115 -0.4225
vn -0.8957 -0.0766 -0.4381
vn -0.9352 -0.0747 -0.3461
vn -0.8509 0.4148 -0.3223
vn -0.8204 0.4161 -0.3922
vn -0.8956 0.0437 -0.4427
vn -0.9388 0.0458 -0.3413
vn 0.4835 0.8754 -0.0000
vn 0.3482 0.8851 0.3089
vn -0.3419 -0.9314 -0.1247
vn -0.3251 -0.9323 -0.1585
vn 0.8935 0.3101 -0.3248
vn 0.9352 -0.0747 -0.3461
vn 0.8956 -0.0766 -0.4382
vn 0.8511 0.3115 -0.4225
vn 0.3694 0.1187 0.9217
vn 0.9127 -0.1195 0.3907
vn 0.8134 0.4233 0.3991
vn 0.8895 0.0526 0.4538
vn 0.9417 0.0554 0.3319
vn 0.8502 0.4223 0.3144
vn -0.9388 0.0458 0.3414
vn -0.8956 0.0437 0.4427
vn -0.8204 0.4161 0.3922
vn -0.8509 0.4148 0.3223
vn -0.4162 -0.0693 0.9066
vn -0.3249 -0.0712 0.9431
vn -0.3057 0.3011 0.9033
vn -0.4027 0.2998 0.8648
vn 0.3695 -0.1169 -0.9218
vn -0.0993 -0.9515 -0.2912
vn 0.0396 0.9084 0.4162
vn -0.2383 0.9306 0.2779
vn -0.3430 0.9393 -0.0000
vn -0.2382 0.9306 -0.2779
vn 0.0396 0.9084 -0.4162
vn 0.3482 0.8851 -0.3089
vn 0.4835 0.8753 -0.0000
vn -0.3251 -0.9323 0.1585
vn -0.0993 -0.9515 0.2913
vn 0.1192 -0.9616 0.2472
vn 0.2515 -0.9642 0.0840
vn 0.2342 -0.9642 -0.1244
vn 0.0837 -0.9610 -0.2635
vn -0.1339 -0.9502 -0.2815
vn 0.9483 -0.0071 0.3173
vn 0.9483 -0.0071 0.3172
vn -0.0728 0.0096 -0.9973
vn -0.9905 0.1313 0.0417
vn 0.2027 0.9167 -0.3443
vn -0.2825 0.7517 0.5959
vn 0.8610 0.4207 -0.2859
vn -0.1468 0.9122 0.3825
vn -0.1468 0.9123 0.3824
vn -0.1469 0.9121 0.3827
vn 0.2272 0.0094 -0.9738
vn -0.4074 0.7714 -0.4889
vn -0.4074 0.7713 -0.4889
vn 0.9990 0.0453 0.0034
vn -0.4183 0.8229 0.3845
vn -0.4112 0.8533 -0.3205
vn 0.8752 0.2476 -0.4156
vn -0.8708 0.0877 0.4838
vn -0.4341 0.9009 -0.0000
vn 0.9835 0.1810 -0.0035
vn 0.1746 0.9778 -0.1157
vn -0.3888 0.8957 0.2156
vn 0.8210 0.5697 -0.0385
vn 0.8209 0.5697 -0.0385
vn 0.8210 0.5697 -0.0386
vn 0.2824 0.9593 -0.0000
vn -0.9979 0.0623 -0.0159
vn -0.9979 0.0623 -0.0158
vn -0.7615 0.6427 0.0835
vn 0.8981 0.2541 -0.3591
vn -0.3218 0.6332 0.7039
vn -0.1897 0.9581 0.2146
vn -0.1897 0.9581 0.2145
vn -0.5831 0.5433 0.6040
vt 0.788555 0.335855
vt 0.788555 0.323449
vt 0.774187 0.323449
vt 0.774187 0.335855
vt 0.774187 0.346035
vt 0.774187 0.344476
vt 0.788555 0.344476
vt 0.788555 0.346035
vt 0.788436 0.334992
vt 0.788555 0.332569
vt 0.784759 0.335855
vt 0.774187 0.342623
vt 0.777067 0.340108
vt 0.784759 0.344476
vt 0.788555 0.347594
vt 0.774187 0.347594
vt 0.774187 0.335361
vt 0.777134 0.334561
vt 0.778549 0.333232
vt 0.787995 0.326824
vt 0.788555 0.327303
vt 0.787046 0.344476
vt 0.788555 0.342623
vt 0.774187 0.343017
vt 0.778137 0.343802
vt 0.779364 0.344476
vt 0.774187 0.313917
vt 0.788555 0.313917
vt 0.788555 0.332104
vt 0.779364 0.335855
vt 0.781421 0.334402
vt 0.784324 0.332207
vt 0.784358 0.332206
vt 0.784397 0.332224
vt 0.787046 0.335855
vt 0.774187 0.327303
vt 0.784845 0.334026
vt 0.788555 0.335361
vt 0.774187 0.324778
vt 0.775203 0.334003
vt 0.787910 0.323449
vt 0.775419 0.323449
vt 0.775617 0.327818
vt 0.779398 0.335855
vt 0.787057 0.335855
vt 0.787400 0.335781
vt 0.775083 0.323449
vt 0.774187 0.327578
vt 0.788420 0.323449
vt 0.788555 0.324778
vt 0.788555 0.343016
vt 0.776996 0.344476
vt 0.786456 0.342038
vt 0.788420 0.335855
vt 0.775083 0.335855
vt 0.775309 0.334450
vt 0.775419 0.335855
vt 0.787910 0.335855
vt 0.788027 0.332124
vt 0.788191 0.333431
vt 0.786171 0.335194
vt 0.788555 0.327578
vt 0.774187 0.332104
vt 0.774753 0.331792
vt 0.785667 0.335665
vt 0.776996 0.335855
vt 0.774186 0.332569
vt 0.774446 0.327746
vt 0.774714 0.327327
vt 0.775137 0.325440
vt 0.776784 0.335781
vt 0.786385 0.335855
vt 0.788555 0.332227
vt 0.788424 0.335404
vt 0.786385 0.344476
vt 0.775602 0.338206
vt 0.774187 0.339211
vt 0.782929 0.344476
vt 0.784782 0.344476
vt 0.784214 0.343544
vt 0.774187 0.334281
vt 0.788555 0.325205
vt 0.787942 0.324708
vt 0.781432 0.328948
vt 0.775983 0.333821
vt 0.784475 0.344476
vt 0.788555 0.339211
vt 0.785956 0.342180
vt 0.774927 0.335855
vt 0.774761 0.334330
vt 0.774672 0.335855
vt 0.776807 0.342307
vt 0.774187 0.341807
vt 0.780866 0.344476
vt 0.780866 0.335855
vt 0.788555 0.331909
vt 0.785245 0.332919
vt 0.774187 0.325205
vt 0.784475 0.335855
vt 0.781373 0.328668
vt 0.775301 0.333546
vt 0.774187 0.323993
vt 0.788555 0.334281
vt 0.785859 0.333360
vt 0.787297 0.344476
vt 0.787270 0.344183
vt 0.780306 0.344476
vt 0.788555 0.323993
vt 0.788496 0.323449
vt 0.775054 0.323449
vt 0.787838 0.323449
vt 0.787297 0.335855
vt 0.780306 0.335855
vt 0.775153 0.325488
vt 0.774187 0.325151
vt 0.774577 0.323449
vt 0.776985 0.344476
vt 0.788555 0.341807
vt 0.787772 0.341449
vt 0.777063 0.344182
vt 0.774577 0.335855
vt 0.788496 0.335855
vt 0.788413 0.335022
vt 0.787975 0.331704
vt 0.787838 0.335855
vt 0.775054 0.335855
vt 0.774889 0.333967
vt 0.774811 0.331586
vt 0.774187 0.331909
vt 0.788555 0.325151
vt 0.786572 0.331228
vt 0.784782 0.335855
vt 0.782929 0.335855
vt 0.779813 0.333350
vt 0.774186 0.332227
vt 0.774673 0.323449
vt 0.774927 0.323449
vt 0.776985 0.335855
vt 0.961564 0.586495
vt 0.961728 0.586495
vt 0.961728 0.586815
vt 0.994738 0.593086
vt 0.994738 0.590233
vt 0.989160 0.593086
vt 0.975785 0.591055
vt 0.976826 0.591362
vt 0.977080 0.591434
vt 0.977255 0.591415
vt 0.980470 0.590556
vt 0.980470 0.591691
vt 0.977363 0.592548
vt 0.976937 0.592598
vt 0.976202 0.592381
vt 0.975785 0.592256
vt 0.960288 0.577888
vt 0.960762 0.579962
vt 0.959227 0.579962
vt 0.959302 0.581029
vt 0.961728 0.575307
vt 0.961728 0.577783
vt 0.992665 0.605309
vt 0.982086 0.600579
vt 0.972994 0.600517
vt 0.972943 0.603717
vt 0.965926 0.612901
vt 0.965682 0.619348
vt 0.984343 0.637557
vt 0.987513 0.573428
vt 0.989841 0.573428
vt 0.989841 0.575560
vt 0.988295 0.574056
vt 0.992128 0.567726
vt 0.972472 0.582771
vt 0.985494 0.580200
vt 0.993666 0.572555
vt 0.994738 0.587617
vt 0.989869 0.573428
vt 0.993794 0.579309
vt 0.993868 0.579962
vt 0.992424 0.579962
vt 0.992180 0.579092
vt 0.974668 0.591279
vt 0.975785 0.592256
vt 0.974725 0.592463
vt 0.971099 0.591546
vt 0.971099 0.590335
vt 0.971200 0.590383
vt 0.970549 0.574936
vt 0.980104 0.577763
vt 0.987601 0.579331
vt 0.995338 0.575135
vt 0.979014 0.567677
vt 0.977575 0.572461
vt 0.962135 0.573740
vt 0.963100 0.573428
vt 0.964939 0.573428
vt 0.962307 0.574537
vt 0.961728 0.577783
vt 0.963030 0.585025
vt 0.964414 0.580798
vt 0.968144 0.578113
vt 0.976118 0.582859
vt 0.978567 0.584571
vt 0.981663 0.586475
vt 0.979297 0.595810
vt 0.978045 0.595204
vt 0.969100 0.588783
vt 0.966414 0.588975
vt 0.982870 0.602756
vt 0.995574 0.612574
vt 0.975885 0.596078
vt 0.970083 0.591462
vt 0.966414 0.588098
vt 0.966414 0.571911
vt 0.965799 0.572047
vt 0.964577 0.571078
vt 0.966414 0.570682
vt 0.971099 0.569075
vt 0.971099 0.567817
vt 0.974766 0.566571
vt 0.975785 0.566571
vt 0.975785 0.567210
vt 0.975324 0.567278
vt 0.971210 0.568982
vt 0.989841 0.573478
vt 0.989869 0.573428
vt 0.989841 0.573382
vt 0.979495 0.574811
vt 0.979320 0.571059
vt 0.984956 0.579239
vt 0.989717 0.568890
vt 0.976556 0.566728
vt 0.972577 0.572889
vt 0.985155 0.570755
vt 0.987371 0.571469
vt 0.988514 0.571951
vt 0.989841 0.573382
vt 0.985946 0.572591
vt 0.985155 0.572137
vt 0.970993 0.567876
vt 0.976264 0.567233
vt 0.977737 0.566571
vt 0.979577 0.566850
vt 0.980470 0.567118
vt 0.980470 0.568355
vt 0.979400 0.567912
vt 0.961728 0.582707
vt 0.961331 0.585335
vt 0.961524 0.586136
vt 0.962228 0.585905
vt 0.963261 0.586495
vt 0.989841 0.583623
vt 0.989841 0.585684
vt 0.989258 0.586495
vt 0.987768 0.586495
vt 0.968216 0.568416
vt 0.958783 0.580222
vt 0.960863 0.580222
vt 0.967177 0.582182
vt 0.967178 0.573746
s 1
usemtl Material
f 23/1/1 24/2/2 21/3/3 20/4/4
f 15/5/5 16/6/6 11/7/7 10/8/8
f 74/9/9 76/10/9 23/2/9 20/3/9 22/4/9 75/11/9
f 83/12/10 82/13/10 75/14/10 22/6/10
f 17/15/11 25/16/12 26/5/13 18/8/14
f 10/5/15 11/6/16 8/7/17 9/8/18
f 41/5/19 42/6/20 38/7/21 37/8/22
f 35/4/23 43/1/24 44/2/25 39/3/26
f 14/1/27 12/2/28 3/3/29 6/4/30
f 14/2/31 6/3/31 104/17/31 101/18/31 98/19/31 97/20/31 100/21/31
f 13/15/32 17/16/33 18/5/34 15/8/35
f 22/7/36 119/22/36 83/23/36
f 31/1/37 28/2/38 24/3/39 23/4/40
f 30/6/41 127/24/41 120/25/41 118/26/41
f 28/2/42 39/3/43 36/27/44 29/28/45
f 21/2/46 24/3/47 25/27/48 17/28/49
f 18/8/14 26/5/13 27/6/50 19/7/51
f 4/16/52 10/5/15 9/8/18 1/15/53
f 77/29/54 35/2/54 31/3/54 30/4/54 118/30/54 115/31/54
f 26/8/55 32/5/56 33/6/57 27/7/58
f 136/32/59 137/33/59 139/34/59 119/35/59 22/1/59 20/2/59 14/3/59 100/36/59
f 106/37/60 104/38/60 6/2/60 5/3/60 150/39/60 151/40/60
f 2/2/61 3/3/62 4/27/63 1/28/64
f 24/2/65 28/3/66 29/27/67 25/28/68
f 91/41/69 138/42/69 140/43/69 154/44/69 153/45/69 79/46/69
f 128/47/69 43/3/69 130/48/69
f 5/2/70 155/49/70 150/50/70
f 127/51/71 30/7/71 92/52/71 147/53/71
f 44/2/72 2/3/73 1/27/74 40/28/75
f 32/8/76 37/5/77 38/6/78 33/7/79
f 20/1/80 21/2/81 12/3/82 14/4/83
f 21/3/84 17/27/85 13/28/86 12/2/87
f 36/16/88 37/5/77 32/8/76 29/15/89
f 31/4/90 35/1/91 39/2/92 28/3/93
f 155/54/94 5/1/94 2/2/94 44/3/94 43/4/94 128/55/94 129/56/94 138/57/94 91/58/94 87/59/94 152/60/94
f 131/61/95 130/62/96 43/2/96 35/3/97 77/63/96 78/64/96 146/65/97
f 39/2/98 44/3/99 40/27/100 36/28/101
f 36/15/102 40/16/103 41/5/19 37/8/22
f 4/28/104 3/2/105 12/3/106 13/27/107
f 2/3/108 5/4/109 6/1/110 3/2/111
f 92/66/112 30/1/112 31/2/112 23/3/112 76/67/112 94/68/112 95/69/112 93/70/112 96/71/112
f 18/5/34 19/6/113 16/7/114 15/8/35
f 9/5/115 8/6/116 42/7/117 41/8/118
f 40/15/119 1/16/120 9/5/115 41/8/118
f 25/15/121 29/16/122 32/5/56 26/8/55
f 13/16/123 15/5/5 10/8/8 4/15/124
f 59/1/125 56/4/126 57/3/127 60/2/128
f 108/72/129 58/4/129 56/3/129 59/2/129 109/73/129 107/74/129
f 58/6/130 108/75/131 112/76/132 114/77/132
f 124/78/133 125/79/133 126/80/133
f 66/4/134 68/3/135 71/2/136 70/1/137
f 54/1/138 50/4/139 47/3/140 52/2/141
f 103/81/142 50/3/142 54/2/142 135/82/142 134/83/142 133/84/142 105/85/142
f 144/86/143 58/7/143 114/87/143 145/88/143
f 59/4/144 60/3/144 62/2/144 65/1/144 143/89/144 148/90/144 141/91/144
f 116/92/145 72/93/145 64/6/145 117/94/145
f 62/2/146 63/28/147 67/27/148 68/3/149
f 57/2/150 55/28/151 61/27/152 60/3/153
f 117/95/154 64/4/154 65/3/154 66/2/154 110/96/154 113/97/154
f 135/98/155 54/3/155 56/2/155 58/1/155 144/99/155 156/100/155
f 157/101/156 158/102/156 49/3/156 50/2/156 103/103/156 102/104/156
f 46/2/157 45/28/158 48/27/159 47/3/160
f 81/105/161 80/106/161 159/107/161
f 60/2/162 61/28/163 63/27/164 62/3/165
f 49/2/166 158/108/166 89/109/166
f 86/110/167 90/111/167 81/112/167 159/113/167 142/114/167
f 122/115/167 70/3/167 85/116/167
f 132/117/168 64/7/168 72/118/168 73/119/168 149/120/168
f 71/2/169 69/28/170 45/27/171 46/3/172
f 56/1/173 54/4/174 52/3/175 57/2/176
f 57/3/177 52/2/178 53/28/179 55/27/180
f 38/7/181 42/6/182 69/16/183 67/15/184
f 65/4/185 62/3/186 68/2/187 66/1/188
f 85/121/189 70/4/189 71/3/189 46/2/189 49/1/189 89/122/189 99/123/189 88/124/189 90/125/189 86/126/189 84/127/189
f 111/128/190 110/129/190 66/3/190 70/2/190 122/130/190 121/131/190 125/132/190 124/133/190 123/134/190
f 68/2/191 67/28/192 69/27/193 71/3/194
f 48/28/195 53/27/196 52/3/197 47/2/198
f 46/3/199 47/2/200 50/1/201 49/4/202
f 109/135/203 59/3/203 141/136/203
f 143/137/203 65/2/203 64/1/203 132/138/203
f 69/15/204 42/7/182 8/7/205 11/7/206 16/7/207 19/7/208 27/7/209 33/7/210 38/6/211 67/16/212 63/16/213 61/16/214 55/16/215 53/16/216 48/16/217 45/16/218
s 0
f 146/139/219 51/140/220 131/141/219
f 7/142/221 93/143/221 95/144/221
f 88/145/222 99/146/222 89/147/222 158/148/222 157/149/222 151/150/222 150/151/222 155/152/222 152/153/222 87/154/222
f 110/155/223 111/156/223 78/157/223 77/158/223 115/159/223 113/160/223
f 80/161/224 79/162/224 153/163/224 154/164/224 140/165/224 142/166/224 159/167/224
f 145/168/225 34/169/225 156/170/225 144/171/225
f 106/172/226 151/173/227 157/174/228 102/175/228
f 95/144/229 94/176/229 7/142/229
f 34/169/230 136/177/230 100/178/230 97/179/230 134/180/231 135/181/230 156/170/230
f 90/182/232 88/145/232 87/183/232 91/184/232 79/185/232 80/186/232 81/187/232
f 104/188/233 106/189/233 102/190/233 103/191/233 105/192/233 101/193/233
f 115/159/234 118/194/234 120/195/234 116/196/234 117/197/234 113/198/234
f 131/199/235 51/200/235 121/201/235 122/202/235 85/203/235 84/204/235 129/205/235 128/206/235 130/207/235
f 140/208/236 138/209/236 129/210/236 84/211/236 86/212/236 142/213/236
f 73/214/237 72/215/237 116/196/237 120/195/237 127/216/237 147/217/237
f 149/218/238 96/219/238 93/220/238 7/221/238 148/222/238 143/223/238 132/224/238
f 137/225/239 136/226/239 34/169/239 139/227/239
f 74/228/240 75/229/240 82/230/240 112/231/240 108/232/240 107/233/240
f 82/234/241 83/235/242 119/236/243 139/237/242 34/169/241 145/168/241 114/238/241 112/239/242
f 92/240/244 96/219/244 149/218/244 73/214/244 147/217/244
f 141/241/245 148/222/246 7/221/246 94/242/246 76/243/246 74/244/246 107/245/246 109/246/245
f 51/140/247 123/247/247 124/248/247 126/249/247
f 125/250/248 121/251/248 51/140/248 126/249/248
f 133/252/249 98/253/249 101/254/249 105/255/249
f 146/256/250 78/257/250 111/258/250 123/259/250 51/260/251
f 134/180/252 97/179/252 98/253/252 133/252/252
o Sphere_Sphere.001
v -0.180461 0.039539 0.184473
v -0.000000 0.038627 -0.247979
v -0.175348 0.038627 -0.175348
v -0.247979 0.038627 0.000000
v -0.175348 0.038627 0.175348
v 0.000000 0.038627 0.247979
v 0.175348 0.038627 0.175348
v 0.247979 0.038627 0.000000
v 0.175348 0.038627 -0.175348
v -0.172179 0.011977 0.176007
v -0.000000 0.008627 -0.247979
v -0.175348 0.008627 -0.175348
v -0.247979 0.008627 0.000000
v -0.175348 0.008627 0.175348
v 0.000000 0.008627 0.247979
v 0.175348 0.008627 0.175348
v 0.247979 0.008627 0.000000
v 0.175348 0.008627 -0.175348
vn -0.0000 1.0000 -0.0000
vn -0.0000 -1.0000 -0.0000
vn -0.3827 -0.0000 -0.9239
vn -0.9239 -0.0000 -0.3827
vn -0.9239 -0.0000 0.3827
vn -0.3827 -0.0000 0.9239
vn 0.3827 -0.0000 0.9239
vn 0.9239 -0.0000 0.3827
vn 0.9239 -0.0000 -0.3827
vn 0.3827 -0.0000 -0.9239
vt 0.776697 0.369540
vt 0.767469 0.363674
vt 0.767511 0.355410
vt 0.776773 0.349589
vt 0.785038 0.349621
vt 0.794266 0.355487
vt 0.794223 0.363751
vt 0.784961 0.369572
s 0
usemtl Material
f 162/261/253 163/262/253 164/263/253 165/264/253 166/265/253 167/266/253 168/267/253 161/268/253
f 171/261/254 170/268/254 177/267/254 176/266/254 175/265/254 174/264/254 173/263/254 172/262/254
f 162/261/255 161/268/255 170/268/255 171/261/255
f 163/262/256 162/261/256 171/261/256 172/262/256
f 164/263/257 163/262/257 172/262/257 173/263/257
f 165/264/258 164/263/258 173/263/258 174/264/258
f 166/265/259 165/264/259 174/264/259 175/265/259
f 167/266/260 166/265/260 175/265/260 176/266/260
f 168/267/261 167/266/261 176/266/261 177/267/261
f 161/268/262 168/267/262 177/267/262 170/268/262
