# Blender v3.0.1 OBJ File: 'Inside_Poly_Wall_Deco_04.blend'
# www.blender.org
mtllib Inside_Poly_Wall_Deco_04.mtl
o Cube
v 1.250000 1.000000 -0.500000
v 1.250000 0.000000 -0.500000
v -1.240000 1.000000 -0.500000
v -1.240000 0.000000 -0.500000
v 1.250000 1.000000 -0.300000
v 1.250000 0.000000 -0.300000
v -1.240000 1.000000 -0.300000
v -1.240000 0.000000 -0.300000
v -1.240000 0.900000 -0.300000
v 1.250000 0.900000 -0.300000
v 1.150000 0.900000 -0.300000
v -1.140000 0.900000 -0.300000
v -1.240000 0.100000 -0.300000
v 1.250000 0.100000 -0.300000
v 1.150000 0.100000 -0.300000
v -1.140000 0.100000 -0.300000
v -1.140000 0.900000 -0.350000
v 1.150000 0.150000 -0.350000
v 1.150000 0.100000 -0.350000
v -1.140000 0.150000 -0.350000
v -1.140000 0.100000 -0.350000
v -1.090000 0.150000 -0.350000
v 1.150000 0.900000 -0.350000
v 1.100000 0.150000 -0.350000
v 1.150000 0.850000 -0.350000
v -1.140000 0.850000 -0.350000
v -1.090000 0.850000 -0.350000
v 1.100000 0.850000 -0.350000
v 1.100000 0.850000 -0.400000
v -1.090000 0.850000 -0.400000
v -1.090000 0.150000 -0.400000
v 1.100000 0.150000 -0.400000
vt 0.741449 0.989095
vt 0.737415 0.989095
vt 0.737415 0.985600
vt 0.737415 0.950212
vt 0.737415 0.946717
vt 0.741449 0.946717
vt 0.639102 0.945922
vt 0.634759 0.945922
vt 0.634759 0.941580
vt 0.741449 0.941580
vt 0.741449 0.945922
vt 0.737107 0.945922
vt 0.641645 0.941838
vt 0.641515 0.946137
vt 0.734693 0.945974
vt 0.734822 0.941838
vt 0.634759 0.994232
vt 0.634759 0.989890
vt 0.639102 0.989890
vt 0.737107 0.989890
vt 0.741449 0.989890
vt 0.741449 0.994232
vt 0.741362 0.989890
vt 0.737107 0.989890
vt 0.737107 0.987718
vt 0.737107 0.948093
vt 0.737107 0.945922
vt 0.741362 0.945922
vt 0.634829 0.945922
vt 0.634709 0.948093
vt 0.634829 0.987718
vt 0.634829 0.989890
vt 0.634759 0.985600
vt 0.634759 0.989095
vt 0.638777 0.989095
vt 0.638777 0.946717
vt 0.634759 0.946717
vt 0.634759 0.950212
vt 0.737107 0.994196
vt 0.639102 0.994203
vt 0.639102 0.989890
vt 0.737107 0.942385
vt 0.639102 0.942016
vt 0.638686 0.988936
vt 0.638589 0.986378
vt 0.641170 0.986378
vt 0.735038 0.986378
vt 0.737620 0.986378
vt 0.737717 0.988936
vt 0.737620 0.948582
vt 0.735038 0.948582
vt 0.641273 0.945510
vt 0.734936 0.945510
vt 0.734936 0.948093
vt 0.641273 0.948093
vt 0.641170 0.948582
vt 0.638589 0.948582
vt 0.638589 0.945922
vt 0.737620 0.945922
vt 0.733902 0.949644
vt 0.733902 0.984876
vt 0.642565 0.984876
vt 0.642565 0.949644
vt 0.734936 0.948093
vt 0.734936 0.987589
vt 0.737713 0.987589
vt 0.737713 0.948093
vt 0.641273 0.987589
vt 0.641273 0.948093
vt 0.638431 0.948093
vt 0.638431 0.987589
vt 0.641313 0.986253
vt 0.641313 0.988939
vt 0.734976 0.988939
vt 0.641515 0.989268
vt 0.641515 0.994232
vt 0.734693 0.994232
vt 0.734693 0.989268
vn 1.0000 0.0000 0.0000
vn 0.0000 0.0000 1.0000
vn 0.0000 -1.0000 0.0000
vn -1.0000 0.0000 0.0000
vn 0.0000 1.0000 0.0000
usemtl Material
s off
f 1/1/1 5/2/1 10/3/1 14/4/1 6/5/1 2/6/1
f 16/7/2 13/8/2 8/9/2 6/10/2 14/11/2 15/12/2
f 8/13/3 4/14/3 2/15/3 6/16/3
f 7/17/2 9/18/2 12/19/2 11/20/2 10/21/2 5/22/2
f 11/23/4 23/24/4 25/25/4 18/26/4 19/27/4 15/28/4
f 12/19/1 16/7/1 21/29/1 20/30/1 26/31/1 17/32/1
f 9/33/4 7/34/4 3/35/4 4/36/4 8/37/4 13/38/4
f 11/39/3 12/40/3 17/41/3 23/24/3
f 16/7/2 12/19/2 9/18/2 13/8/2
f 16/7/5 15/12/5 19/42/5 21/43/5
f 14/11/2 10/21/2 11/20/2 15/12/2
f 17/44/2 26/45/2 27/46/2 28/47/2 25/48/2 23/49/2
f 18/50/2 25/48/2 28/47/2 24/51/2
f 22/52/5 24/53/5 32/54/5 31/55/5
f 22/56/2 27/46/2 26/45/2 20/57/2
f 24/51/2 22/56/2 20/57/2 21/58/2 19/59/2 18/50/2
f 32/60/2 29/61/2 30/62/2 31/63/2
f 24/64/4 28/65/4 29/66/4 32/67/4
f 27/68/1 22/69/1 31/70/1 30/71/1
f 28/47/3 27/72/3 30/73/3 29/74/3
f 3/75/5 7/76/5 5/77/5 1/78/5
