# Blender v3.0.1 OBJ File: 'Inside_Poly_Bed_02.blend'
# www.blender.org
mtllib Inside_Poly_Bed_02_Without_Blanket.mtl
o Cube.001
v -0.470000 0.130000 1.300000
v -0.470000 0.440000 1.300000
v -0.470000 0.440000 -0.300000
v -0.470000 0.130000 -0.300000
v 0.470000 0.440000 -0.300000
v 0.470000 0.130000 -0.300000
v 0.470000 0.130000 1.300000
v 0.420000 0.500000 1.260000
v 0.420000 0.500000 -0.250000
v -0.430000 0.500000 -0.250000
v -0.430000 0.500000 1.260000
v 0.470000 0.440000 1.300000
v -0.460000 0.470000 -0.290000
v -0.460000 0.470000 1.290000
v 0.460000 0.470000 1.290000
v 0.460000 0.470000 -0.290000
vt 0.528163 0.660000
vt 0.528163 0.660000
vt 0.528163 0.660000
vt 0.528163 0.660000
vt 0.528163 0.660000
vt 0.528163 0.660000
vt 0.528163 0.660000
vt 0.528163 0.660000
vt 0.528163 0.660000
vt 0.528163 0.660000
vt 0.528163 0.660000
vt 0.528163 0.660000
vt 0.528163 0.660000
vt 0.528163 0.660000
vt 0.528163 0.660000
vt 0.528163 0.660000
vn -1.0000 -0.0000 0.0000
vn 0.0000 1.0000 0.0000
vn 0.0000 0.0000 1.0000
vn -0.0137 0.8908 0.4542
vn 0.0100 0.4541 0.8909
vn 0.0025 0.4540 0.8910
vn -0.0034 0.8910 0.4540
vn -0.0004 0.4608 -0.8875
vn 0.0003 0.1639 -0.9865
vn -0.0003 0.1639 -0.9865
vn 0.0004 0.4608 -0.8875
vn 0.3241 0.9458 0.0228
vn 0.8175 0.5757 -0.0167
vn 0.8178 0.5755 0.0047
vn 0.3234 0.9462 -0.0065
vn 0.8875 0.4608 -0.0004
vn 0.9865 0.1639 0.0003
vn 0.9865 0.1639 -0.0003
vn 0.8875 0.4608 0.0004
vn -0.4540 0.8910 0.0034
vn -0.8910 0.4540 -0.0025
vn -0.8909 0.4541 -0.0100
vn -0.4542 0.8908 0.0137
vn 0.0065 0.9462 -0.3234
vn -0.0047 0.5755 -0.8178
vn 0.0167 0.5757 -0.8175
vn -0.0228 0.9458 -0.3241
vn -0.8875 0.4608 0.0004
vn -0.9865 0.1639 -0.0003
vn -0.9865 0.1639 0.0003
vn -0.8875 0.4608 -0.0004
vn 1.0000 0.0000 -0.0000
vn 0.0004 0.4608 0.8875
vn -0.0003 0.1639 0.9865
vn 0.0003 0.1639 0.9865
vn -0.0004 0.4608 0.8875
usemtl Material
s 1
f 1/1/1 2/2/1 3/3/1 4/4/1
f 8/5/2 9/6/2 10/7/2 11/8/2
f 7/9/3 12/10/3 2/2/3 1/1/3
f 11/8/4 14/11/5 15/12/6 8/5/7
f 16/13/8 5/14/9 3/3/10 13/15/11
f 8/5/12 15/12/13 16/13/14 9/6/15
f 15/12/16 12/10/17 5/14/18 16/13/19
f 10/7/20 13/15/21 14/11/22 11/8/23
f 9/6/24 16/13/25 13/15/26 10/7/27
f 13/15/28 3/3/29 2/2/30 14/11/31
f 6/16/32 5/14/32 12/10/32 7/9/32
f 14/11/33 2/2/34 12/10/35 15/12/36
o Cube.002
v 0.350000 -0.000000 1.100000
v 0.350000 0.130000 1.100000
v 0.470000 0.130000 1.100000
v 0.470000 0.000000 1.100000
v 0.470000 0.130000 1.300000
v 0.470000 0.000000 1.300000
v 0.350000 0.130000 1.300000
v 0.350000 0.000000 1.300000
v -0.470000 0.000000 1.100000
v -0.470000 0.130000 1.100000
v -0.360000 0.130000 1.100000
v -0.360000 0.000000 1.100000
v -0.360000 0.130000 1.300000
v -0.360000 0.000000 1.300000
v -0.470000 0.130000 1.300000
v -0.470000 0.000000 1.300000
v 0.350000 0.480000 -0.330000
v 0.350000 0.960000 -0.500000
v 0.350000 0.720000 -0.330000
v 0.350000 0.960000 -0.330000
v 0.350000 0.720000 -0.500000
v 0.350000 0.480000 -0.500000
v -0.360000 0.960000 -0.330000
v -0.360000 0.480000 -0.330000
v -0.360000 0.960000 -0.500000
v -0.360000 0.480000 -0.500000
v -0.360000 0.720000 -0.330000
v -0.360000 0.720000 -0.500000
v 0.470000 0.720000 -0.500000
v -0.480000 0.720000 -0.500000
v -0.480000 0.480000 -0.500000
v -0.480000 0.960000 -0.500000
v 0.470000 0.480000 -0.500000
v 0.470000 0.960000 -0.500000
v 0.470000 0.130000 -0.500000
v 0.350000 0.130000 -0.500000
v -0.360000 0.130000 -0.500000
v 0.350000 0.130000 -0.330000
v -0.360000 0.130000 -0.330000
v -0.480000 0.130000 -0.500000
v 0.470000 0.000000 -0.500000
v 0.350000 -0.000000 -0.500000
v -0.360000 0.000000 -0.500000
v -0.480000 0.000000 -0.500000
v 0.350000 0.960000 -0.300000
v 0.350000 0.720000 -0.300000
v -0.360000 0.720000 -0.300000
v -0.360000 0.480000 -0.300000
v 0.470000 0.960000 -0.300000
v 0.470000 0.720000 -0.300000
v 0.350000 0.480000 -0.300000
v -0.360000 0.960000 -0.300000
v -0.480000 0.720000 -0.300000
v -0.480000 0.480000 -0.300000
v -0.480000 0.960000 -0.300000
v 0.470000 0.480000 -0.300000
v -0.480000 0.130000 -0.300000
v -0.360000 0.130000 -0.300000
v 0.350000 0.130000 -0.300000
v 0.470000 0.130000 -0.300000
v -0.480000 0.000000 -0.300000
v -0.360000 0.000000 -0.300000
v 0.350000 -0.000000 -0.300000
v 0.470000 0.000000 -0.300000
vt 0.696865 0.669793
vt 0.696865 0.676558
vt 0.741788 0.676558
vt 0.741788 0.669793
vt 0.687716 0.676592
vt 0.687716 0.664484
vt 0.696315 0.664484
vt 0.696315 0.676592
vt 0.696315 0.676592
vt 0.687716 0.676592
vt 0.687716 0.664484
vt 0.696315 0.664484
vt 0.736064 0.676623
vt 0.736064 0.669793
vt 0.741788 0.669793
vt 0.741788 0.676623
vt 0.696315 0.676592
vt 0.696315 0.664484
vt 0.687716 0.664484
vt 0.687716 0.676592
vt 0.741825 0.669489
vt 0.695984 0.669489
vt 0.695984 0.676761
vt 0.741825 0.676761
vt 0.741788 0.669793
vt 0.741788 0.676558
vt 0.696865 0.676558
vt 0.696865 0.669793
vt 0.687716 0.676592
vt 0.696315 0.676592
vt 0.696865 0.669793
vt 0.696865 0.676558
vt 0.741788 0.676558
vt 0.741788 0.669793
vt 0.741788 0.669793
vt 0.741788 0.676558
vt 0.696865 0.676558
vt 0.696865 0.669793
vt 0.696315 0.664484
vt 0.696315 0.676592
vt 0.687716 0.676592
vt 0.687716 0.664484
vt 0.696865 0.676558
vt 0.741788 0.676558
vt 0.696315 0.664484
vt 0.687716 0.664484
vt 0.687716 0.676592
vt 0.696315 0.676592
vt 0.696315 0.676592
vt 0.696315 0.676592
vt 0.696315 0.676592
vt 0.687716 0.676592
vt 0.696315 0.664484
vt 0.687716 0.664484
vt 0.696315 0.664484
vt 0.687716 0.664484
vt 0.696315 0.664484
vt 0.687716 0.664484
vt 0.687716 0.676592
vt 0.696315 0.676592
vt 0.700224 0.669986
vt 0.738133 0.669986
vt 0.738133 0.669986
vt 0.700224 0.669986
vt 0.696315 0.676592
vt 0.696315 0.676592
vt 0.696315 0.664484
vt 0.687716 0.664484
vt 0.687716 0.676592
vt 0.687716 0.664484
vt 0.696315 0.664484
vt 0.696315 0.676592
vt 0.696315 0.676592
vt 0.687716 0.676592
vt 0.696865 0.676558
vt 0.741788 0.676558
vt 0.741788 0.669793
vt 0.696865 0.669793
vt 0.687716 0.664484
vt 0.687716 0.676592
vt 0.696315 0.676592
vt 0.696315 0.664484
vt 0.687716 0.664484
vt 0.696315 0.664484
vt 0.696315 0.676592
vt 0.696315 0.676592
vt 0.696315 0.676592
vt 0.687716 0.676592
vt 0.696315 0.676592
vt 0.696315 0.676592
vt 0.687716 0.676592
vt 0.696315 0.676592
vt 0.702792 0.669793
vt 0.702792 0.676558
vt 0.696865 0.676558
vt 0.696865 0.669793
vt 0.687716 0.676592
vt 0.696315 0.676592
vt 0.696315 0.664484
vt 0.696315 0.676592
vt 0.696315 0.676592
vt 0.696315 0.664484
vt 0.687716 0.664190
vt 0.696315 0.664190
vt 0.696315 0.664484
vt 0.687716 0.676592
vt 0.696315 0.664484
vt 0.702792 0.676558
vt 0.696865 0.676558
vt 0.736064 0.676623
vt 0.741788 0.676623
vt 0.702792 0.669793
vt 0.702792 0.676558
vt 0.696865 0.676558
vt 0.696865 0.669793
vt 0.736064 0.669793
vt 0.736064 0.676623
vt 0.696315 0.664484
vt 0.696315 0.676592
vt 0.687716 0.676592
vt 0.687716 0.664484
vt 0.696315 0.664484
vt 0.696315 0.676592
vt 0.687716 0.676592
vt 0.687716 0.664484
vt 0.696315 0.676592
vt 0.696315 0.664484
vt 0.687734 0.663186
vt 0.687734 0.679323
vt 0.696227 0.679323
vt 0.696227 0.663186
vt 0.687716 0.664484
vt 0.687716 0.676592
vt 0.696315 0.676592
vt 0.696315 0.664484
vt 0.687734 0.663186
vt 0.687734 0.679323
vt 0.696227 0.679323
vt 0.696227 0.663186
vt 0.696315 0.664484
vt 0.696315 0.676592
vt 0.687716 0.676592
vt 0.687716 0.664484
vt 0.696315 0.664484
vt 0.696315 0.676592
vn 0.0000 0.0000 -1.0000
vn 1.0000 0.0000 0.0000
vn -1.0000 0.0000 0.0000
vn 0.0000 1.0000 0.0000
vn 0.0000 0.0000 1.0000
vn -0.0000 -1.0000 0.0000
usemtl Material
s off
f 44/17/37 41/18/37 34/19/37 37/20/37
f 47/21/37 46/22/37 44/23/37 42/24/37
f 49/25/38 72/26/38 76/27/38 51/28/38
f 35/29/39 33/30/39 67/31/39 62/32/39
f 38/33/37 37/34/37 45/35/37 49/36/37
f 34/37/40 41/38/40 39/39/40 36/40/40
f 35/41/41 36/42/41 39/43/41 43/44/41
f 46/22/37 48/45/37 41/46/37 44/23/37
f 42/47/37 44/48/37 37/49/37 38/50/37
f 33/51/41 35/52/41 43/53/41 40/54/41
f 59/55/42 78/56/42 77/57/42 60/58/42
f 33/51/41 40/54/41 55/59/41 54/60/41
f 46/61/39 69/62/39 71/63/39 48/64/39
f 48/45/40 71/63/40 68/65/40 39/66/40 41/46/40
f 37/34/37 34/67/37 50/68/37 45/35/37
f 45/69/38 66/70/38 72/26/38 49/25/38
f 47/21/37 42/24/37 53/71/37 56/72/37
f 56/73/39 73/74/39 70/75/39 47/76/39
f 53/77/42 52/78/42 54/79/42 55/80/42
f 55/81/38 74/82/38 78/83/38 59/84/38 53/85/38
f 58/86/39 79/87/39 75/88/39 54/89/39 52/90/39
f 42/91/37 38/92/37 52/93/37 53/94/37
f 57/95/42 80/96/42 79/97/42 58/98/42
f 38/33/37 49/36/37 51/99/37 52/100/37
f 60/101/39 77/57/39 73/74/39 56/73/39
f 51/28/38 76/27/38 80/96/38 57/102/38
f 50/103/38 65/104/38 66/70/38 45/69/38
f 36/105/40 61/106/40 65/104/40 50/68/40 34/67/40
f 52/100/37 51/99/37 57/107/37 58/108/37
f 40/109/38 43/110/38 63/111/38 64/112/38
f 56/113/37 53/114/37 59/55/37 60/58/37
f 72/26/41 66/70/41 62/115/41 67/116/41
f 64/117/41 63/118/41 69/62/41 70/75/41
f 66/70/41 65/104/41 61/106/41 62/115/41
f 63/118/41 68/65/41 71/63/41 69/62/41
f 64/117/41 70/75/41 73/119/41 74/120/41
f 72/26/41 67/116/41 75/121/41 76/27/41
f 76/122/41 75/88/41 79/97/41 80/96/41
f 74/123/41 73/74/41 77/57/41 78/56/41
f 55/124/38 40/109/38 64/112/38 74/125/38
f 33/30/39 54/126/39 75/127/39 67/31/39
f 43/128/38 39/129/38 68/130/38 63/131/38
f 36/42/39 35/41/39 62/132/39 61/133/39
f 47/76/39 70/75/39 69/62/39 46/61/39
s 1
f 17/134/37 18/135/37 19/136/37 20/137/37
f 20/138/38 19/139/38 21/140/38 22/141/38
f 22/141/41 21/140/41 23/142/41 24/143/41
f 24/144/39 23/145/39 18/146/39 17/147/39
f 20/137/42 22/141/42 24/143/42 17/134/42
f 21/140/40 19/136/40 18/135/40 23/142/40
f 25/148/37 26/149/37 27/150/37 28/151/37
f 28/152/38 27/153/38 29/154/38 30/155/38
f 30/156/41 29/157/41 31/158/41 32/159/41
f 32/160/39 31/161/39 26/149/39 25/148/39
f 28/151/42 30/156/42 32/159/42 25/148/42
f 29/157/40 27/150/40 26/149/40 31/158/40
