# Blender v3.0.1 OBJ File: 'Inside_Poly_Bucket_Wide_01_Water.blend'
# www.blender.org
mtllib Inside_Poly_Bucket_Wide_01_Water.mtl
o Sphere_Sphere.004
v 0.000913 0.426389 -0.707037
v 0.000882 0.472313 -0.606594
v 0.429808 0.472313 -0.428926
v 0.500863 0.426389 -0.499950
v -0.002204 -0.000408 -0.600944
v 0.000674 0.127620 -0.633336
v 0.448511 0.127620 -0.447836
v 0.422725 -0.000408 -0.424932
v 0.000913 0.303604 -0.705504
v 0.499778 0.303604 -0.498866
v 0.634010 0.127620 -0.000000
v 0.598740 -0.000408 0.000000
v 0.707950 0.426389 -0.000000
v 0.706417 0.303604 -0.000000
v 0.607476 0.472313 -0.000000
v 0.422725 -0.000408 0.424932
v 0.499778 0.303604 0.498865
v 0.448511 0.127620 0.447836
v 0.429808 0.472313 0.428928
v 0.500863 0.426389 0.499952
v 0.000913 0.303604 0.705504
v 0.000674 0.127620 0.633336
v 0.000882 0.472313 0.606594
v 0.000913 0.426389 0.707037
v -0.002204 -0.000411 0.600944
v -0.447162 0.127620 0.447836
v -0.427139 -0.000408 0.424932
v -0.499037 0.426389 0.499952
v -0.497953 0.303604 0.498865
v -0.428046 0.472313 0.428928
v -0.706124 0.426389 -0.000000
v -0.704591 0.303604 -0.000000
v -0.418346 0.166655 0.419826
v 0.001481 0.166655 0.593724
v 0.421305 0.166655 0.419826
v 0.595203 0.166656 -0.000000
v 0.421305 0.166658 -0.419824
v 0.001481 0.166658 -0.593725
v -0.418346 0.166658 -0.419824
v -0.592244 0.166656 -0.000000
v -0.603149 -0.000408 0.000000
v -0.632662 0.127620 -0.000000
v -0.605712 0.472313 -0.000000
v -0.427139 -0.000408 -0.424932
v -0.497953 0.303604 -0.498866
v -0.447162 0.127620 -0.447836
v -0.428046 0.472313 -0.428926
v -0.499037 0.426389 -0.499950
vt 0.649953 0.260541
vt 0.649953 0.265459
vt 0.663784 0.265459
vt 0.663784 0.260541
vt 0.662557 0.250213
vt 0.662557 0.254214
vt 0.649953 0.254214
vt 0.649953 0.250213
vt 0.649953 0.258039
vt 0.649953 0.261503
vt 0.662557 0.261503
vt 0.662557 0.258039
vt 0.649953 0.254214
vt 0.649953 0.257760
vt 0.662557 0.257760
vt 0.662557 0.254214
vt 0.662557 0.250213
vt 0.649953 0.254214
vt 0.649953 0.250213
vt 0.649953 0.258039
vt 0.649953 0.261503
vt 0.662557 0.261503
vt 0.662557 0.258039
vt 0.649953 0.257760
vt 0.662557 0.257760
vt 0.662557 0.254214
vt 0.649953 0.260541
vt 0.649953 0.265459
vt 0.663784 0.265459
vt 0.663784 0.260541
vt 0.649953 0.257760
vt 0.662557 0.257760
vt 0.662557 0.254214
vt 0.649953 0.260541
vt 0.649953 0.265459
vt 0.663784 0.265459
vt 0.663784 0.260541
vt 0.662557 0.250213
vt 0.649953 0.254214
vt 0.649953 0.250213
vt 0.649953 0.258039
vt 0.649953 0.261503
vt 0.662557 0.261503
vt 0.662557 0.258039
vt 0.649953 0.257760
vt 0.662557 0.257760
vt 0.662557 0.254214
vt 0.649953 0.260541
vt 0.649953 0.265459
vt 0.663784 0.265459
vt 0.663784 0.260541
vt 0.662557 0.250213
vt 0.649953 0.254214
vt 0.649953 0.250213
vt 0.649953 0.258039
vt 0.649953 0.261503
vt 0.662557 0.261503
vt 0.662557 0.258039
vt 0.662557 0.250213
vt 0.649953 0.254214
vt 0.649953 0.250213
vt 0.649953 0.258039
vt 0.649953 0.261503
vt 0.662557 0.261503
vt 0.662557 0.258039
vt 0.649953 0.257760
vt 0.662557 0.257760
vt 0.662557 0.254214
vt 0.649953 0.260541
vt 0.649953 0.265459
vt 0.663784 0.265459
vt 0.663784 0.260541
vt 0.649953 0.258039
vt 0.649953 0.261503
vt 0.662557 0.261503
vt 0.662557 0.258039
vt 0.678950 0.288154
vt 0.678950 0.273798
vt 0.665806 0.264414
vt 0.647627 0.264414
vt 0.634322 0.273798
vt 0.634322 0.288154
vt 0.647627 0.296385
vt 0.665806 0.296385
vt 0.649953 0.257760
vt 0.662557 0.257760
vt 0.662557 0.254214
vt 0.649953 0.260541
vt 0.649953 0.265459
vt 0.663784 0.265459
vt 0.663784 0.260541
vt 0.662557 0.250213
vt 0.649953 0.254214
vt 0.649953 0.250213
vt 0.649953 0.257760
vt 0.662557 0.257760
vt 0.662557 0.254214
vt 0.649953 0.260541
vt 0.649953 0.265459
vt 0.663784 0.265459
vt 0.663784 0.260541
vt 0.662557 0.250213
vt 0.649953 0.254214
vt 0.649953 0.250213
vt 0.649953 0.258039
vt 0.649953 0.261503
vt 0.662557 0.261503
vt 0.662557 0.258039
vt 0.649953 0.260541
vt 0.649953 0.265459
vt 0.663784 0.265459
vt 0.663784 0.260541
vt 0.662557 0.250213
vt 0.649953 0.250213
vt 0.649953 0.258039
vt 0.649953 0.261503
vt 0.662557 0.261503
vt 0.662557 0.258039
vt 0.649953 0.257760
vt 0.662557 0.257760
vt 0.663848 0.306821
vt 0.663848 0.296925
vt 0.648629 0.296925
vt 0.648629 0.306821
vt 0.663848 0.306821
vt 0.663848 0.296925
vt 0.648629 0.296925
vt 0.648629 0.306821
vt 0.663848 0.306821
vt 0.663848 0.296925
vt 0.648629 0.296925
vt 0.648629 0.306821
vt 0.663848 0.306821
vt 0.663848 0.296925
vt 0.648629 0.296925
vt 0.648629 0.306821
vt 0.663848 0.306821
vt 0.663848 0.296925
vt 0.648629 0.296925
vt 0.648629 0.306821
vt 0.663848 0.306821
vt 0.663848 0.296925
vt 0.648629 0.296925
vt 0.648629 0.306821
vt 0.663848 0.306821
vt 0.663848 0.296925
vt 0.648629 0.296925
vt 0.648629 0.306821
vt 0.663848 0.306821
vt 0.663848 0.296925
vt 0.648629 0.296925
vt 0.648629 0.306821
vt 0.646238 0.296436
vt 0.666427 0.296414
vt 0.680677 0.287537
vt 0.680641 0.275005
vt 0.666341 0.266159
vt 0.646152 0.266181
vt 0.631902 0.275058
vt 0.631938 0.287590
vn 0.1697 0.8963 -0.4097
vn 0.3719 -0.2355 -0.8979
vn 0.3827 -0.0115 -0.9238
vn 0.3578 -0.3547 -0.8638
vn 0.8953 -0.2467 -0.3709
vn 0.9238 -0.0115 -0.3827
vn 0.8636 -0.3553 -0.3577
vn 0.4097 0.8963 -0.1697
vn 0.8636 -0.3553 0.3577
vn 0.4097 0.8963 0.1697
vn 0.8953 -0.2467 0.3709
vn 0.9238 -0.0115 0.3827
vn 0.3578 -0.3547 0.8638
vn 0.1697 0.8963 0.4097
vn 0.3719 -0.2355 0.8979
vn 0.3827 -0.0115 0.9238
vn -0.3733 -0.2196 0.9013
vn -0.3827 -0.0115 0.9238
vn -0.3579 -0.3539 0.8641
vn -0.1698 0.8962 0.4098
vn -0.9238 -0.0115 0.3827
vn 0.5813 0.0537 -0.8119
vn -0.1713 0.0350 -0.9846
vn -0.8145 0.0151 -0.5799
vn -0.9888 0.0063 0.1490
vn -0.6077 0.0143 0.7940
vn 0.1250 0.0339 0.9916
vn 0.7929 0.0530 0.6070
vn 0.9873 0.0610 -0.1468
vn -0.8643 -0.3533 0.3580
vn -0.4099 0.8962 0.1698
vn -0.9036 -0.2083 0.3743
vn -0.8643 -0.3533 -0.3580
vn -0.4099 0.8962 -0.1698
vn -0.9036 -0.2083 -0.3743
vn -0.9238 -0.0115 -0.3827
vn -0.1698 0.8962 -0.4098
vn -0.3733 -0.2196 -0.9013
vn -0.3827 -0.0115 -0.9238
vn -0.3579 -0.3539 -0.8641
vn 0.3824 0.0396 0.9232
vn 0.9231 0.0407 0.3824
vn 0.9231 0.0407 -0.3824
vn 0.3824 0.0396 -0.9232
vn -0.3824 0.0381 -0.9232
vn -0.9232 0.0371 -0.3824
vn -0.9232 0.0371 0.3824
vn -0.3824 0.0381 0.9232
vn 0.0000 -1.0000 -0.0000
usemtl Material.001
s 1
f 1/1/1 2/2/1 3/3/1 4/4/1
f 5/5/2 6/6/2 7/7/2 8/8/2
f 9/9/3 1/10/3 4/11/3 10/12/3
f 6/13/4 9/14/4 10/15/4 7/16/4
f 8/17/5 7/16/5 11/18/5 12/19/5
f 10/20/6 4/21/6 13/22/6 14/23/6
f 7/7/7 10/24/7 14/25/7 11/26/7
f 4/27/8 3/28/8 15/29/8 13/30/8
f 11/18/9 14/31/9 17/32/9 18/33/9
f 13/34/10 15/35/10 19/36/10 20/37/10
f 12/38/11 11/26/11 18/39/11 16/40/11
f 14/41/12 13/42/12 20/43/12 17/44/12
f 18/39/13 17/45/13 21/46/13 22/47/13
f 20/48/14 19/49/14 23/50/14 24/51/14
f 16/52/15 18/33/15 22/53/15 25/54/15
f 17/55/16 20/56/16 24/57/16 21/58/16
f 25/59/17 22/47/17 26/60/17 27/61/17
f 21/62/18 24/63/18 28/64/18 29/65/18
f 22/53/19 21/66/19 29/67/19 26/68/19
f 24/69/20 23/70/20 30/71/20 28/72/20
f 29/73/21 28/74/21 31/75/21 32/76/21
f 33/77/22 34/78/23 35/79/24 36/80/25 37/81/26 38/82/27 39/83/28 40/84/29
f 26/60/30 29/85/30 32/86/30 42/87/30
f 28/88/31 30/89/31 43/90/31 31/91/31
f 27/92/32 26/68/32 42/93/32 41/94/32
f 42/93/33 32/95/33 45/96/33 46/97/33
f 31/98/34 43/99/34 47/100/34 48/101/34
f 41/102/35 42/87/35 46/103/35 44/104/35
f 32/105/36 31/106/36 48/107/36 45/108/36
f 48/109/37 47/110/37 2/111/37 1/112/37
f 44/113/38 46/97/38 6/13/38 5/114/38
f 45/115/39 48/116/39 1/117/39 9/118/39
f 46/103/40 45/119/40 9/120/40 6/6/40
f 47/121/41 39/122/28 38/123/27 2/124/41
f 43/125/42 40/126/29 39/127/28 47/128/42
f 30/129/43 33/130/22 40/131/29 43/132/43
f 23/133/44 34/134/23 33/135/22 30/136/44
f 19/137/45 35/138/24 34/139/23 23/140/45
f 15/141/46 36/142/25 35/143/24 19/144/46
f 3/145/47 37/146/26 36/147/25 15/148/47
f 2/149/48 38/150/27 37/151/26 3/152/48
f 5/153/49 8/154/49 12/155/49 16/156/49 25/157/49 27/158/49 41/159/49 44/160/49
o Water_Sphere_Sphere.001
v -0.428521 0.392053 0.430001
v 0.001481 0.392053 0.608113
v 0.431479 0.392053 0.430001
v 0.609592 0.392053 -0.000000
v 0.431479 0.392055 -0.429999
v 0.001481 0.392055 -0.608114
v -0.428521 0.392055 -0.429999
v -0.606633 0.392053 -0.000000
vt 0.606841 0.279370
vt 0.606841 0.285452
vt 0.598934 0.290356
vt 0.587998 0.290356
vt 0.579994 0.285452
vt 0.579994 0.279370
vt 0.587998 0.275067
vt 0.598934 0.275067
vn 0.4981 0.6162 -0.6100
vn -0.0830 0.5950 -0.7994
vn -0.6321 0.5752 -0.5192
vn -0.8191 0.5692 0.0712
vn -0.5296 0.5809 0.6181
vn 0.0595 0.6028 0.7957
vn 0.5967 0.6215 0.5076
vn 0.7759 0.6269 -0.0709
usemtl Material
s 1
f 49/161/50 50/162/51 51/163/52 52/164/53 53/165/54 54/166/55 55/167/56 56/168/57
o Cube
v -0.744726 0.582966 -0.060142
v -0.714081 0.639192 -0.044766
v -0.595319 0.607804 -0.448752
v -0.564673 0.664030 -0.433376
v -0.211697 0.242351 0.123020
v -0.181051 0.298577 0.138395
v -0.062290 0.267189 -0.265590
v -0.031644 0.323414 -0.250214
vt 0.647031 0.273849
vt 0.647031 0.283062
vt 0.665611 0.283062
vt 0.665611 0.273849
vt 0.644996 0.274253
vt 0.644996 0.282961
vt 0.667360 0.282961
vt 0.667360 0.274253
vt 0.665611 0.283062
vt 0.665611 0.273849
vt 0.647031 0.273849
vt 0.647031 0.283062
vt 0.667360 0.274253
vt 0.667360 0.282961
vt 0.644996 0.282961
vt 0.644996 0.274253
vt 0.705457 0.310715
vt 0.716458 0.290751
vt 0.699639 0.281063
vt 0.689995 0.301995
vt 0.716458 0.290751
vt 0.705457 0.310715
vt 0.689995 0.301995
vt 0.699639 0.281063
vn -0.8094 0.5172 -0.2781
vn 0.3582 0.0596 -0.9317
vn 0.8094 -0.5172 0.2781
vn -0.3582 -0.0596 0.9317
vn -0.4653 -0.8538 -0.2335
vn 0.4653 0.8538 0.2335
usemtl Material.001
s off
f 57/169/58 58/170/58 60/171/58 59/172/58
f 59/173/59 60/174/59 64/175/59 63/176/59
f 63/177/60 64/178/60 62/179/60 61/180/60
f 61/181/61 62/182/61 58/183/61 57/184/61
f 59/185/62 63/186/62 61/187/62 57/188/62
f 64/189/63 60/190/63 58/191/63 62/192/63
o Cube.001
v -0.111995 0.176056 -0.340652
v -0.210280 0.406585 -0.364516
v -0.308223 0.175160 0.149591
v -0.474808 0.363168 0.090440
v -0.131361 0.087352 -0.082703
v -0.306379 0.497604 -0.125222
v -0.363887 0.486050 0.000009
v -0.188869 0.075798 0.042528
v -0.074475 0.098782 -0.206580
v -0.249493 0.509034 -0.249099
v 0.012128 0.271837 -0.274816
v -0.252400 0.228420 0.180140
v -0.083971 0.362855 -0.035521
v -0.141479 0.351301 0.089709
v -0.027085 0.374285 -0.159398
v -0.268082 0.212232 0.171445
v -0.036482 0.225614 -0.026376
v -0.093990 0.214059 0.098854
v 0.020405 0.237044 -0.150253
v -0.028839 0.210331 -0.299304
v -0.099076 0.339211 -0.319666
v -0.363604 0.295794 0.135290
v -0.195175 0.430230 -0.080372
v -0.252683 0.418675 0.044859
v -0.138289 0.441660 -0.204249
v -0.412970 0.455458 0.055281
v -0.248546 0.125479 0.096059
v -0.190562 0.320710 0.144981
v -0.181036 0.213146 0.135150
v -0.301766 0.388084 0.100131
v -0.093235 0.137419 -0.273616
v -0.223509 0.488659 -0.296751
v -0.001101 0.353910 -0.207051
v -0.004218 0.223688 -0.224778
v -0.112305 0.421285 -0.251901
v -0.270447 0.143902 0.164055
v -0.038846 0.157283 -0.033767
v -0.096354 0.145729 0.091464
v 0.018040 0.168713 -0.157644
v -0.031204 0.142001 -0.306694
v -0.183400 0.144815 0.127759
v -0.006582 0.155357 -0.232169
vt 0.237896 0.154884
vt 0.256442 0.154884
vt 0.256442 0.157128
vt 0.237896 0.157128
vt 0.237896 0.143709
vt 0.256442 0.143709
vt 0.256442 0.148150
vt 0.237896 0.148150
vt 0.256442 0.152639
vt 0.237896 0.152639
vt 0.237896 0.141489
vt 0.256442 0.141489
vt 0.200804 0.141489
vt 0.219350 0.141489
vt 0.219350 0.143709
vt 0.200804 0.143709
vt 0.200804 0.148150
vt 0.219350 0.148150
vt 0.219350 0.152639
vt 0.200804 0.152639
vt 0.200804 0.154884
vt 0.219350 0.154884
vt 0.219350 0.157128
vt 0.200804 0.157128
vt 0.191531 0.154884
vt 0.191531 0.157128
vt 0.191531 0.143709
vt 0.191531 0.148150
vt 0.191531 0.152639
vt 0.191531 0.141489
vt 0.219350 0.139268
vt 0.237896 0.139268
vt 0.191531 0.139268
vt 0.200804 0.139268
vt 0.256442 0.139268
vt 0.182258 0.139268
vt 0.182258 0.141489
vt 0.182258 0.152639
vt 0.182258 0.154884
vt 0.182258 0.143709
vt 0.182258 0.148150
vt 0.182258 0.157128
vn -0.1107 0.4177 0.9018
vn 0.4164 0.8678 0.2713
vn 0.5366 0.8411 -0.0670
vn 0.9858 0.1646 -0.0345
vn 0.8489 0.3217 0.4195
vn 0.5035 -0.1524 0.8504
vn 0.3834 -0.1124 0.9167
vn 0.9088 -0.0758 0.4103
vn 0.9495 0.0011 -0.3139
vn 0.2145 0.7613 0.6119
vn 0.5343 0.1221 0.8364
vn 0.5804 0.5721 -0.5796
vn 0.9669 -0.2408 0.0841
vn -0.0181 -0.9852 -0.1704
vn 0.1219 -0.7752 0.6199
vn 0.5390 -0.7850 -0.3054
vn 0.5356 -0.8273 0.1696
vn -0.1991 -0.9602 0.1960
usemtl Material.001
s off
f 94/193/64 90/194/64 68/195/64 86/196/64
f 89/197/65 74/198/65 70/199/65 87/200/65
f 87/200/65 70/199/65 71/201/65 88/202/65
f 99/203/66 96/204/66 74/198/66 89/197/66
f 98/205/67 97/206/67 79/207/67 83/208/67
f 81/209/68 77/210/68 78/211/68 82/212/68
f 83/208/68 79/207/68 77/210/68 81/209/68
f 93/213/69 92/214/69 76/215/69 80/216/69
f 105/217/70 93/213/70 80/216/70 100/218/70
f 103/219/71 83/208/71 81/209/71 101/220/71
f 101/220/71 81/209/71 82/212/71 102/221/71
f 106/222/72 98/205/72 83/208/72 103/219/72
f 97/206/66 99/203/66 89/197/66 79/207/66
f 77/210/65 87/200/65 88/202/65 78/211/65
f 79/207/65 89/197/65 87/200/65 77/210/65
f 92/214/64 94/193/64 86/196/64 76/215/64
f 78/211/73 88/202/73 94/193/73 92/214/73
f 102/221/70 82/212/70 93/213/70 105/217/70
f 82/212/74 78/211/74 92/214/74 93/213/74
f 88/202/73 71/201/73 90/194/73 94/193/73
f 75/223/75 85/224/75 99/203/75 97/206/75
f 104/225/72 84/226/72 98/205/72 106/222/72
f 84/226/76 75/223/76 97/206/76 98/205/76
f 85/224/75 66/227/75 96/204/75 99/203/75
f 65/228/77 104/225/77 106/222/77 95/229/77
f 72/230/78 102/221/78 105/217/78 91/231/78
f 95/229/79 106/222/79 103/219/79 73/232/79
f 69/233/80 101/220/80 102/221/80 72/230/80
f 73/232/80 103/219/80 101/220/80 69/233/80
f 91/231/81 105/217/81 100/218/81 67/234/81
