# Blender v3.0.1 OBJ File: 'Inside_Poly_Window_06.blend'
# www.blender.org
mtllib Inside_Poly_Window_06.mtl
o Cube.001_Cube
v -0.480000 0.000000 -0.400000
v -0.480000 0.800000 -0.400000
v -0.480000 0.000000 -0.499998
v -0.480000 0.800000 -0.499998
v 0.000000 0.000000 -0.400000
v -0.380000 0.800000 -0.450000
v 0.000000 0.000000 -0.500000
v -0.380000 0.000000 -0.499998
v -0.380000 0.800000 -0.400000
v -0.380000 0.000000 -0.400000
v 0.000000 1.250000 -0.500000
v 0.000000 1.250000 -0.400000
v -0.180000 1.250000 -0.499998
v -0.180000 1.250000 -0.400000
v -0.480000 0.890000 -0.499998
v -0.480000 0.890000 -0.400000
v -0.430000 1.040000 -0.400000
v -0.430000 1.040000 -0.499998
v -0.150000 1.250000 -0.400000
v -0.360000 0.890000 -0.400000
v -0.320000 1.040000 -0.400000
v -0.150000 1.250000 -0.499998
v -0.340000 1.140000 -0.400000
v 0.000000 1.140000 -0.400000
v -0.340000 1.140000 -0.499998
v -0.100000 1.140000 -0.400000
v -0.150000 1.140000 -0.400000
v -0.360000 0.890000 -0.450000
v -0.320000 1.040000 -0.450000
v -0.150000 1.140000 -0.450000
v 0.480000 0.000000 -0.400000
v 0.480000 0.800000 -0.400000
v 0.480000 0.000000 -0.499998
v 0.480000 0.800000 -0.499998
v 0.000000 0.000000 -0.400000
v -0.380000 0.800000 -0.450000
v 0.000000 0.000000 -0.500000
v 0.380000 0.000000 -0.499998
v 0.380000 0.800000 -0.400000
v 0.380000 0.000000 -0.400000
v 0.000000 1.250000 -0.500000
v 0.000000 1.250000 -0.400000
v 0.180000 1.250000 -0.499998
v 0.180000 1.250000 -0.400000
v 0.480000 0.890000 -0.499998
v 0.480000 0.890000 -0.400000
v 0.430000 1.040000 -0.400000
v 0.430000 1.040000 -0.499998
v 0.150000 1.250000 -0.400000
v 0.360000 0.890000 -0.400000
v 0.320000 1.040000 -0.400000
v 0.150000 1.250000 -0.499998
v 0.340000 1.140000 -0.400000
v 0.000000 1.140000 -0.400000
v 0.340000 1.140000 -0.499998
v 0.100000 1.140000 -0.400000
v 0.150000 1.140000 -0.400000
v 0.360000 0.890000 -0.450000
v 0.320000 1.040000 -0.450000
v 0.150000 1.140000 -0.450000
v 0.480000 0.100000 -0.400000
v 0.480000 0.100000 -0.499998
v 0.000000 0.100000 -0.400000
v 0.380000 0.100000 -0.400000
v -0.480000 0.100000 -0.400000
v -0.480000 0.100000 -0.499998
v 0.000000 0.100000 -0.400000
v -0.380000 0.100000 -0.400000
v 0.000000 0.800000 -0.450000
v -0.380000 0.800000 -0.450000
v 0.000000 0.800000 -0.450000
v 0.380000 0.800000 -0.450000
v 0.000000 0.100000 -0.450000
v 0.380000 0.100000 -0.450000
v 0.000000 0.100000 -0.450000
v -0.380000 0.100000 -0.450000
v 0.000000 1.140000 -0.450000
v 0.000000 1.140000 -0.400000
v 0.000000 0.890000 -0.450000
v 0.000000 1.041000 -0.450000
v 0.000000 0.800000 -0.450000
vt 0.449068 0.411855
vt 0.449068 0.455246
vt 0.445356 0.455246
vt 0.445356 0.411855
vt 0.493596 0.411215
vt 0.493648 0.406473
vt 0.493648 0.406473
vt 0.493596 0.411215
vt 0.493596 0.411215
vt 0.493596 0.411215
vt 0.493648 0.406473
vt 0.493648 0.406473
vt 0.470095 0.411855
vt 0.449068 0.406822
vt 0.470095 0.406822
vt 0.449449 0.406323
vt 0.445184 0.406308
vt 0.445131 0.411051
vt 0.449396 0.411065
vt 0.449020 0.433902
vt 0.445188 0.433902
vt 0.445188 0.442608
vt 0.445188 0.433902
vt 0.445131 0.411051
vt 0.445184 0.406308
vt 0.449020 0.412208
vt 0.449020 0.421487
vt 0.445188 0.421487
vt 0.445188 0.412208
vt 0.459142 0.406356
vt 0.453326 0.406336
vt 0.453273 0.411079
vt 0.459089 0.411098
vt 0.445188 0.454947
vt 0.445188 0.442802
vt 0.449020 0.442802
vt 0.449020 0.444060
vt 0.449020 0.454947
vt 0.469483 0.456170
vt 0.469483 0.464483
vt 0.453843 0.464420
vt 0.451888 0.456185
vt 0.449998 0.456633
vt 0.449998 0.449257
vt 0.444722 0.449257
vt 0.444722 0.456633
vt 0.469483 0.469910
vt 0.462152 0.469910
vt 0.444722 0.461551
vt 0.444722 0.443788
vt 0.449982 0.443788
vt 0.449982 0.457417
vt 0.449982 0.461551
vt 0.488056 0.451244
vt 0.487079 0.456185
vt 0.469483 0.451244
vt 0.469483 0.451244
vt 0.469483 0.451244
vt 0.489771 0.406459
vt 0.489719 0.411202
vt 0.449068 0.412135
vt 0.445356 0.412135
vt 0.445356 0.455246
vt 0.449068 0.455246
vt 0.462579 0.411110
vt 0.462631 0.406367
vt 0.445188 0.409049
vt 0.449020 0.409049
vt 0.493596 0.411215
vt 0.493648 0.406473
vt 0.470095 0.412135
vt 0.470095 0.406822
vt 0.449068 0.406822
vt 0.493596 0.411215
vt 0.493648 0.406473
vt 0.449449 0.406323
vt 0.449396 0.411065
vt 0.445131 0.411051
vt 0.445184 0.406308
vt 0.449020 0.433902
vt 0.445188 0.433902
vt 0.445188 0.442608
vt 0.445188 0.433902
vt 0.445131 0.411051
vt 0.445184 0.406308
vt 0.449020 0.412208
vt 0.445188 0.412208
vt 0.445188 0.421487
vt 0.449020 0.421487
vt 0.459142 0.406356
vt 0.459089 0.411098
vt 0.453273 0.411079
vt 0.453326 0.406336
vt 0.449020 0.444060
vt 0.449020 0.442802
vt 0.445188 0.442802
vt 0.445188 0.454947
vt 0.449020 0.454947
vt 0.485124 0.464420
vt 0.449998 0.456633
vt 0.444722 0.456633
vt 0.444722 0.449257
vt 0.449998 0.449257
vt 0.476815 0.469910
vt 0.444722 0.461551
vt 0.449982 0.461551
vt 0.449982 0.457740
vt 0.445131 0.411051
vt 0.445184 0.406308
vt 0.489771 0.406459
vt 0.489719 0.411202
vt 0.462631 0.406367
vt 0.462579 0.411110
vt 0.449998 0.410410
vt 0.449998 0.444832
vt 0.444722 0.444832
vt 0.444722 0.410410
vt 0.445356 0.406822
vt 0.470095 0.411789
vt 0.449068 0.411789
vt 0.449068 0.406746
vt 0.470095 0.406746
vt 0.445356 0.406822
vt 0.469483 0.412814
vt 0.488056 0.412814
vt 0.450910 0.451244
vt 0.450910 0.412814
vt 0.469483 0.412814
vt 0.449068 0.411789
vt 0.470095 0.411789
vt 0.470095 0.406746
vt 0.449068 0.406746
vt 0.449020 0.409130
vt 0.445188 0.409130
vt 0.449998 0.444832
vt 0.449998 0.410410
vt 0.444722 0.410410
vt 0.444722 0.444832
vt 0.444722 0.444832
vt 0.444722 0.444832
vt 0.450910 0.451244
vt 0.450910 0.451244
vt 0.445184 0.406308
vt 0.445131 0.411051
vn 0.0000 0.0000 1.0000
vn 0.0000 -1.0000 0.0000
vn -0.5665 0.8240 -0.0000
vn 0.0000 1.0000 0.0000
vn -0.9487 0.3162 -0.0000
vn 0.9662 -0.2577 0.0000
vn -0.7433 0.6690 -0.0000
vn 0.5070 -0.8619 0.0000
vn -1.0000 0.0000 -0.0000
vn 0.5665 0.8240 -0.0000
vn 0.9487 0.3162 -0.0000
vn -0.9662 -0.2577 0.0000
vn 0.7433 0.6690 -0.0000
vn -0.5070 -0.8619 0.0000
vn 1.0000 0.0000 -0.0000
vn 0.9762 -0.2169 0.0000
vn -0.9762 -0.2169 0.0000
usemtl Material
s off
f 68/1/1 9/2/1 2/3/1 65/4/1
f 38/5/2 40/6/2 35/7/2 37/8/2
f 3/9/2 8/10/2 10/11/2 1/12/2
f 67/13/1 68/1/1 10/14/1 5/15/1
f 23/16/3 14/17/3 13/18/3 25/19/3
f 27/20/1 19/21/1 14/22/1 23/23/1
f 22/24/4 13/18/4 14/17/4 19/25/4
f 20/26/1 21/27/1 17/28/1 16/29/1
f 16/30/5 17/31/5 18/32/5 15/33/5
f 12/34/1 19/35/1 27/36/1 26/37/1 24/38/1
f 79/39/1 80/40/1 29/41/1 28/42/1
f 21/43/6 20/44/6 28/45/6 29/46/6
f 21/27/1 27/20/1 23/23/1 17/28/1
f 17/31/7 23/16/7 25/19/7 18/32/7
f 29/41/1 80/40/1 77/47/1 30/48/1
f 30/49/2 77/50/2 78/51/2 26/52/2 27/53/2
f 27/53/8 21/43/8 29/46/8 30/49/8
f 72/54/1 58/55/1 79/39/1 69/56/1 81/57/1 71/58/1
f 65/59/9 66/60/9 3/9/9 1/12/9
f 64/61/1 61/62/1 32/63/1 39/64/1
f 4/65/9 2/66/9 16/30/9 15/33/9
f 20/26/1 16/29/1 2/67/1 9/68/1
f 33/69/2 31/70/2 40/6/2 38/5/2
f 63/71/1 35/72/1 40/73/1 64/61/1
f 8/10/2 7/74/2 5/75/2 10/11/2
f 53/76/10 55/77/10 43/78/10 44/79/10
f 57/80/1 53/81/1 44/82/1 49/83/1
f 52/84/4 49/85/4 44/79/4 43/78/4
f 50/86/1 46/87/1 47/88/1 51/89/1
f 46/90/11 45/91/11 48/92/11 47/93/11
f 56/94/1 57/95/1 49/96/1 42/97/1 54/98/1
f 59/99/1 80/40/1 79/39/1 58/55/1
f 51/100/12 59/101/12 58/102/12 50/103/12
f 51/89/1 47/88/1 53/81/1 57/80/1
f 47/93/13 48/92/13 55/77/13 53/76/13
f 77/47/1 80/40/1 59/99/1 60/104/1
f 77/50/2 60/105/2 57/106/2 56/107/2 78/51/2
f 57/106/14 60/105/14 59/101/14 51/100/14
f 11/108/4 22/24/4 19/25/4 12/109/4
f 61/110/15 31/70/15 33/69/15 62/111/15
f 32/112/15 61/110/15 62/111/15 34/113/15
f 64/114/9 39/115/9 72/116/9 74/117/9
f 40/73/1 31/118/1 61/62/1 64/61/1
f 2/66/9 4/65/9 66/60/9 65/59/9
f 63/119/4 64/120/4 74/121/4 73/122/4
f 10/14/1 68/1/1 65/4/1 1/123/1
f 71/58/1 73/124/1 74/125/1 72/54/1
f 69/56/1 70/126/1 76/127/1 75/128/1
f 68/129/4 67/130/4 75/131/4 76/132/4
f 46/87/1 50/86/1 39/133/1 32/134/1
f 9/135/15 68/136/15 76/137/15 70/138/15
f 46/90/15 32/112/15 34/113/15 45/91/15
f 28/45/16 20/44/16 9/135/16 70/138/16 36/139/16 6/140/16
f 58/102/17 72/116/17 39/115/17 50/103/17
f 79/39/1 28/42/1 6/141/1 36/142/1 70/126/1 81/57/1 69/56/1 71/58/1
f 81/57/1 80/40/1 77/47/1 71/58/1
f 69/56/15 79/39/15 80/40/15 81/57/15
f 42/143/4 49/85/4 52/84/4 41/144/4
