# Blender 3.6.5
# www.blender.org
mtllib Inside_Poly_Square_Pillar_01.mtl
o Cube.001
v -0.531842 0.000000 0.531842
v 0.531842 0.000000 0.531842
v -0.531842 0.000000 -0.531842
v 0.531842 0.000000 -0.531842
v -0.531842 0.197531 0.531842
v 0.531842 0.197531 0.531842
v -0.531842 0.197531 -0.531842
v 0.531842 0.197531 -0.531842
v -0.421621 0.298827 0.421621
v 0.421621 0.298827 0.421621
v -0.421621 0.298827 -0.421621
v 0.421621 0.298827 -0.421621
v -0.421621 2.397594 0.421621
v 0.421621 2.397594 0.421621
v -0.421621 2.397594 -0.421621
v 0.421621 2.397594 -0.421621
v -0.537831 2.503025 0.537831
v 0.537831 2.503025 0.537831
v -0.537831 2.503025 -0.537831
v 0.537831 2.503025 -0.537831
v -0.537831 2.701483 0.537831
v 0.537831 2.701483 0.537831
v -0.537831 2.701483 -0.537831
v 0.537831 2.701483 -0.537831
vn -0.0000 -1.0000 -0.0000
vn 0.6767 0.7363 -0.0000
vn -0.0000 -0.0000 -1.0000
vn -0.0000 -0.0000 1.0000
vn 1.0000 -0.0000 -0.0000
vn -1.0000 -0.0000 -0.0000
vn -0.6767 0.7363 -0.0000
vn -0.0000 0.7363 -0.6767
vn -0.0000 0.7363 0.6767
vn -0.0000 -0.7406 -0.6719
vn -0.0000 -0.7406 0.6719
vn 0.6719 -0.7406 -0.0000
vn -0.6719 -0.7406 -0.0000
vn -0.0000 1.0000 -0.0000
vt 0.072585 0.811880
vt 0.072585 0.786063
vt 0.113782 0.786063
vt 0.113782 0.811880
vt 0.072006 0.784560
vt 0.113822 0.784560
vt 0.113822 0.778677
vt 0.072006 0.778677
vt 0.113858 0.778129
vt 0.071912 0.778129
vt 0.071912 0.785201
vt 0.113858 0.785201
vt 0.078423 0.709229
vt 0.107569 0.709229
vt 0.107569 0.773515
vt 0.078423 0.773515
vt 0.072451 0.812014
vt 0.113916 0.812014
vt 0.113916 0.785930
vt 0.072451 0.785930
s 0
usemtl Material
f 1/1/1 3/2/1 4/3/1 2/4/1
f 6/5/2 8/6/2 12/7/2 10/8/2
f 4/9/3 3/10/3 7/11/3 8/12/3
f 1/9/4 2/10/4 6/11/4 5/12/4
f 2/10/5 4/9/5 8/12/5 6/11/5
f 3/10/6 1/9/6 5/12/6 7/11/6
f 10/13/5 12/14/5 16/15/5 14/16/5
f 7/5/7 5/6/7 9/7/7 11/8/7
f 8/6/8 7/5/8 11/8/8 12/7/8
f 5/6/9 6/5/9 10/8/9 9/7/9
f 16/7/10 15/8/10 19/5/10 20/6/10
f 11/13/6 9/14/6 13/15/6 15/16/6
f 12/14/3 11/13/3 15/16/3 16/15/3
f 9/14/4 10/13/4 14/16/4 13/15/4
f 17/9/4 18/10/4 22/11/4 21/12/4
f 13/8/11 14/7/11 18/6/11 17/5/11
f 14/8/12 16/7/12 20/6/12 18/5/12
f 15/8/13 13/7/13 17/6/13 19/5/13
f 21/17/14 22/18/14 24/19/14 23/20/14
f 18/10/5 20/9/5 24/12/5 22/11/5
f 19/10/6 17/9/6 21/12/6 23/11/6
f 20/9/3 19/10/3 23/11/3 24/12/3
