# Blender 3.6.5
# www.blender.org
mtllib Inside_Poly_Barrel_01.mtl
o Sphere_Sphere.003
v 0.001224 0.472517 -0.311593
v 0.001224 0.621378 -0.272595
v 0.200071 0.621378 -0.192753
v 0.228520 0.472517 -0.220330
v 0.002089 0.009667 -0.272725
v 0.001224 0.149841 -0.311593
v 0.228520 0.149841 -0.220330
v 0.201031 0.009667 -0.192845
v 0.001224 0.309890 -0.332029
v 0.243427 0.309890 -0.234780
v 0.001224 0.627943 -0.255866
v 0.001224 0.601437 -0.241143
v 0.177128 0.601437 -0.170513
v 0.187868 0.627943 -0.180924
v 0.006413 0.024058 -0.241923
v 0.003927 0.001903 -0.256272
v 0.190868 0.001903 -0.181212
v 0.182887 0.024058 -0.171066
v 0.322669 0.149841 0.000000
v 0.283436 0.009667 0.000000
v 0.322669 0.472517 0.000000
v 0.343751 0.309890 0.000000
v 0.249990 0.601437 0.000000
v 0.265179 0.627943 0.000000
v 0.282437 0.621378 0.000000
v 0.268301 0.001903 0.000000
v 0.255985 0.024058 0.000000
v 0.201031 0.009667 0.192846
v 0.190868 0.001903 0.181212
v 0.182887 0.024058 0.171066
v 0.243427 0.309890 0.234780
v 0.228520 0.149841 0.220330
v 0.200071 0.621378 0.192754
v 0.228520 0.472517 0.220330
v 0.177128 0.601437 0.170514
v 0.187868 0.627943 0.180925
v 0.001224 0.309890 0.332030
v 0.001224 0.149841 0.311594
v 0.001224 0.621378 0.272595
v 0.001224 0.472517 0.311594
v 0.002089 0.009667 0.272725
v 0.001224 0.601437 0.241144
v 0.001224 0.627943 0.255867
v 0.003927 0.001903 0.256272
v 0.006413 0.024058 0.241923
v -0.226072 0.149841 0.220330
v -0.196854 0.009667 0.192846
v -0.226072 0.472517 0.220330
v -0.240979 0.309890 0.234780
v -0.174681 0.601437 0.170514
v -0.185421 0.627943 0.180925
v -0.197624 0.621378 0.192754
v -0.183015 0.001903 0.181212
v -0.170061 0.024058 0.171066
v -0.320221 0.472517 0.000000
v -0.341303 0.309890 0.000000
v -0.247544 0.601437 0.000000
v -0.262732 0.627943 0.000000
v -0.279989 0.621378 0.000000
v -0.279258 0.009667 0.000000
v -0.260448 0.001903 0.000000
v -0.243158 0.024058 0.000000
v -0.320221 0.149841 0.000000
v -0.196854 0.009667 -0.192845
v -0.183015 0.001903 -0.181212
v -0.170061 0.024058 -0.171066
v -0.240979 0.309890 -0.234780
v -0.226072 0.149841 -0.220330
v -0.197624 0.621378 -0.192753
v -0.226072 0.472517 -0.220330
v -0.174681 0.601437 -0.170513
v -0.185421 0.627943 -0.180924
vn -0.4743 0.4816 -0.7369
vn -0.1686 0.4786 -0.8617
vn -0.0514 0.9636 -0.2624
vn -0.1376 0.9671 -0.2138
vn 0.1916 -0.0726 0.9788
vn 0.1892 -0.1728 0.9666
vn 0.5330 -0.1742 0.8280
vn 0.5398 -0.0732 0.8386
vn -0.2032 -0.9782 0.0423
vn -0.8599 -0.4780 0.1791
vn -0.7211 -0.4859 0.4939
vn -0.1470 -0.9840 0.1007
vn 0.5334 0.1696 0.8287
vn 0.1894 0.1683 0.9674
vn 0.1916 0.0723 0.9788
vn 0.5398 0.0729 0.8387
vn -0.2276 0.9612 0.1559
vn -0.2572 0.9649 0.0536
vn 0.3546 0.9321 -0.0739
vn 0.3010 0.9311 -0.2062
vn -0.1686 0.4786 0.8617
vn -0.4743 0.4816 0.7369
vn -0.1376 0.9671 0.2138
vn -0.0514 0.9636 0.2624
vn 0.5154 0.3052 0.8007
vn 0.1831 0.3030 0.9352
vn 0.1878 0.2104 0.9594
vn 0.5289 0.2120 0.8218
vn 0.2451 -0.8916 0.3808
vn 0.0847 -0.8974 0.4330
vn -0.0285 -0.9889 -0.1456
vn -0.1262 -0.9724 -0.1961
vn -0.1262 -0.9724 0.1961
vn -0.4682 -0.5018 0.7274
vn -0.1637 -0.5233 0.8363
vn -0.0285 -0.9889 0.1456
vn 0.2276 0.9612 -0.1559
vn 0.2572 0.9649 -0.0536
vn -0.3546 0.9321 0.0739
vn -0.3010 0.9311 0.2062
vn -0.9304 0.3110 -0.1938
vn -0.7847 0.3086 -0.5375
vn -0.8058 0.2144 -0.5520
vn -0.9558 0.2162 -0.1991
vn 0.1888 -0.9735 0.1293
vn 0.6628 -0.5955 0.4540
vn 0.7779 -0.6071 0.1620
vn 0.1788 -0.9832 0.0372
vn -0.7210 0.4861 0.4939
vn -0.8538 0.4893 0.1779
vn -0.9763 -0.0747 -0.2034
vn -0.8227 -0.0741 -0.5636
vn -0.8121 -0.1762 -0.5563
vn -0.9634 -0.1777 -0.2007
vn 0.9763 -0.0747 -0.2034
vn 0.9634 -0.1776 -0.2007
vn 0.8121 -0.1762 -0.5563
vn 0.8228 -0.0741 -0.5635
vn 0.8128 0.1716 -0.5568
vn 0.9642 0.1731 -0.2009
vn 0.9763 0.0744 -0.2034
vn 0.8228 0.0738 -0.5636
vn -0.7210 0.4861 -0.4939
vn -0.2276 0.9612 -0.1559
vn -0.2572 0.9649 -0.0536
vn -0.8538 0.4893 -0.1779
vn 0.4544 -0.8858 0.0946
vn 0.3801 -0.8876 0.2603
vn -0.1470 -0.9840 -0.1007
vn -0.2032 -0.9782 -0.0423
vn 0.9305 0.3109 0.1938
vn 0.7847 0.3086 0.5375
vn 0.8058 0.2145 0.5520
vn 0.9558 0.2162 0.1991
vn -0.5398 -0.0732 0.8386
vn -0.5330 -0.1742 0.8280
vn -0.1892 -0.1728 0.9666
vn -0.1916 -0.0726 0.9788
vn -0.7847 0.3086 0.5375
vn -0.9304 0.3110 0.1938
vn -0.9558 0.2162 0.1991
vn -0.8058 0.2145 0.5520
vn 0.0713 0.9285 0.3644
vn 0.1995 0.9295 0.3100
vn -0.8034 -0.2274 0.5503
vn -0.9529 -0.2294 0.1985
vn -0.9212 -0.3384 0.1919
vn -0.7776 -0.3343 0.5326
vn 0.5276 -0.2232 0.8197
vn 0.1873 -0.2219 0.9569
vn 0.1822 -0.3170 0.9308
vn 0.5136 -0.3154 0.7980
vn -0.1637 -0.5233 -0.8363
vn -0.4682 -0.5018 -0.7274
vn 0.2452 -0.8915 -0.3808
vn 0.0847 -0.8974 -0.4330
vn -0.9642 0.1731 0.2009
vn -0.9763 0.0744 0.2034
vn -0.8227 0.0738 0.5636
vn -0.8128 0.1716 0.5567
vn 0.0514 0.9636 -0.2624
vn 0.1376 0.9671 -0.2138
vn -0.1995 0.9295 0.3100
vn -0.0713 0.9285 0.3644
vn 0.0478 -0.9685 -0.2442
vn 0.0796 -0.9891 -0.1238
vn 0.4431 -0.5743 -0.6884
vn 0.1606 -0.5492 -0.8201
vn 0.9642 0.1731 0.2009
vn 0.8128 0.1716 0.5567
vn 0.8227 0.0738 0.5636
vn 0.9763 0.0744 0.2034
vn 0.1894 0.1683 -0.9674
vn 0.5334 0.1696 -0.8287
vn 0.5398 0.0729 -0.8387
vn 0.1916 0.0723 -0.9788
vn 0.1873 -0.2219 -0.9569
vn 0.5276 -0.2232 -0.8197
vn 0.5136 -0.3154 -0.7980
vn 0.1822 -0.3170 -0.9308
vn 0.1831 0.3030 -0.9352
vn 0.5154 0.3052 -0.8007
vn 0.5289 0.2120 -0.8218
vn 0.1878 0.2104 -0.9594
vn 0.1996 0.9295 -0.3100
vn 0.0713 0.9285 -0.3644
vn -0.5154 0.3052 -0.8007
vn -0.1831 0.3030 -0.9352
vn -0.1878 0.2104 -0.9594
vn -0.5289 0.2120 -0.8218
vn 0.3010 0.9311 0.2062
vn 0.3546 0.9321 0.0739
vn -0.1873 -0.2223 0.9568
vn -0.5274 -0.2245 0.8194
vn -0.5114 -0.3276 0.7945
vn -0.1819 -0.3213 0.9293
vn 0.1686 0.4786 -0.8617
vn 0.4743 0.4816 -0.7369
vn -0.5398 0.0729 -0.8386
vn -0.5334 0.1696 -0.8287
vn -0.1894 0.1683 -0.9674
vn -0.1916 0.0723 -0.9788
vn -0.1831 0.3030 0.9352
vn -0.5154 0.3052 0.8007
vn -0.5289 0.2120 0.8218
vn -0.1878 0.2104 0.9594
vn -0.5274 -0.2245 -0.8194
vn -0.1873 -0.2223 -0.9568
vn -0.1819 -0.3213 -0.9293
vn -0.5114 -0.3276 -0.7945
vn 0.1888 -0.9735 -0.1293
vn 0.1788 -0.9832 -0.0372
vn 0.7779 -0.6071 -0.1620
vn 0.6628 -0.5955 -0.4540
vn 0.8228 -0.0741 0.5635
vn 0.8121 -0.1762 0.5563
vn 0.9634 -0.1776 0.2007
vn 0.9763 -0.0747 0.2034
vn 0.7210 0.4861 -0.4939
vn 0.8538 0.4892 -0.1779
vn 0.8038 -0.2254 0.5506
vn 0.7828 -0.3157 0.5362
vn 0.9287 -0.3165 0.1934
vn 0.9534 -0.2270 0.1986
vn -0.3803 -0.9215 0.0792
vn -0.3269 -0.9182 0.2239
vn -0.8227 -0.0741 0.5636
vn -0.9763 -0.0747 0.2034
vn -0.9634 -0.1777 0.2007
vn -0.8121 -0.1762 0.5563
vn -0.1916 -0.0726 -0.9788
vn -0.1892 -0.1728 -0.9666
vn -0.5330 -0.1742 -0.8280
vn -0.5398 -0.0732 -0.8386
vn -0.9642 0.1731 -0.2009
vn -0.8128 0.1716 -0.5567
vn -0.8227 0.0738 -0.5636
vn -0.9763 0.0744 -0.2034
vn -0.9529 -0.2294 -0.1985
vn -0.8034 -0.2274 -0.5503
vn -0.7776 -0.3343 -0.5326
vn -0.9212 -0.3384 -0.1919
vn -0.3803 -0.9215 -0.0792
vn -0.3269 -0.9182 -0.2239
vn 0.7847 0.3086 -0.5375
vn 0.9304 0.3110 -0.1938
vn 0.9558 0.2162 -0.1991
vn 0.8058 0.2145 -0.5520
vn 0.2572 0.9649 0.0536
vn 0.2276 0.9612 0.1559
vn -0.3010 0.9311 -0.2062
vn -0.3546 0.9321 -0.0739
vn 0.7828 -0.3157 -0.5362
vn 0.8038 -0.2254 -0.5506
vn 0.9534 -0.2270 -0.1986
vn 0.9287 -0.3165 -0.1934
vn 0.1892 -0.1728 -0.9666
vn 0.1916 -0.0726 -0.9788
vn 0.5398 -0.0732 -0.8386
vn 0.5330 -0.1742 -0.8280
vn -0.5334 0.1696 0.8287
vn -0.5398 0.0729 0.8386
vn -0.1916 0.0723 0.9788
vn -0.1894 0.1683 0.9674
vn 0.0514 0.9636 0.2624
vn -0.0713 0.9285 -0.3644
vn -0.1995 0.9295 -0.3100
vn 0.1376 0.9671 0.2138
vn 0.8538 0.4892 0.1779
vn 0.7210 0.4861 0.4939
vn -0.7211 -0.4859 -0.4939
vn -0.8599 -0.4780 -0.1791
vn 0.4743 0.4816 0.7369
vn 0.1686 0.4786 0.8617
vn 0.0478 -0.9685 0.2442
vn 0.1606 -0.5492 0.8201
vn 0.4431 -0.5743 0.6884
vn 0.0796 -0.9891 0.1237
vn -0.2219 -0.9121 -0.3448
vn -0.0818 -0.9048 -0.4179
vn -0.0818 -0.9048 0.4178
vn -0.2219 -0.9121 0.3447
vn 0.4544 -0.8858 -0.0946
vn 0.3801 -0.8876 -0.2603
vt 0.788555 0.347594
vt 0.774187 0.347594
vt 0.774187 0.346035
vt 0.788555 0.346035
vt 0.788555 0.335855
vt 0.788555 0.323449
vt 0.774187 0.323449
vt 0.774187 0.335855
vt 0.774187 0.344476
vt 0.788555 0.344476
vt 0.774187 0.313917
vt 0.788555 0.313917
s 1
usemtl Material
f 35/1/1 42/2/2 43/3/3 36/4/4
f 37/5/5 38/6/6 32/7/7 31/8/8
f 26/3/9 27/9/10 18/10/11 17/4/12
f 34/8/13 40/5/14 37/6/15 31/7/16
f 14/4/17 24/3/18 25/9/19 3/10/20
f 12/1/21 13/2/22 14/3/23 11/4/24
f 33/8/25 39/5/26 40/10/27 34/9/28
f 28/1/29 41/2/30 44/3/31 29/4/32
f 17/3/33 18/9/34 15/10/35 16/4/36
f 51/4/37 58/3/38 59/9/39 52/10/40
f 59/8/41 69/5/42 70/10/43 55/9/44
f 65/3/45 66/9/46 62/10/47 61/4/48
f 13/1/49 23/2/50 24/3/18 14/4/17
f 56/8/51 67/5/52 68/6/53 63/7/54
f 22/5/55 19/6/56 7/7/57 10/8/58
f 4/8/59 21/5/60 22/6/61 10/7/62
f 35/2/63 36/3/64 24/4/65 23/1/66
f 20/1/67 28/2/68 29/3/69 26/4/70
f 25/8/71 33/5/72 34/10/73 21/9/74
f 49/5/75 46/6/76 38/7/77 37/8/78
f 52/8/79 59/5/80 55/10/81 48/9/82
f 43/3/3 39/9/83 33/10/84 36/4/4
f 46/6/85 63/7/86 60/11/87 47/12/88
f 32/6/89 38/7/90 41/11/91 28/12/92
f 29/4/32 44/3/31 45/9/93 30/10/94
f 8/2/95 17/3/33 16/4/36 5/1/96
f 55/5/97 56/6/98 49/7/99 48/8/100
f 43/4/101 51/3/102 52/9/103 39/10/104
f 44/4/105 53/3/106 54/9/107 45/10/108
f 21/8/109 34/5/110 31/6/111 22/7/112
f 1/8/113 4/5/114 10/6/115 9/7/116
f 6/6/117 7/7/118 8/11/119 5/12/120
f 2/8/121 3/5/122 4/10/123 1/9/124
f 11/4/24 14/3/23 3/9/125 2/10/126
f 69/8/127 2/5/128 1/10/129 70/9/130
f 24/4/65 36/3/64 33/9/131 25/10/132
f 38/6/133 46/7/134 47/11/135 41/12/136
f 42/1/137 50/2/138 51/3/102 43/4/101
f 67/7/139 70/8/140 1/5/141 9/6/142
f 39/8/143 52/5/144 48/10/145 40/9/146
f 68/6/147 6/7/148 5/11/149 64/12/150
f 53/4/151 61/3/152 62/9/153 54/10/154
f 31/5/155 32/6/156 19/7/157 22/8/158
f 50/1/159 57/2/160 58/3/38 51/4/37
f 32/7/161 28/11/162 20/12/163 19/6/164
f 60/2/165 61/3/152 53/4/151 47/1/166
f 49/8/167 56/5/168 63/6/169 46/7/170
f 9/5/171 6/6/172 68/7/173 67/8/174
f 55/8/175 70/5/176 67/6/177 56/7/178
f 63/6/179 68/7/180 64/11/181 60/12/182
f 60/1/183 64/2/184 65/3/45 61/4/48
f 3/8/185 25/5/186 21/10/187 4/9/188
f 58/4/189 72/3/190 69/9/191 59/10/192
f 8/12/193 7/6/194 19/7/195 20/11/196
f 6/7/197 9/8/198 10/5/199 7/6/200
f 48/5/201 49/6/202 37/7/203 40/8/204
f 11/3/205 2/9/206 69/10/207 72/4/208
f 57/1/209 71/2/210 72/3/190 58/4/189
f 29/3/69 30/9/211 27/10/212 26/4/70
f 71/1/213 12/2/214 11/3/205 72/4/208
f 16/3/215 15/9/216 66/10/217 65/4/218
f 64/1/219 5/2/220 16/3/215 65/4/218
f 41/1/221 47/2/222 53/3/106 44/4/105
f 20/2/223 26/3/9 17/4/12 8/1/224
o Sphere_Sphere.005
v -0.180461 0.600518 0.184473
v -0.000000 0.599606 -0.247979
v -0.175348 0.599606 -0.175348
v -0.247979 0.599606 0.000000
v -0.175348 0.599606 0.175348
v 0.000000 0.599606 0.247979
v 0.175348 0.599606 0.175348
v 0.247979 0.599606 0.000000
v 0.175348 0.599606 -0.175348
vn -0.0000 1.0000 -0.0000
vt 0.776697 0.369540
vt 0.767469 0.363674
vt 0.767511 0.355410
vt 0.776773 0.349589
vt 0.785038 0.349621
vt 0.794266 0.355487
vt 0.794223 0.363751
vt 0.784961 0.369572
s 0
usemtl Material
f 75/13/225 76/14/225 77/15/225 78/16/225 79/17/225 80/18/225 81/19/225 74/20/225
o Sphere_Sphere.001
v -0.180461 0.017938 0.184473
v -0.000000 0.017026 -0.247979
v -0.175348 0.017026 -0.175348
v -0.247979 0.017026 0.000000
v -0.175348 0.017026 0.175348
v 0.000000 0.017026 0.247979
v 0.175348 0.017026 0.175348
v 0.247979 0.017026 0.000000
v 0.175348 0.017026 -0.175348
vn -0.0000 1.0000 -0.0000
vt 0.776697 0.369540
vt 0.767469 0.363674
vt 0.767511 0.355410
vt 0.776773 0.349589
vt 0.785038 0.349621
vt 0.794266 0.355487
vt 0.794223 0.363751
vt 0.784961 0.369572
s 0
usemtl Material
f 84/21/226 85/22/226 86/23/226 87/24/226 88/25/226 89/26/226 90/27/226 83/28/226
