# Blender 3.6.5
# www.blender.org
mtllib Inside_Poly_Shelf_Wall_05.mtl
o Cylinder
v -0.222404 0.199869 -0.303919
v -0.222404 0.493153 -0.303919
v -0.153208 0.199869 -0.263969
v -0.153208 0.493153 -0.263969
v -0.153208 0.199869 -0.184068
v -0.153208 0.493153 -0.184068
v -0.222404 0.199869 -0.144117
v -0.222404 0.493153 -0.144117
v -0.291600 0.199869 -0.184068
v -0.291600 0.493153 -0.184068
v -0.291600 0.199869 -0.263969
v -0.291600 0.493153 -0.263969
v -0.222404 0.555616 -0.257994
v -0.192980 0.555616 -0.241006
v -0.192980 0.555616 -0.207030
v -0.222404 0.555616 -0.190042
v -0.251828 0.555616 -0.207030
v -0.251828 0.555616 -0.241006
v -0.108309 0.199869 -0.446607
v -0.108309 0.493153 -0.446607
v -0.039113 0.199869 -0.406656
v -0.039113 0.493153 -0.406656
v -0.039113 0.199869 -0.326755
v -0.039113 0.493153 -0.326755
v -0.108309 0.199869 -0.286805
v -0.108309 0.493153 -0.286805
v -0.177505 0.199869 -0.326755
v -0.177505 0.493153 -0.326755
v -0.177505 0.199869 -0.406656
v -0.177505 0.493153 -0.406656
v -0.108309 0.555616 -0.400682
v -0.078885 0.555616 -0.383694
v -0.078885 0.555616 -0.349718
v -0.108309 0.555616 -0.332730
v -0.137733 0.555616 -0.349718
v -0.137733 0.555616 -0.383694
v 0.050180 0.199869 -0.332069
v 0.050180 0.493153 -0.332069
v 0.119376 0.199869 -0.292118
v 0.119376 0.493153 -0.292118
v 0.119376 0.199869 -0.212217
v 0.119376 0.493153 -0.212217
v 0.050180 0.199869 -0.172267
v 0.050180 0.493153 -0.172267
v -0.019017 0.199869 -0.212217
v -0.019017 0.493153 -0.212217
v -0.019017 0.199869 -0.292118
v -0.019017 0.493153 -0.292118
v 0.050180 0.555616 -0.286144
v 0.079604 0.555616 -0.269156
v 0.079604 0.555616 -0.235180
v 0.050180 0.555616 -0.218192
v 0.020755 0.555616 -0.235180
v 0.020755 0.555616 -0.269156
v 0.163740 0.199869 -0.370439
v 0.163740 0.493153 -0.370439
v 0.239882 0.199869 -0.394658
v 0.239882 0.493153 -0.394658
v 0.298927 0.199869 -0.340827
v 0.298927 0.493153 -0.340827
v 0.281831 0.199869 -0.262776
v 0.281831 0.493153 -0.262776
v 0.205689 0.199869 -0.238557
v 0.205689 0.493153 -0.238557
v 0.146644 0.199869 -0.292388
v 0.146644 0.493153 -0.292388
v 0.197678 0.555616 -0.339498
v 0.230055 0.555616 -0.349797
v 0.255163 0.555616 -0.326906
v 0.247893 0.555616 -0.293717
v 0.215516 0.555616 -0.283418
v 0.190408 0.555616 -0.306309
vn 0.5000 -0.0000 -0.8660
vn 1.0000 -0.0000 -0.0000
vn 0.5000 -0.0000 0.8660
vn -0.5000 -0.0000 0.8660
vn 0.4218 0.5371 -0.7305
vn -1.0000 -0.0000 -0.0000
vn -0.5000 -0.0000 -0.8660
vn -0.0000 -1.0000 -0.0000
vn 0.4218 0.5371 0.7305
vn -0.4218 0.5371 -0.7305
vn -0.4218 0.5371 0.7305
vn 0.8435 0.5371 -0.0000
vn -0.8435 0.5371 -0.0000
vn -0.3031 -0.0000 -0.9530
vn 0.6737 -0.0000 -0.7390
vn 0.9768 -0.0000 0.2140
vn 0.3031 -0.0000 0.9530
vn -0.2557 0.5371 -0.8038
vn -0.6737 -0.0000 0.7390
vn -0.9768 -0.0000 -0.2140
vn 0.8240 0.5371 0.1805
vn -0.8240 0.5371 -0.1805
vn 0.2557 0.5371 0.8038
vn 0.5683 0.5371 -0.6233
vn -0.5683 0.5371 0.6233
vt 0.575539 0.465251
vt 0.575539 0.472288
vt 0.580460 0.472288
vt 0.580460 0.465251
vt 0.570671 0.472288
vt 0.570671 0.465251
vt 0.580454 0.465562
vt 0.580454 0.482747
vt 0.575426 0.482747
vt 0.575426 0.465562
vt 0.570658 0.482747
vt 0.570658 0.465562
vt 0.570619 0.465251
vt 0.580281 0.482747
vt 0.570645 0.465186
vt 0.575539 0.465186
vt 0.575539 0.472299
vt 0.570645 0.472299
vt 0.584338 0.468874
vt 0.584338 0.475912
vt 0.589170 0.475912
vt 0.589170 0.468874
vt 0.580981 0.475912
vt 0.580981 0.468874
vt 0.589170 0.469186
vt 0.589170 0.486370
vt 0.584225 0.486370
vt 0.584225 0.469186
vt 0.580981 0.486370
vt 0.580981 0.469186
vt 0.580981 0.468809
vt 0.584338 0.468809
vt 0.584338 0.475922
vt 0.580981 0.475922
vt 0.597130 0.465030
vt 0.597130 0.472067
vt 0.601961 0.472067
vt 0.601961 0.465030
vt 0.593773 0.472067
vt 0.593773 0.465030
vt 0.601961 0.465341
vt 0.601961 0.482525
vt 0.597017 0.482525
vt 0.597017 0.465341
vt 0.593773 0.482525
vt 0.593773 0.465341
vt 0.593773 0.464964
vt 0.597130 0.464964
vt 0.597130 0.472077
vt 0.593773 0.472077
vt 0.614246 0.467881
vt 0.614246 0.485065
vt 0.608696 0.485065
vt 0.608696 0.467881
vt 0.605452 0.485065
vt 0.605452 0.467881
s 0
usemtl Wood_CLock
f 1/1/1 2/2/1 4/3/1 3/4/1
f 3/1/2 4/2/2 6/5/2 5/6/2
f 5/7/3 6/8/3 8/9/3 7/10/3
f 7/10/4 8/9/4 10/11/4 9/12/4
f 4/3/5 2/2/5 13/1/5 14/4/5
f 9/4/6 10/3/6 12/2/6 11/1/6
f 11/6/7 12/5/7 2/2/7 1/1/7
f 1/1/8 3/4/8 5/4/8 7/1/8 9/13/8 11/13/8
f 8/9/9 6/14/9 15/14/9 16/9/9
f 2/6/10 12/1/10 18/2/10 13/5/10
f 10/15/11 8/16/11 16/17/11 17/18/11
f 6/1/12 4/6/12 14/5/12 15/2/12
f 12/2/13 10/3/13 17/4/13 18/1/13
f 19/19/1 20/20/1 22/21/1 21/22/1
f 21/19/2 22/20/2 24/23/2 23/24/2
f 23/25/3 24/26/3 26/27/3 25/28/3
f 25/28/4 26/27/4 28/29/4 27/30/4
f 22/21/5 20/20/5 31/19/5 32/22/5
f 27/22/6 28/21/6 30/20/6 29/19/6
f 29/24/7 30/23/7 20/20/7 19/19/7
f 19/19/8 21/22/8 23/22/8 25/19/8 27/24/8 29/24/8
f 26/27/9 24/26/9 33/26/9 34/27/9
f 20/24/10 30/19/10 36/20/10 31/23/10
f 28/31/11 26/32/11 34/33/11 35/34/11
f 24/19/12 22/24/12 32/23/12 33/20/12
f 30/20/13 28/21/13 35/22/13 36/19/13
f 37/35/1 38/36/1 40/37/1 39/38/1
f 39/35/2 40/36/2 42/39/2 41/40/2
f 41/41/3 42/42/3 44/43/3 43/44/3
f 43/44/4 44/43/4 46/45/4 45/46/4
f 40/37/5 38/36/5 49/35/5 50/38/5
f 45/38/6 46/37/6 48/36/6 47/35/6
f 47/40/7 48/39/7 38/36/7 37/35/7
f 37/35/8 39/38/8 41/38/8 43/35/8 45/40/8 47/40/8
f 44/43/9 42/42/9 51/42/9 52/43/9
f 38/40/10 48/35/10 54/36/10 49/39/10
f 46/47/11 44/48/11 52/49/11 53/50/11
f 42/35/12 40/40/12 50/39/12 51/36/12
f 48/36/13 46/37/13 53/38/13 54/35/13
f 55/35/14 56/36/14 58/37/14 57/38/14
f 57/35/15 58/36/15 60/39/15 59/40/15
f 59/51/16 60/52/16 62/53/16 61/54/16
f 61/54/17 62/53/17 64/55/17 63/56/17
f 58/37/18 56/36/18 67/35/18 68/38/18
f 63/38/19 64/37/19 66/36/19 65/35/19
f 65/40/20 66/39/20 56/36/20 55/35/20
f 55/35/8 57/38/8 59/38/8 61/35/8 63/40/8 65/40/8
f 62/43/21 60/42/21 69/42/21 70/43/21
f 56/40/22 66/35/22 72/36/22 67/39/22
f 64/47/23 62/48/23 70/49/23 71/50/23
f 60/35/24 58/40/24 68/39/24 69/36/24
f 66/36/25 64/37/25 71/38/25 72/35/25
o Cylinder.005
v -0.222404 0.555616 -0.257994
v -0.192980 0.555616 -0.241006
v -0.192980 0.555616 -0.207030
v -0.222404 0.555616 -0.190042
v -0.251828 0.555616 -0.207030
v -0.251828 0.555616 -0.241006
v -0.222404 0.727772 -0.257994
v -0.192980 0.727772 -0.241006
v -0.192980 0.727772 -0.207030
v -0.222404 0.727772 -0.190042
v -0.251828 0.727772 -0.207030
v -0.251828 0.727772 -0.241006
v -0.108309 0.555616 -0.400682
v -0.078885 0.555616 -0.383694
v -0.078885 0.555616 -0.349718
v -0.108309 0.555616 -0.332730
v -0.137733 0.555616 -0.349718
v -0.137733 0.555616 -0.383694
v -0.108309 0.727772 -0.400682
v -0.078885 0.727772 -0.383694
v -0.078885 0.727772 -0.349718
v -0.108309 0.727772 -0.332730
v -0.137733 0.727772 -0.349718
v -0.137733 0.727772 -0.383694
v 0.050180 0.555616 -0.286144
v 0.079604 0.555616 -0.269156
v 0.079604 0.555616 -0.235180
v 0.050180 0.555616 -0.218192
v 0.020755 0.555616 -0.235180
v 0.020755 0.555616 -0.269156
v 0.050180 0.727772 -0.286144
v 0.079604 0.727772 -0.269156
v 0.079604 0.727772 -0.235180
v 0.050180 0.727772 -0.218192
v 0.020755 0.727772 -0.235180
v 0.020755 0.727772 -0.269156
v 0.197678 0.555616 -0.339498
v 0.230055 0.555616 -0.349797
v 0.255163 0.555616 -0.326906
v 0.247893 0.555616 -0.293717
v 0.215516 0.555616 -0.283418
v 0.190408 0.555616 -0.306309
v 0.197678 0.727772 -0.339498
v 0.230055 0.727772 -0.349797
v 0.255163 0.727772 -0.326906
v 0.247893 0.727772 -0.293717
v 0.215516 0.727772 -0.283418
v 0.190408 0.727772 -0.306309
vn -0.5000 -0.0000 -0.8660
vn -0.0000 1.0000 -0.0000
vn -0.5000 -0.0000 0.8660
vn 1.0000 -0.0000 -0.0000
vn -1.0000 -0.0000 -0.0000
vn 0.5000 -0.0000 0.8660
vn 0.5000 -0.0000 -0.8660
vn -0.9768 -0.0000 -0.2140
vn 0.3031 -0.0000 0.9530
vn 0.6737 -0.0000 -0.7390
vn -0.6737 -0.0000 0.7390
vn 0.9768 -0.0000 0.2140
vn -0.3031 -0.0000 -0.9530
vt 0.576648 0.483656
vt 0.574498 0.483656
vt 0.574498 0.494087
vt 0.576648 0.494087
vt 0.576648 0.493194
vt 0.575515 0.493194
vt 0.574460 0.493194
vt 0.574460 0.495196
vt 0.575515 0.495196
vt 0.576648 0.495196
vt 0.585448 0.487279
vt 0.583856 0.487279
vt 0.583856 0.497710
vt 0.585448 0.497710
vt 0.585448 0.496817
vt 0.584314 0.496817
vt 0.583259 0.496817
vt 0.583259 0.498819
vt 0.584314 0.498819
vt 0.585448 0.498819
vt 0.598239 0.483434
vt 0.596648 0.483434
vt 0.596648 0.493865
vt 0.598239 0.493865
vt 0.598239 0.492972
vt 0.597106 0.492972
vt 0.596051 0.492972
vt 0.596051 0.494974
vt 0.597106 0.494974
vt 0.598239 0.494974
s 0
usemtl Wood_CLock
f 73/57/26 78/58/26 84/59/26 79/60/26
f 80/61/27 79/62/27 84/63/27 83/64/27 82/65/27 81/66/27
f 77/58/28 76/57/28 82/60/28 83/59/28
f 75/58/29 74/57/29 80/60/29 81/59/29
f 78/58/30 77/57/30 83/60/30 84/59/30
f 76/58/31 75/57/31 81/60/31 82/59/31
f 74/57/32 73/58/32 79/59/32 80/60/32
f 85/67/26 90/68/26 96/69/26 91/70/26
f 92/71/27 91/72/27 96/73/27 95/74/27 94/75/27 93/76/27
f 89/68/28 88/67/28 94/70/28 95/69/28
f 87/68/29 86/67/29 92/70/29 93/69/29
f 90/68/30 89/67/30 95/70/30 96/69/30
f 88/68/31 87/67/31 93/70/31 94/69/31
f 86/67/32 85/68/32 91/69/32 92/70/32
f 97/77/26 102/78/26 108/79/26 103/80/26
f 104/81/27 103/82/27 108/83/27 107/84/27 106/85/27 105/86/27
f 101/78/28 100/77/28 106/80/28 107/79/28
f 99/78/29 98/77/29 104/80/29 105/79/29
f 102/78/30 101/77/30 107/80/30 108/79/30
f 100/78/31 99/77/31 105/80/31 106/79/31
f 98/77/32 97/78/32 103/79/32 104/80/32
f 109/77/33 114/78/33 120/79/33 115/80/33
f 116/81/27 115/82/27 120/83/27 119/84/27 118/85/27 117/86/27
f 113/78/34 112/77/34 118/80/34 119/79/34
f 111/78/35 110/77/35 116/80/35 117/79/35
f 114/78/36 113/77/36 119/80/36 120/79/36
f 112/78/37 111/77/37 117/80/37 118/79/37
f 110/77/38 109/78/38 115/79/38 116/80/38
o Cube.003
v -0.350000 0.100000 -0.220000
v -0.350000 0.100000 -0.360000
v -0.350000 -0.170000 -0.500000
v -0.350000 -0.030000 -0.500000
v -0.250000 0.100000 -0.220000
v -0.250000 0.100000 -0.360000
v -0.250000 -0.170000 -0.500000
v -0.250000 -0.030000 -0.500000
v 0.250000 0.100000 -0.220000
v 0.250000 0.100000 -0.360000
v 0.250000 -0.170000 -0.500000
v 0.250000 -0.030000 -0.500000
v 0.350000 0.100000 -0.220000
v 0.350000 0.100000 -0.360000
v 0.350000 -0.170000 -0.500000
v 0.350000 -0.030000 -0.500000
vn -1.0000 -0.0000 -0.0000
vn -0.0000 -0.0000 -1.0000
vn 1.0000 -0.0000 -0.0000
vn -0.0000 1.0000 -0.0000
vn -0.0000 -0.7198 0.6941
vn -0.0000 0.7328 -0.6805
vt 0.956556 0.644352
vt 0.956556 0.638242
vt 0.942817 0.638242
vt 0.942832 0.644352
s 0
usemtl Wood_CLock
f 121/87/39 122/88/39 124/89/39 123/90/39
f 123/87/40 124/88/40 128/89/40 127/90/40
f 127/90/41 128/89/41 126/88/41 125/87/41
f 125/90/42 126/89/42 122/88/42 121/87/42
f 123/89/43 127/90/43 125/87/43 121/88/43
f 128/90/44 124/89/44 122/88/44 126/87/44
f 129/87/39 130/88/39 132/89/39 131/90/39
f 131/87/40 132/88/40 136/89/40 135/90/40
f 135/90/41 136/89/41 134/88/41 133/87/41
f 133/90/42 134/89/42 130/88/42 129/87/42
f 131/89/43 135/90/43 133/87/43 129/88/43
f 136/90/44 132/89/44 130/88/44 134/87/44
o Cube.001
v -0.400000 0.100000 -0.100000
v -0.400000 0.200000 -0.100000
v -0.400000 0.100000 -0.500000
v -0.400000 0.200000 -0.500000
v 0.400000 0.100000 -0.100000
v 0.400000 0.200000 -0.100000
v 0.400000 0.100000 -0.500000
v 0.400000 0.200000 -0.500000
vn -1.0000 -0.0000 -0.0000
vn -0.0000 -0.0000 -1.0000
vn 1.0000 -0.0000 -0.0000
vn -0.0000 -0.0000 1.0000
vn -0.0000 -1.0000 -0.0000
vn -0.0000 1.0000 -0.0000
vt 0.560728 0.331057
vt 0.560728 0.335599
vt 0.500542 0.335599
vt 0.500542 0.331057
vt 0.560728 0.336046
vt 0.560728 0.353971
vt 0.500542 0.353971
vt 0.500542 0.336046
s 0
usemtl Wood_CLock
f 137/91/45 138/92/45 140/93/45 139/94/45
f 139/95/46 140/96/46 144/97/46 143/98/46
f 143/94/47 144/93/47 142/92/47 141/91/47
f 141/94/48 142/93/48 138/92/48 137/91/48
f 139/97/49 143/96/49 141/95/49 137/98/49
f 144/96/50 140/97/50 138/98/50 142/95/50
