# Blender 3.6.5
# www.blender.org
mtllib Inside_Poly_Square_Pillar_02.mtl
o Cube.001
v -0.531842 0.000000 0.531842
v 0.531842 0.000000 0.531842
v -0.531842 0.000000 -0.531842
v 0.531842 0.000000 -0.531842
v -0.531842 0.197531 0.531842
v 0.531842 0.197531 0.531842
v -0.531842 0.197531 -0.531842
v 0.531842 0.197531 -0.531842
v -0.421621 0.298827 0.421621
v 0.421621 0.298827 0.421621
v -0.421621 0.298827 -0.421621
v 0.421621 0.298827 -0.421621
v -0.421621 0.890174 -0.421621
v -0.421621 0.890174 0.421621
v 0.421621 0.890174 0.421621
v 0.421621 0.890174 -0.421621
v 0.000000 0.000000 0.531842
v 0.000000 0.000000 -0.531842
v 0.000000 0.197531 0.531842
v 0.000000 0.197531 -0.531842
v 0.000000 0.298827 0.421621
v 0.000000 0.298827 -0.421621
v 0.000000 0.890174 0.421621
v 0.000000 0.805305 -0.421621
v -0.531842 0.000000 0.000000
v 0.531842 0.000000 0.000000
v -0.531842 0.197531 0.000000
v 0.531842 0.197531 0.000000
v -0.421621 0.298827 0.000000
v 0.421621 0.298827 0.000000
v -0.421621 0.890174 0.000000
v 0.421621 0.890174 0.000000
v 0.000000 0.890174 0.000000
v 0.000000 0.000000 0.000000
v -0.421621 1.183021 0.000000
v -0.421621 1.294395 0.421621
v 0.000000 1.183021 0.421621
v 0.000000 1.091005 0.000000
v 0.000000 1.068913 0.421621
v 0.421621 1.068913 0.421621
v 0.421621 0.982292 0.000000
v 0.000000 0.976896 0.000000
vn -0.0000 -1.0000 -0.0000
vn 0.6767 0.7363 -0.0000
vn -0.0000 -0.0000 -1.0000
vn -0.0000 -0.0000 1.0000
vn 1.0000 -0.0000 -0.0000
vn -1.0000 -0.0000 -0.0000
vn -0.6767 0.7363 -0.0000
vn -0.0000 0.7363 -0.6767
vn -0.0000 0.7363 0.6767
vn 0.0996 0.9900 -0.0996
vn -0.0996 0.9900 -0.0996
vn 0.2283 0.9465 -0.2283
vn -0.0063 0.9783 -0.2072
vt 0.093119 0.646442
vt 0.093119 0.633534
vt 0.113717 0.633534
vt 0.113717 0.646442
vt 0.092850 0.633317
vt 0.113758 0.633317
vt 0.109349 0.638683
vt 0.092850 0.638683
vt 0.092820 0.625599
vt 0.113793 0.625599
vt 0.113793 0.632671
vt 0.092820 0.632671
vt 0.113793 0.625599
vt 0.113793 0.632671
vt 0.093148 0.646039
vt 0.107932 0.646039
vt 0.107932 0.661580
vt 0.093148 0.661580
vt 0.093148 0.660152
vt 0.078197 0.660152
vt 0.078197 0.664599
vt 0.093148 0.664599
vt 0.078197 0.646039
vt 0.078197 0.663640
vt 0.093148 0.663640
vt 0.093148 0.662767
vt 0.107932 0.662767
vt 0.107932 0.663640
vt 0.107932 0.663665
vt 0.093148 0.663665
vt 0.093148 0.667572
vt 0.107932 0.668854
vt 0.071942 0.633317
vt 0.076350 0.638683
vt 0.071848 0.625599
vt 0.071848 0.632671
vt 0.072521 0.646442
vt 0.072521 0.633534
vt 0.072521 0.659351
vt 0.093119 0.659351
vt 0.078197 0.669910
vt 0.078197 0.663624
vt 0.093148 0.663624
vt 0.093148 0.669910
vt 0.093148 0.674062
vt 0.093148 0.663675
vt 0.107932 0.663675
vt 0.107932 0.674062
vt 0.071848 0.625599
vt 0.071848 0.632671
vt 0.113717 0.659351
vt 0.078197 0.676372
vt 0.093148 0.676372
vt 0.085413 0.658635
vt 0.100818 0.658635
vt 0.100818 0.669335
vt 0.085413 0.669335
vt 0.107932 0.672485
vt 0.093148 0.672485
vt 0.093148 0.661580
vt 0.107932 0.661580
vt 0.107932 0.667556
vt 0.093148 0.666018
vt 0.093148 0.675210
vt 0.107932 0.664599
vt 0.107932 0.675210
vt 0.092996 0.709229
vt 0.078197 0.661869
vt 0.093148 0.661869
vt 0.093148 0.668648
vt 0.078197 0.668648
vt 0.093148 0.661539
vt 0.107932 0.661539
vt 0.107932 0.664559
vt 0.093148 0.664559
s 0
usemtl Material
f 34/1/1 18/2/1 4/3/1 26/4/1
f 28/5/2 8/6/2 12/7/2 30/8/2
f 18/9/3 3/10/3 7/11/3 20/12/3
f 17/9/4 2/10/4 6/11/4 19/12/4
f 26/9/5 4/13/5 8/14/5 28/12/5
f 25/9/6 1/13/6 5/14/6 27/12/6
f 27/5/7 5/6/7 9/7/7 29/8/7
f 20/5/8 7/6/8 11/7/8 22/8/8
f 19/5/9 6/6/9 10/7/9 21/8/9
f 29/15/6 9/16/6 14/17/6 31/18/6
f 23/19/4 15/20/4 40/21/4 39/22/4
f 22/15/3 11/23/3 13/24/3 24/25/3
f 21/15/4 10/23/4 15/24/4 23/25/4
f 30/15/5 12/23/5 16/24/5 32/25/5
f 9/16/4 21/15/4 23/26/4 14/27/4
f 12/16/3 22/15/3 24/25/3 16/28/3
f 14/29/4 23/30/4 37/31/4 36/32/4
f 5/33/9 19/5/9 21/8/9 9/34/9
f 8/33/8 20/5/8 22/8/8 12/34/8
f 1/35/4 17/9/4 19/12/4 5/36/4
f 4/35/3 18/9/3 20/12/3 8/36/3
f 25/37/1 3/38/1 18/2/1 34/1/1
f 1/39/1 25/37/1 34/1/1 17/40/1
f 13/41/10 31/42/10 33/43/10 24/44/10
f 10/15/5 30/16/5 32/28/5 15/25/5
f 24/45/11 33/46/11 32/47/11 16/48/11
f 11/24/6 29/25/6 31/15/6 13/23/6
f 7/33/7 27/5/7 29/8/7 11/34/7
f 3/49/6 25/9/6 27/12/6 7/50/6
f 2/49/5 26/9/5 28/12/5 6/50/5
f 6/33/2 28/5/2 30/8/2 10/34/2
f 17/40/1 34/1/1 26/4/1 2/51/1
f 35/52/12 36/21/12 37/22/12 38/53/12
f 23/54/5 33/55/5 38/56/5 37/57/5
f 33/26/3 31/27/3 35/58/3 38/59/3
f 31/60/6 14/61/6 36/62/6 35/63/6
f 42/64/13 39/22/13 40/65/13 41/66/13
f 33/67/6 23/67/6 39/67/6 42/67/6
f 32/68/3 33/69/3 42/70/3 41/71/3
f 15/72/5 32/73/5 41/74/5 40/75/5
