# Blender v3.0.1 OBJ File: 'Inside_Poly_Pottery_01.blend'
# www.blender.org
mtllib Inside_Poly_Pottery_01.mtl
o Circle.001
v -0.000541 -0.000808 -0.233375
v -0.202614 -0.000808 -0.116708
v -0.202614 -0.000808 0.116626
v -0.000541 -0.000808 0.233293
v 0.201532 -0.000808 0.116626
v 0.201532 -0.000808 -0.116708
v -0.000541 0.138541 -0.356344
v -0.309108 0.138541 -0.178192
v -0.309108 0.138541 0.178110
v -0.000541 0.138541 0.356261
v 0.308026 0.138541 0.178110
v 0.308026 0.138541 -0.178192
v -0.000541 0.551758 -0.356344
v -0.309108 0.551758 -0.178192
v -0.309108 0.551758 0.178110
v -0.000541 0.551758 0.356261
v 0.308026 0.551758 0.178110
v 0.308026 0.551758 -0.178192
v -0.000461 0.624406 -0.196646
v -0.170726 0.624406 -0.098344
v -0.170726 0.624406 0.098261
v -0.000461 0.624406 0.196564
v 0.169803 0.624406 0.098261
v 0.169803 0.624406 -0.098344
v 0.360111 0.353839 -0.208264
v -0.000541 0.353839 -0.416487
v -0.000541 0.353839 0.416404
v 0.360111 0.353839 0.208181
v -0.361193 0.353839 -0.208264
v -0.361193 0.353839 0.208181
v -0.000461 0.678869 -0.196646
v -0.170726 0.678869 -0.098344
v -0.170726 0.678869 0.098261
v -0.000461 0.678869 0.196564
v 0.169803 0.678869 0.098261
v 0.169803 0.678869 -0.098344
v -0.000461 0.737179 -0.241425
v -0.209506 0.737179 -0.120733
v -0.209506 0.737179 0.120650
v -0.000461 0.737179 0.241342
v 0.208583 0.737179 0.120650
v 0.208583 0.737179 -0.120733
v -0.001241 0.762394 -0.216916
v -0.189060 0.762394 -0.108479
v -0.189060 0.762394 0.108396
v -0.001241 0.762394 0.216833
v 0.186578 0.762394 0.108396
v 0.186578 0.762394 -0.108479
v -0.001241 0.745790 -0.165469
v -0.144506 0.745790 -0.082755
v -0.144506 0.745790 0.082673
v -0.001241 0.745790 0.165387
v 0.142024 0.745790 0.082673
v 0.142024 0.745790 -0.082755
v -0.001122 0.322323 -0.171930
v -0.149981 0.322323 -0.085985
v -0.149981 0.322323 0.085903
v -0.001122 0.322323 0.171847
v 0.147738 0.322323 0.085903
v 0.147738 0.322323 -0.085985
vt 0.594948 0.315501
vt 0.594948 0.321334
vt 0.579870 0.321334
vt 0.589729 0.315501
vt 0.589729 0.315501
vt 0.579870 0.321334
vt 0.594948 0.321334
vt 0.594948 0.315501
vt 0.579870 0.321334
vt 0.589729 0.315501
vt 0.589729 0.315501
vt 0.579870 0.321334
vt 0.594948 0.315501
vt 0.594948 0.321334
vt 0.594948 0.315501
vt 0.594948 0.321334
vt 0.594948 0.330905
vt 0.594948 0.340475
vt 0.572744 0.340475
vt 0.572998 0.330905
vt 0.572998 0.330905
vt 0.572744 0.340475
vt 0.594948 0.340475
vt 0.594948 0.330905
vt 0.594948 0.330905
vt 0.594948 0.340475
vt 0.572744 0.340475
vt 0.572998 0.330905
vt 0.594948 0.330905
vt 0.594948 0.340475
vt 0.572744 0.340475
vt 0.572998 0.330905
vt 0.594948 0.343675
vt 0.572744 0.343675
vt 0.594948 0.343675
vt 0.572744 0.343675
vt 0.572744 0.343675
vt 0.594948 0.343675
vt 0.572744 0.343675
vt 0.594948 0.343675
vt 0.588781 0.363423
vt 0.588781 0.365563
vt 0.596998 0.365563
vt 0.596998 0.363423
vt 0.596998 0.363423
vt 0.596998 0.365563
vt 0.588781 0.365563
vt 0.588781 0.363423
vt 0.588781 0.363423
vt 0.588781 0.365563
vt 0.596998 0.365563
vt 0.596998 0.363423
vt 0.588781 0.363423
vt 0.588781 0.365563
vt 0.596998 0.365563
vt 0.596998 0.363423
vt 0.591467 0.343746
vt 0.591514 0.347299
vt 0.598548 0.347299
vt 0.598548 0.343746
vt 0.591168 0.343746
vt 0.591168 0.347299
vt 0.598548 0.347299
vt 0.598548 0.343746
vt 0.598548 0.343746
vt 0.598548 0.347299
vt 0.591168 0.347299
vt 0.591168 0.343746
vt 0.598548 0.347299
vt 0.598548 0.343746
vt 0.591607 0.343746
vt 0.591607 0.347299
vt 0.586375 0.347771
vt 0.586338 0.349914
vt 0.599976 0.349914
vt 0.599976 0.347771
vt 0.599976 0.347771
vt 0.599976 0.349914
vt 0.586338 0.349914
vt 0.586375 0.347771
vt 0.599976 0.347771
vt 0.599976 0.349914
vt 0.599976 0.349914
vt 0.599976 0.347771
vt 0.599837 0.350120
vt 0.599837 0.347923
vt 0.599837 0.347923
vt 0.599837 0.350120
vt 0.588840 0.350120
vt 0.588840 0.347923
vt 0.599837 0.347923
vt 0.599837 0.350120
vt 0.599837 0.350120
vt 0.599837 0.347923
vt 0.588840 0.347923
vt 0.588840 0.350120
vt 0.600790 0.360214
vt 0.600790 0.353329
vt 0.587131 0.353329
vt 0.587131 0.360214
vt 0.586881 0.360214
vt 0.586881 0.353329
vt 0.600790 0.353329
vt 0.600790 0.360214
vt 0.587703 0.360214
vt 0.587644 0.353329
vt 0.600790 0.353329
vt 0.600790 0.360214
vt 0.587131 0.353329
vt 0.587131 0.360214
vt 0.600790 0.353329
vt 0.600790 0.360214
vt 0.584413 0.356426
vt 0.584413 0.356426
vt 0.593880 0.356426
vt 0.603346 0.356426
vt 0.603346 0.356426
vt 0.593880 0.356426
vn -0.3973 -0.6072 0.6881
vn -0.3973 -0.6072 -0.6881
vn 0.3973 -0.6072 -0.6881
vn 0.3973 -0.6072 0.6881
vn -0.7945 -0.6072 0.0000
vn 0.7945 -0.6072 0.0000
vn 0.4835 0.2545 -0.8375
vn 0.4835 0.2545 0.8375
vn -0.9671 0.2545 0.0000
vn 0.9671 0.2545 0.0000
vn -0.4835 0.2545 0.8375
vn -0.4835 0.2545 -0.8375
vn 0.4652 0.8852 0.0000
vn -0.2325 0.8854 0.4026
vn -0.2325 0.8854 -0.4026
vn 0.2326 0.8852 -0.4028
vn 0.2326 0.8852 0.4028
vn -0.4648 0.8854 0.0000
vn -0.4860 -0.2351 -0.8417
vn -0.4860 -0.2351 0.8417
vn 0.9720 -0.2351 0.0000
vn -0.9720 -0.2351 0.0000
vn 0.4860 -0.2351 0.8417
vn 0.4860 -0.2351 -0.8417
vn 1.0000 0.0000 0.0000
vn -0.5000 0.0000 0.8660
vn -0.5000 0.0000 -0.8660
vn 0.5000 0.0000 -0.8660
vn 0.5000 0.0000 0.8660
vn -1.0000 0.0000 0.0000
vn 0.8327 -0.5538 0.0000
vn -0.4163 -0.5538 0.7211
vn -0.4163 -0.5538 -0.7211
vn 0.4163 -0.5538 -0.7211
vn 0.4163 -0.5538 0.7211
vn -0.8327 -0.5538 0.0000
vn 0.3796 0.6508 -0.6575
vn 0.3796 0.6508 0.6575
vn -0.7767 0.6298 0.0000
vn 0.7534 0.6575 0.0000
vn -0.3854 0.6370 0.6676
vn -0.3854 0.6370 -0.6676
vn -0.3492 0.9370 0.0000
vn 0.1746 0.9370 -0.3024
vn 0.1746 0.9370 0.3024
vn -0.1746 0.9370 0.3024
vn -0.1746 0.9370 -0.3024
vn 0.3492 0.9370 0.0000
vn -0.5000 -0.0134 -0.8659
vn 0.9999 -0.0129 -0.0000
vn -0.9999 -0.0135 0.0000
vn 0.5000 -0.0131 -0.8660
vn 0.5000 -0.0131 0.8660
vn -0.5000 -0.0134 0.8659
vn 0.0000 1.0000 0.0000
usemtl Wood_CLock
s off
f 4/1/1 10/2/1 9/3/1 3/4/1
f 2/5/2 8/6/2 7/7/2 1/8/2
f 1/8/3 7/7/3 12/9/3 6/10/3
f 5/11/4 11/12/4 10/2/4 4/1/4
f 3/13/5 9/14/5 8/6/5 2/5/5
f 6/15/6 12/16/6 11/12/6 5/11/6
f 26/17/7 13/18/7 18/19/7 25/20/7
f 28/21/8 17/22/8 16/23/8 27/24/8
f 30/25/9 15/26/9 14/27/9 29/28/9
f 25/29/10 18/30/10 17/22/10 28/21/10
f 27/24/11 16/23/11 15/31/11 30/32/11
f 29/28/12 14/27/12 13/18/12 26/17/12
f 18/30/13 24/33/13 23/34/13 17/22/13
f 16/23/14 22/35/14 21/36/14 15/31/14
f 14/27/15 20/37/15 19/38/15 13/18/15
f 13/18/16 19/38/16 24/39/16 18/19/16
f 17/22/17 23/34/17 22/35/17 16/23/17
f 15/26/18 21/40/18 20/37/18 14/27/18
f 8/6/19 29/28/19 26/17/19 7/7/19
f 10/2/20 27/24/20 30/32/20 9/3/20
f 12/16/21 25/29/21 28/21/21 11/12/21
f 9/14/22 30/25/22 29/28/22 8/6/22
f 11/12/23 28/21/23 27/24/23 10/2/23
f 7/7/24 26/17/24 25/20/24 12/9/24
f 24/41/25 36/42/25 35/43/25 23/44/25
f 22/45/26 34/46/26 33/47/26 21/48/26
f 20/49/27 32/50/27 31/51/27 19/52/27
f 19/52/28 31/51/28 36/42/28 24/41/28
f 23/53/29 35/54/29 34/46/29 22/45/29
f 21/48/30 33/47/30 32/55/30 20/56/30
f 36/57/31 42/58/31 41/59/31 35/60/31
f 34/61/32 40/62/32 39/63/32 33/64/32
f 32/65/33 38/66/33 37/67/33 31/68/33
f 31/68/34 37/67/34 42/69/34 36/70/34
f 35/60/35 41/59/35 40/62/35 34/61/35
f 33/71/36 39/72/36 38/66/36 32/65/36
f 37/73/37 43/74/37 48/75/37 42/76/37
f 41/77/38 47/78/38 46/79/38 40/80/38
f 39/81/39 45/82/39 44/83/39 38/84/39
f 42/76/40 48/75/40 47/78/40 41/77/40
f 40/80/41 46/79/41 45/82/41 39/81/41
f 38/84/42 44/83/42 43/74/42 37/73/42
f 48/85/43 54/86/43 53/87/43 47/88/43
f 46/89/44 52/90/44 51/91/44 45/92/44
f 44/93/45 50/94/45 49/95/45 43/96/45
f 43/96/46 49/95/46 54/86/46 48/85/46
f 47/88/47 53/87/47 52/90/47 46/89/47
f 45/92/48 51/91/48 50/94/48 44/93/48
f 53/97/49 59/98/49 58/99/49 52/100/49
f 51/101/50 57/102/50 56/103/50 50/104/50
f 54/105/51 60/106/51 59/98/51 53/97/51
f 52/100/52 58/99/52 57/107/52 51/108/52
f 50/104/53 56/103/53 55/109/53 49/110/53
f 49/110/54 55/109/54 60/111/54 54/112/54
f 56/113/55 57/114/55 58/115/55 59/116/55 60/117/55 55/118/55
