# Blender 3.6.5
# www.blender.org
mtllib Inside_Poly_Bed_01_Blanket_03.mtl
o Cube.003
v -0.457891 0.053317 1.297535
v -0.504958 0.500412 1.345330
v -0.504958 0.500412 0.024169
v -0.457891 0.053317 0.027467
v 0.504642 0.500354 0.483519
v 0.471425 0.053319 0.442180
v 0.457891 0.053317 1.297535
v 0.344932 0.645398 1.253088
v 0.350671 0.629873 0.570765
v -0.424997 0.595266 0.082056
v -0.454868 0.589707 1.281045
v 0.504958 0.500413 1.345330
v -0.459887 0.554410 0.073655
v -0.470239 0.536634 1.332291
v 0.457579 0.520366 1.312233
v 0.409429 0.594896 0.534285
v -0.096589 0.500354 0.070441
v -0.096589 0.645046 0.279011
v -0.115164 0.647588 1.281045
v 0.000000 0.053317 1.297535
v -0.093264 0.500413 1.394378
v -0.113568 0.601477 0.140994
v -0.093859 0.555616 1.333053
v -0.105056 0.229323 0.074471
v -0.503385 0.090999 1.345339
v 0.503385 0.090999 1.345339
v -0.503385 0.090999 0.026691
v 0.502177 0.091003 0.483744
v -0.100412 0.269717 0.061775
v -0.000000 0.090999 1.345339
v 0.253149 0.500354 0.158506
v 0.228946 0.053317 1.297535
v 0.159215 0.500413 1.384793
v 0.257191 0.611483 0.234656
v 0.207743 0.555616 1.333053
v 0.232307 0.141321 0.160138
v 0.206794 0.666090 0.461087
v 0.205797 0.647588 1.281045
v 0.251692 0.090999 1.384802
v 0.250005 0.180360 0.174572
v -0.504958 0.448810 0.642514
v -0.457891 0.053317 0.622645
v 0.464658 0.053318 0.830001
v 0.347801 0.580620 0.874282
v 0.433504 0.541295 0.882671
v -0.478439 0.530287 0.633212
v 0.504800 0.500383 0.872189
v -0.439932 0.551084 0.642514
v -0.105877 0.565834 0.740992
v 0.502781 0.091001 0.872306
v -0.503385 0.090999 0.643779
v 0.206295 0.656839 0.832030
v 0.460324 0.053317 1.078423
v -0.482089 0.530185 1.018661
v 0.504902 0.500402 1.121156
v -0.449499 0.567687 1.001521
v -0.111826 0.582574 1.036918
v 0.503168 0.090999 1.121203
v 0.205976 0.650913 1.069641
v -0.511201 0.476343 1.044441
v -0.488387 0.053317 1.020405
v 0.345963 0.573281 1.068703
v 0.448925 0.568149 1.105833
v -0.533881 0.090999 1.055575
v -0.488252 0.492141 0.315350
v -0.499829 0.053317 0.325056
v 0.349236 0.645010 0.722524
v 0.421467 0.541009 0.708478
v -0.545322 0.090999 0.335235
v 0.468042 0.053318 0.636090
v -0.465986 0.560332 0.316300
v 0.504721 0.500368 0.677854
v -0.432464 0.612020 0.362285
v -0.101233 0.699457 0.510001
v 0.502479 0.091002 0.678025
v 0.206545 0.661465 0.646559
v -0.260793 0.632251 0.180533
v -0.285016 0.618647 1.281045
v -0.300774 0.500383 0.047305
v -0.228946 0.053317 1.297535
v -0.299111 0.500412 1.345330
v -0.278782 0.593961 0.108874
v -0.282049 0.546125 1.332672
v -0.281474 0.141320 0.050969
v -0.301899 0.180358 0.044233
v -0.251692 0.090999 1.345339
v -0.272904 0.558459 0.691753
v -0.280663 0.588814 1.019220
v -0.266849 0.655738 0.436143
vn -0.9302 -0.3670 0.0071
vn -0.9975 0.0704 -0.0017
vn -0.9969 0.0671 -0.0410
vn -0.9199 -0.3853 -0.0724
vn -0.1997 0.9745 0.1025
vn -0.1619 0.9812 -0.1049
vn -0.1981 0.9770 -0.0784
vn -0.2183 0.9744 0.0545
vn -0.0335 -0.4314 0.9015
vn -0.0489 -0.0357 0.9982
vn -0.0000 -0.0000 1.0000
vn -0.0000 -0.2969 0.9549
vn 0.0068 0.3826 0.9239
vn 0.1481 0.3848 0.9110
vn -0.2204 0.7702 0.5986
vn -0.1739 0.8286 0.5322
vn 0.1366 0.6815 -0.7190
vn 0.0070 0.4652 -0.8852
vn 0.0559 0.4530 -0.8898
vn 0.0515 0.6963 -0.7159
vn -0.0388 0.7380 0.6737
vn 0.2472 0.2765 0.9287
vn 0.1251 0.2548 0.9589
vn 0.1432 0.7505 0.6451
vn 0.4176 0.9005 0.1213
vn 0.6757 0.7354 -0.0517
vn 0.7361 0.6715 0.0848
vn 0.4823 0.8672 0.1241
vn 0.3417 0.8926 0.2941
vn 0.8483 0.5028 -0.1659
vn 0.9456 0.3161 0.0765
vn 0.4061 0.9133 0.0304
vn -0.6721 0.7385 -0.0547
vn -0.9139 0.3277 0.2395
vn -0.9676 0.2519 0.0196
vn -0.7312 0.6796 -0.0589
vn -0.7759 0.6286 -0.0534
vn -0.8930 0.4384 0.1021
vn -0.8971 0.4418 0.0029
vn -0.7238 0.6899 -0.0079
vn 0.9148 -0.4040 0.0016
vn 1.0000 -0.0043 -0.0008
vn 1.0000 -0.0040 -0.0006
vn 0.9606 -0.2778 0.0007
vn 0.0039 0.8340 0.5518
vn 0.1364 0.6257 0.7680
vn 0.1471 0.6207 0.7701
vn 0.0816 0.8369 0.5413
vn 0.1235 -0.0404 -0.9915
vn 0.1573 -0.1079 -0.9816
vn 0.1095 -0.0033 -0.9940
vn 0.1041 -0.0011 -0.9946
vn 0.5908 -0.0256 -0.8064
vn 0.4746 -0.0408 -0.8793
vn 0.2286 -0.1300 -0.9648
vn 0.2022 -0.0457 -0.9783
vn -0.1531 0.6046 0.7817
vn 0.0179 0.3202 0.9472
vn 0.0404 0.5527 0.8324
vn -0.1253 0.7526 0.6464
vn 0.1251 0.9746 -0.1856
vn -0.0076 0.5216 -0.8532
vn 0.1733 0.4043 -0.8981
vn 0.0067 0.9893 -0.1458
vn 0.5073 0.7260 -0.4643
vn 0.3361 0.4810 -0.8097
vn 0.0764 0.4523 -0.8886
vn 0.1996 0.6723 -0.7129
vn -0.0212 0.9362 0.3508
vn 0.1578 0.7497 -0.6427
vn -0.0733 0.7973 -0.5991
vn -0.0312 0.9966 0.0765
vn 0.0357 -0.4581 0.8882
vn 0.0212 -0.0363 0.9991
vn -0.0861 -0.0757 0.9934
vn -0.0569 -0.4869 0.8716
vn 0.0598 0.9927 0.1049
vn 0.1215 0.9884 -0.0915
vn -0.0291 0.9888 -0.1462
vn -0.1170 0.9855 0.1232
vn -0.0066 -0.8751 0.4838
vn -0.0200 -0.8296 0.5580
vn 0.5451 -0.0190 -0.8382
vn 0.1867 0.0017 -0.9824
vn 0.0975 0.0106 -0.9952
vn 0.0996 0.0008 -0.9950
vn 0.6621 -0.7494 0.0047
vn 0.6471 -0.7624 0.0032
vn -0.0000 -0.7853 0.6191
vn -0.6331 -0.7740 -0.0116
vn -0.6408 -0.7626 -0.0887
vn 0.7816 -0.0199 -0.6235
vn 0.7764 -0.0185 -0.6300
vn 0.0387 -0.8808 0.4719
vn 0.1119 -0.3669 0.9235
vn 0.2204 0.9680 0.1204
vn 0.1992 0.9795 -0.0295
vn 0.1310 0.0146 0.9913
vn 0.6277 0.6820 -0.3754
vn 0.7506 0.4350 -0.4973
vn 0.1671 0.3017 0.9386
vn -0.1699 0.7262 0.6662
vn 0.7667 -0.0157 -0.6418
vn -0.0106 0.9205 0.3907
vn 0.7346 0.5182 -0.4381
vn 0.2268 0.9609 -0.1588
vn 0.7188 0.6952 0.0024
vn 0.7439 0.6173 -0.2559
vn 0.2891 0.9291 0.2308
vn 0.2620 0.9620 0.0765
vn 0.2940 0.9530 -0.0729
vn 0.0942 0.9947 -0.0423
vn 0.0759 0.9935 0.0843
vn 0.7438 -0.6684 0.0059
vn 0.9323 -0.3616 0.0025
vn 0.9251 -0.3796 0.0024
vn 0.7096 -0.7045 0.0056
vn -0.6535 -0.7555 -0.0462
vn -0.9201 -0.3917 0.0019
vn -0.9139 -0.4046 0.0315
vn -0.6264 -0.7778 0.0520
vn 1.0000 -0.0055 -0.0010
vn 1.0000 -0.0049 -0.0010
vn -0.8534 0.5168 -0.0676
vn -0.9577 0.2752 0.0844
vn -0.9709 0.2306 0.0652
vn -0.8861 0.4515 -0.1050
vn 0.4864 0.8736 0.0180
vn 0.8123 0.5239 -0.2562
vn -0.1282 0.9902 -0.0548
vn -0.1072 0.9892 0.1002
vn -0.1543 0.9874 -0.0339
vn -0.1373 0.9864 0.0900
vn -0.9391 0.3412 0.0410
vn -0.8991 0.3911 0.1965
vn -0.8535 0.4824 0.1970
vn -0.4632 0.8734 -0.1502
vn -0.5141 0.8550 -0.0680
vn -0.5928 0.8005 -0.0883
vn -0.1659 0.9860 0.0170
vn -0.1710 0.9829 0.0689
vn -0.9542 -0.2910 0.0692
vn -0.9978 0.0274 0.0609
vn -0.9995 0.0264 -0.0149
vn -0.0985 0.9851 -0.1411
vn -0.1406 0.9853 -0.0969
vn 0.5037 0.8610 0.0706
vn 0.7494 0.6559 0.0901
vn 0.7080 0.6942 -0.1294
vn 0.4777 0.8780 0.0302
vn 0.0672 0.9863 -0.1509
vn -0.0774 0.9841 -0.1596
vn -0.6009 -0.7967 0.0647
vn 0.2554 0.9527 -0.1648
vn -0.9992 0.0339 0.0220
vn -0.8035 0.5938 0.0417
vn -0.9418 0.3361 -0.0019
vn 0.9107 -0.4131 0.0033
vn 1.0000 -0.0057 -0.0010
vn 0.7530 -0.6580 0.0060
vn 0.2938 0.9472 0.1280
vn 0.5584 0.8259 -0.0779
vn 0.0132 0.4297 0.9029
vn -0.0304 0.1732 0.9844
vt 0.901063 0.566436
vt 0.900990 0.586848
vt 0.882976 0.586848
vt 0.883050 0.566363
vt 0.889887 0.631032
vt 0.890274 0.644207
vt 0.879783 0.649284
vt 0.879306 0.634839
vt 0.890507 0.567361
vt 0.887472 0.583313
vt 0.875157 0.583367
vt 0.875308 0.567476
vt 0.875285 0.589090
vt 0.888113 0.589090
vt 0.888726 0.591504
vt 0.877875 0.591504
vt 0.887991 0.648071
vt 0.887720 0.654981
vt 0.875133 0.656174
vt 0.875133 0.650877
vt 0.917644 0.591504
vt 0.917768 0.589090
vt 0.936146 0.589090
vt 0.926533 0.592802
vt 0.936073 0.612298
vt 0.932186 0.614137
vt 0.932262 0.626452
vt 0.936073 0.623836
vt 0.926808 0.616270
vt 0.936073 0.616752
vt 0.936073 0.625973
vt 0.926900 0.624092
vt 0.878218 0.601888
vt 0.875285 0.600342
vt 0.562187 0.592335
vt 0.558134 0.592092
vt 0.558134 0.579158
vt 0.562187 0.579146
vt 0.884939 0.566862
vt 0.884941 0.586860
vt 0.875405 0.586860
vt 0.875405 0.566862
vt 0.921260 0.586560
vt 0.921541 0.583375
vt 0.936919 0.583375
vt 0.936358 0.586560
vt 0.913434 0.652964
vt 0.915258 0.653975
vt 0.919624 0.645728
vt 0.917893 0.643533
vt 0.886868 0.671749
vt 0.888180 0.674644
vt 0.911002 0.668117
vt 0.910658 0.665122
vt 0.891064 0.586560
vt 0.890784 0.583375
vt 0.906162 0.583375
vt 0.906162 0.586560
vt 0.887991 0.648892
vt 0.875133 0.651698
vt 0.877732 0.645798
vt 0.919511 0.643195
vt 0.921727 0.652080
vt 0.900765 0.652080
vt 0.900696 0.646086
vt 0.917707 0.629746
vt 0.900765 0.639131
vt 0.922335 0.567129
vt 0.916450 0.583192
vt 0.900428 0.583259
vt 0.906347 0.567245
vt 0.917691 0.620185
vt 0.900469 0.627224
vt 0.920786 0.566000
vt 0.906612 0.566106
vt 0.886634 0.648473
vt 0.910374 0.648473
vt 0.898290 0.652651
vt 0.898522 0.642990
vt 0.886758 0.565259
vt 0.877438 0.565259
vt 0.892554 0.566212
vt 0.874667 0.567476
vt 0.878497 0.566318
vt 0.901086 0.560025
vt 0.883072 0.559960
vt 0.894621 0.642929
vt 0.925965 0.642711
vt 0.923308 0.665342
vt 0.898788 0.665452
vt 0.932987 0.565995
vt 0.936885 0.567011
vt 0.936885 0.572871
vt 0.937016 0.583099
vt 0.930271 0.626059
vt 0.936866 0.627157
vt 0.921727 0.652182
vt 0.900940 0.589090
vt 0.899579 0.591504
vt 0.929299 0.644214
vt 0.926553 0.666193
vt 0.934421 0.625973
vt 0.936073 0.589090
vt 0.936073 0.595719
vt 0.926599 0.598425
vt 0.926717 0.608447
vt 0.917676 0.610625
vt 0.917655 0.598377
vt 0.905283 0.565259
vt 0.903499 0.566862
vt 0.895526 0.566862
vt 0.897325 0.565259
vt 0.923328 0.563023
vt 0.923283 0.565706
vt 0.899418 0.565530
vt 0.899463 0.562857
vt 0.903506 0.586859
vt 0.895531 0.586859
vt 0.562187 0.634187
vt 0.558134 0.633134
vt 0.558134 0.615142
vt 0.562187 0.615840
vt 0.936073 0.607531
vt 0.900172 0.615318
vt 0.899792 0.600063
vt 0.889500 0.617856
vt 0.889005 0.600976
vt 0.875285 0.651698
vt 0.875285 0.636046
vt 0.875285 0.620394
vt 0.878829 0.620394
vt 0.936736 0.573764
vt 0.936749 0.586848
vt 0.923357 0.586848
vt 0.923344 0.565629
vt 0.936073 0.577685
vt 0.931956 0.577192
vt 0.932011 0.586045
vt 0.936073 0.585980
vt 0.936720 0.563116
vt 0.936675 0.565804
vt 0.899491 0.586848
vt 0.899478 0.565635
vt 0.875262 0.636681
vt 0.879676 0.636681
vt 0.879479 0.613084
vt 0.875256 0.613084
vt 0.910180 0.566862
vt 0.910190 0.586858
vt 0.902666 0.586859
vt 0.902659 0.566862
vt 0.911948 0.565259
vt 0.903700 0.565259
vt 0.880790 0.565393
vt 0.880835 0.562728
vt 0.936073 0.600761
vt 0.932109 0.601822
vt 0.880863 0.586848
vt 0.880849 0.565639
vt 0.925600 0.671749
vt 0.925517 0.648471
vt 0.875966 0.586560
vt 0.875405 0.583375
vt 0.924085 0.674644
vt 0.887720 0.652080
vt 0.906347 0.571151
vt 0.890507 0.571267
s 1
usemtl Material
f 69/1/1 65/2/2 3/3/3 27/4/4
f 89/5/5 77/6/6 10/7/7 73/8/8
f 86/9/9 81/10/10 2/11/11 25/12/12
f 14/13/13 83/14/14 78/15/15 11/16/16
f 82/17/17 79/18/18 3/19/19 13/20/20
f 38/21/21 35/22/22 15/23/23 8/24/24
f 68/25/25 72/26/26 5/27/27 16/28/28
f 67/29/29 68/30/30 16/31/31 9/32/32
f 56/33/33 54/34/34 14/13/35 11/16/36
f 54/35/37 60/36/38 2/37/39 14/38/40
f 58/39/41 55/40/42 12/41/43 26/42/44
f 35/43/45 33/44/46 12/45/47 15/46/48
f 85/47/49 84/48/50 4/49/51 27/50/52
f 40/51/53 36/52/54 24/53/55 29/54/56
f 83/55/57 81/56/58 21/57/59 23/58/60
f 77/6/61 82/59/62 13/60/63 10/61/64
f 34/62/65 31/63/66 17/64/67 22/65/68
f 37/66/69 34/62/70 22/65/71 18/67/72
f 39/68/73 33/69/74 21/70/75 30/71/76
f 76/72/77 37/66/78 18/67/79 74/73/80
f 32/74/81 39/68/73 30/71/76 20/75/82
f 31/76/83 40/51/53 29/54/56 17/77/84
f 79/78/85 85/47/49 27/50/52 3/79/86
f 53/80/87 58/39/41 26/42/44 7/81/88
f 80/82/89 86/9/9 25/83/12 1/84/89
f 66/85/90 69/1/1 27/4/4 4/86/91
f 5/87/92 28/88/93 40/89/53 31/90/83
f 7/91/94 26/92/95 39/68/73 32/74/81
f 67/29/96 9/32/97 37/66/78 76/72/77
f 26/93/95 12/94/98 33/69/74 39/68/73
f 16/95/99 5/96/100 31/97/66 34/62/65
f 78/15/15 83/14/14 23/98/101 19/99/102
f 28/88/93 6/100/103 36/101/54 40/89/53
f 23/58/60 21/57/59 33/44/46 35/43/45
f 9/32/104 16/102/105 34/62/70 37/66/69
f 8/24/106 15/103/107 63/104/108 62/105/109
f 62/105/110 44/106/111 52/107/112 59/108/113
f 70/109/114 75/110/115 50/111/116 43/112/117
f 61/113/118 64/114/119 51/115/120 42/116/121
f 75/110/115 72/117/122 47/118/123 50/111/116
f 71/119/124 65/120/125 41/121/126 46/122/127
f 44/106/128 45/123/129 68/30/30 67/29/29
f 59/108/113 52/107/112 49/124/130 57/125/131
f 57/125/131 49/124/130 87/126/132 88/127/133
f 13/128/134 71/129/135 46/130/136 48/131/137 73/8/138 10/7/139
f 88/127/133 87/126/132 48/131/140 56/33/141
f 25/132/142 2/133/143 60/134/144 64/135/119
f 78/15/145 88/127/133 56/33/141 11/16/146
f 62/105/109 63/104/108 45/123/129 44/106/128
f 15/136/147 12/137/148 55/138/149 63/139/150
f 38/21/151 59/108/113 57/125/131 19/99/152
f 1/140/153 25/141/142 64/114/119 61/113/118
f 8/24/154 62/105/110 59/108/113 38/21/151
f 64/135/119 60/134/144 41/142/155 51/143/120
f 43/112/117 50/111/116 58/39/41 53/80/87
f 50/111/116 47/118/123 55/40/42 58/39/41
f 13/144/156 3/145/157 65/146/125 71/147/124
f 28/148/158 5/149/159 72/150/122 75/151/115
f 6/152/160 28/148/158 75/151/115 70/153/114
f 44/106/111 67/29/96 76/72/77 52/107/112
f 42/116/121 51/115/120 69/154/1 66/155/90
f 52/107/112 76/72/77 74/73/80 49/124/130
f 45/156/161 47/157/162 72/26/26 68/25/25
f 87/126/132 89/5/5 73/8/8 48/131/140
f 51/143/120 41/142/155 65/158/2 69/159/1
f 63/139/150 55/138/149 47/157/162 45/156/161
f 46/122/127 41/121/126 60/36/38 54/35/37
f 56/33/33 48/131/137 46/130/136 54/34/34
f 19/99/102 23/98/101 35/22/22 38/21/21
f 18/67/72 22/65/71 82/59/62 77/6/61
f 49/124/130 74/73/80 89/5/5 87/126/132
f 19/99/152 57/125/131 88/127/133 78/15/145
f 20/75/82 30/71/76 86/9/9 80/82/89
f 17/77/84 29/54/56 85/160/49 79/161/85
f 14/162/163 2/163/164 81/56/58 83/55/57
f 29/54/56 24/53/55 84/164/50 85/160/49
f 22/65/68 17/64/67 79/165/18 82/59/17
f 30/166/76 21/70/75 81/10/10 86/167/9
f 74/73/80 18/67/79 77/6/6 89/5/5
o Cube.004
v -0.235894 0.502321 0.015792
v -0.235894 0.530794 0.015792
v -0.309165 0.502321 -0.215342
v -0.309165 0.559268 -0.215342
v 0.273361 0.507211 -0.034734
v 0.273361 0.537515 -0.034734
v 0.241508 0.504270 -0.235811
v 0.240525 0.564416 -0.249807
v -0.295771 0.502321 -0.097339
v -0.295771 0.587742 -0.097339
v 0.295771 0.500490 -0.155986
v 0.295771 0.591403 -0.155986
v 0.167922 0.494794 -0.294184
v 0.167922 0.605139 -0.294184
v 0.201791 0.494794 0.004205
v 0.201791 0.530794 0.004205
v 0.184857 0.602794 -0.144989
v 0.184857 0.494794 -0.144989
v -0.201791 0.494794 -0.257530
v -0.167922 0.530794 0.040860
v -0.184857 0.494794 -0.108335
v -0.201791 0.566794 -0.257530
v -0.167922 0.494794 0.040860
v -0.184857 0.602794 -0.108335
v -0.013955 0.605378 -0.249602
v 0.013955 0.501130 -0.043096
v -0.000000 0.590124 -0.126662
v -0.013955 0.501130 -0.249602
v 0.013955 0.530794 -0.043096
v -0.000000 0.501130 -0.126662
v -0.091466 0.576120 -0.169956
v 0.080661 0.577208 -0.171542
v -0.048100 0.673171 -0.161175
v 0.036516 0.673706 -0.161954
v 0.031163 0.669483 -0.196283
v 0.069629 0.604311 -0.237987
v 0.031917 0.660318 -0.129198
v 0.071162 0.585669 -0.101522
v -0.043430 0.669012 -0.195596
v -0.082111 0.603352 -0.236589
v -0.042677 0.659847 -0.128511
v -0.080577 0.584710 -0.100123
v -0.005356 0.664407 -0.124580
v -0.005872 0.693307 -0.159679
v -0.004581 0.574272 -0.093998
v -0.006289 0.595035 -0.245984
v -0.006196 0.674614 -0.199295
v -0.005240 0.622355 -0.133563
v -0.005969 0.631216 -0.198421
v 0.027125 0.626992 -0.166294
v -0.038333 0.626579 -0.165691
v 0.021226 0.623486 -0.140855
v 0.020655 0.630421 -0.191618
v -0.032434 0.630085 -0.191129
v -0.031864 0.623150 -0.140366
v -0.082732 0.562161 0.014233
v -0.015025 0.560210 -0.033179
v -0.035938 0.586288 -0.052196
v -0.009641 0.523268 -0.017595
v -0.095625 0.588008 -0.010400
v -0.069327 0.524988 0.024202
v -0.035915 0.523608 0.007770
v -0.040377 0.573748 0.000772
v -0.065203 0.593795 -0.030767
v -0.059906 0.510274 -0.021773
v -0.077777 0.553100 -0.045287
v -0.050433 0.531157 -0.046421
v -0.087250 0.532218 -0.020640
v -0.046918 0.514498 -0.034783
v -0.060906 0.548017 -0.053187
v -0.090765 0.548877 -0.032277
v -0.076778 0.515358 -0.013873
vn -0.9936 -0.0000 0.1128
vn 0.5646 -0.0643 -0.8229
vn 0.9833 -0.0000 0.1817
vn -0.3460 -0.0000 0.9382
vn 0.1060 -0.9940 0.0268
vn -0.1105 0.8788 0.4643
vn -0.1523 0.9646 -0.2155
vn 0.0935 -0.9946 -0.0455
vn 0.8477 -0.0435 -0.5288
vn -0.8838 -0.0000 0.4678
vn -0.0339 -0.9994 0.0038
vn 0.2993 0.9363 -0.1838
vn 0.1380 0.8969 0.4203
vn -0.0343 -0.9994 0.0046
vn 0.4779 -0.0000 0.8784
vn -0.2381 -0.0000 -0.9712
vn -0.3657 -0.0000 -0.9307
vn -0.0858 -0.9960 0.0251
vn -0.0669 -0.9977 0.0076
vn -0.0711 0.9952 -0.0678
vn 0.1607 0.8686 0.4687
vn 0.4191 -0.0000 0.9079
vn -0.2442 -0.0000 0.9697
vn -0.0681 0.8650 0.4971
vn -0.0223 0.9975 0.0670
vn 0.0422 -0.0000 -0.9991
vn 0.0333 -0.9994 -0.0044
vn 0.0339 -0.9994 -0.0038
vn 0.6329 0.7717 0.0620
vn 0.0101 0.8358 -0.5490
vn -0.0172 0.6831 0.7302
vn 0.2848 0.9092 -0.3036
vn -0.6383 0.7557 0.1465
vn 0.2846 0.8058 0.5193
vn 0.1647 -0.2703 0.9486
vn -0.3017 0.9059 -0.2973
vn 0.9568 -0.2227 -0.1867
vn -0.1606 -0.0857 -0.9833
vn -0.9578 -0.2605 0.1212
vn -0.2848 0.8022 0.5248
vn -0.1437 -0.2718 0.9516
vn 0.9628 -0.2508 0.1009
vn 0.1435 -0.0841 -0.9861
vn -0.9582 -0.2325 -0.1666
vn -0.6405 0.7643 0.0754
vn -0.0308 0.8355 -0.5486
vn 0.6322 0.7632 0.1334
vn 0.0220 0.6833 0.7298
vn 0.5483 0.8023 0.2359
vn 0.7592 0.2425 0.6040
vn 0.2364 -0.9608 0.1446
vn 0.0859 0.7990 0.5952
vn 0.4367 -0.2065 -0.8756
vn -0.6179 0.3749 -0.6912
vn -0.9011 -0.3017 0.3115
vn 0.3272 0.2443 0.9128
vn 0.0278 -0.9504 0.3099
vn 0.5036 -0.3233 -0.8012
vn -0.4264 0.3652 -0.8275
vn -0.9585 -0.1839 0.2181
vt 0.888289 0.658758
vt 0.891934 0.658777
vt 0.891934 0.665233
vt 0.888289 0.662821
vt 0.917571 0.666495
vt 0.917571 0.662821
vt 0.924078 0.662821
vt 0.924078 0.663871
vt 0.921192 0.658780
vt 0.924078 0.658758
vt 0.924078 0.654632
vt 0.921192 0.651803
vt 0.895087 0.654632
vt 0.895087 0.654632
vt 0.888289 0.654632
vt 0.917571 0.658758
vt 0.917571 0.654632
vt 0.895087 0.658758
vt 0.895087 0.662821
vt 0.917571 0.662821
vt 0.921192 0.665650
vt 0.891934 0.652220
vt 0.906248 0.659919
vt 0.906248 0.657398
vt 0.917571 0.654632
vt 0.906248 0.654837
vt 0.906248 0.662162
vt 0.906248 0.659919
vt 0.888289 0.663988
vt 0.895087 0.666378
vt 0.895087 0.658758
vt 0.906248 0.657398
vt 0.906248 0.654837
vt 0.914323 0.668114
vt 0.908805 0.669647
vt 0.908390 0.668817
vt 0.914610 0.665903
vt 0.905731 0.668680
vt 0.905704 0.670461
vt 0.908072 0.670359
vt 0.912493 0.671542
vt 0.906651 0.661440
vt 0.905792 0.668491
vt 0.903212 0.668645
vt 0.898206 0.666144
vt 0.920649 0.652844
vt 0.920856 0.655325
vt 0.921937 0.655353
vt 0.920646 0.652286
vt 0.897586 0.668385
vt 0.902739 0.669432
vt 0.903385 0.670183
vt 0.899043 0.671773
vt 0.919173 0.655227
vt 0.919109 0.652393
vt 0.916268 0.653194
vt 0.915908 0.655102
vt 0.920217 0.657724
vt 0.920121 0.658229
vt 0.917692 0.653455
vt 0.917048 0.652903
vt 0.917426 0.656904
vt 0.917735 0.655201
vt 0.915995 0.657005
vt 0.918649 0.657980
vt 0.916715 0.657367
vt 0.888676 0.668993
vt 0.887133 0.665991
vt 0.886049 0.666420
vt 0.888980 0.669687
vt 0.888848 0.665393
vt 0.890441 0.668894
vt 0.892817 0.666680
vt 0.892143 0.664150
vt 0.886469 0.662731
vt 0.886292 0.662061
vt 0.891269 0.666965
vt 0.892204 0.667377
vt 0.889671 0.662556
vt 0.890285 0.664810
vt 0.891031 0.661817
vt 0.887881 0.661740
vt 0.890124 0.661674
s 0
usemtl Material
f 98/168/165 99/169/165 93/170/165 92/171/165
f 102/172/166 103/173/166 97/174/166 96/175/166
f 100/176/167 101/177/167 95/178/167 94/179/167
f 112/180/168 109/181/168 91/182/168 90/182/168
f 107/183/169 100/177/169 94/178/169 104/184/169
f 113/185/170 99/168/170 91/182/170 109/181/170
f 111/186/171 93/171/171 99/168/171 113/185/171
f 102/187/172 96/174/172 100/177/172 107/183/172
f 96/188/173 97/174/173 101/177/173 100/176/173
f 90/182/174 91/189/174 99/169/174 98/168/174
f 117/190/175 102/187/175 107/183/175 119/191/175
f 97/174/176 103/173/176 106/183/176 101/177/176
f 101/177/177 106/183/177 105/192/177 95/178/177
f 119/191/178 107/183/178 104/184/178 115/193/178
f 94/178/179 95/178/179 105/192/179 104/184/179
f 117/194/180 114/195/180 103/173/180 102/172/180
f 92/196/181 93/171/181 111/186/181 108/197/181
f 98/168/182 110/198/182 112/180/182 90/182/182
f 92/171/183 108/186/183 110/198/183 98/168/183
f 114/195/184 111/186/184 113/185/184 116/199/184
f 116/199/185 113/185/185 109/181/185 118/200/185
f 115/193/186 118/200/186 109/181/186 112/180/186
f 104/184/187 105/192/187 118/200/187 115/193/187
f 106/183/188 116/199/188 118/200/188 105/192/188
f 103/173/189 114/195/189 116/199/189 106/183/189
f 108/197/190 111/186/190 114/195/190 117/194/190
f 110/198/191 119/191/191 115/193/191 112/180/191
f 108/186/192 117/190/192 119/191/192 110/198/192
f 121/201/193 139/202/193 141/203/193 127/204/193
f 135/205/194 138/206/194 142/207/194 125/208/194
f 134/209/195 137/210/195 144/211/195 131/212/195
f 124/213/196 136/214/196 133/215/196 123/216/196
f 120/217/197 140/218/197 143/219/197 129/220/197
f 123/216/198 133/215/198 132/221/198 126/222/198
f 141/223/199 126/222/199 132/221/199 137/224/199
f 136/214/200 128/225/200 122/226/200 133/215/200
f 142/227/201 124/213/201 123/216/201 139/228/201
f 143/229/202 128/225/202 136/214/202 138/230/202
f 144/231/203 130/232/203 122/226/203 140/233/203
f 133/215/204 122/226/204 130/232/204 132/221/204
f 137/224/205 132/221/205 130/232/205 144/231/205
f 139/228/206 123/216/206 126/222/206 141/223/206
f 138/230/207 136/214/207 124/213/207 142/227/207
f 140/233/208 122/226/208 128/225/208 143/229/208
f 131/212/209 144/211/209 140/218/209 120/217/209
f 129/220/210 143/219/210 138/206/210 135/205/210
f 125/208/211 142/207/211 139/202/211 121/201/211
f 127/204/212 141/203/212 137/210/212 134/209/212
f 147/234/213 153/235/213 152/236/213 146/237/213
f 146/237/214 152/236/214 151/238/214 148/239/214
f 158/240/215 148/239/215 151/238/215 154/241/215
f 153/235/216 149/242/216 145/243/216 152/236/216
f 159/244/217 147/234/217 146/237/217 156/245/217
f 160/246/218 149/242/218 153/235/218 155/247/218
f 161/248/219 150/249/219 145/243/219 157/250/219
f 152/236/220 145/243/220 150/249/220 151/238/220
f 154/241/221 151/238/221 150/249/221 161/248/221
f 156/245/222 146/237/222 148/239/222 158/240/222
f 155/247/223 153/235/223 147/234/223 159/244/223
f 157/250/224 145/243/224 149/242/224 160/246/224
