# Blender 3.6.5
# www.blender.org
mtllib Inside_Poly_Round_Pillar_02.mtl
o Cube.001
v -0.441667 0.000000 0.441667
v 0.441667 0.000000 0.441667
v -0.441667 0.000000 -0.441667
v 0.441667 0.000000 -0.441667
v -0.441667 0.300000 0.441667
v 0.441667 0.300000 0.441667
v -0.441667 0.300000 -0.441667
v 0.441667 0.300000 -0.441667
v -0.350000 0.300000 0.350000
v 0.350000 0.300000 0.350000
v -0.350000 0.300000 -0.350000
v 0.350000 0.300000 -0.350000
v -0.350479 0.609413 0.350889
v 0.350479 0.538829 0.350889
v -0.350479 0.609413 -0.350070
v 0.350000 0.610000 -0.350000
v 0.000000 0.000000 0.575000
v 0.000000 0.000000 -0.575000
v 0.000000 0.300000 0.575000
v 0.000000 0.300000 -0.575000
v 0.000000 0.300000 0.450000
v 0.000000 0.300000 -0.460000
v 0.000000 0.551482 0.448244
v 0.000000 0.610000 -0.460000
v -0.570000 0.000000 0.000000
v 0.570000 0.000000 0.000000
v -0.570000 0.300000 0.000000
v 0.570000 0.300000 0.000000
v -0.450000 0.300000 0.000000
v 0.460000 0.300000 0.000000
v -0.450000 0.656482 0.000000
v 0.460000 0.610000 0.000000
v 0.000000 0.610000 0.000000
v 0.000000 0.000000 0.000000
v 0.000000 0.750000 -0.460000
v -0.350479 0.754156 -0.350070
v 0.000000 0.659688 0.000000
v -0.450000 0.750000 0.000000
v 0.460000 0.680000 0.000000
v 0.350000 0.776446 -0.350000
v 0.000000 0.680000 -0.460000
v 0.000000 0.680000 0.000000
vn -0.0000 -1.0000 -0.0000
vn -0.0000 1.0000 -0.0000
vn -0.2890 -0.0000 -0.9573
vn 0.2890 -0.0000 0.9573
vn 0.9603 -0.0000 -0.2790
vn -0.9603 -0.0000 0.2790
vn -0.2996 -0.0003 -0.9541
vn 0.2712 0.0014 0.9625
vn -0.2711 0.0013 0.9626
vn -1.0000 -0.0000 -0.0000
vn -0.9619 -0.0000 -0.2735
vn 0.9540 -0.0000 -0.2998
vn 0.2998 -0.0000 -0.9540
vn -0.2890 -0.0000 0.9573
vn 0.2890 -0.0000 -0.9573
vn 0.1146 0.9866 0.1161
vn -0.9618 -0.0011 0.2737
vn 0.0352 0.9857 0.1648
vn -0.9617 -0.0007 -0.2740
vn 0.9543 -0.0013 0.2988
vn -0.9603 -0.0000 -0.2790
vn 0.9603 -0.0000 0.2790
vn 0.1339 0.9823 0.1310
vn 1.0000 -0.0000 -0.0000
vn -0.2993 -0.0000 -0.9542
vn -0.0000 -0.0000 1.0000
vn -0.1352 0.9815 0.1352
vt 0.031713 0.646814
vt 0.031713 0.633134
vt 0.052616 0.640295
vt 0.052616 0.646814
vt 0.093507 0.640406
vt 0.114308 0.640406
vt 0.111223 0.632817
vt 0.093507 0.632817
vt 0.093507 0.625229
vt 0.072707 0.625229
vt 0.075792 0.632817
vt 0.114308 0.625229
vt 0.072707 0.640406
vt 0.093507 0.640406
vt 0.010886 0.663143
vt 0.010886 0.647432
vt 0.031713 0.647432
vt 0.031713 0.651711
vt 0.010886 0.641869
vt 0.031713 0.641869
vt 0.031713 0.636825
vt 0.051463 0.648703
vt 0.051463 0.663143
vt 0.010951 0.647432
vt 0.031713 0.638380
vt 0.010951 0.638380
vt 0.051618 0.663143
vt 0.051618 0.647396
vt 0.031713 0.647396
vt 0.011016 0.646814
vt 0.011016 0.640295
vt 0.011016 0.633387
vt 0.031713 0.626226
vt 0.018435 0.680310
vt 0.011576 0.671179
vt 0.032162 0.671327
vt 0.031861 0.680407
vt 0.019041 0.660922
vt 0.032467 0.661018
vt 0.010951 0.663143
vt 0.052616 0.633387
vt 0.051363 0.671550
vt 0.031537 0.671550
vt 0.031537 0.685063
vt 0.051363 0.677902
vt 0.011016 0.647432
vt 0.011016 0.638380
vt 0.011016 0.651236
vt 0.031713 0.636024
vt 0.031713 0.646712
vt 0.011016 0.658597
vt 0.051363 0.665198
vt 0.031537 0.658036
vt 0.031713 0.641676
vt 0.051618 0.641676
vt 0.051454 0.651236
vt 0.051454 0.658597
s 0
usemtl Material
f 34/1/1 18/2/1 4/3/1 26/4/1
f 28/5/2 8/6/2 12/7/2 30/8/2
f 18/9/3 3/10/3 7/11/3 20/8/3
f 17/9/4 2/10/4 6/11/4 19/8/4
f 26/9/5 4/12/5 8/7/5 28/8/5
f 25/9/6 1/12/6 5/7/6 27/8/6
f 27/5/2 5/6/2 9/7/2 29/8/2
f 20/8/2 7/11/2 11/13/2 22/14/2
f 19/8/2 6/11/2 10/13/2 21/14/2
f 11/15/7 15/16/7 24/17/7 22/18/7
f 10/15/8 14/19/8 23/20/8 21/18/8
f 21/18/9 23/21/9 13/22/9 9/23/9
f 24/2/10 33/1/10 42/1/10 41/2/10
f 15/24/11 31/17/11 38/25/11 36/26/11
f 12/27/12 16/28/12 32/29/12 30/18/12
f 24/29/13 16/28/13 12/27/13 22/18/13
f 5/6/2 19/5/2 21/8/2 9/7/2
f 8/6/2 20/5/2 22/8/2 12/7/2
f 1/12/14 17/9/14 19/8/14 5/7/14
f 4/12/15 18/9/15 20/8/15 8/7/15
f 25/30/1 3/31/1 18/2/1 34/1/1
f 1/32/1 25/30/1 34/1/1 17/33/1
f 13/34/16 23/35/16 33/36/16 31/37/16
f 9/23/17 13/22/17 31/21/17 29/18/17
f 23/35/18 14/38/18 32/39/18 33/36/18
f 31/17/19 15/24/19 11/40/19 29/18/19
f 7/11/2 27/8/2 29/14/2 11/13/2
f 32/20/20 14/19/20 10/15/20 30/18/20
f 3/10/21 25/9/21 27/8/21 7/11/21
f 2/10/22 26/9/22 28/8/22 6/11/22
f 6/11/2 28/8/2 30/14/2 10/13/2
f 17/33/1 34/1/1 26/4/1 2/41/1
f 38/42/23 37/43/23 35/44/23 36/45/23
f 33/1/24 24/2/24 35/2/24 37/1/24
f 24/17/25 15/46/25 36/47/25 35/25/25
f 31/48/26 33/49/26 37/50/26 38/51/26
f 42/43/27 39/42/27 40/52/27 41/53/27
f 16/28/13 24/29/13 41/54/13 40/55/13
f 32/29/12 16/28/12 40/55/12 39/54/12
f 33/49/26 32/56/26 39/57/26 42/50/26
