# Blender v3.0.1 OBJ File: 'Inside_Poly_Curtain_08.blend'
# www.blender.org
mtllib Inside_Poly_Curtain_08.mtl
o Plane.001
v 0.500000 2.000000 0.010000
v 0.500000 0.000000 0.010000
v -0.200000 2.000000 0.000000
v 0.180000 0.230000 -0.170000
v 0.150000 2.000000 -0.000000
v 0.330000 0.050000 0.090000
v 0.320000 2.000000 0.010000
v 0.400000 0.000000 0.120000
v 0.220000 0.150000 -0.060000
v -0.020000 2.000000 0.000000
v 0.410000 2.000000 0.190000
v 0.460000 0.000000 0.110000
v 0.370000 0.020000 0.190000
v 0.240000 2.000000 0.180000
v 0.060000 2.000000 0.180000
v 0.260000 0.100000 0.120000
v 0.180000 0.180000 -0.020000
v -0.110000 2.000000 0.180000
v 0.500000 1.870000 0.010000
v -0.200000 1.870000 0.000000
v 0.150000 1.870000 -0.000000
v 0.320000 1.870000 0.010000
v -0.020000 1.870000 0.000000
v 0.410000 1.870000 0.110000
v 0.240000 1.870000 0.100000
v 0.060000 1.870000 0.100000
v -0.110000 1.870000 0.100000
v -0.200000 1.900000 0.000000
v 0.150000 1.900000 -0.000000
v 0.320000 1.900000 0.010000
v -0.020000 1.900000 0.000000
v 0.410000 1.900000 0.190000
v 0.240000 1.900000 0.180000
v 0.060000 1.900000 0.180000
v -0.110000 1.900000 0.180000
v 0.500000 1.900000 0.010000
v 0.500000 0.970000 0.010000
v 0.280000 0.980000 0.010000
v 0.390000 0.890000 0.010000
v 0.440000 0.910000 0.010000
v 0.330000 0.900000 0.010000
v 0.470000 0.930000 0.110000
v 0.410000 0.890000 0.110000
v 0.360000 0.890000 0.110000
v 0.300000 0.910000 0.110000
v 0.280000 1.050000 0.010000
v 0.390000 1.010000 0.100000
v 0.440000 1.030000 0.010000
v 0.330000 1.030000 0.010000
v 0.470000 1.030000 0.110000
v 0.410000 1.020000 0.150000
v 0.360000 1.010000 0.150000
v 0.300000 1.030000 0.110000
v 0.500000 1.050000 0.010000
v 0.491056 2.000000 0.005528
v 0.490559 0.000049 0.006706
v -0.191056 2.000000 -0.004472
v 0.189837 0.228821 -0.171353
v 0.150000 2.000000 -0.010000
v 0.336062 0.049286 0.082079
v 0.319881 2.000000 0.000001
v 0.398176 -0.000527 0.110182
v 0.225608 0.150144 -0.068278
v -0.019773 2.000000 -0.009997
v 0.410000 2.000000 0.180000
v 0.457879 -0.000535 0.100242
v 0.365661 0.019133 0.181033
v 0.239881 2.000000 0.170001
v 0.060227 2.000000 0.170003
v 0.258016 0.099561 0.110209
v 0.177239 0.181892 -0.029423
v -0.110000 2.000000 0.170000
v 0.491877 1.872926 0.004955
v -0.192586 1.875194 -0.004248
v 0.149404 1.874385 -0.008967
v 0.319271 1.875077 0.001416
v -0.020766 1.874934 -0.008664
v 0.410169 1.876118 0.102092
v 0.240064 1.875901 0.091927
v 0.061481 1.876244 0.092331
v -0.108927 1.876644 0.092604
v -0.191705 1.903077 -0.004660
v 0.150000 1.905509 -0.008345
v 0.319875 1.905536 0.001673
v -0.019702 1.905542 -0.008318
v 0.410000 1.903334 0.180572
v 0.239935 1.903330 0.170571
v 0.060155 1.903310 0.170565
v -0.110000 1.903334 0.170572
v 0.491705 1.903077 0.005340
v 0.490472 0.970019 0.006964
v 0.289837 0.979574 0.008255
v 0.391517 0.891289 0.000201
v 0.438404 0.909894 0.000129
v 0.331335 0.900995 0.000140
v 0.468718 0.929699 0.100087
v 0.409882 0.890965 0.100048
v 0.361247 0.891200 0.100151
v 0.300815 0.910230 0.100036
v 0.289112 1.052538 0.006756
v 0.391308 1.011567 0.090211
v 0.439981 1.029738 0.000003
v 0.331246 1.030404 0.000086
v 0.469768 1.030397 0.100011
v 0.408771 1.020819 0.140110
v 0.360232 1.011050 0.140058
v 0.299678 1.029714 0.100010
v 0.490922 1.049825 0.005810
vt 0.495742 0.552661
vt 0.491438 0.552661
vt 0.491438 0.500227
vt 0.495742 0.500227
vt 0.495742 0.552661
vt 0.491438 0.552661
vt 0.491438 0.500227
vt 0.495742 0.500330
vt 0.495742 0.552661
vt 0.491438 0.552661
vt 0.491438 0.500227
vt 0.495742 0.500227
vt 0.489997 0.552173
vt 0.487580 0.552173
vt 0.478622 0.507042
vt 0.485591 0.503812
vt 0.499534 0.552661
vt 0.499534 0.500227
vt 0.499534 0.552661
vt 0.499534 0.500227
vt 0.491558 0.552173
vt 0.492068 0.504219
vt 0.499534 0.552661
vt 0.499534 0.500227
vt 0.352625 0.618534
vt 0.358714 0.618534
vt 0.358714 0.617124
vt 0.352625 0.617124
vt 0.338380 0.618534
vt 0.344856 0.618534
vt 0.344856 0.617124
vt 0.338380 0.617124
vt 0.325685 0.618534
vt 0.330612 0.618534
vt 0.330612 0.617124
vt 0.325685 0.617124
vt 0.312798 0.618534
vt 0.317917 0.618534
vt 0.317917 0.617124
vt 0.312803 0.617124
vt 0.363123 0.618534
vt 0.363123 0.617124
vt 0.358714 0.624939
vt 0.363123 0.624939
vt 0.330612 0.624939
vt 0.338380 0.624939
vt 0.317917 0.624939
vt 0.325685 0.624939
vt 0.344856 0.624939
vt 0.352625 0.624939
vt 0.312778 0.624939
vt 0.488953 0.562427
vt 0.487316 0.562427
vt 0.487316 0.553733
vt 0.488953 0.553733
vt 0.492784 0.562427
vt 0.491043 0.562427
vt 0.491043 0.553733
vt 0.492784 0.553733
vt 0.496198 0.562427
vt 0.494874 0.562427
vt 0.494874 0.553733
vt 0.496198 0.553733
vt 0.499615 0.562427
vt 0.498288 0.562427
vt 0.498288 0.553733
vt 0.499609 0.553733
vt 0.486130 0.562427
vt 0.486130 0.553733
vt 0.493894 0.617043
vt 0.499391 0.617043
vt 0.499432 0.561467
vt 0.497020 0.561467
vt 0.472320 0.617043
vt 0.486138 0.617043
vt 0.493436 0.561467
vt 0.490820 0.561467
vt 0.493894 0.617043
vt 0.486266 0.617043
vt 0.493998 0.561467
vt 0.497020 0.561467
vt 0.486789 0.617043
vt 0.470635 0.617043
vt 0.491543 0.561467
vt 0.494566 0.561467
vt 0.499551 0.617043
vt 0.499551 0.561467
vt 0.486504 0.617043
vt 0.493351 0.561467
vt 0.471519 0.617043
vt 0.465861 0.617043
vt 0.490083 0.561467
vt 0.491684 0.561467
vt 0.499551 0.617043
vt 0.499551 0.561467
vt 0.495742 0.552661
vt 0.495742 0.500227
vt 0.491438 0.500227
vt 0.491438 0.552661
vt 0.495742 0.552661
vt 0.495742 0.500330
vt 0.491438 0.500227
vt 0.491438 0.552661
vt 0.495742 0.552661
vt 0.495742 0.500227
vt 0.491438 0.500227
vt 0.491438 0.552661
vt 0.489997 0.552173
vt 0.485591 0.503812
vt 0.478622 0.507042
vt 0.487580 0.552173
vt 0.499534 0.552661
vt 0.499534 0.500227
vt 0.499534 0.552661
vt 0.499534 0.500227
vt 0.491558 0.552173
vt 0.492068 0.504219
vt 0.499534 0.552661
vt 0.499534 0.500227
vt 0.352625 0.618534
vt 0.352625 0.617124
vt 0.358714 0.617124
vt 0.358714 0.618534
vt 0.338380 0.618534
vt 0.338380 0.617124
vt 0.344856 0.617124
vt 0.344856 0.618534
vt 0.325685 0.618534
vt 0.325685 0.617124
vt 0.330612 0.617124
vt 0.330612 0.618534
vt 0.312798 0.618534
vt 0.312803 0.617124
vt 0.317917 0.617124
vt 0.317917 0.618534
vt 0.363123 0.617124
vt 0.363123 0.618534
vt 0.358714 0.624939
vt 0.363123 0.624939
vt 0.330612 0.624939
vt 0.338380 0.624939
vt 0.317917 0.624939
vt 0.325685 0.624939
vt 0.344856 0.624939
vt 0.352625 0.624939
vt 0.312778 0.624939
vt 0.488953 0.562427
vt 0.488953 0.553733
vt 0.487316 0.553733
vt 0.487316 0.562427
vt 0.492784 0.562427
vt 0.492784 0.553733
vt 0.491043 0.553733
vt 0.491043 0.562427
vt 0.496198 0.562427
vt 0.496198 0.553733
vt 0.494874 0.553733
vt 0.494874 0.562427
vt 0.499615 0.562427
vt 0.499609 0.553733
vt 0.498288 0.553733
vt 0.498288 0.562427
vt 0.486130 0.553733
vt 0.486130 0.562427
vt 0.493894 0.617043
vt 0.497020 0.561467
vt 0.499432 0.561467
vt 0.499391 0.617043
vt 0.472320 0.617043
vt 0.490820 0.561467
vt 0.493436 0.561467
vt 0.486138 0.617043
vt 0.493894 0.617043
vt 0.497020 0.561467
vt 0.493998 0.561467
vt 0.486266 0.617043
vt 0.486789 0.617043
vt 0.494566 0.561467
vt 0.491543 0.561467
vt 0.470635 0.617043
vt 0.499551 0.617043
vt 0.499551 0.561467
vt 0.486504 0.617043
vt 0.493351 0.561467
vt 0.471519 0.617043
vt 0.491684 0.561467
vt 0.490083 0.561467
vt 0.465861 0.617043
vt 0.499551 0.617043
vt 0.499551 0.561467
vn -0.9838 0.1179 0.1353
vn -0.9510 0.0835 0.2978
vn -0.7125 0.0611 0.6990
vn -0.9568 0.1201 0.2649
vn 0.9442 -0.0050 0.3295
vn 0.9430 -0.0069 0.3328
vn 0.7839 -0.0427 0.6194
vn 0.8530 -0.1978 0.4830
vn 0.6823 -0.5848 0.4386
vn 0.6981 -0.5728 0.4296
vn -0.7241 -0.5517 0.4138
vn -0.6823 -0.5848 0.4386
vn -0.8944 0.0000 0.4472
vn -0.9138 0.0000 0.4061
vn 0.8944 0.0000 0.4472
vn 0.9048 0.0000 0.4258
vn 0.9578 0.0000 0.2873
vn 0.9102 -0.1972 0.3641
vn 0.9705 -0.0381 0.2379
vn -0.9705 -0.0381 0.2379
vn -0.9578 0.0000 0.2873
vn -0.9548 -0.1372 0.2638
vn -0.9806 0.0000 0.1961
vn -0.8090 -0.4289 0.4020
vn -0.7942 -0.1385 0.5917
vn -0.8539 -0.0915 0.5123
vn -0.8711 -0.3199 0.3726
vn 0.8557 0.0309 0.5165
vn 0.8870 0.1650 0.4314
vn 0.7480 0.2870 0.5984
vn 0.7978 0.3666 0.4787
vn 0.9887 -0.1367 -0.0611
vn 0.9662 -0.0795 -0.2453
vn 0.7125 -0.0616 -0.6989
vn 0.9627 -0.1213 -0.2417
vn -0.9603 0.0054 -0.2789
vn -0.9416 0.0085 -0.3366
vn -0.7559 0.0366 -0.6536
vn -0.8256 0.1986 -0.5281
vn -0.6807 0.5911 -0.4326
vn -0.6874 0.5814 -0.4354
vn -0.6944 0.5822 -0.4229
vn -0.6955 0.5796 -0.4246
vn 0.7149 0.5648 -0.4122
vn 0.6782 0.5911 -0.4367
vn 0.6806 0.5874 -0.4379
vn 0.6833 0.5979 -0.4190
vn 0.9066 -0.0039 -0.4220
vn 0.8940 -0.0050 -0.4479
vn 0.8936 -0.0053 -0.4488
vn 0.9135 -0.0048 -0.4069
vn -0.9066 -0.0039 -0.4220
vn -0.9043 -0.0052 -0.4268
vn -0.8942 -0.0049 -0.4476
vn -0.8933 -0.0056 -0.4494
vn -0.9550 -0.0048 -0.2965
vn -0.9077 0.1961 -0.3709
vn -0.9707 0.0397 -0.2370
vn -0.9752 0.0066 -0.2213
vn 0.9715 0.0416 -0.2334
vn 0.9579 -0.0117 -0.2867
vn 0.9627 0.1288 -0.2380
vn 0.9937 0.0087 -0.1114
vn 0.8249 0.4359 -0.3598
vn 0.7997 0.1411 -0.5835
vn 0.8530 0.0920 -0.5137
vn 0.8695 0.3185 -0.3775
vn -0.8793 -0.0305 -0.4753
vn -0.8877 -0.1629 -0.4307
vn -0.7541 -0.2862 -0.5912
vn -0.8010 -0.3647 -0.4748
vn 0.0000 1.0000 0.0000
vn 0.3165 0.0001 -0.9486
vn -0.3785 -0.8734 -0.3063
vn -0.4685 0.0024 -0.8835
vn -0.6590 -0.7521 0.0032
vn 0.0087 -0.9986 0.0524
vn -0.5903 -0.8003 -0.1053
vn 0.0319 -0.9995 0.0089
vn -0.2563 -0.9541 0.1549
vn -0.5805 -0.8102 -0.0809
vn -0.6707 -0.7168 -0.1903
vn 0.5107 0.0070 -0.8597
vn -0.3245 -0.2018 -0.9241
vn -0.4938 0.0013 -0.8696
vn 0.4684 0.0024 -0.8835
vn 0.3621 -0.0078 -0.9321
vn -0.1310 0.2475 -0.9600
vn -0.2534 -0.0114 -0.9673
vn 0.4729 -0.0007 -0.8811
usemtl Material
s off
f 45/1/1 38/2/1 4/3/1 17/4/1
f 43/5/2 39/6/2 6/7/2 13/8/2
f 42/9/3 40/10/3 8/11/3 12/12/3
f 44/13/4 41/14/4 9/15/4 16/16/4
f 37/17/5 42/9/5 12/12/5 2/18/5
f 40/19/6 43/5/6 13/8/6 8/20/6
f 39/21/7 44/13/7 16/16/7 6/22/7
f 41/23/8 45/1/8 17/4/8 9/24/8
f 31/25/9 35/26/9 27/27/9 23/28/9
f 29/29/9 34/30/9 26/31/9 21/32/9
f 30/33/10 33/34/10 25/35/10 22/36/10
f 36/37/9 32/38/9 24/39/9 19/40/9
f 34/30/11 31/25/11 23/28/11 26/31/11
f 32/38/12 30/33/12 22/36/12 24/39/12
f 33/34/12 29/29/12 21/32/12 25/35/12
f 35/26/12 28/41/12 20/42/12 27/27/12
f 18/43/13 3/44/13 28/41/13 35/26/13
f 14/45/13 5/46/13 29/29/13 33/34/13
f 11/47/13 7/48/13 30/33/13 32/38/13
f 15/49/14 10/50/14 31/25/14 34/30/14
f 1/51/15 11/47/15 32/38/15 36/37/15
f 7/48/16 14/45/16 33/34/16 30/33/16
f 5/46/15 15/49/15 34/30/15 29/29/15
f 10/50/15 18/43/15 35/26/15 31/25/15
f 49/52/17 53/53/17 45/54/17 41/55/17
f 47/56/18 52/57/18 44/58/18 39/59/18
f 48/60/19 51/61/19 43/62/19 40/63/19
f 54/64/17 50/65/17 42/66/17 37/67/17
f 52/57/20 49/52/20 41/55/20 44/58/20
f 50/65/21 48/60/21 40/63/21 42/66/21
f 51/61/22 47/56/22 39/59/22 43/62/22
f 53/53/23 46/68/23 38/69/23 45/54/23
f 27/70/24 20/71/24 46/72/24 53/73/24
f 25/74/25 21/75/25 47/76/25 51/77/25
f 24/78/26 22/79/26 48/80/26 50/81/26
f 26/82/27 23/83/27 49/84/27 52/85/27
f 19/86/28 24/78/28 50/81/28 54/87/28
f 22/88/29 25/74/29 51/77/29 48/89/29
f 21/90/30 26/91/30 52/92/30 47/93/30
f 23/94/31 27/70/31 53/73/31 49/95/31
f 99/96/32 71/97/32 58/98/32 92/99/32
f 97/100/33 67/101/33 60/102/33 93/103/33
f 96/104/34 66/105/34 62/106/34 94/107/34
f 98/108/35 70/109/35 63/110/35 95/111/35
f 91/112/36 56/113/36 66/105/36 96/104/36
f 94/114/37 62/115/37 67/101/37 97/100/37
f 93/116/38 60/117/38 70/109/38 98/108/38
f 95/118/39 63/119/39 71/97/39 99/96/39
f 85/120/40 77/121/40 81/122/40 89/123/40
f 83/124/41 75/125/41 80/126/41 88/127/41
f 84/128/42 76/129/42 79/130/42 87/131/42
f 90/132/43 73/133/43 78/134/43 86/135/43
f 88/127/44 80/126/44 77/121/44 85/120/44
f 86/135/45 78/134/45 76/129/45 84/128/45
f 87/131/46 79/130/46 75/125/46 83/124/46
f 89/123/47 81/122/47 74/136/47 82/137/47
f 72/138/48 89/123/48 82/137/48 57/139/48
f 68/140/49 87/131/49 83/124/49 59/141/49
f 65/142/50 86/135/50 84/128/50 61/143/50
f 69/144/51 88/127/51 85/120/51 64/145/51
f 55/146/52 90/132/52 86/135/52 65/142/52
f 61/143/53 84/128/53 87/131/53 68/140/53
f 59/141/54 83/124/54 88/127/54 69/144/54
f 64/145/55 85/120/55 89/123/55 72/138/55
f 103/147/56 95/148/56 99/149/56 107/150/56
f 101/151/57 93/152/57 98/153/57 106/154/57
f 102/155/58 94/156/58 97/157/58 105/158/58
f 108/159/59 91/160/59 96/161/59 104/162/59
f 106/154/60 98/153/60 95/148/60 103/147/60
f 104/162/61 96/161/61 94/156/61 102/155/61
f 105/158/62 97/157/62 93/152/62 101/151/62
f 107/150/63 99/149/63 92/163/63 100/164/63
f 81/165/64 107/166/64 100/167/64 74/168/64
f 79/169/65 105/170/65 101/171/65 75/172/65
f 78/173/66 104/174/66 102/175/66 76/176/66
f 80/177/67 106/178/67 103/179/67 77/180/67
f 73/181/68 108/182/68 104/174/68 78/173/68
f 76/183/69 102/184/69 105/170/69 79/169/69
f 75/185/70 101/186/70 106/187/70 80/188/70
f 77/189/71 103/190/71 107/166/71 81/165/71
f 11/47/72 1/51/72 55/146/72 65/142/72
f 37/17/73 2/18/73 56/113/73 91/112/73
f 17/4/74 4/3/74 58/98/74 71/97/74
f 28/41/75 3/44/75 57/139/75 82/137/75
f 15/49/72 5/46/72 59/141/72 69/144/72
f 13/8/76 6/7/76 60/102/76 67/101/76
f 14/45/72 7/48/72 61/143/72 68/140/72
f 12/12/77 8/11/77 62/106/77 66/105/77
f 16/16/78 9/15/78 63/110/78 70/109/78
f 18/43/72 10/50/72 64/145/72 72/138/72
f 7/48/72 11/47/72 65/142/72 61/143/72
f 2/18/79 12/12/79 66/105/79 56/113/79
f 8/20/80 13/8/80 67/101/80 62/115/80
f 5/46/72 14/45/72 68/140/72 59/141/72
f 10/50/72 15/49/72 69/144/72 64/145/72
f 6/22/81 16/16/81 70/109/81 60/117/81
f 9/24/82 17/4/82 71/97/82 63/119/82
f 3/44/72 18/43/72 72/138/72 57/139/72
f 36/37/83 19/40/83 73/133/83 90/132/83
f 46/72/84 20/71/84 74/168/84 100/167/84
f 20/42/85 28/41/85 82/137/85 74/136/85
f 1/51/86 36/37/86 90/132/86 55/146/86
f 54/64/87 37/67/87 91/160/87 108/159/87
f 4/3/88 38/2/88 92/99/88 58/98/88
f 38/69/89 46/68/89 100/164/89 92/163/89
f 19/86/90 54/87/90 108/182/90 73/181/90
