# Blender v3.0.1 OBJ File: 'Inside_Poly_Curtain_02.blend'
# www.blender.org
mtllib Inside_Poly_Curtain_02.mtl
o Plane.001
v -0.500000 2.000000 0.000000
v -0.500000 0.010000 0.000000
v 0.500000 2.000000 0.000000
v 0.500000 0.010000 0.000000
v 0.000000 2.000000 0.000000
v 0.000000 0.010000 0.000000
v -0.250000 2.000000 0.000000
v -0.250000 0.010000 0.000000
v 0.250000 0.010000 0.000000
v 0.250000 2.000000 0.000000
v -0.370000 2.000000 0.180000
v -0.370000 0.010000 0.100000
v -0.120000 0.010000 0.100000
v -0.120000 2.000000 0.180000
v 0.120000 2.000000 0.180000
v 0.120000 0.010000 0.100000
v 0.370000 0.010000 0.100000
v 0.370000 2.000000 0.180000
v -0.500000 1.870000 0.000000
v 0.500000 1.870000 0.000000
v 0.000000 1.870000 0.000000
v -0.250000 1.870000 0.000000
v 0.250000 1.870000 0.000000
v -0.370000 1.870000 0.100000
v -0.120000 1.870000 0.100000
v 0.120000 1.870000 0.100000
v 0.370000 1.870000 0.100000
v 0.500000 1.900000 0.000000
v 0.000000 1.900000 0.000000
v -0.250000 1.900000 0.000000
v 0.250000 1.900000 0.000000
v -0.370000 1.900000 0.180000
v -0.120000 1.900000 0.180000
v 0.120000 1.900000 0.180000
v 0.370000 1.900000 0.180000
v -0.500000 1.900000 0.000000
v -0.491893 2.000000 -0.005855
v -0.493903 0.010000 -0.007926
v 0.491893 2.000000 -0.005855
v 0.493903 0.010000 -0.007926
v 0.000000 2.000000 -0.010000
v 0.000000 0.010000 -0.010000
v -0.250187 2.000000 -0.009998
v -0.250195 0.010000 -0.009998
v 0.250195 0.010000 -0.009998
v 0.250187 2.000000 -0.009998
v -0.370187 2.000000 0.170002
v -0.370195 0.010000 0.090002
v -0.120195 0.010000 0.090002
v -0.120187 2.000000 0.170002
v 0.120187 2.000000 0.170002
v 0.120195 0.010000 0.090002
v 0.370195 0.010000 0.090002
v 0.370187 2.000000 0.170002
v -0.493805 1.873612 -0.006970
v 0.493805 1.873612 -0.006969
v 0.000000 1.874615 -0.008871
v -0.250212 1.874607 -0.008873
v 0.250212 1.874607 -0.008873
v -0.370246 1.875319 0.091536
v -0.120246 1.875319 0.091536
v 0.120246 1.875319 0.091536
v 0.370246 1.875319 0.091536
v 0.492735 1.903607 -0.005848
v 0.000000 1.905308 -0.008474
v -0.250207 1.905277 -0.008491
v 0.250207 1.905277 -0.008491
v -0.370141 1.903477 0.170625
v -0.120141 1.903477 0.170625
v 0.120141 1.903477 0.170625
v 0.370141 1.903477 0.170625
v -0.492735 1.903607 -0.005848
vt 0.108991 0.617124
vt 0.108991 0.500227
vt 0.113401 0.500227
vt 0.113401 0.617124
vt 0.080889 0.617124
vt 0.080889 0.500227
vt 0.088657 0.500227
vt 0.088657 0.617124
vt 0.068195 0.617124
vt 0.068195 0.500227
vt 0.075963 0.500227
vt 0.075963 0.617124
vt 0.095134 0.617124
vt 0.095134 0.500227
vt 0.102902 0.500227
vt 0.102902 0.617124
vt 0.063080 0.617124
vt 0.063481 0.500227
vt 0.102902 0.618534
vt 0.108991 0.618534
vt 0.088657 0.618534
vt 0.095134 0.618534
vt 0.075963 0.618534
vt 0.080889 0.618534
vt 0.063075 0.618534
vt 0.068195 0.618534
vt 0.113401 0.618534
vt 0.108991 0.624834
vt 0.113401 0.624834
vt 0.080889 0.624834
vt 0.088657 0.624834
vt 0.068195 0.624834
vt 0.075963 0.624834
vt 0.095134 0.624834
vt 0.102902 0.624834
vt 0.063055 0.624834
vt 0.108991 0.617124
vt 0.113401 0.617124
vt 0.113401 0.500227
vt 0.108991 0.500227
vt 0.080889 0.617124
vt 0.088657 0.617124
vt 0.088657 0.500227
vt 0.080889 0.500227
vt 0.068195 0.617124
vt 0.075963 0.617124
vt 0.075963 0.500227
vt 0.068195 0.500227
vt 0.095134 0.617124
vt 0.102902 0.617124
vt 0.102902 0.500227
vt 0.095134 0.500227
vt 0.063080 0.617124
vt 0.063481 0.500227
vt 0.102902 0.618534
vt 0.108991 0.618534
vt 0.088657 0.618534
vt 0.095134 0.618534
vt 0.075963 0.618534
vt 0.080889 0.618534
vt 0.063075 0.618534
vt 0.068195 0.618534
vt 0.113401 0.618534
vt 0.108991 0.624834
vt 0.113401 0.624834
vt 0.080889 0.624834
vt 0.088657 0.624834
vt 0.068195 0.624834
vt 0.075963 0.624834
vt 0.095134 0.624834
vt 0.102902 0.624834
vt 0.063055 0.624834
vn 0.6097 0.0000 0.7926
vn 0.6402 0.0000 0.7682
vn -0.6097 0.0000 0.7926
vn -0.6402 0.0000 0.7682
vn -0.5735 -0.6554 0.4915
vn -0.5427 -0.6719 0.5040
vn 0.5427 -0.6719 0.5040
vn 0.5735 -0.6554 0.4915
vn 0.8107 0.0000 0.5855
vn 0.8321 0.0000 0.5547
vn -0.8107 0.0000 0.5855
vn -0.8321 0.0000 0.5547
vn -0.6220 0.0005 -0.7830
vn -0.6403 0.0005 -0.7682
vn -0.6409 0.0005 -0.7676
vn -0.6105 0.0006 -0.7920
vn 0.6220 0.0005 -0.7830
vn 0.6105 0.0006 -0.7920
vn 0.6403 0.0005 -0.7682
vn 0.6409 0.0005 -0.7676
vn 0.5712 0.6601 -0.4878
vn 0.5707 0.6603 -0.4881
vn 0.5412 0.6755 -0.5008
vn 0.5494 0.6726 -0.4957
vn -0.5412 0.6755 -0.5008
vn -0.5712 0.6601 -0.4878
vn -0.5707 0.6603 -0.4881
vn -0.5494 0.6726 -0.4957
vn -0.8218 -0.0053 -0.5698
vn -0.8310 -0.0065 -0.5562
vn -0.8315 -0.0063 -0.5555
vn -0.8099 -0.0064 -0.5865
vn 0.8218 -0.0052 -0.5698
vn 0.8099 -0.0064 -0.5865
vn 0.8310 -0.0064 -0.5562
vn 0.8315 -0.0063 -0.5555
vn 0.0000 1.0000 0.0000
vn -0.7713 0.0002 -0.6364
vn 0.0000 -1.0000 0.0000
vn 0.6061 0.0026 -0.7954
vn -0.6966 0.0258 -0.7170
vn 0.7713 0.0002 -0.6365
vn 0.6966 0.0258 -0.7170
vn -0.6061 0.0026 -0.7954
usemtl Material
s off
f 27/1/1 17/2/1 4/3/1 20/4/1
f 25/5/2 13/6/2 6/7/2 21/8/2
f 24/9/2 12/10/2 8/11/2 22/12/2
f 26/13/1 16/14/1 9/15/1 23/16/1
f 19/17/3 2/18/3 12/10/3 24/9/3
f 22/12/3 8/11/3 13/6/3 25/5/3
f 21/8/4 6/7/4 16/14/4 26/13/4
f 23/16/4 9/15/4 17/2/4 27/1/4
f 31/19/5 23/16/5 27/1/5 35/20/5
f 29/21/5 21/8/5 26/13/5 34/22/5
f 30/23/6 22/12/6 25/5/6 33/24/6
f 36/25/6 19/17/6 24/9/6 32/26/6
f 34/22/7 26/13/7 23/16/7 31/19/7
f 32/26/8 24/9/8 22/12/8 30/23/8
f 33/24/8 25/5/8 21/8/8 29/21/8
f 35/20/7 27/1/7 20/4/7 28/27/7
f 18/28/9 35/20/9 28/27/9 3/29/9
f 14/30/10 33/24/10 29/21/10 5/31/10
f 11/32/10 32/26/10 30/23/10 7/33/10
f 15/34/9 34/22/9 31/19/9 10/35/9
f 1/36/11 36/25/11 32/26/11 11/32/11
f 7/33/11 30/23/11 33/24/11 14/30/11
f 5/31/12 29/21/12 34/22/12 15/34/12
f 10/35/12 31/19/12 35/20/12 18/28/12
f 63/37/13 56/38/13 40/39/13 53/40/13
f 61/41/14 57/42/14 42/43/14 49/44/14
f 60/45/15 58/46/15 44/47/15 48/48/15
f 62/49/16 59/50/16 45/51/16 52/52/16
f 55/53/17 60/45/17 48/48/17 38/54/17
f 58/46/18 61/41/18 49/44/18 44/47/18
f 57/42/19 62/49/19 52/52/19 42/43/19
f 59/50/20 63/37/20 53/40/20 45/51/20
f 67/55/21 71/56/21 63/37/21 59/50/21
f 65/57/22 70/58/22 62/49/22 57/42/22
f 66/59/23 69/60/23 61/41/23 58/46/23
f 72/61/24 68/62/24 60/45/24 55/53/24
f 70/58/25 67/55/25 59/50/25 62/49/25
f 68/62/26 66/59/26 58/46/26 60/45/26
f 69/60/27 65/57/27 57/42/27 61/41/27
f 71/56/28 64/63/28 56/38/28 63/37/28
f 54/64/29 39/65/29 64/63/29 71/56/29
f 50/66/30 41/67/30 65/57/30 69/60/30
f 47/68/31 43/69/31 66/59/31 68/62/31
f 51/70/32 46/71/32 67/55/32 70/58/32
f 37/72/33 47/68/33 68/62/33 72/61/33
f 43/69/34 50/66/34 69/60/34 66/59/34
f 41/67/35 51/70/35 70/58/35 65/57/35
f 46/71/36 54/64/36 71/56/36 67/55/36
f 1/36/37 11/32/37 47/68/37 37/72/37
f 2/18/38 19/17/38 55/53/38 38/54/38
f 4/3/39 17/2/39 53/40/39 40/39/39
f 3/29/40 28/27/40 64/63/40 39/65/40
f 5/31/37 15/34/37 51/70/37 41/67/37
f 6/7/39 13/6/39 49/44/39 42/43/39
f 7/33/37 14/30/37 50/66/37 43/69/37
f 8/11/39 12/10/39 48/48/39 44/47/39
f 9/15/39 16/14/39 52/52/39 45/51/39
f 10/35/37 18/28/37 54/64/37 46/71/37
f 11/32/37 7/33/37 43/69/37 47/68/37
f 12/10/39 2/18/39 38/54/39 48/48/39
f 13/6/39 8/11/39 44/47/39 49/44/39
f 14/30/37 5/31/37 41/67/37 50/66/37
f 15/34/37 10/35/37 46/71/37 51/70/37
f 16/14/39 6/7/39 42/43/39 52/52/39
f 17/2/39 9/15/39 45/51/39 53/40/39
f 18/28/37 3/29/37 39/65/37 54/64/37
f 19/17/41 36/25/41 72/61/41 55/53/41
f 20/4/42 4/3/42 40/39/42 56/38/42
f 28/27/43 20/4/43 56/38/43 64/63/43
f 36/25/44 1/36/44 37/72/44 72/61/44
