# Blender 3.6.5
# www.blender.org
mtllib Inside_Poly_Bag_01.mtl
o Cube
v -0.369197 0.029465 0.402533
v -0.336037 0.050129 0.345305
v -0.396920 0.079339 -0.346864
v -0.341774 0.116793 -0.324951
v 0.369260 0.029465 0.402533
v 0.336100 0.050129 0.345305
v 0.396983 0.079339 -0.346864
v 0.341837 0.116793 -0.324951
v -0.403542 0.028189 -0.000041
v -0.403542 0.051404 -0.000041
v 0.403605 0.028189 -0.000041
v 0.403605 0.051404 -0.000041
v -0.364365 0.031442 0.208472
v 0.364428 0.048152 0.208472
v -0.364365 0.048152 0.208472
v 0.364428 0.031442 0.208472
v -0.368454 0.053191 -0.208555
v 0.368517 0.026403 -0.208555
v -0.368454 0.026403 -0.208555
v 0.368517 0.053191 -0.208555
v 0.000032 0.139208 -0.422394
v 0.000032 0.165137 -0.411741
v 0.000032 0.025780 0.416985
v 0.000032 0.053813 0.416985
v 0.000032 0.328825 -0.000041
v 0.000032 0.002226 -0.000041
v 0.000032 0.275218 0.208472
v 0.000032 0.024040 0.208472
v 0.000032 0.022630 -0.208555
v 0.000032 0.276628 -0.208555
v 0.208545 0.165137 -0.411741
v 0.208545 0.025780 0.375075
v 0.201818 0.288720 -0.000041
v 0.182230 0.205851 0.208472
v 0.184274 0.231828 -0.208555
v 0.208545 0.139208 -0.422394
v 0.208545 0.053813 0.375075
v 0.201818 0.010538 -0.000041
v 0.182230 0.024040 0.208472
v 0.184274 0.022630 -0.208555
v -0.208482 0.139208 -0.422394
v -0.208482 0.053813 0.375075
v -0.201755 0.010538 -0.000041
v -0.182167 0.024040 0.208472
v -0.184211 0.022630 -0.208555
v -0.208482 0.165137 -0.411741
v -0.208482 0.025780 0.375075
v -0.201755 0.288720 -0.000041
v -0.182167 0.205851 0.208472
v -0.184211 0.231828 -0.208555
vn -0.7743 0.5734 0.2678
vn 0.4957 0.6973 -0.5177
vn 0.7076 0.7048 0.0502
vn -0.0052 0.7631 0.6463
vn 0.0326 -0.9995 -0.0035
vn -0.4537 0.7976 0.3974
vn -0.7211 0.6692 -0.1794
vn 0.0554 -0.9980 -0.0317
vn 0.9861 -0.0000 -0.1659
vn -0.9828 -0.0000 0.1847
vn -0.7076 0.7048 0.0502
vn -0.6965 0.6770 0.2380
vn 0.0650 -0.9967 0.0492
vn 0.9828 -0.0000 0.1847
vn 0.7743 0.5734 0.2678
vn -0.0461 -0.8974 -0.4389
vn -0.5837 0.8119 -0.0122
vn -0.9861 -0.0000 -0.1659
vn 0.1042 0.9131 -0.3942
vn -0.0000 -0.8780 -0.4787
vn -0.0216 -0.9961 0.0854
vn 0.2605 0.9139 0.3113
vn -0.0215 -0.9967 -0.0786
vn 0.2077 0.9442 -0.2557
vn 0.1980 0.7016 0.6845
vn -0.0010 -1.0000 0.0092
vn 0.1971 -0.0000 0.9804
vn -0.0000 0.3800 -0.9250
vn 0.0052 0.7631 0.6463
vn 0.4537 0.7976 0.3974
vn 0.7211 0.6692 -0.1794
vn 0.6965 0.6770 0.2380
vn 0.5837 0.8119 -0.0122
vn 0.0216 -0.9961 0.0854
vn 0.0215 -0.9967 -0.0786
vn 0.0010 -1.0000 0.0092
vn -0.4957 0.6973 -0.5177
vn -0.0326 -0.9995 -0.0035
vn -0.0554 -0.9980 -0.0317
vn -0.0650 -0.9967 0.0492
vn 0.0461 -0.8974 -0.4389
vn -0.1042 0.9131 -0.3942
vn -0.2605 0.9139 0.3113
vn -0.2077 0.9442 -0.2557
vn -0.1980 0.7016 0.6845
vn -0.1971 -0.0000 0.9804
vt 0.507636 0.046528
vt 0.504832 0.053308
vt 0.545493 0.059315
vt 0.558126 0.053308
vt 0.555885 0.018501
vt 0.555557 0.005359
vt 0.517465 0.007091
vt 0.507401 0.005359
vt 0.543682 0.018501
vt 0.545493 0.007091
vt 0.519276 0.018501
vt 0.507073 0.018501
vt 0.519557 0.046528
vt 0.504354 0.032515
vt 0.517916 0.032515
vt 0.543400 0.046528
vt 0.555322 0.046528
vt 0.558604 0.032515
vt 0.545042 0.032515
vt 0.517465 0.059315
vt 0.531479 0.059315
vt 0.531479 0.046528
vt 0.531479 0.032515
vt 0.531479 0.018501
vt 0.531479 0.004487
s 0
usemtl Material
f 19/1/1 17/1/1 4/2/1 3/2/1
f 36/3/2 31/3/2 8/4/2 7/4/2
f 16/5/3 14/5/3 6/6/3 5/6/3
f 47/7/4 42/7/4 2/8/4 1/8/4
f 39/9/5 16/5/5 5/6/5 32/10/5
f 49/11/6 15/12/6 2/8/6 42/7/6
f 50/13/7 17/1/7 10/14/7 48/15/7
f 40/16/8 18/17/8 11/18/8 38/19/8
f 18/17/9 20/17/9 12/18/9 11/18/9
f 13/12/10 15/12/10 10/14/10 9/14/10
f 1/8/11 2/8/11 15/12/11 13/12/11
f 48/15/12 10/14/12 15/12/12 49/11/12
f 38/19/13 11/18/13 16/5/13 39/9/13
f 11/18/14 12/18/14 14/5/14 16/5/14
f 7/4/15 8/4/15 20/17/15 18/17/15
f 36/3/16 7/4/16 18/17/16 40/16/16
f 46/20/17 4/2/17 17/1/17 50/13/17
f 9/14/18 10/14/18 17/1/18 19/1/18
f 31/3/19 22/21/19 30/22/19 35/16/19
f 41/20/20 21/21/20 29/22/20 45/13/20
f 43/15/21 26/23/21 28/24/21 44/11/21
f 33/19/22 25/23/22 27/24/22 34/9/22
f 45/13/23 29/22/23 26/23/23 43/15/23
f 35/16/24 30/22/24 25/23/24 33/19/24
f 34/9/25 27/24/25 24/25/25 37/10/25
f 44/11/26 28/24/26 23/25/26 47/7/26
f 32/10/27 37/10/27 24/25/27 23/25/27
f 41/20/28 46/20/28 22/21/28 21/21/28
f 5/6/29 6/6/29 37/10/29 32/10/29
f 14/5/30 34/9/30 37/10/30 6/6/30
f 20/17/31 35/16/31 33/19/31 12/18/31
f 12/18/32 33/19/32 34/9/32 14/5/32
f 8/4/33 31/3/33 35/16/33 20/17/33
f 21/21/20 36/3/20 40/16/20 29/22/20
f 26/23/34 38/19/34 39/9/34 28/24/34
f 29/22/35 40/16/35 38/19/35 26/23/35
f 28/24/36 39/9/36 32/10/36 23/25/36
f 21/21/28 22/21/28 31/3/28 36/3/28
f 3/2/37 4/2/37 46/20/37 41/20/37
f 13/12/38 44/11/38 47/7/38 1/8/38
f 19/1/39 45/13/39 43/15/39 9/14/39
f 9/14/40 43/15/40 44/11/40 13/12/40
f 3/2/41 41/20/41 45/13/41 19/1/41
f 22/21/42 46/20/42 50/13/42 30/22/42
f 25/23/43 48/15/43 49/11/43 27/24/43
f 30/22/44 50/13/44 48/15/44 25/23/44
f 27/24/45 49/11/45 42/7/45 24/25/45
f 23/25/46 24/25/46 42/7/46 47/7/46
