# Blender v3.0.1 OBJ File: 'Inside_Poly_Fire_Place_02.blend'
# www.blender.org
mtllib Inside_Poly_Fire_Place_02.mtl
o Cube_Cube.004
v -0.500248 0.000000 0.300121
v -0.500000 1.050000 0.300000
v -0.500248 0.000000 -0.500267
v -0.500000 1.050000 -0.500000
v 0.500259 0.000000 0.295266
v 0.500000 1.050000 0.300000
v 0.500259 0.000000 -0.500267
v 0.500000 1.050000 -0.500000
v -0.500248 0.000000 -0.100073
v -0.500000 1.050000 -0.100000
v 0.500259 0.000000 -0.100073
v 0.500000 1.050000 -0.100000
v -0.500000 0.800000 0.300000
v -0.500000 0.800000 -0.500000
v 0.500000 0.800000 -0.500000
v 0.500000 0.800000 0.300000
v 0.500000 0.800000 -0.100000
v -0.500000 0.800000 -0.100000
v 0.300000 1.050000 -0.500000
v 0.300000 0.000000 0.300000
v 0.300000 1.050000 0.300000
v 0.300000 1.050000 -0.100000
v 0.300000 0.800000 0.300000
v -0.300000 1.050000 0.300000
v -0.300000 0.800000 0.300000
v -0.300000 1.050000 -0.500000
v -0.300000 0.000000 0.300000
v -0.300000 1.050000 -0.100000
v -0.300000 0.000000 -0.400000
v 0.300000 0.000000 -0.400000
v 0.300000 0.800000 -0.400000
v -0.300000 0.800000 -0.400000
v 0.300000 1.050000 -0.500000
v 0.300000 3.000000 -0.500000
v 0.200000 1.050000 -0.130000
v 0.200000 3.000000 -0.130000
v -0.200000 1.050000 -0.129764
v -0.200000 3.000000 -0.129764
v -0.300000 1.050000 -0.500000
v -0.300000 3.000000 -0.500000
v -0.500248 0.000000 0.100024
v 0.500000 1.050000 0.100000
v -0.500000 1.050000 0.100000
v 0.500259 0.000000 0.097597
v -0.500000 0.800000 0.100000
v 0.500000 0.800000 0.100000
v 0.300000 1.050000 0.100000
v -0.300000 1.050000 0.100000
v -0.500000 1.050000 -0.300000
v 0.500259 0.000000 -0.300170
v -0.500248 0.000000 -0.300170
v 0.500000 1.050000 -0.300000
v 0.500000 0.800000 -0.300000
v -0.500000 0.800000 -0.300000
v 0.300000 1.050000 -0.300000
v -0.300000 1.050000 -0.300000
v 0.000000 1.050000 -0.500000
v 0.000000 1.050000 -0.100000
v 0.000000 1.050000 0.300000
v 0.000000 0.800000 0.300000
v 0.000000 0.000000 -0.400000
v 0.000000 0.800000 -0.400000
v 0.000000 1.050000 0.100000
v 0.000000 1.050000 -0.300000
vt 0.733816 0.506085
vt 0.733880 0.495705
vt 0.749584 0.495780
vt 0.749584 0.506085
vt 0.699934 0.482300
vt 0.699934 0.495630
vt 0.687595 0.495630
vt 0.687595 0.482300
vt 0.733816 0.506085
vt 0.733816 0.495780
vt 0.749584 0.495780
vt 0.749584 0.506085
vt 0.697702 0.482300
vt 0.697702 0.495630
vt 0.687595 0.495630
vt 0.687595 0.482300
vt 0.697702 0.482300
vt 0.697702 0.495630
vt 0.687595 0.495630
vt 0.687595 0.482300
vt 0.697702 0.482300
vt 0.697702 0.495630
vt 0.687595 0.495630
vt 0.687595 0.482300
vt 0.697702 0.482300
vt 0.697702 0.495630
vt 0.687595 0.495630
vt 0.687595 0.482300
vt 0.737543 0.506085
vt 0.737543 0.495780
vt 0.749766 0.495780
vt 0.749766 0.506085
vt 0.700139 0.438124
vt 0.687595 0.438124
vt 0.749766 0.438124
vt 0.749766 0.482300
vt 0.737493 0.482300
vt 0.737493 0.438124
vt 0.687595 0.438124
vt 0.697702 0.438124
vt 0.687595 0.438124
vt 0.697702 0.438124
vt 0.749766 0.495630
vt 0.737493 0.495630
vt 0.737543 0.506085
vt 0.737543 0.495780
vt 0.749766 0.495780
vt 0.749766 0.506085
vt 0.700139 0.506085
vt 0.687792 0.506085
vt 0.687792 0.495780
vt 0.700139 0.495780
vt 0.700139 0.506085
vt 0.687792 0.506085
vt 0.687792 0.495780
vt 0.700139 0.495780
vt 0.718650 0.482337
vt 0.718777 0.495705
vt 0.718588 0.456391
vt 0.718587 0.482373
vt 0.699705 0.482373
vt 0.699705 0.456391
vt 0.699705 0.456391
vt 0.699705 0.482373
vt 0.737471 0.482373
vt 0.737471 0.456391
vt 0.737471 0.482373
vt 0.737471 0.456391
vt 0.699728 0.482373
vt 0.713588 0.497611
vt 0.713588 0.549741
vt 0.723775 0.549741
vt 0.723775 0.497611
vt 0.713588 0.549741
vt 0.713588 0.497611
vt 0.723775 0.549741
vt 0.723775 0.497611
vt 0.687595 0.438124
vt 0.697702 0.438124
vt 0.687595 0.438124
vt 0.697702 0.438124
vt 0.687595 0.482300
vt 0.687595 0.438124
vt 0.700139 0.495780
vt 0.687792 0.495780
vt 0.737543 0.495780
vt 0.749766 0.495780
vt 0.687595 0.495630
vt 0.733816 0.495780
vt 0.749584 0.495780
vt 0.686543 0.495780
vt 0.686543 0.506085
vt 0.700075 0.506085
vt 0.700075 0.495780
vt 0.686543 0.495780
vt 0.686543 0.506085
vt 0.700075 0.506085
vt 0.700075 0.495780
vt 0.737444 0.482373
vt 0.737444 0.482373
vt 0.686543 0.495780
vt 0.700139 0.495705
vn 0.0000 1.0000 0.0000
vn 0.0000 0.0000 1.0000
vn -1.0000 0.0000 0.0000
vn 1.0000 0.0000 0.0000
vn 0.0003 0.0001 1.0000
vn 0.0118 -0.0030 0.9999
vn -1.0000 0.0003 0.0000
vn 1.0000 0.0003 0.0000
vn 0.0000 -1.0000 0.0000
vn 0.9654 0.0000 0.2609
vn 0.0006 0.0000 1.0000
vn -0.9654 0.0000 0.2608
usemtl Wood_CLock
s off
f 63/1/1 59/2/1 21/3/1 47/4/1
f 25/5/2 24/6/2 2/7/2 13/8/2
f 64/9/1 58/10/1 22/11/1 55/12/1
f 54/13/3 49/14/3 4/15/3 14/16/3
f 46/17/4 42/18/4 6/19/4 16/20/4
f 53/21/4 52/22/4 12/23/4 17/24/4
f 45/25/3 43/26/3 10/27/3 18/28/3
f 47/29/1 21/30/1 6/31/1 42/32/1
f 27/33/5 25/5/5 13/8/5 1/34/5
f 5/35/6 16/36/6 23/37/6 20/38/6
f 54/13/7 14/16/7 3/39/7 51/40/7
f 46/17/8 16/20/8 5/41/8 44/42/8
f 16/36/2 6/43/2 21/44/2 23/37/2
f 55/45/1 22/46/1 12/47/1 52/48/1
f 56/49/1 49/50/1 10/51/1 28/52/1
f 48/53/1 43/54/1 2/55/1 24/56/1
f 60/57/2 59/58/2 24/6/2 25/5/2
f 61/59/2 62/60/2 32/61/2 29/62/2
f 20/63/3 23/64/3 31/65/3 30/66/3
f 25/67/4 27/68/4 29/62/4 32/61/4
f 60/57/9 25/69/9 32/61/9 62/60/9
f 33/70/10 34/71/10 36/72/10 35/73/10
f 35/73/11 36/72/11 38/74/11 37/75/11
f 37/75/12 38/74/12 40/76/12 39/77/12
f 53/21/8 17/24/8 11/78/8 50/79/8
f 45/25/7 18/28/7 9/80/7 41/81/7
f 13/8/7 45/25/7 41/81/7 1/34/7
f 28/52/1 10/51/1 43/54/1 48/53/1
f 17/24/8 46/17/8 44/42/8 11/78/8
f 22/46/1 47/29/1 42/32/1 12/47/1
f 13/8/3 2/7/3 43/26/3 45/25/3
f 17/24/4 12/23/4 42/18/4 46/17/4
f 58/10/1 63/1/1 47/4/1 22/11/1
f 15/82/8 53/21/8 50/79/8 7/83/8
f 26/84/1 4/85/1 49/50/1 56/49/1
f 19/86/1 55/45/1 52/48/1 8/87/1
f 18/28/7 54/13/7 51/40/7 9/80/7
f 15/82/4 8/88/4 52/22/4 53/21/4
f 18/28/3 10/27/3 49/14/3 54/13/3
f 57/89/1 64/9/1 55/12/1 19/90/1
f 26/91/1 56/92/1 64/93/1 57/94/1
f 28/95/1 48/96/1 63/97/1 58/98/1
f 23/99/9 60/57/9 62/60/9 31/100/9
f 30/66/2 31/65/2 62/60/2 61/59/2
f 23/37/2 21/44/2 59/58/2 60/57/2
f 56/92/1 28/95/1 58/98/1 64/93/1
f 48/96/1 24/101/1 59/102/1 63/97/1
o Circle
v -0.300000 3.000000 -0.500000
v -0.200000 3.000000 -0.130000
v 0.200000 3.000000 -0.130000
v 0.300000 3.000000 -0.500000
vt 0.712120 0.549903
vt 0.725832 0.549934
vt 0.732638 0.556356
vt 0.705212 0.556292
vn 0.0000 1.0000 0.0000
usemtl Wood_CLock
s off
f 66/103/13 67/104/13 68/105/13 65/106/13
o Cube.001
v -0.300000 0.000000 0.300000
v 0.300000 0.000000 0.300000
v -0.300000 0.030000 -0.400000
v 0.300000 0.030000 -0.400000
v -0.300000 0.030000 0.300000
v 0.300000 0.030000 0.300000
vt 0.699500 0.439881
vt 0.737985 0.439881
vt 0.737985 0.455679
vt 0.699500 0.455679
vt 0.699500 0.437750
vt 0.737985 0.437750
vn 0.0000 1.0000 0.0000
vn 0.0000 0.0000 1.0000
usemtl Wood_CLock
s off
f 73/107/14 74/108/14 72/109/14 71/110/14
f 69/111/15 70/112/15 74/108/15 73/107/15
