# Blender 3.6.5
# www.blender.org
mtllib Inside_Poly_Chair_01.mtl
o Cube.001
v 0.360000 0.540000 -0.270000
v 0.360000 0.540000 0.450000
v 0.540000 0.540000 0.450000
v 0.540000 0.540000 -0.270000
v 0.540000 0.270000 -0.270000
v 0.540000 0.270000 0.450000
v -0.360000 0.270000 0.450000
v -0.360000 0.540000 0.450000
v -0.540000 0.540000 0.450000
v -0.540000 0.270000 0.450000
v 0.360000 1.377000 -0.450000
v 0.540000 1.377000 -0.450000
v -0.540000 1.377000 -0.270000
v -0.540000 1.377000 -0.450000
v 0.360000 0.180000 -0.450000
v 0.540000 0.180000 -0.450000
v -0.360000 0.180000 0.450000
v -0.540000 0.180000 0.450000
v 0.540000 0.180000 0.450000
v 0.360000 0.180000 0.450000
v 0.360000 1.260000 -0.450000
v 0.360000 0.270000 0.450000
v 0.360000 0.360000 -0.270000
v 0.360000 0.360000 0.450000
v -0.540000 0.540000 -0.270000
v -0.360000 0.540000 -0.270000
v -0.360000 1.377000 -0.450000
v -0.540000 0.180000 -0.450000
v -0.360000 0.180000 -0.450000
v -0.360000 0.270000 0.450000
v -0.360000 0.360000 0.450000
v -0.360000 1.377000 -0.270000
v 0.360000 1.260000 -0.270000
v 0.360000 1.377000 -0.270000
v -0.540000 0.270000 -0.270000
v 0.540000 1.377000 -0.270000
v 0.180000 1.350000 -0.270000
v 0.180000 1.350000 -0.450000
v 0.360000 0.270000 0.450000
v -0.360000 1.260000 -0.450000
v -0.360000 0.360000 -0.270000
v -0.360000 1.260000 -0.270000
v -0.180000 1.350000 -0.450000
v -0.180000 1.350000 -0.270000
v 0.360000 0.000000 -0.450000
v 0.540000 0.000000 -0.450000
v 0.540000 0.000000 0.450000
v 0.360000 0.000000 0.450000
v -0.360000 0.000000 0.450000
v -0.540000 0.000000 0.450000
v -0.540000 0.000000 -0.450000
v -0.360000 0.000000 -0.450000
vn -0.0000 1.0000 -0.0000
vn 1.0000 -0.0000 -0.0000
vn -0.0000 -0.0000 1.0000
vn -0.3316 0.8832 -0.3316
vn -1.0000 -0.0000 -0.0000
vn 0.5405 0.6447 -0.5405
vn -0.0052 -0.0057 -1.0000
vn -0.1417 -0.7000 -0.7000
vn -0.0103 -0.7077 -0.7065
vn -0.0000 -1.0000 -0.0000
vn 0.1233 -0.0006 0.9924
vn -0.0001 -1.0000 -0.0000
vn 0.7070 -0.7072 -0.0000
vn 0.1380 -0.6935 0.7071
vn -0.9806 -0.0000 -0.1961
vn -0.0000 -0.0000 -1.0000
vn 0.4472 0.8944 -0.0000
vn -0.0000 1.0000 -0.0001
vn 0.9913 -0.0000 -0.1313
vn 0.9806 -0.0000 -0.1961
vn -0.8944 -0.0000 0.4472
vn -0.6009 -0.6009 0.5271
vn -0.5774 -0.5774 0.5774
vn -0.4472 0.8944 -0.0000
vn 0.0057 -0.0052 -1.0000
vn 0.6751 0.1518 0.7219
vn 0.1854 -0.6948 0.6948
vn 0.0103 -0.7065 -0.7077
vt 0.365376 0.181804
vt 0.365376 0.153910
vt 0.374340 0.153910
vt 0.374340 0.181804
vt 0.365376 0.163039
vt 0.365376 0.174050
vt 0.321116 0.174050
vt 0.321116 0.163039
vt 0.329369 0.148823
vt 0.329404 0.152121
vt 0.321116 0.152186
vt 0.321116 0.148823
vt 0.339804 0.173253
vt 0.348930 0.173253
vt 0.348314 0.223507
vt 0.339189 0.223507
vt 0.365376 0.148823
vt 0.365376 0.151798
vt 0.358658 0.151861
vt 0.358636 0.148823
vt 0.365376 0.181793
vt 0.365376 0.154049
vt 0.374488 0.154049
vt 0.374488 0.181793
vt 0.313055 0.181804
vt 0.313055 0.153910
vt 0.321116 0.153910
vt 0.321116 0.181804
vt 0.366109 0.135553
vt 0.374894 0.135553
vt 0.374894 0.148390
vt 0.366109 0.148390
vt 0.331945 0.148823
vt 0.331945 0.152101
vt 0.313055 0.237308
vt 0.321116 0.237308
vt 0.321116 0.245790
vt 0.313055 0.245790
vt 0.313055 0.237267
vt 0.321116 0.237430
vt 0.321116 0.245589
vt 0.313055 0.245426
vt 0.335947 0.267623
vt 0.341491 0.267623
vt 0.341491 0.281180
vt 0.366087 0.245790
vt 0.374891 0.245790
vt 0.374891 0.237308
vt 0.366087 0.237308
vt 0.321116 0.182908
vt 0.321116 0.236331
vt 0.313055 0.236331
vt 0.313055 0.182908
vt 0.345792 0.302763
vt 0.359349 0.302763
vt 0.359349 0.304087
vt 0.345792 0.304087
vt 0.341491 0.311958
vt 0.341491 0.325515
vt 0.333522 0.318736
vt 0.365376 0.236535
vt 0.365376 0.182875
vt 0.373813 0.182875
vt 0.373813 0.236535
vt 0.365376 0.174326
vt 0.365376 0.227957
vt 0.354539 0.233306
vt 0.331974 0.233306
vt 0.321116 0.227957
vt 0.321116 0.174326
vt 0.338934 0.205806
vt 0.348729 0.205866
vt 0.348729 0.223826
vt 0.338934 0.223767
vt 0.355985 0.151884
vt 0.355985 0.148823
vt 0.365376 0.172856
vt 0.321116 0.173003
vt 0.321116 0.152654
vt 0.365376 0.152507
vt 0.313055 0.181793
vt 0.313055 0.154049
vt 0.321116 0.154049
vt 0.321116 0.181793
vt 0.365376 0.237478
vt 0.374290 0.237478
vt 0.374290 0.245451
vt 0.365376 0.245451
vt 0.345792 0.289217
vt 0.359349 0.289217
vt 0.359349 0.290325
vt 0.345792 0.290325
vt 0.329372 0.145655
vt 0.358576 0.145655
vt 0.365376 0.146627
vt 0.321116 0.152101
vt 0.321116 0.146362
vt 0.365376 0.146362
vt 0.365376 0.151884
vt 0.321116 0.146488
vt 0.365376 0.146488
vt 0.365376 0.139778
vt 0.321116 0.139778
vt 0.374272 0.144835
vt 0.374272 0.147951
vt 0.365376 0.147951
vt 0.365376 0.144835
vt 0.321116 0.144732
vt 0.321116 0.147951
vt 0.313055 0.147951
vt 0.313055 0.144732
vt 0.338934 0.173365
vt 0.348729 0.173425
vt 0.348729 0.191161
vt 0.338934 0.191102
vt 0.313055 0.182640
vt 0.313055 0.223912
vt 0.321116 0.223912
vt 0.321116 0.182640
vt 0.321116 0.146013
vt 0.353550 0.146013
vt 0.361308 0.139981
vt 0.324845 0.139981
vt 0.367030 0.139584
vt 0.367030 0.146905
vt 0.321107 0.146905
vt 0.321107 0.139584
vt 0.374855 0.148296
vt 0.366022 0.148296
vt 0.366022 0.135677
vt 0.374855 0.135677
vt 0.365376 0.139700
vt 0.321116 0.139700
vt 0.321475 0.148296
vt 0.312645 0.148296
vt 0.312645 0.135720
vt 0.321475 0.135720
vt 0.312689 0.135553
vt 0.321503 0.135553
vt 0.321503 0.148390
vt 0.312689 0.148390
vt 0.354532 0.223875
vt 0.332418 0.223875
vt 0.321116 0.218762
vt 0.365376 0.218762
vt 0.321116 0.172787
vt 0.365376 0.172787
vt 0.365420 0.152650
vt 0.321509 0.152650
vt 0.321509 0.174175
vt 0.365420 0.174380
s 1
usemtl Material.001
f 1/1/1 2/2/1 3/3/1 4/4/1
f 5/5/2 4/6/2 3/7/2 6/8/2
f 7/9/3 8/10/3 9/11/3 10/12/3
f 28/13/4 35/14/5 13/15/5 14/16/5
f 6/17/3 3/18/3 2/19/3 22/20/3
f 23/21/5 24/22/5 2/23/5 1/24/5
f 25/25/1 9/26/1 8/27/1 26/28/1
f 16/13/6 12/16/2 36/15/2 5/14/2
f 15/29/7 16/30/6 46/31/8 45/32/9
f 30/33/10 31/34/11 8/10/2 7/9/2
f 14/35/1 13/36/1 32/37/1 27/38/1
f 21/39/5 33/40/5 34/41/5 11/42/5
f 35/43/12 25/44/13 13/45/14
f 11/46/1 34/47/1 36/48/1 12/49/1
f 10/8/5 9/7/5 25/6/5 35/5/5
f 26/50/3 32/51/3 13/52/14 25/53/13
f 33/54/15 23/55/15 1/56/15 34/57/15
f 36/58/3 4/59/16 5/60/16
f 34/61/3 1/62/3 4/63/16 36/64/3
f 23/65/3 33/66/3 37/67/3 44/68/3 42/69/3 41/70/3
f 38/71/17 37/72/17 33/73/17 21/74/17
f 22/20/10 2/19/18 24/75/1 39/76/5
f 31/77/1 24/78/1 23/79/1 41/80/1
f 26/81/19 8/82/2 31/83/11 41/84/2
f 27/85/2 32/86/2 42/87/2 40/88/2
f 32/89/20 26/90/19 41/91/2 42/92/20
f 30/33/3 7/9/3 17/93/3 20/94/3 22/20/3 39/95/3
f 31/96/3 30/97/3 39/98/3 24/99/3
f 18/100/21 28/101/4 51/102/22 50/103/23
f 19/104/3 6/105/3 22/106/3 20/107/3
f 17/108/3 7/109/3 10/110/3 18/111/3
f 40/112/24 42/113/24 44/114/24 43/115/24
f 28/116/4 14/117/16 27/118/16 29/119/25
f 43/115/1 44/114/1 37/72/1 38/71/1
f 10/120/5 35/121/5 28/122/4 18/123/21
f 6/120/2 19/123/26 16/122/6 5/121/2
f 15/119/7 11/118/16 12/117/16 16/116/6
f 45/124/9 46/125/8 47/126/27 48/127/10
f 19/128/26 20/129/3 48/130/3 47/131/27
s 0
f 20/100/5 15/101/5 45/132/5 48/133/5
s 1
f 16/101/6 19/100/26 47/133/27 46/132/8
f 50/127/23 51/124/22 52/125/28 49/126/10
f 17/134/3 18/135/21 50/136/23 49/137/3
s 0
f 29/101/2 17/100/2 49/103/2 52/102/2
s 1
f 28/138/4 29/139/25 52/140/28 51/141/22
f 43/142/16 38/143/16 21/144/16 40/145/16
f 40/145/16 21/144/16 15/146/16 29/147/16
s 0
f 20/148/10 17/149/10 29/150/10 15/151/10
