# Blender 3.6.5
# www.blender.org
mtllib Inside_Poly_Table_04.mtl
o Cube_Cube.004
v -0.775180 0.128039 -0.624641
v -0.775000 0.477000 -0.625000
v -0.600000 0.477000 -0.625000
v -0.600142 0.159720 -0.624641
v 0.775180 0.128395 -0.624641
v 0.775000 0.477000 -0.625000
v 0.775000 0.477000 -0.500000
v 0.775180 0.159579 -0.499587
v 0.775180 0.128395 0.624641
v 0.775000 0.477000 0.625000
v 0.600000 0.477000 0.625000
v 0.600144 0.159720 0.624641
v 0.775180 0.159579 0.500233
v 0.755175 0.134640 0.608521
v 0.755175 0.165825 0.487323
v -0.600142 0.159720 0.624641
v -0.775180 0.128039 0.624641
v -0.755175 0.134284 0.608521
v -0.584718 0.165965 0.608521
v 0.600144 0.159720 -0.624641
v 0.755175 0.134640 -0.608521
v 0.584715 0.165965 -0.608521
v -0.775180 0.159223 -0.499587
v -0.755175 0.134284 -0.608521
v -0.755175 0.165469 -0.486694
v -0.584718 0.165965 -0.608521
v 0.584715 0.165965 0.608521
v 0.775000 0.477000 0.500000
v -0.600000 0.477000 0.625000
v 0.600000 0.477000 -0.625000
v -0.755175 0.165469 0.487323
v -0.775180 0.159223 0.500233
v 0.755175 0.165825 -0.486694
v -0.775000 0.477000 -0.500000
v -0.775000 0.477000 0.625000
v -0.775000 0.477000 0.500000
v -0.740000 0.500000 -0.597000
v -0.573000 0.500000 -0.597000
v 0.740000 0.500000 -0.597000
v 0.740000 0.500000 -0.477000
v 0.740000 0.500000 0.597000
v 0.573000 0.500000 0.597000
v 0.740000 0.500000 0.478000
v -0.573000 0.500000 0.597000
v 0.573000 0.500000 -0.597000
v -0.740000 0.500000 -0.477000
v -0.740000 0.500000 0.597000
v -0.740000 0.500000 0.478000
vn 0.0001 -0.0011 -1.0000
vn 1.0000 0.0005 -0.0001
vn -0.0001 -0.0011 1.0000
vn -0.1231 -0.9619 -0.2443
vn 0.1774 -0.9676 -0.1798
vn -0.1754 -0.9675 0.1820
vn 0.1241 -0.9620 0.2430
vn -0.0000 -0.9325 0.3612
vn -0.1754 -0.9675 -0.1820
vn 1.0000 0.0005 0.0001
vn 0.1774 -0.9676 0.1798
vn -0.0000 -0.9325 -0.3612
vn -0.0000 -0.0011 1.0000
vn -0.0000 -0.0011 -1.0000
vn -0.0001 -0.0011 -1.0000
vn 0.2980 -0.9546 -0.0000
vn -1.0000 0.0005 -0.0001
vn -0.1241 -0.9620 0.2430
vn 0.0001 -0.0011 1.0000
vn 0.1231 -0.9619 -0.2443
vn 1.0000 0.0006 -0.0000
vn -1.0000 0.0006 -0.0000
vn -0.2980 -0.9546 -0.0000
vn -0.0000 0.7727 0.6347
vn -1.0000 0.0005 0.0001
vn -0.0000 1.0000 -0.0000
vn -0.5492 0.8357 -0.0000
vn 0.5492 0.8357 -0.0000
vn -0.0000 0.7727 -0.6347
vt 0.249211 0.000391
vt 0.249211 0.018526
vt 0.245371 0.018558
vt 0.241691 0.002970
vt 0.249211 0.018525
vt 0.245372 0.018559
vt 0.219496 0.053738
vt 0.196420 0.003175
vt 0.191984 0.018575
vt 0.188174 0.018510
vt 0.188174 0.000186
vt 0.191984 0.018574
vt 0.191984 0.018577
vt 0.188174 0.018512
vt 0.245372 0.018560
vt 0.243780 0.022228
vt 0.247391 0.022228
vt 0.235985 0.022225
vt 0.235985 0.025324
vt 0.235985 0.050246
vt 0.235985 0.053544
vt 0.231622 0.053544
vt 0.201702 0.053544
vt 0.197116 0.053544
vt 0.197116 0.050246
vt 0.197116 0.025324
vt 0.197116 0.022225
vt 0.201702 0.022225
vt 0.231622 0.022225
vt 0.197116 0.050233
vt 0.197116 0.025317
vt 0.197116 0.025323
vt 0.197116 0.050239
vt 0.193577 0.022228
vt 0.189994 0.022228
s 0
usemtl Material
f 1/1/1 2/2/1 3/3/1 4/4/1
f 5/1/2 6/5/2 7/6/2 8/4/2
f 9/1/3 10/5/3 11/3/3 12/4/3
f 13/7/4 9/7/4 14/7/4 15/7/4
f 16/7/5 17/7/5 18/7/5 19/7/5
f 20/7/6 5/7/6 21/7/6 22/7/6
f 23/7/7 1/7/7 24/7/7 25/7/7
f 4/7/8 20/7/8 22/7/8 26/7/8
f 9/7/9 12/7/9 27/7/9 14/7/9
f 13/8/10 28/9/10 10/10/10 9/11/10
f 1/7/11 4/7/11 26/7/11 24/7/11
f 12/7/12 16/7/12 19/7/12 27/7/12
f 12/4/13 11/3/13 29/12/13 16/8/13
f 4/4/14 3/3/14 30/12/14 20/8/14
f 20/8/15 30/12/15 6/10/15 5/11/15
f 32/7/16 23/7/16 25/7/16 31/7/16
f 23/8/17 34/13/17 2/14/17 1/11/17
f 5/7/18 8/7/18 33/7/18 21/7/18
f 16/8/19 29/12/19 35/14/19 17/11/19
f 17/7/20 32/7/20 31/7/20 18/7/20
f 8/4/21 7/6/21 28/9/21 13/8/21
f 32/4/22 36/15/22 34/13/22 23/8/22
f 8/7/23 13/7/23 15/7/23 33/7/23
f 11/16/24 10/17/24 41/17/24 42/16/24
f 17/1/25 35/2/25 36/15/25 32/4/25
f 41/18/26 43/19/26 40/20/26 39/21/26 45/22/26 38/23/26 37/24/26 46/25/26 48/26/26 47/27/26 44/28/26 42/29/26
f 34/30/27 36/31/27 48/31/27 46/30/27
f 28/32/28 7/33/28 40/33/28 43/32/28
f 36/31/27 35/27/27 47/27/27 48/31/27
f 10/27/28 28/32/28 43/32/28 41/27/28
f 3/16/29 2/17/29 37/17/29 38/16/29
f 29/34/24 11/16/24 42/16/24 44/34/24
f 6/35/29 30/34/29 45/34/29 39/35/29
f 2/24/27 34/30/27 46/30/27 37/24/27
f 7/33/28 6/24/28 39/24/28 40/33/28
f 30/34/29 3/16/29 38/16/29 45/34/29
f 35/35/24 29/34/24 44/34/24 47/35/24
o Cube.001
v 0.600000 0.000000 -0.500000
v 0.666000 0.000000 -0.500000
v 0.700000 0.000000 -0.466000
v 0.700000 0.000000 -0.400000
v 0.600000 0.000000 -0.400000
v 0.600000 0.400000 -0.400000
v 0.600000 0.400000 -0.500000
v 0.700000 0.400000 -0.466007
v 0.700000 0.400000 -0.400000
v 0.666007 0.400000 -0.500000
v -0.600000 0.000000 -0.500000
v -0.666000 0.000000 -0.500000
v -0.700000 0.000000 -0.466000
v -0.700000 0.000000 -0.400000
v -0.600000 0.000000 -0.400000
v -0.600000 0.400000 -0.400000
v -0.600000 0.400000 -0.500000
v -0.700000 0.400000 -0.466007
v -0.700000 0.400000 -0.400000
v -0.666007 0.400000 -0.500000
v 0.600000 -0.000000 0.500000
v 0.666000 -0.000000 0.500000
v 0.700000 -0.000000 0.466000
v 0.700000 -0.000000 0.400000
v 0.600000 -0.000000 0.400000
v 0.600000 0.400000 0.400000
v 0.600000 0.400000 0.500000
v 0.700000 0.400000 0.466007
v 0.700000 0.400000 0.400000
v 0.666007 0.400000 0.500000
v -0.600000 -0.000000 0.500000
v -0.666000 -0.000000 0.500000
v -0.700000 -0.000000 0.466000
v -0.700000 -0.000000 0.400000
v -0.600000 -0.000000 0.400000
v -0.600000 0.400000 0.400000
v -0.600000 0.400000 0.500000
v -0.700000 0.400000 0.466007
v -0.700000 0.400000 0.400000
v -0.666007 0.400000 0.500000
vn -1.0000 -0.0000 -0.0000
vn 1.0000 -0.0000 -0.0000
vn -0.0000 1.0000 -0.0000
vn -0.0000 -0.0000 1.0000
vn -0.0000 -0.0000 -1.0000
vn 0.7071 -0.0000 -0.7071
vn -0.7071 -0.0000 -0.7071
vn 0.7071 -0.0000 0.7071
vn -0.7071 -0.0000 0.7071
vt 0.252691 0.065242
vt 0.252691 0.074171
vt 0.258881 0.074171
vt 0.258881 0.065242
vt 0.250758 0.094286
vt 0.271057 0.083606
vt 0.310609 0.083742
vt 0.310814 0.115364
vt 0.250893 0.115159
s 1
usemtl Material
f 53/36/30 54/37/30 55/38/30 49/39/30
f 51/36/31 56/37/31 57/38/31 52/39/31
f 56/40/32 58/41/32 55/42/32 54/43/32 57/44/32
f 52/36/33 57/37/33 54/38/33 53/39/33
f 49/36/34 55/37/34 58/38/34 50/39/34
f 56/37/35 51/36/35 50/39/35 58/38/35
f 63/36/31 59/39/31 65/38/31 64/37/31
f 61/36/30 62/39/30 67/38/30 66/37/30
f 66/40/32 67/44/32 64/43/32 65/42/32 68/41/32
f 62/36/33 63/39/33 64/38/33 67/37/33
f 59/36/34 60/39/34 68/38/34 65/37/34
f 66/37/36 68/38/36 60/39/36 61/36/36
f 73/36/30 69/39/30 75/38/30 74/37/30
f 71/36/31 72/39/31 77/38/31 76/37/31
f 76/40/32 77/44/32 74/43/32 75/42/32 78/41/32
f 72/36/34 73/39/34 74/38/34 77/37/34
f 69/36/33 70/39/33 78/38/33 75/37/33
f 76/37/37 78/38/37 70/39/37 71/36/37
f 83/36/31 84/37/31 85/38/31 79/39/31
f 81/36/30 86/37/30 87/38/30 82/39/30
f 86/40/32 88/41/32 85/42/32 84/43/32 87/44/32
f 82/36/34 87/37/34 84/38/34 83/39/34
f 79/36/33 85/37/33 88/38/33 80/39/33
f 86/37/38 81/36/38 80/39/38 88/38/38
