# Blender 3.6.5
# www.blender.org
mtllib Inside_Poly_Chair_03.mtl
o Cube
v -0.540000 1.188000 -0.450000
v -0.510000 0.120000 -0.390846
v 0.540000 1.188000 -0.450000
v 0.510000 0.120000 -0.390846
v -0.510000 0.120000 0.375000
v 0.510000 0.120000 0.375000
v -0.510000 0.180000 -0.435000
v 0.510000 0.180000 0.375000
v 0.510000 0.180000 -0.435000
v -0.510000 0.180000 0.375000
v 0.360000 0.120000 0.375000
v 0.360000 1.188000 -0.450000
v 0.360000 0.120000 -0.390846
v 0.360000 0.180000 -0.435000
v 0.360000 0.180000 0.375000
v -0.360000 0.120000 -0.390846
v -0.360000 0.180000 0.375000
v -0.360000 0.120000 0.375000
v -0.360000 1.188000 -0.450000
v -0.360000 0.180000 -0.435000
v 0.540000 1.188000 -0.270000
v -0.540000 1.188000 -0.270000
v 0.360000 1.188000 -0.270000
v -0.360000 1.188000 -0.270000
v 0.288000 1.261500 -0.450000
v 0.360000 1.261500 -0.270000
v 0.360000 0.361500 -0.270000
v -0.288000 1.261500 -0.450000
v -0.360000 1.261500 -0.270000
v -0.360000 0.361500 -0.270000
v 0.540000 0.270000 0.450000
v -0.540000 0.510000 -0.450000
v 0.540000 0.510000 -0.450000
v -0.540000 0.270000 0.450000
v 0.360000 0.901500 -0.450000
v -0.360000 0.901500 -0.450000
v -0.360000 0.270000 0.450000
v -0.540000 0.510000 -0.270000
v 0.540000 0.510000 -0.270000
v -0.540000 0.271500 -0.270000
v 0.540000 0.271500 -0.270000
v 0.360000 0.270000 0.450000
v -0.240000 1.455000 -0.480000
v -0.240000 1.455000 -0.270000
v 0.240000 1.455000 -0.480000
v 0.240000 1.455000 -0.270000
v -0.150000 1.455000 -0.480000
v -0.150000 1.455000 -0.270000
v 0.150000 1.455000 -0.480000
v 0.150000 1.455000 -0.270000
v -0.075000 1.455000 -0.480000
v -0.075000 1.455000 -0.270000
v 0.075000 1.455000 -0.480000
v 0.075000 1.455000 -0.270000
v 0.240000 1.530000 -0.375000
v 0.240000 1.530000 -0.345000
v 0.225000 1.530000 -0.375000
v 0.225000 1.530000 -0.345000
v -0.240000 1.530000 -0.375000
v -0.240000 1.530000 -0.345000
v -0.225000 1.530000 -0.375000
v -0.225000 1.530000 -0.345000
v -0.045000 1.500000 -0.435000
v -0.045000 1.500000 -0.285000
v 0.045000 1.500000 -0.435000
v 0.045000 1.500000 -0.285000
v -0.060000 1.530000 -0.450000
v -0.060000 1.530000 -0.270000
v 0.060000 1.530000 -0.450000
v 0.060000 1.530000 -0.270000
v -0.015000 1.605000 -0.375000
v -0.015000 1.605000 -0.345000
v 0.015000 1.605000 -0.375000
v 0.015000 1.605000 -0.345000
v -0.480000 1.218000 -0.390000
v -0.420000 1.218000 -0.390000
v -0.480000 1.218000 -0.330000
v -0.420000 1.218000 -0.330000
v 0.480000 1.218000 -0.390000
v 0.420000 1.218000 -0.390000
v 0.480000 1.218000 -0.330000
v 0.420000 1.218000 -0.330000
v -0.495000 1.248000 -0.405000
v -0.405000 1.248000 -0.405000
v -0.495000 1.248000 -0.315000
v -0.405000 1.248000 -0.315000
v 0.495000 1.248000 -0.405000
v 0.405000 1.248000 -0.405000
v 0.495000 1.248000 -0.315000
v 0.405000 1.248000 -0.315000
v -0.495000 1.278000 -0.405000
v -0.405000 1.278000 -0.405000
v -0.495000 1.278000 -0.315000
v -0.405000 1.278000 -0.315000
v -0.465000 1.350000 -0.375000
v -0.435000 1.350000 -0.375000
v -0.465000 1.350000 -0.345000
v -0.435000 1.350000 -0.345000
v 0.495000 1.278000 -0.405000
v 0.405000 1.278000 -0.405000
v 0.495000 1.278000 -0.315000
v 0.405000 1.278000 -0.315000
v 0.465000 1.350000 -0.375000
v 0.435000 1.350000 -0.375000
v 0.465000 1.350000 -0.345000
v 0.435000 1.350000 -0.345000
v 0.360000 0.360000 0.405000
v 0.360000 0.315000 0.450000
v -0.360000 0.315000 0.450000
v -0.360000 0.360000 0.405000
v 0.360000 0.508500 -0.270000
v -0.360000 0.508500 -0.270000
v -0.540000 0.447000 0.450000
v -0.540000 0.495000 0.403500
v 0.540000 0.495000 0.403500
v 0.540000 0.447000 0.450000
v 0.360000 0.492000 0.405000
v 0.360000 0.447000 0.450000
v -0.360000 0.448500 0.450000
v -0.360000 0.492000 0.405000
v -0.000000 1.170000 -0.240000
v -0.000000 1.455000 -0.240000
v -0.030000 1.170000 -0.270000
v -0.030000 1.455000 -0.270000
v 0.030000 1.170000 -0.270000
v 0.030000 1.455000 -0.270000
v -0.000000 1.170000 -0.270000
v 0.000000 1.455000 -0.285000
v -0.000000 1.305000 -0.150000
v -0.120000 1.365000 -0.270000
v 0.120000 1.365000 -0.270000
v -0.120000 1.260000 -0.270000
v 0.120000 1.260000 -0.270000
v -0.540000 0.270291 0.310446
v 0.540000 0.270291 0.310446
v -0.510000 0.180000 0.218002
v -0.510000 0.120000 0.226560
v 0.510000 0.180000 0.218002
v 0.510000 0.120000 0.226560
v -0.540000 0.271205 -0.128593
v 0.540000 0.271205 -0.128593
v -0.510000 0.180000 -0.275918
v -0.510000 0.120000 -0.240436
v 0.510000 0.180000 -0.275918
v 0.510000 0.120000 -0.240436
v -0.360000 0.120182 0.299263
v -0.510000 0.120182 0.299263
v -0.360000 0.120182 0.374263
v -0.510000 0.120182 0.374263
v -0.360000 0.120182 0.226241
v -0.510000 0.120182 0.226241
vn -1.0000 -0.0000 -0.0000
vn -0.0000 -0.0000 -1.0000
vn -0.0000 -0.5927 -0.8054
vn -0.0000 -0.0000 1.0000
vn 1.0000 -0.0000 -0.0000
vn 0.4472 0.8944 -0.0000
vn 0.8839 0.4329 -0.1768
vn -0.0000 1.0000 -0.0000
vn -0.8839 0.4329 -0.1768
vn -0.0000 -0.6402 0.7682
vn 0.0327 -0.0276 -0.9991
vn -0.0327 -0.0276 -0.9991
vn -0.9502 -0.3115 -0.0003
vn -0.9959 -0.0545 -0.0722
vn 0.9502 -0.3115 -0.0003
vn 0.9959 -0.0545 -0.0722
vn -0.7071 0.7071 -0.0000
vn 0.9090 0.3816 -0.1678
vn -0.0000 1.0000 0.0022
vn -0.0000 -0.0444 -0.9990
vn -0.0000 -0.0208 -0.9998
vn -0.8321 0.5547 -0.0000
vn -0.0000 0.7071 0.7071
vn 0.7071 0.7071 -0.0000
vn -0.0000 0.8137 -0.5812
vn -0.0000 -0.4472 0.8944
vn -0.0000 0.7071 -0.7071
vn 0.8321 0.5547 -0.0000
vn -0.0000 0.3162 0.9487
vn -0.8944 -0.4472 -0.0000
vn 0.8944 -0.4472 -0.0000
vn -0.0000 -0.4472 -0.8944
vn 0.8575 0.5145 -0.0000
vn -0.0000 0.8944 -0.4472
vn -0.4472 0.8944 -0.0000
vn -0.0000 0.8944 0.4472
vn 0.9231 0.3846 -0.0000
vn -0.9231 0.3846 -0.0000
vn -0.0000 0.3846 0.9231
vn -0.0000 0.3846 -0.9231
vn -0.0124 0.9997 0.0234
vn 0.0124 0.9997 0.0234
vn -0.0029 0.7013 0.7128
vn -0.5264 0.4645 0.7122
vn 0.5264 0.4645 0.7122
vn -0.0000 -1.0000 -0.0000
vn 0.7071 -0.0000 0.7071
vn -0.7071 -0.0000 0.7071
vn -0.5387 -0.4897 0.6856
vn 0.5387 -0.4897 0.6856
vn 0.9489 -0.3155 -0.0003
vn -0.9489 -0.3155 -0.0003
vn 0.9496 -0.3135 -0.0003
vn -0.9496 -0.3135 -0.0003
vn -0.8575 0.5145 -0.0000
vn -0.9090 0.3816 -0.1678
vt 0.461379 0.164220
vt 0.475026 0.164318
vt 0.475011 0.165379
vt 0.461379 0.165280
vt 0.488442 0.134057
vt 0.488442 0.129050
vt 0.494679 0.129050
vt 0.494679 0.134057
vt 0.455655 0.193437
vt 0.455655 0.199176
vt 0.449925 0.199176
vt 0.449925 0.193437
vt 0.440810 0.179056
vt 0.440810 0.219742
vt 0.446808 0.219742
vt 0.446808 0.179056
vt 0.455655 0.173781
vt 0.455655 0.184998
vt 0.449925 0.184998
vt 0.449925 0.173781
vt 0.448848 0.129437
vt 0.448848 0.134083
vt 0.443190 0.134083
vt 0.443190 0.129437
vt 0.494274 0.129437
vt 0.494356 0.134083
vt 0.488535 0.134083
vt 0.488454 0.129437
vt 0.440852 0.219770
vt 0.440852 0.179770
vt 0.446891 0.178761
vt 0.446891 0.220718
vt 0.487430 0.193437
vt 0.487430 0.199176
vt 0.481623 0.199176
vt 0.481623 0.193437
vt 0.487430 0.173781
vt 0.487430 0.184998
vt 0.481623 0.184998
vt 0.481623 0.173781
vt 0.444433 0.217615
vt 0.445208 0.217615
vt 0.446400 0.221399
vt 0.445176 0.221399
vt 0.475727 0.229291
vt 0.485295 0.229291
vt 0.485295 0.226238
vt 0.475727 0.226238
vt 0.461379 0.164078
vt 0.476469 0.164127
vt 0.476486 0.165395
vt 0.461379 0.165346
vt 0.490423 0.179056
vt 0.490423 0.219742
vt 0.496731 0.219742
vt 0.496731 0.179056
vt 0.494187 0.217615
vt 0.495098 0.217615
vt 0.495776 0.221399
vt 0.494147 0.221399
vt 0.447094 0.153498
vt 0.441904 0.153651
vt 0.440344 0.155243
vt 0.440426 0.177708
vt 0.447666 0.177501
vt 0.447554 0.172787
vt 0.447205 0.158150
vt 0.490423 0.178821
vt 0.490423 0.153180
vt 0.497129 0.153180
vt 0.496638 0.179763
vt 0.497342 0.179770
vt 0.490926 0.153249
vt 0.492570 0.151349
vt 0.497342 0.151349
vt 0.497342 0.156858
vt 0.497342 0.174188
vt 0.449621 0.137955
vt 0.488955 0.137955
vt 0.488955 0.134189
vt 0.449621 0.134189
vt 0.440893 0.179763
vt 0.440378 0.153180
vt 0.446891 0.153180
vt 0.446891 0.178821
vt 0.497059 0.137541
vt 0.497059 0.141422
vt 0.490464 0.141422
vt 0.490464 0.137541
vt 0.447109 0.137541
vt 0.447109 0.141422
vt 0.440353 0.141422
vt 0.440353 0.137541
vt 0.480724 0.134819
vt 0.488531 0.134819
vt 0.488531 0.137194
vt 0.480724 0.137194
vt 0.441818 0.146804
vt 0.440381 0.146804
vt 0.440381 0.137619
vt 0.441818 0.137598
vt 0.446771 0.174756
vt 0.446274 0.185683
vt 0.440810 0.182653
vt 0.440810 0.174756
vt 0.488531 0.136728
vt 0.448780 0.136728
vt 0.448780 0.137194
vt 0.490428 0.145969
vt 0.490428 0.147990
vt 0.496882 0.147990
vt 0.496882 0.145969
vt 0.482824 0.233113
vt 0.485854 0.237751
vt 0.488126 0.237751
vt 0.490990 0.233113
vt 0.475727 0.237328
vt 0.485295 0.237328
vt 0.473310 0.224096
vt 0.473310 0.217952
vt 0.477848 0.217952
vt 0.477848 0.224096
vt 0.449500 0.137824
vt 0.488474 0.137824
vt 0.488474 0.171030
vt 0.449500 0.171030
vt 0.459696 0.224096
vt 0.459696 0.217952
vt 0.464234 0.217952
vt 0.464234 0.224096
vt 0.479015 0.197534
vt 0.477283 0.204517
vt 0.474035 0.204517
vt 0.471328 0.204517
vt 0.465915 0.204517
vt 0.463209 0.204517
vt 0.459961 0.204517
vt 0.458228 0.197534
vt 0.455630 0.194881
vt 0.455630 0.184542
vt 0.481613 0.184542
vt 0.481613 0.194881
vt 0.489633 0.170217
vt 0.448146 0.170217
vt 0.448146 0.226496
vt 0.454446 0.238236
vt 0.459898 0.238236
vt 0.464322 0.238236
vt 0.473247 0.238236
vt 0.477710 0.238236
vt 0.483102 0.238236
vt 0.489728 0.226496
vt 0.474788 0.237682
vt 0.462750 0.237682
vt 0.463610 0.240262
vt 0.472208 0.240262
vt 0.456107 0.238962
vt 0.456107 0.242911
vt 0.456897 0.242911
vt 0.460846 0.238962
vt 0.479808 0.241796
vt 0.481630 0.241796
vt 0.482585 0.240456
vt 0.480910 0.242996
vt 0.480642 0.242996
vt 0.481322 0.240456
vt 0.481377 0.238962
vt 0.481377 0.242911
vt 0.480588 0.242911
vt 0.476639 0.238962
vt 0.456359 0.240456
vt 0.456899 0.242807
vt 0.456562 0.242807
vt 0.454945 0.240456
vt 0.466134 0.242135
vt 0.471234 0.242135
vt 0.472083 0.244052
vt 0.465285 0.244052
vt 0.463834 0.238729
vt 0.474461 0.238729
vt 0.472335 0.241917
vt 0.465959 0.241917
vt 0.463334 0.238729
vt 0.473961 0.238729
vt 0.471835 0.242135
vt 0.465459 0.242135
vt 0.472090 0.243114
vt 0.465396 0.243114
vt 0.464727 0.244453
vt 0.472759 0.244453
vt 0.471234 0.242352
vt 0.466134 0.242352
vt 0.469412 0.247800
vt 0.468073 0.247800
vt 0.469534 0.248301
vt 0.467834 0.248301
vt 0.469476 0.246487
vt 0.469476 0.249299
vt 0.468019 0.249299
vt 0.468019 0.246487
vt 0.495969 0.220103
vt 0.492326 0.220103
vt 0.491359 0.223886
vt 0.496936 0.223886
vt 0.441407 0.217615
vt 0.442438 0.217615
vt 0.442025 0.221399
vt 0.440398 0.221399
vt 0.443261 0.217615
vt 0.443326 0.221399
vt 0.495969 0.220103
vt 0.492326 0.220103
vt 0.491359 0.223886
vt 0.496936 0.223886
vt 0.492675 0.221399
vt 0.493480 0.217615
vt 0.495775 0.217615
vt 0.497334 0.221399
vt 0.492692 0.217615
vt 0.490956 0.221399
vt 0.497016 0.225526
vt 0.491150 0.225526
vt 0.491150 0.227393
vt 0.497016 0.227393
vt 0.494744 0.229776
vt 0.493559 0.229776
vt 0.494744 0.231011
vt 0.493559 0.231011
vt 0.494744 0.231008
vt 0.493559 0.231008
vt 0.447109 0.150596
vt 0.440353 0.150593
vt 0.497059 0.150593
vt 0.490493 0.150592
vt 0.449330 0.136301
vt 0.453108 0.137573
vt 0.449764 0.137573
vt 0.482997 0.136301
vt 0.483067 0.137427
vt 0.488297 0.136594
vt 0.497260 0.186039
vt 0.497260 0.153637
vt 0.489731 0.153718
vt 0.489731 0.186039
vt 0.497267 0.153637
vt 0.497267 0.186039
vt 0.489738 0.186039
vt 0.489738 0.153718
vt 0.489731 0.158724
vt 0.497260 0.158724
vt 0.497267 0.158724
vt 0.489738 0.158724
vt 0.490423 0.220718
vt 0.490423 0.178761
vt 0.496680 0.179770
vt 0.496680 0.219770
vt 0.468727 0.229518
vt 0.468727 0.237211
vt 0.467386 0.237211
vt 0.463361 0.232595
vt 0.474093 0.232595
vt 0.470069 0.237211
vt 0.467386 0.222594
vt 0.468727 0.222594
vt 0.470069 0.222594
vt 0.474093 0.227210
vt 0.463361 0.227210
vt 0.488596 0.136795
vt 0.488596 0.150650
vt 0.497317 0.150650
vt 0.497307 0.136795
vt 0.448780 0.134819
vt 0.448779 0.135279
vt 0.488531 0.135279
vt 0.456484 0.134819
vt 0.456484 0.137194
vt 0.447792 0.146804
vt 0.446337 0.146804
vt 0.446337 0.137533
vt 0.447792 0.137511
vt 0.490428 0.137563
vt 0.490428 0.139611
vt 0.496882 0.139611
vt 0.496882 0.137563
vt 0.125000 0.500000
vt 0.375000 0.500000
vt 0.375000 0.625000
vt 0.125000 0.625000
vt 0.483339 0.173349
vt 0.454611 0.173349
vt 0.448720 0.173349
vt 0.448720 0.165360
vt 0.448720 0.142994
vt 0.448720 0.134899
vt 0.454611 0.134899
vt 0.483339 0.134899
vt 0.489229 0.134899
vt 0.489229 0.142994
vt 0.489229 0.165360
vt 0.489229 0.173349
s 0
usemtl Material
f 24/1/1 112/2/1 30/3/1 29/4/1
f 117/5/1 107/6/1 108/7/1 118/8/1
f 35/9/2 12/10/2 3/11/2 33/12/2
f 38/13/1 22/14/1 1/15/1 32/16/1
f 13/17/3 14/18/3 9/19/3 4/20/3
f 18/21/4 17/22/4 10/23/4 5/24/4
f 6/25/4 8/26/4 15/27/4 11/28/4
f 22/29/4 38/30/4 112/31/4 24/32/4
f 110/6/5 120/5/5 119/8/5 109/7/5
f 32/33/2 1/34/2 19/35/2 36/36/2
f 2/37/3 7/38/3 20/39/3 16/40/3
f 24/41/6 19/42/6 76/43/6 78/44/6
f 25/45/7 26/46/7 23/47/7 12/48/7
f 26/49/8 27/50/8 111/51/8 23/52/8
f 33/53/5 3/54/5 21/55/5 39/56/5
f 21/57/6 3/58/6 79/59/6 81/60/6
f 34/61/1 113/62/1 114/63/1 38/64/1 40/65/1 140/66/1 134/67/1
f 27/68/1 107/69/1 117/70/1 111/71/1
f 41/72/5 39/68/5 115/73/5 116/74/5 31/75/5 135/76/5 141/77/5
f 19/48/9 24/47/9 29/46/9 28/45/9
f 17/78/10 15/79/10 42/80/10 37/81/10
f 112/82/5 120/83/5 110/84/5 30/85/5
f 11/80/4 15/79/4 17/78/4 18/81/4
f 7/38/11 32/33/11 36/36/11 20/39/11
f 8/86/10 31/87/10 42/88/10 15/89/10
f 14/18/12 35/9/12 33/12/12 9/19/12
f 17/90/10 37/91/10 34/92/10 10/93/10
f 140/94/13 40/95/13 7/96/13 142/97/13
f 137/98/1 5/99/1 10/100/1 136/101/1
f 32/102/14 7/103/14 40/104/14 38/105/14
f 141/106/15 144/107/15 9/108/15 41/96/15
f 138/109/5 8/110/5 6/111/5 139/112/5
f 9/103/16 33/102/16 39/105/16 41/104/16
f 50/113/17 58/114/17 57/115/17 49/116/17
f 25/45/18 45/117/18 46/118/18 26/46/18
f 53/119/8 54/120/8 50/121/8 49/122/8
f 20/39/3 14/18/3 13/17/3 16/40/3
f 30/123/19 110/124/19 107/125/19 27/126/19
f 47/127/8 48/128/8 52/129/8 51/130/8
f 28/131/20 43/132/20 47/133/20 51/134/20 53/135/20 49/136/20 45/137/20 25/138/20 12/139/20 35/140/20 36/141/20 19/142/20
f 30/143/4 27/144/4 26/145/4 46/146/4 50/147/4 54/148/4 52/149/4 48/150/4 44/151/4 29/152/4
f 36/36/21 35/9/21 14/18/21 20/39/21
f 109/78/4 37/81/4 42/80/4 108/79/4
f 51/153/22 52/154/22 64/155/22 63/156/22
f 46/157/23 56/158/23 58/159/23 50/160/23
f 45/117/5 55/161/5 56/162/5 46/118/5
f 44/118/1 60/162/1 59/161/1 43/117/1
f 57/163/8 58/164/8 56/165/8 55/166/8
f 47/116/24 61/115/24 62/114/24 48/113/24
f 43/167/25 59/168/25 61/169/25 47/170/25
f 44/167/23 48/170/23 62/169/23 60/168/23
f 59/171/8 60/172/8 62/173/8 61/174/8
f 64/175/26 66/176/26 70/177/26 68/178/26
f 53/179/27 51/180/27 63/181/27 65/182/27
f 54/154/28 53/153/28 65/156/28 66/155/28
f 52/183/29 54/184/29 66/185/29 64/186/29
f 63/187/30 64/188/30 68/189/30 67/190/30
f 66/188/31 65/187/31 69/190/31 70/189/31
f 65/191/32 63/192/32 67/178/32 69/177/32
f 69/190/33 73/193/33 74/194/33 70/189/33
f 68/178/23 70/177/23 74/195/23 72/196/23
f 67/178/27 71/196/27 73/195/27 69/177/27
f 71/197/8 72/198/8 74/199/8 73/200/8
f 78/201/31 76/202/31 84/203/31 86/204/31
f 19/205/34 1/206/34 75/207/34 76/208/34
f 1/206/35 22/209/35 77/210/35 75/207/35
f 22/209/36 24/41/36 78/44/36 77/210/36
f 79/211/32 80/212/32 88/213/32 87/214/32
f 23/60/36 21/215/36 81/216/36 82/57/36
f 3/58/34 12/217/34 80/218/34 79/59/34
f 12/219/35 23/216/35 82/215/35 80/220/35
f 85/221/4 86/222/4 94/223/4 93/224/4
f 75/201/30 77/202/30 85/203/30 83/204/30
f 77/202/26 78/201/26 86/204/26 85/203/26
f 76/202/32 75/201/32 83/204/32 84/203/32
f 88/224/1 90/223/1 102/222/1 100/221/1
f 82/212/26 81/211/26 89/214/26 90/213/26
f 80/212/30 82/211/30 90/214/30 88/213/30
f 81/201/31 79/202/31 87/203/31 89/204/31
f 94/223/37 92/224/37 96/225/37 98/226/37
f 84/221/2 83/222/2 91/223/2 92/224/2
f 86/222/5 84/221/5 92/224/5 94/223/5
f 83/222/1 85/221/1 93/224/1 91/223/1
f 95/226/8 97/225/8 98/227/8 96/228/8
f 91/223/38 93/224/38 97/225/38 95/226/38
f 93/224/39 94/223/39 98/226/39 97/225/39
f 92/224/40 91/223/40 95/226/40 96/225/40
f 101/224/37 99/223/37 103/226/37 105/225/37
f 89/221/5 87/222/5 99/223/5 101/224/5
f 87/222/2 88/221/2 100/224/2 99/223/2
f 90/224/4 89/223/4 101/222/4 102/221/4
f 104/226/8 106/225/8 105/229/8 103/230/8
f 99/223/40 100/224/40 104/225/40 103/226/40
f 102/223/39 101/224/39 105/225/39 106/226/39
f 100/224/38 102/223/38 106/226/38 104/225/38
f 37/91/4 119/231/4 113/232/4 34/92/4
f 31/87/4 116/233/4 118/234/4 42/88/4
f 37/235/8 109/236/8 119/237/8
f 42/238/8 118/239/8 108/240/8
f 107/80/23 110/81/23 109/78/23 108/79/23
f 111/241/41 117/242/41 115/243/41 39/244/41
f 120/245/42 112/246/42 38/247/42 114/248/42
f 116/249/43 115/243/43 117/242/43 118/250/43
f 119/251/23 120/245/23 114/248/23 113/252/23
f 23/253/4 111/254/4 39/255/4 21/256/4
f 129/257/44 122/258/44 124/259/44 130/260/44
f 131/261/45 126/262/45 122/258/45 129/257/45
f 123/263/46 127/264/46 125/265/46 121/264/46
f 128/258/8 124/259/8 122/258/8 126/262/8
f 133/266/47 131/261/47 129/257/47
f 129/257/48 130/260/48 132/267/48
f 121/264/49 129/257/49 132/267/49 123/263/49
f 125/265/50 133/266/50 129/257/50 121/264/50
f 144/268/5 138/269/5 139/270/5 145/271/5
f 31/95/51 8/272/51 138/273/51 135/274/51
f 143/269/1 137/270/1 136/271/1 142/268/1
f 34/272/52 134/275/52 136/276/52 10/108/52
f 2/277/1 143/278/1 142/279/1 7/280/1
f 9/281/5 144/282/5 145/283/5 4/284/5
f 135/274/53 138/273/53 144/107/53 141/106/53
f 134/275/54 140/94/54 142/97/54 136/276/54
f 146/285/8 147/286/8 149/287/8 148/288/8
f 147/286/8 146/285/8 150/285/8 151/286/8
f 11/289/46 18/290/46 5/291/46 137/292/46 143/293/46 2/294/46 16/295/46 13/296/46 4/297/46 145/298/46 139/299/46 6/300/46
f 49/160/25 57/159/25 55/158/25 45/157/25
f 68/189/55 72/194/55 71/193/55 67/190/55
f 29/46/56 44/118/56 43/117/56 28/45/56
o Cube.001
v -0.510000 0.060205 0.226241
v -0.360000 0.060205 0.226241
v -0.360000 0.000228 0.374263
v -0.510000 0.000228 0.374263
v -0.360000 0.000228 0.226241
v -0.510000 0.000228 0.226241
v -0.360000 0.060205 0.374263
v -0.510000 0.060205 0.374263
v -0.360000 0.120182 0.374263
v -0.510000 0.120182 0.374263
v -0.360000 0.120182 0.226241
v -0.510000 0.120182 0.226241
v -0.375000 0.000000 0.450000
v -0.495000 0.000000 0.450000
v -0.375000 0.045000 0.450000
v -0.495000 0.045000 0.450000
v -0.360000 0.000000 -0.240000
v -0.510000 0.000000 -0.240000
v -0.360000 0.000000 -0.390000
v -0.510000 0.000000 -0.390000
v -0.360000 0.120000 -0.185167
v -0.510000 0.120000 -0.185167
v -0.360000 0.120000 -0.390000
v -0.510000 0.120000 -0.390000
v 0.509998 0.060205 0.226241
v 0.359998 0.060205 0.226241
v 0.359998 0.000228 0.374263
v 0.509998 0.000228 0.374263
v 0.359998 0.000228 0.226241
v 0.509998 0.000228 0.226241
v 0.359998 0.060205 0.374263
v 0.509998 0.060205 0.374263
v 0.359998 0.120182 0.374263
v 0.509998 0.120182 0.374263
v 0.359998 0.120182 0.226241
v 0.509998 0.120182 0.226241
v 0.374998 0.000000 0.450000
v 0.494998 0.000000 0.450000
v 0.374998 0.045000 0.450000
v 0.494998 0.045000 0.450000
v 0.359998 0.000000 -0.240000
v 0.509998 0.000000 -0.240000
v 0.359998 0.000000 -0.390000
v 0.509998 0.000000 -0.390000
v 0.359998 0.120000 -0.185167
v 0.509998 0.120000 -0.185167
v 0.359998 0.120000 -0.390000
v 0.509998 0.120000 -0.390000
vn -0.0000 0.9804 0.1968
vn -0.0000 -0.0000 1.0000
vn -1.0000 -0.0000 -0.0000
vn 1.0000 -0.0000 -0.0000
vn -0.0000 -0.0000 -1.0000
vn -0.9809 -0.0000 0.1943
vn -0.0000 -1.0000 -0.0030
vn 0.9809 -0.0000 0.1943
vn -0.0000 -0.4156 0.9095
vt 0.447437 0.128316
vt 0.440355 0.128283
vt 0.441147 0.126770
vt 0.446709 0.126770
vt 0.442874 0.129349
vt 0.449052 0.129349
vt 0.449052 0.132840
vt 0.442874 0.132840
vt 0.442874 0.130867
vt 0.442874 0.133906
vt 0.449052 0.130867
vt 0.449052 0.133906
vt 0.449052 0.129120
vt 0.442874 0.129120
vt 0.440598 0.125492
vt 0.447420 0.125492
vt 0.447420 0.126738
vt 0.440598 0.126738
vt 0.443634 0.129109
vt 0.443634 0.130097
vt 0.448292 0.129109
vt 0.448292 0.130097
s 0
usemtl Material
f 158/301/57 159/302/57 167/303/57 166/304/57
f 159/305/58 158/306/58 160/307/58 161/308/58
f 152/309/59 159/309/59 161/310/59 163/310/59
f 158/311/60 153/311/60 162/312/60 160/312/60
f 156/313/61 157/314/61 152/309/61 153/311/61
f 157/314/59 155/314/59 159/309/59 152/309/59
f 153/311/61 152/309/61 163/310/61 162/312/61
f 154/313/60 156/313/60 153/311/60 158/311/60
f 165/315/58 164/316/58 166/317/58 167/318/58
f 159/309/62 155/314/62 165/319/62 167/320/62
f 155/314/63 154/313/63 164/321/63 165/319/63
f 154/313/64 158/311/64 166/322/64 164/321/64
f 168/313/60 170/313/60 174/312/60 172/312/60
f 169/314/65 168/313/65 172/307/65 173/308/65
f 175/310/61 174/312/61 170/313/61 171/314/61
f 171/314/59 169/314/59 173/310/59 175/310/59
f 182/301/57 190/304/57 191/303/57 183/302/57
f 183/305/58 185/308/58 184/307/58 182/306/58
f 176/309/60 187/310/60 185/310/60 183/309/60
f 182/311/59 184/312/59 186/312/59 177/311/59
f 180/313/61 177/311/61 176/309/61 181/314/61
f 181/314/60 176/309/60 183/309/60 179/314/60
f 177/311/61 186/312/61 187/310/61 176/309/61
f 178/313/59 182/311/59 177/311/59 180/313/59
f 189/315/58 191/318/58 190/317/58 188/316/58
f 183/309/64 191/320/64 189/319/64 179/314/64
f 179/314/63 189/319/63 188/321/63 178/313/63
f 178/313/62 188/321/62 190/322/62 182/311/62
f 192/313/59 196/312/59 198/312/59 194/313/59
f 193/314/65 197/308/65 196/307/65 192/313/65
f 199/310/61 195/314/61 194/313/61 198/312/61
f 195/314/60 199/310/60 197/310/60 193/314/60
o Cube.002
v -0.165000 0.120000 0.135000
v -0.075000 0.075000 0.300000
v -0.165000 0.120000 0.375000
v -0.075000 0.075000 0.375000
v 0.075000 0.075000 0.375000
v 0.165000 0.120000 0.375000
v 0.075000 0.075000 0.300000
v 0.165000 0.120000 0.135000
v -0.060000 0.030000 0.315000
v -0.060000 0.030000 0.360000
v 0.060000 0.030000 0.360000
v 0.060000 0.030000 0.315000
vn -0.4472 -0.8944 -0.0000
vn -0.9487 -0.3162 -0.0000
vn -0.0000 -0.9648 -0.2631
vn 0.4472 -0.8944 -0.0000
vn -0.0000 -0.0000 1.0000
vn -0.0000 1.0000 -0.0000
vn -0.0000 -1.0000 -0.0000
vn -0.0000 -0.3162 -0.9487
vn 0.9487 -0.3162 -0.0000
vn -0.0000 -0.3162 0.9487
vt 0.469409 0.132095
vt 0.469409 0.134378
vt 0.455737 0.134378
vt 0.462968 0.132095
vt 0.464173 0.129812
vt 0.469409 0.129812
vt 0.482249 0.134378
vt 0.475018 0.132095
vt 0.475018 0.132095
vt 0.482249 0.134378
vt 0.455737 0.134378
vt 0.462968 0.132095
vt 0.473813 0.129812
s 0
usemtl Material
f 203/323/66 202/324/66 200/325/66 201/326/66
f 203/323/67 201/326/67 208/327/67 209/328/67
f 201/326/68 200/325/68 207/329/68 206/330/68
f 206/330/69 207/329/69 205/324/69 204/323/69
f 204/331/70 205/332/70 202/333/70 203/334/70
f 207/329/71 200/325/71 202/333/71 205/332/71
f 208/327/72 211/335/72 210/335/72 209/327/72
f 201/326/73 206/330/73 211/335/73 208/327/73
f 206/330/74 204/323/74 210/328/74 211/335/74
f 204/331/75 203/334/75 209/327/75 210/335/75
