# Blender 3.6.5
# www.blender.org
mtllib Inside_Poly_Piano_01.mtl
o Cube
v -1.094000 0.385000 0.050000
v -1.094000 0.605000 0.050000
v 1.095000 0.385000 0.050000
v 1.095000 0.605000 0.050000
v -1.094000 0.385000 0.325000
v -1.094000 0.605000 0.325000
v 1.095000 0.385000 0.325000
v 1.095000 0.605000 0.325000
v -0.946000 0.385000 0.050000
v -0.946000 0.605000 0.050000
v -0.946000 0.385000 0.325000
v -0.946000 0.605000 0.325000
v 0.952000 0.605000 0.050000
v 0.952000 0.385000 0.325000
v 0.952000 0.385000 0.050000
v 0.952000 0.605000 0.325000
v 1.095000 0.660000 0.050000
v 1.095000 0.660000 0.325000
v 0.952000 0.660000 0.050000
v 0.952000 0.660000 0.325000
v -1.094000 0.660000 0.050000
v -1.094000 0.660000 0.325000
v -0.946000 0.660000 0.050000
v -0.946000 0.660000 0.325000
v -0.214000 0.000000 0.105000
v -0.214000 0.110000 0.105000
v -0.214000 0.000000 0.160000
v -0.214000 0.110000 0.160000
v -1.094000 0.550000 0.050000
v 1.095000 0.550000 0.050000
v 1.095000 0.550000 0.325000
v -1.094000 0.550000 0.325000
v -0.946000 0.550000 0.325000
v -0.946000 0.550000 0.050000
v 0.952000 0.550000 0.325000
v 0.952000 0.550000 0.050000
v -1.094000 0.385000 0.380000
v 1.095000 0.385000 0.380000
v -0.946000 0.385000 0.380000
v 0.952000 0.385000 0.380000
v 1.095000 0.550000 0.380000
v -1.094000 0.550000 0.380000
v -0.946000 0.550000 0.380000
v 0.952000 0.550000 0.380000
v -1.094000 0.000000 0.105000
v -1.094000 0.110000 0.105000
v -0.214000 0.000000 0.105000
v -0.214000 0.110000 0.105000
v -1.094000 0.000000 0.160000
v -1.094000 0.110000 0.160000
v -0.214000 0.000000 0.160000
v -0.214000 0.110000 0.160000
v -1.094000 0.000000 0.050000
v -1.094000 0.110000 0.050000
v -0.214000 0.000000 0.050000
v -0.214000 0.110000 0.050000
v 0.000000 0.000000 0.105000
v 0.000000 0.110000 0.105000
v 0.000000 0.000000 0.050000
v 0.000000 0.110000 0.050000
v 1.095000 0.000000 0.102000
v 1.095000 0.110000 0.102000
v 0.215000 0.000000 0.104000
v 0.215000 0.110000 0.104000
v 1.095000 0.000000 0.157000
v 1.095000 0.110000 0.157000
v 0.215000 0.000000 0.159000
v 0.215000 0.110000 0.159000
v 1.095000 0.000000 0.047000
v 1.095000 0.110000 0.047000
v 0.215000 0.000000 0.049000
v 0.215000 0.110000 0.049000
v 0.001000 0.000000 0.105000
v 0.001000 0.110000 0.105000
v 0.001000 0.000000 0.050000
v 0.001000 0.110000 0.050000
v -0.203000 0.016000 0.215000
v -0.203000 0.071000 0.215000
v -0.203000 0.016000 0.105000
v -0.203000 0.071000 0.105000
v -0.121000 0.016000 0.215000
v -0.121000 0.071000 0.215000
v -0.121000 0.016000 0.105000
v -0.121000 0.071000 0.105000
v -0.033000 0.016000 0.215000
v -0.033000 0.071000 0.215000
v -0.033000 0.016000 0.105000
v -0.033000 0.071000 0.105000
v 0.039000 0.016000 0.215000
v 0.039000 0.071000 0.215000
v 0.039000 0.016000 0.105000
v 0.039000 0.071000 0.105000
v 0.127000 0.016000 0.215000
v 0.127000 0.071000 0.215000
v 0.127000 0.016000 0.105000
v 0.127000 0.071000 0.105000
v 0.204000 0.016000 0.215000
v 0.204000 0.071000 0.215000
v 0.204000 0.016000 0.105000
v 0.204000 0.071000 0.105000
v -0.088000 0.495000 0.413000
v -0.088000 0.533000 0.413000
v -0.088000 0.495000 0.380000
v -0.088000 0.533000 0.380000
v 0.088000 0.495000 0.413000
v 0.088000 0.533000 0.413000
v 0.088000 0.495000 0.380000
v 0.088000 0.533000 0.380000
v -0.858000 0.605000 0.248000
v -0.858000 0.632000 0.248000
v -0.858000 0.605000 0.050000
v -0.858000 0.632000 0.050000
v -0.786000 0.605000 0.248000
v -0.786000 0.632000 0.248000
v -0.786000 0.605000 0.050000
v -0.786000 0.632000 0.050000
v -0.770000 0.605000 0.248000
v -0.770000 0.632000 0.248000
v -0.770000 0.605000 0.050000
v -0.770000 0.632000 0.050000
v -0.698000 0.605000 0.248000
v -0.698000 0.632000 0.248000
v -0.698000 0.605000 0.050000
v -0.698000 0.632000 0.050000
v -0.682000 0.605000 0.248000
v -0.682000 0.632000 0.248000
v -0.682000 0.605000 0.050000
v -0.682000 0.632000 0.050000
v -0.610000 0.605000 0.248000
v -0.610000 0.632000 0.248000
v -0.610000 0.605000 0.050000
v -0.610000 0.632000 0.050000
v -0.511000 0.605000 0.248000
v -0.511000 0.632000 0.248000
v -0.511000 0.605000 0.050000
v -0.511000 0.632000 0.050000
v -0.434000 0.605000 0.248000
v -0.434000 0.632000 0.248000
v -0.434000 0.605000 0.050000
v -0.434000 0.632000 0.050000
v -0.423000 0.605000 0.248000
v -0.423000 0.632000 0.248000
v -0.423000 0.605000 0.050000
v -0.423000 0.632000 0.050000
v -0.346000 0.605000 0.248000
v -0.346000 0.632000 0.248000
v -0.346000 0.605000 0.050000
v -0.346000 0.632000 0.050000
v -0.176000 0.632000 0.050000
v -0.176000 0.605000 0.050000
v -0.176000 0.632000 0.248000
v -0.176000 0.605000 0.248000
v -0.247000 0.632000 0.050000
v -0.247000 0.605000 0.050000
v -0.247000 0.632000 0.248000
v -0.247000 0.605000 0.248000
v -0.159000 0.605000 0.248000
v -0.159000 0.632000 0.248000
v -0.159000 0.605000 0.050000
v -0.159000 0.632000 0.050000
v -0.088000 0.605000 0.248000
v -0.088000 0.632000 0.248000
v -0.088000 0.605000 0.050000
v -0.088000 0.632000 0.050000
v -0.071000 0.605000 0.248000
v -0.071000 0.632000 0.248000
v -0.071000 0.605000 0.050000
v -0.071000 0.632000 0.050000
v 0.000000 0.605000 0.248000
v 0.000000 0.632000 0.248000
v 0.000000 0.605000 0.050000
v 0.000000 0.632000 0.050000
v 0.440000 0.632000 0.050000
v 0.440000 0.605000 0.050000
v 0.440000 0.632000 0.248000
v 0.440000 0.605000 0.248000
v 0.369000 0.632000 0.050000
v 0.369000 0.605000 0.050000
v 0.369000 0.632000 0.248000
v 0.369000 0.605000 0.248000
v 0.457000 0.605000 0.248000
v 0.457000 0.632000 0.248000
v 0.457000 0.605000 0.050000
v 0.457000 0.632000 0.050000
v 0.528000 0.605000 0.248000
v 0.528000 0.632000 0.248000
v 0.528000 0.605000 0.050000
v 0.528000 0.632000 0.050000
v 0.545000 0.605000 0.248000
v 0.545000 0.632000 0.248000
v 0.545000 0.605000 0.050000
v 0.545000 0.632000 0.050000
v 0.616000 0.605000 0.248000
v 0.616000 0.632000 0.248000
v 0.616000 0.605000 0.050000
v 0.616000 0.632000 0.050000
v 0.105000 0.605000 0.248000
v 0.105000 0.632000 0.248000
v 0.105000 0.605000 0.050000
v 0.105000 0.632000 0.050000
v 0.176000 0.605000 0.248000
v 0.176000 0.632000 0.248000
v 0.176000 0.605000 0.050000
v 0.176000 0.632000 0.050000
v 0.193000 0.605000 0.248000
v 0.193000 0.632000 0.248000
v 0.193000 0.605000 0.050000
v 0.193000 0.632000 0.050000
v 0.264000 0.605000 0.248000
v 0.264000 0.632000 0.248000
v 0.264000 0.605000 0.050000
v 0.264000 0.632000 0.050000
v 0.715000 0.605000 0.248000
v 0.715000 0.632000 0.248000
v 0.715000 0.605000 0.050000
v 0.715000 0.632000 0.050000
v 0.792000 0.605000 0.248000
v 0.792000 0.632000 0.248000
v 0.792000 0.605000 0.050000
v 0.792000 0.632000 0.050000
v 0.803000 0.605000 0.248000
v 0.803000 0.632000 0.248000
v 0.803000 0.605000 0.050000
v 0.803000 0.632000 0.050000
v 0.880000 0.605000 0.248000
v 0.880000 0.632000 0.248000
v 0.880000 0.605000 0.050000
v 0.880000 0.632000 0.050000
v -0.214000 0.715000 -0.005000
v -0.214000 0.759000 -0.005000
v -0.214000 0.715000 -0.038000
v -0.214000 0.759000 -0.038000
v 0.220000 0.715000 -0.005000
v 0.220000 0.759000 -0.005000
v 0.220000 0.715000 -0.038000
v 0.220000 0.759000 -0.038000
v -1.023000 0.000000 0.435000
v -1.023000 0.055000 0.435000
v -1.023000 0.000000 0.270000
v -1.023000 0.055000 0.270000
v -0.874000 0.000000 0.435000
v -0.874000 0.055000 0.435000
v -0.874000 0.000000 0.270000
v -0.874000 0.055000 0.270000
v -1.023000 0.000000 0.380000
v -1.023000 0.055000 0.380000
v -0.874000 0.000000 0.380000
v -0.874000 0.055000 0.380000
v -1.023000 0.385000 0.215000
v -0.874000 0.385000 0.215000
v -1.023000 0.385000 0.325000
v -0.874000 0.385000 0.325000
v -0.874000 0.220000 0.270000
v -0.874000 0.220000 0.380000
v -1.023000 0.220000 0.380000
v -1.023000 0.220000 0.270000
v 1.023000 0.000000 0.435000
v 1.023000 0.055000 0.435000
v 1.023000 0.000000 0.270000
v 1.023000 0.055000 0.270000
v 0.875000 0.000000 0.435000
v 0.875000 0.055000 0.435000
v 0.875000 0.000000 0.270000
v 0.875000 0.055000 0.270000
v 1.023000 0.000000 0.380000
v 1.023000 0.055000 0.380000
v 0.875000 0.000000 0.380000
v 0.875000 0.055000 0.380000
v 1.023000 0.385000 0.215000
v 0.875000 0.385000 0.215000
v 1.023000 0.385000 0.325000
v 0.875000 0.385000 0.325000
v 0.875000 0.220000 0.270000
v 0.875000 0.220000 0.380000
v 1.023000 0.220000 0.380000
v 1.023000 0.220000 0.270000
v -1.094000 0.000000 -0.500000
v -1.094000 0.715000 -0.500000
v 1.095000 0.000000 -0.500000
v 1.095000 0.715000 -0.500000
v -1.094000 0.000000 0.050000
v -1.094000 0.715000 0.050000
v 1.095000 0.000000 0.050000
v 1.095000 0.715000 0.050000
v 1.095000 0.000000 -0.121000
v 1.095000 0.715000 -0.115000
v -1.094000 0.000000 -0.121000
v -1.094000 0.715000 -0.115000
v -1.094000 0.880000 -0.500000
v 1.095000 0.880000 -0.500000
v 1.095000 0.880000 -0.115000
v -1.094000 0.880000 -0.115000
v -1.094000 1.045000 -0.500000
v 1.095000 1.045000 -0.500000
v 1.095000 1.045000 -0.115000
v -1.094000 1.045000 -0.115000
v 1.095000 0.880000 -0.060000
v -1.094000 0.880000 -0.060000
v 1.095000 1.045000 -0.060000
v -1.094000 1.045000 -0.060000
v -0.121000 0.742000 0.000000
v 0.127000 0.742000 -0.000000
v -0.121000 0.979000 -0.055000
v 0.127000 0.979000 -0.055000
vn -0.0000 -0.0000 -1.0000
vn -0.0000 -0.0000 1.0000
vn 1.0000 -0.0000 -0.0000
vn -1.0000 -0.0000 -0.0000
vn -0.0000 1.0000 -0.0000
vn -0.0000 -1.0000 -0.0000
vn 0.0023 -0.0000 1.0000
vn -0.0023 -0.0000 -1.0000
vn -0.0047 -0.0000 -1.0000
vn 0.0047 -0.0000 1.0000
vn -0.0000 -0.3162 -0.9487
vn -0.0000 0.3162 0.9487
vn -0.0000 0.2261 0.9741
vt 0.933816 0.435665
vt 0.968472 0.435665
vt 0.968472 0.437053
vt 0.933816 0.437053
vt 0.848895 0.344272
vt 0.848895 0.346609
vt 0.843760 0.346609
vt 0.843760 0.344272
vt 0.842884 0.409441
vt 0.842884 0.422768
vt 0.879582 0.422768
vt 0.879582 0.409441
vt 0.899041 0.344297
vt 0.844609 0.344297
vt 0.844697 0.338535
vt 0.899041 0.338535
vt 0.968472 0.435416
vt 0.842449 0.435416
vt 0.961626 0.346690
vt 0.961626 0.349835
vt 0.848763 0.349835
vt 0.848763 0.346690
vt 0.933816 0.407240
vt 0.968472 0.407240
vt 0.968472 0.408876
vt 0.933816 0.408876
vt 0.961626 0.350090
vt 0.961626 0.364250
vt 0.848763 0.364146
vt 0.848763 0.350090
vt 0.850344 0.394942
vt 0.850344 0.401688
vt 0.961800 0.401688
vt 0.961800 0.394942
vt 0.842884 0.437267
vt 0.879582 0.437267
vt 0.848895 0.348946
vt 0.843760 0.348946
vt 0.843778 0.349040
vt 0.843778 0.363213
vt 0.849979 0.363213
vt 0.849979 0.349040
vt 0.842449 0.408627
vt 0.968472 0.408627
vt 0.849979 0.349087
vt 0.849979 0.363260
vt 0.843778 0.363213
vt 0.843778 0.349040
vt 0.852515 0.338155
vt 0.959463 0.338155
vt 0.959463 0.327015
vt 0.852515 0.327015
vt 0.850344 0.401465
vt 0.961800 0.401465
vt 0.899041 0.344282
vt 0.899041 0.338513
vt 0.888891 0.338513
vt 0.888891 0.344282
vt 0.842449 0.407240
vt 0.842449 0.408876
vt 0.849967 0.437091
vt 0.961114 0.437235
vt 0.962138 0.347619
vt 0.957461 0.347619
vt 0.957461 0.345121
vt 0.962138 0.345121
vt 0.842449 0.435665
vt 0.842449 0.437053
vt 0.967266 0.338527
vt 0.967266 0.344296
vt 0.961184 0.344296
vt 0.961184 0.338527
vt 0.850261 0.344296
vt 0.850261 0.338527
vt 0.844179 0.344296
vt 0.844179 0.338527
vt 0.968418 0.437243
vt 0.842663 0.437083
vt 0.853882 0.347619
vt 0.849025 0.347619
vt 0.849025 0.345121
vt 0.853882 0.345121
vt 0.849987 0.406070
vt 0.961134 0.406214
vt 0.968438 0.406222
vt 0.842683 0.406062
vt 0.853037 0.326566
vt 0.889178 0.326566
vt 0.889178 0.335400
vt 0.853037 0.335400
vt 0.888792 0.326527
vt 0.888792 0.320802
vt 0.854160 0.320802
vt 0.854160 0.326527
vt 0.889178 0.320802
vt 0.889178 0.326527
vt 0.853037 0.326527
vt 0.853037 0.320802
vt 0.852515 0.326768
vt 0.959463 0.326768
vt 0.909030 0.326566
vt 0.909030 0.335400
vt 0.853590 0.326617
vt 0.853590 0.320995
vt 0.885666 0.321063
vt 0.885666 0.326687
vt 0.853466 0.326206
vt 0.888985 0.326206
vt 0.888985 0.320925
vt 0.853466 0.320925
vt 0.899631 0.317800
vt 0.899631 0.321568
vt 0.893328 0.321568
vt 0.893328 0.317800
vt 0.891937 0.338835
vt 0.891937 0.342418
vt 0.888290 0.342418
vt 0.888290 0.338835
vt 0.890767 0.363271
vt 0.890767 0.356773
vt 0.894414 0.356773
vt 0.894414 0.363271
vt 0.894414 0.354306
vt 0.890767 0.354306
vt 0.921121 0.368716
vt 0.921121 0.373389
vt 0.891122 0.373389
vt 0.891122 0.368716
vt 0.888164 0.369973
vt 0.888164 0.376206
vt 0.921639 0.376206
vt 0.921639 0.369973
vt 0.845307 0.317024
vt 0.852523 0.317024
vt 0.852523 0.321184
vt 0.845307 0.321184
vt 0.852523 0.312864
vt 0.845307 0.312864
vt 0.845307 0.316386
vt 0.852523 0.316386
vt 0.852523 0.312902
vt 0.845307 0.312902
vt 0.845303 0.312988
vt 0.845296 0.316464
vt 0.852617 0.316464
vt 0.852617 0.313050
vt 0.845307 0.317024
vt 0.845307 0.316464
vt 0.852617 0.321184
vt 0.845295 0.330037
vt 0.853264 0.329994
vt 0.853264 0.338060
vt 0.845327 0.338060
vt 0.852523 0.321091
vt 0.845307 0.321091
vt 0.845327 0.329994
vt 0.851437 0.330061
vt 0.845273 0.321774
vt 0.851447 0.321774
vt 0.851426 0.338348
vt 0.845252 0.338386
vt 0.853264 0.321929
vt 0.845327 0.321929
vt 0.844147 0.409242
vt 0.844147 0.434216
vt 0.965536 0.434216
vt 0.965536 0.409242
vt 0.965569 0.412319
vt 0.844697 0.412319
vt 0.844697 0.404481
vt 0.965569 0.404481
vt 0.965536 0.435991
vt 0.965536 0.404413
vt 0.844147 0.404413
vt 0.844147 0.435991
vt 0.965569 0.433738
vt 0.844697 0.433738
vt 0.965569 0.404582
vt 0.965569 0.412393
vt 0.844697 0.412393
vt 0.844697 0.404582
vt 0.930565 0.416082
vt 0.968540 0.416082
vt 0.968540 0.406358
vt 0.930565 0.406358
vt 0.930477 0.406256
vt 0.968540 0.406256
vt 0.968540 0.415994
vt 0.930536 0.415994
vt 0.968540 0.406199
vt 0.930477 0.406199
vt 0.930536 0.416022
vt 0.968540 0.416022
vt 0.844697 0.406363
vt 0.965569 0.406363
vt 0.965569 0.415679
vt 0.844697 0.415679
vt 0.964788 0.411241
vt 0.964788 0.431752
vt 0.845829 0.431752
vt 0.845829 0.411241
vt 0.955886 0.406358
vt 0.955886 0.416082
vt 0.966056 0.416082
vt 0.966056 0.406358
vt 0.844697 0.416082
vt 0.965569 0.416082
vt 0.965569 0.406358
vt 0.844697 0.406358
vt 0.845829 0.409531
vt 0.964788 0.409531
vt 0.844697 0.422017
vt 0.965569 0.422017
vt 0.895999 0.373830
vt 0.913909 0.373830
vt 0.913909 0.394400
vt 0.895999 0.394400
s 0
usemtl Wood_CLock
f 36/1/1 13/2/1 4/3/1 30/4/1
f 33/5/2 12/6/2 6/7/2 32/8/2
f 30/9/3 4/10/3 8/11/3 31/12/3
f 32/13/4 29/14/4 1/15/4 5/16/4
f 12/17/3 10/18/3 23/18/3 24/17/3
f 35/19/2 16/20/2 12/21/2 33/22/2
f 29/23/1 2/24/1 10/25/1 34/26/1
f 31/5/2 8/6/2 16/7/2 35/8/2
f 16/27/5 13/28/5 10/29/5 12/30/5
f 34/31/1 10/32/1 13/33/1 36/34/1
f 8/11/3 4/10/3 17/35/3 18/36/3
f 16/7/2 8/6/2 18/37/2 20/38/2
f 18/39/5 17/40/5 19/41/5 20/42/5
f 4/3/1 13/2/1 19/2/1 17/3/1
f 13/43/4 16/44/4 20/44/4 19/43/4
f 6/7/2 12/6/2 24/37/2 22/38/2
f 10/25/1 2/24/1 21/24/1 23/25/1
f 24/45/5 23/46/5 21/47/5 22/48/5
f 2/10/4 6/11/4 22/36/4 21/35/4
f 25/49/3 26/50/3 28/51/3 27/52/3
f 32/12/4 6/11/4 2/10/4 29/9/4
f 30/14/3 31/13/3 7/16/3 3/15/3
f 9/53/1 34/31/1 36/34/1 15/54/1
f 32/55/4 5/56/4 37/57/4 42/58/4
f 1/59/1 29/23/1 34/26/1 9/60/1
f 11/61/6 14/62/6 40/62/6 39/61/6
f 31/63/5 35/64/5 44/65/5 41/66/5
f 15/67/1 36/1/1 30/4/1 3/68/1
f 38/69/2 41/70/2 44/71/2 40/72/2
f 40/72/2 44/71/2 43/73/2 39/74/2
f 39/74/2 43/73/2 42/75/2 37/76/2
f 14/62/6 7/77/6 38/77/6 40/62/6
f 5/78/6 11/61/6 39/61/6 37/78/6
f 33/79/5 32/80/5 42/81/5 43/82/5
f 7/57/3 31/58/3 41/55/3 38/56/3
f 35/64/5 33/79/5 43/82/5 44/65/5
f 9/83/6 15/84/6 3/85/6 7/77/6 14/62/6 11/61/6 5/78/6 1/86/6
f 46/87/5 48/88/5 56/89/5 54/90/5
f 51/91/2 52/92/2 50/93/2 49/94/2
f 49/49/4 50/50/4 46/51/4 45/52/4
f 47/51/6 51/52/6 49/49/6 45/50/6
f 52/95/5 48/96/5 46/97/5 50/98/5
f 53/52/1 54/51/1 56/50/1 55/49/1
f 47/51/6 45/50/6 53/50/6 55/51/6
f 55/99/1 56/100/1 60/50/1 59/49/1
f 45/52/4 46/51/4 54/51/4 53/52/4
f 56/89/5 48/88/5 58/101/5 60/102/5
f 48/103/2 47/104/2 57/105/2 58/106/2
f 47/51/6 55/51/6 59/51/6 57/51/6
f 47/107/3 48/108/3 52/109/3 51/110/3
f 62/87/5 70/90/5 72/89/5 64/88/5
f 67/91/7 65/94/7 66/93/7 68/92/7
f 65/49/3 61/52/3 62/51/3 66/50/3
f 63/51/6 61/50/6 65/49/6 67/52/6
f 68/95/5 66/98/5 62/97/5 64/96/5
f 69/52/8 71/49/8 72/50/8 70/51/8
f 63/51/6 71/51/6 69/50/6 61/50/6
f 71/99/9 75/49/9 76/50/9 72/100/9
f 61/52/3 69/52/3 70/51/3 62/51/3
f 72/89/5 76/102/5 74/101/5 64/88/5
f 64/103/10 74/106/10 73/105/10 63/104/10
f 63/51/6 73/51/6 75/51/6 71/51/6
f 63/107/4 67/110/4 68/109/4 64/108/4
f 77/111/4 78/112/4 80/113/4 79/114/4
f 79/114/1 80/113/1 84/112/1 83/111/1
f 83/114/3 84/113/3 82/112/3 81/111/3
f 81/111/2 82/112/2 78/113/2 77/114/2
f 79/114/6 83/111/6 81/111/6 77/114/6
f 84/111/5 80/114/5 78/113/5 82/112/5
f 85/111/4 86/112/4 88/113/4 87/114/4
f 87/114/1 88/113/1 92/112/1 91/111/1
f 91/114/3 92/113/3 90/112/3 89/111/3
f 89/111/2 90/112/2 86/113/2 85/114/2
f 87/114/6 91/111/6 89/111/6 85/114/6
f 92/111/5 88/114/5 86/113/5 90/112/5
f 93/111/4 94/112/4 96/113/4 95/114/4
f 95/114/1 96/113/1 100/112/1 99/111/1
f 99/114/3 100/113/3 98/112/3 97/111/3
f 97/111/2 98/112/2 94/113/2 93/114/2
f 95/114/6 99/111/6 97/111/6 93/114/6
f 100/111/5 96/114/5 94/113/5 98/112/5
f 101/111/4 102/112/4 104/113/4 103/114/4
f 103/114/1 104/113/1 108/112/1 107/111/1
f 107/114/3 108/113/3 106/112/3 105/111/3
f 105/111/2 106/112/2 102/113/2 101/114/2
f 103/114/6 107/111/6 105/111/6 101/114/6
f 108/111/5 104/114/5 102/113/5 106/112/5
f 109/115/4 110/116/4 112/117/4 111/118/4
f 111/119/1 112/120/1 116/121/1 115/122/1
f 115/118/3 116/117/3 114/116/3 113/115/3
f 113/123/2 114/121/2 110/120/2 109/124/2
f 111/119/6 115/122/6 113/122/6 109/119/6
f 116/122/5 112/119/5 110/120/5 114/121/5
f 117/115/4 118/116/4 120/117/4 119/118/4
f 119/119/1 120/120/1 124/121/1 123/122/1
f 123/118/3 124/117/3 122/116/3 121/115/3
f 121/123/2 122/121/2 118/120/2 117/124/2
f 119/119/6 123/122/6 121/122/6 117/119/6
f 124/122/5 120/119/5 118/120/5 122/121/5
f 125/115/4 126/116/4 128/117/4 127/118/4
f 127/119/1 128/120/1 132/121/1 131/122/1
f 131/118/3 132/117/3 130/116/3 129/115/3
f 129/123/2 130/121/2 126/120/2 125/124/2
f 127/119/6 131/122/6 129/122/6 125/119/6
f 132/122/5 128/119/5 126/120/5 130/121/5
f 133/115/4 134/116/4 136/117/4 135/118/4
f 135/119/1 136/120/1 140/121/1 139/122/1
f 139/118/3 140/117/3 138/116/3 137/115/3
f 137/123/2 138/121/2 134/120/2 133/124/2
f 135/119/6 139/122/6 137/122/6 133/119/6
f 140/122/5 136/119/5 134/120/5 138/121/5
f 141/115/4 142/116/4 144/117/4 143/118/4
f 143/119/1 144/120/1 148/121/1 147/122/1
f 147/118/3 148/117/3 146/116/3 145/115/3
f 145/123/2 146/121/2 142/120/2 141/124/2
f 143/119/6 147/122/6 145/122/6 141/119/6
f 148/122/5 144/119/5 142/120/5 146/121/5
f 154/119/6 150/122/6 152/122/6 156/119/6
f 154/119/1 153/120/1 149/121/1 150/122/1
f 156/115/4 155/116/4 153/117/4 154/118/4
f 152/123/2 151/121/2 155/120/2 156/124/2
f 149/122/5 153/119/5 155/120/5 151/121/5
f 150/118/3 149/117/3 151/116/3 152/115/3
f 157/115/4 158/116/4 160/117/4 159/118/4
f 159/119/1 160/120/1 164/121/1 163/122/1
f 163/118/3 164/117/3 162/116/3 161/115/3
f 161/123/2 162/121/2 158/120/2 157/124/2
f 159/119/6 163/122/6 161/122/6 157/119/6
f 164/122/5 160/119/5 158/120/5 162/121/5
f 165/115/4 166/116/4 168/117/4 167/118/4
f 167/119/1 168/120/1 172/121/1 171/122/1
f 171/118/3 172/117/3 170/116/3 169/115/3
f 169/123/2 170/121/2 166/120/2 165/124/2
f 167/119/6 171/122/6 169/122/6 165/119/6
f 172/122/5 168/119/5 166/120/5 170/121/5
f 178/119/6 174/122/6 176/122/6 180/119/6
f 178/119/1 177/120/1 173/121/1 174/122/1
f 180/115/4 179/116/4 177/117/4 178/118/4
f 176/123/2 175/121/2 179/120/2 180/124/2
f 173/122/5 177/119/5 179/120/5 175/121/5
f 174/118/3 173/117/3 175/116/3 176/115/3
f 181/115/4 182/116/4 184/117/4 183/118/4
f 183/119/1 184/120/1 188/121/1 187/122/1
f 187/118/3 188/117/3 186/116/3 185/115/3
f 185/123/2 186/121/2 182/120/2 181/124/2
f 183/119/6 187/122/6 185/122/6 181/119/6
f 188/122/5 184/119/5 182/120/5 186/121/5
f 189/115/4 190/116/4 192/117/4 191/118/4
f 191/119/1 192/120/1 196/121/1 195/122/1
f 195/118/3 196/117/3 194/116/3 193/115/3
f 193/123/2 194/121/2 190/120/2 189/124/2
f 191/119/6 195/122/6 193/122/6 189/119/6
f 196/122/5 192/119/5 190/120/5 194/121/5
f 197/115/4 198/116/4 200/117/4 199/118/4
f 199/119/1 200/120/1 204/121/1 203/122/1
f 203/118/3 204/117/3 202/116/3 201/115/3
f 201/123/2 202/121/2 198/120/2 197/124/2
f 199/119/6 203/122/6 201/122/6 197/119/6
f 204/122/5 200/119/5 198/120/5 202/121/5
f 205/115/4 206/116/4 208/117/4 207/118/4
f 207/119/1 208/120/1 212/121/1 211/122/1
f 211/118/3 212/117/3 210/116/3 209/115/3
f 209/123/2 210/121/2 206/120/2 205/124/2
f 207/119/6 211/122/6 209/122/6 205/119/6
f 212/122/5 208/119/5 206/120/5 210/121/5
f 213/115/4 214/116/4 216/117/4 215/118/4
f 215/119/1 216/120/1 220/121/1 219/122/1
f 219/118/3 220/117/3 218/116/3 217/115/3
f 217/123/2 218/121/2 214/120/2 213/124/2
f 215/119/6 219/122/6 217/122/6 213/119/6
f 220/122/5 216/119/5 214/120/5 218/121/5
f 221/115/4 222/116/4 224/117/4 223/118/4
f 223/119/1 224/120/1 228/121/1 227/122/1
f 227/118/3 228/117/3 226/116/3 225/115/3
f 225/123/2 226/121/2 222/120/2 221/124/2
f 223/119/6 227/122/6 225/122/6 221/119/6
f 228/122/5 224/119/5 222/120/5 226/121/5
f 229/125/4 230/126/4 232/127/4 231/128/4
f 231/129/1 232/130/1 236/131/1 235/132/1
f 235/128/3 236/127/3 234/126/3 233/125/3
f 233/132/2 234/131/2 230/130/2 229/129/2
f 231/129/6 235/132/6 233/132/6 229/129/6
f 236/132/5 232/129/5 230/130/5 234/131/5
f 245/133/4 246/134/4 240/135/4 239/136/4
f 239/136/1 240/135/1 244/137/1 243/138/1
f 247/139/3 248/140/3 242/141/3 241/142/3
f 241/143/2 242/144/2 238/145/2 237/146/2
f 245/134/6 247/147/6 241/136/6 237/135/6
f 248/145/5 246/148/5 238/136/5 242/149/5
f 254/150/3 253/151/3 250/152/3 252/153/3
f 239/137/6 243/138/6 247/147/6 245/134/6
f 243/139/3 244/140/3 248/154/3 247/155/3
f 237/138/4 238/137/4 246/134/4 245/133/4
f 250/137/5 249/138/5 251/133/5 252/134/5
f 256/151/4 255/156/4 251/153/4 249/152/4
f 253/137/11 256/135/11 249/135/11 250/137/11
f 255/157/12 254/150/12 252/158/12 251/159/12
f 246/160/2 248/161/2 254/150/2 255/157/2
f 244/137/1 240/135/1 256/135/1 253/137/1
f 240/162/4 246/163/4 255/156/4 256/151/4
f 248/163/3 244/162/3 253/151/3 254/150/3
f 265/133/3 259/136/3 260/135/3 266/134/3
f 259/136/1 263/138/1 264/137/1 260/135/1
f 267/139/4 261/142/4 262/141/4 268/140/4
f 261/143/2 257/146/2 258/145/2 262/144/2
f 265/134/6 257/135/6 261/136/6 267/147/6
f 268/145/5 262/149/5 258/136/5 266/148/5
f 274/150/4 272/153/4 270/152/4 273/151/4
f 259/137/6 265/134/6 267/147/6 263/138/6
f 263/139/4 267/155/4 268/154/4 264/140/4
f 257/138/3 265/133/3 266/134/3 258/137/3
f 270/137/5 272/134/5 271/133/5 269/138/5
f 276/151/3 269/152/3 271/153/3 275/156/3
f 273/137/11 270/137/11 269/135/11 276/135/11
f 275/157/12 271/159/12 272/158/12 274/150/12
f 266/160/2 275/157/2 274/150/2 268/161/2
f 264/137/1 273/137/1 276/135/1 260/135/1
f 260/162/3 276/151/3 275/156/3 266/163/3
f 268/163/4 274/150/4 273/151/4 264/162/4
f 277/164/1 278/165/1 280/166/1 279/167/1
f 285/168/3 286/169/3 284/170/3 283/171/3
f 283/172/2 284/173/2 282/174/2 281/175/2
f 287/169/4 288/168/4 278/176/4 277/177/4
f 280/166/1 278/165/1 289/165/1 290/166/1
f 284/178/5 286/179/5 288/180/5 282/181/5
f 281/170/4 282/171/4 288/168/4 287/169/4
f 279/176/3 280/177/3 286/169/3 285/168/3
f 291/182/3 290/183/3 294/184/3 295/185/3
f 286/186/3 280/187/3 290/188/3 291/189/3
f 278/190/4 288/191/4 292/192/4 289/193/4
f 288/194/2 286/195/2 291/196/2 292/197/2
f 295/198/5 294/199/5 293/200/5 296/201/5
f 290/166/1 289/165/1 293/165/1 294/166/1
f 296/202/4 292/203/4 298/204/4 300/205/4
f 289/183/4 292/182/4 296/185/4 293/184/4
f 298/206/2 297/207/2 299/208/2 300/209/2
f 291/204/3 295/205/3 299/202/3 297/203/3
f 295/198/5 296/201/5 300/210/5 299/211/5
f 292/212/6 291/213/6 297/179/6 298/180/6
f 301/214/13 302/215/13 304/216/13 303/217/13
