# Blender v3.0.1 OBJ File: 'Inside_Poly_Window_07.blend'
# www.blender.org
mtllib Inside_Poly_Window_07.mtl
o Cube.001_Cube
v -0.480000 0.000000 -0.400000
v -0.480000 0.800000 -0.400000
v -0.480000 0.000000 -0.499997
v -0.480000 0.800000 -0.499997
v 0.000000 0.000000 -0.400000
v -0.380000 0.800000 -0.498797
v 0.020000 0.000000 -0.499997
v -0.380000 0.000000 -0.499997
v -0.380000 0.800000 -0.400000
v -0.380000 0.000000 -0.400000
v 0.020000 1.250000 -0.499997
v 0.000000 1.250000 -0.400000
v -0.180000 1.250000 -0.499997
v -0.180000 1.250000 -0.400000
v -0.480000 0.890000 -0.499997
v -0.480000 0.890000 -0.400000
v -0.430000 1.040000 -0.400000
v -0.430000 1.040000 -0.499997
v -0.150000 1.250000 -0.400000
v -0.360000 0.890000 -0.400000
v -0.320000 1.040000 -0.400000
v -0.150000 1.250000 -0.499997
v -0.340000 1.140000 -0.400000
v 0.000000 1.140000 -0.400000
v -0.340000 1.140000 -0.499997
v -0.100000 1.140000 -0.400000
v -0.150000 1.140000 -0.400000
v -0.360000 0.890000 -0.498797
v -0.320000 1.040000 -0.498797
v -0.150000 1.140000 -0.498797
v 0.480000 0.000000 -0.400000
v 0.480000 0.800000 -0.400000
v 0.480000 0.000000 -0.499997
v 0.480000 0.800000 -0.499997
v 0.000000 0.000000 -0.400000
v -0.380000 0.800000 -0.498797
v -0.020000 0.000000 -0.499997
v 0.380000 0.000000 -0.499997
v 0.380000 0.800000 -0.400000
v 0.380000 0.000000 -0.400000
v -0.020000 1.250000 -0.499997
v 0.000000 1.250000 -0.400000
v 0.180000 1.250000 -0.499997
v 0.180000 1.250000 -0.400000
v 0.480000 0.890000 -0.499997
v 0.480000 0.890000 -0.400000
v 0.430000 1.040000 -0.400000
v 0.430000 1.040000 -0.499997
v 0.150000 1.250000 -0.400000
v 0.360000 0.890000 -0.400000
v 0.320000 1.040000 -0.400000
v 0.150000 1.250000 -0.499997
v 0.340000 1.140000 -0.400000
v 0.000000 1.140000 -0.400000
v 0.340000 1.140000 -0.499997
v 0.100000 1.140000 -0.400000
v 0.150000 1.140000 -0.400000
v 0.360000 0.890000 -0.498797
v 0.320000 1.040000 -0.498797
v 0.150000 1.140000 -0.498797
v 0.480000 0.100000 -0.400000
v 0.480000 0.100000 -0.499997
v 0.000000 0.100000 -0.400000
v 0.380000 0.100000 -0.400000
v -0.480000 0.100000 -0.400000
v -0.480000 0.100000 -0.499997
v 0.000000 0.100000 -0.400000
v -0.380000 0.100000 -0.400000
v 0.000000 0.800000 -0.498797
v -0.380000 0.800000 -0.498797
v 0.000000 0.800000 -0.498797
v 0.380000 0.800000 -0.498797
v 0.000000 0.100000 -0.498797
v 0.380000 0.100000 -0.498797
v 0.000000 0.100000 -0.498797
v -0.380000 0.100000 -0.498797
v 0.000000 1.140000 -0.498797
v 0.000000 1.140000 -0.400000
v 0.000000 0.890000 -0.498797
v 0.000000 1.040000 -0.498797
v 0.000000 0.800000 -0.498797
vt 0.261516 0.287634
vt 0.261516 0.331025
vt 0.257804 0.331025
vt 0.257804 0.287634
vt 0.098989 0.414317
vt 0.099066 0.422716
vt 0.099066 0.422716
vt 0.098989 0.414317
vt 0.098989 0.414317
vt 0.098989 0.414317
vt 0.099066 0.422716
vt 0.099066 0.422716
vt 0.282542 0.287634
vt 0.261516 0.282601
vt 0.282542 0.282601
vt 0.033973 0.422716
vt 0.027692 0.422716
vt 0.027615 0.414317
vt 0.033896 0.414317
vt 0.261468 0.309681
vt 0.257636 0.309681
vt 0.257636 0.318387
vt 0.257636 0.309681
vt 0.027615 0.414317
vt 0.027692 0.422716
vt 0.261468 0.287986
vt 0.261468 0.297265
vt 0.257636 0.297265
vt 0.257636 0.287986
vt 0.048248 0.422716
vt 0.039683 0.422716
vt 0.039606 0.414317
vt 0.048170 0.414317
vt 0.257636 0.330726
vt 0.257636 0.318580
vt 0.261468 0.318580
vt 0.261468 0.319839
vt 0.261468 0.330726
vt 0.281931 0.331949
vt 0.281931 0.340261
vt 0.266290 0.340198
vt 0.264335 0.331963
vt 0.262446 0.332412
vt 0.262446 0.325036
vt 0.257170 0.325036
vt 0.257170 0.332412
vt 0.261468 0.309631
vt 0.257636 0.309631
vt 0.281931 0.345688
vt 0.274599 0.345688
vt 0.257170 0.337330
vt 0.257170 0.319567
vt 0.262430 0.319567
vt 0.262430 0.333196
vt 0.262430 0.337330
vt 0.300504 0.327022
vt 0.299526 0.331963
vt 0.281931 0.327022
vt 0.281931 0.327022
vt 0.281931 0.327022
vt 0.093356 0.422716
vt 0.093279 0.414317
vt 0.261516 0.287914
vt 0.257804 0.287914
vt 0.257804 0.331025
vt 0.261516 0.331025
vt 0.053309 0.414317
vt 0.053387 0.422716
vt 0.257636 0.284828
vt 0.261468 0.284828
vt 0.098989 0.414317
vt 0.099066 0.422716
vt 0.282542 0.287914
vt 0.282542 0.282601
vt 0.261516 0.282601
vt 0.098989 0.414317
vt 0.099066 0.422716
vt 0.033973 0.422716
vt 0.033896 0.414317
vt 0.027615 0.414317
vt 0.027692 0.422716
vt 0.261468 0.309681
vt 0.257636 0.309681
vt 0.257636 0.318387
vt 0.257636 0.309681
vt 0.027615 0.414317
vt 0.027692 0.422716
vt 0.261468 0.287986
vt 0.257636 0.287986
vt 0.257636 0.297265
vt 0.261468 0.297265
vt 0.048248 0.422716
vt 0.048170 0.414317
vt 0.039606 0.414317
vt 0.039683 0.422716
vt 0.261468 0.319839
vt 0.261468 0.318580
vt 0.257636 0.318580
vt 0.257636 0.330726
vt 0.261468 0.330726
vt 0.297571 0.340198
vt 0.262446 0.332412
vt 0.257170 0.332412
vt 0.257170 0.325036
vt 0.262446 0.325036
vt 0.257636 0.309631
vt 0.261468 0.309631
vt 0.289262 0.345688
vt 0.257170 0.337330
vt 0.262430 0.337330
vt 0.262430 0.333519
vt 0.027615 0.414317
vt 0.027692 0.422716
vt 0.093356 0.422716
vt 0.093279 0.414317
vt 0.053387 0.422716
vt 0.053309 0.414317
vt 0.262446 0.286188
vt 0.262446 0.320610
vt 0.257170 0.320610
vt 0.257170 0.286188
vt 0.257804 0.282601
vt 0.282542 0.287568
vt 0.261516 0.287568
vt 0.261516 0.282525
vt 0.282542 0.282525
vt 0.257804 0.282601
vt 0.281931 0.288593
vt 0.300504 0.288593
vt 0.263358 0.327022
vt 0.263358 0.288593
vt 0.281931 0.288593
vt 0.282542 0.282525
vt 0.261516 0.282525
vt 0.261468 0.284909
vt 0.257636 0.284909
vt 0.262446 0.320610
vt 0.262446 0.286188
vt 0.257170 0.286188
vt 0.257170 0.320610
vt 0.257170 0.320610
vt 0.257170 0.320610
vt 0.263358 0.327022
vt 0.263358 0.327022
vt 0.027692 0.422716
vt 0.027615 0.414317
vn 0.0000 0.0000 1.0000
vn 0.0000 -1.0000 0.0000
vn -0.5665 0.8240 0.0000
vn 0.0000 1.0000 0.0000
vn -0.9487 0.3162 0.0000
vn 0.9662 -0.2577 0.0000
vn -0.7433 0.6690 0.0000
vn 0.5070 -0.8619 0.0000
vn -1.0000 0.0000 0.0000
vn 0.5665 0.8240 0.0000
vn 0.9487 0.3162 0.0000
vn -0.9662 -0.2577 0.0000
vn 0.7433 0.6690 0.0000
vn -0.5070 -0.8619 0.0000
vn 1.0000 0.0000 0.0000
vn 0.9762 -0.2169 0.0000
vn -0.9762 -0.2169 0.0000
usemtl Material
s off
f 68/1/1 9/2/1 2/3/1 65/4/1
f 38/5/2 40/6/2 35/7/2 37/8/2
f 3/9/2 8/10/2 10/11/2 1/12/2
f 67/13/1 68/1/1 10/14/1 5/15/1
f 23/16/3 14/17/3 13/18/3 25/19/3
f 27/20/1 19/21/1 14/22/1 23/23/1
f 22/24/4 13/18/4 14/17/4 19/25/4
f 20/26/1 21/27/1 17/28/1 16/29/1
f 16/30/5 17/31/5 18/32/5 15/33/5
f 12/34/1 19/35/1 27/36/1 26/37/1 24/38/1
f 79/39/1 80/40/1 29/41/1 28/42/1
f 21/43/6 20/44/6 28/45/6 29/46/6
f 21/27/1 27/47/1 23/48/1 17/28/1
f 17/31/7 23/16/7 25/19/7 18/32/7
f 29/41/1 80/40/1 77/49/1 30/50/1
f 30/51/2 77/52/2 78/53/2 26/54/2 27/55/2
f 27/55/8 21/43/8 29/46/8 30/51/8
f 72/56/1 58/57/1 79/39/1 69/58/1 81/59/1 71/60/1
f 65/61/9 66/62/9 3/9/9 1/12/9
f 64/63/1 61/64/1 32/65/1 39/66/1
f 4/67/9 2/68/9 16/30/9 15/33/9
f 20/26/1 16/29/1 2/69/1 9/70/1
f 33/71/2 31/72/2 40/6/2 38/5/2
f 63/73/1 35/74/1 40/75/1 64/63/1
f 8/10/2 7/76/2 5/77/2 10/11/2
f 53/78/10 55/79/10 43/80/10 44/81/10
f 57/82/1 53/83/1 44/84/1 49/85/1
f 52/86/4 49/87/4 44/81/4 43/80/4
f 50/88/1 46/89/1 47/90/1 51/91/1
f 46/92/11 45/93/11 48/94/11 47/95/11
f 56/96/1 57/97/1 49/98/1 42/99/1 54/100/1
f 59/101/1 80/40/1 79/39/1 58/57/1
f 51/102/12 59/103/12 58/104/12 50/105/12
f 51/91/1 47/90/1 53/106/1 57/107/1
f 47/95/13 48/94/13 55/79/13 53/78/13
f 77/49/1 80/40/1 59/101/1 60/108/1
f 77/52/2 60/109/2 57/110/2 56/111/2 78/53/2
f 57/110/14 60/109/14 59/103/14 51/102/14
f 11/112/4 22/24/4 19/25/4 12/113/4
f 61/114/15 31/72/15 33/71/15 62/115/15
f 32/116/15 61/114/15 62/115/15 34/117/15
f 64/118/9 39/119/9 72/120/9 74/121/9
f 40/75/1 31/122/1 61/64/1 64/63/1
f 2/68/9 4/67/9 66/62/9 65/61/9
f 63/123/4 64/124/4 74/125/4 73/126/4
f 10/14/1 68/1/1 65/4/1 1/127/1
f 71/60/1 73/128/1 74/129/1 72/56/1
f 69/58/1 70/130/1 76/131/1 75/132/1
f 68/1/4 67/13/4 75/133/4 76/134/4
f 46/89/1 50/88/1 39/135/1 32/136/1
f 9/137/15 68/138/15 76/139/15 70/140/15
f 46/92/15 32/116/15 34/117/15 45/93/15
f 28/45/16 20/44/16 9/137/16 70/140/16 36/141/16 6/142/16
f 58/104/17 72/120/17 39/119/17 50/105/17
f 79/39/1 28/42/1 6/143/1 36/144/1 70/130/1 81/59/1 69/58/1 71/60/1
f 81/59/1 80/40/1 77/49/1 71/60/1
f 69/58/1 79/39/1 80/40/1 81/59/1
f 42/145/4 49/87/4 52/86/4 41/146/4
