# Blender 3.6.5
# www.blender.org
mtllib Inside_Poly_Bag_03.mtl
o Cube
v -0.369197 0.005186 0.223911
v -0.336037 0.025850 0.166682
v -0.370000 0.602724 -0.130000
v -0.370000 0.511943 0.046843
v -0.405253 0.093570 -0.014917
v -0.403542 0.111725 0.051028
v -0.411871 0.052170 0.082965
v -0.395673 0.077384 0.116484
v -0.368454 0.238431 -0.009328
v -0.368454 0.243776 -0.083399
v 0.000032 0.716040 -0.231412
v 0.000032 0.513956 0.256136
v 0.000032 0.001501 0.238363
v 0.000032 0.029534 0.238363
v 0.000032 0.245032 0.241281
v 0.000032 0.089160 -0.240710
v 0.000032 0.154717 0.260326
v 0.000032 -0.003146 -0.033540
v 0.000032 0.268765 -0.301659
v 0.000032 0.281860 0.172826
v -0.208482 0.704104 -0.200962
v -0.208482 0.029534 0.196453
v -0.158400 0.082753 -0.173297
v -0.182167 0.012510 0.017041
v -0.184211 0.267319 -0.243852
v -0.208482 0.502547 0.223078
v -0.208482 0.001501 0.196453
v -0.201755 0.210036 0.171757
v -0.182167 0.123019 0.200365
v -0.184211 0.264307 0.131337
v -0.369347 0.563304 -0.060137
v 0.000032 0.659148 0.027765
v -0.208482 0.605935 0.027765
v -0.370000 0.582724 -0.100000
v 0.000032 0.670138 -0.169035
v -0.208482 0.664169 -0.143575
v -0.370000 0.544139 -0.017550
v 0.000032 0.565093 0.190660
v -0.208482 0.544572 0.174166
v -0.340024 0.631253 -0.161005
v -0.312067 0.026542 0.172277
v -0.326604 0.080296 -0.117170
v -0.330128 0.036723 0.062257
v -0.333832 0.259597 -0.171235
v -0.340000 0.491881 0.163902
v -0.338997 0.004494 0.218751
v -0.365623 0.143721 0.111117
v -0.330128 0.102970 0.157271
v -0.333832 0.239639 0.057342
v -0.339118 0.528836 -0.039184
v -0.339571 0.544208 -0.094744
v -0.338666 0.513463 0.016376
v 0.369260 0.005186 0.223911
v 0.336100 0.025850 0.166682
v 0.370063 0.602724 -0.130000
v 0.370063 0.511943 0.046843
v 0.405316 0.093570 -0.014917
v 0.403605 0.111725 0.051028
v 0.411934 0.052170 0.082965
v 0.395736 0.077384 0.116484
v 0.368517 0.238431 -0.009328
v 0.368517 0.243776 -0.083399
v 0.208545 0.704104 -0.200962
v 0.208545 0.029534 0.196453
v 0.158463 0.082753 -0.173297
v 0.182230 0.012510 0.017041
v 0.184274 0.267319 -0.243852
v 0.208545 0.502547 0.223078
v 0.208545 0.001501 0.196453
v 0.201818 0.210036 0.171757
v 0.182230 0.123019 0.200365
v 0.184274 0.264307 0.131337
v 0.369410 0.563304 -0.060137
v 0.208545 0.605935 0.027765
v 0.370063 0.582724 -0.100000
v 0.208545 0.664169 -0.143575
v 0.370063 0.544139 -0.017550
v 0.208545 0.544572 0.174166
v 0.340087 0.631253 -0.161005
v 0.312130 0.026542 0.172277
v 0.326667 0.080296 -0.117170
v 0.330191 0.036723 0.062257
v 0.333896 0.259597 -0.171235
v 0.340063 0.491881 0.163902
v 0.339060 0.004494 0.218751
v 0.365686 0.143721 0.111117
v 0.330191 0.102970 0.157271
v 0.333896 0.239639 0.057342
v 0.339181 0.528836 -0.039184
v 0.339634 0.544208 -0.094744
v 0.338729 0.513463 0.016376
vn -0.4880 0.1425 0.8611
vn -0.8266 0.4327 0.3597
vn -0.0030 0.9253 0.3793
vn -0.9778 0.1873 0.0944
vn -0.7453 0.3818 0.5465
vn -0.3891 0.7173 0.5780
vn -0.9409 -0.1127 0.3194
vn -0.2215 0.1178 -0.9680
vn -0.1570 -0.9108 -0.3818
vn -0.3156 -0.3420 -0.8851
vn -0.0404 -0.9990 -0.0164
vn -0.9691 0.2466 -0.0107
vn -0.1332 0.7685 0.6259
vn -0.3756 0.8824 0.2832
vn -0.1298 -0.9816 -0.1399
vn -0.3450 -0.3320 -0.8779
vn -0.1612 -0.9398 -0.3012
vn -0.3827 0.0462 -0.9227
vn -0.1495 -0.3517 0.9241
vn -0.3448 0.2079 0.9154
vn -0.2733 0.7590 0.5910
vn -0.2449 -0.0848 0.9658
vn -0.5934 0.7653 0.2494
vn -0.1271 0.9748 0.1833
vn -1.0000 -0.0042 -0.0016
vn 0.0432 0.8120 0.5820
vn -0.2602 0.6731 0.6922
vn -0.1971 -0.0000 0.9804
vn -0.5706 0.7673 0.2928
vn -0.1731 0.8800 0.4422
vn 0.5738 0.7722 0.2729
vn 0.3929 0.6158 0.6829
vn -0.0059 0.6819 0.7314
vn 0.7040 0.6698 0.2361
vn -0.8728 -0.0335 -0.4869
vn -0.3757 -0.8821 -0.2840
vn -0.8529 -0.1130 -0.5097
vn -0.1912 -0.9537 -0.2323
vn 0.1898 0.9514 0.2426
vn -0.3596 -0.3688 0.8571
vn -0.3802 0.3395 0.8603
vn -0.4580 0.5754 0.6776
vn -0.2641 0.0756 0.9615
vn 0.4880 0.1425 0.8611
vn 0.8266 0.4327 0.3597
vn 0.0030 0.9253 0.3793
vn 0.9778 0.1873 0.0944
vn 0.7453 0.3818 0.5465
vn 0.3891 0.7173 0.5780
vn 0.9409 -0.1127 0.3194
vn 0.2215 0.1178 -0.9680
vn 0.1570 -0.9108 -0.3818
vn 0.3156 -0.3420 -0.8851
vn 0.0404 -0.9990 -0.0164
vn 0.9691 0.2466 -0.0107
vn 0.1332 0.7685 0.6259
vn 0.3756 0.8824 0.2832
vn 0.1298 -0.9816 -0.1399
vn 0.3450 -0.3320 -0.8779
vn 0.1612 -0.9398 -0.3012
vn 0.3827 0.0462 -0.9227
vn 0.1495 -0.3517 0.9241
vn 0.3448 0.2079 0.9154
vn 0.2733 0.7590 0.5910
vn 0.2449 -0.0848 0.9658
vn 0.5934 0.7653 0.2494
vn 0.1271 0.9748 0.1833
vn 1.0000 -0.0042 -0.0016
vn -0.0432 0.8120 0.5820
vn 0.2602 0.6731 0.6922
vn 0.1971 -0.0000 0.9804
vn 0.5706 0.7673 0.2928
vn 0.1731 0.8800 0.4422
vn -0.5738 0.7722 0.2729
vn -0.3929 0.6158 0.6829
vn 0.0059 0.6819 0.7314
vn -0.7040 0.6698 0.2361
vn 0.8728 -0.0335 -0.4869
vn 0.3757 -0.8821 -0.2840
vn 0.8529 -0.1130 -0.5097
vn 0.1912 -0.9537 -0.2323
vn -0.1898 0.9514 0.2426
vn 0.3596 -0.3688 0.8571
vn 0.3802 0.3395 0.8603
vn 0.4580 0.5754 0.6776
vn 0.2641 0.0756 0.9615
vt 0.510032 0.018527
vt 0.512353 0.018527
vt 0.512271 0.006282
vt 0.510010 0.005274
vt 0.510466 0.046349
vt 0.513151 0.046349
vt 0.509275 0.032657
vt 0.507133 0.032657
vt 0.509292 0.005684
vt 0.507401 0.005359
vt 0.510005 0.018527
vt 0.507134 0.032657
vt 0.504354 0.032657
vt 0.507073 0.018527
vt 0.507107 0.032657
vt 0.509257 0.032657
vt 0.512281 0.018527
vt 0.509981 0.018527
vt 0.510005 0.005359
vt 0.512563 0.057435
vt 0.515316 0.057101
vt 0.513147 0.046349
vt 0.510491 0.046349
vt 0.517465 0.059315
vt 0.531479 0.059315
vt 0.531479 0.046528
vt 0.519557 0.046528
vt 0.517916 0.032515
vt 0.531479 0.032515
vt 0.531479 0.018501
vt 0.519276 0.018501
vt 0.531479 0.004487
vt 0.517465 0.007091
vt 0.510479 0.046349
vt 0.507211 0.046349
vt 0.517465 0.056479
vt 0.531438 0.056479
vt 0.507206 0.054436
vt 0.507206 0.051271
vt 0.509366 0.018501
vt 0.509876 0.046528
vt 0.506902 0.032515
vt 0.506252 0.165593
vt 0.506285 0.169400
vt 0.515984 0.172338
vt 0.515984 0.162246
vt 0.531465 0.172338
vt 0.531465 0.160501
vt 0.510469 0.046349
vt 0.512571 0.057429
vt 0.510314 0.056657
vt 0.510314 0.056657
vt 0.507111 0.055558
vt 0.505056 0.053918
vt 0.507235 0.046349
vt 0.517465 0.056479
vt 0.507206 0.051271
vt 0.506319 0.173208
vt 0.515984 0.182430
vt 0.531465 0.184175
vt 0.504832 0.053308
vt 0.504832 0.051271
vt 0.507206 0.054436
vt 0.504832 0.051271
vt 0.504832 0.053581
vt 0.508414 0.055584
vt 0.508414 0.046528
vt 0.507636 0.046528
vt 0.504354 0.032515
vt 0.507073 0.018501
vt 0.515303 0.057081
vt 0.513172 0.046528
vt 0.509222 0.032637
vt 0.512336 0.018501
vt 0.512262 0.006335
s 0
usemtl Material
f 48/1/1 8/2/1 2/3/1 41/4/1
f 49/5/2 9/6/2 6/7/2 47/8/2
f 41/9/3 2/10/3 1/10/3 46/9/3
f 8/11/4 6/12/4 5/13/4 7/14/4
f 47/15/5 6/16/5 8/17/5 48/18/5
f 1/10/6 2/19/6 8/11/6 7/14/6
f 45/20/7 4/21/7 9/22/7 49/23/7
f 21/24/8 11/25/8 19/26/8 25/27/8
f 23/28/9 16/29/9 18/30/9 24/31/9
f 25/27/10 19/26/10 16/29/10 23/28/10
f 24/31/11 18/30/11 13/32/11 27/33/11
f 6/12/12 9/34/12 10/35/12 5/13/12
f 39/36/13 26/24/13 12/25/13 38/37/13
f 52/38/14 45/39/14 26/36/14 39/24/14
f 43/40/15 24/31/15 27/33/15 46/9/15
f 44/41/16 25/27/16 23/28/16 42/42/16
f 42/42/17 23/28/17 24/31/17 43/40/17
f 40/38/18 21/24/18 25/27/18 44/41/18
f 12/25/19 26/24/19 30/27/19 20/26/19
f 15/29/20 28/28/20 29/31/20 17/30/20
f 20/26/21 30/27/21 28/28/21 15/29/21
f 17/30/22 29/31/22 22/33/22 14/32/22
f 51/43/23 50/44/23 33/45/23 36/46/23
f 36/46/24 33/45/24 32/47/24 35/48/24
f 9/49/25 4/50/25 37/51/25 31/52/25 34/53/25 3/54/25 10/55/25
f 21/24/26 36/56/26 35/37/26 11/25/26
f 40/38/27 51/57/27 36/56/27 21/24/27
f 14/32/28 22/33/28 27/33/28 13/32/28
f 50/44/29 52/58/29 39/59/29 33/45/29
f 33/45/30 39/59/30 38/60/30 32/47/30
f 31/61/31 37/62/31 52/39/31 50/63/31
f 3/61/32 34/64/32 51/57/32 40/38/32
f 27/33/33 22/33/33 41/9/33 46/9/33
f 34/64/34 31/61/34 50/63/34 51/57/34
f 3/65/35 40/66/35 44/67/35 10/68/35
f 5/69/36 42/42/36 43/40/36 7/70/36
f 10/68/37 44/41/37 42/42/37 5/69/37
f 7/70/38 43/40/38 46/9/38 1/10/38
f 37/62/39 4/61/39 45/63/39 52/39/39
f 26/24/40 45/71/40 49/72/40 30/27/40
f 28/28/41 47/73/41 48/74/41 29/31/41
f 30/27/42 49/72/42 47/73/42 28/28/42
f 29/31/43 48/74/43 41/75/43 22/33/43
f 87/1/44 80/4/44 54/3/44 60/2/44
f 88/5/45 86/8/45 58/7/45 61/6/45
f 80/9/46 85/9/46 53/10/46 54/10/46
f 60/11/47 59/14/47 57/13/47 58/12/47
f 86/15/48 87/18/48 60/17/48 58/16/48
f 53/10/49 59/14/49 60/11/49 54/19/49
f 84/20/50 88/23/50 61/22/50 56/21/50
f 63/24/51 67/27/51 19/26/51 11/25/51
f 65/28/52 66/31/52 18/30/52 16/29/52
f 67/27/53 65/28/53 16/29/53 19/26/53
f 66/31/54 69/33/54 13/32/54 18/30/54
f 58/12/55 57/13/55 62/35/55 61/34/55
f 78/36/56 38/37/56 12/25/56 68/24/56
f 91/38/57 78/24/57 68/36/57 84/39/57
f 82/40/58 85/9/58 69/33/58 66/31/58
f 83/41/59 81/42/59 65/28/59 67/27/59
f 81/42/60 82/40/60 66/31/60 65/28/60
f 79/38/61 83/41/61 67/27/61 63/24/61
f 12/25/62 20/26/62 72/27/62 68/24/62
f 15/29/63 17/30/63 71/31/63 70/28/63
f 20/26/64 15/29/64 70/28/64 72/27/64
f 17/30/65 14/32/65 64/33/65 71/31/65
f 90/43/66 76/46/66 74/45/66 89/44/66
f 76/46/67 35/48/67 32/47/67 74/45/67
f 61/49/68 62/55/68 55/54/68 75/53/68 73/52/68 77/51/68 56/50/68
f 63/24/69 11/25/69 35/37/69 76/56/69
f 79/38/70 63/24/70 76/56/70 90/57/70
f 14/32/71 13/32/71 69/33/71 64/33/71
f 89/44/72 74/45/72 78/59/72 91/58/72
f 74/45/73 32/47/73 38/60/73 78/59/73
f 73/61/74 89/63/74 91/39/74 77/62/74
f 55/61/75 79/38/75 90/57/75 75/64/75
f 69/33/76 85/9/76 80/9/76 64/33/76
f 75/64/77 90/57/77 89/63/77 73/61/77
f 55/65/78 62/68/78 83/67/78 79/66/78
f 57/69/79 59/70/79 82/40/79 81/42/79
f 62/68/80 57/69/80 81/42/80 83/41/80
f 59/70/81 53/10/81 85/9/81 82/40/81
f 77/62/82 91/39/82 84/63/82 56/61/82
f 68/24/83 72/27/83 88/72/83 84/71/83
f 70/28/84 71/31/84 87/74/84 86/73/84
f 72/27/85 70/28/85 86/73/85 88/72/85
f 71/31/86 64/33/86 80/75/86 87/74/86
o Cube.001
v -0.030276 0.724829 -0.067697
v -0.030276 0.644243 -0.083787
v -0.045535 0.724829 -0.067697
v -0.045535 0.644243 -0.083787
v -0.030276 0.665359 -0.088240
v -0.045535 0.665359 -0.088240
v -0.030276 0.598705 0.014035
v -0.045535 0.598705 0.014035
v -0.045535 0.585921 0.005703
v -0.045535 0.653722 0.013462
v -0.030276 0.585921 0.005703
v -0.030276 0.653722 0.013462
v 0.000244 0.741492 -0.093266
v 0.000244 0.660907 -0.109356
v -0.015016 0.741492 -0.093266
v -0.015016 0.660907 -0.109356
v 0.000244 0.682023 -0.113808
v -0.015016 0.682023 -0.113808
v 0.000244 0.598705 0.014035
v 0.000244 0.690355 -0.126593
v -0.015016 0.690355 -0.126593
v -0.015016 0.669239 -0.122140
v -0.015016 0.715924 -0.109929
v 0.000244 0.585921 0.005703
v 0.000244 0.669239 -0.122140
v 0.000244 0.715924 -0.109929
v 0.000244 0.774819 -0.144403
v -0.015016 0.774819 -0.144403
v -0.015016 0.757583 -0.173851
v 0.000244 0.757583 -0.173851
v 0.030339 0.724829 -0.067697
v 0.030339 0.644243 -0.083787
v 0.045598 0.724829 -0.067697
v 0.045598 0.644243 -0.083787
v 0.030339 0.665359 -0.088240
v 0.045598 0.665359 -0.088240
v 0.030339 0.598705 0.014035
v 0.045598 0.598705 0.014035
v 0.045598 0.585921 0.005703
v 0.045598 0.653722 0.013462
v 0.030339 0.585921 0.005703
v 0.030339 0.653722 0.013462
v -0.000181 0.741492 -0.093266
v -0.000181 0.660907 -0.109356
v 0.015079 0.741492 -0.093266
v 0.015079 0.660907 -0.109356
v -0.000181 0.682023 -0.113808
v 0.015079 0.682023 -0.113808
v -0.000181 0.598705 0.014035
v -0.000181 0.690355 -0.126593
v 0.015079 0.690355 -0.126593
v 0.015079 0.669239 -0.122140
v 0.015079 0.715924 -0.109929
v -0.000181 0.585921 0.005703
v -0.000181 0.669239 -0.122140
v -0.000181 0.715924 -0.109929
v -0.000181 0.774819 -0.144403
v 0.015079 0.774819 -0.144403
v 0.015079 0.757583 -0.173851
v -0.000181 0.757583 -0.173851
vn -1.0000 -0.0000 -0.0000
vn -0.0000 0.8378 0.5460
vn -0.0000 -0.8378 -0.5460
vn -0.0000 -0.5460 0.8378
vn -0.5774 -0.1685 -0.7989
vn -0.6963 0.2343 -0.6784
vn 0.6963 -0.2343 0.6784
vn 1.0000 -0.0000 -0.0000
vn -0.0000 0.0104 0.9999
vn -0.0000 0.7521 0.6590
vn -0.0000 -0.2063 -0.9785
vn -0.0000 0.5460 -0.8378
vn -0.0000 0.8630 -0.5052
vn 0.5774 -0.1685 -0.7989
vn 0.6963 0.2343 -0.6784
vn -0.6963 -0.2343 0.6784
vt 0.604282 0.410203
vt 0.605323 0.410203
vt 0.605323 0.419072
vt 0.604282 0.419072
vt 0.604282 0.411542
vt 0.614382 0.411542
vt 0.614362 0.411542
vt 0.605323 0.415298
vt 0.604282 0.415298
vt 0.604282 0.420304
vt 0.605323 0.420304
vt 0.614382 0.410203
vt 0.614382 0.419072
vt 0.605323 0.417825
vt 0.604282 0.417825
vt 0.605323 0.413065
vt 0.614382 0.413098
vt 0.605323 0.411542
vt 0.609295 0.411542
vt 0.609295 0.420304
vt 0.605323 0.418043
vt 0.614382 0.420304
vt 0.603575 0.420304
vt 0.614382 0.416686
vt 0.603575 0.416686
vt 0.614362 0.420304
vt 0.614382 0.411518
vt 0.610680 0.411518
vt 0.610680 0.420304
vt 0.614427 0.414103
vt 0.610745 0.414103
vt 0.610745 0.410203
vt 0.614201 0.410203
vt 0.603563 0.420202
vt 0.603563 0.410873
vt 0.614964 0.410873
vt 0.614964 0.420202
vt 0.604282 0.416618
vt 0.608230 0.416618
vt 0.608230 0.420304
vt 0.614362 0.410203
vt 0.614382 0.414103
vt 0.610741 0.410203
vt 0.610741 0.419810
vt 0.614382 0.419810
s 0
usemtl Material
f 100/76/87 99/77/87 97/78/87 95/79/87
f 94/80/88 92/81/88 104/81/88 106/80/88
f 93/80/89 95/82/89 107/82/89 105/80/89
f 98/83/90 102/84/90 115/85/90 110/86/90
f 99/77/87 101/87/87 94/88/87 97/78/87
f 95/79/91 97/78/91 109/78/91 107/79/91
f 102/85/90 98/86/90 99/89/90 100/90/90
f 97/91/92 94/92/92 106/88/92 109/78/92
f 102/85/89 93/80/89 105/80/89 115/85/89
f 92/81/93 96/93/93 108/93/93 104/81/93
f 96/94/88 98/95/88 110/96/88 108/93/88
f 96/93/94 92/81/94 103/97/94 98/86/94
f 98/98/95 103/97/95 101/99/95 99/100/95
f 95/82/89 93/80/89 102/85/89 100/101/89
f 92/102/96 94/103/96 101/104/96 103/97/96
f 113/105/97 112/106/97 111/107/97 116/108/97
f 114/109/87 106/110/87 119/111/87 120/112/87
f 107/113/87 109/114/87 112/115/87 113/85/87
f 113/116/89 116/76/89 105/80/89 107/82/89
f 109/78/87 106/88/87 114/97/87 112/86/87
f 112/106/98 114/117/98 117/87/98 111/107/98
f 121/87/99 120/118/99 119/119/99 118/120/99
f 117/111/89 114/112/89 120/112/89 121/111/89
f 106/109/88 104/112/88 118/111/88 119/110/88
f 130/76/94 125/79/94 127/78/94 129/77/94
f 124/80/88 136/80/88 134/81/88 122/81/88
f 123/80/89 135/80/89 137/82/89 125/82/89
f 128/83/90 140/86/90 145/85/90 132/84/90
f 129/77/94 127/78/94 124/88/94 131/87/94
f 125/79/100 137/79/100 139/78/100 127/78/100
f 132/85/90 130/90/90 129/89/90 128/86/90
f 127/91/101 139/78/101 136/88/101 124/92/101
f 132/85/89 145/85/89 135/80/89 123/80/89
f 122/81/102 134/81/102 138/93/102 126/93/102
f 126/94/88 138/93/88 140/96/88 128/95/88
f 126/93/87 128/86/87 133/97/87 122/81/87
f 128/98/95 129/100/95 131/99/95 133/97/95
f 125/82/89 130/101/89 132/85/89 123/80/89
f 122/102/96 133/97/96 131/104/96 124/103/96
f 143/105/97 146/108/97 141/107/97 142/106/97
f 144/109/94 150/112/94 149/111/94 136/110/94
f 137/113/94 143/85/94 142/115/94 139/114/94
f 143/116/89 137/82/89 135/80/89 146/76/89
f 139/78/94 142/86/94 144/97/94 136/88/94
f 142/106/98 141/107/98 147/87/98 144/117/98
f 151/87/99 148/120/99 149/119/99 150/118/99
f 147/111/89 151/111/89 150/112/89 144/112/89
f 136/109/88 149/110/88 148/111/88 134/112/88
