# Blender 3.6.5
# www.blender.org
mtllib Poly_World_Map_Town_House_14.mtl
o Cube.002_Cube.002
v 0.157415 0.001978 0.094632
v 0.156677 0.001974 -0.095022
v 0.041635 0.000009 0.134725
v 0.000000 -0.000000 -0.175580
v 0.119601 0.118153 -0.094473
v 0.120319 0.118508 0.093791
v 0.041735 0.121136 0.127174
v 0.000000 0.119990 -0.133343
v 0.014000 0.244000 -0.090000
v 0.033476 0.203583 0.050279
v 0.033468 0.203588 -0.050308
v 0.156285 0.059889 -0.094808
v 0.156896 0.059998 0.094414
v 0.041669 0.060462 0.134691
v 0.000000 0.059998 -0.157784
v 0.031776 0.201341 0.104477
v 0.202926 0.002014 -0.047072
v 0.033303 0.203095 0.102124
v 0.154111 0.119485 -0.046355
v 0.201907 0.060512 -0.046863
v 0.032425 0.202375 -0.093671
v 0.154119 0.119484 0.046336
v 0.201907 0.060512 0.046863
v 0.202926 0.002014 0.047072
v 0.152025 0.001919 0.086210
v 0.152764 0.001922 -0.085820
v 0.038365 -0.000009 0.080438
v 0.000000 0.000000 -0.165580
v 0.038265 0.118864 0.070614
v 0.000000 0.120010 -0.123343
v 0.000000 0.244000 -0.090000
v 0.038331 0.059538 0.080473
v 0.000000 0.060002 -0.160474
v 0.028224 0.198659 0.095523
v 0.193646 0.001882 -0.043349
v 0.026697 0.196905 0.097876
v 0.193646 0.001882 0.043349
v -0.157415 0.001978 0.094632
v -0.156677 0.001974 -0.095022
v -0.041635 0.000009 0.134725
v -0.119601 0.118153 -0.094473
v -0.120319 0.118508 0.093791
v -0.041735 0.121136 0.127174
v -0.014000 0.244000 -0.090000
v -0.033476 0.203583 0.050279
v -0.033468 0.203588 -0.050308
v -0.156285 0.059889 -0.094808
v -0.156896 0.059998 0.094414
v -0.041669 0.060462 0.134691
v -0.031776 0.201341 0.104477
v -0.202926 0.002014 -0.047072
v -0.033303 0.203095 0.102124
v -0.154111 0.119485 -0.046355
v -0.201907 0.060512 -0.046863
v -0.032425 0.202375 -0.093671
v -0.154119 0.119484 0.046336
v -0.201907 0.060512 0.046863
v -0.202926 0.002014 0.047072
v -0.152025 0.001919 0.086210
v -0.152764 0.001922 -0.085820
v -0.038365 -0.000009 0.080438
v -0.038265 0.118864 0.070614
v 0.000000 0.244000 -0.090000
v -0.038331 0.059538 0.080473
v -0.028224 0.198659 0.095523
v -0.193646 0.001882 -0.043349
v -0.026697 0.196905 0.097876
v -0.193646 0.001882 0.043349
vn 0.2197 0.1988 0.9551
vn 0.3311 0.1104 0.9371
vn 0.2063 0.1929 0.9593
vn 0.1869 0.2355 0.9538
vn 0.3524 0.1708 0.9201
vn 0.6689 0.4859 0.5625
vn 0.3331 0.2912 -0.8968
vn 0.6186 -0.2820 -0.7333
vn 0.3241 0.3038 -0.8959
vn 0.6915 0.6069 -0.3918
vn 0.7726 0.5544 0.3094
vn 0.7684 0.5746 0.2818
vn 0.7829 0.5517 0.2876
vn 0.7616 0.5751 0.2986
vn 0.4122 0.1389 -0.9005
vn 0.7243 0.0121 0.6894
vn 0.3286 0.0034 0.9445
vn 0.7531 0.6544 -0.0674
vn 0.7539 0.6539 -0.0637
vn 0.7539 0.6539 0.0637
vn 0.7531 0.6544 0.0673
vn 0.7485 0.5708 -0.3377
vn 0.7635 0.5508 -0.3371
vn 0.7567 0.5731 -0.3146
vn 0.7591 0.5548 -0.3405
vn 0.6668 0.4846 -0.5661
vn 0.7220 0.0113 -0.6918
vn 0.9906 0.0178 -0.1356
vn 0.9906 0.0178 0.1356
vn 0.7685 0.6331 -0.0921
vn 0.7685 0.6331 0.0921
vn 0.7685 0.6332 0.0921
vn 0.0072 -1.0000 -0.0069
vn 0.0168 -0.9999 -0.0011
vn 0.0127 -0.9999 -0.0001
vn -0.9982 -0.0000 0.0608
vn -1.0000 -0.0000 -0.0000
vn -0.9187 -0.3343 0.2101
vn -0.9991 0.0401 0.0155
vn -0.9805 -0.1566 -0.1190
vn -0.9818 -0.1549 -0.1102
vn -0.0509 0.2836 -0.9576
vn -0.5588 0.2736 -0.7829
vn -0.3486 0.8866 -0.3042
vn -0.4542 0.2077 -0.8664
vn -0.5645 -0.0691 -0.8225
vn -0.3292 -0.1019 -0.9388
vn -0.6048 0.3427 -0.7188
vn -0.9981 0.0088 0.0611
vn 0.1486 -0.9888 -0.0169
vn 0.1486 -0.9888 0.0170
vn -0.0198 -0.9911 0.1313
vn -0.0198 -0.9911 -0.1313
vn 0.0072 -0.9999 0.0070
vn -0.2197 0.1988 0.9551
vn -0.1869 0.2355 0.9538
vn -0.2063 0.1929 0.9593
vn -0.3311 0.1104 0.9371
vn -0.3524 0.1708 0.9201
vn -0.6689 0.4859 0.5625
vn -0.3331 0.2912 -0.8968
vn -0.6186 -0.2820 -0.7333
vn -0.6915 0.6069 -0.3918
vn -0.3241 0.3038 -0.8959
vn -0.7726 0.5544 0.3094
vn -0.7616 0.5751 0.2986
vn -0.7829 0.5517 0.2876
vn -0.7684 0.5746 0.2818
vn -0.4122 0.1389 -0.9005
vn -0.7243 0.0121 0.6894
vn -0.3286 0.0034 0.9445
vn -0.7531 0.6544 -0.0674
vn -0.7531 0.6544 0.0673
vn -0.7539 0.6539 0.0637
vn -0.7539 0.6539 -0.0637
vn -0.7485 0.5708 -0.3377
vn -0.7591 0.5548 -0.3405
vn -0.7567 0.5731 -0.3146
vn -0.7635 0.5508 -0.3371
vn -0.6668 0.4846 -0.5661
vn -0.7220 0.0113 -0.6918
vn -0.9906 0.0178 -0.1356
vn -0.9906 0.0178 0.1356
vn -0.7685 0.6331 -0.0921
vn -0.7685 0.6332 0.0921
vn -0.7685 0.6331 0.0921
vn -0.0072 -1.0000 -0.0069
vn -0.0168 -0.9999 -0.0011
vn -0.0127 -0.9999 -0.0001
vn 0.9982 -0.0000 0.0608
vn 0.9187 -0.3343 0.2101
vn 0.9818 -0.1549 -0.1102
vn 0.9805 -0.1566 -0.1190
vn 0.9991 0.0401 0.0155
vn 0.0509 0.2836 -0.9576
vn 0.3486 0.8866 -0.3042
vn 0.5588 0.2736 -0.7829
vn 0.4542 0.2077 -0.8664
vn 0.6048 0.3427 -0.7188
vn 0.3292 -0.1019 -0.9388
vn 0.5645 -0.0691 -0.8225
vn 0.9981 0.0088 0.0611
vn -0.1486 -0.9888 -0.0169
vn 0.0198 -0.9911 -0.1313
vn 0.0198 -0.9911 0.1313
vn -0.1486 -0.9888 0.0170
vn -0.0072 -0.9999 0.0070
vt 0.980236 0.904858
vt 0.975816 0.913544
vt 0.972320 0.913544
vt 0.974530 0.904858
vt 0.983779 0.899319
vt 0.976301 0.899319
vt 0.984346 0.898780
vt 0.984346 0.890000
vt 0.979262 0.890000
vt 0.979262 0.898780
vt 0.975511 0.890001
vt 0.975511 0.904806
vt 0.988057 0.904806
vt 0.988057 0.890001
vt 0.978985 0.898519
vt 0.988628 0.889202
vt 0.975405 0.889405
vt 0.975294 0.902681
vt 0.976334 0.886287
vt 0.983844 0.886287
vt 0.988150 0.890000
vt 0.988150 0.898780
vt 0.976167 0.898780
vt 0.976167 0.890000
vt 0.981689 0.886287
vt 0.980917 0.899319
vt 0.979248 0.904858
vt 0.978992 0.898519
vt 0.975515 0.902681
vt 0.988635 0.889202
vt 0.975453 0.913544
s 0
usemtl Material
f 6/1/1 18/2/2 16/3/3 7/4/4
f 13/5/5 6/1/5 7/4/5 14/6/5
f 23/7/6 22/8/6 6/9/6 13/10/6
f 15/11/7 8/12/7 5/13/7 12/14/7
f 21/15/8 5/16/9 8/17/9 9/18/10
f 22/8/11 10/7/12 18/10/13 6/9/14
f 4/19/15 15/6/15 12/5/15 2/20/15
f 24/8/16 23/7/16 13/10/16 1/9/16
f 1/20/17 13/5/17 14/6/17 3/19/17
f 19/21/18 11/22/19 10/23/20 22/24/21
f 5/9/22 21/10/23 11/7/24 19/8/25
f 12/10/26 5/9/26 19/8/26 20/7/26
f 2/9/27 12/10/27 20/7/27 17/8/27
f 20/22/28 23/23/29 24/24/29 17/21/28
f 19/21/30 22/24/31 23/23/32 20/22/30
f 2/9/33 17/8/33 35/8/33 26/9/33
f 1/20/34 3/19/34 27/19/34 25/20/34
f 4/19/35 2/20/35 26/20/35 28/19/35
f 3/25/36 14/26/36 32/6/36 27/19/36
f 15/6/37 4/19/37 28/19/37 33/6/37
f 7/4/38 16/3/39 34/3/40 29/4/41
f 9/9/42 8/4/43 30/4/43 31/9/44
f 16/3/45 18/2/46 36/2/47 34/3/48
f 14/26/49 7/27/49 29/4/49 32/6/49
f 8/4/37 15/6/37 33/6/37 30/4/37
f 17/21/50 24/24/51 37/24/52 35/21/53
f 24/8/54 1/9/54 25/9/54 37/8/54
f 42/1/55 43/4/56 50/3/57 52/2/58
f 48/5/59 49/6/59 43/4/59 42/1/59
f 57/7/60 48/10/60 42/9/60 56/8/60
f 15/11/61 47/14/61 41/13/61 8/12/61
f 55/28/62 44/29/63 8/17/64 41/30/64
f 56/8/65 42/9/66 52/10/67 45/7/68
f 4/19/69 39/20/69 47/5/69 15/6/69
f 58/8/70 38/9/70 48/10/70 57/7/70
f 38/20/71 40/19/71 49/6/71 48/5/71
f 53/21/72 56/24/73 45/23/74 46/22/75
f 41/9/76 53/8/77 46/7/78 55/10/79
f 47/10/80 54/7/80 53/8/80 41/9/80
f 39/9/81 51/8/81 54/7/81 47/10/81
f 54/22/82 51/21/82 58/24/83 57/23/83
f 53/21/84 54/22/84 57/23/85 56/24/86
f 39/9/87 60/9/87 66/8/87 51/8/87
f 38/20/88 59/20/88 61/19/88 40/19/88
f 4/19/89 28/19/89 60/20/89 39/20/89
f 40/25/90 61/19/90 64/6/90 49/26/90
f 43/27/91 62/4/92 65/3/93 50/31/94
f 44/9/95 63/9/96 30/4/97 8/4/97
f 50/3/98 65/3/99 67/2/100 52/2/101
f 49/26/102 64/6/102 62/4/102 43/27/102
f 51/21/103 66/21/104 68/24/105 58/24/106
f 58/8/107 68/8/107 59/9/107 38/9/107
o Cube.002_Cube.001
v -0.080000 0.000000 0.090000
v 0.055356 0.130000 -0.090000
v 0.080000 0.000000 -0.090000
v -0.055356 0.130000 -0.090000
v 0.055356 0.130000 0.090000
v -0.080000 0.000000 -0.090000
v 0.080000 0.000000 0.090000
v -0.055356 0.130000 0.090000
v -0.055356 0.113889 0.090000
v 0.055356 0.113889 -0.090000
v -0.055356 0.113889 -0.090000
v 0.055356 0.113889 0.090000
v 0.055356 0.130000 0.141748
v -0.055356 0.130000 0.141748
v -0.055356 0.113889 0.141748
v 0.055356 0.113889 0.141748
v 0.016786 0.249664 0.096791
v -0.028446 0.249664 0.096791
v -0.022616 0.249664 -0.036770
v 0.022616 0.249664 -0.036770
v -0.055356 0.121944 0.090000
v 0.055356 0.121944 -0.090000
v -0.055356 0.121944 -0.090000
v 0.055356 0.121944 0.090000
v -0.055356 0.121944 0.141748
v 0.055356 0.121944 0.141748
vn -1.0000 -0.0000 -0.0000
vn -0.0000 -0.0567 0.9984
vn -0.0000 -0.0000 -1.0000
vn -0.0000 -1.0000 -0.0000
vn 1.0000 -0.0000 -0.0000
vn 0.9774 0.2115 -0.0000
vn -0.0000 -0.0000 1.0000
vn -0.9774 0.2115 -0.0000
vn -0.0000 1.0000 -0.0000
vn 0.9594 0.2814 0.0178
vn -0.9691 0.2461 -0.0180
vn -0.0000 0.4064 -0.9137
vt 0.968612 0.896168
vt 0.968612 0.895577
vt 0.961687 0.895577
vt 0.961687 0.896168
vt 0.965053 0.903178
vt 0.972657 0.903178
vt 0.970008 0.911397
vt 0.966901 0.911397
vt 0.968612 0.896146
vt 0.968612 0.895555
vt 0.961687 0.895555
vt 0.961687 0.896146
vt 0.963529 0.894966
vt 0.963529 0.895410
vt 0.974589 0.895410
vt 0.974589 0.894966
vt 0.963529 0.888255
vt 0.974589 0.888255
vt 0.976432 0.896168
vt 0.976432 0.895577
vt 0.974589 0.894523
vt 0.974589 0.894523
vt 0.963529 0.894523
vt 0.963529 0.894523
vt 0.976441 0.897870
vt 0.976441 0.894732
vt 0.961026 0.894732
vt 0.961026 0.897870
vt 0.976452 0.903664
vt 0.961029 0.903664
vt 0.961029 0.894630
vt 0.976452 0.894630
vt 0.976432 0.896168
vt 0.975445 0.904907
vt 0.961885 0.904907
vt 0.961885 0.899337
vt 0.975445 0.899337
vt 0.967301 0.911397
vt 0.970408 0.911397
vt 0.976432 0.896146
vt 0.976432 0.895555
vt 0.976441 0.894615
vt 0.976441 0.897753
vt 0.961026 0.897753
vt 0.961026 0.894615
vt 0.976432 0.895555
vt 0.976432 0.896146
vt 0.961687 0.896168
vt 0.961687 0.896146
vt 0.961687 0.895555
s 0
usemtl Material
f 89/32/108 76/33/108 72/34/108 91/35/108
f 76/36/109 73/37/109 85/38/109 86/39/109
f 89/40/108 77/41/108 83/42/108 93/43/108
f 91/44/110 72/45/110 70/46/110 90/47/110
f 74/48/111 71/49/111 75/49/111 69/48/111
f 90/50/112 70/51/112 73/33/112 92/32/112
f 71/49/113 78/52/113 80/53/113 75/49/113
f 74/48/110 79/54/110 78/52/110 71/49/110
f 75/49/114 80/53/114 77/55/114 69/48/114
f 69/48/115 77/55/115 79/54/115 74/48/115
f 94/56/114 81/57/114 82/58/114 93/59/114
f 77/55/111 80/53/111 84/53/111 83/55/111
f 73/60/116 76/61/116 82/62/116 81/63/116
f 92/32/112 73/33/112 81/51/112 94/64/112
f 88/65/116 87/66/116 86/67/116 85/68/116
f 73/46/117 70/46/117 88/46/117 85/46/117
f 72/45/118 76/45/118 86/45/118 87/45/118
f 70/37/119 72/36/119 87/69/119 88/70/119
f 80/41/112 92/40/112 94/71/112 84/72/112
f 84/73/114 94/74/114 93/75/114 83/76/114
f 78/77/112 90/78/112 92/40/112 80/41/112
f 79/54/110 91/44/110 90/47/110 78/52/110
f 76/33/108 89/32/108 93/79/108 82/34/108
f 77/41/108 89/40/108 91/80/108 79/81/108
o Cube.002_Cube.003
v 0.050000 0.130000 -0.105195
v 0.014000 0.244000 -0.090000
v 0.013772 0.243950 0.097089
v 0.050000 0.130000 0.120000
v -0.014000 0.244000 -0.090000
v -0.050000 0.130000 -0.105195
v -0.013772 0.243950 0.097089
v -0.050000 0.130000 0.120000
v 0.070000 0.130000 -0.105195
v 0.070000 0.130000 0.120000
v -0.070000 0.130000 -0.105195
v -0.070000 0.130000 0.120000
v 0.019817 0.259551 -0.070266
v 0.027560 0.253251 -0.078086
v 0.019761 0.259596 0.090620
v 0.028208 0.253485 0.098237
v -0.019817 0.259551 -0.070266
v -0.027560 0.253251 -0.078086
v -0.019761 0.259596 0.090620
v -0.028349 0.253316 0.097089
vn -0.9533 -0.3021 -0.0006
vn 0.9533 -0.3021 -0.0006
vn -0.0000 -1.0000 -0.0003
vn -0.0000 1.0000 -0.0003
vn -0.2612 0.2525 -0.9317
vn -0.0000 0.7899 -0.6133
vn -0.0000 -1.0000 -0.0000
vn 0.9464 0.3231 -0.0017
vn -0.0135 -0.0607 0.9981
vn -0.9465 0.3228 -0.0019
vn 0.0472 0.1744 0.9835
vn -0.0771 0.1598 0.9841
vn 0.6084 0.7937 -0.0017
vn -0.0092 0.7509 0.6604
vn -0.6102 0.7923 -0.0016
vn -0.0000 0.7787 -0.6274
vn 0.2612 0.2525 -0.9317
vt 0.988972 0.904130
vt 0.990256 0.892424
vt 0.975389 0.892424
vt 0.976673 0.904130
vt 0.972584 0.912835
vt 0.964914 0.912835
vt 0.964914 0.924441
vt 0.972584 0.924441
vt 0.971638 0.913267
vt 0.971640 0.924009
vt 0.965858 0.924009
vt 0.965859 0.913267
vt 0.971236 0.927040
vt 0.971236 0.911783
vt 0.966188 0.911783
vt 0.966391 0.926381
vt 0.971236 0.911807
vt 0.971236 0.926820
vt 0.967901 0.926820
vt 0.967901 0.911807
vt 0.976548 0.889527
vt 0.988192 0.889527
vt 0.989033 0.903584
vt 0.976608 0.903580
vt 0.988958 0.903562
vt 0.976612 0.903584
vt 0.966195 0.926324
vt 0.966211 0.926327
vt 0.988514 0.901361
vt 0.977131 0.901361
vt 0.971638 0.918668
vt 0.965859 0.918668
vt 0.988514 0.901361
vt 0.977131 0.901361
vt 0.965858 0.918668
vt 0.971640 0.918668
s 0
usemtl Material
f 96/82/120 95/83/120 98/84/120 97/85/120
f 101/82/121 102/83/121 100/84/121 99/85/121
f 97/86/122 101/87/122 99/88/122 96/89/122
f 109/90/123 107/91/123 111/92/123 113/93/123
f 99/94/124 100/95/124 105/96/124 112/97/124
f 96/98/125 99/99/125 112/100/125 108/101/125
f 98/102/126 95/103/126 103/103/126 104/102/126
f 108/104/127 110/105/127 104/84/127 103/83/127
f 101/99/128 97/98/128 110/101/128 114/100/128
f 114/106/129 112/107/129 105/84/129 106/83/129
f 100/102/126 102/103/126 106/103/126 105/102/126
f 102/95/130 101/94/130 114/108/130 106/96/130
f 97/94/131 98/95/131 104/96/131 110/109/131
f 110/105/132 108/104/132 107/110/132 109/111/132
f 114/87/133 110/86/133 109/112/133 113/113/133
f 112/107/134 114/106/134 113/114/134 111/115/134
f 108/89/135 112/88/135 111/116/135 107/117/135
f 95/95/136 96/94/136 108/97/136 103/96/136
