# Blender 3.6.5
# www.blender.org
mtllib Poly_World_Map_Mountain_01_B_Snow.mtl
o Grid.003
v -0.220498 -0.000578 0.205909
v -0.183188 -0.000578 -0.466146
v 0.856305 -0.000578 0.088713
v 0.434680 -0.000578 -0.661657
v 0.082560 0.418075 0.083561
v -0.073081 0.418075 -0.349362
v 0.413752 0.418075 -0.503410
v 0.579615 0.418075 0.020763
v 0.090208 -0.000578 -0.669283
v 0.208252 -0.000578 0.507592
v 0.387214 0.418075 0.263221
v 0.138551 0.418075 -0.522623
v -0.140690 -0.000578 -0.013085
v 0.867831 -0.000578 -0.332209
v 0.581511 0.418075 -0.242710
v -0.062756 0.418075 -0.038846
v 0.249189 0.806562 -0.148403
v 0.246926 0.805732 -0.154088
v 0.254155 0.806852 -0.148710
v 0.251950 0.806852 -0.155677
v 0.249149 0.806852 -0.155739
v 0.252000 0.806645 -0.146843
v 0.247272 0.805898 -0.150404
v 0.253786 0.806852 -0.152465
v 0.132640 0.665620 -0.116315
v 0.121863 0.660442 -0.231201
v 0.191190 0.695397 -0.282712
v 0.278540 0.695397 -0.280779
v 0.314028 0.695397 -0.174921
v 0.347300 0.695397 -0.063480
v 0.280100 0.688924 -0.005248
v 0.189828 0.686335 -0.055986
vn -0.7830 0.6213 0.0313
vn 0.0446 0.6437 -0.7640
vn 0.7424 0.6671 -0.0621
vn -0.4247 0.5464 0.7218
vn -0.3645 0.7029 0.6109
vn -0.4675 0.3224 0.8231
vn -0.4687 0.3229 0.8222
vn -0.3644 0.7028 0.6109
vn -0.4533 0.5635 0.6907
vn 0.8299 0.5576 0.0163
vn 0.0407 0.3407 -0.9393
vn -0.9750 0.2116 0.0675
vn -0.5760 0.3425 -0.7422
vn 0.5808 0.3431 0.7382
vn 0.3687 0.7801 0.5055
vn 0.6152 0.0760 0.7847
vn 0.6269 0.0779 0.7752
vn 0.3675 0.7792 0.5077
vn 0.5582 0.6649 0.4962
vn -0.5279 0.6379 -0.5607
vn -0.6435 0.6644 0.3801
vn -0.7413 0.2799 0.6100
vn -0.7375 0.2814 0.6140
vn -0.6438 0.6643 0.3797
vn -0.8853 0.4329 0.1699
vn 0.6346 0.4240 -0.6461
vn -0.5999 0.7428 -0.2974
vn -0.5848 0.0828 -0.8069
vn -0.6051 0.0633 -0.7936
vn -0.5984 0.7433 -0.2989
vn 0.6537 0.6644 -0.3624
vn -0.5775 0.5804 0.5741
vn 0.0121 0.7834 -0.6214
vn 0.0390 0.2576 -0.9655
vn 0.0354 0.2572 -0.9657
vn 0.8210 0.5024 -0.2712
vn 0.9473 0.1137 -0.2996
vn 0.9373 0.1087 -0.3311
vn 0.8197 0.5050 -0.2703
vn 0.8236 0.5096 -0.2490
vn 0.8251 0.5076 -0.2479
vn 0.9430 0.1133 -0.3128
vn 0.9400 0.1201 -0.3193
vn -0.7446 0.6663 0.0399
vn -0.9656 0.2481 0.0783
vn -0.9626 0.2494 0.1058
vn -0.7448 0.6662 0.0376
vn -0.1460 0.9891 0.0203
vn -0.1383 0.9888 0.0562
vn -0.1199 0.9913 0.0538
vn -0.1058 0.9944 0.0007
vn -0.1235 0.9918 0.0315
vn -0.1412 0.9897 0.0224
vn -0.1607 0.9869 -0.0112
vn -0.1505 0.9880 0.0352
vt 0.976891 0.395681
vt 0.953924 0.417972
vt 0.922296 0.417972
vt 0.902097 0.395681
vt 0.935311 0.432059
vt 0.940697 0.431961
vt 0.990631 0.378199
vt 0.890819 0.378199
vt 0.934693 0.428774
vt 0.940697 0.428999
s 0
usemtl Material.002
f 16/1/1 25/2/1 26/3/1 6/4/1
f 12/1/2 27/2/2 28/3/2 7/4/2
f 15/1/3 29/2/3 30/3/3 8/4/3
f 11/1/4 31/2/4 32/3/4 5/4/4
f 17/5/5 32/3/6 31/2/7 22/6/8
f 10/7/9 11/1/9 5/4/9 1/8/9
f 14/7/10 15/1/10 8/4/10 3/8/10
f 9/7/11 12/1/11 7/4/11 4/8/11
f 13/7/12 16/1/12 6/4/12 2/8/12
f 2/8/13 6/4/13 12/1/13 9/7/13
f 3/8/14 8/4/14 11/1/14 10/7/14
f 22/6/15 31/2/16 30/3/17 19/5/18
f 8/4/19 30/3/19 31/2/19 11/1/19
f 6/4/20 26/3/20 27/2/20 12/1/20
f 23/6/21 25/2/22 32/3/23 17/5/24
f 1/8/25 5/4/25 16/1/25 13/7/25
f 4/8/26 7/4/26 15/1/26 14/7/26
f 21/6/27 27/2/28 26/3/29 18/5/30
f 7/4/31 28/3/31 29/2/31 15/1/31
f 5/4/32 32/3/32 25/2/32 16/1/32
f 20/5/33 28/3/34 27/2/35 21/6/33
f 19/5/36 30/3/37 29/2/38 24/6/39
f 20/5/40 24/6/41 29/2/42 28/3/43
f 18/5/44 26/3/45 25/2/46 23/6/47
f 23/9/48 17/10/49 22/9/50 19/10/51 24/9/52 20/10/53 21/9/54 18/10/55
o Grid.001
v 0.017176 -0.000578 -0.239215
v -0.166364 -0.000578 0.087362
v -0.549508 -0.000578 -0.444883
v -0.523000 -0.000578 0.033426
v -0.140206 0.253145 -0.265521
v -0.173346 0.253145 0.030641
v -0.500399 0.253145 -0.018821
v -0.447143 0.253145 -0.370958
v -0.352786 -0.000578 0.121759
v -0.122987 -0.000578 -0.495126
v -0.266034 0.253145 -0.456984
v -0.345876 0.253145 0.070942
v -0.076427 -0.000578 -0.149397
v -0.658548 -0.000578 -0.237435
v -0.523488 0.253145 -0.218309
v -0.090672 0.253145 -0.152851
v -0.266220 0.532363 -0.177462
v -0.266485 0.531533 -0.174066
v -0.268776 0.532654 -0.178527
v -0.269384 0.532654 -0.174505
v -0.268000 0.532654 -0.173787
v -0.267242 0.532446 -0.178931
v -0.265753 0.531699 -0.175992
v -0.269514 0.532654 -0.176560
v -0.163963 0.324074 -0.156115
v -0.215901 0.312280 -0.019388
v -0.323558 0.391887 0.000475
v -0.421855 0.391887 -0.050536
v -0.403076 0.391887 -0.190800
v -0.378655 0.391887 -0.336178
v -0.269662 0.377145 -0.364876
v -0.195313 0.371248 -0.256708
v -0.221008 -0.000578 0.055966
v 0.115351 -0.000578 0.228002
v -0.536923 -0.000578 0.473138
v -0.029183 -0.002166 0.630123
v -0.269834 0.253145 0.207877
v 0.058216 0.253145 0.226694
v -0.078211 0.254733 0.599818
v -0.418618 0.253145 0.496304
v 0.082570 -0.000578 0.474312
v -0.534333 -0.000578 0.256161
v -0.477503 0.253145 0.304645
v 0.033291 0.253145 0.460114
v -0.105884 -0.000578 0.104719
v -0.305750 -0.000578 0.662261
v -0.278637 0.253145 0.593956
v -0.111366 0.253145 0.118314
v -0.200955 0.508666 0.373754
v -0.197634 0.507836 0.374507
v -0.202379 0.508957 0.376129
v -0.198488 0.508957 0.377313
v -0.197577 0.508957 0.376048
v -0.202557 0.508749 0.374552
v -0.199433 0.508002 0.373505
v -0.200541 0.508957 0.377143
v -0.125211 0.359396 0.183080
v -0.037260 0.329367 0.305574
v -0.033200 0.377543 0.432004
v -0.097912 0.354005 0.518738
v -0.233976 0.364192 0.481198
v -0.374284 0.376036 0.437556
v -0.386892 0.391143 0.325604
v -0.269095 0.400616 0.268183
vn 0.6487 0.7001 0.2985
vn -0.4354 0.4462 0.7819
vn -0.7700 0.5826 -0.2603
vn 0.7670 0.3964 -0.5046
vn 0.6868 0.5797 -0.4384
vn 0.8191 -0.0020 -0.5736
vn 0.8110 -0.0002 -0.5851
vn 0.6878 0.5800 -0.4365
vn 0.7624 0.4619 -0.4533
vn -0.7953 0.4472 -0.4094
vn -0.4710 0.2018 0.8588
vn 0.9218 0.0835 0.3786
vn 0.1995 0.2032 0.9586
vn -0.2147 0.1942 -0.9572
vn -0.0501 0.7980 -0.6006
vn -0.2061 0.2980 -0.9320
vn -0.2092 0.3000 -0.9307
vn -0.0499 0.7979 -0.6008
vn -0.3029 0.4740 -0.8268
vn 0.3175 0.5167 0.7951
vn 0.8788 0.4738 -0.0563
vn 0.9635 -0.0427 -0.2644
vn 0.9577 -0.0334 -0.2858
vn 0.8795 0.4729 -0.0535
vn 0.9243 0.3244 0.2012
vn -0.9037 0.3007 0.3048
vn 0.5470 0.5984 0.5854
vn 0.3044 0.1259 0.9442
vn 0.3101 0.1144 0.9438
vn 0.5457 0.5996 0.5854
vn -0.8126 0.5828 0.0103
vn 0.8105 0.5559 -0.1844
vn -0.2643 0.8197 0.5082
vn -0.4402 0.2495 0.8625
vn -0.4311 0.2479 0.8676
vn -0.2651 0.8201 0.5071
vn -0.7141 0.6938 -0.0932
vn -0.9042 0.4015 -0.1457
vn -0.9089 0.3959 -0.1310
vn -0.7144 0.6935 -0.0932
vn -0.7119 0.6915 -0.1230
vn -0.7109 0.6923 -0.1236
vn -0.9049 0.3945 -0.1597
vn -0.9060 0.4011 -0.1349
vn 0.8081 0.4771 0.3454
vn 0.9272 -0.0227 0.3738
vn 0.9275 -0.0226 0.3731
vn 0.8080 0.4770 0.3459
vn 0.2431 0.9672 0.0732
vn 0.2416 0.9697 0.0352
vn 0.2253 0.9740 0.0230
vn 0.1985 0.9778 0.0677
vn 0.2211 0.9739 0.0515
vn 0.2344 0.9691 0.0771
vn 0.2377 0.9619 0.1348
vn 0.2477 0.9666 0.0664
vn 0.5212 0.6984 -0.4905
vn 0.6485 0.5209 0.5551
vn -0.3256 0.6365 0.6992
vn -0.4068 0.3682 -0.8360
vn -0.3232 0.7809 -0.5345
vn -0.3796 0.4464 -0.8103
vn -0.3974 0.4467 -0.8015
vn -0.3219 0.7825 -0.5330
vn -0.4673 0.3311 -0.8198
vn -0.5938 0.2385 0.7685
vn 0.7815 0.2019 0.5904
vn 0.5081 0.0835 -0.8572
vn 0.9713 0.2073 0.1168
vn -0.9428 0.3070 0.1299
vn -0.5218 0.8395 0.1513
vn -0.9784 0.0185 0.2059
vn -0.9198 0.0225 0.3917
vn -0.5201 0.8428 0.1385
vn -0.8520 0.4732 0.2242
vn 0.7725 0.6338 -0.0401
vn -0.1593 0.7574 -0.6333
vn -0.2493 0.5504 -0.7968
vn -0.2483 0.5513 -0.7965
vn -0.1559 0.7634 -0.6269
vn -0.1410 0.2933 -0.9456
vn 0.0540 0.1916 0.9800
vn 0.6181 0.7220 -0.3111
vn 0.9987 -0.0428 0.0278
vn 0.9893 -0.0940 -0.1120
vn 0.6205 0.7242 -0.3007
vn -0.0766 0.6806 0.7286
vn -0.4223 0.3831 -0.8215
vn 0.3975 0.7852 0.4749
vn 0.6322 0.0884 0.7698
vn 0.6758 0.0927 0.7312
vn 0.3988 0.7810 0.4806
vn -0.1842 0.6000 0.7785
vn -0.2180 0.3943 0.8927
vn -0.2193 0.3912 0.8938
vn -0.1824 0.6030 0.7766
vn -0.1781 0.6045 0.7764
vn -0.1792 0.6043 0.7763
vn -0.2102 0.3968 0.8935
vn -0.2194 0.4057 0.8873
vn 0.6321 0.7265 -0.2696
vn 0.7570 0.3906 -0.5238
vn 0.7490 0.3921 -0.5340
vn 0.6355 0.7212 -0.2758
vn 0.1029 0.9663 -0.2360
vn 0.0772 0.9700 -0.2307
vn 0.0761 0.9739 -0.2136
vn 0.0812 0.9826 -0.1672
vn 0.0865 0.9740 -0.2094
vn 0.0979 0.9673 -0.2341
vn 0.1266 0.9636 -0.2357
vn 0.1040 0.9640 -0.2447
vt 0.976891 0.395681
vt 0.953924 0.417972
vt 0.922296 0.417972
vt 0.902097 0.395681
vt 0.935311 0.432059
vt 0.940697 0.431961
vt 0.990631 0.378199
vt 0.890819 0.378199
vt 0.934693 0.428774
vt 0.940697 0.428999
s 0
usemtl Material.002
f 48/11/56 57/12/56 58/13/56 38/14/56
f 44/11/57 59/12/57 60/13/57 39/14/57
f 47/11/58 61/12/58 62/13/58 40/14/58
f 43/11/59 63/12/59 64/13/59 37/14/59
f 49/15/60 64/13/61 63/12/62 54/16/63
f 42/17/64 43/11/64 37/14/64 33/18/64
f 46/17/65 47/11/65 40/14/65 35/18/65
f 41/17/66 44/11/66 39/14/66 36/18/66
f 45/17/67 48/11/67 38/14/67 34/18/67
f 34/18/68 38/14/68 44/11/68 41/17/68
f 35/18/69 40/14/69 43/11/69 42/17/69
f 54/16/70 63/12/71 62/13/72 51/15/73
f 40/14/74 62/13/74 63/12/74 43/11/74
f 38/14/75 58/13/75 59/12/75 44/11/75
f 55/16/76 57/12/77 64/13/78 49/15/79
f 33/18/80 37/14/80 48/11/80 45/17/80
f 36/18/81 39/14/81 47/11/81 46/17/81
f 53/16/82 59/12/83 58/13/84 50/15/85
f 39/14/86 60/13/86 61/12/86 47/11/86
f 37/14/87 64/13/87 57/12/87 48/11/87
f 52/15/88 60/13/89 59/12/90 53/16/91
f 51/15/92 62/13/93 61/12/94 56/16/95
f 52/15/96 56/16/97 61/12/98 60/13/99
f 50/15/100 58/13/101 57/12/102 55/16/103
f 55/19/104 49/20/105 54/19/106 51/20/107 56/19/108 52/20/109 53/19/110 50/20/111
f 80/11/112 89/12/112 90/13/112 70/14/112
f 76/11/113 91/12/113 92/13/113 71/14/113
f 79/11/114 93/12/114 94/13/114 72/14/114
f 75/11/115 95/12/115 96/13/115 69/14/115
f 81/15/116 96/13/117 95/12/118 86/16/119
f 74/17/120 75/11/120 69/14/120 65/18/120
f 78/17/121 79/11/121 72/14/121 67/18/121
f 73/17/122 76/11/122 71/14/122 68/18/122
f 77/17/123 80/11/123 70/14/123 66/18/123
f 66/18/124 70/14/124 76/11/124 73/17/124
f 67/18/125 72/14/125 75/11/125 74/17/125
f 86/16/126 95/12/127 94/13/128 83/15/129
f 72/14/130 94/13/130 95/12/130 75/11/130
f 70/14/131 90/13/131 91/12/131 76/11/131
f 87/16/132 89/12/133 96/13/134 81/15/135
f 65/18/136 69/14/136 80/11/136 77/17/136
f 68/18/137 71/14/137 79/11/137 78/17/137
f 85/16/138 91/12/139 90/13/140 82/15/141
f 71/14/142 92/13/142 93/12/142 79/11/142
f 69/14/143 96/13/143 89/12/143 80/11/143
f 84/15/144 92/13/145 91/12/146 85/16/147
f 83/15/148 94/13/149 93/12/150 88/16/151
f 84/15/152 88/16/153 93/12/154 92/13/155
f 82/15/156 90/13/157 89/12/158 87/16/159
f 87/19/160 81/20/161 86/19/162 83/20/163 88/19/164 84/20/165 85/19/166 82/20/167
