# Blender 3.6.5
# www.blender.org
mtllib Poly_SF_Outside_B_Pile_Up_Tires_01.mtl
o Cube.001
v -0.121497 -0.000015 0.171053
v -0.121497 0.191448 0.315098
v -0.121497 0.191448 0.171053
v -0.208524 -0.000015 0.171053
v -0.274545 -0.000015 0.309097
v -0.274545 0.191448 0.309097
v -0.208524 0.191448 0.171053
v -0.289549 -0.000015 0.066021
v -0.433594 -0.000015 0.114036
v -0.433594 0.191448 0.114036
v -0.289549 0.191448 0.066021
v -0.289549 -0.000015 -0.066021
v -0.433594 -0.000015 -0.114036
v -0.433594 0.191448 -0.114036
v -0.289549 0.191448 -0.066021
v -0.208524 -0.000015 -0.171053
v -0.274545 -0.000015 -0.309097
v -0.274545 0.191448 -0.309097
v -0.208524 0.191448 -0.171053
v -0.121497 -0.000015 -0.171053
v -0.121497 -0.000015 -0.315098
v -0.121497 0.191448 -0.315098
v -0.121497 0.191448 -0.171053
v -0.034470 -0.000015 -0.171053
v 0.031551 -0.000015 -0.309097
v 0.031551 0.191448 -0.309097
v -0.034470 0.191448 -0.171053
v 0.046556 -0.000015 -0.066021
v 0.190601 -0.000015 -0.114036
v 0.190601 0.191448 -0.114036
v 0.046556 0.191448 -0.066021
v 0.046556 -0.000015 0.066021
v 0.190601 -0.000015 0.114036
v 0.190601 0.191448 0.114036
v 0.046556 0.191448 0.066021
v -0.034470 -0.000015 0.171053
v 0.031551 -0.000015 0.309097
v 0.031551 0.191448 0.309097
v -0.034470 0.191448 0.171053
v -0.121497 -0.000015 0.315098
v -0.247536 -0.000015 0.123038
v -0.361572 -0.000015 0.213067
v -0.361572 0.191448 0.213067
v -0.247536 0.191448 0.123038
v -0.289549 -0.000015 0.000000
v -0.436595 -0.000015 0.000000
v -0.436595 0.191448 0.000000
v -0.289549 0.191448 0.000000
v -0.247536 -0.000015 -0.123038
v -0.361572 -0.000015 -0.213067
v -0.361572 0.191448 -0.213067
v -0.247536 0.191448 -0.123038
v 0.004543 -0.000015 -0.123038
v 0.118578 -0.000015 -0.213067
v 0.118578 0.191448 -0.213067
v 0.004543 0.191448 -0.123038
v 0.046556 -0.000015 0.000000
v 0.193602 -0.000015 0.000000
v 0.193602 0.191448 0.000000
v 0.046556 0.191448 0.000000
v 0.004543 -0.000015 0.123038
v 0.118578 -0.000015 0.213067
v 0.118578 0.191448 0.213067
v 0.004543 0.191448 0.123038
v -0.156835 0.190989 0.171053
v -0.156835 0.382452 0.315098
v -0.156835 0.382452 0.171053
v -0.243862 0.190989 0.171053
v -0.309883 0.190989 0.309097
v -0.309883 0.382452 0.309097
v -0.243862 0.382452 0.171053
v -0.324888 0.190989 0.066021
v -0.468933 0.190989 0.114036
v -0.468933 0.382452 0.114036
v -0.324888 0.382452 0.066021
v -0.324888 0.190989 -0.066021
v -0.468933 0.190989 -0.114036
v -0.468933 0.382452 -0.114036
v -0.324888 0.382452 -0.066021
v -0.243862 0.190989 -0.171053
v -0.309883 0.190989 -0.309097
v -0.309883 0.382452 -0.309097
v -0.243862 0.382452 -0.171053
v -0.156835 0.190989 -0.171053
v -0.156835 0.190989 -0.315098
v -0.156835 0.382452 -0.315098
v -0.156835 0.382452 -0.171053
v -0.069808 0.190989 -0.171053
v -0.003787 0.190989 -0.309097
v -0.003787 0.382452 -0.309097
v -0.069808 0.382452 -0.171053
v 0.011217 0.190989 -0.066021
v 0.155262 0.190989 -0.114036
v 0.155262 0.382452 -0.114036
v 0.011217 0.382452 -0.066021
v 0.011217 0.190989 0.066021
v 0.155262 0.190989 0.114036
v 0.155262 0.382452 0.114036
v 0.011217 0.382452 0.066021
v -0.069808 0.190989 0.171053
v -0.003787 0.190989 0.309097
v -0.003787 0.382452 0.309097
v -0.069808 0.382452 0.171053
v -0.156835 0.190989 0.315098
v -0.282875 0.190989 0.123038
v -0.396910 0.190989 0.213067
v -0.396910 0.382452 0.213067
v -0.282875 0.382452 0.123038
v -0.324888 0.190989 0.000000
v -0.471934 0.190989 0.000000
v -0.471934 0.382452 0.000000
v -0.324888 0.382452 0.000000
v -0.282875 0.190989 -0.123038
v -0.396910 0.190989 -0.213067
v -0.396910 0.382452 -0.213067
v -0.282875 0.382452 -0.123038
v -0.030796 0.190989 -0.123038
v 0.083240 0.190989 -0.213067
v 0.083240 0.382452 -0.213067
v -0.030796 0.382452 -0.123038
v 0.011217 0.190989 0.000000
v 0.158263 0.190989 0.000000
v 0.158263 0.382452 0.000000
v 0.011217 0.382452 0.000000
v -0.030796 0.190989 0.123038
v 0.083240 0.190989 0.213067
v 0.083240 0.382452 0.213067
v -0.030796 0.382452 0.123038
v 0.224682 0.303823 0.171053
v 0.347774 0.413311 0.315098
v 0.347774 0.413311 0.171053
v 0.179566 0.356259 0.171053
v 0.123833 0.401420 0.309097
v 0.204269 0.563048 0.309097
v 0.260002 0.517887 0.171053
v 0.111167 0.411684 0.066021
v -0.010723 0.478013 0.114036
v 0.044850 0.655860 0.114036
v 0.191603 0.573312 0.066021
v 0.111167 0.411684 -0.066021
v -0.010723 0.478013 -0.114036
v 0.044850 0.655860 -0.114036
v 0.191603 0.573312 -0.066021
v 0.179566 0.356259 -0.171053
v 0.123833 0.401420 -0.309097
v 0.204269 0.563048 -0.309097
v 0.260002 0.517887 -0.171053
v 0.224682 0.303823 -0.171053
v 0.224682 0.303823 -0.315098
v 0.347774 0.413311 -0.315098
v 0.347774 0.413311 -0.171053
v 0.274448 0.212723 -0.171054
v 0.289884 0.191466 -0.309097
v 0.431289 0.255506 -0.309097
v 0.397540 0.322211 -0.171054
v 0.294903 0.173422 -0.066021
v 0.343083 0.000204 -0.114036
v 0.484488 0.064244 -0.114036
v 0.436308 0.237462 -0.066021
v 0.294903 0.173422 0.066021
v 0.343083 0.000204 0.114036
v 0.484488 0.064244 0.114036
v 0.436308 0.237462 0.066021
v 0.274448 0.212723 0.171053
v 0.289885 0.191465 0.309097
v 0.431289 0.255506 0.309097
v 0.397540 0.322211 0.171053
v 0.224682 0.303823 0.315098
v 0.146633 0.382945 0.123038
v 0.056177 0.443975 0.213067
v 0.111751 0.621821 0.213067
v 0.227069 0.544573 0.123038
v 0.111167 0.411684 0.000000
v -0.013511 0.479432 0.000000
v 0.042063 0.657278 0.000000
v 0.191603 0.573312 0.000000
v 0.146633 0.382945 -0.123038
v 0.056177 0.443975 -0.213067
v 0.111751 0.621821 -0.213067
v 0.227069 0.544573 -0.123038
v 0.296757 0.171885 -0.123038
v 0.318993 0.086813 -0.213067
v 0.460398 0.150853 -0.213067
v 0.419849 0.281373 -0.123038
v 0.294903 0.173422 -0.000000
v 0.344087 -0.003405 -0.000000
v 0.485492 0.060636 -0.000000
v 0.436308 0.237462 -0.000000
v 0.296757 0.171885 0.123038
v 0.318993 0.086813 0.213067
v 0.460398 0.150853 0.213067
v 0.419849 0.281373 0.123038
vn 1.0000 -0.0000 -0.0000
vn -0.0000 -1.0000 -0.0000
vn -0.0392 -0.0000 0.9992
vn -0.0000 1.0000 -0.0000
vn -0.0000 -0.0000 -1.0000
vn -0.7410 -0.0000 0.6715
vn 0.7761 -0.0000 -0.6306
vn -0.8087 -0.0000 0.5882
vn 0.8051 -0.0000 -0.5932
vn -0.9997 -0.0000 0.0263
vn -0.9997 -0.0000 -0.0263
vn -0.8087 -0.0000 -0.5882
vn 0.8051 -0.0000 0.5932
vn -0.7410 -0.0000 -0.6715
vn 0.7761 -0.0000 0.6306
vn -0.0392 -0.0000 -0.9992
vn -0.0000 -0.0000 1.0000
vn 0.0392 -0.0000 -0.9992
vn 0.7410 -0.0000 -0.6715
vn -0.7761 -0.0000 0.6306
vn 0.8087 -0.0000 -0.5882
vn -0.8051 -0.0000 0.5932
vn 0.9997 -0.0000 -0.0263
vn -1.0000 -0.0000 -0.0000
vn 0.9997 -0.0000 0.0263
vn 0.8087 -0.0000 0.5882
vn -0.8051 -0.0000 -0.5932
vn 0.7410 -0.0000 0.6715
vn -0.7761 -0.0000 -0.6306
vn 0.0392 -0.0000 0.9992
vn 0.6646 -0.7472 -0.0000
vn -0.7159 -0.6976 -0.0297
vn -0.0279 0.0209 0.9994
vn 0.7388 0.6728 0.0383
vn -0.5770 -0.8167 0.0104
vn -0.6662 0.2669 0.6964
vn 0.5718 0.8203 -0.0114
vn 0.6782 -0.3375 -0.6528
vn -0.5169 -0.8560 -0.0053
vn -0.7646 0.2389 0.5986
vn 0.5212 0.8535 0.0015
vn 0.7054 -0.3511 -0.6157
vn -0.4776 -0.8786 0.0005
vn -0.9541 0.2982 0.0270
vn 0.4898 0.8718 -0.0007
vn 0.8953 -0.4455 -0.0000
vn -0.4776 -0.8786 -0.0005
vn -0.9541 0.2982 -0.0270
vn 0.4898 0.8718 0.0007
vn -0.5169 -0.8560 0.0053
vn -0.7646 0.2389 -0.5986
vn 0.5212 0.8535 -0.0015
vn 0.7054 -0.3511 0.6157
vn -0.5770 -0.8167 -0.0104
vn -0.6662 0.2669 -0.6964
vn 0.5718 0.8203 0.0114
vn 0.6782 -0.3375 0.6528
vn -0.7159 -0.6976 0.0297
vn -0.0279 0.0209 -0.9994
vn 0.7388 0.6728 -0.0383
vn -0.8704 -0.4922 -0.0105
vn 0.0214 -0.0326 -0.9992
vn 0.8816 0.4719 -0.0061
vn -0.9428 -0.3334 -0.0003
vn 0.2751 -0.6074 -0.7453
vn 0.9396 0.3422 0.0102
vn -0.4832 0.5433 0.6866
vn -0.9654 -0.2607 -0.0046
vn 0.3071 -0.6781 -0.6677
vn 0.9585 0.2849 -0.0108
vn -0.5126 0.7813 0.3560
vn -0.9634 -0.2680 -0.0000
vn 0.4123 -0.9105 -0.0324
vn 0.9634 0.2680 -0.0000
vn -0.4126 0.9109 -0.0000
vn 0.4123 -0.9105 0.0324
vn -0.9654 -0.2607 0.0046
vn 0.3071 -0.6781 0.6677
vn 0.9585 0.2849 0.0108
vn -0.5126 0.7813 -0.3560
vn -0.9428 -0.3334 0.0003
vn 0.2751 -0.6074 0.7453
vn 0.9396 0.3422 -0.0102
vn -0.4832 0.5433 -0.6866
vn -0.8704 -0.4922 0.0105
vn 0.0214 -0.0326 0.9992
vn 0.8816 0.4719 0.0061
vt 0.714792 0.500190
vt 0.714792 0.514284
vt 0.697651 0.538985
vt 0.688992 0.538986
vt 0.688992 0.529908
vt 0.697651 0.533395
vt 0.703174 0.514284
vt 0.703174 0.500190
vt 0.714792 0.500190
vt 0.714792 0.514284
vt 0.714792 0.548081
vt 0.714792 0.539082
vt 0.704548 0.539082
vt 0.704548 0.548081
vt 0.702463 0.530902
vt 0.698540 0.523734
vt 0.693369 0.528881
vt 0.700145 0.533151
vt 0.710742 0.514284
vt 0.710742 0.500190
vt 0.709274 0.539082
vt 0.709274 0.548081
vt 0.689000 0.533578
vt 0.697648 0.535855
vt 0.697651 0.535855
vt 0.688992 0.533578
vt 0.688992 0.538986
vt 0.697651 0.538986
vt 0.688992 0.533582
vt 0.697651 0.535860
vt 0.697648 0.535860
vt 0.689000 0.533582
vt 0.693369 0.528886
vt 0.700145 0.533155
vt 0.710742 0.514284
vt 0.710742 0.500190
vt 0.703174 0.500190
vt 0.688992 0.529909
vt 0.697651 0.533395
vt 0.702463 0.530902
vt 0.698540 0.523734
vt 0.693369 0.528886
vt 0.700145 0.533155
vt 0.710844 0.514284
vt 0.710844 0.500190
vt 0.710844 0.500190
vt 0.710844 0.514284
vt 0.689000 0.538986
vt 0.697648 0.538986
vt 0.693369 0.528881
vt 0.700145 0.533151
vt 0.710793 0.514284
vt 0.710793 0.500190
vt 0.703174 0.514284
vt 0.710793 0.500190
vt 0.710793 0.514284
s 0
usemtl regular
f 3/1/1 2/1/1 40/2/1 1/2/1
f 1/3/2 40/4/2 5/5/2 4/6/2
f 40/7/3 2/8/3 6/9/3 5/10/3
f 2/4/4 3/3/4 7/6/4 6/5/4
f 3/11/5 1/12/5 4/13/5 7/14/5
f 4/15/2 5/16/2 42/17/2 41/18/2
f 5/19/6 6/20/6 43/8/6 42/7/6
f 6/16/4 7/15/4 44/18/4 43/17/4
f 7/14/7 4/13/7 41/21/7 44/22/7
f 41/18/2 42/17/2 9/23/2 8/24/2
f 42/7/8 43/8/8 10/20/8 9/19/8
f 43/17/4 44/18/4 11/24/4 10/23/4
f 44/22/9 41/21/9 8/13/9 11/14/9
f 8/25/2 9/26/2 46/27/2 45/28/2
f 9/2/10 10/1/10 47/8/10 46/7/10
f 10/26/4 11/25/4 48/28/4 47/27/4
f 11/22/1 8/21/1 45/13/1 48/14/1
f 45/28/2 46/27/2 13/29/2 12/30/2
f 46/7/11 47/8/11 14/1/11 13/2/11
f 47/27/4 48/28/4 15/30/4 14/29/4
f 48/22/1 45/21/1 12/13/1 15/14/1
f 12/31/2 13/32/2 50/33/2 49/34/2
f 13/35/12 14/36/12 51/37/12 50/7/12
f 14/32/4 15/31/4 52/34/4 51/33/4
f 15/14/13 12/13/13 49/21/13 52/22/13
f 49/34/2 50/33/2 17/16/2 16/15/2
f 50/7/14 51/37/14 18/20/14 17/19/14
f 51/33/4 52/34/4 19/15/4 18/16/4
f 52/22/15 49/21/15 16/13/15 19/14/15
f 16/6/2 17/5/2 21/4/2 20/3/2
f 17/10/16 18/9/16 22/37/16 21/7/16
f 18/5/4 19/6/4 23/3/4 22/4/4
f 19/14/17 16/13/17 20/12/17 23/11/17
f 20/3/2 21/4/2 25/38/2 24/39/2
f 21/7/18 22/37/18 26/1/18 25/2/18
f 22/4/4 23/3/4 27/39/4 26/38/4
f 23/11/17 20/12/17 24/13/17 27/14/17
f 24/40/2 25/41/2 54/42/2 53/43/2
f 25/44/19 26/45/19 55/37/19 54/7/19
f 26/41/4 27/40/4 56/43/4 55/42/4
f 27/14/20 24/13/20 53/21/20 56/22/20
f 53/43/2 54/42/2 29/32/2 28/31/2
f 54/7/21 55/37/21 30/46/21 29/47/21
f 55/42/4 56/43/4 31/31/4 30/32/4
f 56/22/22 53/21/22 28/12/22 31/11/22
f 28/31/2 29/32/2 58/48/2 57/49/2
f 29/7/23 30/8/23 59/1/23 58/2/23
f 30/32/4 31/31/4 60/49/4 59/48/4
f 31/22/24 28/21/24 57/12/24 60/11/24
f 57/49/2 58/48/2 33/23/2 32/24/2
f 58/2/25 59/1/25 34/8/25 33/7/25
f 59/48/4 60/49/4 35/24/4 34/23/4
f 60/11/24 57/12/24 32/13/24 35/14/24
f 32/24/2 33/23/2 62/50/2 61/51/2
f 33/52/26 34/53/26 63/8/26 62/54/26
f 34/23/4 35/24/4 64/51/4 63/50/4
f 35/11/27 32/12/27 61/21/27 64/22/27
f 61/51/2 62/50/2 37/41/2 36/40/2
f 62/54/28 63/8/28 38/55/28 37/56/28
f 63/50/4 64/51/4 39/40/4 38/41/4
f 64/22/29 61/21/29 36/13/29 39/14/29
f 36/39/2 37/38/2 40/4/2 1/3/2
f 37/2/30 38/1/30 2/8/30 40/7/30
f 38/38/4 39/39/4 3/3/4 2/4/4
f 39/14/5 36/13/5 1/12/5 3/11/5
f 67/1/1 66/1/1 104/2/1 65/2/1
f 65/3/2 104/4/2 69/5/2 68/6/2
f 104/7/3 66/8/3 70/9/3 69/10/3
f 66/4/4 67/3/4 71/6/4 70/5/4
f 67/11/5 65/12/5 68/13/5 71/14/5
f 68/15/2 69/16/2 106/17/2 105/18/2
f 69/19/6 70/20/6 107/8/6 106/7/6
f 70/16/4 71/15/4 108/18/4 107/17/4
f 71/14/7 68/13/7 105/21/7 108/22/7
f 105/18/2 106/17/2 73/23/2 72/24/2
f 106/7/8 107/8/8 74/20/8 73/19/8
f 107/17/4 108/18/4 75/24/4 74/23/4
f 108/22/9 105/21/9 72/13/9 75/14/9
f 72/25/2 73/26/2 110/27/2 109/28/2
f 73/2/10 74/1/10 111/8/10 110/7/10
f 74/26/4 75/25/4 112/28/4 111/27/4
f 75/22/1 72/21/1 109/13/1 112/14/1
f 109/28/2 110/27/2 77/29/2 76/30/2
f 110/7/11 111/8/11 78/1/11 77/2/11
f 111/27/4 112/28/4 79/30/4 78/29/4
f 112/22/1 109/21/1 76/13/1 79/14/1
f 76/31/2 77/32/2 114/33/2 113/34/2
f 77/35/12 78/36/12 115/37/12 114/7/12
f 78/32/4 79/31/4 116/34/4 115/33/4
f 79/14/13 76/13/13 113/21/13 116/22/13
f 113/34/2 114/33/2 81/16/2 80/15/2
f 114/7/14 115/37/14 82/20/14 81/19/14
f 115/33/4 116/34/4 83/15/4 82/16/4
f 116/22/15 113/21/15 80/13/15 83/14/15
f 80/6/2 81/5/2 85/4/2 84/3/2
f 81/10/16 82/9/16 86/37/16 85/7/16
f 82/5/4 83/6/4 87/3/4 86/4/4
f 83/14/17 80/13/17 84/12/17 87/11/17
f 84/3/2 85/4/2 89/38/2 88/39/2
f 85/7/18 86/37/18 90/1/18 89/2/18
f 86/4/4 87/3/4 91/39/4 90/38/4
f 87/11/17 84/12/17 88/13/17 91/14/17
f 88/40/2 89/41/2 118/42/2 117/43/2
f 89/44/19 90/45/19 119/37/19 118/7/19
f 90/41/4 91/40/4 120/43/4 119/42/4
f 91/14/20 88/13/20 117/21/20 120/22/20
f 117/43/2 118/42/2 93/32/2 92/31/2
f 118/7/21 119/37/21 94/46/21 93/47/21
f 119/42/4 120/43/4 95/31/4 94/32/4
f 120/22/22 117/21/22 92/12/22 95/11/22
f 92/31/2 93/32/2 122/48/2 121/49/2
f 93/7/23 94/8/23 123/1/23 122/2/23
f 94/32/4 95/31/4 124/49/4 123/48/4
f 95/22/24 92/21/24 121/12/24 124/11/24
f 121/49/2 122/48/2 97/23/2 96/24/2
f 122/2/25 123/1/25 98/8/25 97/7/25
f 123/48/4 124/49/4 99/24/4 98/23/4
f 124/11/24 121/12/24 96/13/24 99/14/24
f 96/24/2 97/23/2 126/50/2 125/51/2
f 97/52/26 98/53/26 127/8/26 126/54/26
f 98/23/4 99/24/4 128/51/4 127/50/4
f 99/11/27 96/12/27 125/21/27 128/22/27
f 125/51/2 126/50/2 101/41/2 100/40/2
f 126/54/28 127/8/28 102/55/28 101/56/28
f 127/50/4 128/51/4 103/40/4 102/41/4
f 128/22/29 125/21/29 100/13/29 103/14/29
f 100/39/2 101/38/2 104/4/2 65/3/2
f 101/2/30 102/1/30 66/8/30 104/7/30
f 102/38/4 103/39/4 67/3/4 66/4/4
f 103/14/5 100/13/5 65/12/5 67/11/5
f 131/1/31 130/1/31 168/2/31 129/2/31
f 129/3/32 168/4/32 133/5/32 132/6/32
f 168/7/33 130/8/33 134/9/33 133/10/33
f 130/4/34 131/3/34 135/6/34 134/5/34
f 131/11/5 129/12/5 132/13/5 135/14/5
f 132/15/35 133/16/35 170/17/35 169/18/35
f 133/19/36 134/20/36 171/8/36 170/7/36
f 134/16/37 135/15/37 172/18/37 171/17/37
f 135/14/38 132/13/38 169/21/38 172/22/38
f 169/18/39 170/17/39 137/23/39 136/24/39
f 170/7/40 171/8/40 138/20/40 137/19/40
f 171/17/41 172/18/41 139/24/41 138/23/41
f 172/22/42 169/21/42 136/13/42 139/14/42
f 136/25/43 137/26/43 174/27/43 173/28/43
f 137/2/44 138/1/44 175/8/44 174/7/44
f 138/26/45 139/25/45 176/28/45 175/27/45
f 139/22/46 136/21/46 173/13/46 176/14/46
f 173/28/47 174/27/47 141/29/47 140/30/47
f 174/7/48 175/8/48 142/1/48 141/2/48
f 175/27/49 176/28/49 143/30/49 142/29/49
f 176/22/46 173/21/46 140/13/46 143/14/46
f 140/31/50 141/32/50 178/33/50 177/34/50
f 141/35/51 142/36/51 179/37/51 178/7/51
f 142/32/52 143/31/52 180/34/52 179/33/52
f 143/14/53 140/13/53 177/21/53 180/22/53
f 177/34/54 178/33/54 145/16/54 144/15/54
f 178/7/55 179/37/55 146/20/55 145/19/55
f 179/33/56 180/34/56 147/15/56 146/16/56
f 180/22/57 177/21/57 144/13/57 147/14/57
f 144/6/58 145/5/58 149/4/58 148/3/58
f 145/10/59 146/9/59 150/37/59 149/7/59
f 146/5/60 147/6/60 151/3/60 150/4/60
f 147/14/17 144/13/17 148/12/17 151/11/17
f 148/3/61 149/4/61 153/38/61 152/39/61
f 149/7/62 150/37/62 154/1/62 153/2/62
f 150/4/63 151/3/63 155/39/63 154/38/63
f 151/11/17 148/12/17 152/13/17 155/14/17
f 152/40/64 153/41/64 182/42/64 181/43/64
f 153/44/65 154/45/65 183/37/65 182/7/65
f 154/41/66 155/40/66 184/43/66 183/42/66
f 155/14/67 152/13/67 181/21/67 184/22/67
f 181/43/68 182/42/68 157/32/68 156/31/68
f 182/7/69 183/37/69 158/46/69 157/47/69
f 183/42/70 184/43/70 159/31/70 158/32/70
f 184/22/71 181/21/71 156/12/71 159/11/71
f 156/31/72 157/32/72 186/48/72 185/49/72
f 157/7/73 158/8/73 187/1/73 186/2/73
f 158/32/74 159/31/74 188/49/74 187/48/74
f 159/22/75 156/21/75 185/12/75 188/11/75
f 185/49/72 186/48/72 161/23/72 160/24/72
f 186/2/76 187/1/76 162/8/76 161/7/76
f 187/48/74 188/49/74 163/24/74 162/23/74
f 188/11/75 185/12/75 160/13/75 163/14/75
f 160/24/77 161/23/77 190/50/77 189/51/77
f 161/52/78 162/53/78 191/8/78 190/54/78
f 162/23/79 163/24/79 192/51/79 191/50/79
f 163/11/80 160/12/80 189/21/80 192/22/80
f 189/51/81 190/50/81 165/41/81 164/40/81
f 190/54/82 191/8/82 166/55/82 165/56/82
f 191/50/83 192/51/83 167/40/83 166/41/83
f 192/22/84 189/21/84 164/13/84 167/14/84
f 164/39/85 165/38/85 168/4/85 129/3/85
f 165/2/86 166/1/86 130/8/86 168/7/86
f 166/38/87 167/39/87 131/3/87 130/4/87
f 167/14/5 164/13/5 129/12/5 131/11/5
