# Blender v3.0.1 OBJ File: 'Poly_Light_Outdoor_01.blend'
# www.blender.org
mtllib Poly_Light_Outdoor_01.mtl
o Cube.003_Cube.004
v -0.500000 1.800000 0.000000
v 0.500000 1.800000 0.000000
v -0.500000 0.000000 1.000000
v -0.500000 0.000000 0.000000
v 0.500000 0.000000 0.000000
v 0.500000 0.000000 1.000000
vt 0.677555 0.388586
vt 0.677555 0.388586
vt 0.677555 0.388586
vt 0.677555 0.388586
vt 0.677555 0.388586
vt 0.677555 0.388586
vn -1.0000 0.0000 0.0000
vn 1.0000 0.0000 0.0000
vn 0.0000 0.0000 -1.0000
vn -0.0000 1.0000 0.0016
vn 0.0005 1.0000 0.0016
vn 0.0000 -0.0016 1.0000
vn -0.0003 -0.0016 1.0000
usemtl Material.001
s off
f 3/1/1 1/2/1 4/3/1
f 5/4/2 2/5/2 6/6/2
f 1/2/3 2/5/3 5/4/3 4/3/3
f 2/5/4 1/2/5 3/1/6 6/6/7
