# Blender 3.6.5
# www.blender.org
mtllib Poly_SF_Outside_B_Net_01.mtl
o Cube_Cube.001
v -0.474000 0.283620 -0.029000
v -0.445000 0.283620 -0.045000
v -0.415000 0.283620 -0.029000
v -0.399000 0.283620 -0.000000
v -0.415000 0.283620 0.029000
v -0.445000 0.283620 0.045000
v -0.474000 0.283620 0.029000
v -0.490000 0.283620 -0.000000
v -0.474000 0.826897 -0.029000
v -0.445000 0.826897 -0.045000
v -0.415000 0.826897 0.029000
v -0.445000 0.826897 0.045000
v -0.474000 0.826897 0.029000
v -0.490000 0.826897 -0.000000
v -0.415000 0.826897 -0.029000
v -0.399000 0.826897 -0.000000
v -0.474000 0.826897 -0.029000
v -0.445000 0.826897 -0.045000
v -0.415000 0.826897 -0.029000
v -0.399000 0.826897 0.000000
v -0.415000 0.826897 0.029000
v -0.445000 0.826897 0.045000
v -0.474000 0.826897 0.029000
v -0.490000 0.826897 0.000000
v -0.474000 1.370174 -0.029000
v -0.445000 1.370174 -0.045000
v -0.415000 1.370174 0.029000
v -0.445000 1.370174 0.045000
v -0.474000 1.370174 0.029000
v -0.490000 1.370174 0.000000
v -0.415000 1.370174 -0.029000
v -0.399000 1.370174 0.000000
v -0.474000 1.370174 -0.029000
v -0.445000 1.370174 -0.045000
v -0.415000 1.370174 -0.029000
v -0.399000 1.370174 0.000000
v -0.415000 1.370174 0.029000
v -0.445000 1.370174 0.045000
v -0.474000 1.370174 0.029000
v -0.490000 1.370174 0.000000
v -0.474000 1.913451 -0.029000
v -0.445000 1.913451 -0.045000
v -0.415000 1.913451 0.029000
v -0.445000 1.913451 0.045000
v -0.474000 1.913451 0.029000
v -0.490000 1.913451 0.000000
v -0.415000 1.913451 -0.029000
v -0.399000 1.913451 0.000000
v -0.474000 1.913451 -0.029000
v -0.445000 1.913451 -0.045000
v -0.415000 1.913451 -0.029000
v -0.399000 1.913451 0.000000
v -0.415000 1.913451 0.029000
v -0.445000 1.913451 0.045000
v -0.474000 1.913451 0.029000
v -0.490000 1.913451 0.000000
v -0.474000 2.456728 -0.029000
v -0.445000 2.456728 -0.045000
v -0.415000 2.456728 0.029000
v -0.445000 2.456728 0.045000
v -0.474000 2.456728 0.029000
v -0.490000 2.456728 0.000000
v -0.415000 2.456728 -0.029000
v -0.399000 2.456728 0.000000
v -0.474000 2.456728 -0.029000
v -0.445000 2.456728 -0.045000
v -0.415000 2.456728 -0.029000
v -0.399000 2.456728 0.000000
v -0.415000 2.456728 0.029000
v -0.445000 2.456728 0.045000
v -0.474000 2.456728 0.029000
v -0.490000 2.456728 0.000000
v -0.474000 3.000005 -0.029000
v -0.445000 3.000005 -0.045000
v -0.415000 3.000005 0.029000
v -0.445000 3.000005 0.045000
v -0.474000 3.000005 0.029000
v -0.490000 3.000005 0.000000
v -0.415000 3.000005 -0.029000
v -0.399000 3.000005 0.000000
v 0.474000 0.283620 -0.029000
v 0.445000 0.283620 -0.045000
v 0.415000 0.283620 -0.029000
v 0.399000 0.283620 -0.000000
v 0.415000 0.283620 0.029000
v 0.445000 0.283620 0.045000
v 0.474000 0.283620 0.029000
v 0.490000 0.283620 -0.000000
v 0.474000 0.826897 -0.029000
v 0.445000 0.826897 -0.045000
v 0.415000 0.826897 0.029000
v 0.445000 0.826897 0.045000
v 0.474000 0.826897 0.029000
v 0.490000 0.826897 -0.000000
v 0.415000 0.826897 -0.029000
v 0.399000 0.826897 -0.000000
v 0.474000 0.826897 -0.029000
v 0.445000 0.826897 -0.045000
v 0.415000 0.826897 -0.029000
v 0.399000 0.826897 0.000000
v 0.415000 0.826897 0.029000
v 0.445000 0.826897 0.045000
v 0.474000 0.826897 0.029000
v 0.490000 0.826897 0.000000
v 0.474000 1.370174 -0.029000
v 0.445000 1.370174 -0.045000
v 0.415000 1.370174 0.029000
v 0.445000 1.370174 0.045000
v 0.474000 1.370174 0.029000
v 0.490000 1.370174 0.000000
v 0.415000 1.370174 -0.029000
v 0.399000 1.370174 0.000000
v 0.474000 1.370174 -0.029000
v 0.445000 1.370174 -0.045000
v 0.415000 1.370174 -0.029000
v 0.399000 1.370174 0.000000
v 0.415000 1.370174 0.029000
v 0.445000 1.370174 0.045000
v 0.474000 1.370174 0.029000
v 0.490000 1.370174 0.000000
v 0.474000 1.913451 -0.029000
v 0.445000 1.913451 -0.045000
v 0.415000 1.913451 0.029000
v 0.445000 1.913451 0.045000
v 0.474000 1.913451 0.029000
v 0.490000 1.913451 0.000000
v 0.415000 1.913451 -0.029000
v 0.399000 1.913451 0.000000
v 0.474000 1.913451 -0.029000
v 0.445000 1.913451 -0.045000
v 0.415000 1.913451 -0.029000
v 0.399000 1.913451 0.000000
v 0.415000 1.913451 0.029000
v 0.445000 1.913451 0.045000
v 0.474000 1.913451 0.029000
v 0.490000 1.913451 0.000000
v 0.474000 2.456728 -0.029000
v 0.445000 2.456728 -0.045000
v 0.415000 2.456728 0.029000
v 0.445000 2.456728 0.045000
v 0.474000 2.456728 0.029000
v 0.490000 2.456728 0.000000
v 0.415000 2.456728 -0.029000
v 0.399000 2.456728 0.000000
v 0.474000 2.456728 -0.029000
v 0.445000 2.456728 -0.045000
v 0.415000 2.456728 -0.029000
v 0.399000 2.456728 0.000000
v 0.415000 2.456728 0.029000
v 0.445000 2.456728 0.045000
v 0.474000 2.456728 0.029000
v 0.490000 2.456728 0.000000
v 0.474000 3.000005 -0.029000
v 0.445000 3.000005 -0.045000
v 0.415000 3.000005 0.029000
v 0.445000 3.000005 0.045000
v 0.474000 3.000005 0.029000
v 0.490000 3.000005 0.000000
v 0.415000 3.000005 -0.029000
v 0.399000 3.000005 0.000000
vn -0.0000 -1.0000 -0.0000
vn -0.8756 -0.0000 -0.4831
vn 0.4706 -0.0000 -0.8824
vn 0.8756 -0.0000 0.4831
vn -0.4831 -0.0000 0.8756
vn 0.8756 -0.0000 -0.4831
vn -0.8756 -0.0000 0.4831
vn 0.4706 -0.0000 0.8824
vn -0.4831 -0.0000 -0.8756
vn -0.4706 -0.0000 -0.8824
vn 0.4831 -0.0000 0.8756
vn -0.4706 -0.0000 0.8824
vn 0.4831 -0.0000 -0.8756
vt 0.905681 0.246348
vt 0.907423 0.246348
vt 0.903695 0.246348
vt 0.903695 0.190168
vt 0.905727 0.190168
vt 0.907423 0.190168
s 1
usemtl Material.001
f 1/1/1 2/2/1 3/1/1 4/3/1 5/1/1 6/2/1 7/1/1 8/3/1
f 8/4/2 14/3/2 9/1/2 1/5/2
f 2/6/3 10/2/3 15/1/3 3/5/3
f 4/4/4 16/3/4 11/1/4 5/5/4
f 6/6/5 12/2/5 13/1/5 7/5/5
f 3/5/6 15/1/6 16/3/6 4/4/6
f 7/5/7 13/1/7 14/3/7 8/4/7
f 5/5/8 11/1/8 12/2/8 6/6/8
f 1/5/9 9/1/9 10/2/9 2/6/9
f 17/1/1 18/2/1 19/1/1 20/3/1 21/1/1 22/2/1 23/1/1 24/3/1
f 24/4/2 30/3/2 25/1/2 17/5/2
f 18/6/3 26/2/3 31/1/3 19/5/3
f 20/4/4 32/3/4 27/1/4 21/5/4
f 22/6/5 28/2/5 29/1/5 23/5/5
f 19/5/6 31/1/6 32/3/6 20/4/6
f 23/5/7 29/1/7 30/3/7 24/4/7
f 21/5/8 27/1/8 28/2/8 22/6/8
f 17/5/9 25/1/9 26/2/9 18/6/9
f 33/1/1 34/2/1 35/1/1 36/3/1 37/1/1 38/2/1 39/1/1 40/3/1
f 40/4/2 46/3/2 41/1/2 33/5/2
f 34/6/3 42/2/3 47/1/3 35/5/3
f 36/4/4 48/3/4 43/1/4 37/5/4
f 38/6/5 44/2/5 45/1/5 39/5/5
f 35/5/6 47/1/6 48/3/6 36/4/6
f 39/5/7 45/1/7 46/3/7 40/4/7
f 37/5/8 43/1/8 44/2/8 38/6/8
f 33/5/9 41/1/9 42/2/9 34/6/9
f 49/1/1 50/2/1 51/1/1 52/3/1 53/1/1 54/2/1 55/1/1 56/3/1
f 56/4/2 62/3/2 57/1/2 49/5/2
f 50/6/3 58/2/3 63/1/3 51/5/3
f 52/4/4 64/3/4 59/1/4 53/5/4
f 54/6/5 60/2/5 61/1/5 55/5/5
f 51/5/6 63/1/6 64/3/6 52/4/6
f 55/5/7 61/1/7 62/3/7 56/4/7
f 53/5/8 59/1/8 60/2/8 54/6/8
f 49/5/9 57/1/9 58/2/9 50/6/9
f 65/1/1 66/2/1 67/1/1 68/3/1 69/1/1 70/2/1 71/1/1 72/3/1
f 72/4/2 78/3/2 73/1/2 65/5/2
f 66/6/3 74/2/3 79/1/3 67/5/3
f 68/4/4 80/3/4 75/1/4 69/5/4
f 70/6/5 76/2/5 77/1/5 71/5/5
f 67/5/6 79/1/6 80/3/6 68/4/6
f 71/5/7 77/1/7 78/3/7 72/4/7
f 69/5/8 75/1/8 76/2/8 70/6/8
f 65/5/9 73/1/9 74/2/9 66/6/9
f 81/1/1 88/3/1 87/1/1 86/2/1 85/1/1 84/3/1 83/1/1 82/2/1
f 88/4/6 81/5/6 89/1/6 94/3/6
f 82/6/10 83/5/10 95/1/10 90/2/10
f 84/4/7 85/5/7 91/1/7 96/3/7
f 86/6/11 87/5/11 93/1/11 92/2/11
f 83/5/2 84/4/2 96/3/2 95/1/2
f 87/5/4 88/4/4 94/3/4 93/1/4
f 85/5/12 86/6/12 92/2/12 91/1/12
f 81/5/13 82/6/13 90/2/13 89/1/13
f 97/1/1 104/3/1 103/1/1 102/2/1 101/1/1 100/3/1 99/1/1 98/2/1
f 104/4/6 97/5/6 105/1/6 110/3/6
f 98/6/10 99/5/10 111/1/10 106/2/10
f 100/4/7 101/5/7 107/1/7 112/3/7
f 102/6/11 103/5/11 109/1/11 108/2/11
f 99/5/2 100/4/2 112/3/2 111/1/2
f 103/5/4 104/4/4 110/3/4 109/1/4
f 101/5/12 102/6/12 108/2/12 107/1/12
f 97/5/13 98/6/13 106/2/13 105/1/13
f 113/1/1 120/3/1 119/1/1 118/2/1 117/1/1 116/3/1 115/1/1 114/2/1
f 120/4/6 113/5/6 121/1/6 126/3/6
f 114/6/10 115/5/10 127/1/10 122/2/10
f 116/4/7 117/5/7 123/1/7 128/3/7
f 118/6/11 119/5/11 125/1/11 124/2/11
f 115/5/2 116/4/2 128/3/2 127/1/2
f 119/5/4 120/4/4 126/3/4 125/1/4
f 117/5/12 118/6/12 124/2/12 123/1/12
f 113/5/13 114/6/13 122/2/13 121/1/13
f 129/1/1 136/3/1 135/1/1 134/2/1 133/1/1 132/3/1 131/1/1 130/2/1
f 136/4/6 129/5/6 137/1/6 142/3/6
f 130/6/10 131/5/10 143/1/10 138/2/10
f 132/4/7 133/5/7 139/1/7 144/3/7
f 134/6/11 135/5/11 141/1/11 140/2/11
f 131/5/2 132/4/2 144/3/2 143/1/2
f 135/5/4 136/4/4 142/3/4 141/1/4
f 133/5/12 134/6/12 140/2/12 139/1/12
f 129/5/13 130/6/13 138/2/13 137/1/13
f 145/1/1 152/3/1 151/1/1 150/2/1 149/1/1 148/3/1 147/1/1 146/2/1
f 152/4/6 145/5/6 153/1/6 158/3/6
f 146/6/10 147/5/10 159/1/10 154/2/10
f 148/4/7 149/5/7 155/1/7 160/3/7
f 150/6/11 151/5/11 157/1/11 156/2/11
f 147/5/2 148/4/2 160/3/2 159/1/2
f 151/5/4 152/4/4 158/3/4 157/1/4
f 149/5/12 150/6/12 156/2/12 155/1/12
f 145/5/13 146/6/13 154/2/13 153/1/13
o Cube_Cube.002
v -0.483000 0.260657 -0.039000
v -0.445000 0.260657 -0.055000
v -0.406000 0.260657 -0.039000
v -0.389000 0.260657 0.000000
v -0.406000 0.260657 0.039000
v -0.445000 0.260657 0.055000
v -0.483000 0.260657 0.039000
v -0.500000 0.260657 0.000000
v -0.483000 0.332657 -0.039000
v -0.445000 0.332657 -0.055000
v -0.406000 0.332657 0.039000
v -0.445000 0.332657 0.055000
v -0.483000 0.332657 0.039000
v -0.500000 0.332657 -0.000000
v -0.406000 0.332657 -0.039000
v -0.389000 0.332657 -0.000000
v 0.483000 0.260657 -0.039000
v 0.445000 0.260657 -0.055000
v 0.406000 0.260657 -0.039000
v 0.389000 0.260657 0.000000
v 0.406000 0.260657 0.039000
v 0.445000 0.260657 0.055000
v 0.483000 0.260657 0.039000
v 0.500000 0.260657 0.000000
v 0.483000 0.332657 -0.039000
v 0.445000 0.332657 -0.055000
v 0.406000 0.332657 0.039000
v 0.445000 0.332657 0.055000
v 0.483000 0.332657 0.039000
v 0.500000 0.332657 -0.000000
v 0.406000 0.332657 -0.039000
v 0.389000 0.332657 -0.000000
vn -0.0000 -1.0000 -0.0000
vn -0.9167 -0.0000 -0.3996
vn -0.9400 -0.3411 -0.0000
vn -0.6770 -0.2678 -0.6855
vn 0.3796 -0.0000 -0.9252
vn -0.0043 -0.3338 -0.9426
vn 0.6735 -0.2697 -0.6883
vn 0.9167 -0.0000 0.3996
vn 0.9400 -0.3411 -0.0000
vn 0.6961 -0.0960 0.7115
vn -0.3881 -0.0000 0.9216
vn -0.0036 0.6301 0.7765
vn -0.6723 0.2908 0.6808
vn 0.9167 -0.0000 -0.3996
vn -0.9167 -0.0000 0.3996
vn 0.3796 -0.0000 0.9252
vn -0.3881 -0.0000 -0.9216
vn 0.6770 -0.2678 -0.6855
vn -0.3796 -0.0000 -0.9252
vn -0.6735 -0.2697 -0.6883
vn 0.0043 -0.3338 -0.9426
vn -0.6961 -0.0960 0.7115
vn 0.3881 -0.0000 0.9216
vn 0.6723 0.2908 0.6808
vn 0.0036 0.6301 0.7765
vn -0.3796 -0.0000 0.9252
vn 0.3881 -0.0000 -0.9216
vt 0.943604 0.109890
vt 0.945340 0.110647
vt 0.947075 0.109890
vt 0.947832 0.108155
vt 0.947075 0.106420
vt 0.945340 0.105663
vt 0.943604 0.106420
vt 0.942848 0.108155
vt 0.941704 0.105528
vt 0.941704 0.110578
vt 0.945553 0.110578
vt 0.945641 0.105528
vt 0.948928 0.105528
vt 0.948928 0.110578
vt 0.945340 0.110647
vt 0.942848 0.108155
vt 0.943604 0.106420
vt 0.945340 0.105663
vt 0.947075 0.106420
vt 0.947832 0.108155
s 1
usemtl Material.001
f 161/7/14 162/8/14 163/9/14 164/10/14 165/11/14 166/12/14 167/13/14 168/14/14
f 168/15/15 174/16/16 169/17/17 161/18/15
f 162/19/18 170/20/19 175/17/20 163/18/18
f 164/15/21 176/16/22 171/17/23 165/18/21
f 166/19/24 172/20/25 173/17/26 167/18/24
f 163/18/27 175/17/20 176/16/22 164/15/27
f 167/18/28 173/17/26 174/16/16 168/15/28
f 165/18/29 171/17/23 172/20/25 166/19/29
f 161/18/30 169/17/17 170/20/19 162/19/30
f 170/21/19 169/7/17 174/22/16 173/23/26 172/24/25 171/25/23 176/26/22 175/9/20
f 177/7/14 184/14/14 183/13/14 182/12/14 181/11/14 180/10/14 179/9/14 178/8/14
f 184/15/27 177/18/27 185/17/31 190/16/22
f 178/19/32 179/18/32 191/17/33 186/20/34
f 180/15/28 181/18/28 187/17/35 192/16/16
f 182/19/36 183/18/36 189/17/37 188/20/38
f 179/18/15 180/15/15 192/16/16 191/17/33
f 183/18/21 184/15/21 190/16/22 189/17/37
f 181/18/39 182/19/39 188/20/38 187/17/35
f 177/18/40 178/19/40 186/20/34 185/17/31
f 186/21/34 191/9/33 192/26/16 187/25/35 188/24/38 189/23/37 190/22/22 185/7/31
o Cube_Cube.003
v -0.453916 0.510039 0.020000
v 0.453916 0.510039 0.020000
v -0.453916 2.767245 0.020000
v 0.453916 2.767245 0.020000
v -0.453916 0.510039 -0.000000
v 0.453916 0.510039 -0.000000
v -0.453916 2.767245 0.000000
v 0.453916 2.767245 0.000000
vn -0.0000 -0.0000 1.0000
vn -0.0000 -0.0000 -1.0000
vn -1.0000 -0.0000 -0.0000
vn -0.0000 -1.0000 -0.0000
vn 1.0000 -0.0000 -0.0000
vn -0.0000 1.0000 -0.0000
vt 0.948243 0.110865
vt 0.990960 0.110865
vt 0.990960 0.238751
vt 0.948243 0.238751
s 0
usemtl Material.001
f 193/27/41 194/28/41 196/29/41 195/30/41
f 197/27/42 199/30/42 200/29/42 198/28/42
f 193/27/43 195/30/43 199/30/43 197/27/43
f 194/28/44 193/27/44 197/27/44 198/28/44
f 196/29/45 194/28/45 198/28/45 200/29/45
f 195/30/46 196/29/46 200/29/46 199/30/46
