# Blender 3.6.5
# www.blender.org
mtllib Poly_SF_Outside_B_Stairs_Down_02_Left.mtl
o Cube
v -0.440000 -0.680000 0.440000
v -0.440000 0.050000 0.440000
v -0.440000 -0.680000 -0.440000
v -0.440000 0.050000 -0.440000
v 0.440000 -0.680000 0.440000
v 0.440000 0.050000 0.440000
v 0.440000 -0.680000 -0.440000
v 0.440000 0.050000 -0.440000
v -0.440000 -0.100000 0.440000
v -0.440000 -0.100000 -0.440000
v 0.440000 -0.100000 -0.440000
v 0.440000 -0.100000 0.440000
v -0.500000 0.050000 0.500000
v -0.500000 0.050000 -0.500000
v 0.500000 0.050000 0.500000
v 0.500000 0.050000 -0.500000
v -0.500000 0.000000 0.500000
v -0.500000 0.000000 -0.500000
v 0.500000 0.000000 0.500000
v 0.500000 0.000000 -0.500000
vn 1.0000 -0.0000 -0.0000
vn -0.0000 -0.0000 1.0000
vn -1.0000 -0.0000 -0.0000
vn -0.0000 -0.0000 -1.0000
vn -0.0000 1.0000 -0.0000
vt 0.941567 0.034118
vt 0.995925 0.034118
vt 0.995925 0.054402
vt 0.941567 0.054402
vt 0.995925 0.039738
vt 0.941567 0.039738
vt 0.995925 0.003088
vt 0.941567 0.003088
vt 0.995091 0.368613
vt 0.943392 0.368613
vt 0.938526 0.374917
vt 0.999957 0.374917
vt 0.995769 0.369582
vt 0.953208 0.369582
vt 0.953208 0.364615
vt 0.995769 0.364615
s 0
usemtl Material
f 9/1/1 10/2/1 4/3/1 2/4/1
f 10/5/2 11/6/2 8/4/2 4/3/2
f 11/5/3 12/6/3 6/4/3 8/3/3
f 12/6/4 9/5/4 2/3/4 6/4/4
f 5/6/4 1/5/4 9/7/4 12/8/4
f 7/7/3 5/8/3 12/6/3 11/5/3
f 3/8/2 7/7/2 11/5/2 10/6/2
f 1/8/1 3/7/1 10/2/1 9/1/1
f 8/9/5 6/10/5 15/11/5 16/12/5
f 2/9/5 4/10/5 14/11/5 13/12/5
f 6/9/5 2/10/5 13/11/5 15/12/5
f 4/10/5 8/9/5 16/12/5 14/11/5
f 15/13/2 13/14/2 17/15/2 19/16/2
f 14/14/4 16/13/4 20/16/4 18/15/4
f 16/13/1 15/14/1 19/15/1 20/16/1
f 13/14/3 14/13/3 18/16/3 17/15/3
o Cube.001
v 0.440000 0.000000 0.540000
v 0.240000 0.000000 0.540000
v -0.560000 -0.400000 0.540000
v 0.240000 -0.080000 0.540000
v 0.080000 -0.080000 0.540000
v 0.080000 -0.160000 0.540000
v -0.080000 -0.160000 0.540000
v -0.080000 -0.240000 0.540000
v -0.240000 -0.240000 0.540000
v -0.240000 -0.320000 0.540000
v -0.400000 -0.320000 0.540000
v -0.400000 -0.400000 0.540000
v 0.440000 0.000000 0.020000
v 0.240000 0.000000 0.020000
v 0.240000 -0.080000 0.020000
v 0.080000 -0.080000 0.020000
v 0.080000 -0.160000 0.020000
v -0.080000 -0.160000 0.020000
v -0.080000 -0.240000 0.020000
v -0.240000 -0.240000 0.020000
v -0.240000 -0.320000 0.020000
v -0.400000 -0.320000 0.020000
v -0.400000 -0.400000 0.020000
v -0.560000 -0.400000 0.020000
v 0.440000 0.000000 -0.500000
v 0.240000 0.000000 -0.500000
v -0.560000 -0.400000 -0.500000
v 0.240000 -0.080000 -0.500000
v 0.080000 -0.080000 -0.500000
v 0.080000 -0.160000 -0.500000
v -0.080000 -0.160000 -0.500000
v -0.080000 -0.240000 -0.500000
v -0.240000 -0.240000 -0.500000
v -0.240000 -0.320000 -0.500000
v -0.400000 -0.320000 -0.500000
v -0.400000 -0.400000 -0.500000
vn -0.0000 1.0000 -0.0000
vn -1.0000 -0.0000 -0.0000
vt 0.864767 0.287647
vt 0.874919 0.287647
vt 0.874919 0.261838
vt 0.864766 0.261838
vt 0.822777 0.312359
vt 0.822777 0.284003
vt 0.812569 0.284003
vt 0.812569 0.312359
vt 0.823022 0.308451
vt 0.823022 0.283963
vt 0.828019 0.283971
vt 0.828019 0.308451
vt 0.833279 0.308451
vt 0.833321 0.278753
vt 0.822971 0.278761
vt 0.833372 0.301927
vt 0.833372 0.278740
vt 0.838447 0.278740
vt 0.838447 0.301927
vt 0.843716 0.301927
vt 0.843716 0.273497
vt 0.833372 0.273497
vt 0.843849 0.296663
vt 0.843849 0.274853
vt 0.848897 0.274853
vt 0.848897 0.296663
vt 0.854111 0.296663
vt 0.854111 0.268299
vt 0.843849 0.268299
vt 0.854310 0.291577
vt 0.854310 0.270952
vt 0.859238 0.270952
vt 0.859238 0.291577
vt 0.864523 0.291577
vt 0.864523 0.264425
vt 0.854310 0.264425
vt 0.864767 0.266956
vt 0.869729 0.266956
vt 0.869729 0.287647
s 0
usemtl Material
f 22/17/6 21/18/6 33/19/6 34/20/6
f 32/21/6 43/22/6 44/23/6 23/24/6
f 31/25/7 42/26/7 43/27/7 32/28/7
f 30/29/6 41/30/6 42/31/6 31/25/6
f 29/32/7 40/33/7 41/34/7 30/35/7
f 28/36/6 39/37/6 40/38/6 29/32/6
f 27/39/7 38/40/7 39/41/7 28/42/7
f 26/43/6 37/44/6 38/45/6 27/39/6
f 25/46/7 36/47/7 37/48/7 26/49/7
f 24/50/6 35/51/6 36/52/6 25/46/6
f 22/17/7 34/53/7 35/54/7 24/55/7
f 46/17/6 34/20/6 33/19/6 45/18/6
f 56/21/6 47/24/6 44/23/6 43/22/6
f 55/25/7 56/28/7 43/27/7 42/26/7
f 54/29/6 55/25/6 42/31/6 41/30/6
f 53/32/7 54/35/7 41/34/7 40/33/7
f 52/36/6 53/32/6 40/38/6 39/37/6
f 51/39/7 52/42/7 39/41/7 38/40/7
f 50/43/6 51/39/6 38/45/6 37/44/6
f 49/46/7 50/49/7 37/48/7 36/47/7
f 48/50/6 49/46/6 36/52/6 35/51/6
f 46/17/7 48/55/7 35/54/7 34/53/7
