# Blender 3.6.5
# www.blender.org
mtllib Poly_Black_Rock_01.mtl
o Cube
v 0.000000 -0.001364 0.000000
v 0.000000 0.585245 0.282083
v 0.000000 -0.002869 0.332083
v -0.240000 0.539564 0.000000
v -0.430000 -0.001364 0.000000
v -0.208587 0.485011 0.312838
v -0.238007 -0.000561 0.375993
v -0.112730 0.517160 0.296918
v -0.096384 -0.000561 0.375993
v -0.140000 0.627452 0.000000
v -0.397459 -0.000561 0.187162
v 0.000000 0.626466 0.142083
v -0.253653 0.459779 0.149110
v -0.166946 0.543656 0.193089
v -0.198456 0.237802 0.350717
v 0.000000 0.299044 0.332083
v -0.430000 0.237651 0.000000
v -0.102716 0.262123 0.360008
v -0.290505 0.265427 0.202996
v -0.246562 0.536401 0.075453
v -0.397459 -0.000561 0.092746
v 0.000000 0.708907 0.092083
v -0.139451 0.614184 0.128629
v -0.320654 0.280255 0.085290
v -0.096384 -0.000561 0.328785
v -0.100000 0.701650 0.000000
v -0.063708 0.579257 0.257379
v -0.064723 0.622196 0.154255
v -0.063400 0.277564 0.325565
v -0.077045 0.699485 0.134779
v 0.000000 0.742870 0.000000
v 0.000000 0.741884 0.042083
v -0.050000 0.742870 0.000000
v -0.063922 0.726786 0.073615
v 0.000000 0.122928 0.332083
v -0.430000 0.174752 0.000000
v -0.099550 0.130781 0.368000
v -0.398056 0.141472 0.195079
v -0.226443 0.148319 0.363355
v -0.380797 0.179876 0.089018
v -0.079892 0.138501 0.327175
v 0.240000 0.539564 0.000000
v 0.430000 -0.001364 0.000000
v 0.208587 0.485011 0.312838
v 0.238007 -0.000561 0.375993
v 0.112730 0.517160 0.296918
v 0.096384 -0.000561 0.375993
v 0.140000 0.627452 0.000000
v 0.397459 -0.000561 0.187162
v 0.253653 0.459779 0.149110
v 0.166946 0.543656 0.193089
v 0.198456 0.237802 0.350717
v 0.430000 0.237651 0.000000
v 0.102716 0.262123 0.360008
v 0.290505 0.265427 0.202996
v 0.246562 0.536401 0.075453
v 0.397459 -0.000561 0.092746
v 0.139451 0.614184 0.128629
v 0.320654 0.280255 0.085290
v 0.096384 -0.000561 0.328785
v 0.100000 0.701650 0.000000
v 0.063708 0.579257 0.257379
v 0.064723 0.622196 0.154255
v 0.063400 0.277564 0.325565
v 0.077045 0.699485 0.134779
v 0.050000 0.742870 0.000000
v 0.063922 0.726786 0.073615
v 0.430000 0.174752 0.000000
v 0.099550 0.130781 0.368000
v 0.398056 0.141472 0.195079
v 0.226443 0.148319 0.363355
v 0.380797 0.179876 0.089018
v 0.079892 0.138501 0.327175
v 0.000000 0.585245 -0.282083
v 0.000000 -0.002869 -0.332083
v -0.208587 0.485011 -0.312838
v -0.238007 -0.000561 -0.375993
v -0.112730 0.517160 -0.296918
v -0.096384 -0.000561 -0.375993
v -0.397459 -0.000561 -0.187162
v 0.000000 0.626466 -0.142083
v -0.253653 0.459779 -0.149110
v -0.166946 0.543656 -0.193089
v -0.198456 0.237802 -0.350717
v 0.000000 0.299044 -0.332083
v -0.102716 0.262123 -0.360008
v -0.290505 0.265427 -0.202996
v -0.246562 0.536401 -0.075453
v -0.397459 -0.000561 -0.092746
v 0.000000 0.708907 -0.092083
v -0.139451 0.614184 -0.128629
v -0.320654 0.280255 -0.085290
v -0.096384 -0.000561 -0.328785
v -0.063708 0.579257 -0.257379
v -0.064723 0.622196 -0.154255
v -0.063400 0.277564 -0.325565
v -0.077045 0.699485 -0.134779
v 0.000000 0.741884 -0.042083
v -0.063922 0.726786 -0.073615
v 0.000000 0.122928 -0.332083
v -0.099550 0.130781 -0.368000
v -0.398056 0.141472 -0.195079
v -0.226443 0.148319 -0.363355
v -0.380797 0.179876 -0.089018
v -0.079892 0.138501 -0.327175
v 0.208587 0.485011 -0.312838
v 0.238007 -0.000561 -0.375993
v 0.112730 0.517160 -0.296918
v 0.096384 -0.000561 -0.375993
v 0.397459 -0.000561 -0.187162
v 0.253653 0.459779 -0.149110
v 0.166946 0.543656 -0.193089
v 0.198456 0.237802 -0.350717
v 0.102716 0.262123 -0.360008
v 0.290505 0.265427 -0.202996
v 0.246562 0.536401 -0.075453
v 0.397459 -0.000561 -0.092746
v 0.139451 0.614184 -0.128629
v 0.320654 0.280255 -0.085290
v 0.096384 -0.000561 -0.328785
v 0.063708 0.579257 -0.257379
v 0.064723 0.622196 -0.154255
v 0.063400 0.277564 -0.325565
v 0.077045 0.699485 -0.134779
v 0.063922 0.726786 -0.073615
v 0.099550 0.130781 -0.368000
v 0.398056 0.141472 -0.195079
v 0.226443 0.148319 -0.363355
v 0.380797 0.179876 -0.089018
v 0.079892 0.138501 -0.327175
vn -0.5472 0.8110 0.2069
vn -0.0239 0.1961 0.9803
vn -0.8153 0.3933 0.4248
vn 0.5159 0.2057 0.8316
vn -0.5088 0.7661 0.3928
vn -0.3292 0.4916 0.8062
vn -0.9061 0.1379 0.4000
vn -0.6953 0.5720 0.4353
vn -0.6745 0.4414 0.5918
vn 0.7896 -0.0171 0.6134
vn -0.7463 0.2886 0.5998
vn -0.0652 0.1001 0.9928
vn -0.7888 0.5862 0.1849
vn -0.6309 0.7746 0.0438
vn -0.0036 -1.0000 0.0017
vn -0.8386 0.5343 0.1061
vn -0.9345 0.2639 0.2387
vn -0.0000 -0.0000 -1.0000
vn -0.0799 0.0093 0.9968
vn 0.2969 0.4000 0.8671
vn -0.1068 0.9394 0.3256
vn -0.2727 0.1895 0.9433
vn -0.0936 0.9865 0.1343
vn 0.1034 0.8692 0.4835
vn -0.6897 0.7182 0.0928
vn -0.0456 0.0089 0.9989
vn 1.0000 -0.0000 -0.0000
vn -0.9958 0.0506 -0.0760
vn -0.0124 0.0738 0.9972
vn -0.9116 0.0469 0.4084
vn 0.9759 -0.0405 0.2144
vn -0.7332 0.0387 0.6790
vn 0.5472 0.8110 0.2069
vn 0.0239 0.1961 0.9803
vn 0.8153 0.3933 0.4248
vn -0.5159 0.2057 0.8316
vn 0.5088 0.7661 0.3928
vn 0.3292 0.4916 0.8062
vn 0.9061 0.1379 0.4000
vn 0.6953 0.5720 0.4353
vn 0.6745 0.4414 0.5918
vn -0.7896 -0.0171 0.6134
vn 0.7463 0.2886 0.5998
vn 0.0652 0.1001 0.9928
vn 0.7888 0.5862 0.1849
vn 0.6309 0.7746 0.0438
vn 0.0036 -1.0000 0.0017
vn 0.8386 0.5343 0.1061
vn 0.9345 0.2639 0.2387
vn 0.0799 0.0093 0.9968
vn -0.2969 0.4000 0.8671
vn 0.1068 0.9394 0.3256
vn 0.2727 0.1895 0.9433
vn 0.0936 0.9865 0.1343
vn -0.1034 0.8692 0.4835
vn 0.6897 0.7182 0.0928
vn 0.0456 0.0089 0.9989
vn 0.9958 0.0506 -0.0760
vn 0.0124 0.0738 0.9972
vn 0.9116 0.0469 0.4084
vn -0.9759 -0.0405 0.2144
vn 0.7332 0.0387 0.6790
vn -0.5472 0.8110 -0.2069
vn -0.0239 0.1961 -0.9803
vn -0.8153 0.3933 -0.4248
vn 0.5159 0.2057 -0.8316
vn -0.5088 0.7661 -0.3928
vn -0.3292 0.4916 -0.8062
vn -0.9061 0.1379 -0.4000
vn -0.6953 0.5720 -0.4353
vn -0.6745 0.4414 -0.5918
vn 0.7896 -0.0171 -0.6134
vn -0.7463 0.2886 -0.5998
vn -0.0652 0.1001 -0.9928
vn -0.7888 0.5862 -0.1849
vn -0.6309 0.7746 -0.0438
vn -0.0036 -1.0000 -0.0017
vn -0.8386 0.5343 -0.1061
vn -0.9345 0.2639 -0.2387
vn -0.0799 0.0093 -0.9968
vn 0.2969 0.4000 -0.8671
vn -0.1068 0.9394 -0.3256
vn -0.2727 0.1895 -0.9433
vn -0.0936 0.9865 -0.1343
vn 0.1034 0.8692 -0.4835
vn -0.6897 0.7182 -0.0928
vn -0.0456 0.0089 -0.9989
vn -0.9958 0.0506 0.0760
vn -0.0124 0.0738 -0.9972
vn -0.9116 0.0469 -0.4084
vn 0.9759 -0.0405 -0.2144
vn -0.7332 0.0387 -0.6790
vn 0.5472 0.8110 -0.2069
vn 0.0239 0.1961 -0.9803
vn 0.8153 0.3933 -0.4248
vn -0.5159 0.2057 -0.8316
vn 0.5088 0.7661 -0.3928
vn 0.3292 0.4916 -0.8062
vn 0.9061 0.1379 -0.4000
vn 0.6953 0.5720 -0.4353
vn 0.6745 0.4414 -0.5918
vn -0.7896 -0.0171 -0.6134
vn 0.7463 0.2886 -0.5998
vn 0.0652 0.1001 -0.9928
vn 0.7888 0.5862 -0.1849
vn 0.6309 0.7746 -0.0438
vn 0.0036 -1.0000 -0.0017
vn 0.8386 0.5343 -0.1061
vn 0.9345 0.2639 -0.2387
vn 0.0799 0.0093 -0.9968
vn -0.2969 0.4000 -0.8671
vn 0.1068 0.9394 -0.3256
vn 0.2727 0.1895 -0.9433
vn 0.0936 0.9865 -0.1343
vn -0.1034 0.8692 -0.4835
vn 0.6897 0.7182 -0.0928
vn 0.0456 0.0089 -0.9989
vn 0.9958 0.0506 0.0760
vn 0.0124 0.0738 -0.9972
vn 0.9116 0.0469 -0.4084
vn -0.9759 -0.0405 -0.2144
vn 0.7332 0.0387 -0.6790
vt 0.972734 0.787659
vt 0.965002 0.780425
vt 0.971785 0.775746
vt 0.978843 0.779166
vt 0.981677 0.769321
vt 0.971238 0.767578
vt 0.953774 0.771823
vt 0.960688 0.783841
vt 0.948204 0.789689
vt 0.943488 0.778387
vt 0.987182 0.770696
vt 0.986977 0.782608
vt 0.977688 0.793863
vt 0.973713 0.799266
vt 0.969042 0.794683
vt 0.958961 0.769567
vt 0.967547 0.761386
vt 0.954686 0.764365
vt 0.986162 0.766077
vt 0.980804 0.762627
vt 0.950979 0.768741
vt 0.943704 0.772454
vt 0.957844 0.793389
vt 0.958199 0.767618
vt 0.958199 0.783160
vt 0.954313 0.783160
vt 0.950428 0.783160
vt 0.942657 0.783160
vt 0.942657 0.775389
vt 0.942657 0.771503
vt 0.942657 0.767618
vt 0.961977 0.802389
vt 0.962161 0.752077
vt 0.966564 0.750599
vt 0.973740 0.752077
vt 0.973740 0.759847
vt 0.973740 0.763733
vt 0.973740 0.767618
vt 0.958199 0.752077
vt 0.995023 0.767724
vt 0.995653 0.773252
vt 0.981313 0.800242
vt 0.983470 0.793174
vt 0.992310 0.787016
vt 0.974907 0.809991
vt 0.968353 0.808295
vt 0.974291 0.804160
vt 0.980397 0.805898
vt 0.994392 0.762196
vt 0.985142 0.761458
vt 0.973740 0.771503
vt 0.973740 0.775389
vt 0.973740 0.783160
vt 0.966123 0.783160
vt 0.962161 0.783160
vt 0.950412 0.759164
vt 0.948185 0.765659
vt 0.979932 0.755932
vt 0.963855 0.755194
vt 0.943929 0.767216
s 0
usemtl Material
f 14/1/1 13/2/1 6/3/1 8/4/1
f 18/5/2 8/4/2 6/3/2 15/6/2
f 24/7/3 20/8/3 4/9/3 17/10/3
f 29/11/4 27/12/4 8/4/4 18/5/4
f 28/13/5 14/1/5 8/4/5 27/12/5
f 30/14/6 23/15/6 14/1/6 28/13/6
f 15/6/7 6/3/7 13/2/7 19/16/7
f 23/15/8 20/8/8 13/2/8 14/1/8
f 39/17/9 15/6/9 19/16/9 38/18/9
f 41/19/10 29/11/10 18/5/10 37/20/10
f 40/21/11 24/7/11 17/10/11 36/22/11
f 37/20/12 18/5/12 15/6/12 39/17/12
f 38/18/13 19/16/13 24/7/13 40/21/13
f 10/23/14 4/9/14 20/8/14 23/15/14
f 1/24/15 3/25/15 25/26/15 9/27/15 7/28/15 11/29/15 21/30/15 5/31/15
f 26/32/16 10/23/16 23/15/16 30/14/16
f 19/16/17 13/2/17 20/8/17 24/7/17
f 36/33/18 17/34/18 4/35/18 10/36/18 26/37/18 33/37/18 31/38/18 1/24/18 5/39/18
f 35/40/19 16/41/19 29/11/19 41/19/19
f 22/42/20 30/14/20 28/13/20 12/43/20
f 12/43/21 28/13/21 27/12/21 2/44/21
f 16/41/22 2/44/22 27/12/22 29/11/22
f 31/45/23 33/46/23 34/47/23 32/48/23
f 30/14/24 22/42/24 32/48/24 34/47/24
f 26/32/25 30/14/25 34/47/25 33/46/25
f 3/49/26 35/40/26 41/19/26 25/50/26
f 22/51/27 12/52/27 2/53/27 16/54/27 35/55/27 3/25/27 1/24/27 31/38/27 32/51/27
f 11/56/28 38/18/28 40/21/28 21/57/28
f 9/58/29 37/20/29 39/17/29 7/59/29
f 21/57/30 40/21/30 36/22/30 5/60/30
f 25/50/31 41/19/31 37/20/31 9/58/31
f 7/59/32 39/17/32 38/18/32 11/56/32
f 51/1/33 46/4/33 44/3/33 50/2/33
f 54/5/34 52/6/34 44/3/34 46/4/34
f 59/7/35 53/10/35 42/9/35 56/8/35
f 64/11/36 54/5/36 46/4/36 62/12/36
f 63/13/37 62/12/37 46/4/37 51/1/37
f 65/14/38 63/13/38 51/1/38 58/15/38
f 52/6/39 55/16/39 50/2/39 44/3/39
f 58/15/40 51/1/40 50/2/40 56/8/40
f 71/17/41 70/18/41 55/16/41 52/6/41
f 73/19/42 69/20/42 54/5/42 64/11/42
f 72/21/43 68/22/43 53/10/43 59/7/43
f 69/20/44 71/17/44 52/6/44 54/5/44
f 70/18/45 72/21/45 59/7/45 55/16/45
f 48/23/46 58/15/46 56/8/46 42/9/46
f 1/24/47 43/31/47 57/30/47 49/29/47 45/28/47 47/27/47 60/26/47 3/25/47
f 61/32/48 65/14/48 58/15/48 48/23/48
f 55/16/49 59/7/49 56/8/49 50/2/49
f 68/33/18 43/39/18 1/24/18 31/38/18 66/37/18 61/37/18 48/36/18 42/35/18 53/34/18
f 35/40/50 73/19/50 64/11/50 16/41/50
f 22/42/51 12/43/51 63/13/51 65/14/51
f 12/43/52 2/44/52 62/12/52 63/13/52
f 16/41/53 64/11/53 62/12/53 2/44/53
f 31/45/54 32/48/54 67/47/54 66/46/54
f 65/14/55 67/47/55 32/48/55 22/42/55
f 61/32/56 66/46/56 67/47/56 65/14/56
f 3/49/57 60/50/57 73/19/57 35/40/57
f 49/56/58 57/57/58 72/21/58 70/18/58
f 47/58/59 45/59/59 71/17/59 69/20/59
f 57/57/60 43/60/60 68/22/60 72/21/60
f 60/50/61 47/58/61 69/20/61 73/19/61
f 45/59/62 49/56/62 70/18/62 71/17/62
f 83/1/63 78/4/63 76/3/63 82/2/63
f 86/5/64 84/6/64 76/3/64 78/4/64
f 92/7/65 17/10/65 4/9/65 88/8/65
f 96/11/66 86/5/66 78/4/66 94/12/66
f 95/13/67 94/12/67 78/4/67 83/1/67
f 97/14/68 95/13/68 83/1/68 91/15/68
f 84/6/69 87/16/69 82/2/69 76/3/69
f 91/15/70 83/1/70 82/2/70 88/8/70
f 103/17/71 102/18/71 87/16/71 84/6/71
f 105/19/72 101/20/72 86/5/72 96/11/72
f 104/21/73 36/22/73 17/10/73 92/7/73
f 101/20/74 103/17/74 84/6/74 86/5/74
f 102/18/75 104/21/75 92/7/75 87/16/75
f 10/23/76 91/15/76 88/8/76 4/9/76
f 1/24/77 5/31/77 89/30/77 80/29/77 77/28/77 79/27/77 93/26/77 75/25/77
f 26/32/78 97/14/78 91/15/78 10/23/78
f 87/16/79 92/7/79 88/8/79 82/2/79
f 100/40/80 105/19/80 96/11/80 85/41/80
f 90/42/81 81/43/81 95/13/81 97/14/81
f 81/43/82 74/44/82 94/12/82 95/13/82
f 85/41/83 96/11/83 94/12/83 74/44/83
f 31/45/84 98/48/84 99/47/84 33/46/84
f 97/14/85 99/47/85 98/48/85 90/42/85
f 26/32/86 33/46/86 99/47/86 97/14/86
f 75/49/87 93/50/87 105/19/87 100/40/87
f 90/51/27 98/51/27 31/38/27 1/24/27 75/25/27 100/55/27 85/54/27 74/53/27 81/52/27
f 80/56/88 89/57/88 104/21/88 102/18/88
f 79/58/89 77/59/89 103/17/89 101/20/89
f 89/57/90 5/60/90 36/22/90 104/21/90
f 93/50/91 79/58/91 101/20/91 105/19/91
f 77/59/92 80/56/92 102/18/92 103/17/92
f 112/1/93 111/2/93 106/3/93 108/4/93
f 114/5/94 108/4/94 106/3/94 113/6/94
f 119/7/95 116/8/95 42/9/95 53/10/95
f 123/11/96 121/12/96 108/4/96 114/5/96
f 122/13/97 112/1/97 108/4/97 121/12/97
f 124/14/98 118/15/98 112/1/98 122/13/98
f 113/6/99 106/3/99 111/2/99 115/16/99
f 118/15/100 116/8/100 111/2/100 112/1/100
f 128/17/101 113/6/101 115/16/101 127/18/101
f 130/19/102 123/11/102 114/5/102 126/20/102
f 129/21/103 119/7/103 53/10/103 68/22/103
f 126/20/104 114/5/104 113/6/104 128/17/104
f 127/18/105 115/16/105 119/7/105 129/21/105
f 48/23/106 42/9/106 116/8/106 118/15/106
f 1/24/107 75/25/107 120/26/107 109/27/107 107/28/107 110/29/107 117/30/107 43/31/107
f 61/32/108 48/23/108 118/15/108 124/14/108
f 115/16/109 111/2/109 116/8/109 119/7/109
f 100/40/110 85/41/110 123/11/110 130/19/110
f 90/42/111 124/14/111 122/13/111 81/43/111
f 81/43/112 122/13/112 121/12/112 74/44/112
f 85/41/113 74/44/113 121/12/113 123/11/113
f 31/45/114 66/46/114 125/47/114 98/48/114
f 124/14/115 90/42/115 98/48/115 125/47/115
f 61/32/116 124/14/116 125/47/116 66/46/116
f 75/49/117 100/40/117 130/19/117 120/50/117
f 110/56/118 127/18/118 129/21/118 117/57/118
f 109/58/119 126/20/119 128/17/119 107/59/119
f 117/57/120 129/21/120 68/22/120 43/60/120
f 120/50/121 130/19/121 126/20/121 109/58/121
f 107/59/122 128/17/122 127/18/122 110/56/122
