# Blender v3.0.1 OBJ File: 'Poly_Lotus_03.blend'
# www.blender.org
mtllib Poly_Lotus_03.mtl
o Circle.001
v 0.303016 0.069914 0.388962
v 0.329242 0.069914 0.322899
v 0.315588 0.069914 0.253144
v 0.266389 0.069914 0.201844
v 0.197265 0.069914 0.185287
v 0.130164 0.069914 0.208729
v 0.086388 0.069914 0.264728
v 0.170685 0.069914 0.313094
v 0.112590 0.069914 0.398586
v 0.174248 0.069914 0.433947
v 0.245236 0.069914 0.430359
v 0.309785 0.010000 0.393923
v 0.335089 0.010000 0.326448
v 0.326654 0.010000 0.250537
v 0.267613 0.010000 0.191496
v 0.200137 0.010000 0.174627
v 0.124227 0.010000 0.199931
v 0.082055 0.010000 0.258972
v 0.157965 0.010000 0.318013
v 0.107358 0.010000 0.402358
v 0.174834 0.010000 0.444530
v 0.250744 0.010000 0.436096
v 0.316496 -0.000046 0.399500
v 0.346279 -0.000046 0.324476
v 0.330773 -0.000046 0.245259
v 0.274901 -0.000046 0.187001
v 0.196402 -0.000046 0.168198
v 0.120198 -0.000046 0.194820
v 0.069490 -0.000046 0.261400
v 0.142947 -0.000046 0.318371
v 0.096094 -0.000046 0.403796
v 0.170263 -0.000046 0.450587
v 0.250880 -0.000046 0.446513
v -0.232986 0.069914 -0.349588
v -0.377914 0.069914 -0.248527
v -0.445199 0.069914 -0.085155
v -0.413477 0.069914 0.088658
v -0.292819 0.069914 0.217729
v -0.121535 0.069914 0.261079
v 0.045995 0.069914 0.204943
v -0.062533 0.069914 -0.010891
v 0.175113 0.069914 -0.108565
v 0.095707 0.069914 -0.266401
v -0.056427 0.069914 -0.356251
v -0.240225 0.010000 -0.369154
v -0.385176 0.010000 -0.263901
v -0.471721 0.010000 -0.094918
v -0.430197 0.010000 0.108440
v -0.313384 0.010000 0.235899
v -0.121282 0.010000 0.287461
v 0.047093 0.010000 0.222818
v -0.062806 0.010000 -0.010742
v 0.191131 0.010000 -0.109217
v 0.108996 0.010000 -0.289150
v -0.059987 0.010000 -0.375695
v -0.246499 -0.000046 -0.389916
v -0.411086 -0.000046 -0.275148
v -0.487497 -0.000046 -0.089617
v -0.451472 -0.000046 0.107773
v -0.314448 -0.000046 0.254352
v -0.119931 -0.000046 0.303581
v 0.071318 -0.000046 0.230875
v -0.029176 -0.000046 0.002321
v 0.211979 -0.000046 -0.101275
v 0.126777 -0.000046 -0.295446
v -0.045991 -0.000046 -0.397483
vt 0.963161 0.015170
vt 0.963161 0.015170
vt 0.963161 0.011052
vt 0.963161 0.011052
vt 0.963161 0.015170
vt 0.963161 0.015170
vt 0.963161 0.011052
vt 0.963161 0.011052
vt 0.963161 0.015170
vt 0.963161 0.015170
vt 0.963161 0.011052
vt 0.963161 0.011052
vt 0.963161 0.015170
vt 0.963161 0.011052
vt 0.963161 0.015170
vt 0.963161 0.011052
vt 0.963161 0.015170
vt 0.963161 0.011052
vt 0.963161 0.015170
vt 0.963161 0.011052
vt 0.963161 0.015170
vt 0.963161 0.011052
vt 0.957204 0.048477
vt 0.950295 0.040504
vt 0.948794 0.030061
vt 0.953177 0.020464
vt 0.962052 0.014760
vt 0.972603 0.014760
vt 0.970553 0.029039
vt 0.985861 0.030061
vt 0.984360 0.040504
vt 0.977450 0.048477
vt 0.967327 0.051450
vt 0.977200 0.026615
vt 0.977200 0.026615
vt 0.977200 0.026615
vt 0.977200 0.026615
vt 0.976983 0.026888
vt 0.976983 0.026888
vt 0.976983 0.026888
vt 0.976983 0.026888
vt 0.976983 0.026888
vt 0.976983 0.026888
vt 0.976983 0.026888
vt 0.976983 0.026888
vt 0.976983 0.026888
vt 0.976983 0.026888
vt 0.976983 0.026888
vt 0.977200 0.026615
vt 0.977200 0.026615
vt 0.977200 0.026615
vt 0.977200 0.026615
vt 0.977200 0.026615
vt 0.977200 0.026615
vt 0.977200 0.026615
vt 0.977200 0.026615
vt 0.977200 0.026615
vt 0.977200 0.026615
vt 0.977200 0.026615
vt 0.977200 0.026615
vt 0.977200 0.026615
vt 0.977200 0.026615
vt 0.977200 0.026615
vt 0.977200 0.026615
vt 0.977200 0.026615
vt 0.977200 0.026615
vt 0.963161 0.015170
vt 0.963161 0.015170
vt 0.963161 0.011052
vt 0.963161 0.011052
vt 0.963161 0.015170
vt 0.963161 0.015170
vt 0.963161 0.011052
vt 0.963161 0.011052
vt 0.963161 0.015170
vt 0.963161 0.015170
vt 0.963161 0.011052
vt 0.963161 0.011052
vt 0.963161 0.015170
vt 0.963161 0.011052
vt 0.963161 0.015170
vt 0.963161 0.011052
vt 0.963161 0.015170
vt 0.963161 0.011052
vt 0.963161 0.015170
vt 0.963161 0.011052
vt 0.963161 0.015170
vt 0.963161 0.011052
vt 0.957204 0.048477
vt 0.950295 0.040504
vt 0.948794 0.030061
vt 0.953177 0.020464
vt 0.962052 0.014760
vt 0.972603 0.014760
vt 0.970553 0.029039
vt 0.985861 0.030061
vt 0.984360 0.040504
vt 0.977450 0.048477
vt 0.967327 0.051450
vt 0.977200 0.026615
vt 0.977200 0.026615
vt 0.977200 0.026615
vt 0.977200 0.026615
vt 0.976983 0.026888
vt 0.976983 0.026888
vt 0.976983 0.026888
vt 0.976983 0.026888
vt 0.976983 0.026888
vt 0.976983 0.026888
vt 0.976983 0.026888
vt 0.976983 0.026888
vt 0.976983 0.026888
vt 0.976983 0.026888
vt 0.976983 0.026888
vt 0.977200 0.026615
vt 0.977200 0.026615
vt 0.977200 0.026615
vt 0.977200 0.026615
vt 0.977200 0.026615
vt 0.977200 0.026615
vt 0.977200 0.026615
vt 0.977200 0.026615
vt 0.977200 0.026615
vt 0.977200 0.026615
vt 0.977200 0.026615
vt 0.977200 0.026615
vt 0.977200 0.026615
vt 0.977200 0.026615
vt 0.977200 0.026615
vt 0.977200 0.026615
vt 0.977200 0.026615
vt 0.977200 0.026615
vn -0.5109 0.1217 0.8510
vn -0.7932 0.1400 -0.5926
vn 0.7061 0.1473 -0.6926
vn 0.0808 0.1385 0.9871
vn -0.5554 0.0732 0.8284
vn 0.2340 0.1756 -0.9562
vn 0.5768 0.1311 0.8063
vn 0.9259 0.1229 0.3573
vn -0.8391 0.0868 -0.5370
vn -0.3185 0.1599 -0.9344
vn 0.9794 0.1371 -0.1485
vn 0.0000 1.0000 0.0000
vn -0.2686 0.5557 -0.7868
vn 0.0000 -1.0000 -0.0000
vn 0.7687 0.6285 -0.1186
vn -0.4286 0.5923 0.6823
vn -0.6453 0.5966 -0.4771
vn 0.5726 0.5979 -0.5609
vn 0.0622 0.6245 0.7785
vn -0.4444 0.6894 0.5721
vn 0.2062 0.4953 -0.8439
vn 0.4443 0.6457 0.6210
vn 0.6948 0.6672 0.2686
vn -0.5863 0.7368 -0.3366
vn 0.8629 0.2916 -0.4127
vn 0.3192 0.3315 0.8878
vn -0.9206 0.3472 0.1788
vn 0.4548 0.3284 -0.8279
vn 0.8978 -0.0595 -0.4364
vn -0.6708 0.4054 0.6210
vn -0.0351 0.3122 -0.9494
vn -0.5542 0.2941 -0.7787
vn 0.3702 0.0448 0.9279
vn -0.2344 0.3734 0.8975
vn -0.8582 0.3253 -0.3972
vn -0.1301 0.8568 0.4990
vn -0.4049 0.8952 -0.1861
vn 0.4585 0.8647 -0.2051
vn 0.1910 0.8447 0.5000
vn -0.4660 0.8802 0.0902
vn 0.2171 0.8933 -0.3935
vn 0.3787 0.9093 -0.1724
vn -0.4230 0.8171 0.3918
vn -0.0159 0.9030 -0.4293
vn -0.2374 0.9122 -0.3340
vn 0.1695 0.8937 0.4153
usemtl Material
s off
f 10/1/1 9/2/1 20/3/1 21/4/1
f 7/5/2 6/6/2 17/7/2 18/8/2
f 4/9/3 3/10/3 14/11/3 15/12/3
f 11/13/4 10/1/4 21/4/4 22/14/4
f 8/15/5 7/5/5 18/8/5 19/16/5
f 5/17/6 4/9/6 15/12/6 16/18/6
f 1/19/7 11/13/7 22/14/7 12/20/7
f 2/21/8 1/19/8 12/20/8 13/22/8
f 9/2/9 8/15/9 19/16/9 20/3/9
f 6/6/10 5/17/10 16/18/10 17/7/10
f 3/10/11 2/21/11 13/22/11 14/11/11
f 2/23/12 3/24/12 4/25/12 5/26/12 6/27/12 7/28/12 8/29/12 9/30/12 10/31/12 11/32/12 1/33/12
f 17/34/13 16/35/13 27/36/13 28/37/13
f 24/38/14 23/39/14 33/40/14 32/41/14 31/42/14 30/43/14 29/44/14 28/45/14 27/46/14 26/47/14 25/48/14
f 14/49/15 13/50/15 24/51/15 25/52/15
f 21/53/16 20/54/16 31/55/16 32/56/16
f 18/57/17 17/34/17 28/37/17 29/58/17
f 15/59/18 14/49/18 25/52/18 26/60/18
f 22/61/19 21/53/19 32/56/19 33/62/19
f 19/63/20 18/57/20 29/58/20 30/64/20
f 16/35/21 15/59/21 26/60/21 27/36/21
f 12/65/22 22/61/22 33/62/22 23/66/22
f 13/50/23 12/65/23 23/66/23 24/51/23
f 20/54/24 19/63/24 30/64/24 31/55/24
f 43/67/25 42/68/25 53/69/25 54/70/25
f 40/71/26 39/72/26 50/73/26 51/74/26
f 37/75/27 36/76/27 47/77/27 48/78/27
f 44/79/28 43/67/28 54/70/28 55/80/28
f 41/81/29 40/71/29 51/74/29 52/82/29
f 38/83/30 37/75/30 48/78/30 49/84/30
f 34/85/31 44/79/31 55/80/31 45/86/31
f 35/87/32 34/85/32 45/86/32 46/88/32
f 42/68/33 41/81/33 52/82/33 53/69/33
f 39/72/34 38/83/34 49/84/34 50/73/34
f 36/76/35 35/87/35 46/88/35 47/77/35
f 35/89/12 36/90/12 37/91/12 38/92/12 39/93/12 40/94/12 41/95/12 42/96/12 43/97/12 44/98/12 34/99/12
f 50/100/36 49/101/36 60/102/36 61/103/36
f 57/104/14 56/105/14 66/106/14 65/107/14 64/108/14 63/109/14 62/110/14 61/111/14 60/112/14 59/113/14 58/114/14
f 47/115/37 46/116/37 57/117/37 58/118/37
f 54/119/38 53/120/38 64/121/38 65/122/38
f 51/123/39 50/100/39 61/103/39 62/124/39
f 48/125/40 47/115/40 58/118/40 59/126/40
f 55/127/41 54/119/41 65/122/41 66/128/41
f 52/129/42 51/123/42 62/124/42 63/130/42
f 49/101/43 48/125/43 59/126/43 60/102/43
f 45/131/44 55/127/44 66/128/44 56/132/44
f 46/116/45 45/131/45 56/132/45 57/117/45
f 53/120/46 52/129/46 63/130/46 64/121/46
o Circle.002
v -0.451437 0.009352 0.160902
v -0.419609 0.009352 0.247292
v -0.646952 0.009352 0.247292
v -0.655371 -0.000251 0.247368
v -0.445245 -0.000251 0.154521
v -0.451437 0.009352 0.329136
v -0.445245 -0.000251 0.335327
v -0.619671 0.009352 0.160902
v -0.533205 -0.000251 0.247368
v -0.411038 -0.000251 0.247368
v -0.533205 -0.000251 0.125201
v -0.533205 -0.000251 0.369534
v -0.533280 0.009352 0.360964
v -0.533280 0.009352 0.133620
v -0.626051 -0.000251 0.154521
v -0.619671 0.009352 0.329136
v -0.626051 -0.000251 0.335327
v -0.459823 0.069609 0.169544
v -0.431217 0.069609 0.247190
v -0.635548 0.069609 0.247190
v -0.459823 0.069609 0.320749
v -0.611028 0.069609 0.169544
v -0.533382 0.069609 0.247190
v -0.533382 0.069609 0.349355
v -0.533382 0.069609 0.145024
v -0.611028 0.069609 0.320749
v -0.385250 0.009352 -0.438698
v -0.362331 0.009352 -0.376489
v -0.526039 0.009352 -0.376489
v -0.532102 -0.000251 -0.376434
v -0.380792 -0.000251 -0.443292
v -0.385250 0.009352 -0.317554
v -0.380792 -0.000251 -0.313095
v -0.506394 0.009352 -0.438698
v -0.444131 -0.000251 -0.376434
v -0.356160 -0.000251 -0.376434
v -0.444131 -0.000251 -0.464405
v -0.444131 -0.000251 -0.288463
v -0.444185 0.009352 -0.294634
v -0.444185 0.009352 -0.458343
v -0.510989 -0.000251 -0.443292
v -0.506394 0.009352 -0.317553
v -0.510989 -0.000251 -0.313095
v -0.391289 0.069609 -0.432474
v -0.370690 0.069609 -0.376562
v -0.517827 0.069609 -0.376562
v -0.391289 0.069609 -0.323593
v -0.500171 0.069609 -0.432474
v -0.444259 0.069609 -0.376562
v -0.444259 0.069609 -0.302994
v -0.444259 0.069609 -0.450131
v -0.500171 0.069609 -0.323593
vt 0.977213 0.026743
vt 0.977213 0.026743
vt 0.977213 0.026743
vt 0.977213 0.026743
vt 0.963138 0.010725
vt 0.963138 0.010725
vt 0.963138 0.015449
vt 0.963138 0.015449
vt 0.963138 0.010725
vt 0.963138 0.010725
vt 0.963138 0.015449
vt 0.963138 0.015449
vt 0.977129 0.026993
vt 0.977129 0.026993
vt 0.977129 0.026993
vt 0.977129 0.026993
vt 0.963138 0.010725
vt 0.963138 0.015449
vt 0.977213 0.026743
vt 0.977213 0.026743
vt 0.977129 0.026993
vt 0.977129 0.026993
vt 0.977213 0.026743
vt 0.977213 0.026743
vt 0.977213 0.026743
vt 0.977213 0.026743
vt 0.977129 0.026993
vt 0.977129 0.026993
vt 0.977213 0.026743
vt 0.977213 0.026743
vt 0.977213 0.026743
vt 0.977213 0.026743
vt 0.963138 0.010725
vt 0.963138 0.015449
vt 0.977213 0.026743
vt 0.977213 0.026743
vt 0.977129 0.026993
vt 0.967305 0.012325
vt 0.952586 0.017150
vt 0.943382 0.032556
vt 0.967305 0.032427
vt 0.952586 0.017150
vt 0.943069 0.032556
vt 0.967305 0.052529
vt 0.952586 0.046900
vt 0.952586 0.046900
vt 0.963138 0.010725
vt 0.963138 0.010725
vt 0.963138 0.015449
vt 0.963138 0.015449
vt 0.977213 0.026743
vt 0.977213 0.026743
vt 0.977213 0.026743
vt 0.977213 0.026743
vt 0.963138 0.010725
vt 0.963138 0.010725
vt 0.963138 0.015449
vt 0.963138 0.015449
vt 0.963138 0.010725
vt 0.963138 0.010725
vt 0.963138 0.015449
vt 0.963138 0.015449
vt 0.977129 0.026993
vt 0.977129 0.026993
vt 0.977129 0.026993
vt 0.977129 0.026993
vt 0.963138 0.010725
vt 0.963138 0.015449
vt 0.977213 0.026743
vt 0.977213 0.026743
vt 0.977129 0.026993
vt 0.977129 0.026993
vt 0.977213 0.026743
vt 0.977213 0.026743
vt 0.977213 0.026743
vt 0.977213 0.026743
vt 0.977129 0.026993
vt 0.977129 0.026993
vt 0.977213 0.026743
vt 0.977213 0.026743
vt 0.977213 0.026743
vt 0.977213 0.026743
vt 0.963138 0.010725
vt 0.963138 0.015449
vt 0.977213 0.026743
vt 0.977213 0.026743
vt 0.977129 0.026993
vt 0.967305 0.012325
vt 0.952586 0.017150
vt 0.943382 0.032556
vt 0.967305 0.032427
vt 0.952586 0.017150
vt 0.943069 0.032556
vt 0.967305 0.052529
vt 0.952586 0.046900
vt 0.952586 0.046900
vt 0.963138 0.010725
vt 0.963138 0.010725
vt 0.963138 0.015449
vt 0.963138 0.015449
vn -0.7285 0.6406 0.2428
vn -0.9385 0.1771 -0.2964
vn 0.9172 0.1773 0.3567
vn 0.0000 -1.0000 0.0000
vn -0.2964 0.1771 -0.9385
vn -0.2654 0.6408 0.7204
vn 0.2428 0.6406 -0.7285
vn 0.2783 0.6408 0.7155
vn -0.7324 0.6403 -0.2313
vn 0.3112 0.1772 -0.9337
vn -0.2313 0.6403 -0.7324
vn 0.7155 0.6408 0.2783
vn 0.7204 0.6408 -0.2654
vn 0.0000 1.0000 0.0000
vn -0.3402 0.1773 0.9235
vn 0.9235 0.1773 -0.3402
vn 0.3567 0.1773 0.9172
vn -0.9337 0.1772 0.3112
vn -0.8132 0.5149 0.2711
vn -0.9457 0.1285 -0.2986
vn 0.9243 0.1287 0.3594
vn -0.2986 0.1285 -0.9457
vn -0.2963 0.5152 0.8042
vn 0.2711 0.5149 -0.8132
vn 0.3107 0.5151 0.7988
vn -0.8176 0.5147 -0.2582
vn 0.3136 0.1286 -0.9408
vn -0.2582 0.5147 -0.8176
vn 0.7988 0.5151 0.3107
vn 0.8042 0.5152 -0.2963
vn -0.3428 0.1287 0.9305
vn 0.9305 0.1287 -0.3428
vn 0.3594 0.1287 0.9243
vn -0.9408 0.1286 0.3136
usemtl Material
s off
f 83/133/47 82/134/47 69/135/47 70/136/47
f 74/137/48 69/138/48 86/139/48 88/140/48
f 72/141/49 68/142/49 85/143/49 87/144/49
f 81/145/50 77/146/50 75/147/50 70/148/50
f 80/149/51 74/137/51 88/140/51 91/150/51
f 78/151/52 79/152/52 82/134/52 83/133/52
f 77/146/50 71/153/50 76/154/50 75/147/50
f 77/155/53 80/156/53 67/157/53 71/158/53
f 70/148/50 75/147/50 78/159/50 83/160/50
f 73/161/54 72/162/54 79/152/54 78/151/54
f 70/136/55 69/135/55 74/163/55 81/164/55
f 67/165/56 80/149/56 91/150/56 84/166/56
f 81/164/57 74/163/57 80/156/57 77/155/57
f 76/167/58 68/168/58 72/162/58 73/161/58
f 71/158/59 67/157/59 68/168/59 76/167/59
f 75/147/50 76/154/50 73/169/50 78/159/50
f 91/170/60 88/171/60 86/172/60 89/173/60
f 84/174/60 91/170/60 89/173/60 85/175/60
f 85/175/60 89/173/60 90/176/60 87/177/60
f 89/173/60 86/172/60 92/178/60 90/176/60
f 82/179/61 79/180/61 90/181/61 92/182/61
f 68/142/62 67/165/62 84/166/62 85/143/62
f 79/180/63 72/141/63 87/144/63 90/181/63
f 69/138/64 82/179/64 92/182/64 86/139/64
f 109/183/65 108/184/65 95/185/65 96/186/65
f 100/187/66 95/188/66 112/189/66 114/190/66
f 98/191/67 94/192/67 111/193/67 113/194/67
f 107/195/50 103/196/50 101/197/50 96/198/50
f 106/199/68 100/187/68 114/190/68 117/200/68
f 104/201/69 105/202/69 108/184/69 109/183/69
f 103/196/50 97/203/50 102/204/50 101/197/50
f 103/205/70 106/206/70 93/207/70 97/208/70
f 96/198/50 101/197/50 104/209/50 109/210/50
f 99/211/71 98/212/71 105/202/71 104/201/71
f 96/186/72 95/185/72 100/213/72 107/214/72
f 93/215/73 106/199/73 117/200/73 110/216/73
f 107/214/74 100/213/74 106/206/74 103/205/74
f 102/217/75 94/218/75 98/212/75 99/211/75
f 97/208/76 93/207/76 94/218/76 102/217/76
f 101/197/50 102/204/50 99/219/50 104/209/50
f 117/220/60 114/221/60 112/222/60 115/223/60
f 110/224/60 117/220/60 115/223/60 111/225/60
f 111/225/60 115/223/60 116/226/60 113/227/60
f 115/223/60 112/222/60 118/228/60 116/226/60
f 108/229/77 105/230/77 116/231/77 118/232/77
f 94/192/78 93/215/78 110/216/78 111/193/78
f 105/230/79 98/191/79 113/194/79 116/231/79
f 95/188/80 108/229/80 118/232/80 112/189/80
