# Blender 3.6.5
# www.blender.org
mtllib Poly_Window_08_Light_B.mtl
o Cube.003
v -0.100000 0.950000 -0.487000
v -0.400000 0.950000 -0.487000
v 0.400000 0.350000 -0.487000
v 0.400000 0.100000 -0.487000
v -0.400000 0.350000 -0.487000
v -0.400000 0.100000 -0.487000
v -0.100000 0.100000 -0.487000
v -0.100000 0.350000 -0.487000
v 0.400000 0.950000 -0.487000
v 0.100000 0.950000 -0.487000
v 0.100000 0.100000 -0.487000
v 0.100000 0.350000 -0.487000
v 0.400000 0.700000 -0.487000
v -0.400000 0.700000 -0.487000
v -0.100000 0.700000 -0.487000
v 0.100000 0.700000 -0.487000
v -0.100000 0.650000 -0.487000
v -0.400000 0.650000 -0.487000
v 0.400000 0.650000 -0.487000
v 0.100000 0.650000 -0.487000
v 0.400000 0.400000 -0.487000
v -0.400000 0.400000 -0.487000
v -0.100000 0.400000 -0.487000
v 0.100000 0.400000 -0.487000
v 0.400000 1.160000 -0.487000
v 0.400000 1.110000 -0.487000
v -0.400000 1.160000 -0.487000
v -0.400000 1.110000 -0.487000
v -0.250000 1.268000 -0.487000
v 0.250000 1.268000 -0.487000
v -0.050000 1.326000 -0.487000
v -0.050000 1.110000 -0.487000
v 0.050000 1.326000 -0.487000
v 0.050000 1.110000 -0.487000
v -0.110000 1.110000 -0.487000
v -0.300000 1.235000 -0.487000
v 0.110000 1.110000 -0.487000
v 0.300000 1.235000 -0.487000
vn -0.0000 -0.0000 1.0000
vt 0.146364 0.203820
s 0
usemtl Material
f 10/1/1 16/1/1 13/1/1 9/1/1
f 20/1/1 24/1/1 21/1/1 19/1/1
f 4/1/1 3/1/1 12/1/1 11/1/1
f 6/1/1 7/1/1 8/1/1 5/1/1
f 18/1/1 22/1/1 23/1/1 17/1/1
f 2/1/1 14/1/1 15/1/1 1/1/1
f 28/1/1 35/1/1 36/1/1 27/1/1
f 32/1/1 31/1/1 29/1/1
f 33/1/1 34/1/1 30/1/1
f 26/1/1 25/1/1 38/1/1 37/1/1
