# Blender 3.6.5
# www.blender.org
mtllib Poly_SF_Outside_B_Tree_Avenue_01_B.mtl
o Cube.001
v -0.130000 0.761892 0.000000
v 0.130000 0.761892 0.000000
v 0.140000 0.760892 -0.074000
v 0.000000 0.803892 -0.054000
v -0.140000 0.760892 -0.074000
v -0.140000 0.760892 0.074000
v 0.000000 0.803892 0.054000
v 0.140000 0.760892 0.074000
v 0.057000 0.800892 0.057000
v 0.054000 0.803892 0.000000
v 0.074000 0.760892 0.140000
v 0.057000 0.800892 -0.057000
v 0.074000 0.760892 -0.140000
v -0.057000 0.800892 0.057000
v -0.057000 0.800892 -0.057000
v -0.054000 0.803892 0.000000
v -0.074000 0.760892 -0.140000
v -0.074000 0.760892 0.140000
v -0.085000 0.294892 0.180000
v -0.219000 0.063892 -0.437000
v -0.219000 0.063892 0.219000
v -0.085000 0.294892 -0.180000
v -0.219000 0.063892 0.437000
v -0.219000 0.063892 0.000000
v -0.219000 0.063892 -0.219000
v 0.219000 0.063892 0.437000
v 0.085000 0.294892 -0.180000
v 0.219000 0.063892 -0.219000
v 0.219000 0.063892 -0.437000
v 0.085000 0.294892 0.180000
v 0.219000 0.063892 0.000000
v 0.219000 0.063892 0.219000
v 0.180000 0.294892 0.085000
v -0.437000 0.063892 0.219000
v 0.437000 0.063892 0.219000
v 0.000000 0.063892 0.219000
v -0.180000 0.294892 0.085000
v 0.437000 0.063892 -0.219000
v -0.180000 0.294892 -0.085000
v 0.000000 0.063892 -0.219000
v -0.437000 0.063892 -0.219000
v 0.180000 0.294892 -0.085000
v 0.176000 0.295892 0.000000
v 0.344000 0.063892 0.000000
v -0.176000 0.295892 0.000000
v -0.344000 0.063892 0.000000
v 0.000000 0.063892 0.000000
v 0.000000 0.295892 0.176000
v 0.000000 0.063892 0.344000
v 0.000000 0.295892 -0.176000
v 0.000000 0.063892 -0.344000
v -0.228000 0.063892 0.228000
v -0.129000 0.292892 0.129000
v -0.228000 0.063892 -0.228000
v -0.129000 0.292892 -0.129000
v 0.228000 0.063892 0.228000
v 0.129000 0.292892 0.129000
v 0.228000 0.063892 -0.228000
v 0.129000 0.292892 -0.129000
v 0.000000 0.806892 0.000000
v 0.000000 0.761892 0.130000
v 0.000000 0.761892 -0.130000
v -0.115000 0.745892 0.115000
v -0.115000 0.745892 -0.115000
v 0.115000 0.745892 0.115000
v 0.115000 0.745892 -0.115000
v -0.125000 0.179892 -0.255000
v -0.125000 0.179892 0.255000
v 0.125000 0.179892 0.255000
v 0.125000 0.179892 -0.255000
v -0.255000 0.179892 0.125000
v 0.255000 0.179892 0.125000
v -0.214000 0.179892 0.000000
v 0.000000 0.179892 -0.214000
v 0.000000 0.179892 0.214000
v 0.214000 0.179892 0.000000
v 0.255000 0.179892 -0.125000
v -0.255000 0.179892 -0.125000
v -0.147000 0.178892 0.147000
v -0.147000 0.178892 -0.147000
v 0.147000 0.178892 -0.147000
v 0.147000 0.178892 0.147000
vn 0.4598 0.8878 0.0185
vn -0.7379 0.0616 -0.6721
vn -0.0525 0.9972 0.0525
vn -0.0000 -1.0000 -0.0000
vn -0.4598 0.8878 -0.0185
vn 0.4598 0.8878 -0.0185
vn 0.3938 0.8306 0.3938
vn -0.0185 0.8878 0.4598
vn 0.0862 0.0905 -0.9922
vn 0.8635 0.3615 0.3516
vn 0.7379 0.0616 0.6721
vn -0.0862 0.0905 0.9922
vn 0.1898 0.4047 0.8945
vn -0.3938 0.8306 -0.3938
vn 0.3938 0.8306 -0.3938
vn -0.0525 0.9972 -0.0525
vn -0.9922 0.0905 -0.0862
vn 0.0185 0.8878 -0.4598
vn 0.0525 0.9972 -0.0525
vn -0.8635 0.3615 -0.3516
vn 0.0185 0.8878 0.4598
vn 0.9922 0.0905 -0.0862
vn -0.0185 0.8878 -0.4598
vn -0.4598 0.8878 0.0185
vn -0.7379 0.0616 0.6721
vn -0.9922 0.0905 0.0862
vn 0.8945 0.4047 -0.1898
vn 0.9922 0.0905 0.0862
vn -0.1898 0.4047 -0.8945
vn -0.1898 0.4047 0.8945
vn 0.6721 0.0616 -0.7379
vn 0.1898 0.4047 -0.8945
vn -0.8945 0.4047 -0.1898
vn -0.6721 0.0616 -0.7379
vn 0.8945 0.4047 0.1898
vn 0.6721 0.0616 0.7379
vn 0.7379 0.0616 -0.6721
vn -0.3516 0.3615 0.8635
vn -0.8945 0.4047 0.1898
vn -0.6721 0.0616 0.7379
vn -0.0862 0.0905 -0.9922
vn 0.3516 0.3615 -0.8635
vn -0.3516 0.3615 -0.8635
vn 0.8635 0.3615 -0.3516
vn 0.3516 0.3615 0.8635
vn -0.8635 0.3615 0.3516
vn 0.0862 0.0905 0.9922
vn 0.0525 0.9972 0.0525
vn -0.3938 0.8306 0.3938
vn -0.7541 0.6529 0.0717
vn 0.0717 0.6529 0.7541
vn 0.7541 0.6529 -0.0717
vn -0.0717 0.6529 -0.7541
vn 0.0717 0.6529 -0.7541
vn -0.6249 0.7418 0.2434
vn -0.0717 0.6529 0.7541
vn 0.6249 0.7418 0.2434
vn -0.6249 0.7418 -0.2434
vn 0.2434 0.7418 -0.6249
vn -0.2434 0.7418 0.6249
vn -0.2434 0.7418 -0.6249
vn 0.6249 0.7418 -0.2434
vn -0.7541 0.6529 -0.0717
vn 0.2434 0.7418 0.6249
vn 0.7541 0.6529 0.0717
vt 0.846004 0.828085
vt 0.844530 0.829245
vt 0.845558 0.831598
vt 0.846882 0.830022
vt 0.844763 0.832045
vt 0.847154 0.832045
vt 0.847154 0.821447
vt 0.844763 0.821447
vt 0.843787 0.833480
vt 0.845558 0.831598
vt 0.844530 0.829246
vt 0.842058 0.831976
vt 0.851543 0.817404
vt 0.845650 0.822382
vt 0.843551 0.815293
vt 0.846184 0.819935
vt 0.846882 0.830022
vt 0.846005 0.828086
vt 0.846005 0.828086
vt 0.843538 0.826906
vt 0.844965 0.826928
vt 0.841440 0.829460
vt 0.839499 0.832045
vt 0.842477 0.832045
vt 0.842477 0.821447
vt 0.839499 0.821447
vt 0.845277 0.826357
vt 0.844705 0.831175
vt 0.842982 0.832113
vt 0.843163 0.823825
vt 0.841715 0.818602
vt 0.843551 0.815293
vt 0.841676 0.824405
vt 0.850658 0.824217
vt 0.848549 0.827888
vt 0.841140 0.826354
vt 0.840951 0.830608
vt 0.843538 0.826906
vt 0.844964 0.826928
vt 0.846004 0.828085
vt 0.844964 0.826928
vt 0.842057 0.831976
vt 0.849052 0.832045
vt 0.849052 0.821447
vt 0.841440 0.829460
vt 0.845277 0.826356
vt 0.844704 0.831175
vt 0.842982 0.832113
vt 0.843163 0.823825
vt 0.843551 0.815293
vt 0.848810 0.830068
vt 0.847349 0.832420
vt 0.845587 0.833309
vt 0.848859 0.825414
vt 0.848549 0.827888
vt 0.841676 0.824405
vt 0.843551 0.815293
vt 0.841715 0.818602
vt 0.841140 0.826354
vt 0.840951 0.830607
vt 0.843163 0.823825
vt 0.848810 0.830068
vt 0.848859 0.825414
vt 0.845587 0.833309
vt 0.850658 0.824216
vt 0.845277 0.826357
vt 0.848859 0.825414
vt 0.845277 0.826357
vt 0.844964 0.826928
s 0
usemtl regular
f 3/1/1 12/2/1 10/3/1 2/4/1
f 55/5/2 39/6/2 5/7/2 64/8/2
f 60/9/3 16/10/3 14/11/3 7/12/3
f 34/13/4 21/14/4 23/15/4 52/16/4
f 16/10/5 1/17/5 6/18/5 14/11/5
f 2/4/6 10/3/6 9/11/6 8/19/6
f 8/19/7 9/11/7 11/20/7 65/21/7
f 9/11/8 7/12/8 61/22/8 11/20/8
f 50/23/9 22/24/9 17/25/9 62/26/9
f 82/27/10 57/28/10 30/29/10 69/30/10
f 57/5/11 33/6/11 8/7/11 65/8/11
f 51/31/4 29/32/4 28/14/4 40/33/4
f 46/34/4 24/35/4 21/14/4 34/13/4
f 48/23/12 30/24/12 11/25/12 61/26/12
f 41/13/4 25/14/4 24/35/4 46/34/4
f 75/36/13 48/37/13 19/29/13 68/30/13
f 17/38/14 64/39/14 5/40/14 15/2/14
f 66/41/15 13/38/15 12/2/15 3/1/15
f 4/42/16 15/2/16 16/10/16 60/9/16
f 45/43/17 37/6/17 6/7/17 1/44/17
f 62/45/18 17/38/18 15/2/18 4/42/18
f 12/2/19 4/42/19 60/9/19 10/3/19
f 80/46/20 55/47/20 22/48/20 67/49/20
f 7/12/21 14/11/21 18/20/21 61/22/21
f 33/6/22 43/43/22 2/44/22 8/7/22
f 13/38/23 62/45/23 4/42/23 12/2/23
f 15/2/24 5/40/24 1/17/24 16/10/24
f 54/16/4 20/50/4 25/14/4 41/13/4
f 37/6/25 53/5/25 63/8/25 6/7/25
f 39/6/26 45/43/26 1/44/26 5/7/26
f 76/51/27 43/52/27 33/53/27 72/54/27
f 29/32/4 58/16/4 38/13/4 28/14/4
f 40/33/4 28/14/4 31/55/4 47/9/4
f 36/56/4 32/14/4 26/57/4 49/58/4
f 43/43/28 42/6/28 3/7/28 2/44/28
f 74/59/29 50/60/29 27/48/29 70/61/29
f 69/30/30 30/29/30 48/37/30 75/36/30
f 59/5/31 27/24/31 13/25/31 66/8/31
f 67/49/32 22/48/32 50/60/32 74/59/32
f 21/14/4 36/56/4 49/58/4 23/15/4
f 71/54/33 37/53/33 45/52/33 73/62/33
f 22/24/34 55/5/34 64/8/34 17/25/34
f 77/63/35 42/64/35 43/52/35 76/51/35
f 28/14/4 38/13/4 44/65/4 31/55/4
f 30/24/36 57/5/36 65/8/36 11/25/36
f 42/6/37 59/5/37 66/8/37 3/7/37
f 79/66/38 53/28/38 37/53/38 71/54/38
f 73/62/39 45/52/39 39/64/39 78/67/39
f 53/5/40 19/24/40 18/25/40 63/8/40
f 27/24/41 50/23/41 62/26/41 13/25/41
f 81/68/42 59/47/42 42/64/42 77/63/42
f 31/55/4 44/65/4 35/13/4 32/14/4
f 20/50/4 51/31/4 40/33/4 25/14/4
f 24/35/4 47/9/4 36/56/4 21/14/4
f 47/9/4 31/55/4 32/14/4 36/56/4
f 25/14/4 40/33/4 47/9/4 24/35/4
f 78/67/43 39/64/43 55/47/43 80/46/43
f 70/61/44 27/48/44 59/47/44 81/68/44
f 72/54/45 33/53/45 57/28/45 82/27/45
f 68/30/46 19/29/46 53/28/46 79/66/46
f 32/14/4 35/13/4 56/16/4 26/57/4
f 19/24/47 48/23/47 61/26/47 18/25/47
f 10/3/48 60/9/48 7/12/48 9/11/48
f 14/11/49 6/18/49 63/69/49 18/20/49
f 23/15/50 68/30/50 79/66/50 52/16/50
f 35/13/51 72/54/51 82/27/51 56/16/51
f 29/32/52 70/61/52 81/68/52 58/16/52
f 41/13/53 78/67/53 80/46/53 54/16/53
f 58/16/54 81/68/54 77/63/54 38/13/54
f 46/34/55 73/62/55 78/67/55 41/13/55
f 52/16/56 79/66/56 71/54/56 34/13/56
f 38/13/57 77/63/57 76/51/57 44/65/57
f 34/13/58 71/54/58 73/62/58 46/34/58
f 20/50/59 67/49/59 74/59/59 51/31/59
f 26/57/60 69/30/60 75/36/60 49/58/60
f 51/31/61 74/59/61 70/61/61 29/32/61
f 44/65/62 76/51/62 72/54/62 35/13/62
f 54/16/63 80/46/63 67/49/63 20/50/63
f 49/58/64 75/36/64 68/30/64 23/15/64
f 56/16/65 82/27/65 69/30/65 26/57/65
o Icosphere.003
v 0.020000 0.412892 0.011000
v 0.528000 0.974891 0.380000
v -0.174000 0.974891 0.608000
v -0.607000 0.974891 0.011000
v -0.174000 0.974891 -0.586000
v 0.528000 0.974891 -0.358000
v 0.142000 1.923891 0.386000
v -0.298000 1.923891 0.243000
v -0.298000 1.923891 -0.220000
v 0.142000 1.923891 -0.364000
v 0.414000 1.923891 0.011000
v 0.020000 2.664891 0.011000
v -0.124000 0.522892 0.622000
v 0.595000 0.522892 0.389000
v 0.205000 0.908891 0.579000
v 0.617000 0.908891 0.011000
v 0.595000 0.522892 -0.367000
v -0.568000 0.522892 0.011000
v -0.463000 0.908891 0.362000
v -0.124000 0.522892 -0.600000
v -0.463000 0.908891 -0.340000
v 0.205000 0.908891 -0.557000
v 0.551000 1.426892 0.183000
v 0.551000 1.426892 -0.161000
v 0.020000 1.426892 0.569000
v 0.348000 1.426892 0.462000
v -0.510000 1.426892 0.183000
v -0.308000 1.426892 0.462000
v -0.308000 1.426892 -0.440000
v -0.510000 1.426892 -0.161000
v 0.348000 1.426892 -0.440000
v 0.020000 1.426892 -0.547000
v 0.323000 1.965892 0.231000
v -0.095000 1.965892 0.367000
v -0.354000 1.965892 0.011000
v -0.095000 1.965892 -0.345000
v 0.323000 1.965892 -0.209000
v 0.088000 2.337892 0.218000
v 0.238000 2.337892 0.011000
v -0.156000 2.337892 0.139000
v -0.156000 2.337892 -0.117000
v 0.088000 2.337892 -0.196000
vn 0.0619 -0.9796 0.1910
vn 0.9672 0.1475 0.2069
vn -0.1823 -0.9743 0.1324
vn -0.1823 -0.9743 -0.1324
vn 0.0619 -0.9796 -0.1910
vn 0.9729 0.0490 0.2259
vn 0.0848 0.0495 0.9952
vn -0.9206 0.0503 0.3872
vn -0.6540 0.0500 -0.7549
vn 0.5164 0.0505 -0.8549
vn 0.7905 0.2105 0.5752
vn -0.3032 0.2103 0.9294
vn -0.9777 0.2098 -0.0000
vn -0.3032 0.2103 -0.9294
vn 0.7905 0.2105 -0.5752
vn 0.5515 0.3744 0.7454
vn -0.5386 0.3743 0.7549
vn -0.8838 0.3733 -0.2821
vn -0.0078 0.3751 -0.9269
vn 0.8800 0.3741 -0.2926
vn 0.7126 0.4750 -0.5163
vn 0.7149 0.4697 -0.5180
vn 0.5515 0.3744 -0.7454
vn -0.2712 0.4739 -0.8378
vn -0.2719 0.4701 -0.8397
vn -0.5412 0.3731 -0.7536
vn -0.8806 0.4739 -0.0000
vn -0.8827 0.4698 -0.0000
vn -0.8839 0.3738 0.2810
vn -0.2712 0.4739 0.8378
vn -0.2719 0.4701 0.8397
vn -0.0078 0.3751 0.9269
vn 0.7126 0.4750 0.5163
vn 0.7149 0.4697 0.5180
vn 0.8800 0.3741 0.2926
vn 0.8877 0.3487 -0.3006
vn 0.7767 0.2782 -0.5651
vn 0.5620 0.3477 -0.7505
vn -0.0134 0.3484 -0.9373
vn -0.2979 0.2786 -0.9130
vn -0.5427 0.3491 -0.7640
vn -0.8945 0.3483 -0.2802
vn -0.9606 0.2780 -0.0000
vn -0.8950 0.3481 0.2790
vn -0.5401 0.3484 0.7661
vn -0.2979 0.2786 0.9130
vn -0.0134 0.3484 0.9373
vn 0.5620 0.3477 0.7505
vn 0.7767 0.2782 0.5651
vn 0.8877 0.3487 0.3006
vn 0.2991 0.2642 -0.9169
vn 0.3076 0.1281 -0.9429
vn 0.0848 0.0495 -0.9952
vn -0.7808 0.2660 -0.5653
vn -0.8033 0.1281 -0.5816
vn -0.9206 0.0502 -0.3871
vn -0.7811 0.2649 0.5655
vn -0.8033 0.1281 0.5816
vn -0.6540 0.0500 0.7549
vn 0.2991 0.2642 0.9169
vn 0.3076 0.1281 0.9429
vn 0.5164 0.0505 0.8549
vn 0.9640 0.2657 -0.0000
vn 0.9920 0.1264 -0.0000
vn 0.9729 0.0490 -0.2259
vn 0.5085 0.0924 -0.8561
vn 0.3046 -0.1549 -0.9398
vn 0.0832 0.0400 -0.9957
vn -0.6412 -0.0472 -0.7659
vn -0.7717 -0.3000 -0.5608
vn -0.9274 -0.0800 -0.3654
vn -0.9274 -0.0800 0.3654
vn -0.7717 -0.3000 0.5608
vn -0.6412 -0.0472 0.7659
vn 0.9672 0.1475 -0.2069
vn 0.9984 -0.0569 -0.0000
vn 0.1879 -0.9822 -0.0000
vn 0.0832 0.0400 0.9957
vn 0.3046 -0.1549 0.9398
vn 0.5085 0.0924 0.8561
vt 0.843538 0.834609
vt 0.855324 0.846953
vt 0.832236 0.846953
vt 0.843538 0.863759
vt 0.870202 0.863759
vt 0.855324 0.880240
vt 0.818256 0.863759
vt 0.832236 0.880240
vt 0.824922 0.899494
vt 0.843716 0.899494
vt 0.835314 0.919377
vt 0.852477 0.919377
vt 0.843716 0.933996
vt 0.863536 0.899494
s 0
usemtl regular
f 83/70/66 96/71/66 95/72/66
f 84/73/67 96/71/67 98/74/67
f 83/70/68 95/71/68 100/72/68
f 83/70/69 100/71/69 102/72/69
f 83/70/70 102/71/70 99/72/70
f 84/73/71 98/74/71 105/75/71
f 85/76/72 97/73/72 107/77/72
f 86/73/73 101/74/73 109/75/73
f 87/73/74 103/74/74 111/75/74
f 88/73/75 104/74/75 113/75/75
f 84/73/76 105/75/76 108/77/76
f 85/73/77 107/75/77 110/77/77
f 86/73/78 109/75/78 112/77/78
f 87/73/79 111/75/79 114/77/79
f 88/73/80 113/75/80 106/77/80
f 89/78/81 115/79/81 120/80/81
f 90/78/82 116/79/82 122/80/82
f 91/78/83 117/79/83 123/80/83
f 92/78/84 118/79/84 124/80/84
f 93/78/85 119/79/85 121/80/85
f 121/80/86 124/81/86 94/82/86
f 121/80/87 119/79/87 124/81/87
f 119/79/88 92/83/88 124/81/88
f 124/80/89 123/81/89 94/82/89
f 124/80/90 118/79/90 123/81/90
f 118/79/91 91/83/91 123/81/91
f 123/80/92 122/81/92 94/82/92
f 123/80/93 117/79/93 122/81/93
f 117/79/94 90/83/94 122/81/94
f 122/80/95 120/81/95 94/82/95
f 122/80/96 116/79/96 120/81/96
f 116/79/97 89/83/97 120/81/97
f 120/80/98 121/81/98 94/82/98
f 120/80/99 115/79/99 121/81/99
f 115/79/100 93/83/100 121/81/100
f 106/77/101 119/79/101 93/78/101
f 106/77/102 113/75/102 119/79/102
f 113/75/103 92/83/103 119/79/103
f 114/77/104 118/79/104 92/78/104
f 114/77/105 111/75/105 118/79/105
f 111/75/106 91/83/106 118/79/106
f 112/77/107 117/79/107 91/78/107
f 112/77/108 109/75/108 117/79/108
f 109/75/109 90/83/109 117/79/109
f 110/77/110 116/79/110 90/78/110
f 110/77/111 107/75/111 116/79/111
f 107/77/112 89/79/112 116/78/112
f 108/75/113 115/83/113 89/79/113
f 108/77/114 105/75/114 115/79/114
f 105/75/115 93/83/115 115/79/115
f 113/77/116 114/75/116 92/79/116
f 113/77/117 104/73/117 114/75/117
f 104/76/118 87/73/118 114/77/118
f 111/77/119 112/75/119 91/79/119
f 111/77/120 103/73/120 112/75/120
f 103/76/121 86/73/121 112/77/121
f 109/77/122 110/75/122 90/79/122
f 109/77/123 101/73/123 110/75/123
f 101/73/124 85/74/124 110/75/124
f 107/77/125 108/75/125 89/79/125
f 107/77/126 97/73/126 108/75/126
f 97/76/127 84/73/127 108/77/127
f 105/77/128 106/75/128 93/79/128
f 105/77/129 98/73/129 106/75/129
f 98/76/130 88/73/130 106/77/130
f 99/71/131 104/74/131 88/73/131
f 99/72/132 102/71/132 104/73/132
f 102/72/133 87/73/133 104/76/133
f 102/71/134 103/74/134 87/73/134
f 102/72/135 100/71/135 103/73/135
f 100/72/136 86/73/136 103/76/136
f 100/71/137 101/74/137 86/73/137
f 100/72/138 95/71/138 101/73/138
f 95/71/139 85/74/139 101/73/139
f 98/76/140 99/72/140 88/73/140
f 98/73/141 96/72/141 99/71/141
f 96/72/142 83/70/142 99/71/142
f 95/72/143 97/73/143 85/76/143
f 95/72/144 96/71/144 97/73/144
f 96/72/145 84/73/145 97/76/145
o Cube.003
v -0.500000 0.000000 0.500000
v -0.500000 0.100000 0.500000
v -0.500000 0.000000 -0.500000
v -0.500000 0.100000 -0.500000
v 0.500000 0.000000 0.500000
v 0.500000 0.100000 0.500000
v 0.500000 0.000000 -0.500000
v 0.500000 0.100000 -0.500000
v -0.500000 0.000000 0.000000
v -0.500000 0.100000 0.000000
v 0.500000 0.000000 0.000000
v 0.500000 0.100000 0.000000
v -0.500000 0.000000 0.400000
v 0.500000 0.100000 0.400000
v -0.500000 0.100000 0.400000
v 0.500000 0.000000 0.400000
v -0.500000 0.100000 -0.400000
v 0.500000 0.000000 -0.400000
v -0.500000 0.000000 -0.400000
v 0.500000 0.100000 -0.400000
v 0.000000 0.000000 -0.500000
v 0.000000 0.100000 -0.500000
v 0.000000 0.000000 0.500000
v 0.000000 0.100000 0.500000
v 0.000000 0.100000 0.000000
v 0.000000 0.000000 0.000000
v 0.000000 0.100000 0.400000
v 0.000000 0.000000 0.400000
v 0.000000 0.000000 -0.400000
v 0.000000 0.100000 -0.400000
v -0.400000 0.000000 -0.500000
v -0.400000 0.100000 0.500000
v -0.400000 0.000000 0.000000
v -0.400000 0.000000 0.400000
v -0.400000 0.000000 -0.400000
v -0.400000 0.100000 -0.500000
v -0.400000 0.000000 0.500000
v -0.400000 0.100000 0.000000
v -0.400000 0.100000 0.400000
v -0.400000 0.100000 -0.400000
v 0.400000 0.100000 -0.500000
v 0.400000 0.000000 0.500000
v 0.400000 0.100000 0.000000
v 0.400000 0.100000 0.400000
v 0.400000 0.100000 -0.400000
v 0.400000 0.000000 -0.500000
v 0.400000 0.100000 0.500000
v 0.400000 0.000000 0.000000
v 0.400000 0.000000 0.400000
v 0.400000 0.000000 -0.400000
vn -1.0000 -0.0000 -0.0000
vn -0.0000 -0.0000 -1.0000
vn 1.0000 -0.0000 -0.0000
vn -0.0000 -0.0000 1.0000
vn -0.0000 -1.0000 -0.0000
vn -0.0000 1.0000 -0.0000
vt 0.888051 0.812816
vt 0.888051 0.817555
vt 0.883393 0.817555
vt 0.883393 0.812816
vt 0.924747 0.812816
vt 0.924747 0.817555
vt 0.929404 0.817555
vt 0.929404 0.812816
vt 0.924918 0.819982
vt 0.924918 0.821037
vt 0.904867 0.821037
vt 0.904867 0.819982
vt 0.887730 0.821450
vt 0.883080 0.821450
vt 0.883080 0.816480
vt 0.887730 0.816480
vt 0.887730 0.821459
vt 0.883080 0.821459
vt 0.883080 0.833410
vt 0.887730 0.833410
vt 0.906911 0.817555
vt 0.906911 0.812816
vt 0.887730 0.816490
vt 0.883080 0.816490
vt 0.924931 0.816490
vt 0.906330 0.816490
vt 0.906330 0.821459
vt 0.924931 0.821459
vt 0.904867 0.817871
vt 0.904867 0.818926
vt 0.924918 0.818926
vt 0.924918 0.817871
vt 0.924931 0.833410
vt 0.906330 0.833410
vt 0.906330 0.821450
vt 0.924931 0.821450
vt 0.906330 0.816480
vt 0.924931 0.816480
vt 0.924918 0.816816
vt 0.904867 0.816816
vt 0.929580 0.821450
vt 0.929580 0.816480
vt 0.929580 0.821459
vt 0.929580 0.833410
vt 0.929580 0.816490
s 0
usemtl regular
f 143/84/146 141/85/146 128/86/146 127/87/146
f 170/88/147 165/89/147 132/90/147 131/91/147
f 140/88/148 138/89/148 130/90/148 129/91/148
f 161/84/149 156/85/149 126/86/149 125/87/149
f 173/92/150 140/93/150 129/94/150 166/95/150
f 163/96/151 139/97/151 126/98/151 156/99/151
f 164/100/151 141/101/151 134/102/151 162/103/151
f 174/92/150 142/93/150 135/94/150 172/95/150
f 142/84/148 144/85/148 136/104/148 135/105/148
f 137/88/146 139/89/146 134/104/146 133/105/146
f 125/91/146 126/90/146 139/89/146 137/88/146
f 162/103/151 134/102/151 139/97/151 163/96/151
f 172/95/150 135/94/150 140/93/150 173/92/150
f 135/105/148 136/104/148 138/89/148 140/88/148
f 131/87/148 132/86/148 144/85/148 142/84/148
f 170/95/150 131/94/150 142/93/150 174/92/150
f 160/106/151 128/107/151 141/101/151 164/100/151
f 133/105/146 134/104/146 141/85/146 143/84/146
f 165/108/151 146/109/151 154/110/151 169/111/151
f 155/112/150 145/113/150 153/114/150 159/115/150
f 157/112/150 150/113/150 152/114/150 158/115/150
f 167/116/151 149/117/151 151/118/151 168/119/151
f 159/115/150 153/114/150 150/113/150 157/112/150
f 169/111/151 154/110/151 149/117/151 167/116/151
f 168/119/151 151/118/151 148/120/151 171/121/151
f 158/115/150 152/114/150 147/113/150 161/112/150
f 166/88/149 171/89/149 148/104/149 147/105/149
f 155/84/147 160/85/147 146/104/147 145/105/147
f 127/87/147 128/86/147 160/85/147 155/84/147
f 137/122/150 158/115/150 161/112/150 125/123/150
f 143/122/150 159/115/150 157/112/150 133/123/150
f 133/123/150 157/112/150 158/115/150 137/122/150
f 127/123/150 155/112/150 159/115/150 143/122/150
f 146/109/151 160/106/151 164/100/151 154/110/151
f 149/117/151 162/103/151 163/96/151 151/118/151
f 154/110/151 164/100/151 162/103/151 149/117/151
f 151/118/151 163/96/151 156/99/151 148/120/151
f 147/105/149 148/104/149 156/85/149 161/84/149
f 129/91/149 130/90/149 171/89/149 166/88/149
f 138/124/151 168/119/151 171/121/151 130/125/151
f 144/126/151 169/111/151 167/116/151 136/127/151
f 136/127/151 167/116/151 168/119/151 138/124/151
f 132/128/151 165/108/151 169/111/151 144/126/151
f 145/113/150 170/95/150 174/92/150 153/114/150
f 150/113/150 172/95/150 173/92/150 152/114/150
f 153/114/150 174/92/150 172/95/150 150/113/150
f 152/114/150 173/92/150 166/95/150 147/113/150
f 145/105/147 146/104/147 165/89/147 170/88/147
o Cube.008
v -0.300000 0.091694 -0.190000
v -0.300000 0.410000 -0.190000
v -0.300000 0.091694 -0.290000
v -0.300000 0.410000 -0.290000
v -0.200000 0.091694 -0.190000
v -0.200000 0.410000 -0.190000
v -0.200000 0.091694 -0.290000
v -0.200000 0.410000 -0.290000
v -0.276936 0.311410 -0.323503
v -0.276936 0.311410 0.333654
v -0.276936 0.365283 -0.323503
v -0.276936 0.365283 0.333654
v -0.223064 0.311410 -0.323503
v -0.223064 0.311410 0.333654
v -0.223064 0.365283 -0.323503
v -0.223064 0.365283 0.333654
v -0.300000 0.091694 0.297198
v -0.300000 0.410000 0.297198
v -0.300000 0.091694 0.197198
v -0.300000 0.410000 0.197198
v -0.200000 0.091694 0.297198
v -0.200000 0.410000 0.297198
v -0.200000 0.091694 0.197198
v -0.200000 0.410000 0.197198
v 0.300000 0.091694 -0.190000
v 0.300000 0.410000 -0.190000
v 0.300000 0.091694 -0.290000
v 0.300000 0.410000 -0.290000
v 0.200000 0.091694 -0.190000
v 0.200000 0.410000 -0.190000
v 0.200000 0.091694 -0.290000
v 0.200000 0.410000 -0.290000
v 0.276936 0.311410 -0.323503
v 0.276936 0.311410 0.333654
v 0.276936 0.365283 -0.323503
v 0.276936 0.365283 0.333654
v 0.223064 0.311410 -0.323503
v 0.223064 0.311410 0.333654
v 0.223064 0.365283 -0.323503
v 0.223064 0.365283 0.333654
v 0.300000 0.091694 0.297198
v 0.300000 0.410000 0.297198
v 0.300000 0.091694 0.197198
v 0.300000 0.410000 0.197198
v 0.200000 0.091694 0.297198
v 0.200000 0.410000 0.297198
v 0.200000 0.091694 0.197198
v 0.200000 0.410000 0.197198
vn -1.0000 -0.0000 -0.0000
vn -0.0000 -0.0000 -1.0000
vn 1.0000 -0.0000 -0.0000
vn -0.0000 -0.0000 1.0000
vn -0.0000 -1.0000 -0.0000
vn -0.0000 1.0000 -0.0000
vt 0.895713 0.824430
vt 0.895713 0.834467
vt 0.891984 0.834467
vt 0.891984 0.824430
vt 0.891981 0.827919
vt 0.891981 0.824430
vt 0.895731 0.824430
vt 0.895731 0.827919
vt 0.891981 0.834467
vt 0.891981 0.830910
vt 0.895731 0.830910
vt 0.895731 0.834467
s 0
usemtl regular
f 175/129/152 176/130/152 178/131/152 177/132/152
f 177/132/153 178/131/153 182/130/153 181/129/153
f 181/132/154 182/131/154 180/130/154 179/129/154
f 179/132/155 180/131/155 176/130/155 175/129/155
f 177/133/156 181/134/156 179/135/156 175/136/156
f 182/137/157 178/138/157 176/139/157 180/140/157
f 183/129/152 184/130/152 186/131/152 185/132/152
f 185/132/157 186/131/157 190/130/157 189/129/157
f 189/132/154 190/131/154 188/130/154 187/129/154
f 187/132/156 188/131/156 184/130/156 183/129/156
f 185/133/153 189/134/153 187/135/153 183/136/153
f 190/137/155 186/138/155 184/139/155 188/140/155
f 191/129/152 192/130/152 194/131/152 193/132/152
f 193/132/153 194/131/153 198/130/153 197/129/153
f 197/132/154 198/131/154 196/130/154 195/129/154
f 195/132/155 196/131/155 192/130/155 191/129/155
f 193/133/156 197/134/156 195/135/156 191/136/156
f 198/137/157 194/138/157 192/139/157 196/140/157
f 199/129/154 201/132/154 202/131/154 200/130/154
f 201/132/153 205/129/153 206/130/153 202/131/153
f 205/132/152 203/129/152 204/130/152 206/131/152
f 203/132/155 199/129/155 200/130/155 204/131/155
f 201/133/156 199/136/156 203/135/156 205/134/156
f 206/137/157 204/140/157 200/139/157 202/138/157
f 207/129/154 209/132/154 210/131/154 208/130/154
f 209/132/157 213/129/157 214/130/157 210/131/157
f 213/132/152 211/129/152 212/130/152 214/131/152
f 211/132/156 207/129/156 208/130/156 212/131/156
f 209/133/153 207/136/153 211/135/153 213/134/153
f 214/137/155 212/140/155 208/139/155 210/138/155
f 215/129/154 217/132/154 218/131/154 216/130/154
f 217/132/153 221/129/153 222/130/153 218/131/153
f 221/132/152 219/129/152 220/130/152 222/131/152
f 219/132/155 215/129/155 216/130/155 220/131/155
f 217/133/156 215/136/156 219/135/156 221/134/156
f 222/137/157 220/140/157 216/139/157 218/138/157
