# Blender 3.6.5
# www.blender.org
mtllib Poly_World_Map_Land_Tree_01_Single.mtl
o Cube.002_Cube.001
v -0.113546 0.193605 0.105701
v -0.106758 0.441141 0.099383
v -0.174923 0.351658 -0.006259
v -0.174923 0.193605 -0.006259
v -0.105701 0.193605 -0.113546
v -0.099383 0.441141 -0.106758
v 0.006259 0.351658 -0.174923
v 0.006259 0.193605 -0.174923
v 0.113546 0.193605 -0.105701
v 0.106758 0.441141 -0.099383
v 0.174923 0.351658 0.006259
v 0.174923 0.193605 0.006259
v 0.105701 0.193605 0.113546
v 0.099383 0.441141 0.106758
v -0.006259 0.351658 0.174923
v -0.006259 0.193605 0.174923
v 0.000000 0.127873 0.000000
v 0.000000 0.528156 0.000000
vn -0.8631 0.0223 0.5046
vn -0.5046 0.0223 -0.8631
vn 0.8631 0.0223 -0.5046
vn 0.5046 0.0223 0.8631
vn 0.3513 -0.9362 0.0126
vn -0.0254 0.7042 0.7096
vn 0.7096 0.7042 0.0254
vn -0.0126 -0.9362 0.3513
vn 0.8248 0.0223 0.5650
vn -0.8248 0.0223 -0.5650
vn -0.3513 -0.9362 -0.0126
vn 0.0254 0.7042 -0.7096
vn -0.7096 0.7042 -0.0254
vn 0.0126 -0.9362 -0.3513
vn 0.5650 0.0223 -0.8248
vn -0.5650 0.0223 0.8248
vt 0.530870 0.950489
vt 0.529365 0.972699
vt 0.523305 0.972552
vt 0.523305 0.950489
vt 0.538435 0.961520
vt 0.523305 0.961520
vt 0.538435 0.950489
vt 0.530870 0.972552
vt 0.538435 0.972552
vt 0.530515 0.955449
vt 0.525501 0.955449
vt 0.525501 0.960408
vt 0.530515 0.960408
vt 0.530870 0.970520
vt 0.530985 0.957047
vt 0.525231 0.954498
vt 0.525276 0.970513
vt 0.530916 0.974393
vt 0.525322 0.974386
vt 0.535529 0.955449
vt 0.535529 0.960408
vt 0.535529 0.950489
vt 0.530515 0.950489
vt 0.537350 0.974400
vt 0.537305 0.970527
vt 0.537259 0.954511
vt 0.525501 0.950489
s 1
usemtl Material.003
f 1/1/1 2/2/1 3/3/1 4/4/1
f 5/5/2 6/6/2 7/4/2 8/7/2
f 9/1/3 10/8/3 11/3/3 12/4/3
f 13/1/4 14/8/4 15/9/4 16/7/4
f 17/10/5 9/11/5 12/12/5 13/13/5
f 18/14/6 2/15/6 15/16/6 14/17/6
f 10/18/7 18/14/7 14/17/7 11/19/7
f 1/20/8 17/10/8 13/13/8 16/21/8
f 12/4/9 11/3/9 14/8/9 13/1/9
f 4/9/10 3/3/10 6/6/10 5/5/10
f 4/22/11 5/23/11 17/10/11 1/20/11
f 7/24/12 6/25/12 18/14/12 10/18/12
f 6/25/13 3/26/13 2/15/13 18/14/13
f 5/23/14 8/27/14 9/11/14 17/10/14
f 8/7/15 7/9/15 10/8/15 9/1/15
f 16/7/16 15/9/16 2/2/16 1/1/16
o Cube.015_Cube.001
v -0.030852 0.053530 0.028721
v -0.029093 0.195238 0.027083
v -0.042836 0.195238 -0.001533
v -0.045427 0.053530 -0.001625
v -0.028721 0.053530 -0.030852
v -0.027083 0.195238 -0.029093
v 0.001533 0.195238 -0.042836
v 0.001625 0.053530 -0.045427
v 0.030852 0.053530 -0.028721
v 0.029093 0.195238 -0.027083
v 0.042836 0.195238 0.001533
v 0.045427 0.053530 0.001625
v 0.028721 0.053530 0.030852
v 0.027083 0.195238 0.029093
v -0.001533 0.195238 0.042836
v -0.001625 0.053530 0.045427
v 0.002329 -0.019895 0.002501
v 0.060927 -0.019895 -0.052048
v 0.088607 -0.019895 0.005589
v 0.056878 -0.019895 0.061099
v -0.056269 -0.019895 0.057051
v -0.000758 -0.019895 0.088780
v -0.083950 -0.019895 -0.000586
v -0.052221 -0.019895 -0.056096
v 0.005416 -0.019895 -0.083777
vn -0.9013 0.0162 0.4329
vn -0.4329 0.0162 -0.9013
vn 0.9013 0.0162 -0.4329
vn 0.4329 0.0162 0.9013
vn -0.0000 -1.0000 -0.0000
vn 0.8681 0.0162 0.4962
vn -0.8681 0.0162 -0.4962
vn 0.4962 0.0162 -0.8681
vn -0.4962 0.0162 0.8681
vn -0.4426 0.4520 0.7744
vn 0.4475 0.4321 -0.7830
vn -0.7922 0.4092 -0.4528
vn 0.7648 0.4733 0.4371
vn 0.3814 0.4733 0.7940
vn 0.8041 0.4520 -0.3862
vn -0.3950 0.4092 -0.8225
vn -0.8130 0.4321 0.3904
vt 0.529891 0.943213
vt 0.532863 0.943213
vt 0.532863 0.946198
vt 0.529891 0.946198
vt 0.529885 0.943456
vt 0.529864 0.947174
vt 0.532103 0.947202
vt 0.532131 0.943232
vt 0.529881 0.947174
vt 0.527642 0.947164
vt 0.527652 0.943202
vt 0.528623 0.943959
vt 0.530326 0.944705
vt 0.530763 0.940227
vt 0.529367 0.940227
vt 0.529898 0.942969
vt 0.526920 0.943213
vt 0.526920 0.946198
vt 0.528842 0.946198
vt 0.530763 0.946198
vt 0.527652 0.943184
vt 0.527624 0.947146
vt 0.532863 0.940227
vt 0.529905 0.939739
vt 0.526920 0.940227
vt 0.532141 0.939261
vt 0.529902 0.939251
vt 0.527680 0.939223
vt 0.527663 0.939241
vt 0.532159 0.939279
s 1
usemtl Material.003
f 19/28/17 20/29/17 21/30/17 22/31/17
f 23/32/18 24/33/18 25/34/18 26/35/18
f 27/28/19 28/36/19 29/37/19 30/38/19
f 31/39/20 32/40/20 33/41/20 34/42/20
f 35/43/21 36/44/21 37/45/21 38/31/21
f 39/29/21 35/43/21 38/31/21 40/30/21
f 30/46/22 29/47/22 32/40/22 31/39/22
f 22/48/23 21/49/23 24/33/23 23/32/23
f 41/50/21 42/51/21 35/43/21 39/29/21
f 42/51/21 43/52/21 36/44/21 35/43/21
f 26/35/24 25/34/24 28/36/24 27/28/24
f 34/42/25 33/50/25 20/29/25 19/28/25
f 40/52/26 34/42/26 19/28/26 39/44/26
f 43/53/27 26/35/27 27/28/27 36/54/27
f 41/55/28 22/48/28 23/32/28 42/51/28
f 37/45/29 30/46/29 31/39/29 38/44/29
f 38/44/30 31/39/30 34/42/30 40/52/30
f 36/54/31 27/28/31 30/38/31 37/56/31
f 42/51/32 23/32/32 26/35/32 43/57/32
f 39/44/33 19/28/33 22/31/33 41/45/33
