# Blender 3.6.5
# www.blender.org
mtllib Poly_Barricade_01.mtl
o Cube
v -0.147610 0.000070 0.368625
v -0.036902 0.730738 0.368625
v -0.147610 0.000070 0.221015
v -0.036902 0.730738 0.221015
v -0.110707 0.000070 0.368625
v 0.000000 0.730738 0.368625
v -0.110707 0.000070 0.221015
v 0.000000 0.730738 0.221015
v 0.110707 0.000070 0.368625
v 0.000000 0.730738 0.368625
v 0.110707 0.000070 0.221015
v 0.000000 0.730738 0.221015
v 0.147610 0.000070 0.368625
v 0.036902 0.730738 0.368625
v 0.147610 0.000070 0.221015
v 0.036902 0.730738 0.221015
v -0.147610 0.000070 -0.221813
v -0.036902 0.730738 -0.221813
v -0.147610 0.000070 -0.369423
v -0.036902 0.730738 -0.369423
v -0.110707 0.000070 -0.221813
v 0.000000 0.730738 -0.221813
v -0.110707 0.000070 -0.369423
v 0.000000 0.730738 -0.369423
v 0.110707 0.000070 -0.221813
v 0.000000 0.730738 -0.221813
v 0.110707 0.000070 -0.369423
v 0.000000 0.730738 -0.369423
v 0.147610 0.000070 -0.221813
v 0.036902 0.730738 -0.221813
v 0.147610 0.000070 -0.369423
v 0.036902 0.730738 -0.369423
v 0.110707 0.184582 0.368625
v 0.110707 0.184582 0.221015
v 0.147610 0.184582 0.221015
v 0.147610 0.184582 0.368625
v -0.147610 0.184582 0.368625
v -0.147610 0.184582 0.221015
v -0.110707 0.184582 0.221015
v -0.110707 0.184582 0.368625
v 0.110707 0.184582 -0.221813
v 0.110707 0.184582 -0.369423
v 0.147610 0.184582 -0.369423
v 0.147610 0.184582 -0.221813
v -0.147610 0.184582 -0.221813
v -0.147610 0.184582 -0.369423
v -0.110707 0.184582 -0.369423
v -0.110707 0.184582 -0.221813
v -0.147610 0.073875 -0.369423
v -0.110707 0.073875 -0.369423
v -0.110707 0.073875 -0.221813
v -0.147610 0.073875 -0.221813
v 0.110707 0.073875 -0.369423
v 0.147610 0.073875 -0.369423
v 0.147610 0.073875 -0.221813
v 0.110707 0.073875 -0.221813
v -0.147610 0.073875 0.221015
v -0.110707 0.073875 0.221015
v -0.110707 0.073875 0.368625
v -0.147610 0.073875 0.368625
v 0.110707 0.073875 0.221015
v 0.147610 0.073875 0.221015
v 0.147610 0.073875 0.368625
v 0.110707 0.073875 0.368625
v 0.110707 0.184582 0.221015
v 0.147610 0.184582 0.221015
v -0.147610 0.184582 0.221015
v -0.110707 0.184582 0.221015
v -0.110707 0.073875 0.221015
v -0.147610 0.073875 0.221015
v 0.147610 0.073875 0.221015
v 0.110707 0.073875 0.221015
v -0.110707 0.184582 -0.148008
v -0.110707 0.073875 -0.148008
v -0.147610 0.073875 -0.148008
v -0.147610 0.184582 -0.148008
v -0.110707 0.184582 0.147211
v -0.147610 0.184582 0.147211
v -0.110707 0.073875 0.147211
v -0.147610 0.073875 0.147211
v 0.147610 0.184582 0.147211
v 0.147610 0.073875 0.147211
v 0.110707 0.184582 0.147211
v 0.110707 0.073875 0.147211
v 0.147610 0.073875 -0.148008
v 0.147610 0.184582 -0.148008
v 0.110707 0.184582 -0.148008
v 0.110707 0.073875 -0.148008
v -0.059044 0.634791 -0.148008
v -0.022141 0.634791 -0.148008
v -0.022141 0.634791 0.147211
v -0.059044 0.634791 0.147211
v 0.059044 0.634791 -0.148008
v 0.059044 0.634791 0.147211
v 0.022141 0.634791 -0.148008
v 0.022141 0.634791 0.147211
vn -0.9801 0.1987 -0.0000
vn -0.0000 -0.0000 -1.0000
vn 0.9801 -0.1987 -0.0000
vn -0.0000 -0.0000 1.0000
vn -0.0000 -1.0000 -0.0000
vn -0.0000 1.0000 -0.0000
vn -0.9801 -0.1987 -0.0000
vn 0.9801 0.1987 -0.0000
vn 1.0000 -0.0000 -0.0000
vn -1.0000 -0.0000 -0.0000
vn 0.9812 -0.1930 -0.0000
vn -0.9812 0.1930 -0.0000
vn -0.9812 -0.1930 -0.0000
vn 0.9812 0.1930 -0.0000
vt 0.867366 0.829041
vt 0.867366 0.866798
vt 0.859325 0.866798
vt 0.859325 0.829041
vt 0.818225 0.858170
vt 0.818225 0.815803
vt 0.826004 0.815723
vt 0.826004 0.858090
vt 0.826004 0.834312
vt 0.818225 0.834291
vt 0.830006 0.831475
vt 0.856167 0.831475
vt 0.856167 0.858090
vt 0.830086 0.858090
vt 0.867366 0.834211
vt 0.867366 0.858090
vt 0.859325 0.858090
vt 0.859325 0.834211
vt 0.859325 0.815723
vt 0.867366 0.815723
vt 0.826004 0.829041
vt 0.826004 0.866798
vt 0.818225 0.866798
vt 0.818225 0.829121
vt 0.867366 0.826474
vt 0.859325 0.826474
vt 0.826004 0.826474
vt 0.818225 0.826554
vt 0.867366 0.822412
vt 0.859325 0.822412
vt 0.818225 0.839459
vt 0.826004 0.822412
vt 0.818225 0.822491
vt 0.818225 0.839459
vt 0.856167 0.822252
vt 0.856167 0.828882
vt 0.818225 0.850180
vt 0.818225 0.850180
vt 0.820031 0.862295
vt 0.843573 0.829041
vt 0.835027 0.831475
vt 0.830086 0.838621
vt 0.835044 0.838621
vt 0.856167 0.828962
vt 0.830086 0.822332
vt 0.842585 0.829041
vt 0.830086 0.828962
vt 0.850842 0.831475
vt 0.850858 0.838621
vt 0.856167 0.838621
s 0
usemtl Material
f 37/1/1 2/2/1 4/3/1 38/4/1
f 38/5/2 4/6/2 8/7/2 39/8/2
f 39/4/3 8/3/3 6/2/3 40/1/3
f 40/9/4 6/8/4 2/5/4 37/10/4
f 3/5/5 7/8/5 5/7/5 1/6/5
f 8/11/6 4/12/6 2/13/6 6/14/6
f 33/1/7 10/2/7 12/3/7 34/4/7
f 34/7/2 12/6/2 16/5/2 35/8/2
f 35/4/8 16/3/8 14/2/8 36/1/8
f 36/15/4 14/16/4 10/17/4 33/18/4
f 11/19/5 15/20/5 13/16/5 9/17/5
f 16/11/6 12/12/6 10/13/6 14/14/6
f 45/21/1 18/22/1 20/23/1 46/24/1
f 46/25/2 20/16/2 24/17/2 47/26/2
f 47/24/3 24/23/3 22/22/3 48/21/3
f 48/17/4 22/16/4 18/20/4 45/19/4
f 19/5/5 23/8/5 21/7/5 17/6/5
f 24/11/6 20/12/6 18/13/6 22/14/6
f 41/21/7 26/22/7 28/23/7 42/24/7
f 42/27/2 28/8/2 32/5/2 43/28/2
f 43/24/8 32/23/8 30/22/8 44/21/8
f 44/20/4 30/19/4 26/17/4 41/16/4
f 27/19/5 31/20/5 29/16/5 25/17/5
f 32/11/6 28/12/6 26/13/6 30/14/6
f 63/29/4 36/15/4 33/18/4 64/30/4
f 62/30/9 35/4/9 36/1/9 63/29/9
f 61/24/2 34/24/2 35/31/2 62/31/2
f 64/29/10 33/1/10 34/4/10 61/30/10
f 59/32/4 40/9/4 37/10/4 60/33/4
f 58/30/9 39/4/9 40/1/9 59/29/9
f 57/24/2 38/24/2 39/31/2 58/34/2
f 60/29/10 37/1/10 38/4/10 57/30/10
f 54/33/9 43/24/9 44/21/9 55/32/9
f 53/32/2 42/27/2 43/28/2 54/33/2
f 56/32/10 41/21/10 42/24/10 53/33/10
f 82/35/9 81/36/9 66/4/9 71/30/9
f 50/33/9 47/24/9 48/21/9 51/32/9
f 49/29/2 46/25/2 47/26/2 50/30/2
f 52/32/10 45/21/10 46/24/10 49/33/10
f 17/7/10 52/32/10 49/33/10 19/6/10
f 19/20/2 49/29/2 50/30/2 23/19/2
f 23/6/9 50/33/9 51/32/9 21/7/9
f 21/8/4 51/5/4 52/6/4 17/7/4
f 25/7/10 56/32/10 53/33/10 27/6/10
f 27/7/2 53/32/2 54/33/2 31/6/2
f 31/6/9 54/33/9 55/32/9 29/7/9
f 29/6/4 55/7/4 56/8/4 25/5/4
f 1/20/10 60/29/10 57/30/10 3/19/10
f 3/19/2 57/20/2 58/16/2 7/17/2
f 7/19/9 58/30/9 59/29/9 5/20/9
f 5/7/4 59/32/4 60/33/4 1/6/4
f 9/20/10 64/29/10 61/30/10 11/19/10
f 11/19/2 61/20/2 62/16/2 15/17/2
f 15/19/9 62/30/9 63/29/9 13/20/9
f 13/20/4 63/29/4 64/30/4 9/19/4
f 71/37/4 66/38/4 65/39/4 72/39/4
f 69/37/4 68/37/4 67/39/4 70/39/4
f 83/40/10 84/35/10 72/30/10 65/4/10
f 84/39/5 82/37/5 71/37/5 72/39/5
f 79/35/9 77/36/9 68/4/9 69/30/9
f 80/33/5 79/32/5 69/7/5 70/6/5
f 48/41/6 45/11/6 76/42/6 73/43/6
f 78/44/10 80/35/10 70/30/10 67/4/10
f 45/21/10 52/32/10 75/45/10 76/46/10
f 52/30/5 51/29/5 74/20/5 75/19/5
f 51/32/9 48/21/9 73/47/9 74/45/9
f 76/46/10 75/45/10 80/35/10 78/44/10
f 86/35/2 87/36/2 95/36/2 93/35/2
f 75/17/5 74/16/5 79/20/5 80/19/5
f 74/45/9 73/47/9 77/36/9 79/35/9
f 88/5/5 85/6/5 82/7/5 84/8/5
f 87/47/10 88/45/10 84/35/10 83/40/10
f 85/45/9 86/47/9 81/36/9 82/35/9
f 77/36/11 73/47/11 90/47/11 91/36/11
f 55/32/9 44/21/9 86/47/9 85/45/9
f 41/21/10 56/32/10 88/45/10 87/47/10
f 56/39/5 55/37/5 85/37/5 88/39/5
f 90/35/6 89/46/6 92/47/6 91/45/6
f 93/35/6 95/36/6 96/40/6 94/45/6
f 78/47/4 77/45/4 91/45/4 92/47/4
f 76/14/12 78/13/12 92/12/12 89/11/12
f 87/47/13 83/40/13 96/40/13 95/47/13
f 81/13/14 86/14/14 93/47/14 94/44/14
f 73/35/2 76/46/2 89/46/2 90/35/2
f 83/40/4 81/45/4 94/45/4 96/40/4
f 44/12/6 41/48/6 87/49/6 86/50/6
f 78/42/6 67/11/6 68/41/6 77/43/6
f 65/48/6 66/12/6 81/50/6 83/49/6
o Cube.001
v -0.073805 0.627411 0.405527
v -0.073805 0.738118 0.405527
v -0.073805 0.627411 -0.406325
v -0.073805 0.738118 -0.406325
v 0.073805 0.627411 0.405527
v 0.073805 0.738118 0.405527
v 0.073805 0.627411 -0.406325
v 0.073805 0.738118 -0.406325
v -0.073805 0.627411 -0.221813
v -0.073805 0.738118 -0.221813
v 0.073805 0.627411 -0.221813
v 0.073805 0.738118 -0.221813
v -0.073805 0.627411 0.221015
v 0.073805 0.738118 0.221015
v -0.073805 0.738118 0.221015
v 0.073805 0.627411 0.221015
v -0.073805 0.738118 0.221015
v 0.073805 0.634791 0.221015
v -0.073805 0.634791 0.221015
v 0.073805 0.738118 0.221015
v -0.073805 0.738118 -0.221813
v 0.073805 0.634791 -0.221813
v -0.073805 0.634791 -0.221813
v 0.073805 0.738118 -0.221813
v -0.073805 0.627411 0.339630
v 0.073805 0.738118 0.339630
v -0.073805 0.738118 0.339630
v 0.073805 0.627411 0.339630
v -0.073805 0.738118 0.269637
v 0.073805 0.627411 0.269637
v -0.073805 0.627411 0.269637
v 0.073805 0.738118 0.269637
v -0.073805 0.738118 -0.271122
v 0.073805 0.627411 -0.271122
v -0.073805 0.627411 -0.271122
v 0.073805 0.738118 -0.271122
v -0.073805 0.738118 -0.340853
v 0.073805 0.627411 -0.340853
v -0.073805 0.627411 -0.340853
v 0.073805 0.738118 -0.340853
v -0.073805 0.719519 0.405527
v -0.073805 0.719519 -0.406325
v 0.073805 0.719519 -0.406325
v 0.073805 0.719519 0.405527
v 0.073805 0.719519 -0.221813
v -0.073805 0.719519 -0.221813
v -0.073805 0.719519 0.221015
v 0.073805 0.719519 0.221015
v 0.073805 0.720759 0.221015
v -0.073805 0.720759 0.221015
v 0.073805 0.720759 -0.221813
v -0.073805 0.720759 -0.221813
v -0.073805 0.719519 0.339630
v 0.073805 0.719519 0.339630
v 0.073805 0.719519 0.269637
v -0.073805 0.719519 0.269637
v 0.073805 0.719519 -0.271122
v -0.073805 0.719519 -0.271122
v 0.073805 0.719519 -0.340853
v -0.073805 0.719519 -0.340853
v -0.073805 0.649110 -0.406325
v 0.073805 0.649110 -0.406325
v 0.073805 0.649110 0.405527
v 0.073805 0.649110 -0.221813
v -0.073805 0.649110 -0.221813
v -0.073805 0.649110 0.221015
v 0.073805 0.649110 0.221015
v 0.073805 0.655043 0.221015
v -0.073805 0.655043 0.221015
v 0.073805 0.655043 -0.221813
v -0.073805 0.655043 -0.221813
v -0.073805 0.649110 0.339630
v 0.073805 0.649110 0.339630
v 0.073805 0.649110 0.269637
v -0.073805 0.649110 0.269637
v 0.073805 0.649110 -0.271122
v -0.073805 0.649110 -0.271122
v 0.073805 0.649110 -0.340853
v -0.073805 0.649110 -0.340853
v -0.073805 0.649110 0.405527
v 0.100000 0.700000 -0.320000
v 0.100000 0.700000 -0.290000
v 0.100000 0.700000 0.290000
v 0.100000 0.700000 0.320000
v 0.100000 0.670000 0.320000
v 0.100000 0.670000 0.290000
v 0.100000 0.670000 -0.290000
v 0.100000 0.670000 -0.320000
v -0.100000 0.700000 -0.290000
v -0.100000 0.700000 -0.320000
v -0.100000 0.700000 0.320000
v -0.100000 0.700000 0.290000
v -0.100000 0.670000 0.320000
v -0.100000 0.670000 0.290000
v -0.100000 0.670000 -0.290000
v -0.100000 0.670000 -0.320000
vn -1.0000 -0.0000 -0.0000
vn -0.0000 -0.0000 -1.0000
vn 1.0000 -0.0000 -0.0000
vn -0.0000 -0.0000 1.0000
vn -0.0000 -1.0000 -0.0000
vn -0.0000 1.0000 -0.0000
vn -0.6235 -0.7818 -0.0000
vn 0.5997 -0.0000 0.8002
vn -0.6137 -0.0000 -0.7895
vn 0.6235 -0.7818 -0.0000
vn 0.5975 0.8019 -0.0000
vn 0.6228 -0.0000 -0.7824
vn 0.5847 -0.0000 0.8113
vn 0.6137 -0.0000 -0.7895
vn -0.5975 0.8019 -0.0000
vn -0.5997 -0.0000 0.8002
vn -0.6228 -0.0000 -0.7824
vn -0.5847 -0.0000 0.8113
vt 0.820031 0.864127
vt 0.818225 0.866798
vt 0.814435 0.866798
vt 0.814435 0.865339
vt 0.866087 0.864406
vt 0.867366 0.866798
vt 0.871728 0.866798
vt 0.871728 0.865339
vt 0.867366 0.860039
vt 0.871728 0.860061
vt 0.867366 0.870760
vt 0.871728 0.870760
vt 0.823918 0.870760
vt 0.823938 0.866798
vt 0.827387 0.866798
vt 0.827387 0.870760
vt 0.823958 0.860061
vt 0.823958 0.860061
vt 0.827387 0.860061
vt 0.822755 0.864127
vt 0.823958 0.866798
vt 0.827387 0.865339
vt 0.863365 0.864406
vt 0.862086 0.866798
vt 0.859325 0.866798
vt 0.859325 0.865339
vt 0.859325 0.861485
vt 0.859325 0.859998
vt 0.859325 0.860254
vt 0.827387 0.861485
vt 0.859325 0.870760
vt 0.861970 0.870760
vt 0.862086 0.860015
vt 0.818225 0.860141
vt 0.818225 0.870760
vt 0.822747 0.864127
vt 0.814435 0.870760
vt 0.814435 0.860061
vt 0.820031 0.862295
vt 0.822753 0.862295
vt 0.814435 0.861485
vt 0.866087 0.862418
vt 0.863365 0.862418
vt 0.822755 0.862295
vt 0.871728 0.861485
s 0
usemtl Material
f 156/51/15 133/52/15 100/53/15 138/54/15
f 138/54/16 100/53/16 104/53/16 139/54/16
f 150/55/17 122/56/17 102/57/17 140/58/17
f 140/58/18 102/57/18 98/57/18 137/58/18
f 121/59/19 124/59/19 101/60/19 97/60/19
f 122/61/20 123/56/20 98/57/20 102/62/20
f 132/63/20 129/64/20 106/65/20 108/66/20
f 131/67/19 130/68/19 107/69/19 105/69/19
f 153/70/17 132/71/17 108/65/17 141/72/17
f 148/72/20 117/72/20 106/65/20 142/72/20
f 152/73/15 125/74/15 111/75/15 143/76/15
f 116/76/20 113/76/20 111/75/20 110/75/20
f 115/77/16 114/77/16 112/78/16 109/78/16
f 145/76/20 116/76/20 110/76/20 144/79/20
f 147/72/17 120/72/17 116/76/17 145/76/17
f 119/80/19 118/80/19 114/77/19 115/77/19
f 120/66/20 117/65/20 113/75/20 116/81/20
f 143/76/20 111/75/20 113/76/20 146/76/20
f 108/65/20 106/65/20 117/72/20 120/72/20
f 105/69/18 107/69/18 118/80/18 119/80/18
f 141/72/20 108/65/20 120/72/20 147/72/20
f 146/76/15 113/76/15 117/72/15 148/72/15
f 137/58/15 98/57/15 123/56/15 149/55/15
f 128/82/20 125/74/20 123/56/20 122/61/20
f 127/83/19 126/83/19 124/59/19 121/59/19
f 151/73/17 128/74/17 122/56/17 150/55/17
f 144/76/17 110/75/17 128/74/17 151/73/17
f 109/78/19 112/78/19 126/83/19 127/83/19
f 110/81/20 111/75/20 125/74/20 128/82/20
f 149/55/15 123/56/15 125/74/15 152/73/15
f 155/51/17 136/52/17 132/71/17 153/70/17
f 135/84/19 134/84/19 130/68/19 131/67/19
f 136/85/20 133/52/20 129/64/20 132/63/20
f 142/72/15 106/65/15 129/64/15 154/86/15
f 104/87/20 100/53/20 133/52/20 136/85/20
f 99/88/19 103/88/19 134/84/19 135/84/19
f 139/54/17 104/53/17 136/52/17 155/51/17
f 154/86/15 129/64/15 133/52/15 156/51/15
f 175/89/21 173/90/21 191/90/21 192/89/21
f 158/91/17 139/54/17 155/51/17 174/89/17
f 161/80/15 142/72/15 154/86/15 173/90/15
f 150/55/22 169/92/22 181/92/22 180/55/22
f 152/73/23 171/93/23 190/93/23 188/73/23
f 163/77/17 144/76/17 151/73/17 170/93/17
f 172/94/24 174/89/24 184/89/24 183/94/24
f 176/95/15 137/58/15 149/55/15 168/92/15
f 165/77/15 146/76/15 148/72/15 167/80/15
f 160/80/17 141/72/17 147/72/17 166/80/17
f 162/76/20 143/72/20 146/65/20 165/75/20
f 166/80/17 147/72/17 145/76/17 164/77/17
f 164/77/20 145/76/20 144/76/20 163/77/20
f 171/93/15 152/73/15 143/76/15 162/77/15
f 167/80/15 148/72/15 142/72/15 161/80/15
f 172/94/17 153/70/17 141/72/17 160/80/17
f 159/95/18 140/58/18 137/58/18 176/95/18
f 169/92/17 150/55/17 140/58/17 159/95/17
f 157/91/16 138/54/16 139/54/16 158/91/16
f 175/89/15 156/51/15 138/54/15 157/91/15
f 135/84/15 175/89/15 157/91/15 99/88/15
f 99/88/16 157/91/16 158/91/16 103/88/16
f 124/59/17 169/92/17 159/95/17 101/60/17
f 101/60/18 159/95/18 176/95/18 97/60/18
f 130/68/17 172/94/17 160/80/17 107/69/17
f 119/80/18 167/80/18 161/80/18 105/69/18
f 127/83/15 171/93/15 162/77/15 109/78/15
f 114/77/20 164/77/20 163/77/20 112/78/20
f 118/80/17 166/80/17 164/77/17 114/77/17
f 109/78/20 162/76/20 165/75/20 115/77/20
f 107/69/20 160/80/20 166/80/20 118/80/20
f 115/77/15 165/77/15 167/80/15 119/80/15
f 97/60/15 176/95/15 168/92/15 121/59/15
f 126/83/17 170/93/17 169/92/17 124/59/17
f 112/78/17 163/77/17 170/93/17 126/83/17
f 121/59/15 168/92/15 171/93/15 127/83/15
f 134/84/17 174/89/17 172/94/17 130/68/17
f 105/69/15 161/80/15 173/90/15 131/67/15
f 103/88/17 158/91/17 174/89/17 134/84/17
f 131/67/15 173/90/15 175/89/15 135/84/15
f 184/89/17 177/51/17 178/70/17 183/94/17
f 182/93/17 179/73/17 180/55/17 181/92/17
f 151/73/25 150/55/25 180/55/25 179/73/25
f 174/89/26 155/51/26 177/51/26 184/89/26
f 153/70/27 172/94/27 183/94/27 178/70/27
f 170/93/28 151/73/28 179/73/28 182/93/28
f 169/92/24 170/93/24 182/93/24 181/92/24
f 155/51/25 153/70/25 178/70/25 177/51/25
f 191/90/15 185/86/15 186/51/15 192/89/15
f 189/92/15 187/55/15 188/73/15 190/93/15
f 149/55/29 152/73/29 188/73/29 187/55/29
f 171/93/21 168/92/21 189/92/21 190/93/21
f 154/86/29 156/51/29 186/51/29 185/86/29
f 168/92/30 149/55/30 187/55/30 189/92/30
f 156/51/31 175/89/31 192/89/31 186/51/31
f 173/90/32 154/86/32 185/86/32 191/90/32
