# Blender 3.6.5
# www.blender.org
mtllib Poly_SF_Outside_B_Traffic_Light_02_Green.mtl
o Cube.004
v -0.406509 2.139597 0.102236
v -0.377104 2.051383 0.102236
v -0.406509 1.963169 0.102236
v -0.494722 2.139597 0.132236
v -0.494722 2.051383 0.142236
v -0.494722 1.963169 0.132236
v -0.494722 1.933765 0.102236
v -0.494722 2.183703 0.102236
v -0.582936 2.139597 0.102236
v -0.627043 2.051383 0.102236
v -0.582936 1.963169 0.102236
vn 0.2707 0.5414 0.7960
vn 0.2316 -0.6947 0.6810
vn 0.3201 0.1067 0.9413
vn 0.3201 -0.1067 0.9413
vn -0.3000 -0.1286 0.9452
vn -0.2707 0.5414 0.7960
vn -0.2316 -0.6947 0.6810
vn -0.3000 0.1286 0.9452
vt 0.141714 0.638170
vt 0.138627 0.639714
vt 0.138627 0.638170
vt 0.138627 0.630967
vt 0.141714 0.631996
vt 0.138627 0.631996
vt 0.142743 0.635083
vt 0.138627 0.635083
vt 0.133996 0.635083
vt 0.135539 0.631996
vt 0.135539 0.638170
s 0
usemtl Material
f 1/1/1 8/2/1 4/3/1
f 7/4/2 3/5/2 6/6/2
f 2/7/3 1/1/3 4/3/3 5/8/3
f 3/5/4 2/7/4 5/8/4 6/6/4
f 6/6/5 5/8/5 10/9/5 11/10/5
f 4/3/6 8/2/6 9/11/6
f 7/4/7 6/6/7 11/10/7
f 5/8/8 4/3/8 9/11/8 10/9/8
