# Blender 3.6.5
# www.blender.org
mtllib Poly_Pot_01.mtl
o Torus
v 0.354422 0.216649 0.000014
v 0.210403 0.485077 0.000014
v 0.171902 0.493864 0.000014
v 0.166168 0.472762 0.000014
v 0.178027 0.021976 0.000014
v 0.184170 -0.000632 0.000014
v 0.225419 0.008782 0.000014
v 0.250611 0.216649 -0.250608
v 0.148775 0.485077 -0.148771
v 0.121550 0.493864 -0.121546
v 0.117495 0.472762 -0.117492
v 0.125881 0.021976 -0.125877
v 0.130225 -0.000632 -0.130221
v 0.159393 0.008782 -0.159389
v -0.000010 0.216649 -0.354418
v -0.000010 0.485077 -0.210400
v -0.000010 0.493864 -0.171898
v -0.000010 0.472762 -0.166164
v -0.000010 0.021976 -0.178023
v -0.000010 -0.000632 -0.184166
v -0.000010 0.008782 -0.225415
v -0.250632 0.216649 -0.250608
v -0.148795 0.485077 -0.148771
v -0.121570 0.493864 -0.121546
v -0.117516 0.472762 -0.117492
v -0.125902 0.021976 -0.125877
v -0.130245 -0.000632 -0.130221
v -0.159413 0.008782 -0.159389
v -0.354443 0.216649 0.000014
v -0.210424 0.485077 0.000014
v -0.171922 0.493864 0.000014
v -0.166188 0.472762 0.000014
v -0.178047 0.021976 0.000014
v -0.184190 -0.000632 0.000014
v -0.225440 0.008782 0.000014
v -0.250632 0.216649 0.250636
v -0.148795 0.485077 0.148799
v -0.121570 0.493864 0.121574
v -0.117516 0.472762 0.117520
v -0.125902 0.021976 0.125905
v -0.130245 -0.000632 0.130249
v -0.159413 0.008782 0.159417
v -0.000010 0.216649 0.354446
v -0.000010 0.485077 0.210428
v -0.000010 0.493864 0.171926
v -0.000010 0.472762 0.166192
v -0.000010 0.021976 0.178051
v -0.000010 -0.000632 0.184194
v -0.000010 0.008782 0.225444
v 0.250611 0.216649 0.250636
v 0.148775 0.485077 0.148799
v 0.121550 0.493864 0.121574
v 0.117495 0.472762 0.117520
v 0.125881 0.021976 0.125905
v 0.130225 -0.000632 0.130249
v 0.159392 0.008782 0.159417
v 0.337300 0.334301 0.000014
v 0.238504 0.334301 -0.238500
v -0.000010 0.334301 -0.337296
v -0.238524 0.334301 -0.238500
v -0.337320 0.334301 0.000014
v -0.238524 0.334301 0.238528
v -0.000010 0.334301 0.337324
v 0.238504 0.334301 0.238528
v 0.316697 0.112716 0.000014
v -0.316718 0.112716 0.000014
v -0.223956 0.112716 -0.223932
v -0.000010 0.112716 0.316721
v 0.223936 0.112716 -0.223932
v -0.223956 0.112716 0.223960
v -0.000010 0.112716 -0.316693
v 0.223936 0.112716 0.223960
v 0.186830 0.432243 0.000014
v 0.132106 0.432243 -0.132102
v -0.000010 0.432243 -0.186827
v -0.132127 0.432243 -0.132102
v -0.186851 0.432243 0.000014
v -0.132127 0.432243 0.132130
v -0.000010 0.432243 0.186855
v 0.132106 0.432243 0.132130
v 0.151288 0.414630 0.000014
v 0.106974 0.414630 -0.106970
v -0.000010 0.414630 -0.151284
v -0.106994 0.414630 -0.106970
v -0.151309 0.414630 0.000014
v -0.106994 0.414630 0.106998
v -0.000010 0.414630 0.151313
v 0.106974 0.414630 0.106998
v 0.285469 0.216145 0.000014
v 0.201854 0.216145 -0.201850
v -0.000010 0.216145 -0.285465
v -0.201875 0.216145 -0.201850
v -0.285490 0.216145 0.000014
v -0.201875 0.216145 0.201878
v -0.000010 0.216145 0.285494
v 0.201854 0.216145 0.201879
vn 0.8542 -0.3811 -0.3538
vn 0.2216 0.9708 -0.0918
vn -0.8961 0.2435 0.3712
vn -0.8226 0.4552 0.3407
vn -0.8961 -0.2435 0.3712
vn 0.2216 -0.9708 -0.0918
vn 0.8759 -0.3179 -0.3628
vn 0.3538 -0.3811 -0.8542
vn 0.0918 0.9708 -0.2216
vn -0.3712 0.2435 0.8961
vn -0.3407 0.4552 0.8226
vn -0.3712 -0.2435 0.8961
vn 0.0918 -0.9708 -0.2216
vn 0.3628 -0.3179 -0.8759
vn -0.3538 -0.3811 -0.8542
vn -0.0918 0.9708 -0.2216
vn 0.3712 0.2435 0.8961
vn 0.3407 0.4552 0.8226
vn 0.3712 -0.2435 0.8961
vn -0.0918 -0.9708 -0.2216
vn -0.3628 -0.3179 -0.8759
vn -0.8542 -0.3811 -0.3538
vn -0.2216 0.9708 -0.0918
vn 0.8961 0.2435 0.3712
vn 0.8226 0.4552 0.3407
vn 0.8961 -0.2435 0.3712
vn -0.2216 -0.9708 -0.0918
vn -0.8759 -0.3179 -0.3628
vn -0.8542 -0.3811 0.3538
vn -0.2216 0.9708 0.0918
vn 0.8961 0.2435 -0.3712
vn 0.8226 0.4552 -0.3407
vn 0.8961 -0.2435 -0.3712
vn -0.2216 -0.9708 0.0918
vn -0.8759 -0.3179 0.3628
vn -0.3538 -0.3811 0.8542
vn -0.0918 0.9708 0.2216
vn 0.3712 0.2435 -0.8961
vn 0.3407 0.4552 -0.8226
vn 0.3712 -0.2435 -0.8961
vn -0.0918 -0.9708 0.2216
vn -0.3628 -0.3179 0.8759
vn 0.3538 -0.3811 0.8542
vn 0.0918 0.9708 0.2216
vn -0.3712 0.2435 -0.8961
vn -0.3407 0.4552 -0.8226
vn -0.3712 -0.2435 -0.8961
vn 0.0918 -0.9708 0.2216
vn 0.3628 -0.3179 0.8759
vn 0.8542 -0.3811 0.3538
vn 0.2216 0.9708 0.0918
vn -0.8961 0.2435 -0.3712
vn -0.8226 0.4552 -0.3407
vn -0.8961 -0.2435 -0.3712
vn 0.2216 -0.9708 0.0918
vn 0.8759 -0.3179 0.3628
vn 0.9156 0.1333 0.3793
vn 0.3793 0.1333 0.9156
vn -0.3793 0.1333 0.9156
vn -0.9156 0.1333 0.3793
vn -0.9156 0.1333 -0.3793
vn -0.3793 0.1333 -0.9156
vn 0.3793 0.1333 -0.9156
vn 0.9156 0.1333 -0.3793
vn 0.7174 -0.6301 0.2972
vn 0.2972 -0.6301 0.7174
vn -0.2972 -0.6301 0.7174
vn -0.7174 -0.6301 0.2972
vn -0.7174 -0.6301 -0.2972
vn -0.2972 -0.6301 -0.7174
vn 0.2972 -0.6301 -0.7174
vn 0.7174 -0.6301 -0.2972
vn 0.5321 0.8175 0.2204
vn 0.2204 0.8175 0.5321
vn -0.2204 0.8175 0.5321
vn -0.5321 0.8175 0.2204
vn -0.5321 0.8175 -0.2204
vn -0.2204 0.8175 -0.5321
vn 0.2204 0.8175 -0.5321
vn 0.5321 0.8175 -0.2204
vn -0.0000 -1.0000 -0.0000
vn -0.8991 0.2301 -0.3724
vn -0.3724 0.2301 -0.8991
vn 0.3724 0.2301 -0.8991
vn 0.8991 0.2301 -0.3724
vn 0.8991 0.2301 0.3724
vn 0.3724 0.2301 0.8991
vn -0.3724 0.2301 0.8991
vn -0.8991 0.2301 0.3724
vn -0.7836 -0.5297 -0.3246
vn -0.3246 -0.5297 -0.7836
vn 0.3246 -0.5297 -0.7836
vn 0.7836 -0.5297 -0.3246
vn 0.7836 -0.5297 0.3246
vn 0.3246 -0.5297 0.7836
vn -0.3246 -0.5297 0.7836
vn -0.7836 -0.5297 0.3246
vt 0.526031 0.839344
vt 0.535441 0.839344
vt 0.535441 0.847073
vt 0.526031 0.847073
vt 0.535441 0.816033
vt 0.526031 0.816033
vt 0.526031 0.831173
vt 0.535441 0.831173
vt 0.535240 0.821366
vt 0.525830 0.821366
s 0
usemtl Material
f 73/1/1 74/2/1 9/3/1 2/4/1
f 2/4/2 9/3/2 10/5/2 3/6/2
f 3/6/3 10/5/3 11/3/3 4/4/3
f 89/1/4 90/2/4 12/3/4 5/4/4
f 5/4/5 12/3/5 13/5/5 6/6/5
f 6/6/6 13/5/6 14/3/6 7/4/6
f 65/7/7 69/8/7 8/9/7 1/10/7
f 74/2/8 75/1/8 16/4/8 9/3/8
f 9/3/9 16/4/9 17/6/9 10/5/9
f 10/5/10 17/6/10 18/4/10 11/3/10
f 90/2/11 91/1/11 19/4/11 12/3/11
f 12/3/12 19/4/12 20/6/12 13/5/12
f 13/5/13 20/6/13 21/4/13 14/3/13
f 69/8/14 71/7/14 15/10/14 8/9/14
f 75/1/15 76/2/15 23/3/15 16/4/15
f 16/4/16 23/3/16 24/5/16 17/6/16
f 17/6/17 24/5/17 25/3/17 18/4/17
f 91/1/18 92/2/18 26/3/18 19/4/18
f 19/4/19 26/3/19 27/5/19 20/6/19
f 20/6/20 27/5/20 28/3/20 21/4/20
f 71/7/21 67/8/21 22/9/21 15/10/21
f 76/2/22 77/1/22 30/4/22 23/3/22
f 23/3/23 30/4/23 31/6/23 24/5/23
f 24/5/24 31/6/24 32/4/24 25/3/24
f 92/2/25 93/1/25 33/4/25 26/3/25
f 26/3/26 33/4/26 34/6/26 27/5/26
f 27/5/27 34/6/27 35/4/27 28/3/27
f 67/8/28 66/7/28 29/10/28 22/9/28
f 77/1/29 78/2/29 37/3/29 30/4/29
f 30/4/30 37/3/30 38/5/30 31/6/30
f 31/6/31 38/5/31 39/3/31 32/4/31
f 93/1/32 94/2/32 40/3/32 33/4/32
f 33/4/33 40/3/33 41/5/33 34/6/33
f 34/6/34 41/5/34 42/3/34 35/4/34
f 66/7/35 70/8/35 36/9/35 29/10/35
f 78/2/36 79/1/36 44/4/36 37/3/36
f 37/3/37 44/4/37 45/6/37 38/5/37
f 38/5/38 45/6/38 46/4/38 39/3/38
f 94/2/39 95/1/39 47/4/39 40/3/39
f 40/3/40 47/4/40 48/6/40 41/5/40
f 41/5/41 48/6/41 49/4/41 42/3/41
f 70/8/42 68/7/42 43/10/42 36/9/42
f 79/1/43 80/2/43 51/3/43 44/4/43
f 44/4/44 51/3/44 52/5/44 45/6/44
f 45/6/45 52/5/45 53/3/45 46/4/45
f 95/1/46 96/2/46 54/3/46 47/4/46
f 47/4/47 54/3/47 55/5/47 48/6/47
f 48/6/48 55/5/48 56/3/48 49/4/48
f 68/7/49 72/8/49 50/9/49 43/10/49
f 80/2/50 73/1/50 2/4/50 51/3/50
f 51/3/51 2/4/51 3/6/51 52/5/51
f 52/5/52 3/6/52 4/4/52 53/3/52
f 96/2/53 89/1/53 5/4/53 54/3/53
f 54/3/54 5/4/54 6/6/54 55/5/54
f 55/5/55 6/6/55 7/4/55 56/3/55
f 72/8/56 65/7/56 1/10/56 50/9/56
f 50/9/57 1/10/57 57/7/57 64/8/57
f 43/10/58 50/9/58 64/8/58 63/7/58
f 36/9/59 43/10/59 63/7/59 62/8/59
f 29/10/60 36/9/60 62/8/60 61/7/60
f 22/9/61 29/10/61 61/7/61 60/8/61
f 15/10/62 22/9/62 60/8/62 59/7/62
f 8/9/63 15/10/63 59/7/63 58/8/63
f 1/10/64 8/9/64 58/8/64 57/7/64
f 56/3/65 7/4/65 65/7/65 72/8/65
f 49/4/66 56/3/66 72/8/66 68/7/66
f 42/3/67 49/4/67 68/7/67 70/8/67
f 35/4/68 42/3/68 70/8/68 66/7/68
f 28/3/69 35/4/69 66/7/69 67/8/69
f 21/4/70 28/3/70 67/8/70 71/7/70
f 14/3/71 21/4/71 71/7/71 69/8/71
f 7/4/72 14/3/72 69/8/72 65/7/72
f 64/8/73 57/7/73 73/1/73 80/2/73
f 63/7/74 64/8/74 80/2/74 79/1/74
f 62/8/75 63/7/75 79/1/75 78/2/75
f 61/7/76 62/8/76 78/2/76 77/1/76
f 60/8/77 61/7/77 77/1/77 76/2/77
f 59/7/78 60/8/78 76/2/78 75/1/78
f 58/8/79 59/7/79 75/1/79 74/2/79
f 57/7/80 58/8/80 74/2/80 73/1/80
f 5/6/81 54/6/81 47/6/81 40/6/81 33/6/81 26/6/81 19/6/81 12/6/81
f 20/6/81 13/6/81 6/6/81 55/6/81 48/6/81 41/6/81 34/6/81 27/6/81
f 53/5/82 4/6/82 81/7/82 88/8/82
f 46/6/83 53/5/83 88/8/83 87/7/83
f 39/5/84 46/6/84 87/7/84 86/8/84
f 32/6/85 39/5/85 86/8/85 85/7/85
f 25/5/86 32/6/86 85/7/86 84/8/86
f 18/6/87 25/5/87 84/8/87 83/7/87
f 11/5/88 18/6/88 83/7/88 82/8/88
f 4/6/89 11/5/89 82/8/89 81/7/89
f 88/8/90 81/7/90 89/1/90 96/2/90
f 87/7/91 88/8/91 96/2/91 95/1/91
f 86/8/92 87/7/92 95/1/92 94/2/92
f 85/7/93 86/8/93 94/2/93 93/1/93
f 84/8/94 85/7/94 93/1/94 92/2/94
f 83/7/95 84/8/95 92/2/95 91/1/95
f 82/8/96 83/7/96 91/1/96 90/2/96
f 81/7/97 82/8/97 90/2/97 89/1/97
o Cylinder
v -0.000010 0.013239 -0.203711
v -0.000010 0.039879 -0.227122
v 0.144045 0.013239 -0.144041
v 0.160599 0.039879 -0.160595
v 0.203715 0.013239 0.000014
v 0.227126 0.039879 0.000014
v 0.144045 0.013239 0.144069
v 0.160599 0.039879 0.160623
v -0.000010 0.013239 0.203739
v -0.000010 0.039879 0.227150
v -0.144065 0.013239 0.144069
v -0.160619 0.039879 0.160623
v -0.203735 0.013239 0.000014
v -0.227146 0.039879 0.000014
v -0.144065 0.013239 -0.144041
v -0.160620 0.039879 -0.160595
vn 0.2971 -0.6303 -0.7172
vn 0.7172 -0.6303 -0.2971
vn 0.7172 -0.6303 0.2971
vn 0.2971 -0.6303 0.7172
vn -0.2971 -0.6303 0.7172
vn -0.7172 -0.6303 0.2971
vn -0.0000 1.0000 -0.0000
vn -0.7172 -0.6303 -0.2971
vn -0.2971 -0.6303 -0.7172
vn -0.0000 -1.0000 -0.0000
vt 0.529866 0.834247
vt 0.529866 0.835189
vt 0.538855 0.832511
vt 0.537929 0.831844
vt 0.542578 0.826044
vt 0.541268 0.826044
vt 0.538855 0.819577
vt 0.537929 0.820244
vt 0.529866 0.816899
vt 0.529866 0.817841
vt 0.520878 0.819577
vt 0.521804 0.820244
vt 0.517154 0.826044
vt 0.518465 0.826044
vt 0.520878 0.832511
vt 0.521804 0.831844
s 0
usemtl Material
f 97/11/98 98/12/98 100/13/98 99/14/98
f 99/14/99 100/13/99 102/15/99 101/16/99
f 101/16/100 102/15/100 104/17/100 103/18/100
f 103/18/101 104/17/101 106/19/101 105/20/101
f 105/20/102 106/19/102 108/21/102 107/22/102
f 107/22/103 108/21/103 110/23/103 109/24/103
f 100/13/104 98/12/104 112/25/104 110/23/104 108/21/104 106/19/104 104/17/104 102/15/104
f 109/24/105 110/23/105 112/25/105 111/26/105
f 111/26/106 112/25/106 98/12/106 97/11/106
f 97/11/107 99/14/107 101/16/107 103/18/107 105/20/107 107/22/107 109/24/107 111/26/107
