# Blender 3.6.5
# www.blender.org
mtllib Poly_SF_Outside_B_Plant_01.mtl
o Cube.006
v -0.140000 0.000000 0.150000
v -0.190000 0.380000 0.200000
v -0.140000 0.000000 -0.130000
v -0.190000 0.380000 -0.180000
v 0.140000 0.000000 0.150000
v 0.190000 0.380000 0.200000
v 0.140000 0.000000 -0.130000
v 0.190000 0.380000 -0.180000
v -0.190000 0.302847 0.200000
v -0.190000 0.302847 -0.180000
v 0.190000 0.302847 -0.180000
v 0.190000 0.302847 0.200000
v -0.175899 0.302399 -0.165899
v 0.175899 0.302399 -0.165899
v 0.175899 0.302399 0.185899
v -0.175899 0.302399 0.185899
v -0.140000 0.000000 0.010000
v -0.190000 0.380000 0.010000
v 0.140000 0.000000 0.010000
v 0.190000 0.380000 0.010000
v 0.190000 0.302847 0.010000
v -0.190000 0.302847 0.010000
v -0.175899 0.302399 0.010000
v 0.175899 0.302399 0.010000
v 0.000000 0.000000 -0.130000
v 0.000000 0.380000 -0.180000
v 0.000000 0.000000 0.150000
v 0.000000 0.380000 0.200000
v 0.000000 0.302847 0.200000
v 0.000000 0.302847 -0.180000
v -0.000000 0.302399 -0.165899
v -0.000000 0.302399 0.185899
v 0.000000 0.380000 0.010000
v 0.000000 0.000000 0.010000
v -0.190000 0.341424 0.200000
v -0.190000 0.341424 -0.180000
v 0.190000 0.341424 -0.180000
v 0.190000 0.341424 0.200000
v 0.190000 0.341424 0.010000
v -0.190000 0.341424 0.010000
v 0.000000 0.341424 0.200000
v 0.000000 0.341424 -0.180000
vn -1.0000 -0.0000 -0.0000
vn -0.0000 -0.0000 -1.0000
vn 1.0000 -0.0000 -0.0000
vn -0.0000 -0.0000 1.0000
vn -0.0000 -1.0000 -0.0000
vn -0.0000 1.0000 -0.0000
vn -0.0000 -0.9995 0.0318
vn 0.0318 -0.9995 -0.0000
vn -0.0000 -0.9995 -0.0318
vn -0.0318 -0.9995 -0.0000
vn -0.9930 -0.1179 -0.0000
vn -0.0000 -0.1179 -0.9930
vn 0.9930 -0.1179 -0.0000
vn -0.0000 -0.1179 0.9930
vt 0.531243 0.834512
vt 0.531243 0.832182
vt 0.513129 0.832182
vt 0.513129 0.834512
vt 0.549444 0.832182
vt 0.549444 0.834512
vt 0.531231 0.815485
vt 0.543148 0.815485
vt 0.543148 0.815486
vt 0.531240 0.815486
vt 0.531231 0.846816
vt 0.549430 0.846816
vt 0.549430 0.833514
vt 0.531240 0.833514
vt 0.531248 0.830073
vt 0.531248 0.831403
vt 0.517103 0.830664
vt 0.517103 0.830073
vt 0.531248 0.830280
vt 0.531248 0.831488
vt 0.545393 0.830664
vt 0.545393 0.830073
vt 0.531248 0.830073
vt 0.531248 0.831403
vt 0.545393 0.830664
vt 0.545393 0.830073
vt 0.531248 0.830280
vt 0.531248 0.831488
vt 0.517103 0.830663
vt 0.517103 0.830073
vt 0.531248 0.815485
vt 0.517103 0.815485
vt 0.531240 0.815486
vt 0.545393 0.815485
vt 0.545393 0.815486
vt 0.517103 0.815486
vt 0.517103 0.830073
vt 0.545393 0.830073
vt 0.545393 0.830664
vt 0.517103 0.830664
vt 0.519315 0.815485
vt 0.519315 0.815486
vt 0.513129 0.832182
vt 0.513129 0.834512
vt 0.531243 0.834512
vt 0.531243 0.832182
vt 0.549444 0.832182
vt 0.549444 0.834512
s 0
usemtl regular
f 40/1/1 18/2/1 4/3/1 36/4/1
f 42/1/2 26/2/2 8/5/2 37/6/2
f 39/1/3 20/2/3 6/5/3 38/6/3
f 41/1/4 28/2/4 2/3/4 35/4/4
f 34/7/5 19/8/5 5/9/5 27/10/5
f 33/11/6 18/12/6 2/13/6 28/14/6
f 32/15/7 29/16/7 9/17/7 16/18/7
f 24/19/8 21/20/8 12/21/8 15/22/8
f 31/23/9 30/24/9 11/25/9 14/26/9
f 23/27/10 22/28/10 10/29/10 13/30/10
f 17/31/11 23/27/11 13/30/11 3/32/11
f 25/33/12 31/23/12 14/26/12 7/34/12
f 19/31/13 24/19/13 15/22/13 5/35/13
f 27/10/14 32/15/14 16/18/14 1/36/14
f 7/32/13 14/37/13 24/19/13 19/31/13
f 1/35/11 16/38/11 23/27/11 17/31/11
f 16/38/10 9/39/10 22/28/10 23/27/10
f 14/37/8 11/40/8 21/20/8 24/19/8
f 26/14/6 4/13/6 18/12/6 33/11/6
f 25/33/5 7/8/5 19/8/5 34/7/5
f 37/4/3 8/3/3 20/2/3 39/1/3
f 35/6/1 2/5/1 18/2/1 40/1/1
f 3/41/5 25/33/5 34/7/5 17/41/5
f 8/13/6 26/14/6 33/11/6 20/12/6
f 5/35/14 15/22/14 32/15/14 27/10/14
f 3/32/12 13/30/12 31/23/12 25/33/12
f 13/30/9 10/29/9 30/24/9 31/23/9
f 15/22/7 12/21/7 29/16/7 32/15/7
f 20/12/6 33/11/6 28/14/6 6/13/6
f 17/41/5 34/7/5 27/10/5 1/42/5
f 38/6/4 6/5/4 28/2/4 41/1/4
f 36/4/2 4/3/2 26/2/2 42/1/2
f 10/43/2 36/44/2 42/45/2 30/46/2
f 12/47/4 38/48/4 41/45/4 29/46/4
f 9/47/1 35/48/1 40/45/1 22/46/1
f 11/43/3 37/44/3 39/45/3 21/46/3
f 29/46/4 41/45/4 35/44/4 9/43/4
f 21/46/3 39/45/3 38/48/3 12/47/3
f 30/46/2 42/45/2 37/48/2 11/47/2
f 22/46/1 40/45/1 36/44/1 10/43/1
o Cube.001
v 0.080000 0.370000 0.000000
v 0.058103 0.368118 0.036944
v 0.090000 1.010000 -0.050000
v 0.090000 1.010000 -0.040000
v 0.160000 0.690000 -0.040000
v 0.110000 0.690000 0.010000
v 0.120000 0.850000 0.000000
v 0.150000 0.850000 -0.060000
v 0.130000 0.530000 -0.020000
v 0.050000 0.530000 0.020000
v 0.030000 0.370000 -0.060000
v 0.090000 1.010000 -0.060000
v 0.110000 0.690000 -0.100000
v 0.130000 0.850000 -0.090000
v 0.070000 0.530000 -0.090000
v 0.080000 0.370000 0.000000
v 0.040000 0.370000 0.030000
v 0.090000 1.010000 -0.050000
v 0.090000 1.010000 -0.040000
v 0.150000 0.690000 -0.040000
v 0.100000 0.690000 0.010000
v 0.110000 0.850000 0.000000
v 0.140000 0.850000 -0.050000
v 0.120000 0.530000 -0.020000
v 0.040000 0.530000 0.020000
v 0.020000 0.370000 -0.060000
v 0.080000 1.010000 -0.060000
v 0.110000 0.690000 -0.100000
v 0.120000 0.850000 -0.090000
v 0.060000 0.530000 -0.090000
v -0.050000 0.370000 -0.050000
v 0.010000 0.360000 -0.060000
v -0.010000 1.050000 -0.030000
v -0.010000 1.050000 -0.030000
v -0.110000 0.700000 -0.030000
v -0.070000 0.690000 -0.080000
v -0.100000 0.850000 -0.070000
v -0.110000 0.850000 -0.030000
v -0.090000 0.530000 -0.040000
v -0.010000 0.530000 -0.080000
v -0.050000 0.370000 0.020000
v -0.010000 1.050000 -0.020000
v -0.070000 0.690000 0.010000
v -0.060000 0.850000 0.010000
v -0.070000 0.530000 0.030000
v -0.040000 0.370000 -0.050000
v 0.010000 0.370000 -0.050000
v -0.010000 1.050000 -0.030000
v -0.010000 1.050000 -0.030000
v -0.100000 0.700000 -0.030000
v -0.060000 0.690000 -0.080000
v -0.090000 0.850000 -0.070000
v -0.100000 0.850000 -0.030000
v -0.080000 0.530000 -0.040000
v -0.010000 0.530000 -0.070000
v -0.040000 0.370000 0.020000
v -0.010000 1.050000 -0.020000
v -0.070000 0.690000 0.010000
v -0.050000 0.850000 0.000000
v -0.060000 0.530000 0.020000
vn 0.8815 0.2833 0.3778
vn 0.5673 -0.0827 0.8194
vn 0.8075 0.0551 0.5873
vn 0.6024 0.0132 0.7981
vn 0.7444 -0.2219 -0.6298
vn 0.8480 0.3180 -0.4240
vn 0.7886 -0.0438 -0.6134
vn 0.7280 -0.3010 -0.6160
vn -0.8674 -0.2440 -0.4337
vn -0.5673 0.0827 -0.8194
vn -0.7803 -0.0390 -0.6242
vn -0.5038 -0.0180 -0.8636
vn -0.7680 0.2474 0.5908
vn -0.8237 -0.2780 0.4942
vn -0.8575 -0.0000 0.5145
vn -0.7058 0.2782 0.6515
vn -0.0000 0.0624 -0.9981
vn -0.0000 -1.0000 -0.0000
vn -0.2345 0.0752 0.9692
vn -0.0683 -0.9935 -0.0911
vn -0.0000 0.1843 -0.9829
vn -0.0000 0.0624 0.9981
vn -0.0000 1.0000 -0.0000
vn -0.0000 0.2425 0.9701
vn -0.0000 -0.0624 -0.9981
vn -0.0000 -0.1843 -0.9829
vn -0.8729 0.4364 -0.2182
vn -0.6020 -0.1220 -0.7891
vn -0.8753 -0.0693 -0.4786
vn -0.3407 -0.0903 -0.9358
vn -0.8787 -0.0388 0.4758
vn -0.6738 0.3032 0.6738
vn -0.6629 0.0214 0.7484
vn -0.9717 -0.1909 0.1388
vn 0.8891 -0.4001 0.2223
vn 0.5910 0.1254 0.7969
vn 0.8753 0.0693 0.4786
vn 0.2418 0.0756 0.9674
vn 0.8947 0.0813 -0.4392
vn 0.6072 -0.2353 -0.7589
vn 0.6523 -0.0664 -0.7550
vn 0.9710 0.1867 -0.1494
vn 0.7064 -0.0442 0.7064
vn 0.9919 0.1134 -0.0567
vn -0.0000 -0.7071 0.7071
vn 0.7053 -0.0705 0.7054
vn 0.6905 0.2158 -0.6904
vn -0.0000 0.1961 -0.9806
vn 0.7044 0.0880 0.7044
vn 0.4470 0.0279 0.8941
vt 0.514268 0.891465
vt 0.512028 0.905971
vt 0.513853 0.906082
vt 0.519636 0.891659
vt 0.521405 0.868608
vt 0.515366 0.881619
vt 0.523826 0.881749
vt 0.529436 0.868673
vt 0.521405 0.849461
vt 0.529436 0.849461
vt 0.529436 0.868608
vt 0.523991 0.881619
vt 0.519740 0.891465
vt 0.514071 0.905971
s 0
usemtl regular
f 50/49/15 45/50/15 46/51/15 49/52/15
f 51/53/16 47/54/16 48/55/16 52/56/16
f 47/54/17 50/49/17 49/52/17 48/55/17
f 43/57/18 51/53/18 52/56/18 44/58/18
f 51/53/19 57/59/19 55/60/19 47/54/19
f 50/49/20 56/61/20 54/62/20 45/50/20
f 47/54/21 55/60/21 56/61/21 50/49/21
f 43/57/22 53/58/22 57/59/22 51/53/22
f 65/49/23 64/52/23 61/51/23 60/50/23
f 66/53/24 67/56/24 63/55/24 62/54/24
f 62/54/25 63/55/25 64/52/25 65/49/25
f 58/57/26 59/58/26 67/56/26 66/53/26
f 66/53/27 62/54/27 70/60/27 72/59/27
f 65/49/28 60/50/28 69/62/28 71/61/28
f 62/54/29 65/49/29 71/61/29 70/60/29
f 58/57/30 66/53/30 72/59/30 68/58/30
f 56/61/31 55/60/31 70/60/31 71/61/31
f 53/58/32 43/57/32 58/57/32 68/58/32
f 44/58/33 52/56/33 67/56/33 59/58/33
f 43/57/34 44/58/34 59/58/34 58/57/34
f 54/62/35 56/61/35 71/61/35 69/62/35
f 52/56/36 48/55/36 63/55/36 67/56/36
f 45/50/37 54/62/37 69/62/37 60/50/37
f 49/52/38 46/51/38 61/51/38 64/52/38
f 55/60/39 57/59/39 72/59/39 70/60/39
f 57/59/40 53/58/40 68/58/40 72/59/40
f 46/51/37 45/50/37 60/50/37 61/51/37
f 48/55/36 49/52/36 64/52/36 63/55/36
f 80/49/41 75/50/41 76/51/41 79/52/41
f 81/53/42 77/54/42 78/55/42 82/56/42
f 77/54/43 80/49/43 79/52/43 78/55/43
f 73/57/44 81/53/44 82/56/44 74/58/44
f 81/53/45 87/59/45 85/60/45 77/54/45
f 80/49/46 86/61/46 84/62/46 75/50/46
f 77/54/47 85/60/47 86/61/47 80/49/47
f 73/57/48 83/58/48 87/59/48 81/53/48
f 95/49/49 94/52/49 91/51/49 90/50/49
f 96/53/50 97/56/50 93/55/50 92/54/50
f 92/54/51 93/55/51 94/52/51 95/49/51
f 88/57/52 89/58/52 97/56/52 96/53/52
f 96/53/53 92/54/53 100/60/53 102/59/53
f 95/49/54 90/50/54 99/62/54 101/61/54
f 92/54/55 95/49/55 101/61/55 100/60/55
f 88/57/56 96/53/56 102/59/56 98/58/56
f 86/61/57 85/60/57 100/60/57 101/61/57
f 83/58/32 73/57/32 88/57/32 98/58/32
f 74/58/58 82/56/58 97/56/58 89/58/58
f 73/57/59 74/58/59 89/58/59 88/57/59
f 84/62/60 86/61/60 101/61/60 99/62/60
f 82/56/61 78/55/61 93/55/61 97/56/61
f 75/50/37 84/62/37 99/62/37 90/50/37
f 79/52/62 76/51/62 91/51/62 94/52/62
f 85/60/63 87/59/63 102/59/63 100/60/63
f 87/59/64 83/58/64 98/58/64 102/59/64
f 76/51/37 75/50/37 90/50/37 91/51/37
f 78/55/31 79/52/31 94/52/31 93/55/31
o Cube.002
v 0.062769 0.371436 0.015477
v 0.001680 0.374668 0.028856
v 0.080000 0.840000 0.030000
v 0.072239 0.841149 0.026741
v 0.080000 0.600000 0.020000
v 0.030000 0.600000 0.000000
v 0.040000 0.720000 0.000000
v 0.080000 0.720000 0.030000
v 0.096912 0.484849 0.006203
v 0.019796 0.492866 0.020432
v 0.050000 0.370000 -0.040000
v 0.090000 0.840000 0.020000
v 0.100000 0.600000 -0.030000
v 0.100000 0.720000 0.000000
v 0.090000 0.490000 -0.050000
v 0.050000 0.370000 0.010000
v 0.000000 0.370000 0.010000
v 0.080000 0.840000 0.020000
v 0.070000 0.840000 0.020000
v 0.080000 0.600000 0.010000
v 0.030000 0.600000 -0.010000
v 0.040000 0.720000 0.000000
v 0.080000 0.720000 0.020000
v 0.090000 0.490000 0.000000
v 0.020000 0.490000 0.010000
v 0.040000 0.370000 -0.040000
v 0.090000 0.840000 0.010000
v 0.090000 0.600000 -0.030000
v 0.090000 0.720000 0.000000
v 0.080000 0.490000 -0.050000
vn -0.5716 -0.0146 0.8204
vn -0.0435 0.0285 0.9986
vn -0.4856 -0.0162 0.8740
vn 0.1982 0.0301 0.9797
vn 0.9923 0.0120 0.1229
vn 0.7999 -0.0167 0.5999
vn 0.8920 -0.0743 0.4460
vn 0.9341 -0.3112 -0.1750
vn 0.3712 0.0309 -0.9280
vn 0.0830 -0.0453 -0.9955
vn 0.4054 0.0591 -0.9122
vn -0.0830 -0.0208 -0.9963
vn -1.0000 -0.0000 -0.0000
vn -0.8318 0.0231 -0.5545
vn -0.9474 0.0526 -0.3158
vn -0.9275 0.3246 0.1855
vn -0.0000 0.2425 -0.9701
vn 0.0629 -0.9980 -0.0000
vn -0.9873 0.1583 0.0090
vn 0.0010 -0.9701 0.2427
vn 0.7023 0.1170 -0.7022
vn -0.9958 0.0885 -0.0224
vn -0.0000 1.0000 -0.0000
vn -0.9412 0.1886 0.2804
vn -0.0000 0.1789 -0.9839
vn -0.0000 -0.0830 -0.9965
vn 0.0787 0.9938 -0.0787
vn -0.9965 0.0830 -0.0000
vt 0.514268 0.891465
vt 0.512028 0.905971
vt 0.513853 0.906082
vt 0.519636 0.891659
vt 0.521405 0.868608
vt 0.515366 0.881619
vt 0.523826 0.881749
vt 0.529436 0.868673
vt 0.521405 0.849461
vt 0.529436 0.849461
vt 0.529436 0.868608
vt 0.523991 0.881619
vt 0.519740 0.891465
vt 0.514071 0.905971
s 0
usemtl regular
f 110/63/65 105/64/65 106/65/65 109/66/65
f 111/67/66 107/68/66 108/69/66 112/70/66
f 107/68/67 110/63/67 109/66/67 108/69/67
f 103/71/68 111/67/68 112/70/68 104/72/68
f 111/67/69 117/73/69 115/74/69 107/68/69
f 110/63/70 116/75/70 114/76/70 105/64/70
f 107/68/71 115/74/71 116/75/71 110/63/71
f 103/71/72 113/72/72 117/73/72 111/67/72
f 125/63/73 124/66/73 121/65/73 120/64/73
f 126/67/74 127/70/74 123/69/74 122/68/74
f 122/68/75 123/69/75 124/66/75 125/63/75
f 118/71/76 119/72/76 127/70/76 126/67/76
f 126/67/77 122/68/77 130/74/77 132/73/77
f 125/63/78 120/64/78 129/76/78 131/75/78
f 122/68/79 125/63/79 131/75/79 130/74/79
f 118/71/80 126/67/80 132/73/80 128/72/80
f 116/75/81 115/74/81 130/74/81 131/75/81
f 113/72/82 103/71/82 118/71/82 128/72/82
f 104/72/83 112/70/83 127/70/83 119/72/83
f 103/71/84 104/72/84 119/72/84 118/71/84
f 114/76/85 116/75/85 131/75/85 129/76/85
f 112/70/86 108/69/86 123/69/86 127/70/86
f 105/64/87 114/76/87 129/76/87 120/64/87
f 109/66/88 106/65/88 121/65/88 124/66/88
f 115/74/89 117/73/89 132/73/89 130/74/89
f 117/73/90 113/72/90 128/72/90 132/73/90
f 106/65/91 105/64/91 120/64/91 121/65/91
f 108/69/92 109/66/92 124/66/92 123/69/92
o Cube.003
v -0.040000 0.370000 0.030000
v -0.074190 0.364767 0.000813
v -0.080000 0.900000 0.180000
v -0.090931 0.900072 0.175974
v -0.070000 0.680000 0.160000
v -0.134690 0.678752 0.072656
v -0.114399 0.808262 0.146992
v -0.080000 0.810000 0.180000
v -0.050000 0.530000 0.120000
v -0.110000 0.530000 0.030000
v 0.000000 0.370000 0.010000
v -0.073027 0.901860 0.172163
v -0.010000 0.680000 0.130000
v -0.040000 0.810000 0.150000
v 0.000000 0.530000 0.060000
v -0.040000 0.370000 0.030000
v -0.070000 0.370000 -0.010000
v -0.081617 0.909660 0.174420
v -0.090000 0.910000 0.170000
v -0.070000 0.680000 0.150000
v -0.130540 0.682816 0.067580
v -0.110000 0.810000 0.140000
v -0.080000 0.810000 0.170000
v -0.050000 0.530000 0.110000
v -0.103601 0.531913 0.020098
v 0.000000 0.370000 0.010000
v -0.077477 0.910679 0.169841
v -0.010000 0.680000 0.120000
v -0.050000 0.810000 0.140000
v 0.000000 0.530000 0.050000
vn -0.6312 -0.0420 0.7745
vn -0.7865 -0.2712 0.5549
vn -0.7544 -0.1976 0.6260
vn -0.7359 -0.3219 0.5957
vn 0.6184 -0.2153 0.7558
vn 0.6267 0.0189 0.7790
vn 0.5138 -0.0527 0.8563
vn 0.6352 -0.2928 0.7147
vn 0.6665 0.0666 -0.7425
vn 0.8043 0.2781 -0.5251
vn 0.7671 0.1889 -0.6131
vn 0.8077 0.2858 -0.5156
vn -0.6184 0.2153 -0.7558
vn -0.7117 0.0167 -0.7022
vn -0.5546 0.0213 -0.8319
vn -0.6431 0.2512 -0.7234
vn 0.8544 0.2958 -0.4272
vn -0.0000 1.0000 -0.0000
vn -0.8720 -0.0981 -0.4796
vn 0.3756 -0.8829 -0.2817
vn 0.7235 0.3826 -0.5746
vn -0.8226 0.0291 -0.5678
vn 0.5992 0.4729 0.6460
vn -0.9523 0.2633 -0.1545
vn 0.9978 0.0665 -0.0000
vn 1.0000 -0.0000 -0.0000
vn -0.3458 0.4677 0.8135
vn -0.8329 0.3685 -0.4128
vt 0.514268 0.891465
vt 0.512028 0.905971
vt 0.513853 0.906082
vt 0.519636 0.891659
vt 0.521405 0.868608
vt 0.515366 0.881619
vt 0.523826 0.881749
vt 0.529436 0.868673
vt 0.521405 0.849461
vt 0.529436 0.849461
vt 0.529436 0.868608
vt 0.523991 0.881619
vt 0.519740 0.891465
vt 0.514071 0.905971
s 0
usemtl regular
f 140/77/93 135/78/93 136/79/93 139/80/93
f 141/81/94 137/82/94 138/83/94 142/84/94
f 137/82/95 140/77/95 139/80/95 138/83/95
f 133/85/96 141/81/96 142/84/96 134/86/96
f 141/81/97 147/87/97 145/88/97 137/82/97
f 140/77/98 146/89/98 144/90/98 135/78/98
f 137/82/99 145/88/99 146/89/99 140/77/99
f 133/85/100 143/86/100 147/87/100 141/81/100
f 155/77/101 154/80/101 151/79/101 150/78/101
f 156/81/102 157/84/102 153/83/102 152/82/102
f 152/82/103 153/83/103 154/80/103 155/77/103
f 148/85/104 149/86/104 157/84/104 156/81/104
f 156/81/105 152/82/105 160/88/105 162/87/105
f 155/77/106 150/78/106 159/90/106 161/89/106
f 152/82/107 155/77/107 161/89/107 160/88/107
f 148/85/108 156/81/108 162/87/108 158/86/108
f 146/89/109 145/88/109 160/88/109 161/89/109
f 143/86/110 133/85/110 148/85/110 158/86/110
f 134/86/111 142/84/111 157/84/111 149/86/111
f 133/85/112 134/86/112 149/86/112 148/85/112
f 144/90/113 146/89/113 161/89/113 159/90/113
f 142/84/114 138/83/114 153/83/114 157/84/114
f 135/78/115 144/90/115 159/90/115 150/78/115
f 139/80/116 136/79/116 151/79/116 154/80/116
f 145/88/117 147/87/117 162/87/117 160/88/117
f 147/87/118 143/86/118 158/86/118 162/87/118
f 136/79/119 135/78/119 150/78/119 151/79/119
f 138/83/120 139/80/120 154/80/120 153/83/120
o Cube.004
v 0.010000 0.370000 -0.030000
v 0.000000 0.370000 -0.040000
v 0.020000 0.900000 0.130000
v 0.010000 0.900000 0.120000
v 0.010000 0.680000 0.110000
v -0.040000 0.680000 0.040000
v -0.010000 0.810000 0.100000
v 0.020000 0.810000 0.130000
v 0.010000 0.530000 0.060000
v -0.040000 0.530000 -0.010000
v 0.030000 0.370000 -0.040000
v 0.020000 0.900000 0.130000
v 0.070000 0.680000 0.080000
v 0.050000 0.810000 0.100000
v 0.055634 0.529933 0.011868
v 0.010000 0.370000 -0.030000
v 0.000000 0.370000 -0.050000
v 0.020000 0.900000 0.130000
v 0.010000 0.900000 0.120000
v 0.010000 0.680000 0.100000
v -0.044147 0.681481 0.027290
v -0.010000 0.810000 0.090000
v 0.020000 0.810000 0.120000
v 0.010000 0.530000 0.050000
v -0.040000 0.530000 -0.020000
v 0.020716 0.369579 -0.045655
v 0.020000 0.900000 0.120000
v 0.060000 0.680000 0.070000
v 0.050000 0.810000 0.100000
v 0.050000 0.530000 0.010000
vn -0.7071 -0.0000 0.7071
vn -0.7989 -0.1902 0.5706
vn -0.7788 -0.0719 0.6231
vn -0.7608 -0.3091 0.5706
vn 0.5620 -0.3262 0.7601
vn 0.7071 -0.0000 0.7071
vn 0.5516 -0.1061 0.8274
vn 0.6185 -0.3594 0.6988
vn 0.7049 0.0783 -0.7049
vn 0.7929 0.1970 -0.5766
vn 0.7721 0.0702 -0.6316
vn 0.7981 0.2827 -0.5321
vn -0.5864 0.2960 -0.7540
vn -0.7071 -0.0000 -0.7071
vn -0.5231 0.1610 -0.8369
vn -0.6957 0.3330 -0.6365
vn 0.6909 0.2126 -0.6909
vn 0.0204 -0.9990 0.0408
vn -0.9701 -0.2425 -0.0000
vn -0.0000 -1.0000 -0.0000
vn 0.9487 0.3162 -0.0000
vn -0.9821 -0.0699 0.1748
vn -0.0000 1.0000 -0.0000
vn -0.9762 0.2169 -0.0000
vn 0.5813 0.2792 -0.7643
vn 0.4352 0.2185 -0.8734
vn -0.9705 0.1520 0.1871
vt 0.514268 0.891465
vt 0.512028 0.905971
vt 0.513853 0.906082
vt 0.519636 0.891659
vt 0.521405 0.868608
vt 0.515366 0.881619
vt 0.523826 0.881749
vt 0.529436 0.868673
vt 0.521405 0.849461
vt 0.529436 0.849461
vt 0.529436 0.868608
vt 0.523991 0.881619
vt 0.519740 0.891465
vt 0.514071 0.905971
s 0
usemtl regular
f 170/91/121 165/92/121 166/93/121 169/94/121
f 171/95/122 167/96/122 168/97/122 172/98/122
f 167/96/123 170/91/123 169/94/123 168/97/123
f 163/99/124 171/95/124 172/98/124 164/100/124
f 171/95/125 177/101/125 175/102/125 167/96/125
f 170/91/126 176/103/126 174/104/126 165/92/126
f 167/96/127 175/102/127 176/103/127 170/91/127
f 163/99/128 173/100/128 177/101/128 171/95/128
f 185/91/129 184/94/129 181/93/129 180/92/129
f 186/95/130 187/98/130 183/97/130 182/96/130
f 182/96/131 183/97/131 184/94/131 185/91/131
f 178/99/132 179/100/132 187/98/132 186/95/132
f 186/95/133 182/96/133 190/102/133 192/101/133
f 185/91/134 180/92/134 189/104/134 191/103/134
f 182/96/135 185/91/135 191/103/135 190/102/135
f 178/99/136 186/95/136 192/101/136 188/100/136
f 176/103/137 175/102/137 190/102/137 191/103/137
f 173/100/138 163/99/138 178/99/138 188/100/138
f 164/100/139 172/98/139 187/98/139 179/100/139
f 163/99/140 164/100/140 179/100/140 178/99/140
f 174/104/141 176/103/141 191/103/141 189/104/141
f 172/98/142 168/97/142 183/97/142 187/98/142
f 165/92/143 174/104/143 189/104/143 180/92/143
f 169/94/144 166/93/144 181/93/144 184/94/144
f 175/102/145 177/101/145 192/101/145 190/102/145
f 177/101/146 173/100/146 188/100/146 192/101/146
f 166/93/143 165/92/143 180/92/143 181/93/143
f 168/97/147 169/94/147 184/94/147 183/97/147
o Cube.005
v 0.060670 0.367231 0.059707
v -0.001854 0.370945 0.054653
v 0.140000 1.010000 0.110000
v 0.120000 1.010000 0.110000
v 0.130000 0.680000 0.120000
v 0.060000 0.690000 0.110000
v 0.090000 0.850000 0.120000
v 0.130000 0.850000 0.140000
v 0.090000 0.530000 0.130000
v 0.010000 0.530000 0.110000
v 0.060000 0.370000 0.010000
v 0.140000 1.010000 0.090000
v 0.130000 0.690000 0.060000
v 0.140000 0.850000 0.080000
v 0.110000 0.530000 0.040000
v 0.050000 0.370000 0.050000
v -0.010000 0.370000 0.040000
v 0.134149 1.009972 0.105983
v 0.120000 1.010000 0.100000
v 0.130000 0.680000 0.110000
v 0.052347 0.690762 0.103604
v 0.080000 0.850000 0.110000
v 0.130000 0.850000 0.130000
v 0.080000 0.540000 0.120000
v 0.010000 0.530000 0.100000
v 0.050000 0.370000 0.010000
v 0.130000 1.010000 0.090000
v 0.118577 0.690000 0.060000
v 0.130364 0.850000 0.080000
v 0.100000 0.530000 0.040000
vn -0.3123 0.1562 0.9370
vn -0.1898 0.0867 0.9780
vn -0.2679 -0.0630 0.9614
vn -0.1714 -0.3392 0.9250
vn 0.9743 -0.1924 0.1171
vn 0.9920 -0.0233 0.1240
vn 0.9960 -0.0398 0.0797
vn 0.9535 -0.2737 0.1265
vn 0.3712 -0.1487 -0.9166
vn 0.1751 -0.0746 -0.9817
vn 0.2070 0.0609 -0.9764
vn 0.1873 0.3353 -0.9233
vn -0.9724 0.2244 -0.0642
vn -0.9983 0.0143 0.0573
vn -0.9935 0.0219 0.1121
vn -0.9419 0.2831 -0.1806
vn -0.0000 0.1240 -0.9923
vn -0.1190 -0.9925 -0.0297
vn -0.9491 -0.0189 0.3143
vn -0.0233 -0.9981 -0.0568
vn -0.0000 0.0624 -0.9981
vn -0.8737 0.2468 0.4193
vn -0.0020 1.0000 0.0010
vn -0.8729 0.2182 0.4364
vn -0.0000 0.1843 -0.9829
vn 0.0013 1.0000 -0.0025
vn -0.6761 0.0845 0.7319
vt 0.514268 0.891465
vt 0.512028 0.905971
vt 0.513853 0.906082
vt 0.519636 0.891659
vt 0.521405 0.868608
vt 0.515366 0.881619
vt 0.523826 0.881749
vt 0.529436 0.868673
vt 0.521405 0.849461
vt 0.529436 0.849461
vt 0.529436 0.868608
vt 0.523991 0.881619
vt 0.519740 0.891465
vt 0.514071 0.905971
s 0
usemtl regular
f 200/105/148 195/106/148 196/107/148 199/108/148
f 201/109/149 197/110/149 198/111/149 202/112/149
f 197/110/150 200/105/150 199/108/150 198/111/150
f 193/113/151 201/109/151 202/112/151 194/114/151
f 201/109/152 207/115/152 205/116/152 197/110/152
f 200/105/153 206/117/153 204/118/153 195/106/153
f 197/110/154 205/116/154 206/117/154 200/105/154
f 193/113/155 203/114/155 207/115/155 201/109/155
f 215/105/156 214/108/156 211/107/156 210/106/156
f 216/109/157 217/112/157 213/111/157 212/110/157
f 212/110/158 213/111/158 214/108/158 215/105/158
f 208/113/159 209/114/159 217/112/159 216/109/159
f 216/109/160 212/110/160 220/116/160 222/115/160
f 215/105/161 210/106/161 219/118/161 221/117/161
f 212/110/162 215/105/162 221/117/162 220/116/162
f 208/113/163 216/109/163 222/115/163 218/114/163
f 206/117/164 205/116/164 220/116/164 221/117/164
f 203/114/165 193/113/165 208/113/165 218/114/165
f 194/114/166 202/112/166 217/112/166 209/114/166
f 193/113/167 194/114/167 209/114/167 208/113/167
f 204/118/168 206/117/168 221/117/168 219/118/168
f 202/112/169 198/111/169 213/111/169 217/112/169
f 195/106/170 204/118/170 219/118/170 210/106/170
f 199/108/171 196/107/171 211/107/171 214/108/171
f 205/116/164 207/115/164 222/115/164 220/116/164
f 207/115/172 203/114/172 218/114/172 222/115/172
f 196/107/173 195/106/173 210/106/173 211/107/173
f 198/111/174 199/108/174 214/108/174 213/111/174
o Cube.007
v -0.170000 0.380000 0.050000
v -0.030000 0.380000 0.040000
v -0.180000 0.380000 0.010000
v -0.040000 0.380000 -0.010000
v -0.100000 0.400000 0.080000
v -0.100000 0.400000 -0.030000
v 0.160000 0.380000 0.010000
v 0.040000 0.380000 0.000000
v 0.160000 0.380000 0.060000
v 0.030000 0.380000 0.050000
v 0.110000 0.410000 -0.030000
v 0.090000 0.410000 0.080000
v -0.020000 0.380000 0.130000
v -0.010000 0.380000 0.050000
v -0.040000 0.380000 0.120000
v -0.040000 0.380000 0.040000
v 0.010000 0.390000 0.090000
v -0.060000 0.390000 0.070000
vn 0.2915 0.9564 -0.0182
vn -0.2566 0.9664 0.0171
vn -0.4178 0.9052 -0.0783
vn 0.4392 0.8967 0.0549
vn 0.0821 0.9583 -0.2738
vn -0.0697 0.9754 0.2090
vt 0.542922 0.848580
vt 0.544391 0.852969
vt 0.542328 0.855026
vt 0.536946 0.852945
vt 0.538687 0.846190
vt 0.536248 0.848222
s 0
usemtl regular
f 227/119/175 224/120/175 226/121/175 228/122/175
f 223/123/176 227/119/176 228/122/176 225/124/176
f 233/119/177 230/120/177 232/121/177 234/122/177
f 229/123/178 233/119/178 234/122/178 231/124/178
f 239/119/179 236/120/179 238/121/179 240/122/179
f 235/123/180 239/119/180 240/122/180 237/124/180
