# Blender v3.0.1 OBJ File: 'Poly_Lotus_01.blend'
# www.blender.org
mtllib Poly_Lotus_01.mtl
o Circle.001
v -0.461000 0.070000 -0.405000
v -0.529000 0.070000 -0.383000
v -0.574000 0.070000 -0.328000
v -0.582000 0.070000 -0.257000
v -0.550000 0.070000 -0.193000
v -0.489000 0.070000 -0.157000
v -0.418000 0.070000 -0.159000
v -0.435000 0.070000 -0.255000
v -0.332000 0.070000 -0.265000
v -0.344000 0.070000 -0.335000
v -0.392000 0.070000 -0.387000
v -0.461527 0.010000 -0.413309
v -0.529611 0.010000 -0.389692
v -0.582641 0.010000 -0.334725
v -0.590373 0.010000 -0.251587
v -0.560265 0.010000 -0.188889
v -0.492318 0.010000 -0.146631
v -0.419952 0.010000 -0.151881
v -0.422992 0.010000 -0.248000
v -0.325768 0.010000 -0.262918
v -0.336404 0.010000 -0.341774
v -0.391370 0.010000 -0.394805
v -0.461521 -0.000046 -0.422034
v -0.538275 -0.000046 -0.397044
v -0.589334 -0.000046 -0.334524
v -0.598486 -0.000046 -0.254325
v -0.562827 -0.000046 -0.181909
v -0.493678 -0.000046 -0.140267
v -0.410059 -0.000046 -0.143762
v -0.413126 -0.000046 -0.236672
v -0.317468 -0.000046 -0.255168
v -0.328824 -0.000046 -0.342124
v -0.383440 -0.000046 -0.401561
v 0.222000 0.070000 0.153000
v 0.290000 0.070000 -0.011000
v 0.259000 0.070000 -0.184000
v 0.139000 0.070000 -0.314000
v -0.032000 0.070000 -0.358000
v -0.200000 0.070000 -0.302000
v -0.311000 0.070000 -0.165000
v -0.103000 0.070000 -0.041000
v -0.251000 0.070000 0.169000
v -0.099000 0.070000 0.259000
v 0.077000 0.070000 0.253000
v 0.239076 0.010000 0.165209
v 0.304666 0.010000 -0.001486
v 0.286739 0.010000 -0.190494
v 0.142358 0.010000 -0.339599
v -0.024674 0.010000 -0.384226
v -0.214357 0.010000 -0.324373
v -0.321536 0.010000 -0.179316
v -0.102237 0.010000 -0.067701
v -0.264382 0.010000 0.178073
v -0.098362 0.010000 0.285590
v 0.090645 0.010000 0.267663
v 0.255532 -0.000046 0.179338
v 0.332558 -0.000046 -0.005940
v 0.297188 -0.000046 -0.203448
v 0.160652 -0.000046 -0.350480
v -0.033702 -0.000046 -0.400354
v -0.224166 -0.000046 -0.337236
v -0.346292 -0.000046 -0.173079
v -0.138645 -0.000046 -0.034449
v -0.286229 -0.000046 0.182592
v -0.109966 -0.000046 0.300461
v 0.090565 -0.000046 0.293559
v -0.315000 0.070000 0.193000
v -0.321000 0.070000 0.122000
v -0.365000 0.070000 0.066000
v -0.432000 0.070000 0.042000
v -0.501000 0.070000 0.058000
v -0.550000 0.070000 0.109000
v -0.564000 0.070000 0.179000
v -0.467000 0.070000 0.184000
v -0.481000 0.070000 0.287000
v -0.410000 0.070000 0.290000
v -0.348000 0.070000 0.255000
v -0.306831 0.010000 0.193978
v -0.314446 0.010000 0.122318
v -0.356001 0.010000 0.058234
v -0.435239 0.010000 0.031908
v -0.503120 0.010000 0.047063
v -0.559645 0.010000 0.103698
v -0.570890 0.010000 0.175378
v -0.476572 0.010000 0.194145
v -0.484019 0.010000 0.292225
v -0.404800 0.010000 0.299691
v -0.340716 0.010000 0.258136
v -0.298333 -0.000046 0.195957
v -0.305325 -0.000046 0.115540
v -0.354684 -0.000046 0.051670
v -0.430737 -0.000046 0.024624
v -0.509340 -0.000046 0.042989
v -0.565536 -0.000046 0.100935
v -0.581036 -0.000046 0.183178
v -0.489837 -0.000046 0.201195
v -0.493445 -0.000046 0.298558
v -0.406173 -0.000046 0.307154
v -0.335928 -0.000046 0.267388
vt 0.963161 0.015170
vt 0.963161 0.015170
vt 0.963161 0.011052
vt 0.963161 0.011052
vt 0.963161 0.015170
vt 0.963161 0.015170
vt 0.963161 0.011052
vt 0.963161 0.011052
vt 0.963161 0.015170
vt 0.963161 0.015170
vt 0.963161 0.011052
vt 0.963161 0.011052
vt 0.963161 0.015170
vt 0.963161 0.011052
vt 0.963161 0.015170
vt 0.963161 0.011052
vt 0.963161 0.015170
vt 0.963161 0.011052
vt 0.963161 0.015170
vt 0.963161 0.011052
vt 0.963161 0.015170
vt 0.963161 0.011052
vt 0.957204 0.048477
vt 0.950295 0.040504
vt 0.948794 0.030061
vt 0.953177 0.020464
vt 0.962052 0.014760
vt 0.972603 0.014760
vt 0.970553 0.029039
vt 0.985861 0.030061
vt 0.984360 0.040504
vt 0.977450 0.048477
vt 0.967327 0.051450
vt 0.977200 0.026615
vt 0.977200 0.026615
vt 0.977200 0.026615
vt 0.977200 0.026615
vt 0.976983 0.026888
vt 0.976983 0.026888
vt 0.976983 0.026888
vt 0.976983 0.026888
vt 0.976983 0.026888
vt 0.976983 0.026888
vt 0.976983 0.026888
vt 0.976983 0.026888
vt 0.976983 0.026888
vt 0.976983 0.026888
vt 0.976983 0.026888
vt 0.977200 0.026615
vt 0.977200 0.026615
vt 0.977200 0.026615
vt 0.977200 0.026615
vt 0.977200 0.026615
vt 0.977200 0.026615
vt 0.977200 0.026615
vt 0.977200 0.026615
vt 0.977200 0.026615
vt 0.977200 0.026615
vt 0.977200 0.026615
vt 0.977200 0.026615
vt 0.977200 0.026615
vt 0.977200 0.026615
vt 0.977200 0.026615
vt 0.977200 0.026615
vt 0.977200 0.026615
vt 0.977200 0.026615
vt 0.963161 0.015170
vt 0.963161 0.015170
vt 0.963161 0.011052
vt 0.963161 0.011052
vt 0.963161 0.015170
vt 0.963161 0.015170
vt 0.963161 0.011052
vt 0.963161 0.011052
vt 0.963161 0.015170
vt 0.963161 0.015170
vt 0.963161 0.011052
vt 0.963161 0.011052
vt 0.963161 0.015170
vt 0.963161 0.011052
vt 0.963161 0.015170
vt 0.963161 0.011052
vt 0.963161 0.015170
vt 0.963161 0.011052
vt 0.963161 0.015170
vt 0.963161 0.011052
vt 0.963161 0.015170
vt 0.963161 0.011052
vt 0.957204 0.048477
vt 0.950295 0.040504
vt 0.948794 0.030061
vt 0.953177 0.020464
vt 0.962052 0.014760
vt 0.972603 0.014760
vt 0.970553 0.029039
vt 0.985861 0.030061
vt 0.984360 0.040504
vt 0.977450 0.048477
vt 0.967327 0.051450
vt 0.977200 0.026615
vt 0.977200 0.026615
vt 0.977200 0.026615
vt 0.977200 0.026615
vt 0.976983 0.026888
vt 0.976983 0.026888
vt 0.976983 0.026888
vt 0.976983 0.026888
vt 0.976983 0.026888
vt 0.976983 0.026888
vt 0.976983 0.026888
vt 0.976983 0.026888
vt 0.976983 0.026888
vt 0.976983 0.026888
vt 0.976983 0.026888
vt 0.977200 0.026615
vt 0.977200 0.026615
vt 0.977200 0.026615
vt 0.977200 0.026615
vt 0.977200 0.026615
vt 0.977200 0.026615
vt 0.977200 0.026615
vt 0.977200 0.026615
vt 0.977200 0.026615
vt 0.977200 0.026615
vt 0.977200 0.026615
vt 0.977200 0.026615
vt 0.977200 0.026615
vt 0.977200 0.026615
vt 0.977200 0.026615
vt 0.977200 0.026615
vt 0.977200 0.026615
vt 0.977200 0.026615
vt 0.963161 0.015170
vt 0.963161 0.015170
vt 0.963161 0.011052
vt 0.963161 0.011052
vt 0.963161 0.015170
vt 0.963161 0.015170
vt 0.963161 0.011052
vt 0.963161 0.011052
vt 0.963161 0.015170
vt 0.963161 0.015170
vt 0.963161 0.011052
vt 0.963161 0.011052
vt 0.963161 0.015170
vt 0.963161 0.011052
vt 0.963161 0.015170
vt 0.963161 0.011052
vt 0.963161 0.015170
vt 0.963161 0.011052
vt 0.963161 0.015170
vt 0.963161 0.011052
vt 0.963161 0.015170
vt 0.963161 0.011052
vt 0.957204 0.048477
vt 0.950295 0.040504
vt 0.948794 0.030061
vt 0.953177 0.020464
vt 0.962052 0.014760
vt 0.972603 0.014760
vt 0.970553 0.029039
vt 0.985861 0.030061
vt 0.984360 0.040504
vt 0.977450 0.048477
vt 0.967327 0.051450
vt 0.977200 0.026615
vt 0.977200 0.026615
vt 0.977200 0.026615
vt 0.977200 0.026615
vt 0.976983 0.026888
vt 0.976983 0.026888
vt 0.976983 0.026888
vt 0.976983 0.026888
vt 0.976983 0.026888
vt 0.976983 0.026888
vt 0.976983 0.026888
vt 0.976983 0.026888
vt 0.976983 0.026888
vt 0.976983 0.026888
vt 0.976983 0.026888
vt 0.977200 0.026615
vt 0.977200 0.026615
vt 0.977200 0.026615
vt 0.977200 0.026615
vt 0.977200 0.026615
vt 0.977200 0.026615
vt 0.977200 0.026615
vt 0.977200 0.026615
vt 0.977200 0.026615
vt 0.977200 0.026615
vt 0.977200 0.026615
vt 0.977200 0.026615
vt 0.977200 0.026615
vt 0.977200 0.026615
vt 0.977200 0.026615
vt 0.977200 0.026615
vt 0.977200 0.026615
vt 0.977200 0.026615
vn 0.9816 0.1190 -0.1493
vn 0.0500 0.1419 0.9886
vn -0.9849 0.1408 -0.1005
vn 0.7078 0.1328 -0.6939
vn 0.9921 0.0710 -0.1035
vn -0.8846 0.1718 0.4336
vn 0.2516 0.1290 -0.9592
vn -0.3155 0.1206 -0.9412
vn 0.1230 0.0935 0.9880
vn -0.5122 0.1598 0.8439
vn -0.7400 0.1308 -0.6597
vn 0.0000 1.0000 0.0000
vn -0.4340 0.5557 0.7091
vn 0.0000 -1.0000 0.0000
vn -0.5822 0.6285 -0.5158
vn 0.7988 0.5923 -0.1059
vn 0.0449 0.5966 0.8013
vn -0.7973 0.5979 -0.0824
vn 0.5594 0.6245 -0.5450
vn 0.7241 0.6894 -0.0234
vn -0.7811 0.4953 0.3802
vn 0.1942 0.6457 -0.7385
vn -0.2370 0.6672 -0.7062
vn 0.1154 0.7368 0.6662
vn -0.5042 0.2948 0.8117
vn -0.7463 0.3313 -0.5773
vn 0.6804 0.3487 -0.6445
vn 0.0617 0.3310 0.9416
vn -0.4673 -0.2516 0.8475
vn 0.2321 0.4030 -0.8853
vn 0.5393 0.3131 0.7817
vn 0.8849 0.2988 0.3575
vn -0.8151 0.1672 -0.5547
vn -0.2858 0.3741 -0.8823
vn 0.9363 0.3277 -0.1265
vn -0.1587 0.8568 -0.4907
vn 0.4415 0.8952 -0.0609
vn -0.2762 0.8647 0.4195
vn -0.4299 0.8447 -0.3188
vn 0.3444 0.8802 -0.3267
vn 0.0286 0.8933 0.4485
vn -0.1493 0.9554 0.2548
vn 0.1459 0.8171 -0.5578
vn 0.2443 0.9030 0.3534
vn 0.3797 0.9122 0.1539
vn -0.4914 0.8065 -0.3288
vn -0.0690 0.1218 0.9902
vn -0.9738 0.1471 -0.1735
vn 0.3215 0.1545 -0.9342
vn 0.5136 0.1438 0.8459
vn -0.1230 0.0707 0.9899
vn -0.2184 0.1779 -0.9595
vn 0.8762 0.1287 0.4645
vn 0.9883 0.1202 -0.0943
vn -0.9903 0.0904 -0.1056
vn -0.7046 0.1626 -0.6908
vn 0.8064 0.1402 -0.5745
vn -0.5927 0.5557 -0.5831
vn 0.6341 0.6285 -0.4505
vn -0.0774 0.5923 0.8020
vn -0.7907 0.5966 -0.1374
vn 0.2605 0.5979 -0.7580
vn 0.4045 0.6245 0.6681
vn -0.1409 0.6894 0.7106
vn -0.1938 0.4953 -0.8468
vn 0.6755 0.6457 0.3561
vn 0.7415 0.6672 -0.0712
vn -0.6750 0.7368 -0.0382
usemtl Material
s off
f 10/1/1 9/2/1 20/3/1 21/4/1
f 7/5/2 6/6/2 17/7/2 18/8/2
f 4/9/3 3/10/3 14/11/3 15/12/3
f 11/13/4 10/1/4 21/4/4 22/14/4
f 8/15/5 7/5/5 18/8/5 19/16/5
f 5/17/6 4/9/6 15/12/6 16/18/6
f 1/19/7 11/13/7 22/14/7 12/20/7
f 2/21/8 1/19/8 12/20/8 13/22/8
f 9/2/9 8/15/9 19/16/9 20/3/9
f 6/6/10 5/17/10 16/18/10 17/7/10
f 3/10/11 2/21/11 13/22/11 14/11/11
f 2/23/12 3/24/12 4/25/12 5/26/12 6/27/12 7/28/12 8/29/12 9/30/12 10/31/12 11/32/12 1/33/12
f 17/34/13 16/35/13 27/36/13 28/37/13
f 24/38/14 23/39/14 33/40/14 32/41/14 31/42/14 30/43/14 29/44/14 28/45/14 27/46/14 26/47/14 25/48/14
f 14/49/15 13/50/15 24/51/15 25/52/15
f 21/53/16 20/54/16 31/55/16 32/56/16
f 18/57/17 17/34/17 28/37/17 29/58/17
f 15/59/18 14/49/18 25/52/18 26/60/18
f 22/61/19 21/53/19 32/56/19 33/62/19
f 19/63/20 18/57/20 29/58/20 30/64/20
f 16/35/21 15/59/21 26/60/21 27/36/21
f 12/65/22 22/61/22 33/62/22 23/66/22
f 13/50/23 12/65/23 23/66/23 24/51/23
f 20/54/24 19/63/24 30/64/24 31/55/24
f 43/67/25 42/68/25 53/69/25 54/70/25
f 40/71/26 39/72/26 50/73/26 51/74/26
f 37/75/27 36/76/27 47/77/27 48/78/27
f 44/79/28 43/67/28 54/70/28 55/80/28
f 41/81/29 40/71/29 51/74/29 52/82/29
f 38/83/30 37/75/30 48/78/30 49/84/30
f 34/85/31 44/79/31 55/80/31 45/86/31
f 35/87/32 34/85/32 45/86/32 46/88/32
f 42/68/33 41/81/33 52/82/33 53/69/33
f 39/72/34 38/83/34 49/84/34 50/73/34
f 36/76/35 35/87/35 46/88/35 47/77/35
f 35/89/12 36/90/12 37/91/12 38/92/12 39/93/12 40/94/12 41/95/12 42/96/12 43/97/12 44/98/12 34/99/12
f 50/100/36 49/101/36 60/102/36 61/103/36
f 57/104/14 56/105/14 66/106/14 65/107/14 64/108/14 63/109/14 62/110/14 61/111/14 60/112/14 59/113/14 58/114/14
f 47/115/37 46/116/37 57/117/37 58/118/37
f 54/119/38 53/120/38 64/121/38 65/122/38
f 51/123/39 50/100/39 61/103/39 62/124/39
f 48/125/40 47/115/40 58/118/40 59/126/40
f 55/127/41 54/119/41 65/122/41 66/128/41
f 52/129/42 51/123/42 62/124/42 63/130/42
f 49/101/43 48/125/43 59/126/43 60/102/43
f 45/131/44 55/127/44 66/128/44 56/132/44
f 46/116/45 45/131/45 56/132/45 57/117/45
f 53/120/46 52/129/46 63/130/46 64/121/46
f 76/133/47 75/134/47 86/135/47 87/136/47
f 73/137/48 72/138/48 83/139/48 84/140/48
f 70/141/49 69/142/49 80/143/49 81/144/49
f 77/145/50 76/133/50 87/136/50 88/146/50
f 74/147/51 73/137/51 84/140/51 85/148/51
f 71/149/52 70/141/52 81/144/52 82/150/52
f 67/151/53 77/145/53 88/146/53 78/152/53
f 68/153/54 67/151/54 78/152/54 79/154/54
f 75/134/55 74/147/55 85/148/55 86/135/55
f 72/138/56 71/149/56 82/150/56 83/139/56
f 69/142/57 68/153/57 79/154/57 80/143/57
f 68/155/12 69/156/12 70/157/12 71/158/12 72/159/12 73/160/12 74/161/12 75/162/12 76/163/12 77/164/12 67/165/12
f 83/166/58 82/167/58 93/168/58 94/169/58
f 90/170/14 89/171/14 99/172/14 98/173/14 97/174/14 96/175/14 95/176/14 94/177/14 93/178/14 92/179/14 91/180/14
f 80/181/59 79/182/59 90/183/59 91/184/59
f 87/185/60 86/186/60 97/187/60 98/188/60
f 84/189/61 83/166/61 94/169/61 95/190/61
f 81/191/62 80/181/62 91/184/62 92/192/62
f 88/193/63 87/185/63 98/188/63 99/194/63
f 85/195/64 84/189/64 95/190/64 96/196/64
f 82/167/65 81/191/65 92/192/65 93/168/65
f 78/197/66 88/193/66 99/194/66 89/198/66
f 79/182/67 78/197/67 89/198/67 90/183/67
f 86/186/68 85/195/68 96/196/68 97/187/68
o Circle.002
v 0.216581 0.012401 -0.361925
v 0.143117 0.012401 -0.381616
v 0.251455 0.012401 -0.535029
v 0.255417 0.004468 -0.540746
v 0.217936 0.004468 -0.354707
v 0.103056 0.012401 -0.442096
v 0.095927 0.004468 -0.440868
v 0.296752 0.012401 -0.475451
v 0.197199 0.004468 -0.458308
v 0.138982 0.004468 -0.375869
v 0.279638 0.004468 -0.400090
v 0.114761 0.004468 -0.516525
v 0.120580 0.012401 -0.512492
v 0.273992 0.012401 -0.404153
v 0.304098 0.004468 -0.476716
v 0.183226 0.012401 -0.555621
v 0.182089 0.004468 -0.562877
v 0.215000 0.070000 -0.372000
v 0.149000 0.070000 -0.389000
v 0.246000 0.070000 -0.527000
v 0.113000 0.070000 -0.444000
v 0.287000 0.070000 -0.474000
v 0.197000 0.070000 -0.458000
v 0.128000 0.070000 -0.507000
v 0.266000 0.070000 -0.410000
v 0.185000 0.070000 -0.546000
vt 0.977213 0.026743
vt 0.977213 0.026743
vt 0.977213 0.026743
vt 0.977213 0.026743
vt 0.963138 0.010725
vt 0.963138 0.010725
vt 0.963138 0.015449
vt 0.963138 0.015449
vt 0.963138 0.010725
vt 0.963138 0.010725
vt 0.963138 0.015449
vt 0.963138 0.015449
vt 0.977129 0.026993
vt 0.977129 0.026993
vt 0.977129 0.026993
vt 0.977129 0.026993
vt 0.963138 0.010725
vt 0.963138 0.015449
vt 0.977213 0.026743
vt 0.977213 0.026743
vt 0.977129 0.026993
vt 0.977129 0.026993
vt 0.977213 0.026743
vt 0.977213 0.026743
vt 0.977213 0.026743
vt 0.977213 0.026743
vt 0.977129 0.026993
vt 0.977129 0.026993
vt 0.977213 0.026743
vt 0.977213 0.026743
vt 0.977213 0.026743
vt 0.977213 0.026743
vt 0.963138 0.010725
vt 0.963138 0.015449
vt 0.977213 0.026743
vt 0.977213 0.026743
vt 0.977129 0.026993
vt 0.967305 0.012325
vt 0.952586 0.017150
vt 0.943382 0.032556
vt 0.967305 0.032427
vt 0.952586 0.017150
vt 0.943069 0.032556
vt 0.967305 0.052529
vt 0.952586 0.046900
vt 0.952586 0.046900
vt 0.963138 0.010725
vt 0.963138 0.010725
vt 0.963138 0.015449
vt 0.963138 0.015449
vn 0.2219 0.6406 -0.7351
vn 0.7843 0.1530 -0.6012
vn -0.8248 0.1571 0.5432
vn 0.0000 -1.0000 0.0000
vn 0.9398 0.1564 0.3039
vn -0.4353 0.6408 -0.6323
vn 0.4550 0.6406 0.6186
vn -0.7450 0.6408 -0.1855
vn 0.6115 0.6403 -0.4649
vn 0.5873 0.1585 0.7937
vn 0.7317 0.6403 0.2336
vn -0.6401 0.6408 0.4240
vn -0.1988 0.6408 0.7415
vn 0.0000 1.0000 0.0000
vn -0.5594 0.1516 -0.8149
vn -0.2514 0.1542 0.9555
vn -0.9602 0.1520 -0.2341
vn 0.2894 0.1540 -0.9447
usemtl Material
s off
f 116/199/69 115/200/69 102/201/69 103/202/69
f 107/203/70 102/204/70 119/205/70 121/206/70
f 105/207/71 101/208/71 118/209/71 120/210/71
f 114/211/72 110/212/72 108/213/72 103/214/72
f 113/215/73 107/203/73 121/206/73 124/216/73
f 111/217/74 112/218/74 115/200/74 116/199/74
f 110/212/72 104/219/72 109/220/72 108/213/72
f 110/221/75 113/222/75 100/223/75 104/224/75
f 103/214/72 108/213/72 111/225/72 116/226/72
f 106/227/76 105/228/76 112/218/76 111/217/76
f 103/202/77 102/201/77 107/229/77 114/230/77
f 100/231/78 113/215/78 124/216/78 117/232/78
f 114/230/79 107/229/79 113/222/79 110/221/79
f 109/233/80 101/234/80 105/228/80 106/227/80
f 104/224/81 100/223/81 101/234/81 109/233/81
f 108/213/72 109/220/72 106/235/72 111/225/72
f 124/236/82 121/237/82 119/238/82 122/239/82
f 117/240/82 124/236/82 122/239/82 118/241/82
f 118/241/82 122/239/82 123/242/82 120/243/82
f 122/239/82 119/238/82 125/244/82 123/242/82
f 115/245/83 112/246/83 123/247/83 125/248/83
f 101/208/84 100/231/84 117/232/84 118/209/84
f 112/246/85 105/207/85 120/210/85 123/247/85
f 102/204/86 115/245/86 125/248/86 119/205/86
