# Blender 3.6.5
# www.blender.org
mtllib Poly_Bridge_Stone_02_Vertical.mtl
o Cube.003
v 0.598960 0.000000 0.501039
v 0.598960 0.200000 0.501039
v -0.598961 0.000000 0.501039
v -0.598961 0.200000 0.501039
v 0.598960 0.000000 -0.498960
v 0.598960 0.200000 -0.498960
v -0.598960 0.000000 -0.498960
v -0.598960 0.200000 -0.498960
vn -0.0000 -0.0000 1.0000
vn -1.0000 -0.0000 -0.0000
vn -0.0000 -0.0000 -1.0000
vn 1.0000 -0.0000 -0.0000
vn -0.0000 -1.0000 -0.0000
vn -0.0000 1.0000 -0.0000
vt 0.488396 0.374939
vt 0.499982 0.374939
vt 0.499982 0.313846
vt 0.488396 0.313846
vt 0.428190 0.313846
vt 0.437437 0.313846
vt 0.437437 0.374939
vt 0.428190 0.374939
vt 0.437623 0.313846
vt 0.437623 0.374939
s 0
usemtl Material.001
f 1/1/1 2/2/1 4/3/1 3/4/1
f 3/5/2 4/6/2 8/7/2 7/8/2
f 7/4/3 8/3/3 6/2/3 5/1/3
f 5/5/4 6/6/4 2/7/4 1/8/4
f 3/3/5 7/9/5 5/10/5 1/2/5
f 8/3/6 4/9/6 2/10/6 6/2/6
