# Blender v3.0.1 OBJ File: 'Poly_Grassfed_01.blend'
# www.blender.org
mtllib Poly_Grassfed_02.mtl
o Cube_Cube.001
v -0.617535 0.700000 0.000000
v -0.651842 0.900000 0.000000
v -0.488882 0.900000 -0.483707
v -0.463151 0.700000 -0.458249
v 0.000000 0.700000 -0.610999
v 0.000000 0.900000 -0.644943
v 0.488882 0.900000 -0.483707
v 0.463151 0.700000 -0.458249
v 0.617535 0.700000 0.000000
v 0.651842 0.900000 0.000000
v 0.488882 0.900000 0.483707
v 0.463151 0.700000 0.458249
v 0.000000 0.700000 0.610999
v 0.000000 0.900000 0.644943
v -0.488882 0.900000 0.483707
v -0.463151 0.700000 0.458249
v 0.488882 0.110000 -0.483707
v 0.651842 0.110000 0.000000
v 0.566073 0.000999 0.000000
v 0.420267 0.000999 -0.415818
v 0.000000 1.000000 -0.483707
v 0.368805 1.000000 -0.364902
v 0.000000 1.000000 0.483707
v -0.368805 1.000000 0.364902
v -0.651842 0.110000 0.000000
v -0.488882 0.110000 -0.483707
v -0.420267 0.000999 -0.415818
v -0.566073 0.000999 0.000000
v -0.488882 0.110000 0.483707
v -0.420267 0.000999 0.415818
v -0.488882 1.000000 0.000000
v -0.368805 1.000000 -0.364902
v 0.488882 0.110000 0.483707
v 0.420267 0.000999 0.415818
v 0.488882 1.000000 0.000000
v 0.094346 1.040000 -0.093347
v 0.120076 1.040000 0.000000
v 0.000000 1.040000 -0.118805
v 0.000000 1.040000 0.118805
v -0.094346 1.040000 0.093347
v 0.368805 1.000000 0.364902
v 0.094346 1.040000 0.093347
v 0.000000 0.000999 0.000000
v 0.000000 0.000999 0.560082
v 0.000000 0.000999 -0.560082
v 0.000000 0.110000 0.644943
v 0.000000 0.110000 -0.644943
v -0.454574 0.310000 0.449763
v -0.488882 0.510000 0.483707
v -0.651842 0.510000 0.000000
v -0.608958 0.310000 0.000000
v 0.454574 0.310000 -0.449763
v 0.488882 0.510000 -0.483707
v 0.651842 0.510000 0.000000
v 0.608958 0.310000 0.000000
v -0.454574 0.310000 -0.449763
v -0.488882 0.510000 -0.483707
v 0.000000 0.510000 -0.644943
v 0.000000 0.310000 -0.602513
v 0.454574 0.310000 0.449763
v 0.488882 0.510000 0.483707
v 0.000000 0.510000 0.644943
v 0.000000 0.310000 0.602513
v 0.102922 1.070000 0.101833
v 0.000000 1.070000 0.127291
v -0.120076 1.040000 0.000000
v -0.102922 1.070000 0.101833
v -0.128653 1.070000 0.000000
v -0.094346 1.040000 -0.093347
v -0.102922 1.070000 -0.101833
v 0.128653 1.070000 0.000000
v -0.094346 1.090000 0.000000
v -0.068615 1.090000 -0.067889
v 0.094346 1.090000 0.000000
v 0.068615 1.090000 0.067889
v 0.000000 1.070000 -0.127291
v 0.000000 1.090000 -0.093347
v 0.102922 1.070000 -0.101833
v 0.068615 1.090000 -0.067889
v -0.197268 1.220000 -0.195180
v 0.000000 1.220000 -0.254583
v 0.197268 1.220000 -0.195180
v 0.257306 1.220000 0.000000
v -0.068615 1.090000 0.067889
v 0.000000 1.090000 0.093347
v 0.000000 1.220000 0.254583
v -0.197268 1.220000 0.195180
v 0.000000 1.220000 0.000000
v -0.257306 1.220000 0.000000
v 0.197268 1.220000 0.195180
vt 0.584911 0.021923
vt 0.584911 0.027338
vt 0.601740 0.027338
vt 0.601740 0.021923
vt 0.584911 0.021923
vt 0.584911 0.027338
vt 0.601740 0.027338
vt 0.601740 0.021923
vt 0.584911 0.021923
vt 0.584911 0.027338
vt 0.601740 0.027338
vt 0.601740 0.021923
vt 0.584911 0.021923
vt 0.584911 0.027338
vt 0.601740 0.027338
vt 0.601740 0.021923
vt 0.601740 0.005873
vt 0.584911 0.005873
vt 0.584911 0.002165
vt 0.601740 0.002165
vt 0.584911 0.032234
vt 0.601740 0.032234
vt 0.584911 0.032234
vt 0.601740 0.032234
vt 0.584911 0.005873
vt 0.601740 0.005873
vt 0.601740 0.002165
vt 0.584911 0.002165
vt 0.601740 0.005873
vt 0.601740 0.002165
vt 0.584911 0.032234
vt 0.601740 0.032234
vt 0.601740 0.005873
vt 0.601740 0.002165
vt 0.584911 0.032234
vt 0.595764 0.047378
vt 0.593783 0.047378
vt 0.593783 0.047378
vt 0.593783 0.047378
vt 0.595764 0.047378
vt 0.601740 0.032234
vt 0.595764 0.047378
vt 0.313365 0.625205
vt 0.438365 0.625205
vt 0.438365 0.750205
vt 0.313365 0.750205
vt 0.188365 0.625205
vt 0.188365 0.750205
vt 0.188365 0.500205
vt 0.313365 0.500205
vt 0.438365 0.500205
vt 0.584911 0.005873
vt 0.584911 0.002165
vt 0.584911 0.005873
vt 0.584911 0.002165
vt 0.601740 0.011327
vt 0.601740 0.016779
vt 0.584911 0.016779
vt 0.584911 0.011327
vt 0.601740 0.011327
vt 0.601740 0.016779
vt 0.584911 0.016779
vt 0.584911 0.011327
vt 0.601740 0.011327
vt 0.601740 0.016779
vt 0.584911 0.016779
vt 0.584911 0.011327
vt 0.601740 0.011327
vt 0.601740 0.016779
vt 0.584911 0.016779
vt 0.584911 0.011327
vt 0.595764 0.049547
vt 0.593783 0.049547
vt 0.593783 0.047378
vt 0.595764 0.049547
vt 0.593783 0.049547
vt 0.595764 0.047378
vt 0.595764 0.049547
vt 0.593783 0.049547
vt 0.593783 0.051698
vt 0.595764 0.051698
vt 0.593783 0.051698
vt 0.595764 0.051698
vt 0.593783 0.049547
vt 0.593783 0.051698
vt 0.595764 0.049547
vt 0.595764 0.051698
vt 0.592405 0.051512
vt 0.594417 0.051471
vt 0.594417 0.054499
vt 0.590374 0.054499
vt 0.592405 0.051512
vt 0.594417 0.051471
vt 0.594417 0.054499
vt 0.590374 0.054499
vt 0.596795 0.051471
vt 0.598928 0.054499
vt 0.594417 0.051471
vt 0.596795 0.051471
vt 0.598928 0.054499
vt 0.594417 0.054499
vt 0.595764 0.051698
vt 0.593783 0.051698
vt 0.594417 0.059355
vt 0.590374 0.054499
vt 0.598928 0.054499
vt 0.594417 0.059227
vt 0.590374 0.054499
vt 0.594417 0.054499
vt 0.598928 0.054499
vt 0.594417 0.051471
vt 0.596795 0.051471
vt 0.596795 0.051471
vt 0.592405 0.051512
vt 0.592405 0.051512
vn -0.9354 -0.1605 -0.3151
vn 0.3092 -0.1591 -0.9376
vn 0.9354 -0.1605 0.3151
vn -0.3092 -0.1591 0.9376
vn 0.7491 -0.6106 -0.2571
vn 0.1708 0.8350 -0.5231
vn -0.1708 0.8350 0.5231
vn -0.7491 -0.6106 -0.2571
vn 0.3092 -0.1591 0.9376
vn -0.3092 -0.1591 -0.9376
vn -0.7491 -0.6106 0.2571
vn -0.5189 0.8371 -0.1731
vn -0.1708 0.8350 -0.5231
vn 0.7491 -0.6106 0.2571
vn 0.9354 -0.1605 -0.3151
vn -0.9354 -0.1605 0.3151
vn 0.1089 0.9934 -0.0347
vn 0.0343 0.9933 -0.1101
vn -0.0343 0.9933 0.1101
vn 0.0343 0.9933 0.1101
vn 0.5189 0.8371 -0.1731
vn -0.5189 0.8371 0.1731
vn 0.5189 0.8371 0.1731
vn 0.1708 0.8350 0.5231
vn 0.0000 -1.0000 -0.0000
vn -0.2531 -0.6073 0.7531
vn 0.2531 -0.6073 -0.7531
vn 0.2531 -0.6073 0.7531
vn -0.2531 -0.6073 -0.7531
vn -0.9266 -0.2055 0.3150
vn 0.9266 -0.2055 -0.3150
vn -0.3091 -0.2039 -0.9289
vn 0.3091 -0.2039 0.9289
vn -0.3091 -0.2039 0.9289
vn 0.9266 -0.2055 0.3150
vn 0.3091 -0.2039 -0.9289
vn -0.9266 -0.2055 -0.3150
vn -0.9266 0.2055 -0.3150
vn 0.3091 0.2039 -0.9289
vn 0.9266 0.2055 0.3150
vn -0.3091 0.2039 0.9289
vn 0.3091 0.2039 0.9289
vn -0.3091 0.2039 -0.9289
vn 0.9266 0.2055 -0.3150
vn -0.9266 0.2055 0.3150
vn -0.9341 0.1687 0.3147
vn 0.9341 0.1687 -0.3147
vn -0.3088 0.1673 -0.9363
vn 0.3088 0.1673 0.9363
vn -0.3088 0.1673 0.9363
vn 0.9341 0.1687 0.3147
vn 0.3088 0.1673 -0.9363
vn -0.9341 0.1687 -0.3147
vn 0.2387 -0.2958 0.9249
vn -0.9229 -0.2983 0.2433
vn -0.9229 -0.2983 -0.2433
vn 0.9229 -0.2983 0.2433
vn -0.0343 0.9933 -0.1101
vn 0.1089 0.9934 0.0347
vn -0.1089 0.9934 -0.0347
vn -0.1089 0.9934 0.0347
vn -0.4480 0.8837 -0.1358
vn 0.4480 0.8837 0.1358
vn -0.1341 0.8819 -0.4519
vn 0.4480 0.8837 -0.1358
vn -0.2387 -0.2958 0.9249
vn 0.2387 -0.2958 -0.9249
vn 0.9229 -0.2983 -0.2433
vn -0.2387 -0.2958 -0.9249
vn -0.1939 -0.7702 -0.6076
vn 0.6033 -0.7729 -0.1967
vn 0.1939 -0.7702 -0.6076
vn -0.1939 -0.7702 0.6076
vn -0.4480 0.8837 0.1358
vn 0.1341 0.8819 0.4519
vn -0.1341 0.8819 0.4519
vn 0.1341 0.8819 -0.4519
vn 0.0000 1.0000 0.0000
vn 0.6033 -0.7729 0.1967
vn -0.6033 -0.7729 -0.1967
vn -0.6033 -0.7729 0.1967
vn 0.1939 -0.7702 0.6076
usemtl Material.002
s 1
f 1/1/1 2/2/1 3/3/1 4/4/1
f 5/5/2 6/6/2 7/7/2 8/8/2
f 9/9/3 10/10/3 11/11/3 12/12/3
f 13/13/4 14/14/4 15/15/4 16/16/4
f 17/17/5 18/18/5 19/19/5 20/20/5
f 7/7/6 6/6/6 21/21/6 22/22/6
f 15/15/7 14/14/7 23/23/7 24/24/7
f 25/25/8 26/26/8 27/27/8 28/28/8
f 12/12/9 11/11/9 14/14/9 13/13/9
f 4/4/10 3/3/10 6/6/10 5/5/10
f 29/29/11 25/25/11 28/28/11 30/30/11
f 3/3/12 2/2/12 31/31/12 32/32/12
f 6/6/13 3/3/13 32/32/13 21/21/13
f 18/18/14 33/33/14 34/34/14 19/19/14
f 8/8/15 7/7/15 10/10/15 9/9/15
f 16/16/16 15/15/16 2/2/16 1/1/16
f 35/35/17 22/22/17 36/36/17 37/37/17
f 22/22/18 21/21/18 38/38/18 36/36/18
f 24/24/19 23/23/19 39/39/19 40/40/19
f 23/23/20 41/41/20 42/42/20 39/39/20
f 10/10/21 7/7/21 22/22/21 35/35/21
f 2/2/22 15/15/22 24/24/22 31/31/22
f 11/11/23 10/10/23 35/35/23 41/41/23
f 14/14/24 11/11/24 41/41/24 23/23/24
f 43/43/25 19/44/25 34/45/25 44/46/25
f 28/47/25 43/43/25 44/46/25 30/48/25
f 27/49/25 45/50/25 43/43/25 28/47/25
f 45/50/25 20/51/25 19/44/25 43/43/25
f 46/52/26 29/29/26 30/30/26 44/53/26
f 47/54/27 17/17/27 20/20/27 45/55/27
f 33/33/28 46/52/28 44/53/28 34/34/28
f 26/26/29 47/54/29 45/55/29 27/27/29
f 48/56/30 49/57/30 50/58/30 51/59/30
f 52/60/31 53/61/31 54/62/31 55/63/31
f 56/64/32 57/65/32 58/66/32 59/67/32
f 60/68/33 61/69/33 62/70/33 63/71/33
f 63/71/34 62/70/34 49/57/34 48/56/34
f 55/63/35 54/62/35 61/69/35 60/68/35
f 59/67/36 58/66/36 53/61/36 52/60/36
f 51/59/37 50/58/37 57/65/37 56/64/37
f 25/25/38 51/59/38 56/64/38 26/26/38
f 47/54/39 59/67/39 52/60/39 17/17/39
f 18/18/40 55/63/40 60/68/40 33/33/40
f 46/52/41 63/71/41 48/56/41 29/29/41
f 33/33/42 60/68/42 63/71/42 46/52/42
f 26/26/43 56/64/43 59/67/43 47/54/43
f 17/17/44 52/60/44 55/63/44 18/18/44
f 29/29/45 48/56/45 51/59/45 25/25/45
f 49/57/46 16/16/46 1/1/46 50/58/46
f 53/61/47 8/8/47 9/9/47 54/62/47
f 57/65/48 4/4/48 5/5/48 58/66/48
f 61/69/49 12/12/49 13/13/49 62/70/49
f 62/70/50 13/13/50 16/16/50 49/57/50
f 54/62/51 9/9/51 12/12/51 61/69/51
f 58/66/52 5/5/52 8/8/52 53/61/52
f 50/58/53 1/1/53 4/4/53 57/65/53
f 39/39/54 42/42/54 64/72/54 65/73/54
f 66/74/55 40/40/55 67/75/55 68/76/55
f 69/77/56 66/74/56 68/76/56 70/78/56
f 42/42/57 37/37/57 71/79/57 64/72/57
f 21/21/58 32/32/58 69/77/58 38/38/58
f 41/41/59 35/35/59 37/37/59 42/42/59
f 32/32/60 31/31/60 66/74/60 69/77/60
f 31/31/61 24/24/61 40/40/61 66/74/61
f 70/78/62 68/76/62 72/80/62 73/81/62
f 64/72/63 71/79/63 74/82/63 75/83/63
f 76/84/64 70/78/64 73/81/64 77/85/64
f 71/79/65 78/86/65 79/87/65 74/82/65
f 40/40/66 39/39/66 65/73/66 67/75/66
f 36/36/67 38/38/67 76/84/67 78/86/67
f 37/37/68 36/36/68 78/86/68 71/79/68
f 38/38/69 69/77/69 70/78/69 76/84/69
f 77/88/70 73/89/70 80/90/70 81/91/70
f 74/92/71 79/93/71 82/94/71 83/95/71
f 79/93/72 77/96/72 81/97/72 82/94/72
f 84/98/73 85/99/73 86/100/73 87/101/73
f 68/76/74 67/75/74 84/102/74 72/80/74
f 65/73/75 64/72/75 75/83/75 85/103/75
f 67/75/76 65/73/76 85/103/76 84/102/76
f 78/86/77 76/84/77 77/85/77 79/87/77
f 88/104/78 89/105/78 87/101/78 86/100/78
f 83/106/78 88/107/78 86/108/78 90/109/78
f 82/94/78 81/97/78 88/107/78 83/95/78
f 81/91/78 80/90/78 89/110/78 88/104/78
f 75/111/79 74/112/79 83/106/79 90/109/79
f 73/89/80 72/113/80 89/110/80 80/90/80
f 72/114/81 84/98/81 87/101/81 89/105/81
f 85/115/82 75/111/82 90/109/82 86/108/82
