# Blender 3.6.5
# www.blender.org
mtllib Poly_SF_Outside_B_Board_Neo_Sign_08_Lamp.mtl
o Cube
v 0.300000 1.000000 -0.100000
v 0.300000 0.000000 -0.100000
v 0.300000 1.000000 0.100000
v 0.300000 0.000000 0.100000
v -0.300000 1.000000 -0.100000
v -0.300000 0.000000 -0.100000
v -0.300000 1.000000 0.100000
v -0.300000 0.000000 0.100000
vn -0.0000 -0.0000 1.0000
vn -0.0000 -0.0000 -1.0000
vt 0.045332 0.312951
vt 0.045332 0.374407
vt 0.008213 0.374407
vt 0.008213 0.312951
s 0
usemtl Material
f 4/1/1 3/2/1 7/3/1 8/4/1
f 6/1/2 5/2/2 1/3/2 2/4/2
