# Blender 3.6.5
# www.blender.org
mtllib Poly_World_Map_Wall_03.mtl
o Grid.003
v 0.150000 0.000000 0.150000
v 0.150000 0.899252 0.150000
v 0.150000 0.000000 -0.500000
v 0.150000 0.899252 -0.500000
v -0.500000 0.000000 0.150000
v -0.500000 0.899252 0.150000
v 0.150000 0.000000 0.080000
v 0.150000 0.899252 0.080000
v -0.500000 0.899252 0.080000
v 0.150000 0.899252 -0.080000
v 0.150000 0.000000 -0.080000
v -0.500000 0.899252 -0.080000
v 0.080000 0.899252 -0.500000
v 0.080000 0.000000 0.150000
v 0.080000 0.899252 0.150000
v 0.080000 0.899252 0.080000
v 0.080000 0.899252 -0.080000
v -0.080000 0.899252 -0.500000
v -0.080000 0.000000 0.150000
v -0.080000 0.899252 0.080000
v -0.080000 0.899252 -0.080000
v -0.080000 0.899252 0.150000
v -0.150000 0.899252 -0.500000
v -0.150000 0.000000 0.150000
v -0.150000 0.899252 0.080000
v -0.150000 0.899252 -0.080000
v -0.150000 0.000000 -0.500000
v -0.150000 0.899252 0.150000
v 0.150000 0.899252 -0.150000
v -0.500000 0.000000 -0.150000
v 0.150000 0.000000 -0.150000
v -0.500000 0.899252 -0.150000
v 0.080000 0.899252 -0.150000
v -0.080000 0.899252 -0.150000
v -0.150000 0.899252 -0.150000
v -0.150000 0.000000 -0.150000
v -0.500000 0.840000 -0.080000
v -0.500000 0.840000 0.080000
v -0.150000 0.840000 0.080000
v -0.150000 0.840000 -0.080000
v 0.080000 0.840000 -0.150000
v 0.080000 0.840000 -0.080000
v 0.080000 0.840000 0.080000
v 0.080000 0.840000 -0.500000
v -0.080000 0.840000 -0.500000
v -0.080000 0.840000 0.080000
v -0.080000 0.840000 -0.080000
v -0.080000 0.840000 -0.150000
v 0.150000 0.000000 -0.000000
v 0.150000 0.899252 0.000000
v 0.080000 0.899252 -0.000000
v -0.500000 0.840000 -0.000000
v 0.080000 0.840000 -0.000000
v -0.080000 0.840000 -0.000000
v -0.150000 0.840000 -0.000000
v 0.000000 0.899252 0.150000
v 0.000000 0.000000 0.150000
v 0.000000 0.899252 0.080000
v 0.000000 0.840000 -0.500000
v 0.000000 0.840000 0.080000
v 0.000000 0.840000 -0.080000
v 0.000000 0.840000 -0.150000
v 0.000000 0.840000 -0.000000
vn 1.0000 -0.0000 -0.0000
vn -0.0000 -0.0000 1.0000
vn -0.0000 1.0000 -0.0000
vn -0.0000 -0.0000 -1.0000
vn -1.0000 -0.0000 -0.0000
vt 0.586400 0.439325
vt 0.575396 0.439325
vt 0.575396 0.480561
vt 0.586400 0.480561
vt 0.593649 0.439301
vt 0.595842 0.439301
vt 0.595842 0.480581
vt 0.593649 0.480581
vt 0.504505 0.617921
vt 0.504505 0.622380
vt 0.500046 0.622380
vt 0.500046 0.617921
vt 0.504505 0.612825
vt 0.500046 0.612825
vt 0.595831 0.439325
vt 0.593631 0.439325
vt 0.593631 0.480561
vt 0.595831 0.480561
vt 0.504505 0.603270
vt 0.504505 0.607729
vt 0.500046 0.607729
vt 0.500046 0.603270
vt 0.591116 0.439325
vt 0.588600 0.439325
vt 0.588600 0.480561
vt 0.591116 0.480561
vt 0.624846 0.555713
vt 0.624846 0.550387
vt 0.562933 0.555713
vt 0.562933 0.550387
vt 0.596606 0.550387
vt 0.596606 0.555713
vt 0.509601 0.617921
vt 0.509601 0.622380
vt 0.591143 0.439301
vt 0.591143 0.480581
vt 0.586445 0.439301
vt 0.588637 0.439301
vt 0.588637 0.480581
vt 0.586445 0.480581
vt 0.519156 0.617921
vt 0.519156 0.622380
vt 0.514697 0.622380
vt 0.514697 0.617921
vt 0.605201 0.555713
vt 0.605201 0.550387
vt 0.505137 0.617339
vt 0.505137 0.622381
vt 0.500047 0.622381
vt 0.500047 0.617339
vt 0.526801 0.617339
vt 0.526801 0.622381
vt 0.541451 0.617921
vt 0.541451 0.622380
vt 0.575481 0.439301
vt 0.575481 0.480581
vt 0.586375 0.439303
vt 0.575400 0.439303
vt 0.575400 0.480549
vt 0.586375 0.480549
vt 0.505137 0.595627
vt 0.500047 0.595627
vt 0.504505 0.580975
vt 0.500046 0.580975
vt 0.586393 0.439291
vt 0.575377 0.439291
vt 0.575377 0.480562
vt 0.586393 0.480562
vt 0.511346 0.501284
vt 0.511346 0.495470
vt 0.504734 0.495470
vt 0.504734 0.501284
vt 0.511346 0.608423
vt 0.511346 0.615068
vt 0.504700 0.615068
vt 0.504700 0.608423
vt 0.511397 0.507394
vt 0.504734 0.507394
vt 0.504734 0.501580
vt 0.511397 0.501580
vt 0.511397 0.536467
vt 0.504734 0.536467
vt 0.511346 0.530357
vt 0.504734 0.530357
vt 0.615024 0.555713
vt 0.615024 0.550387
vt 0.511346 0.601778
vt 0.504700 0.601778
vt 0.872642 0.553811
vt 0.879539 0.547032
vt 0.872760 0.540135
vt 0.865863 0.546914
vt 0.517991 0.608423
vt 0.517991 0.615068
s 0
usemtl Material
f 31/1/1 3/2/1 4/3/1 29/4/1
f 14/5/2 1/6/2 2/7/2 15/8/2
f 16/9/3 15/10/3 2/11/3 8/12/3
f 51/13/3 16/9/3 8/12/3 50/14/3
f 1/15/1 7/16/1 8/17/1 2/18/1
f 33/19/3 17/20/3 10/21/3 29/22/3
f 49/23/1 11/24/1 10/25/1 50/26/1
f 20/27/4 46/28/4 39/28/4 25/27/4
f 13/29/5 44/30/5 41/31/5 33/32/5
f 58/33/3 56/34/3 15/10/3 16/9/3
f 57/35/2 14/5/2 15/8/2 56/36/2
f 24/37/2 19/38/2 22/39/2 28/40/2
f 25/41/3 28/42/3 22/43/3 20/44/3
f 21/45/1 47/46/1 48/31/1 34/32/1
f 35/47/3 26/48/3 21/49/3 34/50/3
f 32/51/3 12/52/3 26/48/3 35/47/3
f 9/53/3 6/54/3 28/42/3 25/41/3
f 5/55/2 24/37/2 28/40/2 6/56/2
f 36/57/4 30/58/4 32/59/4 35/60/4
f 23/61/3 35/47/3 34/50/3 18/62/3
f 34/32/1 48/31/1 45/30/1 18/29/1
f 13/63/3 33/19/3 29/22/3 4/64/3
f 27/65/5 36/66/5 35/67/5 23/68/5
f 11/24/1 31/1/1 29/4/1 10/25/1
f 62/69/3 61/70/3 42/71/3 41/72/3
f 63/73/3 60/74/3 43/75/3 53/76/3
f 55/77/3 39/78/3 46/79/3 54/80/3
f 52/81/3 38/82/3 39/78/3 55/77/3
f 59/83/3 62/69/3 41/72/3 44/84/3
f 51/85/5 53/86/5 43/28/5 16/27/5
f 26/45/2 40/46/2 47/46/2 21/45/2
f 58/27/4 60/28/4 46/28/4 20/27/4
f 33/32/5 41/31/5 42/46/5 17/45/5
f 12/45/2 37/46/2 40/46/2 26/45/2
f 25/27/4 39/28/4 38/28/4 9/27/4
f 17/45/5 42/46/5 53/86/5 51/85/5
f 37/82/3 52/81/3 55/77/3 40/78/3
f 40/78/3 55/77/3 54/80/3 47/79/3
f 61/87/3 63/73/3 53/76/3 42/88/3
f 7/16/1 49/23/1 50/26/1 8/17/1
f 17/20/3 51/13/3 50/14/3 10/21/3
f 47/89/3 54/90/3 63/91/3 61/92/3
f 16/27/4 43/28/4 60/28/4 58/27/4
f 45/84/3 48/72/3 62/69/3 59/83/3
f 54/93/3 46/94/3 60/74/3 63/73/3
f 48/72/3 47/71/3 61/70/3 62/69/3
f 19/38/2 57/35/2 56/36/2 22/39/2
f 20/44/3 22/43/3 56/34/3 58/33/3
