# Blender 3.6.5
# www.blender.org
mtllib Poly_Bucket_01.mtl
o Cylinder.001
o Plane
v -0.138851 0.379179 0.138844
v 0.138820 0.379179 0.138844
v -0.138851 0.379179 -0.138827
v 0.138820 0.379179 -0.138827
v -0.193774 0.379179 0.000008
v 0.193743 0.379179 0.000008
v -0.000016 0.379179 0.193767
v -0.000016 0.379179 -0.193750
v 0.114211 -0.001334 0.114235
v -0.177955 0.379179 0.177948
v 0.177923 0.379179 0.177948
v -0.177955 0.379179 -0.177931
v 0.177923 0.379179 -0.177931
v -0.248347 0.379179 0.000008
v 0.248315 0.379179 0.000008
v -0.000016 0.379179 0.248340
v -0.000016 0.379179 -0.248323
v -0.114243 -0.001334 0.114235
v -0.114243 -0.001334 -0.114218
v 0.114211 -0.001334 -0.114218
v -0.159430 -0.001334 0.000008
v 0.159399 -0.001334 0.000008
v -0.000016 -0.001334 0.159423
v -0.000016 -0.001334 -0.159406
v -0.146415 -0.001334 0.146408
v 0.146384 -0.001334 0.146408
v -0.146415 -0.001334 -0.146391
v 0.146384 -0.001334 -0.146391
v -0.204330 -0.001334 0.000008
v 0.204299 -0.001334 0.000008
v -0.000016 -0.001334 0.204323
v -0.000016 -0.001334 -0.204306
v -0.158107 0.498151 0.158100
v 0.158076 0.498151 0.158100
v -0.158107 0.498151 -0.158083
v 0.158076 0.498151 -0.158083
v -0.220648 0.498151 0.000008
v 0.220616 0.498151 0.000008
v -0.000016 0.498151 0.220641
v -0.000016 0.498151 -0.220624
v -0.202634 0.498151 0.202627
v 0.202603 0.498151 0.202627
v -0.202634 0.498151 -0.202610
v 0.202603 0.498151 -0.202610
v -0.282790 0.498151 0.000008
v 0.282758 0.498151 0.000008
v -0.000016 0.498151 0.282782
v -0.000016 0.498151 -0.282766
v -0.000016 0.036762 0.163689
v -0.117299 0.036762 0.117292
v -0.163696 0.036762 0.000008
v -0.000016 0.036762 -0.163672
v 0.117268 0.036762 -0.117275
v 0.117268 0.036762 0.117292
v 0.163665 0.036762 0.000008
v -0.117299 0.036762 -0.117275
v 0.000000 -0.000000 -0.000000
v 0.000000 -0.000000 -0.000000
v 0.000000 -0.000000 -0.000000
v 0.000000 -0.000000 -0.000000
v 0.000000 -0.000000 -0.000000
v 0.000000 -0.000000 -0.000000
v 0.000000 -0.000000 -0.000000
v 0.000000 -0.000000 -0.000000
vn -0.0000 -1.0000 -0.0000
vn -0.9100 0.2056 0.3600
vn -0.8979 -0.2599 -0.3552
vn -0.3600 0.2056 -0.9100
vn -0.3600 0.2056 0.9100
vn -0.3552 -0.2599 -0.8979
vn 0.9100 0.2056 -0.3600
vn 0.3600 0.2056 -0.9100
vn 0.8979 -0.2599 -0.3552
vn 0.9245 -0.1069 -0.3657
vn -0.0084 -1.0000 -0.0033
vn 0.0864 0.9720 0.2183
vn -0.3657 -0.1069 -0.9245
vn 0.0033 -1.0000 -0.0084
vn 0.2183 0.9721 0.0864
vn -0.9245 -0.1069 -0.3657
vn 0.0084 -1.0000 -0.0033
vn 0.9245 -0.1069 0.3657
vn -0.2183 0.9720 -0.0864
vn 0.0864 0.9721 -0.2183
vn -0.3657 -0.1069 0.9245
vn -0.9245 -0.1069 0.3657
vn -0.0033 -1.0000 -0.0084
vn 0.3657 -0.1069 -0.9245
vn 0.3657 -0.1069 0.9245
vn -0.0000 1.0000 -0.0000
vn 0.8979 -0.2599 0.3552
vn 0.3600 0.2056 0.9100
vn 0.9100 0.2056 0.3600
vn -0.3552 -0.2599 0.8979
vn -0.8979 -0.2599 0.3552
vn -0.9100 0.2056 -0.3600
vn 0.3552 -0.2599 -0.8979
vn 0.3552 -0.2599 0.8979
vn -0.9268 0.0814 -0.3666
vn 0.9268 0.0814 0.3666
vn 0.3666 0.0814 0.9268
vn -0.9268 0.0814 0.3666
vn -0.3666 0.0814 -0.9268
vn -0.3666 0.0814 0.9268
vn 0.9268 0.0814 -0.3666
vn 0.3666 0.0814 -0.9268
vn 0.0033 -1.0000 0.0084
vn -0.2183 0.9720 0.0864
vn 0.0084 -1.0000 0.0033
vn -0.0864 0.9720 -0.2183
vn -0.0864 0.9720 0.2183
vn -0.0033 -1.0000 0.0084
vn -0.0084 -1.0000 0.0033
vn 0.2183 0.9721 -0.0864
vt 0.591642 0.839098
vt 0.596200 0.839098
vt 0.596200 0.837444
vt 0.591642 0.837444
vt 0.587711 0.854992
vt 0.599956 0.854992
vt 0.599956 0.859947
vt 0.587711 0.859947
vt 0.587707 0.827026
vt 0.593727 0.827026
vt 0.593727 0.831478
vt 0.587707 0.831478
vt 0.599563 0.827026
vt 0.599563 0.831478
vt 0.593727 0.812676
vt 0.599563 0.812676
vt 0.596200 0.846156
vt 0.594960 0.836393
vt 0.590414 0.836393
vt 0.590414 0.842673
vt 0.587707 0.812676
vt 0.590414 0.842741
vt 0.599669 0.860130
vt 0.599680 0.865363
vt 0.588342 0.865398
vt 0.588331 0.860164
vt 0.588342 0.865398
vt 0.587711 0.840680
vt 0.599956 0.840680
vt 0.584479 0.896946
vt 0.595930 0.896946
vt 0.584479 0.896946
vt 0.584479 0.908397
vt 0.584479 0.908397
vt 0.607381 0.919849
vt 0.595930 0.919849
vt 0.607381 0.919849
vt 0.607381 0.908397
vt 0.584479 0.919849
s 0
usemtl Material
f 9/1/1 22/2/1 30/3/1 26/4/1
f 24/2/1 19/1/1 27/4/1 32/3/1
f 23/2/1 9/1/1 26/4/1 31/3/1
f 20/1/1 24/2/1 32/3/1 28/4/1
f 19/1/1 21/2/1 29/3/1 27/4/1
f 22/2/1 20/1/1 28/4/1 30/3/1
f 21/2/1 18/1/1 25/4/1 29/3/1
f 18/1/1 23/2/1 31/3/1 25/4/1
f 4/5/2 6/6/2 38/7/2 36/8/2
f 12/9/3 14/10/3 45/11/3 43/12/3
f 2/6/4 7/5/4 39/8/4 34/7/4
f 8/6/5 4/5/5 36/8/5 40/7/5
f 17/10/6 12/13/6 43/14/6 48/11/6
f 1/5/7 5/6/7 37/7/7 33/8/7
f 7/5/8 1/6/8 33/7/8 39/8/8
f 15/10/9 13/13/9 44/14/9 46/11/9
f 13/13/10 15/10/10 30/15/10 28/16/10
f 22/2/11 9/1/11 57/17/11
f 52/18/12 56/19/12 60/20/12 59/20/12
f 12/13/13 17/10/13 32/15/13 27/16/13
f 23/2/14 18/1/14 57/17/14
f 56/19/15 51/18/15 62/20/15 60/20/15
f 14/10/16 12/9/16 27/21/16 29/15/16
f 18/1/17 21/2/17 57/17/17
f 15/10/18 11/9/18 26/21/18 30/15/18
f 54/18/19 55/19/19 64/22/19 57/22/19
f 50/19/20 49/18/20 58/20/20 61/20/20
f 16/10/21 10/9/21 25/21/21 31/15/21
f 10/13/22 14/10/22 29/15/22 25/16/22
f 9/1/23 23/2/23 57/17/23
f 17/10/24 13/9/24 28/21/24 32/15/24
f 11/13/25 16/10/25 31/15/25 26/16/25
f 35/23/26 43/24/26 45/25/26 37/26/26
f 38/26/26 46/27/26 44/24/26 36/23/26
f 37/26/26 45/25/26 41/24/26 33/23/26
f 33/26/26 41/25/26 47/24/26 39/23/26
f 34/23/26 42/24/26 46/27/26 38/26/26
f 40/23/26 48/24/26 43/25/26 35/26/26
f 39/26/26 47/25/26 42/24/26 34/23/26
f 36/23/26 44/24/26 48/27/26 40/26/26
f 11/9/27 15/10/27 46/11/27 42/12/27
f 3/5/28 8/6/28 40/7/28 35/8/28
f 5/5/29 3/6/29 35/7/29 37/8/29
f 10/9/30 16/10/30 47/11/30 41/12/30
f 14/10/31 10/13/31 41/14/31 45/11/31
f 6/5/32 2/6/32 34/7/32 38/8/32
f 13/9/33 17/10/33 48/11/33 44/12/33
f 16/10/34 11/13/34 42/14/34 47/11/34
f 2/6/35 6/5/35 55/28/35 54/29/35
f 3/6/36 5/5/36 51/28/36 56/29/36
f 8/6/37 3/5/37 56/28/37 52/29/37
f 6/6/38 4/5/38 53/28/38 55/29/38
f 7/5/39 2/6/39 54/29/39 49/28/39
f 4/5/40 8/6/40 52/29/40 53/28/40
f 5/6/41 1/5/41 50/28/41 51/29/41
f 1/6/42 7/5/42 49/28/42 50/29/42
f 61/30/26 58/31/26 57/32/26
f 62/33/26 61/30/26 57/34/26
f 63/35/26 59/36/26 57/37/26
f 64/38/26 63/35/26 57/38/26
f 59/17/26 60/17/26 57/17/26
f 60/39/26 62/33/26 57/39/26
f 19/1/43 24/2/43 57/17/43
f 55/18/44 53/19/44 63/20/44 64/20/44
f 21/2/45 19/1/45 57/17/45
f 49/18/46 54/19/46 57/20/46 58/20/46
f 53/19/47 52/18/47 59/20/47 63/20/47
f 24/2/48 20/1/48 57/17/48
f 20/1/49 22/2/49 57/17/49
f 51/18/50 50/19/50 61/20/50 62/20/50
