# Blender 3.6.5
# www.blender.org
mtllib Poly_SF_Outside_B_Window_07.mtl
o Cube.001
v 0.300000 0.740000 -0.380000
v 0.300000 0.600000 -0.380000
v -0.300000 0.740000 -0.500000
v -0.300000 0.600000 -0.500000
v -0.300000 0.740000 -0.380000
v -0.300000 0.600000 -0.380000
v 0.300000 0.740000 -0.500000
v 0.300000 0.600000 -0.500000
v 0.300000 0.740000 -0.430000
v 0.300000 0.600000 -0.430000
v -0.300000 0.740000 -0.430000
v -0.300000 0.600000 -0.430000
vn -0.0000 1.0000 -0.0000
vn -0.0000 -0.0000 1.0000
vn 1.0000 -0.0000 -0.0000
vn -1.0000 -0.0000 -0.0000
vn -0.0000 -1.0000 -0.0000
vt 0.235542 0.550700
vt 0.200781 0.550700
vt 0.200781 0.547224
vt 0.235542 0.547224
vt 0.235498 0.555844
vt 0.235498 0.546982
vt 0.200735 0.546982
vt 0.200735 0.555844
vt 0.231648 0.555844
vt 0.231648 0.546982
vt 0.235427 0.546982
vt 0.235427 0.555844
vt 0.235542 0.547307
vt 0.200781 0.547307
s 0
usemtl regular
f 9/1/1 11/2/1 5/3/1 1/4/1
f 2/5/2 1/6/2 5/7/2 6/8/2
f 10/9/3 9/10/3 1/11/3 2/12/3
f 12/10/4 11/9/4 3/12/4 4/11/4
f 12/2/5 10/1/5 2/4/5 6/3/5
f 6/11/4 5/12/4 11/9/4 12/10/4
f 8/12/3 7/11/3 9/10/3 10/9/3
f 7/13/1 3/14/1 11/2/1 9/1/1
o Cube.002
v 0.300000 0.600000 -0.374000
v 0.300000 0.446000 -0.374000
v -0.300000 0.446000 -0.415000
v -0.300000 0.600000 -0.374000
v -0.300000 0.446000 -0.374000
v 0.300000 0.600000 -0.415000
v 0.300000 0.600000 -0.450000
v 0.300000 0.446000 -0.450000
v -0.300000 0.600000 -0.450000
v -0.300000 0.446000 -0.450000
v 0.300000 0.521000 -0.374000
v -0.300000 0.521000 -0.374000
v -0.300000 0.521000 -0.450000
v 0.300000 0.521000 -0.450000
v 0.300000 0.446000 -0.415000
v -0.300000 0.600000 -0.415000
v -0.300000 0.521000 -0.415000
v 0.300000 0.521000 -0.415000
v 0.300000 0.446000 -0.374000
v 0.300000 0.297000 -0.374000
v -0.300000 0.297000 -0.415000
v -0.300000 0.446000 -0.374000
v -0.300000 0.297000 -0.374000
v 0.300000 0.446000 -0.415000
v 0.300000 0.446000 -0.450000
v 0.300000 0.297000 -0.450000
v -0.300000 0.446000 -0.450000
v -0.300000 0.297000 -0.450000
v 0.300000 0.372000 -0.374000
v -0.300000 0.372000 -0.374000
v -0.300000 0.372000 -0.450000
v 0.300000 0.372000 -0.450000
v 0.300000 0.297000 -0.415000
v -0.300000 0.446000 -0.415000
v -0.300000 0.372000 -0.415000
v 0.300000 0.372000 -0.415000
v 0.300000 0.297000 -0.374000
v 0.300000 0.148000 -0.374000
v -0.300000 0.148000 -0.415000
v -0.300000 0.297000 -0.374000
v -0.300000 0.148000 -0.374000
v 0.300000 0.297000 -0.415000
v 0.300000 0.297000 -0.450000
v 0.300000 0.148000 -0.450000
v -0.300000 0.297000 -0.450000
v -0.300000 0.148000 -0.450000
v 0.300000 0.223000 -0.374000
v -0.300000 0.223000 -0.374000
v -0.300000 0.223000 -0.450000
v 0.300000 0.223000 -0.450000
v 0.300000 0.148000 -0.415000
v -0.300000 0.297000 -0.415000
v -0.300000 0.223000 -0.415000
v 0.300000 0.223000 -0.415000
v 0.300000 0.148000 -0.374000
v 0.300000 -0.001000 -0.374000
v -0.300000 -0.001000 -0.415000
v -0.300000 0.148000 -0.374000
v -0.300000 -0.001000 -0.374000
v 0.300000 0.148000 -0.415000
v 0.300000 0.148000 -0.450000
v 0.300000 -0.001000 -0.450000
v -0.300000 0.148000 -0.450000
v -0.300000 -0.001000 -0.450000
v 0.300000 0.074000 -0.374000
v -0.300000 0.074000 -0.374000
v -0.300000 0.074000 -0.450000
v 0.300000 0.074000 -0.450000
v 0.300000 -0.001000 -0.415000
v -0.300000 0.148000 -0.415000
v -0.300000 0.074000 -0.415000
v 0.300000 0.074000 -0.415000
vn -0.0000 -0.0000 1.0000
vn 1.0000 -0.0000 -0.0000
vn -1.0000 -0.0000 -0.0000
vn -0.0000 -1.0000 -0.0000
vt 0.235484 0.541183
vt 0.235484 0.538195
vt 0.200758 0.538195
vt 0.200758 0.541183
vt 0.233240 0.542157
vt 0.233240 0.538185
vt 0.235472 0.538195
vt 0.235472 0.542157
vt 0.233240 0.538195
vt 0.235484 0.533755
vt 0.235484 0.538777
vt 0.200758 0.538777
vt 0.200758 0.533755
vt 0.235484 0.529153
vt 0.200758 0.529153
vt 0.235484 0.534014
vt 0.200758 0.534014
vt 0.235484 0.538325
vt 0.235484 0.543186
vt 0.200758 0.543186
vt 0.200758 0.538325
vt 0.235484 0.532140
vt 0.200758 0.532140
vt 0.200758 0.541547
vt 0.235005 0.541547
vt 0.235005 0.538053
vt 0.200758 0.538053
vt 0.235484 0.542281
vt 0.200758 0.542281
s 0
usemtl regular
f 23/15/6 13/16/6 16/17/6 24/18/6
f 30/19/7 18/20/7 13/21/7 23/22/7
f 29/19/8 28/23/8 21/21/8 25/22/8
f 20/21/7 26/22/7 30/19/7 27/20/7
f 15/23/8 29/19/8 25/22/8 22/21/8
f 27/20/7 30/19/7 23/22/7 14/21/7
f 14/16/6 23/15/6 24/18/6 17/17/6
f 17/21/8 24/22/8 29/19/8 15/23/8
f 24/22/8 16/21/8 28/23/8 29/19/8
f 26/22/7 19/21/7 18/20/7 30/19/7
f 41/24/6 31/25/6 34/26/6 42/27/6
f 48/19/7 36/20/7 31/21/7 41/22/7
f 47/19/8 46/23/8 39/21/8 43/22/8
f 38/21/7 44/22/7 48/19/7 45/20/7
f 33/23/8 47/19/8 43/22/8 40/21/8
f 45/20/7 48/19/7 41/22/7 32/21/7
f 32/28/6 41/24/6 42/27/6 35/29/6
f 35/21/8 42/22/8 47/19/8 33/23/8
f 42/22/8 34/21/8 46/23/8 47/19/8
f 44/22/7 37/21/7 36/20/7 48/19/7
f 59/30/6 49/16/6 52/17/6 60/31/6
f 66/19/7 54/20/7 49/21/7 59/22/7
f 65/19/8 64/23/8 57/21/8 61/22/8
f 56/21/7 62/22/7 66/19/7 63/20/7
f 51/23/8 65/19/8 61/22/8 58/21/8
f 63/20/7 66/19/7 59/22/7 50/21/7
f 50/32/6 59/33/6 60/34/6 53/35/6
f 53/21/8 60/22/8 65/19/8 51/23/8
f 60/22/8 52/21/8 64/23/8 65/19/8
f 62/22/7 55/21/7 54/20/7 66/19/7
f 77/36/6 67/28/6 70/29/6 78/37/6
f 84/19/7 72/20/7 67/21/7 77/22/7
f 69/38/9 81/39/9 68/40/9 71/41/9
f 83/19/8 82/23/8 75/21/8 79/22/8
f 74/21/7 80/22/7 84/19/7 81/20/7
f 69/23/8 83/19/8 79/22/8 76/21/8
f 81/20/7 84/19/7 77/22/7 68/21/7
f 68/16/6 77/42/6 78/43/6 71/17/6
f 71/21/8 78/22/8 83/19/8 69/23/8
f 78/22/8 70/21/8 82/23/8 83/19/8
f 76/41/9 74/40/9 81/39/9 69/38/9
f 80/22/7 73/21/7 72/20/7 84/19/7
o Cube.003
v -0.300000 0.600000 -0.500000
v -0.300000 0.446000 -0.500000
v 0.300000 0.600000 -0.500000
v 0.300000 0.446000 -0.500000
v 0.300000 0.600000 -0.450000
v 0.300000 0.446000 -0.450000
v -0.300000 0.600000 -0.450000
v -0.300000 0.446000 -0.450000
v 0.300000 0.521000 -0.500000
v -0.300000 0.521000 -0.500000
v -0.300000 0.521000 -0.450000
v 0.300000 0.521000 -0.450000
v 0.300000 0.446000 -0.470000
v -0.300000 0.600000 -0.470000
v 0.300000 0.600000 -0.470000
v -0.300000 0.446000 -0.470000
v 0.300000 0.521000 -0.470000
v -0.300000 0.521000 -0.470000
v -0.300000 0.446000 -0.500000
v -0.300000 0.292000 -0.500000
v 0.300000 0.446000 -0.500000
v 0.300000 0.292000 -0.500000
v 0.300000 0.446000 -0.450000
v 0.300000 0.292000 -0.450000
v -0.300000 0.446000 -0.450000
v -0.300000 0.292000 -0.450000
v 0.300000 0.367000 -0.500000
v -0.300000 0.367000 -0.500000
v -0.300000 0.367000 -0.450000
v 0.300000 0.367000 -0.450000
v 0.300000 0.292000 -0.470000
v -0.300000 0.446000 -0.470000
v 0.300000 0.446000 -0.470000
v -0.300000 0.292000 -0.470000
v 0.300000 0.367000 -0.470000
v -0.300000 0.367000 -0.470000
v -0.300000 0.292000 -0.500000
v -0.300000 0.138000 -0.500000
v 0.300000 0.292000 -0.500000
v 0.300000 0.138000 -0.500000
v 0.300000 0.292000 -0.450000
v 0.300000 0.138000 -0.450000
v -0.300000 0.292000 -0.450000
v -0.300000 0.138000 -0.450000
v 0.300000 0.213000 -0.500000
v -0.300000 0.213000 -0.500000
v -0.300000 0.213000 -0.450000
v 0.300000 0.213000 -0.450000
v 0.300000 0.138000 -0.470000
v -0.300000 0.292000 -0.470000
v 0.300000 0.292000 -0.470000
v -0.300000 0.138000 -0.470000
v 0.300000 0.213000 -0.470000
v -0.300000 0.213000 -0.470000
v -0.300000 0.138000 -0.500000
v -0.300000 -0.016000 -0.500000
v 0.300000 0.138000 -0.500000
v 0.300000 -0.016000 -0.500000
v 0.300000 0.138000 -0.450000
v 0.300000 -0.016000 -0.450000
v -0.300000 0.138000 -0.450000
v -0.300000 -0.016000 -0.450000
v 0.300000 0.059000 -0.500000
v -0.300000 0.059000 -0.500000
v -0.300000 0.059000 -0.450000
v 0.300000 0.059000 -0.450000
v 0.300000 -0.016000 -0.470000
v -0.300000 0.138000 -0.470000
v 0.300000 0.138000 -0.470000
v -0.300000 -0.016000 -0.470000
v 0.300000 0.059000 -0.470000
v -0.300000 0.059000 -0.470000
vn -1.0000 -0.0000 -0.0000
vn 1.0000 -0.0000 -0.0000
vn -0.0000 -1.0000 -0.0000
vt 0.233827 0.550895
vt 0.233827 0.553167
vt 0.235391 0.553167
vt 0.235391 0.550895
vt 0.233552 0.550895
vt 0.233552 0.553167
vt 0.233827 0.548489
vt 0.235391 0.548489
vt 0.233552 0.548489
vt 0.200758 0.550023
vt 0.235484 0.550023
vt 0.235484 0.551057
vt 0.200758 0.551057
vt 0.233552 0.547003
vt 0.233552 0.549396
vt 0.235391 0.549396
vt 0.235391 0.547003
vt 0.233827 0.547003
vt 0.233827 0.549396
vt 0.200758 0.548990
vt 0.235484 0.548990
s 0
usemtl regular
f 102/44/10 98/45/10 85/46/10 94/47/10
f 101/48/11 99/49/11 89/46/11 96/47/11
f 97/49/11 101/48/11 96/47/11 90/46/11
f 100/50/10 102/44/10 94/47/10 86/51/10
f 92/51/10 95/47/10 102/48/10 100/52/10
f 88/46/11 93/47/11 101/44/11 97/45/11
f 93/47/11 87/46/11 99/45/11 101/44/11
f 95/47/10 91/46/10 98/49/10 102/48/10
f 120/44/10 116/45/10 103/46/10 112/47/10
f 119/48/11 117/49/11 107/46/11 114/47/11
f 115/49/11 119/48/11 114/47/11 108/46/11
f 118/50/10 120/44/10 112/47/10 104/51/10
f 110/51/10 113/47/10 120/48/10 118/52/10
f 106/46/11 111/47/11 119/44/11 115/45/11
f 111/47/11 105/46/11 117/45/11 119/44/11
f 113/47/10 109/46/10 116/49/10 120/48/10
f 138/44/10 134/45/10 121/46/10 130/47/10
f 137/48/11 135/49/11 125/46/11 132/47/11
f 133/49/11 137/48/11 132/47/11 126/46/11
f 136/50/10 138/44/10 130/47/10 122/51/10
f 128/51/10 131/47/10 138/48/10 136/52/10
f 124/46/11 129/47/11 137/44/11 133/45/11
f 129/47/11 123/46/11 135/45/11 137/44/11
f 131/47/10 127/46/10 134/49/10 138/48/10
f 156/44/10 152/45/10 139/46/10 148/47/10
f 154/53/12 151/54/12 144/55/12 146/56/12
f 155/48/11 153/49/11 143/46/11 150/47/11
f 151/57/11 155/58/11 150/59/11 144/60/11
f 154/61/10 156/62/10 148/59/10 140/60/10
f 146/60/10 149/59/10 156/58/10 154/57/10
f 142/60/11 147/59/11 155/62/11 151/61/11
f 147/47/11 141/46/11 153/45/11 155/44/11
f 140/63/12 142/64/12 151/54/12 154/53/12
f 149/47/10 145/46/10 152/49/10 156/48/10
o Cube.004
v -0.230000 -0.019763 -0.344408
v -0.230000 0.252421 -0.344408
v -0.230000 -0.019763 -0.374408
v -0.230000 0.252421 -0.374408
v -0.170000 -0.019763 -0.344408
v -0.170000 0.252421 -0.344408
v -0.170000 -0.019763 -0.374408
v -0.170000 0.252421 -0.374408
v 0.230000 -0.019763 -0.344408
v 0.230000 0.252421 -0.344408
v 0.230000 -0.019763 -0.374408
v 0.230000 0.252421 -0.374408
v 0.170000 -0.019763 -0.344408
v 0.170000 0.252421 -0.344408
v 0.170000 -0.019763 -0.374408
v 0.170000 0.252421 -0.374408
vn -1.0000 -0.0000 -0.0000
vn -0.0000 -0.0000 -1.0000
vn 1.0000 -0.0000 -0.0000
vn -0.0000 -0.0000 1.0000
vn -0.0000 -1.0000 -0.0000
vn -0.0000 1.0000 -0.0000
vt 0.230615 0.527132
vt 0.230615 0.509248
vt 0.234296 0.509248
vt 0.234296 0.527132
s 0
usemtl regular
f 157/65/13 158/66/13 160/67/13 159/68/13
f 159/68/14 160/67/14 164/66/14 163/65/14
f 163/65/15 164/66/15 162/67/15 161/68/15
f 161/68/16 162/67/16 158/66/16 157/65/16
f 159/66/17 163/65/17 161/68/17 157/67/17
f 164/66/18 160/65/18 158/68/18 162/67/18
f 165/65/15 167/68/15 168/67/15 166/66/15
f 167/68/14 171/65/14 172/66/14 168/67/14
f 171/65/13 169/68/13 170/67/13 172/66/13
f 169/68/16 165/65/16 166/66/16 170/67/16
f 167/66/17 165/67/17 169/68/17 171/65/17
f 172/66/18 170/67/18 166/68/18 168/65/18
