# Blender 3.6.5
# www.blender.org
mtllib Poly_SF_Outside_B_Board_Neo_Sign_16.mtl
o Cube
v 1.000000 0.000000 -0.100000
v -1.000000 0.000000 -0.100000
v 1.000000 0.000000 0.100000
v -1.000000 0.000000 0.100000
v 1.000000 0.600000 -0.100000
v -1.000000 0.600000 -0.100000
v 1.000000 0.600000 0.100000
v -1.000000 0.600000 0.100000
vn 1.0000 -0.0000 -0.0000
vn -0.0000 -0.0000 1.0000
vn -0.0000 1.0000 -0.0000
vn -1.0000 -0.0000 -0.0000
vn -0.0000 -1.0000 -0.0000
vn -0.0000 -0.0000 -1.0000
vt 0.293952 0.298143
vt 0.217502 0.298143
vt 0.217502 0.293057
vt 0.293952 0.293057
vt 0.191453 0.191455
vt 0.308551 0.191455
vt 0.308551 0.227774
vt 0.191453 0.227774
vt 0.187569 0.293057
vt 0.312377 0.293057
vt 0.312377 0.298143
vt 0.187569 0.298143
s 0
usemtl Material
f 1/1/1 5/2/1 7/3/1 3/4/1
f 4/5/2 3/6/2 7/7/2 8/8/2
f 8/9/3 7/10/3 5/11/3 6/12/3
f 6/1/4 2/2/4 4/3/4 8/4/4
f 2/12/5 1/11/5 3/10/5 4/9/5
f 6/8/6 5/7/6 1/6/6 2/5/6
o Cube.001
v 0.400000 0.600000 -0.100000
v -0.400000 0.600000 -0.100000
v 0.400000 0.600000 0.100000
v -0.400000 0.600000 0.100000
v 0.400000 0.700000 -0.100000
v -0.400000 0.700000 -0.100000
v 0.400000 0.700000 0.100000
v -0.400000 0.700000 0.100000
v -0.500000 0.600000 -0.100000
v -0.500000 0.600000 0.100000
v -0.500000 0.700000 -0.100000
v -0.500000 0.700000 0.100000
v 0.500000 0.600000 -0.100000
v 0.500000 0.600000 0.100000
v 0.500000 0.700000 -0.100000
v 0.500000 0.700000 0.100000
vn -0.0000 1.0000 -0.0000
vn -0.0000 -0.0000 1.0000
vn -0.0000 -1.0000 -0.0000
vn -0.0000 -0.0000 -1.0000
vn -1.0000 -0.0000 -0.0000
vn 1.0000 -0.0000 -0.0000
vt 0.267396 0.298143
vt 0.267396 0.293057
vt 0.271660 0.293057
vt 0.271660 0.298143
vt 0.226742 0.227655
vt 0.273262 0.227655
vt 0.273262 0.234348
vt 0.226742 0.234348
vt 0.233284 0.293057
vt 0.233284 0.298143
vt 0.229020 0.298143
vt 0.229020 0.293057
vt 0.187569 0.298143
vt 0.312377 0.298143
vt 0.312377 0.293057
vt 0.187569 0.293057
vt 0.271928 0.298143
vt 0.239527 0.298143
vt 0.239527 0.293057
vt 0.271928 0.293057
vt 0.218795 0.227655
vt 0.218795 0.234348
vt 0.273263 0.227655
vt 0.273263 0.234348
vt 0.281202 0.234348
vt 0.281202 0.227655
s 0
usemtl Material
f 13/13/7 15/14/7 24/15/7 23/16/7
f 12/17/8 11/18/8 15/19/8 16/20/8
f 16/21/7 15/14/7 13/13/7 14/22/7
f 16/21/7 14/22/7 19/23/7 20/24/7
f 10/25/9 9/26/9 11/27/9 12/28/9
f 14/20/10 13/19/10 9/18/10 10/17/10
f 19/29/11 17/30/11 18/31/11 20/32/11
f 10/25/9 12/28/9 18/28/9 17/25/9
f 14/20/10 10/17/10 17/33/10 19/34/10
f 12/17/8 16/20/8 20/34/8 18/33/8
f 21/29/12 23/30/12 24/31/12 22/32/12
f 11/27/9 9/26/9 21/26/9 22/27/9
f 9/35/10 13/36/10 23/37/10 21/38/10
f 15/36/8 11/35/8 22/38/8 24/37/8
o Cube.002
v 0.000000 0.700000 -0.100000
v -0.200000 0.700000 -0.100000
v 0.000000 0.767000 -0.100000
v -0.200000 0.767000 -0.100000
v 0.000000 0.786000 -0.100000
v -0.067000 0.700000 -0.100000
v -0.067000 0.767000 -0.100000
v -0.067000 0.786000 -0.100000
v 0.200000 0.700000 -0.100000
v 0.200000 0.767000 -0.100000
v 0.067000 0.700000 -0.100000
v 0.067000 0.767000 -0.100000
v 0.067000 0.786000 -0.100000
v 0.000000 0.700000 0.100000
v -0.200000 0.700000 0.100000
v 0.000000 0.767000 0.100000
v -0.200000 0.767000 0.100000
v 0.000000 0.786000 0.100000
v -0.067000 0.700000 0.100000
v -0.067000 0.767000 0.100000
v -0.067000 0.786000 0.100000
v 0.200000 0.700000 0.100000
v 0.200000 0.767000 0.100000
v 0.067000 0.700000 0.100000
v 0.067000 0.767000 0.100000
v 0.067000 0.786000 0.100000
v 0.000000 0.867000 -0.100000
v -0.067000 0.867000 -0.100000
v 0.000000 0.867000 0.100000
v -0.067000 0.867000 0.100000
v -0.022000 0.867000 -0.100000
v -0.022000 0.786000 -0.100000
v -0.022000 0.867000 0.100000
v -0.022000 0.786000 0.100000
v -0.045000 0.867000 -0.100000
v -0.045000 0.786000 -0.100000
v -0.045000 0.867000 0.100000
v -0.045000 0.786000 0.100000
v 0.000000 0.827000 -0.100000
v -0.067000 0.827000 -0.100000
v 0.000000 0.827000 0.100000
v -0.067000 0.827000 0.100000
v -0.022000 0.827000 0.100000
v -0.022000 0.827000 -0.100000
v -0.045000 0.827000 0.100000
v -0.045000 0.827000 -0.100000
v 0.067000 0.867000 -0.100000
v 0.067000 0.867000 0.100000
v 0.022000 0.867000 -0.100000
v 0.022000 0.786000 -0.100000
v 0.022000 0.867000 0.100000
v 0.022000 0.786000 0.100000
v 0.045000 0.867000 -0.100000
v 0.045000 0.786000 -0.100000
v 0.045000 0.867000 0.100000
v 0.045000 0.786000 0.100000
v 0.067000 0.827000 -0.100000
v 0.067000 0.827000 0.100000
v 0.022000 0.827000 0.100000
v 0.022000 0.827000 -0.100000
v 0.045000 0.827000 0.100000
v 0.045000 0.827000 -0.100000
vn -0.0000 -0.0000 -1.0000
vn -0.0000 -0.0000 1.0000
vn -0.0000 -1.0000 -0.0000
vn -1.0000 -0.0000 -0.0000
vn -0.0000 1.0000 -0.0000
vn 1.0000 -0.0000 -0.0000
vt 0.246099 0.234089
vt 0.238372 0.234089
vt 0.238367 0.238294
vt 0.246099 0.238294
vt 0.249997 0.238294
vt 0.246099 0.239508
vt 0.249995 0.239508
vt 0.250002 0.234089
vt 0.236715 0.298143
vt 0.239584 0.298143
vt 0.239584 0.293057
vt 0.236715 0.293057
vt 0.251006 0.298143
vt 0.244230 0.298143
vt 0.244230 0.293057
vt 0.251006 0.293057
vt 0.235886 0.298143
vt 0.235886 0.293057
vt 0.264664 0.298143
vt 0.257889 0.298143
vt 0.257889 0.293057
vt 0.264664 0.293057
vt 0.250655 0.243599
vt 0.248732 0.243599
vt 0.248732 0.244634
vt 0.250655 0.244634
vt 0.252153 0.298143
vt 0.252153 0.293057
vt 0.234100 0.298143
vt 0.234100 0.293057
vt 0.254447 0.298143
vt 0.253300 0.298143
vt 0.253300 0.293057
vt 0.254447 0.293057
vt 0.250655 0.242211
vt 0.248732 0.242211
vt 0.248671 0.239610
vt 0.247430 0.239610
vt 0.247430 0.242175
vt 0.248671 0.242175
vt 0.250655 0.239609
vt 0.248732 0.239610
vt 0.248732 0.242175
vt 0.250655 0.242175
vt 0.232387 0.298143
vt 0.232387 0.293057
vt 0.247338 0.239610
vt 0.247335 0.242175
vt 0.246113 0.242175
vt 0.246116 0.239609
s 0
usemtl Material
f 30/39/13 26/40/13 28/41/13 31/42/13
f 27/43/13 31/42/13 32/44/13 29/45/13
f 25/46/13 30/39/13 31/42/13 27/43/13
f 35/39/13 36/42/13 34/41/13 33/40/13
f 27/43/13 29/45/13 37/44/13 36/42/13
f 25/46/13 27/43/13 36/42/13 35/39/13
f 43/39/14 44/42/14 41/41/14 39/40/14
f 40/43/14 42/45/14 45/44/14 44/42/14
f 38/46/14 40/43/14 44/42/14 43/39/14
f 48/39/14 46/40/14 47/41/14 49/42/14
f 40/43/14 49/42/14 50/44/14 42/45/14
f 38/46/14 48/39/14 49/42/14 40/43/14
f 30/39/15 25/46/15 38/46/15 43/39/15
f 28/47/16 26/48/16 39/49/16 41/50/16
f 26/40/15 30/39/15 43/39/15 39/40/15
f 31/51/17 28/52/17 41/53/17 44/54/17
f 32/55/16 31/47/16 44/50/16 45/56/16
f 25/46/15 35/39/15 48/39/15 38/46/15
f 33/48/18 34/47/18 47/50/18 46/49/18
f 35/39/15 33/40/15 46/40/15 48/39/15
f 34/57/17 36/58/17 49/59/17 47/60/17
f 36/47/18 37/55/18 50/56/18 49/50/18
f 70/61/13 64/62/13 52/63/13 59/64/13
f 69/61/14 61/64/14 54/63/14 66/62/14
f 59/65/17 52/51/17 54/54/17 61/66/17
f 64/67/16 32/55/16 45/56/16 66/68/16
f 51/69/17 55/70/17 57/71/17 53/72/17
f 65/73/14 53/64/14 57/63/14 67/74/14
f 63/73/13 68/74/13 55/63/13 51/64/13
f 55/70/17 59/65/17 61/66/17 57/71/17
f 67/74/14 57/63/14 61/64/14 69/73/14
f 68/74/13 70/73/13 59/64/13 55/63/13
f 56/75/13 60/76/13 70/77/13 68/78/13
f 58/75/14 67/78/14 69/77/14 62/76/14
f 29/79/13 56/80/13 68/81/13 63/82/13
f 42/79/14 65/82/14 67/81/14 58/80/14
f 52/83/16 64/67/16 66/68/16 54/84/16
f 62/85/14 69/86/14 66/87/14 45/88/14
f 60/85/13 32/88/13 64/87/13 70/86/13
f 86/61/13 77/64/13 71/63/13 81/62/13
f 85/61/14 82/62/14 72/63/14 79/64/14
f 77/65/17 79/66/17 72/54/17 71/51/17
f 81/67/18 82/68/18 50/56/18 37/55/18
f 51/69/17 53/72/17 75/71/17 73/70/17
f 65/73/14 83/74/14 75/63/14 53/64/14
f 63/73/13 51/64/13 73/63/13 84/74/13
f 73/70/17 75/71/17 79/66/17 77/65/17
f 83/74/14 85/73/14 79/64/14 75/63/14
f 84/74/13 73/63/13 77/64/13 86/73/13
f 74/75/13 84/78/13 86/77/13 78/76/13
f 76/75/14 80/76/14 85/77/14 83/78/14
f 29/79/13 63/82/13 84/81/13 74/80/13
f 42/79/14 76/80/14 83/81/14 65/82/14
f 71/83/18 72/84/18 82/68/18 81/67/18
f 80/85/14 50/88/14 82/87/14 85/86/14
f 78/85/13 86/86/13 81/87/13 37/88/13
