# Blender 3.6.5
# www.blender.org
mtllib Poly_Stairs_02_Down_Right.mtl
o Cube.005
v -0.500000 -0.073000 -0.500000
v -0.500000 -0.620000 -0.500000
v 0.502000 -0.620000 -0.500000
v -0.249000 -0.073000 -0.500000
v 0.502000 -0.483000 -0.500000
v -0.249000 -0.210000 -0.500000
v 0.002000 -0.210000 -0.500000
v 0.002000 -0.346000 -0.500000
v 0.251000 -0.346000 -0.500000
v 0.251000 -0.483000 -0.500000
v 0.502000 -0.620000 0.000000
v -0.500000 -0.073000 0.000000
v -0.500000 -0.620000 0.000000
v -0.249000 -0.073000 0.000000
v -0.249000 -0.210000 0.000000
v 0.002000 -0.210000 0.000000
v 0.002000 -0.346000 -0.000000
v 0.251000 -0.346000 0.000000
v 0.251000 -0.483000 0.000000
v 0.502000 -0.483000 0.000000
v -0.500000 -0.073000 0.500000
v -0.500000 -0.620000 0.500000
v 0.502000 -0.620000 0.500000
v -0.249000 -0.073000 0.500000
v 0.502000 -0.483000 0.500000
v -0.249000 -0.210000 0.500000
v 0.002000 -0.210000 0.500000
v 0.002000 -0.346000 0.500000
v 0.251000 -0.346000 0.500000
v 0.251000 -0.483000 0.500000
vn -1.0000 -0.0000 -0.0000
vn -0.0000 -0.0000 -1.0000
vn -0.0000 1.0000 -0.0000
vn 1.0000 -0.0000 -0.0000
vn -0.0000 -0.0000 1.0000
vt 0.234740 0.937655
vt 0.234740 0.964518
vt 0.248769 0.964518
vt 0.248769 0.937655
vt 0.248958 0.937614
vt 0.248958 0.960062
vt 0.238657 0.960062
vt 0.238657 0.954440
vt 0.228357 0.954440
vt 0.228357 0.948859
vt 0.218139 0.948859
vt 0.218139 0.943237
vt 0.207839 0.943237
vt 0.207839 0.937614
vt 0.248696 0.972696
vt 0.248696 0.989049
vt 0.231912 0.989151
vt 0.231898 0.972696
vt 0.200359 0.946680
vt 0.200359 0.963033
vt 0.187539 0.963033
vt 0.187539 0.946680
vt 0.233252 0.967214
vt 0.233252 0.989701
vt 0.248616 0.989701
vt 0.248616 0.967214
vt 0.215992 0.954610
vt 0.215992 0.970963
vt 0.200586 0.970963
vt 0.200586 0.954610
vt 0.231898 0.963663
vt 0.231898 0.980016
vt 0.216211 0.980016
vt 0.216211 0.963663
s 0
usemtl Material.002
f 13/1/1 12/2/1 1/3/1 2/4/1
f 2/5/2 1/6/2 4/7/2 6/8/2 7/9/2 8/10/2 9/11/2 10/12/2 5/13/2 3/14/2
f 1/15/3 12/16/3 14/17/3 4/18/3
f 10/19/3 19/20/3 20/21/3 5/22/3
f 9/23/4 18/24/4 19/25/4 10/26/4
f 8/27/3 17/28/3 18/29/3 9/30/3
f 7/23/4 16/24/4 17/25/4 8/26/4
f 6/31/3 15/32/3 16/33/3 7/34/3
f 4/23/4 14/24/4 15/25/4 6/26/4
f 3/26/4 5/23/4 20/24/4 11/25/4
f 13/1/1 22/4/1 21/3/1 12/2/1
f 22/5/5 23/14/5 25/13/5 30/12/5 29/11/5 28/10/5 27/9/5 26/8/5 24/7/5 21/6/5
f 21/15/3 24/18/3 14/17/3 12/16/3
f 30/19/3 25/22/3 20/21/3 19/20/3
f 29/23/4 30/26/4 19/25/4 18/24/4
f 28/27/3 29/30/3 18/29/3 17/28/3
f 27/23/4 28/26/4 17/25/4 16/24/4
f 26/31/3 27/34/3 16/33/3 15/32/3
f 24/23/4 26/26/4 15/25/4 14/24/4
f 23/26/4 11/25/4 20/24/4 25/23/4
o Cube.001
v -0.501000 -0.040000 0.000000
v -0.501000 -0.070000 0.000000
v -0.230000 -0.100000 -0.501000
v -0.230000 -0.040000 -0.501000
v -0.230000 -0.100000 0.501000
v -0.230000 -0.040000 0.501000
v -0.501000 -0.100000 -0.501000
v -0.501000 -0.040000 -0.501000
v -0.501000 -0.100000 0.501000
v -0.501000 -0.040000 0.501000
v -0.249000 -0.181000 0.000000
v -0.249000 -0.211000 0.000000
v 0.021000 -0.241000 -0.501000
v 0.021000 -0.181000 -0.501000
v 0.021000 -0.241000 0.501000
v 0.021000 -0.181000 0.501000
v -0.249000 -0.241000 -0.501000
v -0.249000 -0.181000 -0.501000
v -0.249000 -0.241000 0.501000
v -0.249000 -0.181000 0.501000
v 0.001000 -0.319000 0.000000
v 0.001000 -0.349000 0.000000
v 0.271000 -0.379000 -0.501000
v 0.271000 -0.319000 -0.501000
v 0.271000 -0.379000 0.501000
v 0.271000 -0.319000 0.501000
v 0.001000 -0.379000 -0.501000
v 0.001000 -0.319000 -0.501000
v 0.001000 -0.379000 0.501000
v 0.001000 -0.319000 0.501000
v 0.252000 -0.457000 -0.000000
v 0.252000 -0.487000 0.000000
v 0.522000 -0.517000 -0.501000
v 0.522000 -0.457000 -0.501000
v 0.522000 -0.517000 0.501000
v 0.522000 -0.457000 0.501000
v 0.252000 -0.517000 -0.501000
v 0.252000 -0.457000 -0.501000
v 0.252000 -0.517000 0.501000
v 0.252000 -0.457000 0.501000
vn 1.0000 -0.0000 -0.0000
vn -0.0000 -0.0000 1.0000
vn -1.0000 -0.0000 -0.0000
vn -0.0000 -0.0000 -1.0000
vn -0.0000 -1.0000 -0.0000
vn -0.0000 1.0000 -0.0000
vt 0.244857 0.922796
vt 0.238096 0.922851
vt 0.238045 0.880493
vt 0.244807 0.880438
vt 0.249654 0.964949
vt 0.249654 0.968582
vt 0.233297 0.968582
vt 0.233297 0.964949
vt 0.233299 0.999954
vt 0.250099 0.999954
vt 0.250099 0.967562
vt 0.233299 0.967562
s 0
usemtl Material.002
f 33/35/6 34/36/6 36/37/6 35/38/6
f 35/39/7 36/40/7 40/41/7 39/42/7
f 39/38/8 40/37/8 38/36/8 37/35/8
f 37/39/9 38/40/9 34/41/9 33/42/9
f 35/43/10 39/44/10 37/45/10 33/46/10
f 40/44/11 36/43/11 34/46/11 38/45/11
f 43/35/6 44/36/6 46/37/6 45/38/6
f 45/39/7 46/40/7 50/41/7 49/42/7
f 49/38/8 50/37/8 48/36/8 47/35/8
f 47/39/9 48/40/9 44/41/9 43/42/9
f 45/43/10 49/44/10 47/45/10 43/46/10
f 50/44/11 46/43/11 44/46/11 48/45/11
f 53/35/6 54/36/6 56/37/6 55/38/6
f 55/39/7 56/40/7 60/41/7 59/42/7
f 59/38/8 60/37/8 58/36/8 57/35/8
f 57/39/9 58/40/9 54/41/9 53/42/9
f 55/43/10 59/44/10 57/45/10 53/46/10
f 60/44/11 56/43/11 54/46/11 58/45/11
f 63/35/6 64/36/6 66/37/6 65/38/6
f 65/39/7 66/40/7 70/41/7 69/42/7
f 69/38/8 70/37/8 68/36/8 67/35/8
f 67/39/9 68/40/9 64/41/9 63/42/9
f 65/43/10 69/44/10 67/45/10 63/46/10
f 70/44/11 66/43/11 64/46/11 68/45/11
l 31 32
l 41 42
l 51 52
l 61 62
o Cube
v 0.440000 -0.500000 0.440000
v 0.440000 0.050000 0.440000
v -0.440000 -0.500000 0.440000
v -0.440000 0.050000 0.440000
v 0.440000 -0.500000 -0.440000
v 0.440000 0.050000 -0.440000
v -0.440000 -0.500000 -0.440000
v -0.440000 0.050000 -0.440000
v 0.440000 -0.100000 0.440000
v -0.440000 -0.100000 0.440000
v -0.440000 -0.100000 -0.440000
v 0.440000 -0.100000 -0.440000
v 0.500000 0.050000 0.500000
v -0.500000 0.050000 0.500000
v 0.500000 0.050000 -0.500000
v -0.500000 0.050000 -0.500000
v 0.500000 0.000000 0.500000
v -0.500000 0.000000 0.500000
v 0.500000 0.000000 -0.500000
v -0.500000 0.000000 -0.500000
vn -0.0000 -0.0000 -1.0000
vn 1.0000 -0.0000 -0.0000
vn -0.0000 -0.0000 1.0000
vn -1.0000 -0.0000 -0.0000
vn -0.0000 1.0000 -0.0000
vt 0.276292 0.923464
vt 0.306650 0.923464
vt 0.306650 0.931514
vt 0.276292 0.931514
vt 0.255625 0.923464
vt 0.255625 0.931514
vt 0.276258 0.923464
vt 0.276258 0.931514
vt 0.306819 0.923464
vt 0.276335 0.923464
vt 0.276335 0.931514
vt 0.306819 0.931514
vt 0.288324 0.917889
vt 0.306650 0.917889
vt 0.306650 0.903494
vt 0.288324 0.903494
vt 0.306650 0.913978
vt 0.276328 0.913978
vt 0.276328 0.926109
vt 0.306650 0.926109
vt 0.307417 0.932057
vt 0.255454 0.932059
vt 0.250563 0.936419
vt 0.312307 0.936419
vt 0.307417 0.932059
vt 0.255454 0.932057
vt 0.307259 0.931677
vt 0.255554 0.931677
vt 0.255554 0.927349
vt 0.307259 0.927349
vt 0.307466 0.931792
vt 0.255699 0.931792
vt 0.255679 0.926945
vt 0.307446 0.926945
s 0
usemtl Material.002
f 79/47/12 80/48/12 74/49/12 72/50/12
f 80/48/13 81/51/13 78/52/13 74/49/13
f 81/48/14 82/53/14 76/54/14 78/49/14
f 82/55/15 79/56/15 72/57/15 76/58/15
f 75/59/15 71/60/15 79/61/15 82/62/15
f 77/63/14 75/64/14 82/65/14 81/66/14
f 73/63/13 77/63/13 81/66/13 80/66/13
f 71/64/12 73/63/12 80/66/12 79/65/12
f 78/67/16 76/68/16 85/69/16 86/70/16
f 72/71/16 74/72/16 84/69/16 83/70/16
f 76/71/16 72/68/16 83/69/16 85/70/16
f 74/72/16 78/67/16 86/70/16 84/69/16
f 85/73/13 83/74/13 87/75/13 89/76/13
f 84/74/15 86/73/15 90/76/15 88/75/15
f 86/77/12 85/78/12 89/79/12 90/80/12
f 83/78/14 84/77/14 88/80/14 87/79/14
