# Blender 3.6.5
# www.blender.org
mtllib Poly_Window_01_Light_A.mtl
o light
v 0.280000 0.850000 -0.488000
v -0.280000 0.850000 -0.488000
v -0.280000 0.750000 -0.488000
v -0.050000 0.400000 -0.488000
v -0.050000 0.230000 -0.488000
v -0.280000 0.580000 -0.488000
v -0.050000 0.580000 -0.488000
v 0.280000 0.580000 -0.488000
v 0.280000 0.450000 -0.488000
v -0.050000 0.450000 -0.488000
v -0.280000 0.450000 -0.488000
v 0.280000 0.230000 -0.488000
v 0.050000 0.230000 -0.488000
v 0.280000 0.750000 -0.488000
v 0.280000 0.400000 -0.488000
v 0.050000 0.400000 -0.488000
v -0.280000 0.400000 -0.488000
v -0.280000 0.230000 -0.488000
v 0.050000 0.580000 -0.488000
v 0.050000 0.450000 -0.488000
v 0.050000 -0.500000 0.250000
v 0.050000 -0.500000 0.160000
v 0.280000 -0.500000 0.440000
v -0.280000 -0.500000 0.440000
v 0.280000 -0.500000 0.000000
v 0.280000 -0.500000 0.100000
v 0.050000 -0.500000 0.100000
v 0.280000 -0.500000 0.160000
v -0.280000 -0.500000 0.250000
v -0.280000 -0.500000 0.160000
v -0.050000 -0.500000 0.250000
v -0.050000 -0.500000 0.160000
v -0.280000 -0.500000 0.360000
v 0.280000 -0.500000 0.360000
v 0.050000 -0.500000 0.000000
v -0.050000 -0.500000 0.100000
v -0.280000 -0.500000 0.100000
v -0.280000 -0.500000 0.000000
v -0.050000 -0.500000 0.000000
v 0.280000 -0.500000 0.250000
vn -0.0000 -1.0000 -0.0000
vn 0.8864 -0.2573 -0.3849
vn 0.3413 0.5141 0.7869
vn 0.6154 0.4311 0.6599
vn 0.8340 -0.3066 -0.4587
vn -0.8864 -0.2573 -0.3849
vn -0.8340 -0.3066 -0.4587
vn -0.3517 0.5281 0.7729
vn -0.8855 -0.2619 -0.3839
vn -0.8347 -0.3103 -0.4550
vn -0.6073 0.4482 0.6559
vn 0.3517 0.5281 0.7729
vn 0.6073 0.4482 0.6559
vn 0.8855 -0.2619 -0.3839
vn 0.8347 -0.3103 -0.4550
vn 0.3531 0.5300 0.7710
vn -0.3531 0.5300 0.7710
vn -0.6062 0.4505 0.6554
vn 0.6062 0.4505 0.6554
vn -0.3413 0.5141 0.7869
vn -0.6154 0.4311 0.6599
vn -0.8857 -0.2606 -0.3842
vn -0.8345 -0.3093 -0.4560
vn 0.8857 -0.2606 -0.3842
vn 0.8345 -0.3093 -0.4560
vt 0.325975 0.165965
s 1
usemtl Material.001
f 23/1/1 24/1/1 33/1/1 34/1/1
f 12/1/2 15/1/3 26/1/4 25/1/5
f 18/1/6 5/1/2 39/1/5 38/1/7
f 19/1/8 20/1/9 22/1/10 21/1/11
f 8/1/12 19/1/8 21/1/11 40/1/13
f 11/1/9 10/1/14 32/1/15 30/1/10
f 1/1/16 2/1/17 24/1/18 23/1/19
f 25/1/1 26/1/1 27/1/1 35/1/1
f 39/1/1 36/1/1 37/1/1 38/1/1
f 32/1/1 31/1/1 29/1/1 30/1/1
f 28/1/1 40/1/1 21/1/1 22/1/1
f 9/1/14 8/1/12 40/1/13 28/1/15
f 17/1/20 18/1/6 38/1/7 37/1/21
f 15/1/3 16/1/20 27/1/21 26/1/4
f 2/1/17 3/1/22 33/1/23 24/1/18
f 14/1/24 1/1/16 23/1/19 34/1/25
f 13/1/6 12/1/2 25/1/5 35/1/7
f 20/1/9 9/1/14 28/1/15 22/1/10
f 5/1/2 4/1/3 36/1/4 39/1/5
f 16/1/20 13/1/6 35/1/7 27/1/21
f 7/1/12 6/1/8 29/1/11 31/1/13
f 3/1/22 14/1/24 34/1/25 33/1/23
f 4/1/3 17/1/20 37/1/21 36/1/4
f 6/1/8 11/1/9 30/1/10 29/1/11
f 10/1/14 7/1/12 31/1/13 32/1/15
o Light_inside
v 0.280000 0.850000 -0.488000
v -0.280000 0.850000 -0.488000
v -0.280000 0.750000 -0.488000
v -0.050000 0.400000 -0.488000
v -0.050000 0.230000 -0.488000
v -0.280000 0.580000 -0.488000
v -0.050000 0.580000 -0.488000
v 0.280000 0.580000 -0.488000
v 0.280000 0.450000 -0.488000
v -0.050000 0.450000 -0.488000
v -0.280000 0.450000 -0.488000
v 0.280000 0.230000 -0.488000
v 0.050000 0.230000 -0.488000
v 0.280000 0.750000 -0.488000
v 0.280000 0.400000 -0.488000
v 0.050000 0.400000 -0.488000
v -0.280000 0.400000 -0.488000
v -0.280000 0.230000 -0.488000
v 0.050000 0.580000 -0.488000
v 0.050000 0.450000 -0.488000
vn -0.0000 -0.0000 1.0000
vn -0.0000 -0.0001 -1.0000
vn 0.0001 -0.0000 -1.0000
vn -0.0000 0.0001 -1.0000
vn -0.0001 -0.0000 -1.0000
vt 0.325975 0.165965
s 1
usemtl Material.002
f 60/2/26 49/2/26 48/2/26 59/2/26
f 55/2/27 56/2/28 53/2/29 52/2/30
f 57/2/28 58/2/29 45/2/30 44/2/27
f 41/2/27 42/2/28 43/2/29 54/2/30
f 51/2/26 50/2/26 47/2/26 46/2/26
