# Blender 3.6.5
# www.blender.org
mtllib Poly_SF_Outside_B_Crate_01.mtl
o Cube.001
v 0.400000 0.500000 0.300000
v 0.400000 0.000000 0.300000
v 0.400000 0.500000 -0.300000
v 0.400000 0.000000 -0.300000
v -0.400000 0.500000 0.300000
v -0.400000 0.000000 0.300000
v -0.400000 0.500000 -0.300000
v -0.400000 0.000000 -0.300000
v 0.280000 0.500000 -0.300000
v 0.280000 0.000000 -0.300000
v 0.280000 0.500000 0.300000
v 0.280000 0.000000 0.300000
v -0.290000 0.000000 -0.300000
v -0.290000 0.500000 0.300000
v -0.290000 0.500000 -0.300000
v -0.290000 0.000000 0.300000
v 0.400000 0.100000 0.300000
v 0.400000 0.100000 -0.300000
v -0.400000 0.100000 -0.300000
v -0.400000 0.100000 0.300000
v 0.280000 0.100000 0.300000
v 0.280000 0.100000 -0.300000
v -0.290000 0.100000 0.300000
v -0.290000 0.100000 -0.300000
v 0.400000 0.400000 -0.300000
v -0.400000 0.400000 -0.300000
v -0.400000 0.400000 0.300000
v 0.280000 0.400000 0.300000
v 0.280000 0.400000 -0.300000
v -0.290000 0.400000 0.300000
v -0.290000 0.400000 -0.300000
v 0.400000 0.400000 0.300000
v 0.400000 0.500000 0.220000
v 0.400000 0.000000 0.220000
v -0.400000 0.500000 0.220000
v -0.400000 0.000000 0.220000
v 0.280000 0.000000 0.220000
v 0.280000 0.500000 0.220000
v -0.290000 0.000000 0.220000
v -0.290000 0.500000 0.220000
v -0.400000 0.100000 0.220000
v 0.400000 0.100000 0.220000
v 0.400000 0.400000 0.220000
v -0.400000 0.400000 0.220000
v 0.400000 0.000000 -0.210000
v -0.400000 0.500000 -0.210000
v 0.400000 0.100000 -0.210000
v 0.400000 0.400000 -0.210000
v 0.400000 0.500000 -0.210000
v -0.400000 0.000000 -0.210000
v 0.280000 0.000000 -0.210000
v 0.280000 0.500000 -0.210000
v -0.290000 0.000000 -0.210000
v -0.290000 0.500000 -0.210000
v -0.400000 0.100000 -0.210000
v -0.400000 0.400000 -0.210000
v -0.290000 0.100000 0.270000
v 0.280000 0.100000 0.270000
v 0.280000 0.400000 0.270000
v -0.290000 0.400000 0.270000
v 0.280000 0.100000 -0.270000
v -0.290000 0.100000 -0.270000
v 0.280000 0.400000 -0.270000
v -0.290000 0.400000 -0.270000
v 0.370000 0.100000 0.220000
v 0.370000 0.400000 0.220000
v 0.370000 0.100000 -0.210000
v 0.370000 0.400000 -0.210000
v -0.370000 0.100000 -0.210000
v -0.370000 0.100000 0.220000
v -0.370000 0.400000 -0.210000
v -0.370000 0.400000 0.220000
v 0.280000 0.030000 -0.210000
v 0.280000 0.030000 0.220000
v -0.290000 0.030000 -0.210000
v -0.290000 0.030000 0.220000
v 0.280000 0.470000 -0.210000
v 0.280000 0.470000 0.220000
v -0.290000 0.470000 -0.210000
v -0.290000 0.470000 0.220000
vn 1.0000 -0.0000 -0.0000
vn -0.0000 -0.0000 -1.0000
vn -1.0000 -0.0000 -0.0000
vn -0.0000 -0.0000 1.0000
vn -0.0000 1.0000 -0.0000
vn -0.0000 -1.0000 -0.0000
vt 0.552407 0.945355
vt 0.552407 0.937696
vt 0.561642 0.937696
vt 0.561642 0.945355
vt 0.508431 0.945355
vt 0.508431 0.937696
vt 0.500104 0.937696
vt 0.500104 0.945355
vt 0.553227 0.945355
vt 0.553227 0.937696
vt 0.508986 0.945355
vt 0.508986 0.937696
vt 0.508555 0.979016
vt 0.500274 0.979016
vt 0.500274 0.970600
vt 0.508555 0.970600
vt 0.553227 0.974311
vt 0.553227 0.969999
vt 0.561642 0.969999
vt 0.561642 0.974311
vt 0.553227 0.995837
vt 0.561642 0.995837
vt 0.561472 0.979016
vt 0.552639 0.979016
vt 0.552639 0.970600
vt 0.561472 0.970600
vt 0.553315 0.945355
vt 0.553315 0.937696
vt 0.552760 0.937696
vt 0.552760 0.945355
vt 0.553227 0.999880
vt 0.561642 0.999880
vt 0.552639 0.974894
vt 0.508555 0.974894
vt 0.554674 0.994674
vt 0.509368 0.994674
vt 0.509368 0.992314
vt 0.554674 0.992314
vt 0.561642 0.961007
vt 0.553315 0.961007
vt 0.552760 0.961007
vt 0.554585 0.994707
vt 0.509330 0.994707
vt 0.509330 0.992270
vt 0.554585 0.992270
vt 0.508986 0.961007
vt 0.500104 0.961007
vt 0.553227 0.961007
vt 0.508431 0.961007
vt 0.500104 0.961007
vt 0.552407 0.961007
vt 0.552407 0.969999
vt 0.508431 0.969999
vt 0.500104 0.969999
vt 0.508986 0.969999
vt 0.553315 0.969999
vt 0.552760 0.969999
vt 0.509339 0.969999
vt 0.509339 0.961007
vt 0.508519 0.961007
vt 0.508519 0.969999
vt 0.508519 0.945355
vt 0.554569 0.994547
vt 0.509201 0.994547
vt 0.509201 0.992316
vt 0.554569 0.992316
vt 0.509339 0.999880
vt 0.509339 0.995837
vt 0.561472 0.990401
vt 0.552639 0.990401
vt 0.509339 0.974311
vt 0.509339 0.969999
vt 0.508555 0.990401
vt 0.500274 0.990401
vt 0.509339 0.945355
vt 0.509339 0.937696
vt 0.508519 0.937696
vt 0.508555 0.999636
vt 0.500274 0.999636
vt 0.500104 0.974311
vt 0.500104 0.995837
vt 0.561472 0.999636
vt 0.552639 0.999636
vt 0.500104 0.999880
vt 0.508555 0.994523
vt 0.552639 0.994523
vt 0.553184 0.960716
vt 0.553184 0.945458
vt 0.509498 0.945458
vt 0.509498 0.960716
vt 0.509307 0.993370
vt 0.509307 0.975984
vt 0.553227 0.975984
vt 0.553227 0.993370
vt 0.547734 0.990433
vt 0.512429 0.990433
vt 0.512429 0.979016
vt 0.547734 0.979016
s 0
usemtl regular
f 47/1/1 45/2/1 4/3/1 18/4/1
f 24/5/2 13/6/2 8/7/2 19/8/2
f 41/9/3 36/10/3 6/3/3 20/4/3
f 21/11/4 12/12/4 2/7/4 17/8/4
f 40/13/5 35/14/5 5/15/5 14/16/5
f 37/17/6 34/18/6 2/19/6 12/20/6
f 39/21/6 37/17/6 12/20/6 16/22/6
f 33/23/5 38/24/5 11/25/5 1/26/5
f 23/27/4 16/28/4 12/12/4 21/11/4
f 18/4/2 4/3/2 10/29/2 22/30/2
f 20/4/4 6/3/4 16/28/4 23/27/4
f 36/31/6 39/21/6 16/22/6 6/32/6
f 38/33/5 40/34/5 14/16/5 11/25/5
f 22/30/2 10/29/2 13/6/2 24/5/2
f 22/35/5 24/36/5 62/37/5 61/38/5
f 27/39/4 20/4/4 23/27/4 30/40/4
f 25/39/2 18/4/2 22/30/2 29/41/2
f 30/42/1 23/43/1 57/44/1 60/45/1
f 28/46/4 21/11/4 17/8/4 32/47/4
f 44/48/3 41/9/3 20/4/3 27/39/3
f 31/49/2 24/5/2 19/8/2 26/50/2
f 48/51/1 47/1/1 18/4/1 25/39/1
f 49/52/1 48/51/1 25/39/1 3/19/1
f 15/53/2 31/49/2 26/50/2 7/54/2
f 35/18/3 44/48/3 27/39/3 5/19/3
f 11/55/4 28/46/4 32/47/4 1/54/4
f 14/56/4 30/40/4 28/46/4 11/55/4
f 3/19/2 25/39/2 29/41/2 9/57/2
f 5/19/4 27/39/4 30/40/4 14/56/4
f 9/57/2 29/41/2 31/49/2 15/53/2
f 46/58/3 56/59/3 44/48/3 35/18/3
f 1/54/1 32/47/1 43/60/1 33/61/1
f 32/47/1 17/8/1 42/62/1 43/60/1
f 44/36/6 56/35/6 71/38/6 72/37/6
f 52/63/4 54/64/4 79/65/4 77/66/4
f 50/67/6 53/68/6 39/21/6 36/31/6
f 49/69/5 52/70/5 38/24/5 33/23/5
f 37/66/2 39/65/2 76/64/2 74/63/2
f 51/71/6 45/72/6 34/18/6 37/17/6
f 54/73/5 46/74/5 35/14/5 40/13/5
f 55/75/3 50/76/3 36/10/3 41/9/3
f 17/8/1 2/7/1 34/77/1 42/62/1
f 19/8/3 8/7/3 50/76/3 55/75/3
f 15/78/5 7/79/5 46/74/5 54/73/5
f 10/80/6 4/54/6 45/72/6 51/71/6
f 13/81/6 10/80/6 51/71/6 53/68/6
f 3/82/5 9/83/5 52/70/5 49/69/5
f 8/84/6 13/81/6 53/68/6 50/67/6
f 9/83/5 15/78/5 54/85/5 52/86/5
f 26/50/3 19/8/3 55/75/3 56/59/3
f 7/54/3 26/50/3 56/59/3 46/58/3
f 33/61/1 43/60/1 48/51/1 49/52/1
f 47/65/4 48/66/4 68/63/4 67/64/4
f 42/62/1 34/77/1 45/2/1 47/1/1
f 60/87/4 57/88/4 58/89/4 59/90/4
f 21/43/3 28/42/3 59/45/3 58/44/3
f 28/38/6 30/37/6 60/36/6 59/35/6
f 23/37/5 21/38/5 58/35/5 57/36/5
f 63/87/2 61/88/2 62/89/2 64/90/2
f 24/44/1 31/45/1 64/42/1 62/43/1
f 29/45/3 22/44/3 61/43/3 63/42/3
f 31/36/6 29/35/6 63/38/6 64/37/6
f 66/90/1 65/89/1 67/88/1 68/87/1
f 48/38/6 43/37/6 66/36/6 68/35/6
f 43/66/2 42/65/2 65/64/2 66/63/2
f 42/37/5 47/38/5 67/35/5 65/36/5
f 71/90/3 69/89/3 70/88/3 72/87/3
f 56/63/4 55/64/4 69/65/4 71/66/4
f 55/35/5 41/36/5 70/37/5 69/38/5
f 41/64/2 44/63/2 72/66/2 70/65/2
f 75/91/6 73/92/6 74/93/6 76/94/6
f 39/44/1 53/45/1 75/42/1 76/43/1
f 53/65/4 51/66/4 73/63/4 75/64/4
f 51/45/3 37/44/3 74/43/3 73/42/3
f 77/95/5 79/96/5 80/97/5 78/98/5
f 54/42/1 40/43/1 80/44/1 79/45/1
f 38/43/3 52/42/3 77/45/3 78/44/3
f 40/64/2 38/63/2 78/66/2 80/65/2
