# Blender 3.6.5
# www.blender.org
mtllib Poly_SF_Outside_B_Board_Neo_Sign_09.mtl
o Cube
v 0.300000 1.000000 -0.100000
v 0.300000 0.000000 -0.100000
v 0.300000 1.000000 0.100000
v 0.300000 0.000000 0.100000
v -0.300000 1.000000 -0.100000
v -0.300000 0.000000 -0.100000
v -0.300000 1.000000 0.100000
v -0.300000 0.000000 0.100000
vn -0.0000 1.0000 -0.0000
vn -0.0000 -0.0000 1.0000
vn -1.0000 -0.0000 -0.0000
vn -0.0000 -1.0000 -0.0000
vn 1.0000 -0.0000 -0.0000
vn -0.0000 -0.0000 -1.0000
vt 0.045243 0.312363
vt 0.008006 0.312363
vt 0.008006 0.305012
vt 0.045243 0.305012
vt 0.107524 0.312951
vt 0.107524 0.369691
vt 0.070405 0.369691
vt 0.070405 0.312951
vt 0.008006 0.305012
vt 0.045243 0.305012
s 0
usemtl Material
f 1/1/1 5/2/1 7/3/1 3/4/1
f 4/5/2 3/6/2 7/7/2 8/8/2
f 8/9/3 7/10/3 5/1/3 6/2/3
f 6/1/4 2/2/4 4/3/4 8/4/4
f 2/2/5 1/1/5 3/4/5 4/3/5
f 6/5/6 5/6/6 1/7/6 2/8/6
o Cube.001
v -0.500000 0.150000 0.050000
v -0.500000 0.250000 0.050000
v -0.500000 0.150000 -0.050000
v -0.500000 0.250000 -0.050000
v -0.400000 0.150000 0.050000
v -0.400000 0.250000 0.050000
v -0.400000 0.150000 -0.050000
v -0.400000 0.250000 -0.050000
v -0.400000 0.270000 -0.070000
v -0.400000 0.130000 -0.070000
v -0.400000 0.270000 0.070000
v -0.400000 0.130000 0.070000
v -0.350000 0.130000 0.070000
v -0.350000 0.270000 0.070000
v -0.350000 0.130000 -0.070000
v -0.350000 0.270000 -0.070000
v -0.350000 0.300000 -0.100000
v -0.350000 0.100000 -0.100000
v -0.350000 0.300000 0.100000
v -0.350000 0.100000 0.100000
v -0.300000 0.100000 0.100000
v -0.300000 0.300000 0.100000
v -0.300000 0.100000 -0.100000
v -0.300000 0.300000 -0.100000
v -0.300000 0.900000 -0.100000
v -0.300000 0.700000 -0.100000
v -0.300000 0.900000 0.100000
v -0.300000 0.700000 0.100000
v -0.350000 0.700000 0.100000
v -0.350000 0.900000 0.100000
v -0.350000 0.700000 -0.100000
v -0.350000 0.900000 -0.100000
v -0.350000 0.870000 -0.070000
v -0.350000 0.730000 -0.070000
v -0.350000 0.870000 0.070000
v -0.350000 0.730000 0.070000
v -0.400000 0.730000 0.070000
v -0.400000 0.870000 0.070000
v -0.400000 0.730000 -0.070000
v -0.400000 0.870000 -0.070000
v -0.400000 0.850000 -0.050000
v -0.400000 0.750000 -0.050000
v -0.400000 0.850000 0.050000
v -0.400000 0.750000 0.050000
v -0.500000 0.850000 -0.050000
v -0.500000 0.750000 -0.050000
v -0.500000 0.850000 0.050000
v -0.500000 0.750000 0.050000
vn -1.0000 -0.0000 -0.0000
vn 1.0000 -0.0000 -0.0000
vn -0.0000 -0.0000 -1.0000
vn -0.0000 -0.0000 1.0000
vn -0.0000 -1.0000 -0.0000
vn -0.0000 1.0000 -0.0000
vt 0.016539 0.304911
vt 0.016539 0.312438
vt 0.007909 0.312438
vt 0.007909 0.304911
vt 0.011615 0.312438
vt 0.011615 0.304911
s 0
usemtl Material
f 9/11/7 10/12/7 12/13/7 11/14/7
f 20/11/7 19/12/7 17/13/7 18/14/7
f 15/11/8 16/12/8 14/12/8 13/11/8
f 11/14/9 12/13/9 16/12/9 15/11/9
f 13/11/10 14/12/10 10/13/10 9/14/10
f 11/13/11 15/12/11 13/11/11 9/14/11
f 18/13/11 23/15/11 21/16/11 20/14/11
f 21/16/10 22/15/10 19/13/10 20/14/10
f 18/14/9 17/13/9 24/15/9 23/16/9
f 23/16/8 24/15/8 22/13/8 21/14/8
f 16/11/12 12/14/12 10/13/12 14/12/12
f 24/16/12 17/14/12 19/13/12 22/15/12
f 28/14/7 27/13/7 25/15/7 26/16/7
f 26/13/11 31/15/11 29/16/11 28/14/11
f 29/16/10 30/15/10 27/13/10 28/14/10
f 26/14/9 25/13/9 32/15/9 31/16/9
f 31/16/8 32/15/8 30/15/8 29/16/8
f 32/16/12 25/14/12 27/13/12 30/15/12
f 34/16/8 33/15/8 35/15/8 36/16/8
f 49/11/12 53/14/12 55/13/12 51/12/12
f 37/14/7 38/13/7 40/15/7 39/16/7
f 39/13/11 34/15/11 36/16/11 37/14/11
f 39/14/9 40/13/9 33/15/9 34/16/9
f 33/16/12 40/14/12 38/13/12 35/15/12
f 47/14/9 48/13/9 41/15/9 42/16/9
f 44/16/10 43/15/10 46/13/10 45/14/10
f 41/16/12 48/14/12 46/13/12 43/15/12
f 47/13/11 42/15/11 44/16/11 45/14/11
f 36/16/10 35/15/10 38/13/10 37/14/10
f 42/16/8 41/15/8 43/13/8 44/14/8
f 52/11/10 51/12/10 55/13/10 56/14/10
f 50/11/8 49/12/8 51/12/8 52/11/8
f 45/11/7 46/12/7 48/13/7 47/14/7
f 54/13/11 50/12/11 52/11/11 56/14/11
f 56/11/7 55/12/7 53/13/7 54/14/7
f 54/14/9 53/13/9 49/12/9 50/11/9
