# Blender 3.6.5
# www.blender.org
mtllib Poly_SF_Outside_B_Window_06.mtl
o Cube.001
v 0.650000 0.050000 -0.400000
v 0.650000 1.100000 -0.400000
v -0.040000 0.050000 -0.400000
v -0.040000 1.100000 -0.400000
v 0.650000 1.040000 -0.400000
v -0.040000 1.040000 -0.400000
v -0.040000 0.100000 -0.400000
v 0.650000 0.100000 -0.400000
v 0.040000 0.050000 -0.400000
v 0.040000 1.100000 -0.400000
v 0.040000 1.040000 -0.400000
v 0.040000 0.100000 -0.400000
v 0.580000 0.050000 -0.400000
v 0.580000 1.100000 -0.400000
v 0.580000 1.040000 -0.400000
v 0.580000 0.100000 -0.400000
v 0.580000 1.040000 -0.420000
v 0.040000 1.040000 -0.420000
v 0.580000 0.100000 -0.420000
v 0.040000 0.100000 -0.420000
v 0.580000 0.530000 -0.400000
v 0.040000 0.530000 -0.400000
v -0.040000 0.530000 -0.400000
v 0.650000 0.530000 -0.400000
v -0.650000 0.050000 -0.400000
v -0.650000 1.100000 -0.400000
v -0.650000 1.040000 -0.400000
v -0.040000 1.040000 -0.420000
v -0.650000 0.100000 -0.400000
v -0.040000 0.100000 -0.420000
v -0.580000 0.050000 -0.400000
v -0.580000 1.100000 -0.400000
v -0.580000 1.040000 -0.400000
v -0.580000 0.100000 -0.400000
v -0.040000 0.050000 -0.400000
v -0.040000 1.100000 -0.400000
v -0.040000 1.040000 -0.400000
v -0.040000 0.100000 -0.400000
v -0.040000 1.040000 -0.420000
v -0.580000 1.040000 -0.420000
v -0.040000 0.100000 -0.420000
v -0.580000 0.100000 -0.420000
v 0.040000 0.530000 -0.420000
v 0.580000 0.530000 -0.420000
v -0.040000 0.530000 -0.420000
v -0.650000 0.530000 -0.400000
v -0.580000 0.530000 -0.400000
v -0.580000 0.530000 -0.420000
v -0.040000 0.530000 -0.420000
vn -0.0000 -0.0000 1.0000
vn -1.0000 -0.0000 -0.0000
vn -0.0000 -1.0000 -0.0000
vn 1.0000 -0.0000 -0.0000
vn -0.0000 1.0000 -0.0000
vt 0.157427 0.545658
vt 0.157427 0.549444
vt 0.153777 0.549444
vt 0.153777 0.545658
vt 0.158212 0.533992
vt 0.158212 0.545658
vt 0.157427 0.533992
vt 0.153777 0.533992
vt 0.139258 0.549444
vt 0.139258 0.545945
vt 0.153771 0.545945
vt 0.153771 0.549444
vt 0.136319 0.533992
vt 0.136319 0.543673
vt 0.153751 0.549444
vt 0.153751 0.545945
vt 0.135475 0.545945
vt 0.135475 0.549444
vt 0.135475 0.533992
vt 0.135475 0.543673
vt 0.139258 0.543673
vt 0.139258 0.533992
vt 0.139420 0.533992
vt 0.139420 0.545428
vt 0.153552 0.545428
vt 0.153552 0.533992
vt 0.139258 0.548870
vt 0.153520 0.548870
vt 0.158273 0.533992
vt 0.158273 0.545658
vt 0.153520 0.548763
vt 0.139258 0.548763
vt 0.149871 0.548870
vt 0.136319 0.544438
vt 0.149871 0.548763
vt 0.135475 0.544438
vt 0.139258 0.544438
s 0
usemtl regular
f 11/1/1 10/2/1 4/3/1 6/4/1
f 23/5/2 6/6/2 28/6/2 45/5/2
f 22/7/1 11/1/1 6/4/1 23/8/1
f 9/2/1 12/1/1 7/4/1 3/3/1
f 13/9/1 16/10/1 12/11/1 9/12/1
f 21/13/2 15/14/2 17/14/2 44/13/2
f 15/10/1 14/9/1 10/15/1 11/16/1
f 5/17/1 2/18/1 14/9/1 15/10/1
f 24/19/1 5/20/1 15/21/1 21/22/1
f 1/18/1 8/17/1 16/10/1 13/9/1
f 44/23/1 17/24/1 18/25/1 43/26/1
f 15/27/3 11/28/3 18/28/3 17/27/3
f 22/29/4 12/30/4 20/30/4 43/29/4
f 12/31/5 16/32/5 19/32/5 20/31/5
f 19/24/1 44/23/1 43/26/1 20/25/1
f 11/30/4 22/29/4 43/29/4 18/30/4
f 33/10/1 32/9/1 26/18/1 27/17/1
f 47/22/1 33/21/1 27/20/1 46/19/1
f 31/9/1 34/10/1 29/17/1 25/18/1
f 35/12/1 38/11/1 34/10/1 31/9/1
f 37/16/1 36/15/1 32/9/1 33/10/1
f 49/26/1 39/25/1 40/24/1 48/23/1
f 37/33/3 33/27/3 40/27/3 39/33/3
f 47/13/4 34/34/4 42/34/4 48/13/4
f 34/32/5 38/35/5 41/35/5 42/32/5
f 8/36/1 24/19/1 21/22/1 16/37/1
f 16/34/2 21/13/2 44/13/2 19/34/2
f 12/1/1 22/7/1 23/8/1 7/4/1
f 7/6/2 23/5/2 45/5/2 30/6/2
f 33/14/4 47/13/4 48/13/4 40/14/4
f 41/25/1 49/26/1 48/23/1 42/24/1
f 34/37/1 47/22/1 46/19/1 29/36/1
o Cube.002
v -0.700000 0.050000 -0.360000
v -0.700000 0.050000 -0.500000
v -0.700000 0.000000 -0.360000
v -0.700000 0.000000 -0.500000
v 0.000000 0.000000 -0.500000
v 0.000000 0.000000 -0.360000
v 0.000000 0.050000 -0.360000
v 0.000000 0.050000 -0.500000
v -0.700000 0.600000 -0.500000
v -0.700000 0.600000 -0.360000
v -0.650000 0.600000 -0.360000
v -0.650000 0.600000 -0.500000
v -0.650000 1.220000 -0.500000
v -0.650000 0.050000 -0.500000
v -0.650000 1.220000 -0.360000
v -0.650000 0.050000 -0.360000
v -0.700000 1.220000 -0.500000
v -0.700000 0.050000 -0.500000
v -0.700000 1.220000 -0.360000
v -0.700000 0.050000 -0.360000
v -0.700000 1.300000 -0.360000
v -0.700000 1.300000 -0.500000
v -0.700000 1.220000 -0.360000
v -0.700000 1.220000 -0.500000
v 0.000000 1.220000 -0.500000
v 0.000000 1.220000 -0.360000
v 0.000000 1.300000 -0.360000
v 0.000000 1.300000 -0.500000
v -0.650000 0.630000 -0.360000
v -0.650000 0.630000 -0.380000
v -0.650000 0.580000 -0.360000
v -0.650000 0.580000 -0.380000
v 0.000000 0.580000 -0.380000
v 0.000000 0.580000 -0.360000
v 0.000000 0.630000 -0.360000
v 0.000000 0.630000 -0.380000
v -0.650000 1.150000 -0.360000
v -0.650000 1.150000 -0.500000
v -0.650000 1.100000 -0.360000
v -0.650000 1.100000 -0.500000
v 0.000000 1.100000 -0.500000
v 0.000000 1.100000 -0.360000
v 0.000000 1.150000 -0.360000
v 0.000000 1.150000 -0.500000
v 0.000000 1.150000 -0.490000
v -0.650000 1.150000 -0.490000
v 0.000000 1.220000 -0.490000
v -0.650000 1.220000 -0.490000
v 0.700000 0.050000 -0.360000
v 0.700000 0.050000 -0.500000
v 0.700000 0.000000 -0.360000
v 0.700000 0.000000 -0.500000
v 0.700000 0.600000 -0.500000
v 0.700000 0.600000 -0.360000
v 0.650000 0.600000 -0.360000
v 0.650000 0.600000 -0.500000
v 0.650000 1.220000 -0.500000
v 0.650000 0.050000 -0.500000
v 0.650000 1.220000 -0.360000
v 0.650000 0.050000 -0.360000
v 0.700000 1.220000 -0.500000
v 0.700000 0.050000 -0.500000
v 0.700000 1.220000 -0.360000
v 0.700000 0.050000 -0.360000
v 0.700000 1.300000 -0.360000
v 0.700000 1.300000 -0.500000
v 0.700000 1.220000 -0.360000
v 0.700000 1.220000 -0.500000
v 0.650000 0.630000 -0.360000
v 0.650000 0.630000 -0.380000
v 0.650000 0.580000 -0.360000
v 0.650000 0.580000 -0.380000
v 0.650000 1.150000 -0.360000
v 0.650000 1.150000 -0.500000
v 0.650000 1.100000 -0.360000
v 0.650000 1.100000 -0.500000
v 0.650000 1.150000 -0.490000
v 0.650000 1.220000 -0.490000
vn -0.0000 -1.0000 -0.0000
vn -0.0000 -0.0000 1.0000
vn -1.0000 -0.0000 -0.0000
vn -0.0000 1.0000 -0.0000
vn 1.0000 -0.0000 -0.0000
vn -0.0000 -0.0000 -1.0000
vt 0.136604 0.549259
vt 0.132954 0.549259
vt 0.136604 0.534142
vt 0.132954 0.534142
vt 0.136604 0.546915
vt 0.136604 0.549123
vt 0.132954 0.549123
vt 0.132954 0.546915
vt 0.136604 0.534100
vt 0.132954 0.534100
vt 0.139176 0.532466
vt 0.135526 0.532466
vt 0.135526 0.517348
vt 0.139176 0.517348
vt 0.155082 0.458299
vt 0.155082 0.455824
vt 0.132994 0.455824
vt 0.132994 0.458299
s 0
usemtl regular
f 53/38/6 54/38/6 55/39/6 52/39/6
f 65/38/7 60/40/7 59/41/7 69/39/7
f 52/38/7 55/40/7 56/41/7 50/39/7
f 51/42/8 53/43/8 52/44/8 50/45/8
f 50/39/9 56/41/9 57/40/9 51/38/9
f 60/40/7 64/38/7 68/39/7 59/41/7
f 61/40/10 62/38/10 64/39/10 60/41/10
f 59/41/8 68/45/8 66/42/8 58/40/8
f 69/45/8 59/41/8 58/40/8 67/42/8
f 62/43/9 66/46/9 68/47/9 64/44/9
f 63/38/10 61/38/10 60/39/10 65/39/10
f 73/38/6 74/38/6 75/39/6 72/39/6
f 72/38/7 75/40/7 76/41/7 70/39/7
f 71/43/8 73/42/8 72/45/8 70/44/8
f 70/39/9 76/41/9 77/40/9 71/38/9
f 81/48/6 82/48/6 83/49/6 80/49/6
f 79/49/11 85/50/11 82/51/11 81/48/11
f 80/48/7 83/51/7 84/50/7 78/49/7
f 78/49/9 84/50/9 85/51/9 79/48/9
f 89/38/6 90/38/6 91/39/6 88/39/6
f 88/38/7 91/40/7 92/41/7 86/39/7
f 86/39/9 92/41/9 93/40/9 87/38/9
f 94/52/7 96/53/7 97/54/7 95/55/7
f 101/38/6 100/39/6 55/39/6 54/38/6
f 109/38/7 113/39/7 103/41/7 104/40/7
f 100/38/7 98/39/7 56/41/7 55/40/7
f 99/42/10 98/45/10 100/44/10 101/43/10
f 98/39/9 99/38/9 57/40/9 56/41/9
f 104/40/7 103/41/7 112/39/7 108/38/7
f 105/40/8 104/41/8 108/39/8 106/38/8
f 103/41/10 102/40/10 110/42/10 112/45/10
f 113/45/10 111/42/10 102/40/10 103/41/10
f 106/43/9 108/44/9 112/47/9 110/46/9
f 107/38/8 109/39/8 104/39/8 105/38/8
f 117/38/6 116/39/6 75/39/6 74/38/6
f 116/38/7 114/39/7 76/41/7 75/40/7
f 115/43/10 114/44/10 116/45/10 117/42/10
f 114/39/9 115/38/9 77/40/9 76/41/9
f 121/48/6 120/49/6 83/49/6 82/48/6
f 119/49/11 121/48/11 82/51/11 85/50/11
f 120/48/7 118/49/7 84/50/7 83/51/7
f 118/49/9 119/48/9 85/51/9 84/50/9
f 125/38/6 124/39/6 91/39/6 90/38/6
f 124/38/7 122/39/7 92/41/7 91/40/7
f 122/39/9 123/38/9 93/40/9 92/41/9
f 94/52/7 126/55/7 127/54/7 96/53/7
o Cube.003
v -0.540000 0.580000 -0.360000
v -0.540000 0.580000 -0.380000
v -0.580000 0.580000 -0.360000
v -0.580000 0.580000 -0.380000
v -0.580000 0.050000 -0.380000
v -0.580000 0.050000 -0.360000
v -0.540000 0.050000 -0.360000
v -0.540000 0.050000 -0.380000
v -0.430000 0.580000 -0.360000
v -0.430000 0.580000 -0.380000
v -0.470000 0.580000 -0.360000
v -0.470000 0.580000 -0.380000
v -0.470000 0.050000 -0.380000
v -0.470000 0.050000 -0.360000
v -0.430000 0.050000 -0.360000
v -0.430000 0.050000 -0.380000
v -0.320000 0.580000 -0.360000
v -0.320000 0.580000 -0.380000
v -0.360000 0.580000 -0.360000
v -0.360000 0.580000 -0.380000
v -0.360000 0.050000 -0.380000
v -0.360000 0.050000 -0.360000
v -0.320000 0.050000 -0.360000
v -0.320000 0.050000 -0.380000
v -0.210000 0.580000 -0.360000
v -0.210000 0.580000 -0.380000
v -0.250000 0.580000 -0.360000
v -0.250000 0.580000 -0.380000
v -0.250000 0.050000 -0.380000
v -0.250000 0.050000 -0.360000
v -0.210000 0.050000 -0.360000
v -0.210000 0.050000 -0.380000
v -0.090000 0.580000 -0.360000
v -0.090000 0.580000 -0.380000
v -0.130000 0.580000 -0.360000
v -0.130000 0.580000 -0.380000
v -0.130000 0.050000 -0.380000
v -0.130000 0.050000 -0.360000
v -0.090000 0.050000 -0.360000
v -0.090000 0.050000 -0.380000
v 0.020000 0.580000 -0.380000
v -0.020000 0.580000 -0.360000
v -0.020000 0.050000 -0.380000
v 0.020000 0.050000 -0.380000
v 0.540000 0.580000 -0.360000
v 0.540000 0.580000 -0.380000
v 0.580000 0.580000 -0.360000
v 0.580000 0.580000 -0.380000
v 0.580000 0.050000 -0.380000
v 0.580000 0.050000 -0.360000
v 0.540000 0.050000 -0.360000
v 0.540000 0.050000 -0.380000
v 0.430000 0.580000 -0.360000
v 0.430000 0.580000 -0.380000
v 0.470000 0.580000 -0.360000
v 0.470000 0.580000 -0.380000
v 0.470000 0.050000 -0.380000
v 0.470000 0.050000 -0.360000
v 0.430000 0.050000 -0.360000
v 0.430000 0.050000 -0.380000
v 0.320000 0.580000 -0.360000
v 0.320000 0.580000 -0.380000
v 0.360000 0.580000 -0.360000
v 0.360000 0.580000 -0.380000
v 0.360000 0.050000 -0.380000
v 0.360000 0.050000 -0.360000
v 0.320000 0.050000 -0.360000
v 0.320000 0.050000 -0.380000
v 0.210000 0.580000 -0.360000
v 0.210000 0.580000 -0.380000
v 0.250000 0.580000 -0.360000
v 0.250000 0.580000 -0.380000
v 0.250000 0.050000 -0.380000
v 0.250000 0.050000 -0.360000
v 0.210000 0.050000 -0.360000
v 0.210000 0.050000 -0.380000
v 0.090000 0.580000 -0.360000
v 0.090000 0.580000 -0.380000
v 0.130000 0.580000 -0.360000
v 0.130000 0.580000 -0.380000
v 0.130000 0.050000 -0.380000
v 0.130000 0.050000 -0.360000
v 0.090000 0.050000 -0.360000
v 0.090000 0.050000 -0.380000
v -0.020000 0.580000 -0.380000
v 0.020000 0.580000 -0.360000
v 0.020000 0.050000 -0.360000
v -0.020000 0.050000 -0.360000
vn -1.0000 -0.0000 -0.0000
vn -0.0000 -0.0000 -1.0000
vn -0.0000 -0.0000 1.0000
vn 1.0000 -0.0000 -0.0000
vt 0.139176 0.517348
vt 0.135526 0.517348
vt 0.135526 0.532466
vt 0.139176 0.532466
s 0
usemtl regular
f 131/56/12 132/56/12 133/57/12 130/57/12
f 129/57/13 135/58/13 132/59/13 131/56/13
f 130/56/14 133/59/14 134/58/14 128/57/14
f 128/57/15 134/58/15 135/59/15 129/56/15
f 139/56/12 140/56/12 141/57/12 138/57/12
f 137/57/13 143/58/13 140/59/13 139/56/13
f 138/56/14 141/59/14 142/58/14 136/57/14
f 136/57/15 142/58/15 143/59/15 137/56/15
f 147/56/12 148/56/12 149/57/12 146/57/12
f 145/57/13 151/58/13 148/59/13 147/56/13
f 146/56/14 149/59/14 150/58/14 144/57/14
f 144/57/15 150/58/15 151/59/15 145/56/15
f 155/56/12 156/56/12 157/57/12 154/57/12
f 153/57/13 159/58/13 156/59/13 155/56/13
f 154/56/14 157/59/14 158/58/14 152/57/14
f 152/57/15 158/58/15 159/59/15 153/56/15
f 163/56/12 164/56/12 165/57/12 162/57/12
f 161/57/13 167/58/13 164/59/13 163/56/13
f 162/56/14 165/59/14 166/58/14 160/57/14
f 160/57/15 166/58/15 167/59/15 161/56/15
f 212/56/12 170/56/12 215/57/12 169/57/12
f 168/57/13 171/58/13 170/59/13 212/56/13
f 169/56/14 215/59/14 214/58/14 213/57/14
f 213/57/15 214/58/15 171/59/15 168/56/15
f 175/56/15 174/57/15 177/57/15 176/56/15
f 173/57/13 175/56/13 176/59/13 179/58/13
f 174/56/14 172/57/14 178/58/14 177/59/14
f 172/57/12 173/56/12 179/59/12 178/58/12
f 183/56/15 182/57/15 185/57/15 184/56/15
f 181/57/13 183/56/13 184/59/13 187/58/13
f 182/56/14 180/57/14 186/58/14 185/59/14
f 180/57/12 181/56/12 187/59/12 186/58/12
f 191/56/15 190/57/15 193/57/15 192/56/15
f 189/57/13 191/56/13 192/59/13 195/58/13
f 190/56/14 188/57/14 194/58/14 193/59/14
f 188/57/12 189/56/12 195/59/12 194/58/12
f 199/56/15 198/57/15 201/57/15 200/56/15
f 197/57/13 199/56/13 200/59/13 203/58/13
f 198/56/14 196/57/14 202/58/14 201/59/14
f 196/57/12 197/56/12 203/59/12 202/58/12
f 207/56/15 206/57/15 209/57/15 208/56/15
f 205/57/13 207/56/13 208/59/13 211/58/13
f 206/56/14 204/57/14 210/58/14 209/59/14
f 204/57/12 205/56/12 211/59/12 210/58/12
