# Blender v3.0.1 OBJ File: 'Poly_World_Map_Mountain_Brown_02.blend'
# www.blender.org
mtllib Poly_World_Map_Mountain_Brown_02.mtl
o Cube_Cube.001
v -0.148334 0.331250 -0.362782
v -0.322832 0.580965 -0.370727
v -0.323680 0.580965 -0.352105
v -0.186594 0.331250 -0.201940
v -0.350247 0.331250 -0.178455
v -0.342302 0.580965 -0.352953
v -0.360924 0.580965 -0.353801
v -0.511089 0.331250 -0.216715
v -0.534574 0.331250 -0.380368
v -0.360076 0.580965 -0.372423
v -0.359229 0.580965 -0.391045
v -0.496315 0.331250 -0.541210
v -0.332661 0.331250 -0.564695
v -0.340606 0.580965 -0.390197
v -0.321984 0.580965 -0.389349
v -0.171819 0.331250 -0.526436
v -0.367964 -0.008785 -0.414279
v -0.354319 -0.008785 -0.713969
v -0.054630 -0.008785 -0.700324
v 0.031622 -0.008785 -0.396086
v -0.341454 0.580965 -0.371575
v -0.386158 -0.008785 -0.014693
v -0.086468 -0.008785 -0.001048
v -0.581402 -0.008785 -0.123687
v -0.667654 -0.008785 -0.427924
v -0.654009 -0.008785 -0.727614
vt 0.884142 0.869582
vt 0.890192 0.879028
vt 0.905376 0.903843
vt 0.905577 0.875738
vt 0.927549 0.954435
vt 0.921499 0.963881
vt 0.906316 0.988696
vt 0.906114 0.960590
vt 0.927549 0.954435
vt 0.921499 0.963881
vt 0.906316 0.988696
vt 0.906114 0.960590
vt 0.884142 0.869582
vt 0.890192 0.879028
vt 0.905376 0.903843
vt 0.905577 0.875738
vt 0.905762 0.885841
vt 0.888285 0.885841
vt 0.888285 0.868348
vt 0.905762 0.868348
vt 0.902913 0.908054
vt 0.907769 0.908054
vt 0.907769 0.903149
vt 0.902913 0.903149
vt 0.907813 0.908054
vt 0.907813 0.903149
vt 0.923239 0.885841
vt 0.923239 0.868348
vt 0.923239 0.868348
vt 0.905762 0.868348
vt 0.907813 0.903149
vt 0.902913 0.903149
vt 0.907769 0.903149
vt 0.888285 0.868348
vt 0.905577 0.875738
vt 0.905376 0.903843
vt 0.906114 0.960590
vt 0.906316 0.988696
vt 0.905862 0.925392
vt 0.931546 0.943473
vt 0.907675 0.841497
vt 0.878821 0.860486
vt 0.907675 0.841497
vt 0.878821 0.860486
vt 0.905862 0.925392
vt 0.931546 0.943473
vt 0.905862 0.925392
vt 0.907675 0.841497
vn 0.8091 0.5606 0.1763
vn -0.1763 0.5606 0.8091
vn -0.8091 0.5606 -0.1763
vn 0.1763 0.5606 -0.8091
vn -0.0000 -1.0000 -0.0000
vn 0.0000 1.0000 -0.0000
vn -0.8218 0.5606 0.1021
vn 0.8218 0.5606 -0.1021
vn -0.1021 0.5606 -0.8218
vn 0.1021 0.5606 0.8218
vn 0.0187 0.4738 0.8804
vn -0.0190 0.4466 -0.8946
vn 0.8726 0.4436 -0.2046
vn -0.9309 0.2930 0.2183
vn 0.1007 0.4385 -0.8931
vn -0.9016 0.4205 -0.1016
vn -0.3538 0.3783 0.8554
vn 0.8735 0.4203 0.2457
usemtl Material.001
s 1
f 1/1/1 2/2/1 3/3/1 4/4/1
f 5/5/2 6/6/2 7/7/2 8/8/2
f 9/9/3 10/10/3 11/11/3 12/12/3
f 13/13/4 14/14/4 15/15/4 16/16/4
f 17/17/5 18/18/5 19/19/5 20/20/5
f 21/21/6 6/22/6 3/23/6 2/24/6
f 14/25/6 21/21/6 2/24/6 15/26/6
f 22/27/5 17/17/5 20/20/5 23/28/5
f 8/8/7 7/7/7 10/10/7 9/9/7
f 16/16/8 15/15/8 2/2/8 1/1/8
f 24/29/5 25/30/5 17/17/5 22/27/5
f 11/31/6 10/32/6 21/21/6 14/25/6
f 10/32/6 7/33/6 6/22/6 21/21/6
f 25/30/5 26/34/5 18/18/5 17/17/5
f 12/35/9 11/36/9 14/14/9 13/13/9
f 4/37/10 3/38/10 6/6/10 5/5/10
f 23/39/11 4/37/11 5/5/11 22/40/11
f 26/41/12 12/35/12 13/13/12 18/42/12
f 19/43/13 16/16/13 1/1/13 20/44/13
f 24/45/14 8/8/14 9/9/14 25/46/14
f 18/42/15 13/13/15 16/16/15 19/43/15
f 25/46/16 9/9/16 12/12/16 26/47/16
f 22/40/17 5/5/17 8/8/17 24/45/17
f 20/44/18 1/1/18 4/4/18 23/48/18
o Cube.001_Cube.002
v -0.182072 0.369515 0.445618
v -0.290711 0.687182 0.251633
v -0.311294 0.687182 0.263160
v -0.381550 0.369515 0.512274
v -0.516807 0.369515 0.351216
v -0.322822 0.687182 0.242577
v -0.334349 0.687182 0.221994
v -0.583463 0.369515 0.151739
v -0.422405 0.369515 0.016482
v -0.313766 0.687182 0.210467
v -0.293183 0.687182 0.198940
v -0.222928 0.369515 -0.050175
v -0.087670 0.369515 0.110883
v -0.281656 0.687182 0.219523
v -0.270128 0.687182 0.240106
v -0.021014 0.369515 0.310361
v -0.300000 -0.008785 0.200000
v 0.100000 -0.008785 -0.000000
v 0.300000 -0.008785 0.300000
v 0.000000 -0.008785 0.700000
v -0.302239 0.687182 0.231050
v -0.800000 -0.008785 0.500000
v -0.386158 -0.008785 -0.014693
v -0.600000 -0.008785 0.800000
v -0.086468 -0.008785 -0.001048
v -0.900000 -0.008785 0.100000
v -0.581402 -0.008785 -0.123687
v -0.095951 0.115438 -0.165078
v -0.178420 0.232546 -0.140628
v -0.151155 0.210897 -0.130836
v -0.028957 -0.008785 -0.193435
v -0.579876 0.002293 -0.132049
v -0.577666 0.009285 -0.128631
v -0.584970 -0.008785 -0.136272
v -0.470507 0.135004 -0.117717
v -0.446599 0.155722 -0.112430
v -0.364460 0.196668 -0.113640
v -0.344632 0.203347 -0.115986
v -0.267600 0.224711 -0.122870
v -0.415551 -0.008785 -0.031101
vt 0.884142 0.869582
vt 0.890192 0.879028
vt 0.905376 0.903843
vt 0.905577 0.875738
vt 0.927549 0.954435
vt 0.921499 0.963881
vt 0.906316 0.988696
vt 0.906114 0.960590
vt 0.927549 0.954435
vt 0.921499 0.963881
vt 0.906316 0.988696
vt 0.906114 0.960590
vt 0.884142 0.869582
vt 0.890192 0.879028
vt 0.905376 0.903843
vt 0.905577 0.875738
vt 0.905762 0.885841
vt 0.888285 0.885841
vt 0.888285 0.868348
vt 0.905762 0.868348
vt 0.902913 0.908054
vt 0.907769 0.908054
vt 0.907769 0.903149
vt 0.902913 0.903149
vt 0.907813 0.908054
vt 0.907813 0.903149
vt 0.923239 0.885841
vt 0.923239 0.868348
vt 0.923239 0.868348
vt 0.909475 0.868348
vt 0.909537 0.868852
vt 0.905762 0.875734
vt 0.907813 0.903149
vt 0.902913 0.903149
vt 0.907769 0.903149
vt 0.888285 0.874562
vt 0.904976 0.876732
vt 0.894532 0.882038
vt 0.905577 0.875738
vt 0.905376 0.903843
vt 0.906114 0.960590
vt 0.906316 0.988696
vt 0.905862 0.925392
vt 0.931546 0.943473
vt 0.906337 0.863340
vt 0.878821 0.860486
vt 0.897426 0.848242
vt 0.901096 0.855014
vt 0.903663 0.862000
vt 0.907675 0.841497
vt 0.878821 0.860486
vt 0.905862 0.925392
vt 0.930027 0.947640
vt 0.925932 0.940571
vt 0.926029 0.940240
vt 0.926090 0.939632
vt 0.906023 0.947846
vt 0.913347 0.948592
vt 0.919952 0.948124
vt 0.921626 0.948066
vt 0.928236 0.947843
vt 0.907675 0.841497
vt 0.906025 0.948132
vt 0.905862 0.925392
vt 0.931546 0.943473
vt 0.929131 0.950096
vt 0.927027 0.949979
vt 0.918475 0.950171
vt 0.908314 0.950569
vt 0.905862 0.925392
vt 0.906924 0.926140
vt 0.906333 0.926805
vt 0.905875 0.927262
vt 0.917172 0.943703
vt 0.919995 0.945906
vt 0.927679 0.940751
vt 0.906320 0.863619
vt 0.899339 0.857027
vt 0.893623 0.850745
vt 0.907675 0.841497
vn 0.2772 0.5608 0.7801
vn -0.7801 0.5608 0.2772
vn -0.2772 0.5608 -0.7801
vn 0.7801 0.5608 -0.2772
vn 0.0000 -1.0000 -0.0000
vn 0.0000 1.0000 0.0000
vn -0.5204 0.5608 -0.6439
vn 0.5204 0.5608 0.6439
vn 0.6439 0.5608 -0.5204
vn -0.6439 0.5608 0.5204
vn -0.6085 0.6587 0.4425
vn 0.2670 0.1667 -0.9492
vn 0.6926 0.5202 -0.4997
vn 0.0560 0.2929 -0.9545
vn -0.2289 0.1378 -0.9636
vn 0.2524 -0.0622 -0.9656
vn 0.6165 0.5812 0.5311
vn -0.5262 0.5149 -0.6768
vn -0.0706 0.1185 -0.9904
vn 0.0669 0.0537 -0.9963
vn 0.4065 0.2260 -0.8853
vn 0.1137 0.3632 -0.9248
vn 0.7334 0.5558 -0.3915
vn -0.2548 0.5116 -0.8206
vn -0.1466 0.0290 -0.9888
vn -0.0670 0.0414 -0.9969
vn 0.0791 0.0894 -0.9928
vn -0.7531 0.6238 0.2093
vn 0.1678 0.5688 0.8052
vn 0.0017 -0.4615 -0.8871
vn 0.9340 -0.2882 -0.2113
vn 0.3877 -0.3613 -0.8480
vn -0.8733 -0.4114 -0.2611
usemtl Material.001
s 1
f 27/49/19 28/50/19 29/51/19 30/52/19
f 31/53/20 32/54/20 33/55/20 34/56/20
f 35/57/21 36/58/21 37/59/21 38/60/21
f 39/61/22 40/62/22 41/63/22 42/64/22
f 43/65/23 44/66/23 45/67/23 46/68/23
f 47/69/24 32/70/24 29/71/24 28/72/24
f 40/73/24 47/69/24 28/72/24 41/74/24
f 48/75/23 43/65/23 46/68/23 50/76/23
f 34/56/25 33/55/25 36/58/25 35/57/25
f 42/64/26 41/63/26 28/50/26 27/49/26
f 52/77/23 60/78/23 53/79/23 66/80/23 43/65/23 48/75/23
f 37/81/24 36/82/24 47/69/24 40/73/24
f 36/82/24 33/83/24 32/70/24 47/69/24
f 57/84/23 44/66/23 43/65/23 66/80/23 49/85/23 51/86/23
f 38/87/27 37/88/27 40/62/27 39/61/27
f 30/89/28 29/90/28 32/54/28 31/53/28
f 50/91/29 30/89/29 31/53/29 48/92/29
f 55/93/30 38/87/31 39/61/31 44/94/31 57/95/32 54/96/33 56/97/34
f 45/98/35 42/64/35 27/49/35 46/99/35
f 52/100/36 34/56/36 35/57/36 61/101/37 59/102/38 58/103/39 60/104/40
f 44/94/41 39/61/41 42/64/41 45/98/41
f 61/101/37 35/57/42 38/60/42 55/105/30 65/106/43 64/107/43 63/108/44 62/109/45
f 48/92/46 31/53/46 34/56/46 52/100/46
f 46/99/47 27/49/47 30/52/47 50/110/47
f 56/111/34 51/112/48 49/113/48 63/114/44 64/115/43 65/116/43 55/117/30
f 53/118/49 60/119/40 58/120/39 59/121/38
f 59/121/38 61/122/37 62/123/45 63/114/44 49/113/50 66/124/50 53/118/50
f 56/125/34 54/126/33 57/127/32 51/128/51
o Cube.002_Cube.003
v 0.299968 0.369515 0.152613
v 0.197473 0.783325 -0.030402
v 0.165920 0.783325 -0.012732
v 0.100491 0.369515 0.219269
v -0.034767 0.369515 0.058211
v 0.148249 0.783325 -0.044284
v 0.130578 0.783325 -0.075837
v -0.101423 0.369515 -0.141266
v 0.059635 0.369515 -0.276523
v 0.162131 0.783325 -0.093508
v 0.193684 0.783325 -0.111179
v 0.259113 0.369515 -0.343180
v 0.503066 0.369515 -0.262462
v 0.211355 0.783325 -0.079626
v 0.229025 0.783325 -0.048073
v 0.461026 0.369515 0.017356
v 0.200000 -0.008785 -0.100000
v 0.700000 -0.008785 -0.500000
v 0.100000 -0.008785 -0.000000
v 0.800000 -0.008785 -0.000000
v 0.300000 -0.008785 0.300000
v 0.400000 -0.008785 0.300000
v 0.179802 0.783325 -0.061955
v 0.000000 -0.008785 -0.400000
v -0.100000 -0.008785 -0.300000
v 0.400000 -0.008785 -0.600000
v 0.049432 0.273173 0.290763
v 0.008282 0.277934 0.235227
v -0.045277 0.308563 0.129393
v -0.057420 0.308537 0.093010
v -0.062663 0.305648 0.082149
v -0.312916 0.101552 -0.182869
v -0.336412 0.043551 -0.210587
v -0.300000 -0.008785 -0.250000
v -0.128611 0.265177 -0.047142
v -0.090245 0.290507 0.025070
v -0.183212 0.247293 -0.130889
v 0.257143 -0.008785 0.357143
v 0.174234 0.089908 0.337990
v 0.144338 0.174655 0.305024
v 0.088889 -0.008785 -0.016667
vt 0.884142 0.869582
vt 0.890192 0.879028
vt 0.905376 0.903843
vt 0.905577 0.875738
vt 0.927549 0.954435
vt 0.921499 0.963881
vt 0.906316 0.988696
vt 0.906114 0.960590
vt 0.927549 0.954435
vt 0.921499 0.963881
vt 0.906316 0.988696
vt 0.906114 0.960590
vt 0.884142 0.869582
vt 0.890192 0.879028
vt 0.905376 0.903843
vt 0.905577 0.875738
vt 0.905762 0.885841
vt 0.888285 0.885841
vt 0.888285 0.868348
vt 0.905762 0.868348
vt 0.902913 0.908054
vt 0.907769 0.908054
vt 0.907769 0.903149
vt 0.902913 0.903149
vt 0.907813 0.908054
vt 0.907813 0.903149
vt 0.910503 0.884957
vt 0.910617 0.885841
vt 0.910755 0.868348
vt 0.908714 0.869941
vt 0.911130 0.870348
vt 0.918870 0.868348
vt 0.905762 0.868348
vt 0.907813 0.903149
vt 0.902913 0.903149
vt 0.907769 0.903149
vt 0.888285 0.868348
vt 0.905577 0.875738
vt 0.905376 0.903843
vt 0.906114 0.960590
vt 0.906316 0.988696
vt 0.906050 0.951626
vt 0.928224 0.952584
vt 0.927014 0.952666
vt 0.923387 0.952811
vt 0.912527 0.952129
vt 0.907675 0.841497
vt 0.878821 0.860486
vt 0.907675 0.841497
vt 0.878821 0.860486
vt 0.931546 0.943473
vt 0.912283 0.929912
vt 0.907741 0.931096
vt 0.905935 0.935658
vt 0.905862 0.925392
vt 0.908449 0.949743
vt 0.915893 0.951700
vt 0.922792 0.952345
vt 0.887065 0.855061
vt 0.906111 0.867018
vt 0.896637 0.861659
vt 0.893271 0.857467
vt 0.878821 0.860486
vt 0.883284 0.868116
vt 0.884371 0.868027
vt 0.890151 0.867807
vt 0.897462 0.866834
vt 0.906255 0.864675
vt 0.907675 0.841497
vt 0.880424 0.859431
vt 0.906658 0.858101
vt 0.907675 0.841497
vt 0.903553 0.844210
vt 0.903838 0.852402
vt 0.904282 0.867358
vt 0.898072 0.868238
vt 0.886944 0.868314
vt 0.918704 0.934432
vt 0.905862 0.925392
vt 0.906033 0.949218
vt 0.918393 0.941643
vt 0.920544 0.939143
vn 0.3085 0.4352 0.8458
vn 0.3083 0.4374 0.8447
vn 0.3083 0.4309 0.8481
vn -0.8447 0.4374 0.3083
vn -0.3083 0.4374 -0.8447
vn 0.8474 0.5268 0.0663
vn -0.0000 -1.0000 -0.0000
vn 0.0000 1.0000 0.0000
vn -0.5592 0.4374 -0.7043
vn 0.5582 0.4378 0.7048
vn 0.5592 0.4374 0.7043
vn 0.5590 0.4376 0.7043
vn 0.3335 0.5335 -0.7772
vn -0.7043 0.4374 0.5592
vn -0.4867 0.1282 0.8641
vn -0.5978 0.6504 0.4686
vn -0.8460 0.0341 0.5320
vn -0.8200 0.0522 0.5699
vn -0.8326 0.0555 0.5510
vn 0.2509 0.6055 -0.7552
vn 0.5501 0.4411 0.7091
vn -0.4677 0.4098 -0.7832
vn -0.9693 -0.2218 0.1060
vn -0.9295 -0.2904 0.2271
vn -0.9364 -0.1902 0.2949
vn 0.8050 0.5903 -0.0598
vn -0.3753 0.3838 -0.8437
vn -0.8055 0.4987 0.3201
vn -0.7636 -0.0907 0.6393
vn -0.8796 -0.0091 0.4756
vn -0.5140 -0.0852 0.8536
vn 0.3130 0.4287 0.8475
vn -0.4493 -0.2259 0.8643
vn -0.7193 -0.2722 0.6392
vn -0.7008 -0.5142 0.4945
vn -0.6006 -0.5375 -0.5919
vn -0.7213 -0.5624 0.4043
vn 0.2114 -0.4898 0.8458
usemtl Material.001
s 1
f 67/129/52 68/130/53 69/131/53 70/132/54
f 71/133/55 72/134/55 73/135/55 74/136/55
f 75/137/56 76/138/56 77/139/56 78/140/56
f 79/141/57 80/142/57 81/143/57 82/144/57
f 83/145/58 84/146/58 86/147/58 88/148/58
f 89/149/59 72/150/59 69/151/59 68/152/59
f 80/153/59 89/149/59 68/152/59 81/154/59
f 85/155/58 107/156/58 83/145/58 88/148/58 104/157/58 87/158/58
f 74/136/60 73/135/60 76/138/60 75/137/60
f 82/144/61 81/143/62 68/130/62 67/129/63
f 91/159/58 100/160/58 90/161/58 83/145/58 107/156/58
f 77/162/59 76/163/59 89/149/59 80/153/59
f 76/163/59 73/164/59 72/150/59 89/149/59
f 90/161/58 92/165/58 84/146/58 83/145/58
f 78/166/64 77/167/64 80/142/64 79/141/64
f 70/168/65 69/169/65 72/134/65 71/133/65
f 93/170/66 70/168/67 71/133/67 97/171/68 96/172/69 95/173/70 94/174/70
f 92/175/71 78/166/71 79/141/71 84/176/71
f 86/177/72 82/144/61 67/129/63 88/178/72
f 74/136/73 75/137/73 90/179/73 100/180/74 99/181/75 98/182/76
f 84/176/77 79/141/77 82/144/77 86/177/77
f 90/179/78 75/137/78 78/140/78 92/183/78
f 71/133/79 74/136/79 98/182/76 103/184/80 101/185/81 102/186/81 97/171/68
f 104/187/82 88/178/83 67/129/52 70/132/54 93/188/66 106/189/84 105/190/85
f 85/191/86 96/192/69 97/193/68 102/194/81 101/195/81 103/196/80 91/197/86 107/198/86
f 106/199/84 87/200/87 104/201/82 105/202/85
f 93/203/66 94/204/70 95/205/70 96/192/69 85/191/88 87/200/88 106/199/84
f 100/206/74 91/207/89 103/208/80 98/209/76 99/210/75
o Cube.003_Cube.004
v 0.186371 0.149065 0.539517
v 0.245812 0.281356 0.464859
v 0.234251 0.281356 0.455386
v 0.125551 0.149065 0.466769
v 0.170879 0.149065 0.383482
v 0.243724 0.281356 0.443825
v 0.253196 0.281356 0.432264
v 0.243353 0.146931 0.333126
v 0.319703 0.146931 0.374678
v 0.264758 0.281356 0.441737
v 0.276319 0.281356 0.451209
v 0.387734 0.149065 0.440737
v 0.342406 0.149065 0.524024
v 0.266846 0.281356 0.462771
v 0.257373 0.281356 0.474332
v 0.269659 0.149065 0.584844
v 0.228138 -0.008785 0.511980
v 0.357751 -0.008785 0.568553
v 0.301177 -0.008785 0.698166
v 0.300000 -0.008785 0.300000
v 0.078472 -0.008785 0.678112
v 0.255285 0.281356 0.453298
v 0.377805 -0.008785 0.345848
v 0.507417 -0.008785 0.402421
v 0.118892 0.108434 0.387433
v 0.079743 0.102902 0.446901
v 0.137387 0.112704 0.357162
v 0.219708 0.030711 0.230916
v 0.228324 0.015217 0.223695
v 0.259531 -0.008785 0.239297
v 0.148971 0.109733 0.345621
v 0.186506 0.106301 0.316451
v 0.207097 0.100697 0.302999
v 0.057160 -0.008785 0.623786
v 0.182246 -0.008785 0.457005
vt 0.884142 0.869582
vt 0.890192 0.879028
vt 0.905376 0.903843
vt 0.905577 0.875738
vt 0.927549 0.954435
vt 0.921499 0.963881
vt 0.906316 0.988696
vt 0.906114 0.960590
vt 0.927549 0.954435
vt 0.921499 0.963881
vt 0.906316 0.988696
vt 0.906114 0.960590
vt 0.884142 0.869582
vt 0.890192 0.879028
vt 0.905376 0.903843
vt 0.905577 0.875738
vt 0.905762 0.885841
vt 0.888285 0.885841
vt 0.888285 0.868348
vt 0.905762 0.868348
vt 0.902913 0.908054
vt 0.907769 0.908054
vt 0.907769 0.903149
vt 0.902913 0.903149
vt 0.907813 0.908054
vt 0.907813 0.903149
vt 0.909720 0.885841
vt 0.909162 0.868348
vt 0.912450 0.869872
vt 0.918204 0.868348
vt 0.905762 0.868348
vt 0.907813 0.903149
vt 0.902913 0.903149
vt 0.907769 0.903149
vt 0.888285 0.868348
vt 0.905577 0.875738
vt 0.905376 0.903843
vt 0.906114 0.960590
vt 0.906316 0.988696
vt 0.920968 0.951463
vt 0.906040 0.950297
vt 0.928470 0.951910
vt 0.907675 0.841497
vt 0.878821 0.860486
vt 0.907675 0.841497
vt 0.878821 0.860486
vt 0.931546 0.943473
vt 0.913261 0.930601
vt 0.907644 0.931549
vt 0.905926 0.934320
vt 0.905862 0.925392
vt 0.911418 0.950118
vt 0.916149 0.950790
vt 0.925403 0.951359
vt 0.906191 0.865724
vt 0.884434 0.856792
vt 0.884319 0.856868
vt 0.894966 0.857416
vt 0.899652 0.855815
vt 0.902040 0.855163
vt 0.903009 0.854503
vt 0.905779 0.852629
vt 0.907068 0.851407
vt 0.907675 0.841497
vt 0.896349 0.848950
vt 0.900589 0.849075
vt 0.900060 0.848244
vt 0.901837 0.845339
vn -0.6173 0.5690 0.5434
vn -0.4926 0.5540 -0.6711
vn 0.5729 0.5373 -0.6189
vn 0.5396 0.5771 0.6130
vn -0.0000 -1.0000 -0.0000
vn 0.0000 1.0000 0.0000
vn 0.4269 0.5262 -0.7354
vn -0.4108 0.5708 0.7110
vn 0.7067 0.5778 0.4083
vn -0.7138 0.5661 -0.4124
vn -0.8311 0.0882 -0.5491
vn -0.9427 0.1862 -0.2769
vn -0.5991 0.7359 -0.3155
vn -0.7392 0.1432 -0.6581
vn 0.7438 0.3296 0.5815
vn -0.1607 0.6391 0.7522
vn 0.5600 0.4260 -0.7106
vn -0.2552 -0.4060 -0.8775
vn -0.3519 -0.4874 -0.7991
vn -0.5392 -0.3171 -0.7802
vn 0.7671 0.3743 0.5209
vn 0.4721 0.4322 -0.7683
vn -0.3303 0.7150 -0.6162
vn -0.7923 -0.0954 -0.6027
vn -0.6506 0.0743 -0.7557
vn -0.6441 0.6747 0.3605
vn -0.8444 0.4926 0.2106
vn -0.6244 -0.6060 -0.4928
vn -0.6748 -0.5850 0.4499
usemtl Material.001
s 1
f 108/211/90 109/212/90 110/213/90 111/214/90
f 112/215/91 113/216/91 114/217/91 115/218/91
f 116/219/92 117/220/92 118/221/92 119/222/92
f 120/223/93 121/224/93 122/225/93 123/226/93
f 124/227/94 125/228/94 126/229/94 128/230/94
f 129/231/95 113/232/95 110/233/95 109/234/95
f 121/235/95 129/231/95 109/234/95 122/236/95
f 142/237/94 124/227/94 128/230/94 141/238/94
f 115/218/96 114/217/96 117/220/96 116/219/96
f 123/226/97 122/225/97 109/212/97 108/211/97
f 127/239/94 137/240/94 130/241/94 124/227/94 142/237/94
f 118/242/95 117/243/95 129/231/95 121/235/95
f 117/243/95 114/244/95 113/232/95 129/231/95
f 130/241/94 131/245/94 125/228/94 124/227/94
f 119/246/98 118/247/98 121/224/98 120/223/98
f 111/248/99 110/249/99 113/216/99 112/215/99
f 132/250/100 133/251/101 111/248/102 112/215/102 134/252/103
f 131/253/104 119/246/104 120/223/104 125/254/104
f 126/255/105 123/226/105 108/211/105 128/256/105
f 116/219/106 130/257/106 137/258/107 136/259/108 135/260/109 115/218/106
f 125/254/110 120/223/110 123/226/110 126/255/110
f 130/257/111 116/219/111 119/222/111 131/261/111
f 134/252/103 112/215/112 115/218/112 135/260/109 140/262/113 139/263/114 138/264/114
f 128/256/115 108/211/115 111/214/115 133/265/101 141/266/116
f 141/267/116 133/268/101 132/269/100 134/270/103 138/271/114 139/272/114 140/273/113 127/274/117 142/275/117
f 127/274/118 140/273/113 135/276/109 136/277/108 137/278/107
