# Blender 3.6.5
# www.blender.org
mtllib Poly_World_Map_Tower_03.mtl
o Grid.002
v -0.499993 0.000001 0.499993
v -0.499993 0.499994 0.499993
v -0.499993 0.000001 -0.499993
v -0.499993 0.499994 -0.499993
v 0.499993 0.000001 0.499993
v 0.499993 0.499994 0.499993
v 0.499993 0.000001 -0.499993
v 0.499993 0.499994 -0.499993
v 0.000000 0.000001 -0.499993
v 0.000000 0.499994 -0.499993
v 0.000000 0.000001 0.499993
v 0.000000 0.499994 0.499993
v -0.249997 0.000001 -0.499993
v -0.249997 0.499994 0.499993
v -0.249997 0.499994 -0.499993
v -0.249997 0.000001 0.499993
v 0.249997 0.499994 -0.499993
v 0.249997 0.000001 0.499993
v 0.249997 0.000001 -0.499993
v 0.249997 0.499994 0.499993
vn -1.0000 -0.0000 -0.0000
vn -0.0000 -0.0000 -1.0000
vn 1.0000 -0.0000 -0.0000
vn -0.0000 -0.0000 1.0000
vn -0.0000 1.0000 -0.0000
vt 0.196803 0.350480
vt 0.240760 0.350480
vt 0.240760 0.368155
vt 0.196803 0.368155
vt 0.208074 0.368100
vt 0.208074 0.350366
vt 0.196688 0.350366
vt 0.196688 0.368100
vt 0.240760 0.368486
vt 0.196803 0.368486
vt 0.200435 0.256881
vt 0.200435 0.277236
vt 0.187547 0.277236
vt 0.187547 0.256881
vt 0.207824 0.350424
vt 0.207792 0.368155
vt 0.229803 0.350424
vt 0.218846 0.350369
vt 0.218781 0.368155
vt 0.229771 0.368155
vt 0.229821 0.256881
vt 0.229853 0.277236
vt 0.218911 0.277236
vt 0.218846 0.256881
vt 0.229719 0.368100
vt 0.229719 0.350366
vt 0.218878 0.350366
vt 0.218878 0.368100
vt 0.240559 0.368100
vt 0.240559 0.350366
vt 0.207968 0.277236
vt 0.207936 0.256881
vt 0.249960 0.256881
vt 0.249960 0.277236
vt 0.237115 0.277236
vt 0.237083 0.256881
s 0
usemtl Material.002
f 1/1/1 2/2/1 4/3/1 3/4/1
f 19/5/2 17/6/2 8/7/2 7/8/2
f 7/1/3 8/2/3 6/9/3 5/10/3
f 16/11/4 14/12/4 2/13/4 1/14/4
f 15/15/5 4/1/5 2/4/5 14/16/5
f 17/17/5 10/18/5 12/19/5 20/20/5
f 18/21/4 20/22/4 12/23/4 11/24/4
f 13/25/2 15/26/2 10/27/2 9/28/2
f 3/29/2 4/30/2 15/26/2 13/25/2
f 10/18/5 15/15/5 14/16/5 12/19/5
f 11/24/4 12/23/4 14/31/4 16/32/4
f 5/33/4 6/34/4 20/35/4 18/36/4
f 8/2/5 17/17/5 20/20/5 6/3/5
f 9/28/2 10/27/2 17/6/2 19/5/2
o Grid.001
v -0.249997 0.000001 0.699990
v -0.249997 0.349996 0.699990
v -0.249997 0.000001 0.499993
v -0.249997 0.349996 0.499993
v 0.249997 0.000001 0.699990
v 0.249997 0.349996 0.699990
v 0.249997 0.000001 0.499993
v 0.249997 0.349996 0.499993
v 0.000000 0.349996 0.499993
v 0.000000 0.000001 0.699990
v 0.000000 0.349996 0.699990
vn -1.0000 -0.0000 -0.0000
vn 1.0000 -0.0000 -0.0000
vn -0.0000 -0.0000 1.0000
vn -0.0000 1.0000 -0.0000
vt 0.196803 0.350480
vt 0.240760 0.350480
vt 0.240760 0.368155
vt 0.196803 0.368155
vt 0.219466 0.250257
vt 0.219466 0.264282
vt 0.200625 0.264282
vt 0.200625 0.250257
vt 0.218846 0.350369
vt 0.218781 0.368155
vt 0.236881 0.250257
vt 0.236881 0.264282
s 0
usemtl Material.002
f 21/37/6 22/38/6 24/39/6 23/40/6
f 27/37/7 28/38/7 26/39/7 25/40/7
f 30/41/8 31/42/8 22/43/8 21/44/8
f 29/45/9 24/37/9 22/40/9 31/46/9
f 28/38/9 29/45/9 31/46/9 26/39/9
f 25/47/8 26/48/8 31/42/8 30/41/8
o Grid.003
v -0.399994 0.499994 0.399995
v -0.399994 1.999973 0.399995
v -0.399994 0.499994 -0.399995
v -0.399994 1.999973 -0.399995
v 0.399994 0.499994 0.399995
v 0.399994 1.999973 0.399995
v 0.399994 0.499994 -0.399995
v 0.399994 1.999973 -0.399995
vn -1.0000 -0.0000 -0.0000
vn -0.0000 -0.0000 -1.0000
vn 1.0000 -0.0000 -0.0000
vn -0.0000 -0.0000 1.0000
vn -0.0000 1.0000 -0.0000
vt 0.196898 0.350482
vt 0.240582 0.350482
vt 0.240582 0.368118
vt 0.196898 0.368118
vt 0.240018 0.277684
vt 0.240018 0.347205
vt 0.197461 0.347205
vt 0.197461 0.277684
s 0
usemtl Material.002
f 32/49/10 33/50/10 35/51/10 34/52/10
f 34/52/11 35/51/11 39/50/11 38/49/11
f 38/49/12 39/50/12 37/51/12 36/52/12
f 36/53/13 37/54/13 33/55/13 32/56/13
f 39/50/14 35/49/14 33/52/14 37/51/14
o Grid.005
v -0.468430 2.093659 0.468430
v -0.468430 2.093659 -0.468430
v -0.468430 2.093659 -0.374744
v -0.468430 2.093659 0.374744
v -0.421587 2.093659 0.374744
v -0.421587 2.093659 -0.374744
v -0.374744 2.093659 -0.468430
v -0.374744 2.093659 -0.421587
v -0.374744 2.093659 0.468430
v -0.374744 2.093659 0.421587
v -0.468430 1.999978 -0.468430
v -0.468430 1.999978 -0.374744
v -0.468430 1.999978 0.468430
v -0.468430 1.999978 0.374744
v -0.374744 1.999978 -0.468430
v -0.374744 1.999978 0.468430
v -0.421587 1.999978 -0.374744
v -0.421587 1.999978 0.374744
v -0.374744 1.999978 -0.421587
v -0.374744 1.999978 0.421587
v 0.000000 2.093659 -0.421587
v 0.000000 1.999978 -0.421587
v 0.000000 2.093659 0.421587
v 0.000000 1.999978 0.421587
v 0.000000 2.093659 -0.374744
v 0.000000 2.093659 0.374744
v -0.374744 2.093659 -0.374744
v -0.374744 2.093659 0.374744
v 0.000000 1.999978 -0.374744
v 0.000000 1.999978 0.374744
v -0.374744 1.999978 -0.374744
v -0.374744 1.999978 0.374744
v -0.374744 0.499996 0.374744
v -0.374744 0.499996 -0.374744
v 0.000000 0.499996 0.374744
v 0.000000 0.499996 -0.374744
v -0.374744 0.593682 0.374744
v -0.374744 0.593682 -0.374744
v 0.000000 0.593682 0.374744
v 0.000000 0.593682 -0.374744
v 0.000000 0.499996 0.421587
v 0.000000 0.593682 0.421587
v 0.000000 0.499996 -0.421587
v 0.000000 0.593682 -0.421587
v -0.374744 0.499996 0.421587
v -0.374744 0.499996 -0.421587
v -0.421587 0.499996 0.374744
v -0.421587 0.499996 -0.374744
v -0.374744 0.499996 0.468430
v -0.374744 0.499996 -0.468430
v -0.468430 0.499996 0.374744
v -0.468430 0.499996 0.468430
v -0.468430 0.499996 -0.374744
v -0.468430 0.499996 -0.468430
v -0.374744 0.593682 0.421587
v -0.374744 0.593682 0.468430
v -0.374744 0.593682 -0.421587
v -0.374744 0.593682 -0.468430
v -0.421587 0.593682 -0.374744
v -0.421587 0.593682 0.374744
v -0.468430 0.593682 0.374744
v -0.468430 0.593682 -0.374744
v -0.468430 0.593682 -0.468430
v -0.468430 0.593682 0.468430
v 0.468430 2.093659 0.468430
v 0.468430 2.093659 -0.468430
v 0.468430 2.093659 -0.374744
v 0.468430 2.093659 0.374744
v 0.421587 2.093659 0.374744
v 0.421587 2.093659 -0.374744
v 0.374744 2.093659 -0.468430
v 0.374744 2.093659 -0.421587
v 0.374744 2.093659 0.468430
v 0.374744 2.093659 0.421587
v 0.468430 1.999978 -0.468430
v 0.468430 1.999978 -0.374744
v 0.468430 1.999978 0.468430
v 0.468430 1.999978 0.374744
v 0.374744 1.999978 -0.468430
v 0.374744 1.999978 0.468430
v 0.421587 1.999978 -0.374744
v 0.421587 1.999978 0.374744
v 0.374744 1.999978 -0.421587
v 0.374744 1.999978 0.421587
v 0.374744 2.093659 -0.374744
v 0.374744 2.093659 0.374744
v 0.374744 1.999978 -0.374744
v 0.374744 1.999978 0.374744
v 0.374744 0.499996 0.374744
v 0.374744 0.499996 -0.374744
v 0.374744 0.593682 0.374744
v 0.374744 0.593682 -0.374744
v 0.374744 0.499996 0.421587
v 0.374744 0.499996 -0.421587
v 0.421587 0.499996 0.374744
v 0.421587 0.499996 -0.374744
v 0.374744 0.499996 0.468430
v 0.374744 0.499996 -0.468430
v 0.468430 0.499996 0.374744
v 0.468430 0.499996 0.468430
v 0.468430 0.499996 -0.374744
v 0.468430 0.499996 -0.468430
v 0.374744 0.593682 0.421587
v 0.374744 0.593682 0.468430
v 0.374744 0.593682 -0.421587
v 0.374744 0.593682 -0.468430
v 0.421587 0.593682 -0.374744
v 0.421587 0.593682 0.374744
v 0.468430 0.593682 0.374744
v 0.468430 0.593682 -0.374744
v 0.468430 0.593682 -0.468430
v 0.468430 0.593682 0.468430
vn -1.0000 -0.0000 -0.0000
vn -0.0000 -0.0000 -1.0000
vn -0.0000 -0.0000 1.0000
vn 1.0000 -0.0000 -0.0000
vn -0.0000 -1.0000 -0.0000
vn -0.0000 1.0000 -0.0000
vt 0.199322 0.277755
vt 0.199322 0.282251
vt 0.190345 0.282251
vt 0.190345 0.277755
vt 0.247424 0.277438
vt 0.247424 0.282407
vt 0.238494 0.282407
vt 0.238494 0.277438
vt 0.190302 0.282352
vt 0.199091 0.282352
vt 0.199091 0.277504
vt 0.190302 0.277504
vt 0.241381 0.372146
vt 0.247122 0.372146
vt 0.247122 0.374783
vt 0.241381 0.374783
vt 0.240751 0.321763
vt 0.240751 0.329299
vt 0.196790 0.329299
vt 0.196790 0.321763
vt 0.196214 0.375186
vt 0.196214 0.372146
vt 0.194834 0.282251
vt 0.194834 0.277755
vt 0.242959 0.282407
vt 0.242959 0.277438
vt 0.233775 0.321763
vt 0.233775 0.329299
vt 0.196703 0.321759
vt 0.196703 0.329270
vt 0.236709 0.329270
vt 0.236709 0.321759
vt 0.196214 0.350887
vt 0.191955 0.350887
vt 0.196214 0.350887
vt 0.241381 0.350887
vt 0.244204 0.350887
vt 0.241381 0.350887
vt 0.190204 0.350185
vt 0.194166 0.350185
vt 0.198142 0.350185
vt 0.198142 0.347052
vt 0.198142 0.343879
vt 0.190204 0.343879
vt 0.240859 0.321759
vt 0.240859 0.329270
vt 0.198142 0.347012
vt 0.194179 0.350185
s 0
usemtl Material.002
f 51/57/15 42/58/15 41/59/15 50/60/15
f 52/61/15 40/62/15 43/63/15 53/64/15
f 41/65/16 46/66/16 54/67/16 50/68/16
f 55/67/17 48/66/17 40/65/17 52/68/17
f 56/69/17 45/70/17 42/71/17 51/72/17
f 57/73/15 44/74/15 45/75/15 56/76/15
f 53/77/16 43/77/16 44/78/16 57/78/16
f 54/60/18 46/59/18 47/79/18 58/80/18
f 49/81/18 48/62/18 55/61/18 59/82/18
f 63/83/17 62/84/17 49/75/17 59/76/17
f 58/76/16 47/75/16 60/84/16 61/83/16
f 59/85/19 71/86/19 69/87/19 63/88/19
f 65/89/18 62/90/18 63/90/18 69/91/18
f 68/92/18 61/93/18 60/93/18 64/94/18
f 66/75/18 67/74/18 71/73/18 70/76/18
f 64/84/17 66/75/17 70/76/17 68/83/17
f 69/83/16 71/76/16 67/75/16 65/84/16
f 77/75/18 76/74/18 72/73/18 73/76/18
f 74/83/16 72/76/16 76/75/16 78/84/16
f 75/92/18 82/93/18 83/93/18 79/94/18
f 79/84/17 77/75/17 73/76/17 75/83/17
f 78/89/18 81/90/18 80/90/18 74/91/18
f 85/76/16 96/75/16 83/84/16 82/83/16
f 80/83/17 81/84/17 94/75/17 84/76/17
f 89/60/18 97/59/18 96/79/18 85/80/18
f 90/77/16 100/77/16 99/78/16 86/78/16
f 94/85/20 81/88/20 78/87/20 76/86/20
f 94/81/18 95/62/18 88/61/18 84/82/18
f 86/73/15 99/74/15 98/75/15 87/76/15
f 88/67/17 95/66/17 103/65/17 91/68/17
f 87/69/17 98/70/17 101/71/17 92/72/17
f 92/57/15 101/58/15 102/59/15 93/60/15
f 102/65/16 97/66/16 89/67/16 93/68/16
f 91/61/15 103/62/15 100/63/15 90/64/15
f 49/85/20 62/88/20 65/87/20 67/86/20
f 47/86/20 66/85/20 64/88/20 60/87/20
f 42/95/20 45/96/20 66/97/20 47/98/20 46/99/20 41/100/20
f 44/86/20 67/85/20 66/101/20 45/102/20
f 43/95/20 40/100/20 48/99/20 49/103/20 67/97/20 44/104/20
f 96/86/20 77/85/20 79/88/20 83/87/20
f 101/95/20 98/96/20 77/97/20 96/98/20 97/99/20 102/100/20
f 99/86/20 76/85/20 77/101/20 98/102/20
f 100/95/20 103/100/20 95/99/20 94/103/20 76/97/20 99/104/20
f 58/86/19 61/87/19 68/88/19 70/85/19
f 51/95/19 50/100/19 54/99/19 58/98/19 70/97/19 56/96/19
f 57/86/19 56/102/19 70/101/19 71/85/19
f 53/95/19 57/104/19 71/97/19 59/103/19 55/99/19 52/100/19
f 115/57/18 114/60/18 105/59/18 106/58/18
f 116/61/18 117/64/18 107/63/18 104/62/18
f 105/65/16 114/68/16 118/67/16 110/66/16
f 119/67/17 116/68/17 104/65/17 112/66/17
f 120/69/17 115/72/17 106/71/17 109/70/17
f 121/73/18 120/76/18 109/75/18 108/74/18
f 117/77/16 121/78/16 108/78/16 107/77/16
f 118/60/15 122/80/15 111/79/15 110/59/15
f 113/81/15 123/82/15 119/61/15 112/62/15
f 63/83/17 123/76/17 113/75/17 62/84/17
f 122/76/16 61/83/16 60/84/16 111/75/16
f 123/85/19 63/88/19 69/87/19 127/86/19
f 124/75/15 126/76/15 127/73/15 125/74/15
f 64/84/17 68/83/17 126/76/17 124/75/17
f 69/83/16 65/84/16 125/75/16 127/76/16
f 131/75/15 129/76/15 128/73/15 130/74/15
f 74/83/16 78/84/16 130/75/16 128/76/16
f 79/84/17 75/83/17 129/76/17 131/75/17
f 133/76/16 82/83/16 83/84/16 144/75/16
f 80/83/17 132/76/17 142/75/17 81/84/17
f 137/60/15 133/80/15 144/79/15 145/59/15
f 138/77/16 134/78/16 147/78/16 148/77/16
f 142/85/20 130/86/20 78/87/20 81/88/20
f 142/81/15 132/82/15 136/61/15 143/62/15
f 134/73/18 135/76/18 146/75/18 147/74/18
f 136/67/17 139/68/17 151/65/17 143/66/17
f 135/69/17 140/72/17 149/71/17 146/70/17
f 140/57/18 141/60/18 150/59/18 149/58/18
f 150/65/16 141/68/16 137/67/16 145/66/16
f 139/61/18 138/64/18 148/63/18 151/62/18
f 113/85/20 125/86/20 65/87/20 62/88/20
f 111/86/20 60/87/20 64/88/20 124/85/20
f 106/95/20 105/100/20 110/99/20 111/98/20 124/97/20 109/96/20
f 108/86/20 109/102/20 124/101/20 125/85/20
f 107/95/20 108/104/20 125/97/20 113/103/20 112/99/20 104/100/20
f 144/86/20 83/87/20 79/88/20 131/85/20
f 149/95/20 150/100/20 145/99/20 144/98/20 131/97/20 146/96/20
f 147/86/20 146/102/20 131/101/20 130/85/20
f 148/95/20 147/104/20 130/97/20 142/103/20 143/99/20 151/100/20
f 122/86/19 126/85/19 68/88/19 61/87/19
f 115/95/19 120/96/19 126/97/19 122/98/19 118/99/19 114/100/19
f 121/86/19 127/85/19 126/101/19 120/102/19
f 117/95/19 116/100/19 119/99/19 123/103/19 127/97/19 121/104/19
o Grid.006
v -0.420746 0.593761 0.383732
v -0.420746 1.999868 0.383732
v -0.385277 0.593761 0.409501
v -0.385277 1.999868 0.409501
v -0.398825 0.593761 0.451198
v -0.398825 1.999868 0.451198
v -0.442667 0.593761 0.451198
v -0.442667 1.999868 0.451198
v -0.456215 0.593761 0.409501
v -0.456215 1.999868 0.409501
v -0.420746 0.593761 -0.453573
v -0.420746 1.999869 -0.453573
v -0.385277 0.593761 -0.427803
v -0.385277 1.999869 -0.427803
v -0.398825 0.593761 -0.386107
v -0.398825 1.999869 -0.386107
v -0.442667 0.593761 -0.386107
v -0.442667 1.999869 -0.386107
v -0.456215 0.593761 -0.427803
v -0.456215 1.999869 -0.427803
v 0.420746 0.593761 0.383732
v 0.420746 1.999868 0.383732
v 0.385277 0.593761 0.409501
v 0.385277 1.999868 0.409501
v 0.398825 0.593761 0.451198
v 0.398825 1.999868 0.451198
v 0.442667 0.593761 0.451198
v 0.442667 1.999868 0.451198
v 0.456215 0.593761 0.409501
v 0.456215 1.999868 0.409501
v 0.420746 0.593761 -0.453573
v 0.420746 1.999869 -0.453573
v 0.385277 0.593761 -0.427803
v 0.385277 1.999869 -0.427803
v 0.398825 0.593761 -0.386107
v 0.398825 1.999869 -0.386107
v 0.442667 0.593761 -0.386107
v 0.442667 1.999869 -0.386107
v 0.456215 0.593761 -0.427803
v 0.456215 1.999869 -0.427803
vn 0.5878 -0.0000 -0.8090
vn 0.9511 -0.0000 0.3090
vn -0.0000 -0.0000 1.0000
vn -0.0000 1.0000 -0.0000
vn -0.9511 -0.0000 0.3090
vn -0.5878 -0.0000 -0.8090
vn -0.0000 -1.0000 -0.0000
vt 0.196860 0.296983
vt 0.240764 0.296983
vt 0.240764 0.304554
vt 0.196860 0.304554
vt 0.222683 0.301580
vt 0.218760 0.304430
vt 0.214838 0.301580
vt 0.216337 0.296969
vt 0.221184 0.296969
vt 0.218731 0.304430
vt 0.222653 0.301580
vt 0.221155 0.296969
vt 0.216307 0.296969
vt 0.214809 0.301580
s 0
usemtl Material.002
f 152/105/21 153/106/21 155/107/21 154/108/21
f 154/108/22 155/107/22 157/106/22 156/105/22
f 156/105/23 157/106/23 159/107/23 158/108/23
f 155/109/24 153/110/24 161/111/24 159/112/24 157/113/24
f 158/108/25 159/107/25 161/106/25 160/105/25
f 160/105/26 161/106/26 153/107/26 152/108/26
f 152/114/27 154/115/27 156/116/27 158/117/27 160/118/27
f 162/105/21 163/106/21 165/107/21 164/108/21
f 164/108/22 165/107/22 167/106/22 166/105/22
f 166/105/23 167/106/23 169/107/23 168/108/23
f 165/109/24 163/110/24 171/111/24 169/112/24 167/113/24
f 168/108/25 169/107/25 171/106/25 170/105/25
f 170/105/26 171/106/26 163/107/26 162/108/26
f 162/114/27 164/115/27 166/116/27 168/117/27 170/118/27
f 172/105/26 174/108/26 175/107/26 173/106/26
f 174/108/25 176/105/25 177/106/25 175/107/25
f 176/105/23 178/108/23 179/107/23 177/106/23
f 175/109/24 177/113/24 179/112/24 181/111/24 173/110/24
f 178/108/22 180/105/22 181/106/22 179/107/22
f 180/105/21 172/108/21 173/107/21 181/106/21
f 172/114/27 180/118/27 178/117/27 176/116/27 174/115/27
f 182/105/26 184/108/26 185/107/26 183/106/26
f 184/108/25 186/105/25 187/106/25 185/107/25
f 186/105/23 188/108/23 189/107/23 187/106/23
f 185/109/24 187/113/24 189/112/24 191/111/24 183/110/24
f 188/108/22 190/105/22 191/106/22 189/107/22
f 190/105/21 182/108/21 183/107/21 191/106/21
f 182/114/27 190/118/27 188/117/27 186/116/27 184/115/27
