# Blender 3.6.5
# www.blender.org
mtllib Poly_World_Map_Igloo_01.mtl
o Grid.006
v 0.000000 0.000001 -0.384502
v -0.300616 0.000001 -0.239733
v -0.374862 0.000001 0.085560
v -0.166829 0.000001 0.346424
v 0.166829 0.000001 0.346424
v 0.374862 0.000001 0.085560
v 0.300616 0.000001 -0.239733
v 0.000000 0.351092 -0.227579
v -0.174039 0.351092 -0.143766
v -0.217023 0.351092 0.044560
v -0.096584 0.351092 0.195586
v 0.034364 0.168933 0.308386
v 0.068964 0.134639 0.308386
v 0.096584 0.351092 0.195586
v 0.217023 0.351092 0.044560
v 0.174039 0.351092 -0.143766
v 0.000000 0.433142 -0.002893
v -0.068964 0.134639 0.308386
v -0.002484 0.433142 -0.001697
v -0.034364 0.168933 0.308386
v -0.003097 0.433142 0.000991
v -0.001378 0.433142 0.003146
v 0.001378 0.433142 0.003146
v 0.003097 0.433142 0.000991
v 0.002484 0.433142 -0.001697
v -0.280901 0.138855 -0.224011
v -0.350277 0.138855 0.079948
v 0.280901 0.138855 -0.224011
v -0.000000 0.138855 -0.359285
v 0.155888 0.138855 0.323705
v 0.350277 0.138855 0.079948
v -0.155888 0.138855 0.323705
v -0.000000 0.351092 0.195586
v 0.000000 0.433142 0.003146
v -0.241792 0.257514 -0.197373
v 0.241792 0.257514 -0.197373
v 0.134184 0.257514 0.274086
v -0.301510 0.257514 0.064267
v -0.000000 0.257514 -0.313814
v 0.301510 0.257514 0.064267
v -0.134184 0.257514 0.274086
v -0.000000 0.257514 0.274086
v 0.089759 0.411778 0.020487
v 0.071981 0.411778 -0.057403
v -0.039947 0.411778 0.082950
v 0.039947 0.411778 0.082950
v -0.071981 0.411778 -0.057403
v -0.089759 0.411778 0.020487
v 0.000000 0.411778 -0.092068
v -0.000000 0.411778 0.082950
v -0.064710 0.138855 0.323705
v -0.068964 0.134639 0.324395
v -0.068964 0.000001 0.346424
v 0.068964 0.134639 0.324395
v 0.064710 0.138855 0.323705
v 0.068964 0.000001 0.346424
v 0.000000 0.175489 0.308386
v -0.000000 0.175489 0.308386
v 0.034364 0.168933 0.311127
v 0.011855 0.175490 0.308386
v -0.011855 0.175489 0.308386
v -0.034364 0.168933 0.311127
v 0.068964 0.000001 0.308386
v -0.068964 0.000001 0.308386
v 0.000000 0.000001 0.308386
vn -0.7490 0.6402 -0.1709
vn 0.3338 0.6388 -0.6932
vn 0.5995 0.6419 0.4781
vn -0.5995 0.6419 0.4781
vn -0.3338 0.6388 -0.6932
vn 0.7490 0.6402 -0.1709
vn -0.0000 0.6427 0.7661
vn 0.2511 0.9663 -0.0573
vn -0.0000 0.9660 0.2586
vn -0.2511 0.9663 -0.0573
vn 0.1115 0.9664 -0.2315
vn 0.2019 0.9661 0.1610
vn -0.2019 0.9661 0.1610
vn -0.1115 0.9664 -0.2315
vn -0.0000 1.0000 -0.0000
vn -0.0000 0.1615 0.9869
vn 0.9621 0.1615 -0.2196
vn -0.4282 0.1615 -0.8891
vn -0.7716 0.1615 0.6153
vn 0.7716 0.1615 0.6153
vn 0.4282 0.1615 -0.8891
vn -0.9621 0.1615 -0.2196
vn -0.0000 0.3858 0.9226
vn 0.9140 0.3481 -0.2086
vn -0.4101 0.3264 -0.8516
vn -0.7250 0.3744 0.5782
vn 0.7250 0.3744 0.5782
vn 0.4101 0.3264 -0.8516
vn -0.9140 0.3481 -0.2086
vn -0.0000 0.8804 0.4743
vn -0.1931 0.8955 -0.4010
vn -0.3661 0.8836 0.2920
vn 0.3661 0.8836 0.2920
vn 0.1931 0.8955 -0.4010
vn -0.4438 0.8904 -0.1013
vn 0.4438 0.8904 -0.1013
vn 0.2796 -0.9601 -0.0000
vn 1.0000 -0.0000 -0.0000
vn -0.0000 -0.0000 1.0000
vn -1.0000 -0.0000 -0.0000
vn -0.7040 -0.7102 -0.0000
vn -0.2797 -0.9601 -0.0000
vn 0.7040 -0.7102 -0.0000
vt 0.098130 0.909097
vt 0.096760 0.915306
vt 0.090302 0.915323
vt 0.088674 0.909072
vt 0.088674 0.909073
vt 0.098130 0.909097
vt 0.088674 0.909071
vt 0.088674 0.909073
vt 0.098130 0.909097
vt 0.098130 0.909071
vt 0.096760 0.915321
vt 0.090302 0.915321
vt 0.090487 0.922434
vt 0.094065 0.928973
vt 0.094065 0.922434
vt 0.094065 0.928930
vt 0.094065 0.928965
vt 0.090513 0.922434
vt 0.090507 0.922434
vt 0.090487 0.922434
vt 0.094238 0.928167
vt 0.094641 0.928048
vt 0.095043 0.928553
vt 0.094899 0.929181
vt 0.094318 0.929461
vt 0.093737 0.929181
vt 0.093594 0.928553
vt 0.093996 0.928048
vt 0.088819 0.901636
vt 0.089142 0.902013
vt 0.082026 0.902014
vt 0.081770 0.889571
vt 0.089056 0.889571
vt 0.086104 0.907592
vt 0.086104 0.912713
vt 0.100143 0.912713
vt 0.100143 0.907592
vt 0.081776 0.889571
vt 0.082026 0.902013
vt 0.089143 0.902013
vt 0.088819 0.901635
vt 0.089062 0.889571
vt 0.090525 0.922434
vt 0.094065 0.928938
vt 0.088674 0.909070
vt 0.089567 0.907695
vt 0.086215 0.907695
vt 0.086215 0.913915
vt 0.093216 0.913915
vt 0.093216 0.911245
vt 0.092471 0.911245
vt 0.091053 0.910610
vt 0.092471 0.911245
vt 0.093664 0.907695
vt 0.089702 0.915304
vt 0.093189 0.919964
vt 0.096817 0.919964
vt 0.096817 0.915304
vt 0.089693 0.915306
vt 0.093172 0.919964
vt 0.096817 0.915302
vt 0.093177 0.919964
vt 0.089673 0.915306
vt 0.093152 0.919964
vt 0.089696 0.915304
vt 0.093152 0.919964
vt 0.100075 0.905475
vt 0.100075 0.905722
vt 0.091881 0.905722
vt 0.087566 0.905722
vt 0.087566 0.904281
vt 0.099766 0.902298
vt 0.099766 0.905722
vt 0.093746 0.894209
vt 0.093374 0.894100
vt 0.092801 0.893533
vt 0.092801 0.892048
vt 0.093942 0.892053
vt 0.093942 0.894224
vt 0.092796 0.892048
vt 0.092796 0.893533
vt 0.093369 0.894100
vt 0.093745 0.894209
vt 0.100075 0.904281
vt 0.098537 0.904343
vt 0.087566 0.905475
vt 0.091881 0.905722
vt 0.100075 0.904281
s 0
usemtl Material.002
f 38/1/1 10/2/1 9/3/1 35/4/1
f 39/5/2 8/3/2 16/2/2 36/6/2
f 40/5/3 15/3/3 14/2/3 37/1/3
f 41/7/4 11/3/4 10/2/4 38/1/4
f 35/4/5 9/3/5 8/2/5 39/6/5
f 36/8/6 16/3/6 15/2/6 40/9/6
f 42/10/7 33/11/7 11/12/7 41/7/7
f 44/13/8 25/14/8 24/14/8 43/15/8
f 50/15/9 34/16/9 22/17/9 45/18/9
f 48/15/10 21/14/10 19/14/10 47/19/10
f 49/20/11 17/14/11 25/14/11 44/15/11
f 43/20/12 24/14/12 23/14/12 46/15/12
f 45/18/13 22/14/13 21/14/13 48/15/13
f 47/19/14 19/14/14 17/14/14 49/15/14
f 34/21/15 23/22/15 24/23/15 25/24/15 17/25/15 19/26/15 21/27/15 22/28/15
f 52/29/16 51/30/16 32/31/16 4/32/16 53/33/16
f 7/34/17 28/35/17 31/36/17 6/37/17
f 2/34/18 26/35/18 29/36/18 1/37/18
f 4/34/19 32/35/19 27/36/19 3/37/19
f 6/34/20 31/35/20 30/36/20 5/37/20
f 1/34/21 29/35/21 28/36/21 7/37/21
f 3/37/22 27/36/22 26/35/22 2/34/22
f 5/38/16 30/39/16 55/40/16 54/41/16 56/42/16
f 46/43/9 23/17/9 34/44/9 50/15/9
f 37/45/7 14/12/7 33/11/7 42/10/7
f 55/46/23 30/47/23 37/48/23 42/49/23 58/50/23 57/50/23 60/51/23 59/52/23
f 42/49/23 41/48/23 32/47/23 51/46/23 62/52/23 61/53/23 58/50/23
f 28/47/24 36/48/24 40/49/24 31/54/24
f 26/47/25 35/48/25 39/49/25 29/54/25
f 32/47/26 41/48/26 38/49/26 27/54/26
f 31/47/27 40/48/27 37/49/27 30/54/27
f 29/47/28 39/48/28 36/49/28 28/54/28
f 27/54/29 38/49/29 35/48/29 26/47/29
f 14/55/30 46/56/30 50/57/30 33/58/30
f 9/59/31 47/60/31 49/57/31 8/61/31
f 11/59/32 45/62/32 48/57/32 10/61/32
f 15/63/33 43/64/33 46/57/33 14/61/33
f 8/63/34 49/64/34 44/57/34 16/61/34
f 10/61/35 48/57/35 47/60/35 9/59/35
f 33/58/30 50/57/30 45/62/30 11/65/30
f 16/63/36 44/66/36 43/57/36 15/61/36
f 62/67/37 20/68/37 61/69/37
f 18/70/38 52/71/38 53/72/38 64/73/38
f 61/74/39 20/75/39 18/76/39 64/77/39 65/78/39 57/79/39 58/79/39
f 54/71/40 13/70/40 63/73/40 56/72/40
f 63/80/39 13/81/39 12/82/39 60/83/39 57/79/39 65/78/39
f 12/70/41 13/68/41 54/84/41 55/85/41 59/86/41
f 60/87/42 12/68/42 59/67/42
f 52/88/43 18/68/43 20/70/43 62/86/43 51/85/43
o Grid.001
v -0.100000 0.000000 0.400000
v -0.100000 0.000000 0.245158
v 0.100000 0.000000 0.400000
v 0.100000 0.000000 0.245158
v 0.000000 0.215034 0.245158
v 0.000000 0.178943 0.308386
v 0.000000 0.215034 0.400000
v 0.100000 0.150792 0.400000
v 0.049829 0.200520 0.400000
v 0.049829 0.200520 0.245158
v 0.034364 0.168933 0.308386
v 0.100000 0.150792 0.245158
v 0.068964 0.134639 0.308386
v -0.049829 0.200520 0.400000
v -0.100000 0.150792 0.400000
v -0.100000 0.150792 0.245158
v -0.068964 0.134639 0.308386
v -0.049829 0.200520 0.245158
v -0.034364 0.168933 0.308386
v 0.068964 0.000000 0.400000
v 0.034364 0.168933 0.400000
v 0.000000 0.178943 0.400000
v 0.068964 0.134639 0.400000
v 0.068964 0.000000 0.308386
v -0.068964 0.000000 0.308386
v -0.068964 0.000000 0.400000
v 0.000000 0.178943 0.400000
v -0.068964 0.134639 0.400000
v -0.034364 0.168933 0.400000
vn -0.2797 0.9601 -0.0000
vn -0.0000 -0.0000 1.0000
vn -1.0000 -0.0000 -0.0000
vn 1.0000 -0.0000 -0.0000
vn 0.7040 0.7102 -0.0000
vn 0.2797 0.9601 -0.0000
vn -0.7040 0.7102 -0.0000
vn 0.2797 -0.9601 -0.0000
vn -0.7040 -0.7102 -0.0000
vn -0.2797 -0.9601 -0.0000
vn 0.7040 -0.7102 -0.0000
vt 0.092543 0.907856
vt 0.092543 0.913267
vt 0.101365 0.913267
vt 0.101365 0.907856
vt 0.089833 0.900045
vt 0.085961 0.896207
vt 0.088356 0.894960
vt 0.091026 0.897607
vt 0.101365 0.913674
vt 0.092543 0.913674
vt 0.093678 0.901165
vt 0.093678 0.898380
vt 0.100075 0.905722
vt 0.087566 0.905722
vt 0.087566 0.897475
vt 0.100075 0.897475
vt 0.099766 0.897475
vt 0.099766 0.905722
vt 0.099766 0.905722
vt 0.099766 0.897475
vt 0.093654 0.901165
vt 0.093654 0.898380
vt 0.091002 0.897607
vt 0.089809 0.900045
vt 0.085937 0.896207
vt 0.088332 0.894960
vt 0.088332 0.884570
vt 0.085937 0.884570
vt 0.085961 0.884570
vt 0.088356 0.884570
s 0
usemtl Material.002
f 70/89/44 83/90/44 79/91/44 72/92/44
f 79/93/45 80/94/45 93/95/45 94/96/45
f 66/89/46 80/90/46 81/91/46 67/92/46
f 69/92/47 77/91/47 73/90/47 68/89/47
f 75/97/48 74/98/48 73/89/48 77/92/48
f 75/90/49 70/89/49 72/92/49 74/91/49
f 79/98/50 83/97/50 81/92/50 80/89/50
f 72/99/45 79/93/45 94/96/45 92/100/45
f 84/101/51 71/102/51 92/103/51 94/104/51
f 91/105/47 90/106/47 82/102/47 93/103/47
f 88/103/46 78/102/46 89/107/46 85/108/46
f 76/102/52 78/101/52 88/104/52 86/103/52
f 92/103/53 71/102/53 76/101/53 86/104/53 87/103/53
f 93/104/54 82/101/54 84/102/54 94/103/54
f 72/109/45 92/110/45 86/111/45 74/112/45
f 73/113/45 74/112/45 86/111/45 88/114/45
f 73/113/45 88/114/45 85/115/45 68/116/45
f 80/94/45 66/117/45 91/118/45 93/95/45
