# Blender v3.0.1 OBJ File: 'Poly_Stump_03_Snow.blend'
# www.blender.org
mtllib Poly_Stump_03_Snow.mtl
o Cube_Cube.001
v -0.605301 -0.047635 0.548914
v -0.293898 0.437918 0.274457
v -0.452239 -0.052913 -0.432798
v -0.293898 0.437231 -0.274457
v 0.508361 -0.047635 0.548914
v 0.255016 0.437918 0.274457
v 0.413356 -0.052913 -0.432798
v 0.255016 0.437231 -0.274457
v -0.647525 -0.052913 0.000000
v -0.417168 0.426447 0.000000
v 0.751149 -0.047635 -0.005278
v 0.368910 0.420822 0.000000
v -0.700306 -0.047635 0.316681
v 0.302518 0.437698 0.158341
v -0.341400 0.437698 0.158341
v 0.492526 -0.052913 0.253345
v -0.341400 0.437698 -0.158341
v 0.715872 -0.047635 -0.252232
v -0.531409 -0.052913 -0.253345
v 0.302518 0.437698 -0.158341
v -0.051109 -0.047635 -0.807537
v -0.019441 0.437698 -0.395851
v -0.019441 -0.052913 0.628084
v -0.019441 0.437698 0.395851
v -0.019441 0.437698 0.000000
v -0.019441 -0.052913 0.000000
v -0.019441 0.437698 0.195287
v -0.019441 -0.052913 0.311403
v -0.019441 -0.052913 -0.311403
v -0.019441 0.437698 -0.195287
v 0.138899 0.437698 -0.321959
v 0.270850 -0.047635 0.643918
v 0.175845 0.437698 0.000000
v 0.138899 0.437698 0.158341
v 0.138899 0.437698 -0.158341
v 0.270850 -0.047635 -0.659752
v 0.138899 0.437698 0.321959
v 0.291962 -0.052913 0.000000
v 0.233904 -0.052913 0.253345
v 0.233904 -0.052913 -0.253345
v -0.272786 -0.052913 -0.511968
v -0.177782 0.437698 0.321959
v -0.330844 -0.052913 0.000000
v -0.272786 -0.052913 0.253345
v -0.272786 -0.052913 -0.253345
v -0.177782 0.437698 -0.321959
v -0.272786 -0.052913 0.511968
v -0.214728 0.437698 0.000000
v -0.177782 0.437698 0.158341
v -0.177782 0.437698 -0.158341
v -0.345751 0.238831 0.301874
v -0.280303 0.238300 -0.260754
v 0.241145 0.238300 -0.260754
v 0.266639 0.238831 0.301874
v 0.402071 0.238626 -0.004321
v -0.395623 0.238669 -0.000030
v -0.398746 0.238626 0.172330
v 0.286271 0.238669 0.150388
v 0.319634 0.238626 -0.180972
v -0.325428 0.238669 -0.150447
v -0.019579 0.238669 0.376015
v -0.039556 0.238626 -0.445948
v 0.137095 0.238626 0.354869
v 0.137095 0.238626 -0.363511
v -0.169997 0.238669 -0.305879
v -0.169997 0.238669 0.305820
v -0.320012 0.149018 -0.302378
v 0.292780 0.143135 -0.322653
v 0.315724 0.125204 0.353901
v 0.464825 0.125137 -0.008609
v -0.460963 0.146268 0.006855
v -0.473818 0.125307 0.203750
v 0.372544 0.143272 0.180435
v 0.403274 0.125107 -0.203097
v -0.393856 0.149105 -0.169909
v -0.018365 0.146125 0.437857
v -0.031577 0.125280 -0.505582
v 0.169849 0.125313 0.432153
v 0.160659 0.125104 -0.445745
v -0.193451 0.146237 -0.389900
v -0.206553 0.146137 0.384254
v -0.395838 0.125358 0.347871
v -0.367345 0.437698 0.102744
v 0.678965 -0.051059 0.098783
v -0.681773 -0.049488 0.205488
v 0.328463 0.437698 0.102744
v -0.019441 -0.052913 0.202064
v -0.019441 0.437698 0.126718
v 0.151872 0.437698 0.102744
v 0.254289 -0.052913 0.164391
v -0.293172 -0.052913 0.164391
v -0.196051 0.452664 -0.000273
v 0.326931 0.238654 0.096067
v -0.397650 0.238641 0.111811
v -0.469304 0.132667 0.134616
v 0.404946 0.136905 0.114058
v -0.691040 -0.048561 0.261085
v 0.315490 0.437698 0.130542
v -0.019441 -0.052913 0.256733
v -0.019441 0.437698 0.161002
v 0.145385 0.437698 0.130542
v 0.244096 -0.052913 0.208868
v -0.282979 -0.052913 0.208868
v -0.196205 0.437698 -0.000760
v 0.306601 0.238661 0.123228
v 0.388745 0.140089 0.147247
v -0.197266 0.456555 -0.000289
v 0.537930 -0.051986 0.207941
v -0.398198 0.238634 0.142071
v -0.471561 0.128987 0.169183
v 0.109870 -0.047635 -0.733645
v 0.059729 0.437698 0.358905
v 0.136260 -0.052913 0.000000
v 0.107231 -0.052913 0.282374
v 0.107231 -0.052913 -0.282374
v 0.059729 0.437698 -0.358905
v 0.125704 -0.050274 0.636001
v 0.078202 0.437698 0.000000
v 0.059729 0.437698 0.176814
v 0.059729 0.437698 -0.176814
v 0.048770 0.238626 -0.404730
v 0.058758 0.238648 0.365442
v 0.075742 0.135719 0.435005
v 0.064541 0.125192 -0.475664
v 0.117424 -0.052913 0.183227
v 0.066215 0.437698 0.114731
v 0.112327 -0.052913 0.232801
v 0.062972 0.437698 0.145772
v 0.048132 -0.047635 -0.856847
v 0.020144 0.437698 0.377378
v 0.058409 -0.052913 0.000000
v 0.043895 -0.052913 0.296889
v 0.043895 -0.052913 -0.296889
v 0.019590 0.238658 0.370729
v 0.028689 0.140922 0.436431
v 0.048991 -0.052913 0.192645
v 0.046443 -0.052913 0.244767
v 0.021062 0.436305 -0.199596
v 0.053131 -0.051593 0.632043
v 0.029380 0.437698 0.000000
v 0.020144 0.437698 0.186050
v 0.020144 0.437698 -0.186050
v 0.004607 0.238626 -0.425339
v 0.016482 0.125236 -0.490623
v 0.023387 0.437698 0.120724
v 0.021765 0.437698 0.153387
vt 0.543314 0.340060
vt 0.543524 0.344129
vt 0.541112 0.342508
vt 0.541562 0.337726
vt 0.522991 0.338838
vt 0.524100 0.342884
vt 0.520657 0.344053
vt 0.519463 0.340822
vt 0.520773 0.340770
vt 0.520510 0.344903
vt 0.523778 0.343006
vt 0.523677 0.339481
vt 0.540222 0.339455
vt 0.542549 0.342752
vt 0.546151 0.345272
vt 0.545536 0.341835
vt 0.522968 0.340194
vt 0.517373 0.338660
vt 0.514580 0.340853
vt 0.518659 0.342533
vt 0.539485 0.356728
vt 0.546258 0.356728
vt 0.543633 0.359371
vt 0.539485 0.361043
vt 0.539485 0.348097
vt 0.546904 0.348097
vt 0.549180 0.352412
vt 0.540623 0.352412
vt 0.529562 0.335813
vt 0.516562 0.331142
vt 0.513818 0.333514
vt 0.524674 0.337835
vt 0.517304 0.341985
vt 0.518299 0.346827
vt 0.515501 0.348430
vt 0.515208 0.344613
vt 0.547191 0.347294
vt 0.546149 0.346953
vt 0.545057 0.346212
vt 0.544833 0.342190
vt 0.549064 0.350701
vt 0.549105 0.345807
vt 0.539685 0.355970
vt 0.547303 0.355970
vt 0.523240 0.339818
vt 0.516704 0.337994
vt 0.519740 0.341281
vt 0.519263 0.346865
vt 0.536336 0.331572
vt 0.528245 0.331835
vt 0.539485 0.343781
vt 0.544473 0.345196
vt 0.530211 0.342789
vt 0.532066 0.342458
vt 0.532066 0.347435
vt 0.530211 0.347600
vt 0.544089 0.337188
vt 0.547518 0.331803
vt 0.535745 0.337212
vt 0.539132 0.339382
vt 0.532517 0.342423
vt 0.527655 0.341511
vt 0.527040 0.341837
vt 0.531816 0.342621
vt 0.530162 0.356379
vt 0.532066 0.356516
vt 0.532066 0.357390
vt 0.530211 0.357224
vt 0.530881 0.339797
vt 0.536044 0.341428
vt 0.532066 0.352412
vt 0.529927 0.352412
vt 0.532066 0.362367
vt 0.530211 0.362036
vt 0.523882 0.343515
vt 0.528932 0.343897
vt 0.534576 0.338152
vt 0.535628 0.341907
vt 0.537512 0.341907
vt 0.536499 0.338152
vt 0.536140 0.336730
vt 0.536665 0.341493
vt 0.530393 0.338403
vt 0.531836 0.336381
vt 0.529975 0.341907
vt 0.529148 0.338152
vt 0.517228 0.356728
vt 0.524647 0.356728
vt 0.524647 0.361043
vt 0.519983 0.358789
vt 0.517228 0.348097
vt 0.524647 0.348097
vt 0.523509 0.352412
vt 0.514953 0.352412
vt 0.516829 0.355970
vt 0.524448 0.355970
vt 0.519660 0.345196
vt 0.524647 0.343781
vt 0.541921 0.331572
vt 0.532749 0.336534
vt 0.525548 0.340703
vt 0.525096 0.341053
vt 0.527927 0.338863
vt 0.521358 0.343041
vt 0.525977 0.337629
vt 0.527227 0.343439
vt 0.536916 0.344591
vt 0.533085 0.345223
vt 0.542972 0.340814
vt 0.540475 0.342829
vt 0.537487 0.344308
vt 0.545193 0.339078
vt 0.536160 0.335408
vt 0.540669 0.337757
vt 0.542450 0.336619
vt 0.537905 0.334714
vt 0.524611 0.335465
vt 0.518333 0.335628
vt 0.522082 0.335408
vt 0.528785 0.335408
vt 0.531471 0.331488
vt 0.534351 0.335408
vt 0.545779 0.341862
vt 0.544473 0.339086
vt 0.517058 0.339060
vt 0.513811 0.341874
vt 0.518872 0.340141
vt 0.519767 0.338378
vt 0.545024 0.338706
vt 0.548426 0.342822
vt 0.546896 0.344809
vt 0.513956 0.344480
vt 0.546483 0.338377
vt 0.549790 0.331039
vt 0.514922 0.332404
vt 0.515254 0.338557
vt 0.518232 0.338315
vt 0.515630 0.331837
vt 0.540252 0.334763
vt 0.548181 0.331623
vt 0.511488 0.339798
vt 0.512667 0.342766
vt 0.552643 0.338690
vt 0.549586 0.338338
vt 0.547607 0.338030
vt 0.516906 0.339739
vt 0.531197 0.328000
vt 0.533865 0.328598
vt 0.538009 0.332772
vt 0.531995 0.327479
vt 0.525586 0.332964
vt 0.524101 0.333832
vt 0.512714 0.341367
vt 0.516451 0.344068
vt 0.517994 0.340713
vt 0.514759 0.340350
vt 0.552618 0.340531
vt 0.547822 0.345661
vt 0.548068 0.348225
vt 0.516821 0.346113
vt 0.518597 0.343595
vt 0.539885 0.355213
vt 0.532066 0.355642
vt 0.533234 0.342221
vt 0.538080 0.344015
vt 0.523522 0.339427
vt 0.526018 0.340340
vt 0.524248 0.355213
vt 0.516429 0.355213
vt 0.530112 0.355535
vt 0.528293 0.341172
vt 0.516696 0.349254
vt 0.517784 0.348152
vt 0.514996 0.335259
vt 0.547315 0.355213
vt 0.535298 0.348215
vt 0.534243 0.352150
vt 0.535549 0.352329
vt 0.535719 0.348098
vt 0.534886 0.348330
vt 0.534307 0.352416
vt 0.548999 0.348700
vt 0.549049 0.350248
vt 0.548979 0.346025
vt 0.528157 0.355427
vt 0.528257 0.356243
vt 0.527181 0.340765
vt 0.526625 0.341116
vt 0.527788 0.352412
vt 0.529438 0.339341
vt 0.528588 0.330129
vt 0.529513 0.331839
vt 0.532518 0.335408
vt 0.529074 0.332964
vt 0.532079 0.338152
vt 0.529142 0.336266
vt 0.529685 0.346034
vt 0.526089 0.341454
vt 0.522641 0.343282
vt 0.534270 0.336879
vt 0.547029 0.329803
vt 0.533744 0.341907
vt 0.528357 0.357059
vt 0.528357 0.361705
vt 0.528357 0.347766
vt 0.528357 0.343119
vn -0.9220 -0.0890 -0.3769
vn 0.5634 0.0356 -0.8254
vn 0.9699 0.0006 0.2433
vn -0.1733 0.0471 0.9837
vn 0.0029 -0.9999 0.0152
vn 0.0009 1.0000 -0.0009
vn -0.0307 0.9992 0.0246
vn 0.0112 -0.9999 -0.0021
vn 0.9066 0.1475 -0.3954
vn -0.9760 0.0271 0.2160
vn -0.8883 0.2814 0.3629
vn 0.1134 0.9881 0.1035
vn 0.0017 -1.0000 -0.0093
vn 0.8529 -0.0737 0.5168
vn 0.8409 0.0190 -0.5409
vn 0.0000 -1.0000 0.0000
vn -0.0020 1.0000 -0.0020
vn -0.8986 -0.0959 -0.4283
vn 0.0337 0.9994 -0.0064
vn 0.0057 -1.0000 -0.0072
vn 0.0000 1.0000 0.0000
vn 0.2882 -0.0641 0.9554
vn -0.5931 0.0868 -0.8005
vn 0.3742 0.1479 0.9155
vn -0.0009 1.0000 -0.0009
vn 0.0472 0.9982 0.0378
vn 0.0020 1.0000 -0.0020
vn 0.0043 -0.9999 -0.0121
vn 0.0105 -0.9999 0.0099
vn 0.4158 0.1822 -0.8910
vn -0.3768 -0.0892 -0.9220
vn -0.0135 -0.9999 0.0026
vn -0.0102 -0.9999 0.0094
vn -0.4212 -0.0897 0.9025
vn -0.2711 0.6138 0.7415
vn -0.3818 0.6118 -0.6928
vn 0.2961 0.5690 -0.7671
vn 0.3573 0.5563 0.7502
vn -0.5469 0.5065 -0.6666
vn 0.0979 0.5578 0.8242
vn -0.7551 0.5767 -0.3119
vn 0.6055 0.6021 -0.5205
vn 0.6526 0.6669 0.3598
vn -0.7582 0.5421 0.3624
vn -0.8231 0.5679 -0.0033
vn 0.7841 0.5410 -0.3042
vn -0.1223 0.5503 0.8259
vn 0.7788 0.5890 0.2157
vn 0.5271 0.6033 -0.5985
vn -0.7375 0.5698 -0.3625
vn -0.6898 0.6399 -0.3386
vn 0.5313 0.7220 -0.4432
vn 0.7302 0.6783 0.0823
vn -0.0191 0.6700 0.7422
vn 0.4906 0.8647 -0.1077
vn -0.6949 0.7159 -0.0669
vn -0.4985 0.8361 0.2290
vn 0.6348 0.6053 0.4802
vn 0.4184 0.7267 -0.5448
vn -0.7087 0.6396 -0.2977
vn 0.0077 0.7021 0.7120
vn -0.5063 0.7033 -0.4990
vn 0.2371 0.8180 0.5242
vn 0.2143 0.8204 -0.5301
vn -0.3684 0.6266 -0.6867
vn -0.2793 0.6276 0.7267
vn 0.5245 0.8055 0.2758
vn -0.6521 0.7558 -0.0603
vn -0.8302 0.5574 -0.0042
vn 0.7454 0.5145 0.4240
vn 0.0839 0.9880 -0.1293
vn -0.0043 -0.9999 0.0093
vn 0.0455 0.9967 -0.0676
vn 0.8697 0.0580 0.4901
vn 0.0073 -0.9999 -0.0098
vn -0.1162 0.9781 -0.1726
vn 0.3800 0.1222 0.9169
vn -0.7775 0.2683 -0.5687
vn -0.8330 0.5533 -0.0046
vn -0.6330 0.7720 -0.0573
vn 0.5183 0.6444 0.5623
vn 0.6820 0.6250 0.3798
vn -0.2796 0.8784 0.3877
vn -0.0087 -0.9999 0.0093
vn 0.8545 -0.0406 0.5178
vn 0.0036 -1.0000 -0.0024
vn -0.5106 -0.1630 -0.8442
vn 0.4781 0.7920 -0.3797
vn 0.0107 0.7565 0.6539
vn 0.0980 0.5744 0.8127
vn 0.3082 0.5171 -0.7985
vn -0.7965 0.3780 -0.4719
vn 0.0101 -0.9999 0.0053
vn 0.0114 -0.9999 -0.0104
vn 0.2876 0.0924 0.9533
vn -0.0021 -0.9999 -0.0099
vn 0.0099 -0.9999 0.0019
vn 0.9193 0.1641 -0.3578
vn 0.3161 0.4789 -0.8190
vn -0.1067 0.8823 -0.4585
vn 0.0089 0.7242 0.6895
vn 0.0979 0.5650 0.8193
vn 0.2888 -0.0014 0.9574
vn -0.0317 0.9995 -0.0073
usemtl Material
s off
f 60/1/1 17/2/1 4/3/1 52/4/1
f 64/5/2 31/6/2 8/7/2 53/8/2
f 58/9/3 14/10/3 6/11/3 54/12/3
f 66/13/4 42/14/4 2/15/4 51/16/4
f 39/17/5 16/18/5 5/19/5 32/20/5
f 49/21/6 15/22/6 2/23/6 42/24/6
f 50/25/7 17/26/7 10/27/7 48/28/7
f 40/29/8 18/30/8 11/31/8 38/32/8
f 59/33/9 20/34/9 12/35/9 55/36/9
f 94/37/10 83/38/10 10/39/10 56/40/10
f 51/16/11 2/15/11 15/41/11 57/42/11
f 104/43/12 107/44/12 15/22/12 49/21/12
f 102/45/13 108/46/13 16/18/13 39/17/13
f 105/47/14 98/48/14 14/10/14 58/9/14
f 53/8/15 8/7/15 20/34/15 59/33/15
f 36/49/16 7/50/16 18/30/16 40/29/16
f 46/51/17 4/52/17 17/26/17 50/25/17
f 56/40/18 10/39/18 17/2/18 60/1/18
f 138/53/19 22/54/19 30/55/19 142/56/19
f 41/57/20 21/58/20 29/59/20 45/60/20
f 103/61/16 99/62/16 28/63/16 44/64/16
f 146/65/21 100/66/21 27/67/21 141/68/21
f 45/60/16 29/59/16 26/69/16 43/70/16
f 142/56/21 30/55/21 25/71/21 140/72/21
f 141/68/21 27/67/21 24/73/21 130/74/21
f 44/64/16 28/63/16 23/75/16 47/76/16
f 134/77/22 130/78/22 24/79/22 61/80/22
f 65/81/23 46/82/23 22/83/23 62/84/23
f 54/12/24 6/11/24 37/85/24 63/86/24
f 14/87/25 34/88/25 37/89/25 6/90/25
f 20/91/26 35/92/26 33/93/26 12/94/26
f 98/95/21 101/96/21 34/88/21 14/87/21
f 8/97/27 31/98/27 35/92/27 20/91/27
f 111/99/28 36/49/28 40/29/28 115/100/28
f 127/101/16 102/45/16 39/17/16 114/102/16
f 115/100/16 40/29/16 38/32/16 113/103/16
f 114/102/29 39/17/29 32/20/29 117/104/29
f 121/105/30 116/106/30 31/6/30 64/5/30
f 52/4/31 4/3/31 46/82/31 65/81/31
f 13/107/32 44/64/32 47/76/32 1/108/32
f 19/109/16 45/60/16 43/70/16 9/110/16
f 97/111/33 103/61/33 44/64/33 13/107/33
f 3/112/16 41/57/16 45/60/16 19/109/16
f 22/54/21 46/51/21 50/25/21 30/55/21
f 100/66/21 104/43/21 49/21/21 27/67/21
f 30/55/21 50/25/21 48/28/21 25/71/21
f 27/67/21 49/21/21 42/24/21 24/73/21
f 61/80/34 24/79/34 42/14/34 66/13/34
f 76/113/35 61/80/35 66/13/35 81/114/35
f 67/115/36 52/4/36 65/81/36 80/116/36
f 124/117/37 121/105/37 64/5/37 79/118/37
f 69/119/38 54/12/38 63/86/38 78/120/38
f 80/116/39 65/81/39 62/84/39 77/121/39
f 135/122/40 134/77/40 61/80/40 76/113/40
f 71/123/41 56/40/41 60/1/41 75/124/41
f 68/125/42 53/8/42 59/33/42 74/126/42
f 106/127/43 105/47/43 58/9/43 73/128/43
f 82/129/44 51/16/44 57/42/44 72/130/44
f 95/131/45 94/37/45 56/40/45 71/123/45
f 74/126/46 59/33/46 55/36/46 70/132/46
f 81/114/47 66/13/47 51/16/47 82/129/47
f 73/128/48 58/9/48 54/12/48 69/119/48
f 79/118/49 64/5/49 53/8/49 68/125/49
f 75/124/50 60/1/50 52/4/50 67/115/50
f 19/133/51 75/124/51 67/115/51 3/134/51
f 36/135/52 79/118/52 68/125/52 7/136/52
f 16/137/53 73/128/53 69/119/53 5/138/53
f 47/139/54 81/114/54 82/129/54 1/140/54
f 18/141/55 74/126/55 70/132/55 11/142/55
f 85/143/56 95/131/56 71/123/56 9/144/56
f 1/140/57 82/129/57 72/130/57 13/145/57
f 108/146/58 106/127/58 73/128/58 16/137/58
f 7/136/59 68/125/59 74/126/59 18/141/59
f 9/144/60 71/123/60 75/124/60 19/133/60
f 139/147/61 135/122/61 76/113/61 23/148/61
f 41/149/62 80/116/62 77/121/62 21/150/62
f 5/138/63 69/119/63 78/120/63 32/151/63
f 111/152/64 124/117/64 79/118/64 36/135/64
f 3/134/65 67/115/65 80/116/65 41/149/65
f 23/148/66 76/113/66 81/114/66 47/139/66
f 11/153/67 70/154/67 96/155/67 84/156/67
f 97/157/68 110/158/68 95/131/68 85/143/68
f 110/158/69 109/159/69 94/37/69 95/131/69
f 70/154/70 55/160/70 93/161/70 96/155/70
f 25/71/71 48/28/71 92/162/71 88/163/71
f 9/110/72 43/70/72 91/164/72 85/165/72
f 113/103/16 38/32/16 90/166/16 125/167/16
f 12/94/73 33/93/73 89/168/73 86/169/73
f 140/72/21 25/71/21 88/163/21 145/170/21
f 43/70/16 26/69/16 87/171/16 91/164/16
f 55/160/74 12/172/74 86/173/74 93/161/74
f 38/32/75 11/31/75 84/174/75 90/166/75
f 48/28/76 10/27/76 83/175/76 92/162/76
f 109/176/77 107/177/77 83/178/77 94/179/77
f 57/180/78 15/181/78 107/177/78 109/176/78
f 72/182/79 57/183/79 109/159/79 110/158/79
f 13/184/80 72/182/80 110/158/80 97/157/80
f 84/156/81 96/155/81 106/127/81 108/146/81
f 96/155/82 93/161/82 105/47/82 106/127/82
f 88/163/83 92/162/83 104/43/83 100/66/83
f 85/165/84 91/164/84 103/61/84 97/111/84
f 125/167/16 90/166/16 102/45/16 127/101/16
f 86/169/21 89/168/21 101/96/21 98/95/21
f 145/170/21 88/163/21 100/66/21 146/65/21
f 91/164/16 87/171/16 99/62/16 103/61/16
f 93/161/85 86/173/85 98/48/85 105/47/85
f 90/166/86 84/174/86 108/46/86 102/45/86
f 92/162/87 83/175/87 107/44/87 104/43/87
f 89/168/21 126/185/21 128/186/21 101/96/21
f 136/187/16 125/167/16 127/101/16 137/188/16
f 33/93/21 118/189/21 126/185/21 89/168/21
f 131/190/16 113/103/16 125/167/16 136/187/16
f 129/191/88 144/192/88 124/117/88 111/152/88
f 32/151/89 78/120/89 123/193/89 117/194/89
f 78/120/90 63/86/90 122/195/90 123/193/90
f 144/192/91 143/196/91 121/105/91 124/117/91
f 143/196/92 138/197/92 116/106/92 121/105/92
f 132/198/93 114/102/93 117/104/93 139/199/93
f 133/200/16 115/100/16 113/103/16 131/190/16
f 137/188/16 127/101/16 114/102/16 132/198/16
f 129/201/94 111/99/94 115/100/94 133/200/94
f 63/86/95 37/85/95 112/202/95 122/195/95
f 34/88/21 119/203/21 112/204/21 37/89/21
f 35/92/21 120/205/21 118/189/21 33/93/21
f 101/96/21 128/186/21 119/203/21 34/88/21
f 31/98/21 116/206/21 120/205/21 35/92/21
f 21/58/96 129/201/96 133/200/96 29/59/96
f 99/62/16 137/188/16 132/198/16 28/63/16
f 29/59/16 133/200/16 131/190/16 26/69/16
f 28/63/97 132/198/97 139/199/97 23/75/97
f 62/84/98 22/83/98 138/197/98 143/196/98
f 77/121/99 62/84/99 143/196/99 144/192/99
f 21/150/100 77/121/100 144/192/100 129/191/100
f 26/69/16 131/190/16 136/187/16 87/171/16
f 87/171/16 136/187/16 137/188/16 99/62/16
f 126/185/21 145/170/21 146/65/21 128/186/21
f 118/189/21 140/72/21 145/170/21 126/185/21
f 117/194/101 123/193/101 135/122/101 139/147/101
f 123/193/102 122/195/102 134/77/102 135/122/102
f 122/195/103 112/202/103 130/78/103 134/77/103
f 119/203/21 141/68/21 130/74/21 112/204/21
f 120/205/21 142/56/21 140/72/21 118/189/21
f 128/186/21 146/65/21 141/68/21 119/203/21
f 116/206/104 138/53/104 142/56/104 120/205/104
