# Blender 3.6.5
# www.blender.org
mtllib Poly_Window_13_Light_A.mtl
o Cube.002
v -0.300000 0.150000 -0.487000
v -0.300000 0.700000 -0.487000
v 0.300000 0.700000 -0.487000
v 0.300000 0.150000 -0.487000
v 0.250000 0.850000 -0.487000
v -0.250000 0.850000 -0.487000
v -0.250000 0.800000 -0.487000
v 0.250000 0.800000 -0.487000
v 0.300000 -0.500000 0.500000
v 0.300000 -0.500000 0.150000
v 0.250000 -0.500000 0.700000
v -0.250000 -0.500000 0.700000
v -0.300000 -0.500000 0.500000
v -0.300000 -0.500000 0.150000
v -0.250000 -0.500000 0.650000
v 0.250000 -0.500000 0.650000
v -0.250000 0.850000 -0.400000
v 0.250000 0.850000 -0.400000
v 0.250000 0.800000 -0.400000
v -0.250000 0.800000 -0.400000
v 0.300000 0.150000 -0.300000
v -0.300000 0.150000 -0.300000
v 0.300000 0.700000 -0.400000
v -0.300000 0.700000 -0.400000
vn -0.0000 -1.0000 -0.0000
vn -0.0000 0.6000 0.8000
vn -0.0000 0.6317 0.7752
vn -0.0000 -0.5692 -0.8222
vn 1.0000 -0.0000 -0.0000
vn -0.0000 -0.6283 -0.7779
vn -1.0000 -0.0000 -0.0000
vn -0.0000 1.0000 -0.0000
vt 0.156803 0.202590
vt 0.156803 0.202590
vt 0.156803 0.202590
vt 0.156803 0.202590
vt 0.156803 0.202590
s 0
usemtl shadow
f 9/1/1 13/1/1 14/1/1 10/1/1
f 23/1/2 24/2/2 13/1/2 9/1/2
f 18/3/3 17/4/3 12/1/3 11/1/3
f 22/1/4 21/1/4 10/1/4 14/1/4
f 11/1/1 12/1/1 15/1/1 16/1/1
f 19/3/5 18/3/5 11/1/5 16/1/5
f 20/5/6 19/3/6 16/1/6 15/1/6
f 21/1/5 23/1/5 9/1/5 10/1/5
f 17/4/7 20/5/7 15/1/7 12/1/7
f 24/2/7 22/1/7 14/1/7 13/1/7
f 6/1/7 7/1/7 20/5/7 17/4/7
f 7/1/1 8/1/1 19/3/1 20/5/1
f 8/1/5 5/1/5 18/3/5 19/3/5
f 5/1/8 6/1/8 17/4/8 18/3/8
f 2/1/7 1/1/7 22/1/7 24/2/7
f 4/1/5 3/1/5 23/1/5 21/1/5
f 1/1/1 4/1/1 21/1/1 22/1/1
f 3/1/8 2/1/8 24/2/8 23/1/8
o Cube.003
v -0.300000 0.150000 -0.487000
v -0.300000 0.700000 -0.487000
v 0.300000 0.700000 -0.487000
v 0.300000 0.150000 -0.487000
v 0.250000 0.850000 -0.487000
v -0.250000 0.850000 -0.487000
v -0.250000 0.800000 -0.487000
v 0.250000 0.800000 -0.487000
vn -0.0000 -0.0000 1.0000
vt 0.156803 0.202590
s 0
usemtl Material
f 29/6/9 30/6/9 31/6/9 32/6/9
f 28/6/9 27/6/9 26/6/9 25/6/9
