# Blender 3.6.5
# www.blender.org
mtllib Poly_Hole_02_Down.mtl
o Circle
v 0.000000 -0.041381 -0.376762
v -0.326285 -0.041381 -0.188381
v -0.326285 -0.041381 0.188381
v 0.000000 -0.041381 0.376762
v 0.326285 -0.041381 0.188381
v 0.326285 -0.041381 -0.188381
v 0.000000 -0.091418 -0.801193
v -0.693853 -0.091418 -0.400596
v -0.693853 -0.091418 0.400596
v 0.000000 -0.091418 0.801193
v 0.693853 -0.091418 0.400596
v 0.693853 -0.091418 -0.400596
v 0.000000 -1.015000 -0.297219
v -0.257399 -1.015000 -0.148610
v -0.257399 -1.015000 0.148610
v 0.000000 -1.015000 0.297219
v 0.257399 -1.015000 0.148610
v 0.257399 -1.015000 -0.148610
v 0.465723 -0.015431 0.268886
v 0.465723 -0.015431 -0.268886
v -0.465723 -0.015431 0.268886
v 0.000000 -0.015431 0.537771
v 0.000000 -0.015431 -0.537771
v -0.465723 -0.015431 -0.268886
v 0.378567 0.043310 -0.215636
v 0.005074 0.043310 0.431272
v -0.368419 0.043310 -0.215636
v 0.378567 0.043310 0.215636
v -0.368419 0.043310 0.215636
v 0.005074 0.043310 -0.431272
v 0.425987 0.027254 0.243014
v -0.446283 0.026673 0.257662
v 0.005074 0.027254 -0.486028
v 0.425987 0.027254 -0.243014
v 0.005074 0.027254 0.486028
v -0.446283 0.026673 -0.257662
vn 0.3160 0.9488 -0.0000
vn -0.1580 0.9488 0.2737
vn -0.1580 0.9488 -0.2737
vn 0.1580 0.9488 -0.2737
vn 0.1580 0.9488 0.2737
vn -0.3160 0.9488 -0.0000
vn -0.9975 0.0706 -0.0000
vn 0.4988 0.0706 -0.8639
vn 0.4988 0.0706 0.8639
vn -0.4988 0.0706 0.8639
vn -0.4988 0.0706 -0.8639
vn 0.9975 0.0706 -0.0000
vn -0.9079 0.4192 -0.0000
vn 0.3553 0.7037 0.6153
vn 0.3553 0.7037 -0.6153
vn -0.3742 0.6202 -0.6894
vn -0.3742 0.6202 0.6894
vn 0.7319 0.6814 -0.0000
vn -0.8509 0.5253 -0.0000
vn 0.4423 0.4665 -0.7660
vn 0.4423 0.4665 0.7660
vn -0.4311 0.5065 0.7467
vn -0.4311 0.5065 -0.7467
vn 0.8953 0.4454 -0.0000
vn 0.3207 0.9472 -0.0000
vn -0.1230 0.9660 0.2273
vn -0.1230 0.9660 -0.2273
vn 0.1604 0.9472 -0.2777
vn 0.1604 0.9472 0.2777
vn -0.2090 0.9779 -0.0000
vt 0.717228 0.844817
vt 0.727672 0.838053
vt 0.735357 0.843875
vt 0.719395 0.854026
vt 0.717228 0.844816
vt 0.727672 0.838053
vt 0.717228 0.844817
vt 0.727672 0.838053
vt 0.575719 0.647778
vt 0.575719 0.662634
vt 0.611805 0.662634
vt 0.611805 0.647778
vt 0.611805 0.662634
vt 0.611805 0.647778
vt 0.578627 0.668178
vt 0.608979 0.668178
vt 0.610459 0.671446
vt 0.577147 0.671446
vt 0.582097 0.660516
vt 0.605509 0.660516
vt 0.607850 0.664639
vt 0.579756 0.664639
vt 0.607850 0.664639
vt 0.579756 0.664639
s 0
usemtl Material.001
f 20/1/1 19/2/1 11/3/1 12/4/1
f 22/5/2 21/6/2 9/3/2 10/4/2
f 24/7/3 23/8/3 7/3/3 8/4/3
f 23/5/4 20/6/4 12/3/4 7/4/4
f 19/7/5 22/8/5 10/3/5 11/4/5
f 21/1/6 24/2/6 8/3/6 9/4/6
f 5/9/7 6/10/7 18/11/7 17/12/7
f 3/9/8 4/10/8 16/13/8 15/14/8
f 1/9/9 2/10/9 14/11/9 13/12/9
f 6/10/10 1/9/10 13/12/10 18/11/10
f 4/10/11 5/9/11 17/12/11 16/13/11
f 2/10/12 3/9/12 15/14/12 14/11/12
f 32/15/13 36/16/13 24/17/13 21/18/13
f 31/15/14 35/16/14 22/17/14 19/18/14
f 33/15/15 34/16/15 20/17/15 23/18/15
f 36/15/16 33/16/16 23/17/16 24/18/16
f 35/15/17 32/16/17 21/17/17 22/18/17
f 34/15/18 31/16/18 19/17/18 20/18/18
f 6/19/19 5/20/19 28/21/19 25/22/19
f 4/19/20 3/20/20 29/23/20 26/22/20
f 2/19/21 1/20/21 30/21/21 27/24/21
f 1/19/22 6/20/22 25/23/22 30/22/22
f 5/19/23 4/20/23 26/21/23 28/24/23
f 3/19/24 2/20/24 27/21/24 29/22/24
f 25/22/25 28/21/25 31/16/25 34/15/25
f 26/22/26 29/23/26 32/16/26 35/15/26
f 27/24/27 30/21/27 33/16/27 36/15/27
f 30/22/28 25/23/28 34/16/28 33/15/28
f 28/24/29 26/21/29 35/16/29 31/15/29
f 29/22/30 27/21/30 36/16/30 32/15/30
o Circle.001
v 0.000000 -1.015000 -0.297219
v -0.257399 -1.015000 -0.148610
v -0.257399 -1.015000 0.148610
v 0.000000 -1.015000 0.297219
v 0.257399 -1.015000 0.148610
v 0.257399 -1.015000 -0.148610
v -0.257399 -1.015000 0.000000
v 0.257399 -1.015000 0.000000
vn -0.0000 1.0000 -0.0000
vt 0.581356 0.651669
vt 0.581356 0.643407
vt 0.605288 0.643407
vt 0.605288 0.651669
vt 0.593322 0.654966
vt 0.593322 0.654845
vt 0.605288 0.651548
vt 0.581356 0.651548
s 0
usemtl Material.001
f 38/25/31 43/26/31 44/27/31 42/28/31 37/29/31
f 40/30/31 41/31/31 44/27/31 43/26/31 39/32/31
