# Blender 3.6.5
# www.blender.org
mtllib Poly_SF_Outside_B_Board_Sign_05.mtl
o Cube
v 0.290000 0.400000 -0.030000
v 0.290000 0.000000 -0.030000
v 0.290000 0.400000 0.030000
v 0.290000 0.000000 0.030000
v -0.290000 0.400000 -0.030000
v -0.290000 0.000000 -0.030000
v -0.290000 0.400000 0.030000
v -0.290000 0.000000 0.030000
v 0.260000 0.370000 0.050000
v 0.260000 0.030000 0.050000
v -0.260000 0.370000 0.050000
v -0.260000 0.030000 0.050000
v 0.260000 0.370000 -0.050000
v 0.260000 0.030000 -0.050000
v -0.260000 0.370000 -0.050000
v -0.260000 0.030000 -0.050000
vn -0.0000 1.0000 -0.0000
vn -0.5547 -0.0000 0.8321
vn -1.0000 -0.0000 -0.0000
vn -0.0000 -1.0000 -0.0000
vn 1.0000 -0.0000 -0.0000
vn -0.5547 -0.0000 -0.8321
vn -0.0000 -0.0000 1.0000
vn -0.0000 -0.5547 0.8321
vn -0.0000 0.5547 0.8321
vn 0.5547 -0.0000 0.8321
vn -0.0000 -0.0000 -1.0000
vn -0.0000 -0.5547 -0.8321
vn -0.0000 0.5547 -0.8321
vn 0.5547 -0.0000 -0.8321
vt 0.045389 0.312310
vt 0.008074 0.312310
vt 0.008074 0.304626
vt 0.045389 0.304626
vt 0.051151 0.878962
vt 0.008425 0.878962
vt 0.011212 0.881477
vt 0.048365 0.881477
vt 0.008074 0.304626
vt 0.045389 0.304626
vt 0.299451 0.881709
vt 0.299451 0.910054
vt 0.260533 0.910054
vt 0.260533 0.881709
vt 0.008383 0.878962
vt 0.051194 0.878962
vt 0.049248 0.881477
vt 0.010329 0.881477
vt 0.008425 0.878962
vt 0.051151 0.878962
vt 0.048365 0.881477
s 0
usemtl Material
f 1/1/1 5/2/1 7/3/1 3/4/1
f 7/5/2 8/6/2 12/7/2 11/8/2
f 8/9/3 7/10/3 5/1/3 6/2/3
f 6/1/4 2/2/4 4/3/4 8/4/4
f 2/2/5 1/1/5 3/4/5 4/3/5
f 6/6/6 5/5/6 15/8/6 16/7/6
f 10/11/7 9/12/7 11/13/7 12/14/7
f 8/15/8 4/16/8 10/17/8 12/18/8
f 3/16/9 7/15/9 11/18/9 9/17/9
f 4/19/10 3/20/10 9/21/10 10/7/10
f 16/14/11 15/13/11 13/12/11 14/11/11
f 2/16/12 6/15/12 16/18/12 14/17/12
f 5/15/13 1/16/13 13/17/13 15/18/13
f 1/20/14 2/19/14 14/7/14 13/21/14
o Cube.001
v -0.500000 0.460000 0.050000
v -0.500000 0.500000 0.050000
v -0.500000 0.460000 -0.050000
v -0.500000 0.500000 -0.050000
v 0.359479 0.491862 0.050000
v 0.359479 0.481862 0.050000
v 0.359479 0.491862 -0.050000
v 0.359479 0.481862 -0.050000
v 0.200000 0.500000 -0.050000
v 0.200000 0.460000 0.050000
v 0.200000 0.460000 -0.050000
v 0.200000 0.500000 0.050000
v 0.359479 0.441862 -0.050000
v 0.359479 0.401862 0.050000
v 0.359479 0.401862 -0.050000
v 0.359479 0.441862 0.050000
v 0.379479 0.471862 -0.050000
v 0.429479 0.471862 0.050000
v 0.429479 0.471862 -0.050000
v 0.379479 0.471862 0.050000
v 0.289479 0.431862 -0.050000
v 0.289479 0.471862 0.050000
v 0.289479 0.471862 -0.050000
v 0.289479 0.431862 0.050000
v 0.419479 0.431862 -0.050000
v 0.379479 0.451862 0.050000
v 0.379479 0.451862 -0.050000
v 0.419479 0.431862 0.050000
v 0.369479 0.481862 -0.050000
v 0.389479 0.501862 0.050000
v 0.389479 0.501862 -0.050000
v 0.369479 0.481862 0.050000
v 0.250000 0.450000 -0.050000
v 0.250000 0.490000 0.050000
v 0.250000 0.490000 -0.050000
v 0.250000 0.450000 0.050000
v 0.200000 0.430000 0.050000
v 0.200000 0.430000 -0.050000
v 0.250000 0.410000 -0.050000
v 0.250000 0.410000 0.050000
v 0.170000 0.430000 0.050000
v 0.170000 0.430000 -0.050000
v 0.170000 0.400000 -0.050000
v 0.170000 0.400000 0.050000
v 0.130000 0.450000 0.050000
v 0.130000 0.450000 -0.050000
v 0.130000 0.420000 -0.050000
v 0.130000 0.420000 0.050000
v -0.140000 0.450000 0.050000
v -0.140000 0.450000 -0.050000
v -0.140000 0.420000 -0.050000
v -0.140000 0.420000 0.050000
v -0.170000 0.430000 0.050000
v -0.170000 0.430000 -0.050000
v -0.170000 0.400000 -0.050000
v -0.170000 0.400000 0.050000
v -0.220000 0.430000 0.050000
v -0.220000 0.430000 -0.050000
v -0.220000 0.400000 -0.050000
v -0.220000 0.400000 0.050000
v -0.270000 0.460000 0.050000
v -0.270000 0.460000 -0.050000
v -0.270000 0.420000 -0.050000
v -0.270000 0.420000 0.050000
v -0.330000 0.460000 0.050000
v -0.330000 0.460000 -0.050000
v -0.330000 0.420000 -0.050000
v -0.330000 0.420000 0.050000
v -0.410000 0.370000 0.050000
v -0.410000 0.370000 -0.050000
v -0.390000 0.350000 -0.050000
v -0.390000 0.350000 0.050000
v -0.500000 0.320000 0.050000
v -0.500000 0.320000 -0.050000
v -0.500000 0.290000 -0.050000
v -0.500000 0.290000 0.050000
v -0.430000 0.290000 -0.050000
v -0.450000 0.320000 -0.050000
v -0.430000 0.290000 0.050000
v -0.450000 0.320000 0.050000
vn -1.0000 -0.0000 -0.0000
vn -0.0000 -0.0000 -1.0000
vn -0.3162 0.9487 -0.0000
vn -0.0000 -1.0000 -0.0000
vn -0.0000 -0.0000 1.0000
vn 0.1961 0.9806 -0.0000
vn -0.4472 0.8944 -0.0000
vn -0.3939 -0.9191 -0.0000
vn -0.7071 -0.7071 -0.0000
vn 0.9701 -0.2425 -0.0000
vn -0.4175 -0.9087 -0.0000
vn 0.3939 0.9191 -0.0000
vn 0.4472 -0.8944 -0.0000
vn 0.6000 0.8000 -0.0000
vn 0.4175 0.9087 -0.0000
vn 0.1240 -0.9923 -0.0000
vn 1.0000 -0.0000 -0.0000
vn -0.0000 1.0000 -0.0000
vn -0.4472 -0.8944 -0.0000
vn 0.4472 0.8944 -0.0000
vn 0.5547 -0.8321 -0.0000
vn -0.5547 0.8321 -0.0000
vn -0.3714 -0.9285 -0.0000
vn 0.5145 0.8575 -0.0000
vn 0.7593 -0.6508 -0.0000
vn -0.7474 0.6644 -0.0000
vn -0.7809 0.6247 -0.0000
vn 0.8321 -0.5547 -0.0000
vt 0.000618 0.919384
vt 0.000618 0.923150
vt 0.034431 0.919384
vt 0.034431 0.923150
vt 0.040245 0.923150
vt 0.040245 0.919384
vt 0.039566 0.923150
vt 0.039566 0.919384
vt 0.000865 0.923150
vt 0.043416 0.923150
vt 0.043416 0.919384
vt 0.000865 0.919384
vt 0.040926 0.923150
vt 0.040926 0.919384
vt 0.043578 0.923150
vt 0.043578 0.919384
vt 0.034605 0.923150
vt 0.032339 0.923150
vt 0.032339 0.919384
vt 0.034605 0.919384
vt 0.040472 0.923150
vt 0.040472 0.919384
vt 0.036394 0.923150
vt 0.036394 0.919384
vt 0.040019 0.923150
vt 0.040019 0.919384
vt 0.042285 0.923150
vt 0.042738 0.923150
vt 0.042738 0.919384
vt 0.042285 0.919384
vt 0.030980 0.919384
vt 0.030980 0.923150
vt 0.031453 0.923150
vt 0.031453 0.919384
vt 0.023076 0.919384
vt 0.023076 0.923150
vt 0.029167 0.919384
vt 0.029167 0.923150
vt 0.016932 0.923150
vt 0.016932 0.919384
vt 0.015572 0.919384
vt 0.015572 0.923150
vt 0.013307 0.919384
vt 0.013307 0.923150
vt 0.011041 0.923150
vt 0.011041 0.919384
vt 0.008322 0.919384
vt 0.008322 0.923150
vt 0.005603 0.919384
vt 0.005603 0.923150
vt 0.004697 0.923150
vt 0.004697 0.919384
vt 0.003790 0.923150
vt 0.003790 0.919384
vt 0.002884 0.919384
vt 0.002884 0.923150
s 0
usemtl Material
f 17/22/15 18/22/15 20/23/15 19/23/15
f 47/24/16 45/25/16 24/26/16 23/27/16
f 23/28/15 24/28/15 22/29/15 21/29/15
f 20/30/16 25/31/16 27/32/16 19/33/16
f 47/34/17 23/28/17 21/29/17 46/35/17
f 19/23/18 27/36/18 26/37/18 17/22/18
f 26/32/19 28/31/19 18/30/19 17/33/19
f 52/27/19 50/26/19 28/25/19 26/24/19
f 51/38/20 25/39/20 28/40/20 50/41/20
f 43/42/21 29/28/21 32/29/21 42/43/21
f 44/24/19 42/25/19 32/26/19 30/27/19
f 37/44/22 31/28/22 30/29/22 40/45/22
f 37/24/16 39/25/16 29/26/16 31/27/16
f 46/24/19 48/25/19 36/26/19 34/27/19
f 45/46/23 33/42/23 36/43/23 48/47/23
f 41/48/24 35/49/24 34/50/24 44/51/24
f 41/24/16 43/25/16 33/26/16 35/27/16
f 49/27/16 51/26/16 39/25/16 37/24/16
f 49/38/25 37/44/25 40/45/25 52/41/25
f 29/28/26 39/44/26 38/45/26 32/29/26
f 30/27/19 32/26/19 38/25/19 40/24/19
f 31/27/16 29/26/16 43/25/16 41/24/16
f 31/28/27 41/48/27 44/51/27 30/29/27
f 34/27/19 36/26/19 42/25/19 44/24/19
f 33/42/15 43/42/15 42/43/15 36/43/15
f 24/28/18 45/46/18 48/47/18 22/29/18
f 21/27/19 22/26/19 48/25/19 46/24/19
f 35/49/28 47/34/28 46/35/28 34/50/28
f 35/27/16 33/26/16 45/25/16 47/24/16
f 26/40/15 27/39/15 54/39/15 53/40/15
f 27/24/16 25/25/16 51/26/16 49/27/16
f 39/44/29 51/38/29 50/41/29 38/45/29
f 40/24/19 38/25/19 50/26/19 52/27/19
f 55/38/30 56/41/30 60/52/30 59/53/30
f 27/54/16 49/55/16 55/56/16 54/57/16
f 52/55/19 26/54/19 53/57/19 56/56/19
f 49/38/31 52/41/31 56/41/31 55/38/31
f 60/55/19 57/54/19 61/57/19 64/56/19
f 53/40/32 54/39/32 58/53/32 57/52/32
f 56/56/19 53/57/19 57/54/19 60/55/19
f 54/57/16 55/56/16 59/55/16 58/54/16
f 64/56/19 61/57/19 65/54/19 68/55/19
f 58/54/16 59/55/16 63/56/16 62/57/16
f 59/53/33 60/52/33 64/58/33 63/59/33
f 57/52/34 58/53/34 62/59/34 61/58/34
f 67/60/35 68/61/35 72/62/35 71/63/35
f 62/57/16 63/56/16 67/55/16 66/54/16
f 63/59/18 64/58/18 68/61/18 67/60/18
f 61/58/32 62/59/32 66/60/32 65/61/32
f 72/56/19 69/57/19 73/54/19 76/55/19
f 65/61/36 66/60/36 70/63/36 69/62/36
f 68/55/19 65/54/19 69/57/19 72/56/19
f 66/54/16 67/55/16 71/56/16 70/57/16
f 76/55/19 73/54/19 77/57/19 80/56/19
f 70/57/16 71/56/16 75/55/16 74/54/16
f 71/63/18 72/62/18 76/64/18 75/65/18
f 69/62/32 70/63/32 74/65/32 73/64/32
f 79/66/18 80/67/18 84/68/18 83/69/18
f 74/54/16 75/55/16 79/56/16 78/57/16
f 75/65/37 76/64/37 80/67/37 79/66/37
f 73/64/38 74/65/38 78/66/38 77/67/38
f 84/55/19 81/54/19 85/57/19 88/56/19
f 77/67/32 78/66/32 82/69/32 81/68/32
f 80/56/19 77/57/19 81/54/19 84/55/19
f 78/57/16 79/56/16 83/55/16 82/54/16
f 94/54/16 93/55/16 91/56/16 90/57/16
f 82/54/16 83/55/16 87/56/16 86/57/16
f 83/69/39 84/68/39 88/70/39 87/71/39
f 81/68/40 82/69/40 86/72/40 85/73/40
f 90/23/15 91/23/15 92/22/15 89/22/15
f 93/74/18 95/75/18 92/22/18 91/23/18
f 96/76/32 94/77/32 90/23/32 89/22/32
f 95/55/19 96/54/19 89/57/19 92/56/19
f 88/56/19 85/57/19 96/54/19 95/55/19
f 85/73/41 86/72/41 94/77/41 96/76/41
f 87/71/42 88/70/42 95/75/42 93/74/42
f 86/57/16 87/56/16 93/55/16 94/54/16
f 25/36/32 20/23/32 18/22/32 28/37/32
