# Blender 3.6.5
# www.blender.org
mtllib Poly_SF_Outside_B_Window_09.mtl
o Cube.001
v 0.500000 0.000000 -0.400000
v 0.500000 0.800000 -0.400000
v -0.500000 0.000000 -0.400000
v -0.500000 0.800000 -0.400000
v 0.500000 0.000000 -0.500000
v 0.500000 0.800000 -0.500000
v -0.500000 0.000000 -0.500000
v 0.500000 0.000000 -0.450000
v 0.500000 0.800000 -0.450000
v 0.500000 0.690000 -0.400000
v -0.500000 0.690000 -0.400000
v 0.500000 0.690000 -0.500000
v 0.500000 0.690000 -0.450000
v -0.500000 0.090000 -0.400000
v 0.500000 0.090000 -0.500000
v 0.500000 0.090000 -0.450000
v 0.500000 0.090000 -0.400000
v -0.464453 0.000000 -0.400000
v -0.464453 0.800000 -0.400000
v -0.464453 0.000000 -0.500000
v -0.464453 0.800000 -0.500000
v -0.464453 0.800000 -0.450000
v -0.464453 0.000000 -0.450000
v -0.464453 0.690000 -0.400000
v -0.464453 0.090000 -0.400000
v 0.464453 0.000000 -0.400000
v 0.464453 0.800000 -0.500000
v 0.464453 0.800000 -0.450000
v 0.464453 0.000000 -0.450000
v 0.464453 0.800000 -0.400000
v 0.464453 0.000000 -0.500000
v 0.464453 0.690000 -0.400000
v 0.464453 0.090000 -0.400000
v 0.464453 0.690000 -0.420000
v -0.464453 0.690000 -0.420000
v 0.464453 0.090000 -0.420000
v -0.464453 0.090000 -0.420000
v -0.500000 0.800000 -0.500000
v -0.500000 0.000000 -0.450000
v -0.500000 0.800000 -0.450000
v -0.500000 0.690000 -0.500000
v -0.500000 0.690000 -0.450000
v -0.500000 0.090000 -0.500000
v -0.500000 0.090000 -0.450000
vn -0.0000 -0.0000 1.0000
vn 1.0000 -0.0000 -0.0000
vn -0.0000 -1.0000 -0.0000
vn -0.0000 1.0000 -0.0000
vn -1.0000 -0.0000 -0.0000
vt 0.252442 0.510293
vt 0.252442 0.504306
vt 0.250229 0.504306
vt 0.250229 0.510293
vt 0.308969 0.510293
vt 0.308969 0.504306
vt 0.312450 0.504306
vt 0.312450 0.510293
vt 0.310106 0.506229
vt 0.310106 0.508304
vt 0.312313 0.508304
vt 0.312313 0.506229
vt 0.310106 0.504153
vt 0.312313 0.504153
vt 0.312246 0.510141
vt 0.312246 0.550037
vt 0.308969 0.550037
vt 0.308969 0.510141
vt 0.252442 0.510141
vt 0.252442 0.550037
vt 0.250229 0.550037
vt 0.250229 0.510141
vt 0.252442 0.504276
vt 0.250229 0.504276
vt 0.308969 0.504276
vt 0.312450 0.510141
vt 0.312450 0.504276
vt 0.304081 0.504276
vt 0.304081 0.510141
vt 0.258489 0.510141
vt 0.258489 0.504276
vt 0.250242 0.504153
vt 0.250242 0.506229
vt 0.252448 0.506229
vt 0.252448 0.504153
vt 0.250242 0.508304
vt 0.252448 0.508304
vt 0.304081 0.510293
vt 0.304081 0.504306
vt 0.258489 0.504306
vt 0.258489 0.510293
vt 0.252666 0.504143
vt 0.252666 0.506325
vt 0.309854 0.506325
vt 0.309854 0.504143
vt 0.304081 0.550037
vt 0.258489 0.550037
s 0
usemtl regular
f 24/1/1 19/2/1 4/3/1 11/4/1
f 13/5/2 9/6/2 2/7/2 10/8/2
f 29/9/3 31/10/3 5/11/3 8/12/3
f 28/9/4 30/13/4 2/14/4 9/12/4
f 27/10/4 28/9/4 9/12/4 6/11/4
f 26/13/3 29/9/3 8/12/3 1/14/3
f 12/8/2 6/7/2 9/6/2 13/5/2
f 11/8/5 4/7/5 40/6/5 42/5/5
f 14/15/5 11/16/5 42/17/5 44/18/5
f 15/15/2 12/16/2 13/17/2 16/18/2
f 16/18/2 13/17/2 10/16/2 17/15/2
f 25/19/1 24/20/1 11/21/1 14/22/1
f 18/23/1 25/19/1 14/22/1 3/24/1
f 39/25/5 44/18/5 43/26/5 7/27/5
f 8/25/2 16/18/2 17/26/2 1/27/2
f 5/27/2 15/26/2 16/18/2 8/25/2
f 3/27/5 14/26/5 44/18/5 39/25/5
f 26/28/1 33/29/1 25/30/1 18/31/1
f 33/18/5 32/17/5 34/16/5 36/15/5
f 3/32/3 39/33/3 23/34/3 18/35/3
f 38/36/4 40/33/4 22/34/4 21/37/4
f 40/33/4 4/32/4 19/35/4 22/34/4
f 39/33/3 7/36/3 20/37/3 23/34/3
f 32/38/1 30/39/1 19/40/1 24/41/1
f 10/4/1 2/3/1 30/2/1 32/1/1
f 17/22/1 10/21/1 32/20/1 33/19/1
f 1/24/1 17/22/1 33/19/1 26/23/1
f 18/35/3 23/34/3 29/9/3 26/13/3
f 21/42/4 22/43/4 28/44/4 27/45/4
f 22/34/4 19/35/4 30/13/4 28/9/4
f 23/34/3 20/37/3 31/10/3 29/9/3
f 32/46/3 24/47/3 35/47/3 34/46/3
f 24/17/2 25/18/2 37/15/2 35/16/2
f 25/30/4 33/29/4 36/29/4 37/30/4
f 41/8/5 42/5/5 40/6/5 38/7/5
f 43/15/5 44/18/5 42/17/5 41/16/5
o Cube.002
v -0.481705 0.680587 -0.419780
v -0.478154 0.698525 -0.420408
v -0.447200 0.699413 -0.420220
v -0.469378 0.699413 -0.403464
v -0.469378 0.080587 -0.403464
v -0.447200 0.080587 -0.420220
v -0.478154 0.081475 -0.420408
v -0.481705 0.099413 -0.419780
v -0.326314 0.400587 -0.328420
v -0.304136 0.400587 -0.345176
v -0.291809 0.419413 -0.328860
v -0.313986 0.419413 -0.312104
v -0.271127 0.376102 -0.300051
v -0.271127 0.376102 -0.327847
v -0.271127 0.403898 -0.327847
v -0.271127 0.403898 -0.300051
v 0.000000 0.376102 -0.300051
v 0.000000 0.376102 -0.327847
v 0.000000 0.403898 -0.327847
v 0.000000 0.403898 -0.300051
v -0.313986 0.360587 -0.312104
v -0.291809 0.360587 -0.328860
v -0.304136 0.379413 -0.345176
v -0.326314 0.379413 -0.328420
v 0.481705 0.680587 -0.419780
v 0.478154 0.698525 -0.420408
v 0.447200 0.699413 -0.420220
v 0.469378 0.699413 -0.403464
v 0.469378 0.080587 -0.403464
v 0.447200 0.080587 -0.420220
v 0.478154 0.081475 -0.420408
v 0.481705 0.099413 -0.419780
v 0.326314 0.400587 -0.328420
v 0.304136 0.400587 -0.345176
v 0.291809 0.419413 -0.328860
v 0.313986 0.419413 -0.312104
v 0.271127 0.376102 -0.300051
v 0.271127 0.376102 -0.327847
v 0.271127 0.403898 -0.327847
v 0.271127 0.403898 -0.300051
v 0.313986 0.360587 -0.312104
v 0.291809 0.360587 -0.328860
v 0.304136 0.379413 -0.345176
v 0.326314 0.379413 -0.328420
vn 0.3787 0.4520 -0.8076
vn 0.3787 -0.4520 -0.8076
vn -0.7979 -0.0000 0.6028
vn -0.4676 -0.8617 0.1970
vn 0.4648 -0.0000 -0.8854
vn -0.2707 -0.0000 0.9627
vn -0.4676 0.8617 0.1970
vn 0.3971 0.8963 0.1977
vn 0.3971 -0.8963 0.1977
vn -0.6028 -0.0000 -0.7979
vn -0.2926 -0.4151 -0.8614
vn 0.3764 -0.0521 -0.9250
vn 0.5181 0.5113 0.6857
vn -0.6936 -0.1554 0.7034
vn -0.0000 -0.0000 1.0000
vn -0.0000 -0.0000 -1.0000
vn -0.0000 1.0000 -0.0000
vn 0.3764 0.0521 -0.9250
vn -0.2926 0.4151 -0.8614
vn -0.6936 0.1554 0.7034
vn 0.5181 -0.5113 0.6857
vn -0.0000 -1.0000 -0.0000
vn -0.3787 0.4520 -0.8076
vn -0.3787 -0.4520 -0.8076
vn 0.7979 -0.0000 0.6028
vn 0.4676 -0.8617 0.1970
vn -0.4648 -0.0000 -0.8854
vn 0.2707 -0.0000 0.9627
vn 0.4676 0.8617 0.1970
vn -0.3971 0.8963 0.1977
vn -0.3971 -0.8963 0.1977
vn 0.6028 -0.0000 -0.7979
vn 0.2926 -0.4151 -0.8614
vn -0.3764 -0.0521 -0.9250
vn -0.5181 0.5113 0.6857
vn 0.6936 -0.1554 0.7034
vn -0.3764 0.0521 -0.9250
vn 0.2926 0.4151 -0.8614
vn 0.6936 0.1554 0.7034
vn -0.5181 -0.5113 0.6857
vn -0.0000 0.3011 0.9536
vn -0.0000 -0.3011 0.9536
vn -0.3968 -0.0000 0.9179
vn 0.3968 -0.0000 0.9179
vt 0.263564 0.532395
vt 0.264410 0.533689
vt 0.265831 0.532623
vt 0.264410 0.529648
vt 0.263564 0.530941
vt 0.265831 0.530714
vt 0.262040 0.530941
vt 0.262887 0.529648
vt 0.262887 0.533689
vt 0.262040 0.532395
vt 0.000000 0.000000
vt 0.265413 0.533809
vt 0.265413 0.529987
vt 0.296133 0.529987
vt 0.296133 0.533809
vt 0.267812 0.529475
vt 0.281374 0.529475
vt 0.293091 0.529475
vt 0.294055 0.529475
vt 0.301300 0.510864
vt 0.259604 0.510864
vt 0.266848 0.529475
vt 0.258893 0.510864
vt 0.267371 0.529475
vt 0.293283 0.529475
vt 0.301760 0.510864
s 0
usemtl regular
f 54/48/6 55/49/6 59/50/6
f 66/51/7 67/52/7 58/53/7
f 68/54/8 65/55/8 56/56/8 53/57/8
f 52/58/9 51/58/9 50/58/9 49/58/9
f 58/53/10 67/52/10 54/48/10 59/50/10
f 56/56/11 65/55/11 57/53/11 60/50/11
f 48/58/12 47/58/12 46/58/12 45/58/12
f 56/56/13 60/50/13 59/50/13 55/49/13
f 65/55/14 66/51/14 58/53/14 57/53/14
f 67/52/15 68/54/15 53/57/15 54/48/15
f 45/59/16 46/60/16 54/61/16 53/62/16
f 46/60/17 47/59/17 55/62/17 54/61/17
f 47/59/18 48/60/18 56/61/18 55/62/18
f 48/59/19 45/60/19 53/61/19 56/62/19
f 60/59/20 57/60/20 61/61/20 64/62/20
f 58/60/21 59/59/21 63/62/21 62/61/21
f 60/60/22 64/61/22 63/62/22 59/59/22
f 51/59/23 67/62/23 66/61/23 50/60/23
f 52/60/24 68/61/24 67/62/24 51/59/24
f 49/60/25 65/61/25 68/62/25 52/59/25
f 50/59/26 66/62/26 65/61/26 49/60/26
f 57/60/27 58/59/27 62/62/27 61/61/27
f 78/48/28 83/50/28 79/49/28
f 86/51/29 82/53/29 87/52/29
f 88/54/30 77/57/30 80/56/30 85/55/30
f 76/58/31 73/58/31 74/58/31 75/58/31
f 82/53/32 83/50/32 78/48/32 87/52/32
f 80/56/33 84/50/33 81/53/33 85/55/33
f 72/58/34 69/58/34 70/58/34 71/58/34
f 80/56/35 79/49/35 83/50/35 84/50/35
f 85/55/36 81/53/36 82/53/36 86/51/36
f 87/52/37 78/48/37 77/57/37 88/54/37
f 69/59/38 77/62/38 78/61/38 70/60/38
f 70/60/39 78/61/39 79/62/39 71/59/39
f 71/59/40 79/62/40 80/61/40 72/60/40
f 72/59/41 80/62/41 77/61/41 69/60/41
f 84/59/20 64/62/20 61/61/20 81/60/20
f 82/60/21 62/61/21 63/62/21 83/59/21
f 84/60/22 83/59/22 63/62/22 64/61/22
f 75/59/42 74/60/42 86/61/42 87/62/42
f 76/60/43 75/59/43 87/62/43 88/61/43
f 73/60/44 76/59/44 88/62/44 85/61/44
f 74/59/45 73/60/45 85/61/45 86/62/45
f 81/60/27 61/61/27 62/62/27 82/59/27
f 59/63/46 63/64/46 83/65/46 79/66/46 71/67/46 47/68/46 55/69/46
f 66/69/47 50/68/47 74/67/47 86/66/47 82/65/47 62/64/47 58/63/47
f 51/70/48 67/71/48 54/72/48 46/73/48
f 87/71/49 75/70/49 70/73/49 78/72/49
