# Blender 3.6.5
# www.blender.org
mtllib Poly_World_Map_Town_House_11.mtl
o Plane
v 0.500000 0.001000 -0.400000
v -0.500000 0.001000 -0.400000
v -0.500000 0.001000 0.500000
v 0.500000 0.001000 0.500000
v 0.430000 0.000000 0.266000
v 0.268000 0.000000 0.298000
v 0.169000 0.000000 0.213000
v 0.268000 0.000000 0.127000
v 0.430000 0.000000 0.160000
v 0.332000 0.094000 0.298000
v 0.170000 0.094000 0.266000
v 0.170000 0.094000 0.160000
v 0.332000 0.094000 0.127000
v 0.432000 0.094000 0.213000
v 0.288000 0.152000 0.213000
v 0.446000 0.000000 0.430000
v 0.312000 0.000000 0.462000
v 0.229000 0.000000 0.377000
v 0.312000 0.000000 0.290000
v 0.446000 0.000000 0.323000
v 0.365000 0.094000 0.462000
v 0.230000 0.094000 0.430000
v 0.230000 0.094000 0.323000
v 0.365000 0.094000 0.290000
v 0.448000 0.094000 0.377000
v 0.328000 0.152000 0.377000
v -0.226891 0.001000 -0.400000
v -0.226891 0.001000 0.500000
v 0.500000 0.001000 -0.304000
v -0.500000 0.001000 -0.304000
v -0.226891 0.001000 -0.304000
vn -0.0000 1.0000 -0.0000
vn 0.9998 -0.0213 -0.0000
vn 0.1921 -0.1308 0.9726
vn -0.6004 -0.3879 0.6993
vn -0.6049 -0.3862 -0.6964
vn 0.1978 -0.1347 -0.9710
vn 0.5980 0.3840 0.7035
vn -0.1921 0.1308 0.9726
vn -0.9999 0.0106 -0.0000
vn -0.1978 0.1347 -0.9710
vn 0.6025 0.3822 -0.7006
vn 0.3420 0.8492 0.4024
vn -0.1187 0.7905 0.6008
vn -0.4411 0.8974 -0.0000
vn -0.1216 0.7930 -0.5970
vn 0.3427 0.8508 -0.3985
vn 0.2303 -0.1299 0.9644
vn -0.6674 -0.3603 0.6517
vn -0.6744 -0.3624 -0.6434
vn 0.2370 -0.1336 -0.9623
vn 0.6691 0.3541 0.6534
vn -0.2287 0.1290 0.9649
vn -0.2354 0.1327 -0.9628
vn 0.6761 0.3562 -0.6450
vn 0.4005 0.8286 0.3911
vn -0.1421 0.7878 0.5994
vn -0.5093 0.8606 -0.0000
vn -0.1444 0.7939 -0.5907
vn 0.4019 0.8315 -0.3834
vt 0.654633 0.890621
vt 0.654633 0.894341
vt 0.661364 0.894341
vt 0.661364 0.890621
vt 0.799870 0.890783
vt 0.806919 0.890783
vt 0.806977 0.895700
vt 0.799969 0.890783
vt 0.802682 0.895700
vt 0.795673 0.890783
vt 0.795731 0.895700
vt 0.803447 0.895700
vt 0.802682 0.888532
vt 0.806912 0.892444
vt 0.800791 0.892444
vt 0.795838 0.890026
vt 0.795838 0.894863
vt 0.802682 0.896357
vt 0.667893 0.890956
vt 0.667944 0.894676
vt 0.653847 0.894676
vt 0.653847 0.890956
vt 0.808593 0.886886
vt 0.808593 0.921642
vt 0.770900 0.921642
vt 0.770900 0.886886
vt 0.791137 0.921642
vt 0.791137 0.886886
s 1
usemtl Material
f 31/1/1 27/2/1 2/3/1 30/4/1
s 0
f 5/5/2 9/6/2 14/7/2
f 6/8/3 5/6/3 10/9/3
f 7/10/4 6/8/4 11/11/4
f 8/8/5 7/10/5 12/11/5
f 9/6/6 8/8/6 13/9/6
f 5/6/7 14/7/7 10/9/7
f 6/8/8 10/9/8 11/11/8
f 7/10/9 11/12/9 12/11/9
f 8/8/10 12/11/10 13/9/10
f 9/6/11 13/9/11 14/7/11
f 10/13/12 14/14/12 15/15/12
f 11/16/13 10/13/13 15/15/13
f 12/17/14 11/16/14 15/15/14
f 13/18/15 12/17/15 15/15/15
f 14/14/16 13/18/16 15/15/16
f 16/5/2 20/6/2 25/7/2
f 17/8/17 16/6/17 21/9/17
f 18/10/18 17/8/18 22/11/18
f 19/8/19 18/10/19 23/11/19
f 20/6/20 19/8/20 24/9/20
f 16/6/21 25/7/21 21/9/21
f 17/8/22 21/9/22 22/11/22
f 18/10/9 22/12/9 23/11/9
f 19/8/23 23/11/23 24/9/23
f 20/6/24 24/9/24 25/7/24
f 21/13/25 25/14/25 26/15/25
f 22/16/26 21/13/26 26/15/26
f 23/17/27 22/16/27 26/15/27
f 24/18/28 23/17/28 26/15/28
f 25/14/29 24/18/29 26/15/29
s 1
f 29/19/1 1/20/1 27/21/1 31/22/1
f 4/23/1 29/24/1 31/25/1 28/26/1
f 28/26/1 31/25/1 30/27/1 3/28/1
o Grid
v -0.500000 0.000000 0.500000
v -0.500000 0.100000 0.500000
v -0.500000 0.000000 -0.400000
v -0.500000 0.100000 -0.400000
v 0.500000 0.000000 0.500000
v 0.500000 0.100000 0.500000
v 0.500000 0.000000 -0.400000
v 0.500000 0.100000 -0.400000
v -0.100000 0.000000 0.500000
v -0.100000 0.100000 0.500000
v 0.100000 0.000000 0.500000
v 0.100000 0.100000 0.500000
v -0.130000 0.100000 0.500000
v -0.130000 0.000000 0.500000
v 0.130000 0.000000 0.500000
v 0.130000 0.100000 0.500000
v -0.100000 0.150000 0.500000
v 0.100000 0.150000 0.500000
v -0.130000 0.150000 0.500000
v 0.130000 0.150000 0.500000
v 0.000000 0.000000 -0.400000
v 0.000000 0.100000 -0.400000
v -0.460000 0.000000 0.460000
v -0.460000 0.100000 0.460000
v -0.460000 0.000000 -0.360000
v -0.460000 0.100000 -0.360000
v 0.460000 0.000000 0.460000
v 0.460000 0.100000 0.460000
v 0.460000 0.000000 -0.360000
v 0.460000 0.100000 -0.360000
v -0.100000 0.000000 0.460000
v -0.100000 0.100000 0.460000
v 0.100000 0.000000 0.460000
v 0.100000 0.100000 0.460000
v -0.130000 0.100000 0.460000
v -0.130000 0.000000 0.460000
v 0.130000 0.000000 0.460000
v 0.130000 0.100000 0.460000
v -0.100000 0.150000 0.460000
v 0.100000 0.150000 0.460000
v -0.130000 0.150000 0.460000
v 0.130000 0.150000 0.460000
v 0.000000 0.000000 -0.360000
v 0.000000 0.100000 -0.360000
vn -1.0000 -0.0000 -0.0000
vn -0.0000 -0.0000 -1.0000
vn 1.0000 -0.0000 -0.0000
vn -0.0000 -0.0000 1.0000
vn -0.0000 -1.0000 -0.0000
vn -0.0000 1.0000 -0.0000
vt 0.561226 0.875026
vt 0.561226 0.882775
vt 0.500064 0.882775
vt 0.500064 0.875026
vt 0.500078 0.875026
vt 0.500078 0.882775
vt 0.561098 0.882775
vt 0.561098 0.875026
vt 0.557523 0.875026
vt 0.557523 0.882775
vt 0.561359 0.875045
vt 0.561359 0.882790
vt 0.564927 0.882790
vt 0.564927 0.875045
vt 0.500081 0.875026
vt 0.500081 0.882775
vt 0.561359 0.882741
vt 0.564927 0.882741
vt 0.564927 0.878257
vt 0.561359 0.878257
vt 0.500783 0.880311
vt 0.560715 0.880311
vt 0.558051 0.882736
vt 0.503446 0.882736
vt 0.500894 0.880311
vt 0.561193 0.880311
vt 0.561193 0.882736
vt 0.503909 0.882736
vt 0.502540 0.880311
vt 0.560256 0.880311
vt 0.557691 0.882736
vt 0.505105 0.882736
vt 0.507583 0.880311
vt 0.561139 0.880311
vt 0.561139 0.882736
vt 0.510045 0.882736
vt 0.580818 0.880058
vt 0.580818 0.875134
vt 0.584595 0.875134
vt 0.584595 0.880058
vt 0.516720 0.880311
vt 0.556804 0.880311
vt 0.553392 0.882736
vt 0.516720 0.882736
vt 0.580804 0.881593
vt 0.584575 0.881593
vt 0.584575 0.885364
vt 0.580804 0.885364
vt 0.580818 0.882520
vt 0.584595 0.882520
vt 0.500680 0.880311
vt 0.560978 0.880311
vt 0.557964 0.882736
vt 0.500680 0.882736
s 0
usemtl Material
f 32/29/30 33/30/30 35/31/30 34/32/30
f 52/33/31 53/34/31 39/35/31 38/36/31
f 38/32/32 39/31/32 37/30/32 36/29/32
f 45/37/33 44/38/33 33/31/33 32/32/33
f 46/39/33 47/40/33 43/41/33 42/42/33
f 40/42/33 41/41/33 44/40/33 45/39/33
f 36/43/33 37/44/33 47/38/33 46/37/33
f 44/45/33 41/46/33 48/47/33 50/48/33
f 43/46/33 47/45/33 51/48/33 49/47/33
f 34/36/31 35/35/31 53/34/31 52/33/31
f 54/29/32 56/32/32 57/31/32 55/30/32
f 74/33/33 60/36/33 61/35/33 75/34/33
f 60/32/30 58/29/30 59/30/30 61/31/30
f 67/37/31 54/32/31 55/31/31 66/38/31
f 68/39/31 64/42/31 65/41/31 69/40/31
f 62/42/31 67/39/31 66/40/31 63/41/31
f 58/43/31 68/37/31 69/38/31 59/44/31
f 66/45/31 72/48/31 70/47/31 63/46/31
f 65/46/31 71/47/31 73/48/31 69/45/31
f 56/36/33 74/33/33 75/34/33 57/35/33
f 32/29/34 34/32/34 56/32/34 54/29/34
f 35/49/35 33/50/35 55/51/35 57/52/35
f 34/36/34 52/33/34 74/33/34 56/36/34
f 39/53/35 53/54/35 75/55/35 61/56/35
f 38/32/34 36/29/34 58/29/34 60/32/34
f 37/57/35 39/58/35 61/59/35 59/60/35
f 36/43/34 46/37/34 68/37/34 58/43/34
f 33/61/35 44/62/35 66/63/35 55/64/35
f 40/29/34 45/37/34 67/37/34 62/29/34
f 41/65/32 40/66/32 62/67/32 63/68/32
f 42/66/30 43/65/30 65/68/30 64/67/30
f 45/37/34 32/32/34 54/32/34 67/37/34
f 46/37/34 42/29/34 64/29/34 68/37/34
f 47/69/35 37/70/35 59/71/35 69/72/35
f 49/73/35 51/74/35 73/75/35 71/76/35
f 50/73/35 48/74/35 70/75/35 72/76/35
f 44/73/30 50/73/30 72/76/30 66/76/30
f 48/77/32 41/65/32 63/68/32 70/78/32
f 43/65/30 49/77/30 71/78/30 65/68/30
f 51/74/32 47/74/32 69/75/32 73/75/32
f 52/33/34 38/36/34 60/36/34 74/33/34
f 53/79/35 35/80/35 57/81/35 75/82/35
o Cube.002_Cube.001
v -0.430000 0.000000 -0.310000
v -0.430000 0.250000 -0.310000
v 0.030000 0.000000 -0.310000
v 0.030000 0.250000 -0.310000
v -0.430000 0.000000 -0.090000
v -0.430000 0.250000 -0.090000
v 0.030000 0.000000 -0.090000
v 0.030000 0.250000 -0.090000
v -0.400000 0.250000 -0.280000
v 0.000000 0.250000 -0.280000
v 0.000000 0.250000 -0.120000
v -0.400000 0.250000 -0.120000
v -0.400000 0.220000 -0.280000
v 0.000000 0.220000 -0.280000
v 0.000000 0.220000 -0.120000
v -0.400000 0.220000 -0.120000
v -0.425000 0.000000 0.155000
v -0.425000 0.200000 0.155000
v -0.425000 0.000000 -0.055000
v -0.425000 0.200000 -0.055000
v -0.225000 0.000000 0.155000
v -0.225000 0.200000 0.155000
v -0.225000 0.000000 -0.055000
v -0.225000 0.200000 -0.055000
v -0.395000 0.200000 0.125000
v -0.395000 0.200000 -0.025000
v -0.255000 0.200000 -0.025000
v -0.255000 0.200000 0.125000
v -0.395000 0.170000 0.125000
v -0.395000 0.170000 -0.025000
v -0.255000 0.170000 -0.025000
v -0.255000 0.170000 0.125000
v 0.430000 0.000000 -0.310000
v 0.430000 0.240000 -0.310000
v 0.430000 0.000000 0.140000
v 0.430000 0.240000 0.140000
v 0.220000 0.000000 -0.310000
v 0.220000 0.240000 -0.310000
v 0.220000 0.000000 0.140000
v 0.220000 0.240000 0.140000
v 0.400000 0.240000 -0.280000
v 0.400000 0.240000 0.110000
v 0.250000 0.240000 0.110000
v 0.250000 0.240000 -0.280000
v 0.400000 0.210000 -0.280000
v 0.400000 0.210000 0.110000
v 0.250000 0.210000 0.110000
v 0.250000 0.210000 -0.280000
v -0.425000 0.000000 0.415000
v -0.425000 0.200000 0.415000
v -0.425000 0.000000 0.205000
v -0.425000 0.200000 0.205000
v -0.225000 0.000000 0.415000
v -0.225000 0.200000 0.415000
v -0.225000 0.000000 0.205000
v -0.225000 0.200000 0.205000
v -0.395000 0.200000 0.385000
v -0.395000 0.200000 0.235000
v -0.255000 0.200000 0.235000
v -0.255000 0.200000 0.385000
v -0.395000 0.170000 0.385000
v -0.395000 0.170000 0.235000
v -0.255000 0.170000 0.235000
v -0.255000 0.170000 0.385000
vn -0.0000 -0.0000 -1.0000
vn 1.0000 -0.0000 -0.0000
vn -0.0000 -0.0000 1.0000
vn -1.0000 -0.0000 -0.0000
vn -0.0000 -1.0000 -0.0000
vn -0.0000 1.0000 -0.0000
vt 0.522110 0.887691
vt 0.522110 0.899669
vt 0.506582 0.899669
vt 0.506582 0.887691
vt 0.522110 0.899684
vt 0.506582 0.899684
vt 0.569924 0.909153
vt 0.569924 0.920512
vt 0.547439 0.920512
vt 0.547048 0.909153
vt 0.519601 0.886734
vt 0.507050 0.886734
vt 0.507050 0.899167
vt 0.519601 0.899167
vt 0.509782 0.937421
vt 0.534674 0.937421
vt 0.531732 0.933897
vt 0.512413 0.933897
vt 0.549746 0.932140
vt 0.549746 0.928552
vt 0.515578 0.937421
vt 0.527428 0.937421
vt 0.525847 0.933897
vt 0.516895 0.933897
vt 0.527428 0.937421
vt 0.515578 0.937421
vt 0.519481 0.901053
vt 0.509142 0.901053
vt 0.509142 0.921831
vt 0.519481 0.921831
vt 0.567343 0.932140
vt 0.567343 0.928552
vt 0.547048 0.920512
vt 0.569533 0.920512
vt 0.746147 0.899790
vt 0.746147 0.911456
vt 0.730618 0.911456
vt 0.730618 0.899790
s 0
usemtl Material
f 76/83/36 77/84/36 79/85/36 78/86/36
f 78/83/37 79/87/37 83/88/37 82/86/37
f 82/89/38 83/90/38 81/91/38 80/92/38
f 80/83/39 81/87/39 77/88/39 76/86/39
f 78/93/40 82/94/40 80/95/40 76/96/40
f 81/97/41 83/98/41 86/99/41 87/100/41
f 84/101/37 87/101/37 91/102/37 88/102/37
f 79/98/41 77/97/41 84/100/41 85/99/41
f 77/103/41 81/104/41 87/105/41 84/106/41
f 83/107/41 79/108/41 85/106/41 86/105/41
f 90/109/41 89/110/41 88/111/41 91/112/41
f 86/113/39 85/113/39 89/114/39 90/114/39
f 87/101/36 86/113/36 90/114/36 91/102/36
f 85/113/38 84/101/38 88/102/38 89/114/38
f 92/83/39 93/84/39 95/85/39 94/86/39
f 94/83/36 95/87/36 99/88/36 98/86/36
f 98/92/37 99/115/37 97/116/37 96/89/37
f 96/83/38 97/87/38 93/88/38 92/86/38
f 94/93/40 98/94/40 96/95/40 92/96/40
f 97/97/41 99/98/41 102/99/41 103/100/41
f 100/101/36 103/101/36 107/102/36 104/102/36
f 95/98/41 93/97/41 100/100/41 101/99/41
f 93/103/41 97/104/41 103/105/41 100/106/41
f 99/107/41 95/108/41 101/106/41 102/105/41
f 106/109/41 105/110/41 104/111/41 107/112/41
f 102/113/38 101/113/38 105/114/38 106/114/38
f 103/101/39 102/113/39 106/114/39 107/102/39
f 101/113/37 100/101/37 104/102/37 105/114/37
f 108/83/37 109/84/37 111/85/37 110/86/37
f 110/117/38 111/118/38 115/119/38 114/120/38
f 114/92/39 115/115/39 113/116/39 112/89/39
f 112/83/36 113/87/36 109/88/36 108/86/36
f 110/93/40 114/94/40 112/95/40 108/96/40
f 113/97/41 115/98/41 118/99/41 119/100/41
f 116/101/38 119/101/38 123/102/38 120/102/38
f 111/98/41 109/97/41 116/100/41 117/99/41
f 109/103/41 113/104/41 119/105/41 116/106/41
f 115/107/41 111/108/41 117/106/41 118/105/41
f 122/109/41 121/110/41 120/111/41 123/112/41
f 118/113/36 117/113/36 121/114/36 122/114/36
f 119/101/37 118/113/37 122/114/37 123/102/37
f 117/113/39 116/101/39 120/102/39 121/114/39
f 124/83/39 125/84/39 127/85/39 126/86/39
f 126/83/36 127/87/36 131/88/36 130/86/36
f 130/92/37 131/115/37 129/116/37 128/89/37
f 128/83/38 129/87/38 125/88/38 124/86/38
f 126/93/40 130/94/40 128/95/40 124/96/40
f 129/97/41 131/98/41 134/99/41 135/100/41
f 132/101/36 135/101/36 139/102/36 136/102/36
f 127/98/41 125/97/41 132/100/41 133/99/41
f 125/103/41 129/104/41 135/105/41 132/106/41
f 131/107/41 127/108/41 133/106/41 134/105/41
f 138/109/41 137/110/41 136/111/41 139/112/41
f 134/113/38 133/113/38 137/114/38 138/114/38
f 135/101/39 134/113/39 138/114/39 139/102/39
f 133/113/37 132/101/37 136/102/37 137/114/37
