# Blender v3.6.5 OBJ File: 'Poly_World_Map_Town_01_Ruin.blend'
# www.blender.org
mtllib Poly_World_Map_Town_House_01_Ruin.mtl
o Cube
v -0.400000 0.000000 0.400000
v -0.420000 0.300000 0.430000
v -0.400000 0.000000 -0.400000
v -0.420833 0.302778 -0.433333
v 0.400000 0.000000 0.400000
v 0.430000 0.310000 0.430000
v 0.400000 0.000000 -0.400000
v 0.430000 0.310000 -0.430000
v 0.000000 0.000000 -0.600000
v 0.000000 0.400000 -0.600000
v 0.000000 0.000000 0.600000
v 0.000000 0.360000 0.480000
v -0.500000 0.000000 0.000000
v -0.544017 0.314583 0.000000
v 0.600000 0.000000 0.000000
v 0.600000 0.400000 0.000000
v 0.000000 0.400000 0.000000
vt 0.959200 0.691746
vt 0.959200 0.705934
vt 0.942962 0.710003
vt 0.942881 0.698407
vt 0.942800 0.698547
vt 0.942962 0.710003
vt 0.959200 0.705934
vt 0.959200 0.692037
vt 0.963595 0.702501
vt 0.967083 0.713556
vt 0.950048 0.720661
vt 0.941651 0.706764
vt 0.966717 0.689596
vt 0.966717 0.704058
vt 0.943003 0.712033
vt 0.943003 0.699931
vt 0.949434 0.717735
vt 0.945608 0.714887
vt 0.945568 0.709722
vt 0.954521 0.707525
vt 0.945608 0.714887
vt 0.945568 0.709722
vt 0.989449 0.697408
vt 0.989449 0.713095
vt 0.959200 0.692037
vt 0.959200 0.705934
vt 0.942881 0.698385
vt 0.945568 0.709722
vt 0.954521 0.707525
vt 0.945568 0.709722
vt 0.986951 0.692037
vt 0.986951 0.702679
vt 0.966898 0.699586
vt 0.964375 0.692037
vt 0.942881 0.698407
vt 0.942962 0.710003
vn -0.9600 -0.1146 -0.2555
vn 0.4015 -0.0556 -0.9142
vn 0.9142 -0.0556 0.4015
vn -0.2975 0.1201 0.9471
vn -0.1527 0.9850 0.0799
vn 0.0553 0.9869 0.1513
vn 0.2928 0.1144 0.9493
vn -0.4018 -0.0553 -0.9141
vn 0.1035 0.9892 -0.1035
vn -0.1916 0.9809 -0.0340
vn 0.9142 -0.0556 -0.4015
vn -0.9598 -0.1125 0.2571
usemtl Material
s off
f 13/1/1 14/2/1 4/3/1 3/4/1
f 9/5/2 10/6/2 8/7/2 7/8/2
f 15/9/3 16/10/3 6/11/3 5/12/3
f 11/13/4 12/14/4 2/15/4 1/16/4
f 17/17/5 14/18/5 2/19/5 12/20/5
f 16/21/6 17/17/6 12/20/6 6/22/6
f 5/23/7 6/24/7 12/14/7 11/13/7
f 3/25/8 4/26/8 10/6/8 9/27/8
f 8/28/9 10/29/9 17/17/9 16/21/9
f 10/29/10 4/30/10 14/18/10 17/17/10
f 7/31/11 8/32/11 16/33/11 15/34/11
f 1/35/12 2/36/12 14/2/12 13/1/12
o Cube.001
v 0.083318 0.555672 -0.354741
v 0.030000 0.400000 -0.500000
v 0.318878 0.555672 0.031516
v 0.490000 0.400000 0.000000
v -0.298954 0.549889 -0.017569
v -0.430000 0.330000 -0.050000
v 0.012317 0.549889 0.322863
v 0.000000 0.360000 0.480000
v -0.260280 0.351590 -0.376947
v 0.207173 0.578001 0.295676
v 0.430000 0.310000 0.430000
v -0.147401 0.578001 -0.237896
v -0.420000 0.300000 0.430000
v 0.291691 0.582753 -0.209166
v -0.237896 0.577559 0.147401
v 0.414803 0.334402 -0.316067
v 0.000000 0.577012 0.000000
vt 0.965983 0.726031
vt 0.959860 0.716654
vt 0.971905 0.714536
vt 0.978507 0.718826
vt 0.989449 0.712925
vt 0.985158 0.719897
vt 0.966717 0.719897
vt 0.966717 0.704058
vt 0.945525 0.714159
vt 0.952667 0.723463
vt 0.963655 0.716747
vt 0.966645 0.704057
vt 0.987143 0.694940
vt 0.987143 0.709017
vt 0.992341 0.709017
vt 0.996332 0.699985
vt 0.961705 0.695293
vt 0.962971 0.703611
vt 0.945260 0.714278
vt 0.940646 0.702778
vt 0.940646 0.702778
vt 0.945260 0.714278
vt 0.963100 0.703094
vt 0.975940 0.709017
vt 0.968018 0.691811
vt 0.950843 0.726473
vt 0.958733 0.726473
vt 0.958733 0.717739
vt 0.950843 0.719612
vt 0.952523 0.720322
vt 0.950779 0.726473
vt 0.958733 0.719483
vt 0.968111 0.692010
vt 0.976099 0.709017
vt 0.952563 0.723396
vt 0.943003 0.712033
vt 0.952200 0.721291
vt 0.958797 0.718966
vn -0.0292 0.9960 0.0848
vn 0.1203 0.5718 0.8115
vn -0.8210 0.5634 0.0925
vn 0.7637 0.6190 -0.1833
vn -0.3437 0.6522 -0.6756
vn -0.7400 0.5521 -0.3843
vn 0.6824 0.6918 0.2362
vn 0.0648 0.9977 0.0202
vn -0.0068 0.9981 -0.0616
vn 0.4380 0.5292 -0.7267
vn -0.2532 0.7166 0.6499
vn -0.0892 0.9958 -0.0198
usemtl Material
s off
f 34/37/13 32/38/13 24/39/13 27/40/13
f 28/41/14 27/42/14 24/43/14 25/44/14
f 30/45/15 32/46/15 22/47/15 23/48/15
f 33/49/16 31/50/16 20/51/16 21/52/16
f 26/53/17 29/54/17 18/55/17 19/56/17
f 23/57/18 22/58/18 29/59/18 26/53/18
f 21/52/19 20/51/19 27/60/19 28/61/19
f 31/62/20 34/63/20 27/64/20 20/65/20
f 18/66/21 29/67/21 34/63/21 31/68/21
f 19/69/22 18/70/22 31/50/22 33/49/22
f 25/44/23 24/43/23 32/71/23 30/72/23
f 29/67/24 22/73/24 32/74/24 34/63/24
o Cube.002
v -0.100574 0.690000 -0.036989
v -0.120000 0.810000 -0.040000
v -0.180000 0.880000 -0.050000
v -0.180000 0.630000 -0.050000
v -0.174147 0.563371 -0.076786
v -0.174147 0.670887 -0.072153
v -0.140918 0.563371 -0.029059
v -0.145698 0.670887 -0.031375
v -0.206588 0.563371 -0.029059
v -0.201807 0.670887 -0.031375
v -0.180000 0.690000 -0.120000
v -0.180000 0.810000 -0.100000
v -0.180000 0.880000 -0.050000
v -0.180000 0.630000 -0.050000
v -0.250000 0.690000 -0.062007
v -0.240000 0.810000 -0.060000
v -0.180000 0.880000 -0.050000
v -0.180000 0.630000 -0.050000
v -0.180000 0.690000 0.030000
v -0.180000 0.810000 0.010000
v -0.180000 0.880000 -0.050000
v -0.180000 0.630000 -0.050000
v -0.100411 0.690001 -0.037976
v -0.119837 0.810001 -0.040987
v -0.179837 0.880001 -0.050987
v -0.179837 0.630001 -0.050987
v -0.174142 0.563916 -0.075947
v -0.174142 0.670311 -0.071336
v -0.141667 0.563905 -0.029449
v -0.146426 0.670317 -0.031756
v -0.205841 0.563906 -0.029454
v -0.201082 0.670317 -0.031760
v -0.181000 0.690000 -0.120000
v -0.181000 0.810000 -0.100000
v -0.181000 0.880000 -0.050000
v -0.181000 0.630000 -0.050000
v -0.250167 0.689999 -0.061021
v -0.240167 0.809999 -0.059014
v -0.180167 0.879999 -0.049014
v -0.180167 0.629999 -0.049014
v -0.179000 0.690000 0.030000
v -0.179000 0.810000 0.010000
v -0.179000 0.880000 -0.050000
v -0.179000 0.630000 -0.050000
vt 0.957640 0.747457
vt 0.957681 0.730848
vt 0.950815 0.732672
vt 0.950815 0.738272
vt 0.955837 0.726919
vt 0.955837 0.730473
vt 0.957376 0.730473
vt 0.957376 0.726919
vt 0.954298 0.730473
vt 0.954298 0.726919
vt 0.957640 0.747457
vt 0.957681 0.730848
vt 0.950815 0.732672
vt 0.950815 0.738272
vt 0.957640 0.747457
vt 0.957681 0.730848
vt 0.950815 0.732672
vt 0.950815 0.738272
vt 0.957640 0.747457
vt 0.957681 0.730848
vt 0.950815 0.732672
vt 0.950815 0.738272
vt 0.957640 0.747457
vt 0.950815 0.738272
vt 0.950815 0.732672
vt 0.957681 0.730848
vt 0.955837 0.726919
vt 0.957376 0.726919
vt 0.957376 0.730473
vt 0.955837 0.730473
vt 0.954298 0.726919
vt 0.954298 0.730473
vt 0.957640 0.747457
vt 0.950815 0.738272
vt 0.950815 0.732672
vt 0.957681 0.730848
vt 0.957640 0.747457
vt 0.950815 0.738272
vt 0.950815 0.732672
vt 0.957681 0.730848
vt 0.957640 0.747457
vt 0.950815 0.738272
vt 0.950815 0.732672
vt 0.957681 0.730848
vn -0.1629 -0.0005 0.9866
vn 0.8202 0.0244 -0.5716
vn 0.0000 0.0215 0.9998
vn 0.0000 1.0000 0.0000
vn -0.8270 0.0244 -0.5616
vn 0.0000 -1.0000 0.0000
vn 1.0000 0.0000 0.0000
vn 0.1668 0.0008 -0.9860
vn -1.0000 0.0000 0.0000
vn 0.1629 0.0005 -0.9866
vn -0.8193 -0.0245 0.5729
vn 0.0001 -0.0217 -0.9998
vn 0.0000 -1.0000 0.0002
vn 0.8262 -0.0246 0.5629
vn 0.0000 1.0000 0.0002
vn -0.1668 -0.0008 0.9860
vn 0.7447 0.6559 0.1232
vn -0.9866 0.0000 -0.1629
vn 0.5898 -0.8017 0.0969
vn 0.9737 0.1617 0.1608
vn 0.0000 0.5812 -0.8137
vn 0.0000 0.0000 1.0000
vn 0.0000 -0.7593 -0.6508
vn 0.0000 0.1644 -0.9864
vn -0.7443 0.6559 -0.1254
vn 0.9860 0.0000 0.1668
vn -0.6362 -0.7639 -0.1083
vn -0.9825 0.0847 -0.1662
vn 0.0000 0.6508 0.7593
vn 0.0000 0.0000 -1.0000
vn 0.0000 -0.8000 0.6000
vn 0.0000 0.1644 0.9864
usemtl Material
s off
f 37/75/25 38/76/25 35/77/25 36/78/25
f 39/79/26 40/80/26 42/81/26 41/82/26
f 41/82/27 42/81/27 44/83/27 43/84/27
f 42/81/28 40/80/28 44/83/28
f 43/84/29 44/83/29 40/80/29 39/79/29
f 39/79/30 41/82/30 43/84/30
f 47/85/31 48/86/31 45/87/31 46/88/31
f 51/89/32 52/90/32 49/91/32 50/92/32
f 55/93/33 56/94/33 53/95/33 54/96/33
f 59/97/34 58/98/34 57/99/34 60/100/34
f 61/101/35 63/102/35 64/103/35 62/104/35
f 63/102/36 65/105/36 66/106/36 64/103/36
f 64/103/37 66/106/37 62/104/37
f 65/105/38 61/101/38 62/104/38 66/106/38
f 61/101/39 65/105/39 63/102/39
f 69/107/33 68/108/33 67/109/33 70/110/33
f 73/111/40 72/112/40 71/113/40 74/114/40
f 77/115/31 76/116/31 75/117/31 78/118/31
f 37/75/41 36/78/41 58/98/41 59/97/41
f 38/76/42 37/75/42 59/97/42 60/100/42
f 35/77/43 38/76/43 60/100/43 57/99/43
f 36/78/44 35/77/44 57/99/44 58/98/44
f 47/85/45 46/88/45 68/108/45 69/107/45
f 48/86/46 47/85/46 69/107/46 70/110/46
f 45/87/47 48/86/47 70/110/47 67/109/47
f 46/88/48 45/87/48 67/109/48 68/108/48
f 51/89/49 50/92/49 72/112/49 73/111/49
f 52/90/50 51/89/50 73/111/50 74/114/50
f 49/91/51 52/90/51 74/114/51 71/113/51
f 50/92/52 49/91/52 71/113/52 72/112/52
f 55/93/53 54/96/53 76/116/53 77/115/53
f 56/94/54 55/93/54 77/115/54 78/118/54
f 53/95/55 56/94/55 78/118/55 75/117/55
f 54/96/56 53/95/56 75/117/56 76/116/56
o Cube.003
v -0.141353 0.558831 0.089757
v -0.141353 0.678891 0.089757
v -0.021815 0.558831 -0.168132
v -0.021815 0.678891 -0.168132
v 0.153027 0.558831 0.241556
v 0.153027 0.678891 0.241556
v 0.272565 0.558831 -0.016333
v 0.272565 0.678891 -0.016333
v -0.081584 0.558831 -0.039188
v -0.081584 0.807644 -0.039188
v 0.212796 0.558831 0.112612
v 0.212796 0.807644 0.112612
vt 0.974506 0.720289
vt 0.974506 0.740899
vt 0.984291 0.730201
vt 0.984291 0.720289
vt 0.961102 0.720529
vt 0.961102 0.729003
vt 0.983591 0.729003
vt 0.983591 0.720529
vt 0.974506 0.720289
vt 0.974506 0.740899
vt 0.984253 0.730201
vt 0.984253 0.720289
vt 0.983591 0.720529
vt 0.983591 0.729003
vt 0.961102 0.729003
vt 0.961102 0.720529
vt 0.961102 0.720529
vt 0.983591 0.720529
vt 0.985158 0.745899
vt 0.958265 0.745899
vt 0.958265 0.730015
vt 0.985158 0.730015
vt 0.985158 0.730015
vt 0.958265 0.730015
vt 0.984291 0.720289
vt 0.984291 0.730201
vt 0.984253 0.720289
vt 0.984253 0.730201
vn -0.9073 0.0000 -0.4205
vn 0.4583 0.0000 -0.8888
vn 0.9073 0.0000 0.4205
vn -0.4583 0.0000 0.8888
vn 0.0000 -1.0000 0.0000
vn -0.3079 0.7408 0.5970
vn 0.3079 0.7408 -0.5970
usemtl Material
s off
f 87/119/57 88/120/57 82/121/57 81/122/57
f 81/123/58 82/124/58 86/125/58 85/126/58
f 89/127/59 90/128/59 84/129/59 83/130/59
f 83/131/60 84/132/60 80/133/60 79/134/60
f 87/135/61 89/136/61 83/131/61 79/134/61
f 90/137/62 88/138/62 80/139/62 84/140/62
f 86/141/63 82/142/63 88/138/63 90/137/63
f 81/123/61 85/126/61 89/136/61 87/135/61
f 85/143/59 86/144/59 90/128/59 89/127/59
f 79/145/57 80/146/57 88/120/57 87/119/57
