# Blender 3.6.5
# www.blender.org
mtllib Poly_Hole_Ladder_01_Down.mtl
o Cube.001
v -0.200000 -0.500000 -0.440000
v -0.200000 -0.500000 -0.380000
v -0.200000 -0.200000 -0.440000
v -0.200000 -0.130000 -0.440000
v 0.000000 -0.130000 -0.440000
v 0.000000 -0.200000 -0.440000
v -0.270000 -0.500000 -0.380000
v -0.270000 -0.500000 -0.440000
v -0.200000 -0.430000 -0.440000
v -0.270000 -0.430000 -0.440000
v -0.270000 -0.200000 -0.440000
v -0.200000 -0.430000 -0.380000
v -0.270000 -0.430000 -0.380000
v -0.200000 -0.200000 -0.380000
v 0.000000 -0.200000 -0.380000
v -0.270000 -0.200000 -0.380000
v -0.270000 -0.130000 -0.440000
v -0.270000 0.100000 -0.440000
v -0.200000 0.100000 -0.440000
v -0.200000 -0.130000 -0.380000
v -0.270000 -0.130000 -0.380000
v -0.270000 0.100000 -0.380000
v -0.200000 0.100000 -0.380000
v 0.000000 -0.500000 -0.380000
v 0.000000 -0.500000 -0.440000
v 0.000000 -0.430000 -0.440000
v 0.000000 -0.430000 -0.380000
v 0.000000 -0.130000 -0.380000
v 0.200000 -0.500000 -0.380000
v 0.200000 -0.500000 -0.440000
v 0.200000 -0.200000 -0.440000
v 0.200000 -0.130000 -0.440000
v 0.270000 -0.500000 -0.380000
v 0.270000 -0.500000 -0.440000
v 0.200000 -0.430000 -0.440000
v 0.270000 -0.200000 -0.440000
v 0.270000 -0.430000 -0.440000
v 0.270000 -0.430000 -0.380000
v 0.200000 -0.430000 -0.380000
v 0.200000 -0.200000 -0.380000
v 0.270000 -0.200000 -0.380000
v 0.200000 0.100000 -0.440000
v 0.270000 0.100000 -0.440000
v 0.270000 -0.130000 -0.440000
v 0.270000 -0.130000 -0.380000
v 0.200000 -0.130000 -0.380000
v 0.270000 0.100000 -0.380000
v 0.200000 0.100000 -0.380000
v -0.200000 -1.100000 -0.440000
v -0.200000 -1.100000 -0.380000
v -0.200000 -0.800000 -0.440000
v -0.200000 -0.730000 -0.440000
v 0.000000 -0.730000 -0.440000
v 0.000000 -0.800000 -0.440000
v -0.270000 -1.100000 -0.380000
v -0.270000 -1.100000 -0.440000
v -0.200000 -1.030000 -0.440000
v -0.270000 -1.030000 -0.440000
v -0.270000 -0.800000 -0.440000
v -0.200000 -1.030000 -0.380000
v -0.270000 -1.030000 -0.380000
v -0.200000 -0.800000 -0.380000
v 0.000000 -0.800000 -0.380000
v -0.270000 -0.800000 -0.380000
v -0.270000 -0.730000 -0.440000
v -0.270000 -0.500000 -0.440000
v -0.200000 -0.500000 -0.440000
v -0.200000 -0.730000 -0.380000
v -0.270000 -0.730000 -0.380000
v -0.270000 -0.500000 -0.380000
v -0.200000 -0.500000 -0.380000
v 0.000000 -1.100000 -0.380000
v 0.000000 -1.100000 -0.440000
v 0.000000 -1.030000 -0.440000
v 0.000000 -1.030000 -0.380000
v 0.000000 -0.730000 -0.380000
v 0.200000 -1.100000 -0.380000
v 0.200000 -1.100000 -0.440000
v 0.200000 -0.800000 -0.440000
v 0.200000 -0.730000 -0.440000
v 0.270000 -1.100000 -0.380000
v 0.270000 -1.100000 -0.440000
v 0.200000 -1.030000 -0.440000
v 0.270000 -0.800000 -0.440000
v 0.270000 -1.030000 -0.440000
v 0.270000 -1.030000 -0.380000
v 0.200000 -1.030000 -0.380000
v 0.200000 -0.800000 -0.380000
v 0.270000 -0.800000 -0.380000
v 0.200000 -0.500000 -0.440000
v 0.270000 -0.500000 -0.440000
v 0.270000 -0.730000 -0.440000
v 0.270000 -0.730000 -0.380000
v 0.200000 -0.730000 -0.380000
v 0.270000 -0.500000 -0.380000
v 0.200000 -0.500000 -0.380000
vn -0.0000 -0.0000 -1.0000
vn -0.0000 -0.0000 1.0000
vn -1.0000 -0.0000 -0.0000
vn -0.0000 -1.0000 -0.0000
vn 1.0000 -0.0000 -0.0000
vn -0.0000 1.0000 -0.0000
vt 0.072071 0.756674
vt 0.072071 0.762746
vt 0.099235 0.762746
vt 0.099235 0.756674
vt 0.072071 0.834531
vt 0.066982 0.834531
vt 0.066982 0.852469
vt 0.072071 0.852469
vt 0.066982 0.830346
vt 0.072071 0.830350
vt 0.072071 0.830346
vt 0.072071 0.834554
vt 0.072071 0.788294
vt 0.072071 0.793739
vt 0.099235 0.793739
vt 0.099235 0.788294
vt 0.072071 0.852572
vt 0.066982 0.852572
vt 0.066982 0.834554
vt 0.072071 0.856654
vt 0.066982 0.856654
vt 0.066982 0.870407
vt 0.072071 0.870407
vt 0.072071 0.856776
vt 0.066982 0.856776
vt 0.072071 0.870519
vt 0.066982 0.870519
vt 0.066982 0.732337
vt 0.072071 0.732337
vt 0.066982 0.870590
vt 0.072071 0.870590
vt 0.066982 0.870041
vt 0.072071 0.870041
s 1
usemtl Material
f 3/1/1 4/2/1 5/3/1 6/4/1
f 9/5/1 10/6/1 11/7/1 3/8/1
f 7/9/2 2/10/2 12/5/2 13/6/2
f 1/11/1 8/9/1 10/6/1 9/5/1
f 8/9/3 7/10/3 13/12/3 10/6/3
f 14/13/4 3/14/4 6/15/4 15/16/4
f 10/6/3 13/12/3 16/17/3 11/18/3
f 12/5/5 9/19/5 3/18/5 14/17/5
f 13/6/2 12/5/2 14/8/2 16/7/2
f 4/20/1 17/21/1 18/22/1 19/23/1
f 16/7/2 14/8/2 20/20/2 21/21/2
f 3/8/1 11/7/1 17/21/1 4/20/1
f 11/18/3 16/17/3 21/24/3 17/25/3
f 22/26/6 23/27/6 19/28/6 18/29/6
f 17/25/3 21/24/3 22/26/3 18/30/3
f 20/24/5 4/25/5 19/30/5 23/31/5
f 21/21/2 20/20/2 23/23/2 22/22/2
f 24/32/5 25/33/5 26/33/5 27/32/5
f 15/32/5 6/33/5 5/33/5 28/32/5
f 2/13/4 1/14/4 25/15/4 24/16/4
f 12/2/2 2/1/2 24/4/2 27/3/2
f 9/14/6 12/13/6 27/16/6 26/15/6
f 20/2/2 14/1/2 15/4/2 28/3/2
f 4/14/6 20/13/6 28/16/6 5/15/6
f 1/1/1 9/2/1 26/3/1 25/4/1
f 31/1/1 6/4/1 5/3/1 32/2/1
f 35/5/1 31/8/1 36/7/1 37/6/1
f 33/9/2 38/6/2 39/5/2 29/10/2
f 30/11/1 35/5/1 37/6/1 34/9/1
f 34/9/5 37/6/5 38/12/5 33/10/5
f 40/13/4 15/16/4 6/15/4 31/14/4
f 37/6/5 36/18/5 41/17/5 38/12/5
f 39/5/3 40/17/3 31/18/3 35/19/3
f 38/6/2 41/7/2 40/8/2 39/5/2
f 32/20/1 42/23/1 43/22/1 44/21/1
f 41/7/2 45/21/2 46/20/2 40/8/2
f 31/8/1 32/20/1 44/21/1 36/7/1
f 36/18/5 44/25/5 45/24/5 41/17/5
f 47/26/6 43/29/6 42/28/6 48/27/6
f 44/25/5 43/30/5 47/26/5 45/24/5
f 46/24/3 48/31/3 42/30/3 32/25/3
f 45/21/2 47/22/2 48/23/2 46/20/2
f 29/13/4 24/16/4 25/15/4 30/14/4
f 39/2/2 27/3/2 24/4/2 29/1/2
f 35/14/6 26/15/6 27/16/6 39/13/6
f 46/2/2 28/3/2 15/4/2 40/1/2
f 32/14/6 5/15/6 28/16/6 46/13/6
f 30/1/1 25/4/1 26/3/1 35/2/1
f 51/1/1 52/2/1 53/3/1 54/4/1
f 57/5/1 58/6/1 59/7/1 51/8/1
f 55/9/2 50/10/2 60/5/2 61/6/2
f 49/11/1 56/9/1 58/6/1 57/5/1
f 56/9/3 55/10/3 61/12/3 58/6/3
f 62/13/4 51/14/4 54/15/4 63/16/4
f 58/6/3 61/12/3 64/17/3 59/18/3
f 60/5/5 57/19/5 51/18/5 62/17/5
f 61/6/2 60/5/2 62/8/2 64/7/2
f 52/20/1 65/21/1 66/22/1 67/23/1
f 64/7/2 62/8/2 68/20/2 69/21/2
f 51/8/1 59/7/1 65/21/1 52/20/1
f 59/18/3 64/17/3 69/24/3 65/25/3
f 70/26/6 71/27/6 67/28/6 66/29/6
f 65/25/3 69/24/3 70/26/3 66/30/3
f 68/24/5 52/25/5 67/30/5 71/31/5
f 69/21/2 68/20/2 71/23/2 70/22/2
f 72/32/5 73/33/5 74/33/5 75/32/5
f 63/32/5 54/33/5 53/33/5 76/32/5
f 50/13/4 49/14/4 73/15/4 72/16/4
f 60/2/2 50/1/2 72/4/2 75/3/2
f 57/14/6 60/13/6 75/16/6 74/15/6
f 68/2/2 62/1/2 63/4/2 76/3/2
f 52/14/6 68/13/6 76/16/6 53/15/6
f 49/1/1 57/2/1 74/3/1 73/4/1
f 79/1/1 54/4/1 53/3/1 80/2/1
f 83/5/1 79/8/1 84/7/1 85/6/1
f 81/9/2 86/6/2 87/5/2 77/10/2
f 78/11/1 83/5/1 85/6/1 82/9/1
f 82/9/5 85/6/5 86/12/5 81/10/5
f 88/13/4 63/16/4 54/15/4 79/14/4
f 85/6/5 84/18/5 89/17/5 86/12/5
f 87/5/3 88/17/3 79/18/3 83/19/3
f 86/6/2 89/7/2 88/8/2 87/5/2
f 80/20/1 90/23/1 91/22/1 92/21/1
f 89/7/2 93/21/2 94/20/2 88/8/2
f 79/8/1 80/20/1 92/21/1 84/7/1
f 84/18/5 92/25/5 93/24/5 89/17/5
f 95/26/6 91/29/6 90/28/6 96/27/6
f 92/25/5 91/30/5 95/26/5 93/24/5
f 94/24/3 96/31/3 90/30/3 80/25/3
f 93/21/2 95/22/2 96/23/2 94/20/2
f 77/13/4 72/16/4 73/15/4 78/14/4
f 87/2/2 75/3/2 72/4/2 77/1/2
f 83/14/6 74/15/6 75/16/6 87/13/6
f 94/2/2 76/3/2 63/4/2 88/1/2
f 80/14/6 53/15/6 76/16/6 94/13/6
f 78/1/1 73/4/1 74/3/1 83/2/1
o Cube.002
v -0.440000 -0.800000 0.440000
v -0.440000 0.030000 0.440000
v -0.440000 -0.800000 -0.440000
v -0.440000 0.030000 -0.440000
v 0.440000 -0.800000 0.440000
v 0.440000 0.030000 0.440000
v 0.440000 -0.800000 -0.440000
v 0.440000 0.030000 -0.440000
v -0.500000 0.030000 0.500000
v -0.500000 0.030000 -0.500000
v 0.500000 0.030000 0.500000
v 0.500000 0.030000 -0.500000
v -0.500000 -0.010000 0.500000
v -0.500000 -0.010000 -0.500000
v 0.500000 -0.010000 0.500000
v 0.500000 -0.010000 -0.500000
vn -0.0000 1.0000 -0.0000
vn 1.0000 -0.0000 -0.0000
vn -0.0000 -0.0000 1.0000
vn -1.0000 -0.0000 -0.0000
vn -0.0000 -0.0000 -1.0000
vt 0.307935 0.648372
vt 0.307935 0.627896
vt 0.254324 0.627896
vt 0.254324 0.648372
vt 0.307935 0.639458
vt 0.254324 0.639458
vt 0.254324 0.680482
vt 0.307935 0.680482
vt 0.180998 0.932383
vt 0.129035 0.932384
vt 0.124145 0.936745
vt 0.185889 0.936745
vt 0.180998 0.932384
vt 0.129035 0.932383
vt 0.180944 0.932060
vt 0.130439 0.932060
vt 0.130439 0.927473
vt 0.180944 0.927473
s 0
usemtl Material
f 99/34/7 97/35/7 101/36/7 103/37/7
f 97/38/8 99/39/8 100/40/8 98/41/8
f 99/39/9 103/38/9 104/41/9 100/40/9
f 103/38/10 101/39/10 102/40/10 104/41/10
f 104/42/7 102/43/7 107/44/7 108/45/7
f 98/46/7 100/47/7 106/44/7 105/45/7
f 102/46/7 98/43/7 105/44/7 107/45/7
f 100/47/7 104/42/7 108/45/7 106/44/7
f 107/48/9 105/49/9 109/50/9 111/51/9
f 106/49/11 108/48/11 112/51/11 110/50/11
f 108/48/8 107/49/8 111/50/8 112/51/8
f 105/49/10 106/48/10 110/51/10 109/50/10
f 101/39/11 97/38/11 98/41/11 102/40/11
