# Blender 3.6.5
# www.blender.org
mtllib Poly_SF_Outside_B_Chimney_01.mtl
o Cube.003
v -0.370000 0.000000 -0.370000
v -0.230000 0.300000 0.180000
v -0.370000 0.000000 0.370000
v -0.230000 0.520000 0.180000
v 0.370000 0.000000 -0.370000
v 0.230000 0.300000 0.180000
v 0.370000 0.000000 0.370000
v 0.230000 0.520000 0.180000
v -0.300000 0.040000 -0.300000
v -0.300000 0.520000 -0.300000
v 0.300000 0.040000 -0.300000
v 0.300000 0.520000 -0.300000
v -0.300000 0.040000 0.300000
v -0.230000 0.240000 0.040000
v -0.300000 0.600000 0.300000
v -0.230000 0.460000 0.040000
v 0.230000 0.240000 0.040000
v 0.300000 0.040000 0.300000
v 0.300000 0.600000 0.300000
v 0.230000 0.460000 0.040000
v -0.300000 0.290000 -0.300000
v -0.230000 0.120000 -0.100000
v 0.300000 0.290000 -0.300000
v -0.230000 0.350000 -0.100000
v 0.300000 0.290000 0.300000
v 0.230000 0.120000 -0.100000
v -0.300000 0.290000 0.300000
v 0.230000 0.350000 -0.100000
v -0.300000 0.440000 -0.300000
v 0.300000 0.440000 -0.300000
v 0.300000 0.520000 0.300000
v -0.300000 0.520000 0.300000
v -0.230000 0.520000 0.300000
v 0.230000 0.520000 0.300000
v -0.230000 0.290000 0.300000
v 0.230000 0.290000 0.300000
v -0.300000 0.040000 0.000000
v -0.300000 0.600000 0.000000
v 0.300000 0.040000 0.000000
v 0.300000 0.600000 0.000000
v 0.300000 0.520000 0.000000
v 0.300000 0.290000 0.000000
v -0.300000 0.290000 0.000000
v -0.300000 0.520000 0.000000
v -0.370000 0.040000 -0.370000
v -0.370000 0.040000 0.370000
v 0.370000 0.040000 -0.370000
v 0.370000 0.040000 0.370000
vn -0.0000 -1.0000 -0.0000
vn -0.0000 -0.0000 -1.0000
vn 1.0000 -0.0000 -0.0000
vn -1.0000 -0.0000 -0.0000
vn -0.0000 0.9662 -0.2577
vn -0.0000 0.9965 0.0830
vn -0.0000 -0.7863 0.6178
vn -0.0000 -0.9191 0.3939
vn -0.0000 0.9191 -0.3939
vn -0.0000 -0.0000 1.0000
vn -0.0000 0.7593 -0.6508
vn -0.0000 1.0000 -0.0000
vt 0.013343 0.164623
vt 0.013343 0.187290
vt 0.049250 0.187290
vt 0.049250 0.164623
vt 0.049043 0.136792
vt 0.049043 0.133347
vt 0.014272 0.133347
vt 0.014272 0.136792
vt 0.031658 0.136792
vt 0.031658 0.133347
vt 0.049043 0.149079
vt 0.014272 0.149079
vt 0.049399 0.175816
vt 0.049399 0.187419
vt 0.013206 0.187419
vt 0.013206 0.175816
vt 0.031658 0.146745
vt 0.049043 0.146745
vt 0.014272 0.146745
vt 0.043209 0.148361
vt 0.043209 0.159615
vt 0.018046 0.159615
vt 0.018046 0.148361
vt 0.018147 0.159736
vt 0.018147 0.148362
vt 0.029350 0.148362
vt 0.029350 0.159736
vt 0.017846 0.148497
vt 0.043591 0.148497
vt 0.043591 0.159600
vt 0.017846 0.159600
vt 0.049399 0.164214
vt 0.013206 0.164214
vt 0.049043 0.164812
vt 0.014272 0.164812
vt 0.045568 0.160480
vt 0.045568 0.146866
vt 0.049048 0.146866
vt 0.049048 0.160480
vt 0.017001 0.160480
vt 0.013521 0.160480
vt 0.013521 0.146866
vt 0.017001 0.146866
vt 0.013521 0.163836
vt 0.049048 0.163836
vt 0.049048 0.133245
vt 0.013521 0.133245
s 0
usemtl regular
f 1/1/1 5/2/1 7/3/1 3/4/1
f 29/5/2 10/6/2 12/7/2 30/8/2
f 41/9/3 40/10/3 19/6/3 31/5/3
f 44/9/4 38/10/4 10/6/4 29/5/4
f 39/11/1 18/6/1 13/7/1 37/12/1
f 40/13/5 12/14/5 10/15/5 38/16/5
f 37/10/4 43/17/4 21/18/4 9/6/4
f 39/10/3 42/17/3 25/18/3 18/6/3
f 9/6/2 21/18/2 23/19/2 11/7/2
f 43/17/4 44/9/4 29/5/4 21/18/4
f 42/17/3 41/9/3 31/5/3 25/18/3
f 21/18/2 29/5/2 30/8/2 23/19/2
f 8/20/4 20/21/4 17/22/4 6/23/4
f 34/20/4 8/21/4 6/22/4 36/23/4
f 35/22/3 2/23/3 4/20/3 33/21/3
f 6/23/6 2/20/6 35/21/6 36/22/6
f 4/24/1 8/25/1 34/26/1 33/27/1
f 16/24/7 24/24/7 28/25/7 20/25/7
f 2/23/3 14/22/3 16/21/3 4/20/3
f 4/24/8 16/24/8 20/25/8 8/25/8
f 6/23/9 17/22/9 14/21/9 2/20/9
f 22/28/10 26/29/10 28/30/10 24/31/10
f 17/23/11 26/22/11 22/21/11 14/20/11
f 20/21/4 28/20/4 26/23/4 17/22/4
f 14/23/3 22/22/3 24/21/3 16/20/3
f 23/19/3 30/8/3 41/9/3 42/17/3
f 27/19/4 32/8/4 44/9/4 43/17/4
f 11/7/3 23/19/3 42/17/3 39/10/3
f 13/7/4 27/19/4 43/17/4 37/10/4
f 19/32/12 40/13/12 38/16/12 15/33/12
f 11/34/1 39/11/1 37/12/1 9/35/1
f 32/8/4 15/7/4 38/10/4 44/9/4
f 30/8/3 12/7/3 40/10/3 41/9/3
f 34/36/10 36/37/10 25/38/10 31/39/10
f 33/40/10 32/41/10 27/42/10 35/43/10
f 15/44/10 32/41/10 33/40/10 34/36/10 31/39/10 19/45/10
f 18/46/10 25/38/10 36/37/10 35/43/10 27/42/10 13/47/10
f 45/1/12 46/4/12 48/3/12 47/2/12
f 7/3/3 5/2/3 47/2/3 48/3/3
f 3/4/10 7/3/10 48/3/10 46/4/10
f 5/2/2 1/1/2 45/1/2 47/2/2
f 1/1/4 3/4/4 46/4/4 45/1/4
