# Blender 3.6.5
# www.blender.org
mtllib Poly_World_Map_Pyramid_01.mtl
o Grid.006
o Grid.001
v 0.000000 0.000000 -0.500000
v -0.500000 0.000000 0.000000
v 0.000000 0.000000 0.500000
v 0.500000 0.000000 0.000000
v 0.000000 0.521806 -0.004360
v -0.004360 0.521806 0.000000
v 0.000000 0.521806 0.004360
v 0.004360 0.521806 0.000000
vn 0.5870 0.5576 -0.5870
vn -0.5870 0.5576 0.5870
vn 0.5870 0.5576 0.5870
vn -0.5870 0.5576 -0.5870
vn -0.0000 1.0000 -0.0000
vt 0.155114 0.880240
vt 0.155114 0.924517
vt 0.182284 0.900422
vt 0.155114 0.880233
vt 0.128915 0.900422
s 0
usemtl Material.002
f 1/1/1 5/2/1 8/2/1 4/3/1
f 3/4/2 7/2/2 6/2/2 2/5/2
f 4/3/3 8/2/3 7/2/3 3/4/3
f 2/5/4 6/2/4 5/2/4 1/1/4
f 6/2/5 7/2/5 8/2/5 5/2/5
