# Blender 3.6.5
# www.blender.org
mtllib Poly_Mooring_Pole_03_Snow.mtl
o Icosphere
v 0.060000 0.000000 0.190000
v 0.171608 0.179659 0.124700
v -0.065561 0.179659 0.201763
v -0.212141 0.179660 0.000014
v -0.065561 0.179659 -0.201735
v 0.171608 0.179659 -0.124672
v 0.075499 0.417638 0.232411
v -0.197699 0.417638 0.143642
v -0.197699 0.417638 -0.143614
v 0.075499 0.417638 -0.232383
v 0.244347 0.417637 0.000014
v -0.000010 0.541710 0.000014
v -0.060000 0.000000 -0.200000
v 0.170000 0.000000 -0.120000
v 0.062335 0.161037 0.191887
v 0.201738 0.161038 0.000014
v -0.210000 0.000000 0.000000
v -0.060000 0.000000 0.200000
v -0.163228 0.161037 0.118598
v 0.170000 0.000000 0.120000
v -0.163228 0.161037 -0.118570
v 0.062335 0.161037 -0.191859
v 0.259818 0.295458 0.084436
v 0.259818 0.295458 -0.084408
v -0.000010 0.295458 0.273213
v 0.160573 0.295458 0.221037
v -0.259838 0.295458 0.084436
v -0.160593 0.295458 0.221037
v -0.160593 0.295458 -0.221009
v -0.259838 0.295458 -0.084408
v 0.160573 0.295458 -0.221009
v -0.000010 0.295458 -0.273185
v 0.188003 0.439089 0.136613
v -0.071826 0.439089 0.221035
v -0.232406 0.439089 0.000014
v -0.071826 0.439089 -0.221007
v 0.188003 0.439089 -0.136585
v 0.044373 0.527856 0.136612
v 0.143619 0.527855 0.000014
v -0.116208 0.527856 0.084436
v -0.116208 0.527856 -0.084408
v 0.044373 0.527856 -0.136584
v 0.200000 0.000000 0.000000
v -0.160000 0.000000 0.120000
v -0.160000 0.000000 -0.120000
v 0.060000 0.000000 -0.190000
vn 0.8087 -0.5210 0.2732
vn -0.0100 -0.5210 0.8535
vn -0.8148 -0.5210 0.2543
vn -0.4936 -0.5210 -0.6964
vn 0.5097 -0.5210 -0.6846
vn 0.7480 -0.3809 0.5435
vn -0.2857 -0.3809 0.8794
vn -0.9246 -0.3809 -0.0000
vn -0.2857 -0.3809 -0.8794
vn 0.7480 -0.3809 -0.5435
vn 0.4089 0.6617 0.6284
vn -0.4713 0.6617 0.5831
vn -0.7002 0.6617 -0.2680
vn 0.0385 0.6617 -0.7488
vn 0.7240 0.6617 -0.1947
vn 0.0958 0.9930 -0.0696
vn 0.4911 0.7947 -0.3568
vn 0.4089 0.6617 -0.6284
vn -0.0366 0.9930 -0.1126
vn -0.1876 0.7947 -0.5773
vn -0.4713 0.6617 -0.5831
vn -0.1184 0.9930 -0.0000
vn -0.6071 0.7947 -0.0000
vn -0.7002 0.6617 0.2680
vn -0.0366 0.9930 0.1126
vn -0.1876 0.7947 0.5773
vn 0.0385 0.6617 0.7488
vn 0.0958 0.9930 0.0696
vn 0.4911 0.7947 0.3568
vn 0.7240 0.6617 0.1947
vn 0.8897 0.3304 -0.3151
vn 0.7947 0.1876 -0.5773
vn 0.5746 0.3304 -0.7488
vn -0.0247 0.3304 -0.9435
vn -0.3035 0.1876 -0.9342
vn -0.5346 0.3304 -0.7779
vn -0.9050 0.3304 -0.2680
vn -0.9822 0.1876 -0.0000
vn -0.9050 0.3304 0.2680
vn -0.5346 0.3304 0.7779
vn -0.3035 0.1876 0.9342
vn -0.0247 0.3304 0.9435
vn 0.5746 0.3304 0.7488
vn 0.7947 0.1876 0.5773
vn 0.8897 0.3304 0.3151
vn 0.3066 0.1256 -0.9435
vn 0.2837 -0.3966 -0.8730
vn -0.0100 -0.5210 -0.8535
vn -0.8026 0.1256 -0.5831
vn -0.7427 -0.3966 -0.5396
vn -0.8148 -0.5210 -0.2543
vn -0.8026 0.1256 0.5831
vn -0.7427 -0.3966 0.5396
vn -0.4936 -0.5210 0.6964
vn 0.3066 0.1256 0.9435
vn 0.2837 -0.3966 0.8730
vn 0.5097 -0.5210 0.6846
vn 0.9921 0.1256 -0.0000
vn 0.9180 -0.3966 -0.0000
vn 0.8087 -0.5210 -0.2732
vn -0.6355 -0.0172 0.7719
vn 0.0792 -0.0099 0.9968
vn -0.0000 -1.0000 -0.0000
vn -0.9240 -0.0129 -0.3821
vn -0.6355 -0.0171 -0.7719
vn 0.5316 -0.0225 0.8467
vn 0.0792 -0.0098 -0.9968
vn 0.9708 -0.0128 -0.2395
vn -0.9240 -0.0130 0.3821
vn 0.5316 -0.0224 -0.8467
vn 0.9708 -0.0128 0.2395
vt 0.793001 0.404339
vt 0.794910 0.411637
vt 0.798589 0.406696
vt 0.777977 0.399829
vt 0.786079 0.400407
vt 0.782130 0.395647
vt 0.768692 0.411637
vt 0.771791 0.404696
vt 0.765671 0.406696
vt 0.777977 0.423446
vt 0.771791 0.418578
vt 0.771958 0.424574
vt 0.793001 0.418935
vt 0.786079 0.422868
vt 0.792302 0.424574
vt 0.792302 0.398701
vt 0.771958 0.398701
vt 0.765671 0.416578
vt 0.782130 0.427628
vt 0.798589 0.416578
vt 0.786913 0.398035
vt 0.794040 0.403642
vt 0.784941 0.403642
vt 0.769607 0.403231
vt 0.777581 0.398701
vt 0.774769 0.406696
vt 0.769607 0.420044
vt 0.767408 0.411637
vt 0.774769 0.416578
vt 0.786913 0.425240
vt 0.777581 0.424574
vt 0.784941 0.419632
vt 0.797609 0.411637
vt 0.794040 0.419632
vt 0.791228 0.411637
vt 0.782130 0.411637
vt 0.777483 0.394596
vt 0.770335 0.394596
vt 0.770492 0.386916
vt 0.777890 0.382129
vt 0.786843 0.394596
vt 0.786672 0.382129
vt 0.768019 0.395232
vt 0.763984 0.395232
vt 0.800297 0.395232
vt 0.796262 0.395232
vt 0.792227 0.395232
vt 0.788193 0.395232
vt 0.784158 0.395232
vt 0.780123 0.395232
vt 0.776088 0.395232
vt 0.772053 0.395232
vt 0.766756 0.394596
vt 0.766832 0.386916
vt 0.794840 0.394596
vt 0.794643 0.386916
vt 0.797045 0.394596
vt 0.796838 0.386916
s 0
usemtl Material
f 2/1/1 16/2/1 23/3/1
f 3/4/2 15/5/2 25/6/2
f 4/7/3 19/8/3 27/9/3
f 5/10/4 21/11/4 29/12/4
f 6/13/5 22/14/5 31/15/5
f 2/1/6 23/3/6 26/16/6
f 3/4/7 25/6/7 28/17/7
f 4/7/8 27/9/8 30/18/8
f 5/10/9 29/12/9 32/19/9
f 6/13/10 31/15/10 24/20/10
f 7/21/11 33/22/11 38/23/11
f 8/24/12 34/25/12 40/26/12
f 9/27/13 35/28/13 41/29/13
f 10/30/14 36/31/14 42/32/14
f 11/33/15 37/34/15 39/35/15
f 39/35/16 42/32/16 12/36/16
f 39/35/17 37/34/17 42/32/17
f 37/34/18 10/30/18 42/32/18
f 42/32/19 41/29/19 12/36/19
f 42/32/20 36/31/20 41/29/20
f 36/31/21 9/27/21 41/29/21
f 41/29/22 40/26/22 12/36/22
f 41/29/23 35/28/23 40/26/23
f 35/28/24 8/24/24 40/26/24
f 40/26/25 38/23/25 12/36/25
f 40/26/26 34/25/26 38/23/26
f 34/25/27 7/21/27 38/23/27
f 38/23/28 39/35/28 12/36/28
f 38/23/29 33/22/29 39/35/29
f 33/22/30 11/33/30 39/35/30
f 24/20/31 37/34/31 11/33/31
f 24/20/32 31/15/32 37/34/32
f 31/15/33 10/30/33 37/34/33
f 32/19/34 36/31/34 10/30/34
f 32/19/35 29/12/35 36/31/35
f 29/12/36 9/27/36 36/31/36
f 30/18/37 35/28/37 9/27/37
f 30/18/38 27/9/38 35/28/38
f 27/9/39 8/24/39 35/28/39
f 28/17/40 34/25/40 8/24/40
f 28/17/41 25/6/41 34/25/41
f 25/6/42 7/21/42 34/25/42
f 26/16/43 33/22/43 7/21/43
f 26/16/44 23/3/44 33/22/44
f 23/3/45 11/33/45 33/22/45
f 31/15/46 32/19/46 10/30/46
f 31/15/47 22/14/47 32/19/47
f 22/14/48 5/10/48 32/19/48
f 29/12/49 30/18/49 9/27/49
f 29/12/50 21/11/50 30/18/50
f 21/11/51 4/7/51 30/18/51
f 27/9/52 28/17/52 8/24/52
f 27/9/53 19/8/53 28/17/53
f 19/8/54 3/4/54 28/17/54
f 25/6/55 26/16/55 7/21/55
f 25/6/56 15/5/56 26/16/56
f 15/5/57 2/1/57 26/16/57
f 23/3/58 24/20/58 11/33/58
f 23/3/59 16/2/59 24/20/59
f 16/2/60 6/13/60 24/20/60
f 3/37/61 19/38/61 44/39/61 18/40/61
f 15/41/62 3/37/62 18/40/62 1/42/62
f 20/43/63 1/44/63 18/45/63 44/46/63 17/47/63 45/48/63 13/49/63 46/50/63 14/51/63 43/52/63
f 4/53/64 21/38/64 45/39/64 17/54/64
f 21/38/65 5/37/65 13/40/65 45/39/65
f 2/55/66 15/41/66 1/42/66 20/56/66
f 5/37/67 22/41/67 46/42/67 13/40/67
f 6/55/68 16/57/68 43/58/68 14/56/68
f 19/38/69 4/53/69 17/54/69 44/39/69
f 22/41/70 6/55/70 14/56/70 46/42/70
f 16/57/71 2/55/71 20/56/71 43/58/71
o Icosphere.001
v -0.233586 0.061986 0.023590
v -0.233586 0.109138 0.023590
v -0.233586 0.061986 -0.023562
v -0.233586 0.109138 -0.023562
v -0.241807 0.085562 0.031811
v -0.241807 0.085562 -0.031783
v -0.192022 0.052559 -0.032990
v -0.192022 0.118566 -0.032990
v -0.192022 0.052559 0.033018
v -0.192022 0.118566 0.033018
v -0.192022 0.085562 0.044525
v -0.192022 0.085562 -0.044497
v -0.243014 0.052559 0.000014
v -0.243014 0.118566 0.000014
v -0.254521 0.085562 0.000014
v -0.192022 0.130923 0.000014
v -0.192022 0.040202 0.000014
v 0.233586 0.061986 0.023590
v 0.233586 0.109138 0.023590
v 0.233586 0.061986 -0.023562
v 0.233586 0.109138 -0.023562
v 0.241807 0.085562 0.031811
v 0.241807 0.085562 -0.031783
v 0.192022 0.052559 -0.032990
v 0.192022 0.118566 -0.032990
v 0.192022 0.052559 0.033018
v 0.192022 0.118566 0.033018
v 0.192022 0.085562 0.044525
v 0.192022 0.085562 -0.044497
v 0.243014 0.052559 0.000014
v 0.243014 0.118566 0.000014
v 0.254521 0.085562 0.000014
v 0.192022 0.130923 0.000014
v 0.192022 0.040202 0.000014
vn -0.8465 0.3530 -0.3986
vn -0.2546 0.3512 0.9010
vn -0.2484 0.8894 0.3838
vn -0.2546 -0.3512 0.9010
vn -0.8465 -0.3530 -0.3986
vn -0.2546 -0.3512 -0.9010
vn -0.2484 -0.8894 0.3838
vn -0.2546 0.3512 -0.9010
vn -0.2484 -0.8894 -0.3838
vn -0.8465 -0.3530 0.3986
vn -0.2484 0.8894 -0.3838
vn -0.8465 0.3530 0.3986
vn 0.8465 0.3530 -0.3986
vn 0.2546 0.3512 0.9010
vn 0.2484 0.8894 0.3838
vn 0.2546 -0.3512 0.9010
vn 0.8465 -0.3530 -0.3986
vn 0.2546 -0.3512 -0.9010
vn 0.2484 -0.8894 0.3838
vn 0.2546 0.3512 -0.9010
vn 0.2484 -0.8894 -0.3838
vn 0.8465 -0.3530 0.3986
vn 0.2484 0.8894 -0.3838
vn 0.8465 0.3530 0.3986
vt 0.783035 0.389777
vt 0.780064 0.389777
vt 0.780064 0.385966
vt 0.783035 0.385966
vt 0.783035 0.390309
vt 0.783035 0.385434
s 0
usemtl Material
f 61/59/72 60/60/72 50/61/72 52/62/72
f 57/63/73 56/60/73 48/61/73 51/64/73
f 62/63/74 60/60/74 48/61/74 56/64/74
f 55/60/75 57/63/75 51/64/75 47/61/75
f 59/60/76 61/59/76 52/62/76 49/61/76
f 49/61/77 52/64/77 58/63/77 53/60/77
f 59/60/78 63/63/78 55/64/78 47/61/78
f 52/64/79 50/61/79 54/60/79 58/63/79
f 49/61/80 53/64/80 63/63/80 59/60/80
f 47/61/81 51/62/81 61/59/81 59/60/81
f 54/64/82 50/61/82 60/60/82 62/63/82
f 51/62/83 48/61/83 60/60/83 61/59/83
f 78/59/84 69/62/84 67/61/84 77/60/84
f 74/63/85 68/64/85 65/61/85 73/60/85
f 79/63/86 73/64/86 65/61/86 77/60/86
f 72/60/87 64/61/87 68/64/87 74/63/87
f 76/60/88 66/61/88 69/62/88 78/59/88
f 66/61/89 70/60/89 75/63/89 69/64/89
f 76/60/90 64/61/90 72/64/90 80/63/90
f 69/64/91 75/63/91 71/60/91 67/61/91
f 66/61/92 76/60/92 80/63/92 70/64/92
f 64/61/93 76/60/93 78/59/93 68/62/93
f 71/64/94 79/63/94 77/60/94 67/61/94
f 68/62/95 78/59/95 77/60/95 65/61/95
o Icosphere.002
v -0.023590 0.061986 -0.233586
v -0.023590 0.109138 -0.233586
v 0.023562 0.061986 -0.233586
v 0.023562 0.109138 -0.233586
v -0.031811 0.085562 -0.241807
v 0.031783 0.085562 -0.241807
v 0.032990 0.052559 -0.192022
v 0.032990 0.118566 -0.192022
v -0.033018 0.052559 -0.192022
v -0.033018 0.118566 -0.192022
v -0.044525 0.085562 -0.192022
v 0.044497 0.085562 -0.192022
v -0.000014 0.052559 -0.243014
v -0.000014 0.118566 -0.243014
v -0.000014 0.085562 -0.254521
v -0.000014 0.130923 -0.192022
v -0.000014 0.040202 -0.192022
v -0.023590 0.061986 0.233586
v -0.023590 0.109138 0.233586
v 0.023562 0.061986 0.233586
v 0.023562 0.109138 0.233586
v -0.031811 0.085562 0.241807
v 0.031783 0.085562 0.241807
v 0.032990 0.052559 0.192022
v 0.032990 0.118566 0.192022
v -0.033018 0.052559 0.192022
v -0.033018 0.118566 0.192022
v -0.044525 0.085562 0.192022
v 0.044497 0.085562 0.192022
v -0.000014 0.052559 0.243014
v -0.000014 0.118566 0.243014
v -0.000014 0.085562 0.254521
v -0.000014 0.130923 0.192022
v -0.000014 0.040202 0.192022
vn 0.3986 0.3530 -0.8465
vn -0.9010 0.3512 -0.2546
vn -0.3838 0.8894 -0.2484
vn -0.9010 -0.3512 -0.2546
vn 0.3986 -0.3530 -0.8465
vn 0.9010 -0.3512 -0.2546
vn -0.3838 -0.8894 -0.2484
vn 0.9010 0.3512 -0.2546
vn 0.3838 -0.8894 -0.2484
vn -0.3986 -0.3530 -0.8465
vn 0.3838 0.8894 -0.2484
vn -0.3986 0.3530 -0.8465
vn 0.3986 0.3530 0.8465
vn -0.9010 0.3512 0.2546
vn -0.3838 0.8894 0.2484
vn -0.9010 -0.3512 0.2546
vn 0.3986 -0.3530 0.8465
vn 0.9010 -0.3512 0.2546
vn -0.3838 -0.8894 0.2484
vn 0.9010 0.3512 0.2546
vn 0.3838 -0.8894 0.2484
vn -0.3986 -0.3530 0.8465
vn 0.3838 0.8894 0.2484
vn -0.3986 0.3530 0.8465
vt 0.783035 0.389777
vt 0.780064 0.389777
vt 0.780064 0.385966
vt 0.783035 0.385966
vt 0.783035 0.390309
vt 0.783035 0.385434
s 0
usemtl Material
f 95/65/96 94/66/96 84/67/96 86/68/96
f 91/69/97 90/66/97 82/67/97 85/70/97
f 96/69/98 94/66/98 82/67/98 90/70/98
f 89/66/99 91/69/99 85/70/99 81/67/99
f 93/66/100 95/65/100 86/68/100 83/67/100
f 83/67/101 86/70/101 92/69/101 87/66/101
f 93/66/102 97/69/102 89/70/102 81/67/102
f 86/70/103 84/67/103 88/66/103 92/69/103
f 83/67/104 87/70/104 97/69/104 93/66/104
f 81/67/105 85/68/105 95/65/105 93/66/105
f 88/70/106 84/67/106 94/66/106 96/69/106
f 85/68/107 82/67/107 94/66/107 95/65/107
f 112/65/108 103/68/108 101/67/108 111/66/108
f 108/69/109 102/70/109 99/67/109 107/66/109
f 113/69/110 107/70/110 99/67/110 111/66/110
f 106/66/111 98/67/111 102/70/111 108/69/111
f 110/66/112 100/67/112 103/68/112 112/65/112
f 100/67/113 104/66/113 109/69/113 103/70/113
f 110/66/114 98/67/114 106/70/114 114/69/114
f 103/70/115 109/69/115 105/66/115 101/67/115
f 100/67/116 110/66/116 114/69/116 104/70/116
f 98/67/117 110/66/117 112/65/117 102/68/117
f 105/70/118 113/69/118 111/66/118 101/67/118
f 102/68/119 112/65/119 111/66/119 99/67/119
