# Blender 3.6.5
# www.blender.org
mtllib Poly_SF_Outside_B_Traffic_Light_01_Red.mtl
o Cube.004
v 0.349787 2.671883 0.170000
v 0.379787 2.611883 0.170000
v 0.349787 2.551883 0.170000
v 0.289787 2.671883 0.200000
v 0.289787 2.611883 0.210000
v 0.289787 2.551883 0.200000
v 0.289787 2.531883 0.170000
v 0.289787 2.701883 0.170000
v 0.229787 2.671883 0.170000
v 0.209787 2.611883 0.170000
v 0.229787 2.551883 0.170000
vn 0.3333 0.6667 0.6667
vn 0.2673 -0.8018 0.5345
vn 0.4161 0.1783 0.8917
vn 0.4161 -0.1783 0.8917
vn -0.4423 -0.1474 0.8847
vn -0.3333 0.6667 0.6667
vn -0.2673 -0.8018 0.5345
vn -0.4423 0.1474 0.8847
vt 0.093886 0.655631
vt 0.091202 0.656743
vt 0.091202 0.655631
vt 0.091202 0.656767
vt 0.093886 0.655656
vt 0.091202 0.655656
vt 0.094997 0.652948
vt 0.091202 0.652948
vt 0.087407 0.652948
vt 0.088518 0.655656
vt 0.088518 0.655631
s 0
usemtl Material
f 1/1/1 8/2/1 4/3/1
f 7/4/2 3/5/2 6/6/2
f 2/7/3 1/1/3 4/3/3 5/8/3
f 3/5/4 2/7/4 5/8/4 6/6/4
f 6/6/5 5/8/5 10/9/5 11/10/5
f 4/3/6 8/2/6 9/11/6
f 7/4/7 6/6/7 11/10/7
f 5/8/8 4/3/8 9/11/8 10/9/8
