# Blender 3.6.5
# www.blender.org
mtllib Poly_Mooring_Pole_02.mtl
o Icosphere.003
v 0.060000 0.000000 0.190000
v 0.170000 0.180000 0.120000
v -0.065561 0.179659 0.201763
v -0.212141 0.179660 0.000014
v -0.065561 0.179659 -0.201735
v 0.170000 0.180000 -0.120000
v 0.075499 0.417638 0.232411
v -0.197699 0.417638 0.143642
v -0.197699 0.417638 -0.143614
v 0.075499 0.417638 -0.232383
v 0.244347 0.417637 0.000014
v -0.000010 0.541710 0.000014
v -0.060000 0.000000 -0.200000
v 0.170000 0.000000 -0.120000
v 0.062335 0.161037 0.191887
v 0.201738 0.161038 0.000014
v -0.210000 0.000000 -0.000000
v -0.060000 0.000000 0.200000
v -0.160000 0.160000 0.120000
v 0.178471 -0.001296 0.084718
v -0.160000 0.160000 -0.120000
v 0.062335 0.161037 -0.191859
v 0.259818 0.295458 0.084436
v 0.259818 0.295458 -0.084408
v -0.000010 0.295458 0.273213
v 0.160573 0.295458 0.221037
v -0.259838 0.295458 0.084436
v -0.160593 0.295458 0.221037
v -0.160593 0.295458 -0.221009
v -0.259838 0.295458 -0.084408
v 0.160573 0.295458 -0.221009
v -0.000010 0.295458 -0.273185
v 0.188003 0.439089 0.136613
v -0.071826 0.439089 0.221035
v -0.232406 0.439088 0.000014
v -0.071826 0.439089 -0.221007
v 0.188003 0.439089 -0.136585
v 0.044373 0.527856 0.136612
v 0.143619 0.527855 0.000014
v -0.116208 0.527856 0.084436
v -0.116208 0.527856 -0.084408
v 0.044373 0.527856 -0.136584
v 0.200000 0.000000 -0.000000
v -0.160000 0.000000 0.120000
v -0.160000 0.000000 -0.120000
v 0.060000 0.000000 -0.190000
v 0.195000 0.100000 -0.138000
v 0.194907 0.100271 0.137606
v -0.068918 0.100271 -0.229455
v -0.240978 0.100271 -0.000042
v -0.184000 0.100000 -0.138000
v -0.183625 0.100271 0.137606
v -0.068918 0.100271 0.229372
v 0.229319 0.100271 -0.000042
v 0.068730 0.100271 -0.217985
v 0.068730 0.100271 0.217901
v 0.194907 0.042917 -0.137690
v 0.194907 0.042917 0.137606
v -0.068918 0.042917 -0.229455
v -0.183625 0.042917 -0.137690
v -0.183625 0.042917 0.137606
v -0.068918 0.042917 0.229372
v 0.068730 0.042917 -0.217985
v 0.068730 0.042917 0.217901
v -0.240978 0.042917 -0.000042
v 0.229319 0.042917 -0.000042
v -0.242535 0.158187 -0.000032
v 0.230583 0.144648 -0.000032
v 0.195000 0.158000 -0.138000
v 0.195000 0.158000 0.138000
v -0.072961 0.158186 -0.230716
v -0.183625 0.143893 -0.137690
v -0.183625 0.143893 0.137606
v -0.072961 0.158186 0.230653
v 0.070000 0.145000 -0.219000
v 0.070427 0.144647 0.219273
v 0.201420 0.149862 0.000011
v 0.170000 0.165353 -0.120000
v 0.170000 0.165353 0.120000
v 0.061907 0.149862 -0.191519
v 0.061907 0.149862 0.191542
v -0.211749 0.165076 0.000011
v -0.064543 0.165075 -0.201417
v -0.160000 0.149015 -0.120000
v -0.160000 0.149015 0.120000
v -0.064543 0.165075 0.201440
v -0.060000 0.039024 -0.200000
v -0.160000 0.039024 -0.120000
v -0.160000 0.039024 0.120000
v -0.060000 0.039024 0.200000
v -0.210000 0.039024 -0.000000
v 0.170000 0.038971 -0.120000
v 0.170000 0.038971 0.120000
v 0.060000 0.038971 -0.190000
v 0.060000 0.038971 0.190000
v 0.200000 0.038971 -0.000000
v 0.102138 0.112604 -0.179363
v 0.039361 0.096161 -0.232423
v 0.195000 0.100000 -0.138000
v 0.051222 0.090772 -0.241371
v 0.195000 0.126000 -0.138000
v 0.055003 0.115260 -0.246439
v 0.195000 0.158000 -0.138000
v 0.047603 0.128481 -0.247738
v 0.070000 0.145000 -0.219000
v 0.034187 0.134358 -0.243647
v 0.089711 0.145989 -0.188201
v 0.022362 0.128481 -0.236102
v 0.085748 0.135723 -0.177705
v 0.018545 0.115260 -0.229631
v 0.091206 0.121925 -0.174374
v 0.025945 0.102038 -0.228332
v 0.012978 0.048512 -0.279011
v 0.025987 0.051201 -0.293028
v 0.031769 0.065483 -0.304672
v 0.025987 0.083816 -0.306520
v 0.012978 0.095622 -0.298499
v -0.000031 0.092933 -0.284482
v -0.005813 0.078652 -0.272838
v -0.000031 0.060318 -0.270990
v -0.060175 0.026029 -0.317885
v -0.061338 0.026927 -0.339165
v -0.063810 0.041780 -0.354273
v -0.066210 0.062950 -0.353247
v -0.067212 0.078061 -0.338227
v -0.066049 0.077163 -0.316948
v -0.063577 0.062310 -0.301840
v -0.061177 0.041140 -0.302865
v -0.148747 0.001337 -0.305438
v -0.139905 0.010140 -0.323163
v -0.135975 0.034462 -0.331041
v -0.139905 0.049756 -0.323163
v -0.148747 0.058560 -0.305438
v -0.157588 0.049756 -0.287713
v -0.161518 0.029948 -0.279835
v -0.157588 0.010140 -0.287713
v -0.185286 0.004727 -0.380892
v -0.165003 0.013876 -0.384411
v -0.155988 0.034462 -0.385975
v -0.165003 0.055048 -0.384411
v -0.185286 0.064198 -0.380892
v -0.205569 0.055048 -0.377373
v -0.214583 0.034462 -0.375809
v -0.205569 0.013876 -0.377373
v -0.168927 0.001393 -0.442514
v -0.148507 0.010946 -0.435802
v -0.139431 0.032441 -0.432820
v -0.148507 0.053936 -0.435802
v -0.168927 0.063489 -0.442514
v -0.189348 0.053936 -0.449225
v -0.198423 0.032441 -0.452208
v -0.189348 0.010946 -0.449225
v -0.097526 0.001636 -0.497703
v -0.084040 0.014349 -0.472477
v -0.078046 0.042953 -0.461266
v -0.084040 0.071558 -0.472477
v -0.097526 0.084271 -0.497703
v -0.111012 0.071558 -0.522928
v -0.117006 0.042953 -0.534140
v -0.111012 0.014349 -0.522928
v -0.050008 0.043240 -0.526230
v -0.049440 0.043776 -0.525168
v -0.049188 0.044980 -0.524695
v -0.049440 0.046184 -0.525168
v -0.050008 0.046719 -0.526230
v -0.050576 0.046184 -0.527291
v -0.050828 0.044980 -0.527763
v -0.050576 0.043776 -0.527291
vn -0.1783 0.2560 0.9501
vn -0.2857 -0.3809 0.8794
vn -0.7787 -0.4625 -0.4239
vn -0.4939 -0.5212 -0.6960
vn 0.5329 -0.5321 -0.6580
vn 0.7382 -0.4091 0.5364
vn 0.1589 -0.4561 -0.8756
vn -0.9246 -0.3809 -0.0000
vn -0.2857 -0.3809 -0.8794
vn 0.7383 -0.4090 -0.5364
vn -0.0853 0.7430 -0.6639
vn -0.4713 0.6617 0.5831
vn 0.4592 0.7430 -0.4870
vn -0.0853 0.7430 0.6639
vn 0.7240 0.6617 -0.1947
vn 0.0958 0.9930 -0.0696
vn 0.4592 0.7430 0.4870
vn -0.0366 0.9930 -0.1126
vn -0.4713 0.6617 -0.5831
vn -0.1184 0.9930 -0.0000
vn -0.7002 0.6617 0.2680
vn -0.0366 0.9930 0.1126
vn 0.0958 0.9930 0.0696
vn 0.7240 0.6617 0.1947
vn 0.8485 0.2560 0.4631
vn 0.5746 0.3304 -0.7488
vn -0.9587 0.2560 0.1241
vn -0.5346 0.3304 -0.7779
vn -0.9050 0.3304 -0.2680
vn 0.8485 0.2560 -0.4631
vn -0.5346 0.3304 0.7779
vn -0.1783 0.2560 -0.9501
vn 0.5746 0.3304 0.7488
vn -0.6577 0.7430 -0.1241
vn 0.3066 0.1256 -0.9435
vn 0.8791 -0.4595 0.1268
vn -0.8026 0.1256 -0.5831
vn 0.1589 -0.4561 0.8756
vn -0.8026 0.1256 0.5831
vn -0.4940 -0.5212 0.6959
vn 0.3066 0.1256 0.9435
vn 0.5330 -0.5322 0.6578
vn 0.9921 0.1256 -0.0000
vn 0.7962 -0.5287 -0.2941
vn -0.6247 -0.0000 0.7809
vn -0.0010 -1.0000 -0.0008
vn -0.9231 -0.0000 -0.3846
vn -0.6247 -0.0000 -0.7809
vn 0.5838 -0.2773 0.7630
vn 0.9701 -0.0000 -0.2425
vn -0.9231 -0.0000 0.3846
vn 0.5369 -0.0000 -0.8437
vn 0.9697 -0.0050 0.2441
vn 0.9690 -0.0138 0.2467
vn 0.5399 -0.0150 -0.8416
vn -0.9214 -0.0142 0.3884
vn 0.9692 -0.0119 -0.2461
vn 0.5424 -0.0240 0.8398
vn -0.6313 -0.0300 -0.7749
vn -0.9220 -0.0095 -0.3872
vn -0.6324 -0.0349 0.7739
vn 0.9701 -0.0000 0.2425
vn 0.5360 -0.0027 -0.8442
vn 0.9703 -0.0014 -0.2420
vn 0.5369 -0.0000 0.8437
vn -0.6234 -0.0042 -0.7819
vn -0.9237 -0.0041 -0.3832
vn 0.0676 -0.5794 -0.8122
vn 0.1187 0.9722 -0.2019
vn 0.0676 -0.5783 0.8130
vn 0.0814 -0.0199 -0.9965
vn 0.0799 -0.0240 0.9965
vn 0.0830 -0.0000 0.9965
vn 0.0743 -0.0238 -0.9969
vn -0.2238 0.9699 0.0956
vn -0.1553 0.9711 -0.1811
vn -0.2236 0.9700 -0.0954
vn 0.0370 0.9702 0.2395
vn 0.1197 0.9712 0.2062
vn 0.2403 0.9696 0.0460
vn -0.1558 0.9710 0.1813
vn 0.0352 0.9713 -0.2353
vn 0.2402 0.9696 -0.0460
vn 0.0830 -0.0000 -0.9965
vn 0.9666 -0.0119 0.2561
vn 0.5556 -0.0202 -0.8312
vn 0.9666 -0.0119 -0.2560
vn 0.5557 -0.0203 0.8311
vn -0.9184 -0.0141 0.3955
vn -0.6474 -0.0352 -0.7613
vn -0.9184 -0.0140 -0.3954
vn -0.6475 -0.0354 0.7612
vn -0.1246 -0.9909 0.0519
vn -0.0843 -0.9908 -0.1054
vn -0.1244 -0.9909 -0.0519
vn -0.0845 -0.9908 0.1057
vn 0.1334 -0.9905 0.0333
vn 0.0742 -0.9904 -0.1165
vn 0.1333 -0.9905 -0.0333
vn 0.0743 -0.9904 0.1168
vn 0.0743 -0.0242 0.9969
vn -0.2996 -0.7958 0.5262
vn 0.5991 -0.1243 -0.7910
vn 0.5963 0.0746 -0.7993
vn 0.3251 0.6880 -0.6488
vn -0.3828 0.9033 0.1939
vn -0.5806 0.5943 0.5565
vn 0.2122 0.7479 -0.6289
vn -0.5905 -0.1450 0.7939
vn -0.2652 -0.7709 0.5791
vn -0.3846 0.2590 0.8860
vn -0.1108 -0.6690 0.7349
vn -0.7265 -0.2392 0.6441
vn -0.5475 0.7716 -0.3240
vn 0.7986 0.2805 -0.5325
vn -0.9026 0.4072 0.1399
vn 0.9381 -0.3034 -0.1671
vn -0.4374 -0.0719 0.8964
vn -0.2321 0.9725 0.0210
vn 0.4415 0.0728 -0.8943
vn -0.1592 -0.6885 0.7076
vn -0.4712 0.6250 0.6224
vn 0.1931 0.6941 -0.6935
vn 0.4852 -0.6207 -0.6159
vn -0.1433 -0.4969 -0.8559
vn 0.3096 -0.7212 0.6197
vn 0.2385 -0.1709 0.9560
vn -0.1881 0.9611 0.2021
vn -0.3588 0.1622 -0.9192
vn 0.0517 0.5504 0.8333
vn -0.3933 0.6821 -0.6164
vn 0.8774 -0.3268 -0.3512
vn -0.9008 -0.3935 -0.1836
vn -0.8243 -0.3653 0.4325
vn -0.3702 0.8950 0.2488
vn 0.8625 0.3946 -0.3169
vn 0.3891 -0.8940 -0.2221
vn -0.4200 -0.8902 0.1765
vn -0.8089 0.3667 0.4597
vn 0.4488 0.8839 -0.1317
vn 0.4592 -0.3673 0.8089
vn -0.4076 0.9063 -0.1119
vn 0.8777 0.3868 0.2830
vn 0.4009 -0.9009 0.1665
vn -0.4130 -0.9089 -0.0582
vn -0.8968 0.3924 -0.2042
vn 0.4085 0.9068 0.1041
vn 0.8691 -0.3841 0.3118
vn 0.3298 -0.7604 -0.5595
vn -0.6279 -0.3811 -0.6786
vn -0.4004 0.8946 -0.1986
vn 0.3662 0.3540 0.8606
vn 0.2609 -0.8996 0.3502
vn -0.2709 -0.9005 -0.3402
vn -0.6786 0.3819 -0.6275
vn 0.0946 0.8609 0.4998
vn 0.8819 -0.0000 -0.4715
vn 0.0793 0.3493 -0.9336
vn 0.6367 0.7696 0.0475
vn 0.8630 -0.3306 0.3821
vn 0.1005 -0.3448 -0.9333
vn 0.2893 0.7837 -0.5497
vn 0.8535 0.3352 0.3990
vn 0.6655 -0.7462 0.0203
vn -0.7786 -0.4626 0.4240
vn 0.3746 -0.7823 0.4977
vn 0.2042 -0.9586 -0.1983
vn 0.2813 -0.9596 -0.0031
vt 0.656111 0.956243
vt 0.660870 0.958815
vt 0.651585 0.959532
vt 0.645990 0.959532
vt 0.651980 0.960747
vt 0.646027 0.981027
vt 0.642741 0.973463
vt 0.639734 0.978784
vt 0.645990 0.987394
vt 0.651980 0.986179
vt 0.666827 0.981027
vt 0.660041 0.985556
vt 0.666233 0.987394
vt 0.666827 0.965900
vt 0.672488 0.968142
vt 0.666233 0.959532
vt 0.656111 0.990682
vt 0.639734 0.968142
vt 0.672488 0.978784
vt 0.651585 0.987394
vt 0.648787 0.978784
vt 0.658909 0.982072
vt 0.660870 0.988111
vt 0.643651 0.964410
vt 0.648787 0.968142
vt 0.667962 0.982073
vt 0.665164 0.973463
vt 0.658909 0.964853
vt 0.671513 0.973463
vt 0.656111 0.973463
vt 0.667962 0.964853
vt 0.643651 0.982516
vt 0.641463 0.973463
vt 0.668827 0.973463
vt 0.660041 0.961369
vt 0.646027 0.965900
vt 0.650049 0.946436
vt 0.658218 0.946436
vt 0.658218 0.942927
vt 0.650049 0.942927
vt 0.653854 0.942927
vt 0.662488 0.942927
vt 0.658197 0.942927
vt 0.650028 0.942927
vt 0.662488 0.946436
vt 0.658197 0.946436
vt 0.650028 0.946436
vt 0.653854 0.946436
vt 0.658197 0.946436
vt 0.649951 0.953261
vt 0.658105 0.954260
vt 0.658185 0.951780
vt 0.650031 0.951780
vt 0.658105 0.953261
vt 0.649951 0.954261
vt 0.658185 0.947408
vt 0.650031 0.947408
vt 0.658185 0.946436
vt 0.658185 0.942927
vt 0.650031 0.942927
vt 0.650031 0.946436
vt 0.649951 0.955641
vt 0.658105 0.954261
vt 0.650049 0.947408
vt 0.653854 0.947408
vt 0.658165 0.955183
vt 0.650067 0.956243
vt 0.650067 0.951780
vt 0.658165 0.951780
vt 0.653728 0.957125
vt 0.653749 0.956142
vt 0.649940 0.957556
vt 0.649922 0.958837
vt 0.649951 0.955651
vt 0.649951 0.955611
vt 0.658105 0.955600
vt 0.658105 0.955590
vt 0.662487 0.957211
vt 0.658218 0.958803
vt 0.658218 0.957515
vt 0.662487 0.956228
vt 0.658197 0.958793
vt 0.658197 0.957505
vt 0.653747 0.957135
vt 0.653769 0.956153
vt 0.658218 0.957044
vt 0.662487 0.958848
vt 0.662487 0.957566
vt 0.658218 0.956078
vt 0.658197 0.957034
vt 0.649920 0.958838
vt 0.658197 0.956068
vt 0.649940 0.958848
vt 0.649960 0.957566
vt 0.658168 0.950417
vt 0.650138 0.950417
vt 0.650138 0.948355
vt 0.658168 0.948355
vt 0.658256 0.948270
vt 0.650147 0.948270
vt 0.650147 0.950408
vt 0.658256 0.950408
vt 0.658794 0.949955
vt 0.657324 0.946572
vt 0.653891 0.945219
vt 0.650509 0.946690
vt 0.649156 0.950122
vt 0.650626 0.953506
vt 0.654059 0.954858
vt 0.657442 0.953387
vt 0.654980 0.949010
vt 0.655416 0.950013
vt 0.655015 0.951031
vt 0.654011 0.951468
vt 0.652993 0.951066
vt 0.652557 0.950063
vt 0.652958 0.949045
vt 0.653961 0.948608
s 0
usemtl Material.001
f 25/1/1 7/2/1 34/3/1 28/4/1
f 28/4/2 3/5/2 25/1/2
f 21/6/3 4/7/3 30/8/3 29/9/3
f 5/10/4 21/6/4 29/9/4
f 6/11/5 22/12/5 31/13/5
f 2/14/6 23/15/6 26/16/6
f 22/12/7 5/10/7 32/17/7 31/13/7
f 4/7/8 27/18/8 30/8/8
f 5/10/9 29/9/9 32/17/9
f 6/11/10 31/13/10 24/19/10
f 36/20/11 41/21/11 42/22/11 10/23/11
f 8/24/12 34/3/12 40/25/12
f 37/26/13 10/23/13 42/22/13 39/27/13
f 34/3/14 7/2/14 38/28/14 40/25/14
f 11/29/15 37/26/15 39/27/15
f 39/27/16 42/22/16 12/30/16
f 33/31/17 39/27/17 38/28/17 7/2/17
f 42/22/18 41/21/18 12/30/18
f 36/20/19 9/32/19 41/21/19
f 41/21/20 40/25/20 12/30/20
f 35/33/21 8/24/21 40/25/21
f 40/25/22 38/28/22 12/30/22
f 38/28/23 39/27/23 12/30/23
f 33/31/24 11/29/24 39/27/24
f 23/15/25 11/29/25 33/31/25 26/16/25
f 31/13/26 10/23/26 37/26/26
f 27/18/27 8/24/27 35/33/27 30/8/27
f 29/9/28 9/32/28 36/20/28
f 30/8/29 35/33/29 9/32/29
f 24/19/30 31/13/30 37/26/30 11/29/30
f 28/4/31 34/3/31 8/24/31
f 32/17/32 29/9/32 36/20/32 10/23/32
f 26/16/33 33/31/33 7/2/33
f 35/33/34 40/25/34 41/21/34 9/32/34
f 31/13/35 32/17/35 10/23/35
f 16/34/36 24/19/36 23/15/36 2/14/36
f 29/9/37 30/8/37 9/32/37
f 15/35/38 26/16/38 25/1/38 3/5/38
f 27/18/39 28/4/39 8/24/39
f 19/36/40 3/5/40 28/4/40
f 25/1/41 26/16/41 7/2/41
f 15/35/42 2/14/42 26/16/42
f 23/15/43 24/19/43 11/29/43
f 16/34/44 6/11/44 24/19/44
f 90/37/45 89/38/45 44/39/45 18/40/45
f 20/39/46 1/41/46 18/40/46 44/39/46 17/42/46 45/43/46 13/44/46 46/41/46 14/43/46 43/42/46
f 91/45/47 88/46/47 45/43/47 17/42/47
f 88/46/48 87/47/48 13/44/48 45/43/48
f 93/38/49 95/48/49 1/41/49 20/39/49
f 92/49/50 96/45/50 43/42/50 14/43/50
f 89/38/51 91/45/51 17/42/51 44/39/51
f 94/48/52 92/49/52 14/43/52 46/41/52
f 96/45/53 93/38/53 20/39/53 43/42/53
f 68/50/54 70/51/54 48/52/54 54/53/54
f 75/50/55 69/51/55 47/52/55 55/53/55
f 73/54/56 67/55/56 50/53/56 52/52/56
f 69/51/57 68/50/57 54/53/57 47/52/57
f 70/51/58 76/50/58 56/53/58 48/52/58
f 72/54/59 71/55/59 49/53/59 51/52/59
f 67/55/60 72/54/60 51/52/60 50/53/60
f 74/55/61 73/54/61 52/52/61 53/53/61
f 54/53/62 48/52/62 58/56/62 66/57/62
f 55/53/63 47/52/63 57/56/63 63/57/63
f 52/52/51 50/53/51 65/57/51 61/56/51
f 47/52/64 54/53/64 66/57/64 57/56/64
f 48/52/65 56/53/65 64/57/65 58/56/65
f 51/52/66 49/53/66 59/57/66 60/56/66
f 50/53/67 51/52/67 60/56/67 65/57/67
f 53/53/45 52/52/45 61/56/45 62/57/45
f 63/56/68 94/58/68 46/59/68 13/60/68 87/61/68 59/57/68
f 83/62/69 80/63/69 75/54/69 71/55/69
f 62/64/70 90/37/70 18/40/70 1/41/70 95/48/70 64/65/70
f 71/55/71 75/54/71 55/52/71 49/53/71
f 76/66/72 74/67/72 53/68/72 56/69/72
f 53/53/73 62/57/73 64/56/73 56/52/73
f 22/70/74 80/71/74 83/72/74 5/73/74
f 86/74/75 85/63/75 73/54/75 74/55/75
f 82/75/76 84/63/76 72/54/76 67/55/76
f 84/63/77 83/62/77 71/55/77 72/54/77
f 79/76/78 81/63/78 76/54/78 70/51/78
f 81/63/79 86/74/79 74/55/79 76/54/79
f 78/77/80 77/55/80 68/50/80 69/51/80
f 85/63/81 82/75/81 67/55/81 73/54/81
f 80/63/82 78/77/82 69/51/82 75/54/82
f 77/55/83 79/76/83 70/51/83 68/50/83
f 55/52/84 63/56/84 59/57/84 49/53/84
f 16/78/85 2/79/85 79/80/85 77/81/85
f 22/70/86 6/82/86 78/83/86 80/71/86
f 6/82/87 16/78/87 77/81/87 78/83/87
f 2/79/88 15/84/88 81/85/88 79/80/88
f 19/86/89 4/87/89 82/88/89 85/89/89
f 21/90/90 5/91/90 83/72/90 84/92/90
f 4/87/91 21/90/91 84/92/91 82/88/91
f 3/93/92 19/86/92 85/89/92 86/94/92
f 61/56/93 65/57/93 91/61/93 89/58/93
f 60/56/94 59/57/94 87/61/94 88/58/94
f 65/57/95 60/56/95 88/58/95 91/61/95
f 62/57/96 61/56/96 89/58/96 90/61/96
f 66/57/97 58/56/97 93/58/97 96/61/97
f 63/56/98 57/56/98 92/58/98 94/58/98
f 57/56/99 66/57/99 96/61/99 92/58/99
f 58/56/100 64/56/100 95/58/100 93/58/100
f 15/84/101 3/93/101 86/94/101 81/85/101
f 97/95/102 98/96/102 100/97/102 99/98/102
f 99/98/103 100/97/103 102/96/103 101/95/103
f 101/95/104 102/96/104 104/97/104 103/98/104
f 103/98/105 104/97/105 106/96/105 105/95/105
f 105/95/106 106/96/106 108/97/106 107/98/106
f 107/98/107 108/97/107 110/96/107 109/95/107
f 104/99/108 116/100/108 117/101/108 106/102/108
f 109/95/109 110/96/109 112/97/109 111/98/109
f 111/98/110 112/97/110 98/96/110 97/95/110
f 97/103/111 99/104/111 101/105/111 103/106/111 105/107/111 107/108/111 109/109/111 111/110/111
f 112/99/112 120/100/112 113/101/112 98/102/112
f 112/99/113 110/102/113 119/101/113 120/100/113
f 106/102/114 117/101/114 118/100/114 108/99/114
f 102/102/115 115/101/115 116/100/115 104/99/115
f 108/99/116 118/100/116 119/101/116 110/102/116
f 100/99/117 114/100/117 115/101/117 102/102/117
f 119/102/118 127/101/118 128/100/118 120/99/118
f 117/102/119 125/101/119 126/100/119 118/99/119
f 115/102/120 123/101/120 124/100/120 116/99/120
f 120/99/121 128/100/121 121/101/121 113/102/121
f 119/102/122 118/99/122 126/100/122 127/101/122
f 116/99/123 124/100/123 125/101/123 117/102/123
f 114/99/124 122/100/124 123/101/124 115/102/124
f 122/100/125 130/99/125 131/102/125 123/101/125
f 128/100/126 136/99/126 129/102/126 121/101/126
f 128/100/127 127/101/127 135/102/127 136/99/127
f 125/101/128 133/102/128 134/99/128 126/100/128
f 123/101/129 131/102/129 132/99/129 124/100/129
f 126/100/130 134/99/130 135/102/130 127/101/130
f 124/100/131 132/99/131 133/102/131 125/101/131
f 131/102/132 130/99/132 138/100/132 139/101/132
f 144/99/133 143/102/133 151/101/133 152/100/133
f 136/99/134 135/102/134 143/101/134 144/100/134
f 134/99/135 133/102/135 141/101/135 142/100/135
f 132/99/136 131/102/136 139/101/136 140/100/136
f 130/99/137 129/102/137 137/101/137 138/100/137
f 129/102/138 136/99/138 144/100/138 137/101/138
f 135/102/139 134/99/139 142/100/139 143/101/139
f 133/102/140 132/99/140 140/100/140 141/101/140
f 147/102/141 146/99/141 154/100/141 155/101/141
f 142/99/142 141/102/142 149/101/142 150/100/142
f 140/99/143 139/102/143 147/101/143 148/100/143
f 138/99/144 137/102/144 145/101/144 146/100/144
f 137/102/145 144/99/145 152/100/145 145/101/145
f 143/102/146 142/99/146 150/100/146 151/101/146
f 141/102/147 140/99/147 148/100/147 149/101/147
f 139/102/148 138/99/148 146/100/148 147/101/148
f 153/102/149 160/99/149 168/100/149 161/101/149
f 152/99/150 151/102/150 159/101/150 160/100/150
f 150/99/151 149/102/151 157/101/151 158/100/151
f 148/99/152 147/102/152 155/101/152 156/100/152
f 146/99/153 145/102/153 153/101/153 154/100/153
f 145/102/154 152/99/154 160/100/154 153/101/154
f 151/102/155 150/99/155 158/100/155 159/101/155
f 149/102/156 148/99/156 156/100/156 157/101/156
f 162/111/157 161/112/157 168/113/157 167/114/157 166/115/157 165/116/157 164/117/157 163/118/157
f 159/102/158 158/99/158 166/100/158 167/101/158
f 157/102/159 156/99/159 164/100/159 165/101/159
f 155/102/160 154/99/160 162/100/160 163/101/160
f 160/99/161 159/102/161 167/101/161 168/100/161
f 158/99/162 157/102/162 165/101/162 166/100/162
f 156/99/163 155/102/163 163/101/163 164/100/163
f 154/99/164 153/102/164 161/101/164 162/100/164
f 19/36/165 28/4/165 27/18/165 4/7/165
f 98/102/166 113/101/166 114/100/166 100/99/166
f 121/101/167 129/102/167 130/99/167 122/100/167
f 113/102/168 121/101/168 122/100/168 114/99/168
l 87 94
l 90 95
