# Blender 3.6.5
# www.blender.org
mtllib Poly_SF_Outside_B_Hole_01.mtl
o Cube
v -0.440000 -0.680000 0.440000
v -0.440000 0.050000 0.440000
v -0.440000 -0.680000 -0.440000
v -0.440000 0.050000 -0.440000
v 0.440000 -0.680000 0.440000
v 0.440000 0.050000 0.440000
v 0.440000 -0.680000 -0.440000
v 0.440000 0.050000 -0.440000
v -0.440000 -0.100000 0.440000
v -0.440000 -0.100000 -0.440000
v 0.440000 -0.100000 -0.440000
v 0.440000 -0.100000 0.440000
v -0.500000 0.050000 0.500000
v -0.500000 0.050000 -0.500000
v 0.500000 0.050000 0.500000
v 0.500000 0.050000 -0.500000
v -0.500000 0.000000 0.500000
v -0.500000 0.000000 -0.500000
v 0.500000 0.000000 0.500000
v 0.500000 0.000000 -0.500000
vn 1.0000 -0.0000 -0.0000
vn -0.0000 -0.0000 1.0000
vn -1.0000 -0.0000 -0.0000
vn -0.0000 -0.0000 -1.0000
vn -0.0000 1.0000 -0.0000
vt 0.941905 0.045687
vt 0.995925 0.045687
vt 0.995925 0.054460
vt 0.941905 0.054460
vt 0.941905 0.002874
vt 0.995925 0.002874
vt 0.995925 0.002874
vt 0.941905 0.002874
vt 0.995091 0.368613
vt 0.943392 0.368613
vt 0.938526 0.374917
vt 0.999957 0.374917
vt 0.995037 0.369610
vt 0.953233 0.369610
vt 0.953233 0.364615
vt 0.995037 0.364615
vt 0.895251 0.011090
s 0
usemtl Material
f 9/1/1 10/2/1 4/3/1 2/4/1
f 10/2/2 11/1/2 8/4/2 4/3/2
f 11/2/3 12/1/3 6/4/3 8/3/3
f 12/1/4 9/2/4 2/3/4 6/4/4
f 5/5/4 1/6/4 9/2/4 12/1/4
f 7/7/3 5/8/3 12/1/3 11/2/3
f 3/6/2 7/5/2 11/1/2 10/2/2
f 1/8/1 3/7/1 10/2/1 9/1/1
f 8/9/5 6/10/5 15/11/5 16/12/5
f 2/9/5 4/10/5 14/11/5 13/12/5
f 6/9/5 2/10/5 13/11/5 15/12/5
f 4/10/5 8/9/5 16/12/5 14/11/5
f 15/13/2 13/14/2 17/15/2 19/16/2
f 14/14/4 16/13/4 20/16/4 18/15/4
f 16/13/1 15/14/1 19/15/1 20/16/1
f 13/14/3 14/13/3 18/16/3 17/15/3
f 3/17/5 1/17/5 5/17/5 7/17/5
