# Blender 3.6.5
# www.blender.org
mtllib Poly_SF_Outside_B_Stall_Goods_04.mtl
o Cube.001
v -0.068000 0.000000 -0.200000
v 0.000000 0.000000 -0.132000
v 0.000000 0.050000 -0.132000
v -0.068000 0.050000 -0.200000
v -0.400000 0.000000 -0.132000
v -0.333000 0.000000 -0.200000
v -0.333000 0.050000 -0.200000
v -0.400000 0.050000 -0.132000
v -0.333000 0.000000 0.200000
v -0.400000 0.000000 0.132000
v -0.400000 0.050000 0.132000
v -0.333000 0.050000 0.200000
v 0.000000 0.000000 0.132000
v -0.068000 0.000000 0.200000
v -0.068000 0.050000 0.200000
v 0.000000 0.050000 0.132000
v -0.068000 0.050000 -0.200000
v 0.000000 0.050000 -0.132000
v 0.000000 0.100000 -0.132000
v -0.068000 0.100000 -0.200000
v -0.400000 0.050000 -0.132000
v -0.332000 0.050000 -0.200000
v -0.332000 0.100000 -0.200000
v -0.400000 0.100000 -0.132000
v -0.332000 0.050000 0.200000
v -0.400000 0.050000 0.132000
v -0.400000 0.100000 0.132000
v -0.332000 0.100000 0.200000
v 0.000000 0.050000 0.132000
v -0.068000 0.050000 0.200000
v -0.068000 0.100000 0.200000
v 0.000000 0.100000 0.132000
v 0.332000 0.000000 -0.200000
v 0.400000 0.000000 -0.132000
v 0.400000 0.050000 -0.132000
v 0.332000 0.050000 -0.200000
v 0.000000 0.000000 -0.132000
v 0.067000 0.000000 -0.200000
v 0.067000 0.050000 -0.200000
v 0.000000 0.050000 -0.132000
v 0.067000 0.000000 0.200000
v 0.000000 0.000000 0.132000
v 0.000000 0.050000 0.132000
v 0.067000 0.050000 0.200000
v 0.400000 0.000000 0.132000
v 0.332000 0.000000 0.200000
v 0.332000 0.050000 0.200000
v 0.400000 0.050000 0.132000
v 0.332000 0.050000 -0.200000
v 0.400000 0.050000 -0.132000
v 0.400000 0.100000 -0.132000
v 0.332000 0.100000 -0.200000
v 0.000000 0.050000 -0.132000
v 0.068000 0.050000 -0.200000
v 0.068000 0.100000 -0.200000
v 0.000000 0.100000 -0.132000
v 0.068000 0.050000 0.200000
v 0.000000 0.050000 0.132000
v 0.000000 0.100000 0.132000
v 0.068000 0.100000 0.200000
v 0.400000 0.050000 0.132000
v 0.332000 0.050000 0.200000
v 0.332000 0.100000 0.200000
v 0.400000 0.100000 0.132000
vn -0.0000 -0.0000 -1.0000
vn -0.0000 -1.0000 -0.0000
vn -0.0000 1.0000 -0.0000
vn 0.7071 -0.0000 -0.7071
vn 1.0000 -0.0000 -0.0000
vn -0.7123 -0.0000 -0.7018
vn -0.7123 -0.0000 0.7018
vn -1.0000 -0.0000 -0.0000
vn 0.7071 -0.0000 0.7071
vn -0.0000 -0.0000 1.0000
vn -0.7071 -0.0000 -0.7071
vn -0.7071 -0.0000 0.7071
vt 0.700203 0.126481
vt 0.700203 0.128631
vt 0.713634 0.128631
vt 0.713634 0.126481
vt 0.696161 0.143903
vt 0.699672 0.146818
vt 0.713453 0.146818
vt 0.716964 0.143903
vt 0.716964 0.133355
vt 0.713453 0.130441
vt 0.699672 0.130441
vt 0.696161 0.133355
vt 0.717055 0.128631
vt 0.717055 0.126481
vt 0.700203 0.128631
vt 0.713634 0.126481
vt 0.696782 0.128631
vt 0.696782 0.126481
vt 0.713634 0.128631
vt 0.701916 0.131425
vt 0.701916 0.129115
vt 0.714556 0.129115
vt 0.714556 0.131425
vt 0.723733 0.126529
vt 0.723733 0.128679
vt 0.737164 0.128679
vt 0.737164 0.126529
vt 0.719691 0.143903
vt 0.723201 0.146818
vt 0.736983 0.146818
vt 0.740493 0.143903
vt 0.740493 0.133355
vt 0.736983 0.130441
vt 0.723201 0.130441
vt 0.719691 0.133355
vt 0.740585 0.128679
vt 0.740585 0.126529
vt 0.723733 0.128679
vt 0.737164 0.126529
vt 0.720312 0.128679
vt 0.720312 0.126529
vt 0.737164 0.128679
vt 0.724157 0.131425
vt 0.724157 0.129115
vt 0.736870 0.129115
vt 0.736870 0.131425
s 0
usemtl regular
f 6/1/1 7/2/1 4/3/1 1/4/1
f 5/5/2 6/6/2 1/7/2 2/8/2 13/9/2 14/10/2 9/11/2 10/12/2
f 3/8/3 4/7/3 7/6/3 8/5/3 11/12/3 12/11/3 15/10/3 16/9/3
f 3/13/4 2/14/4 1/4/4 4/3/4
f 2/1/5 3/15/5 16/3/5 13/16/5
f 7/2/6 6/1/6 5/1/6 8/2/6
f 9/1/7 12/2/7 11/17/7 10/18/7
f 10/4/8 11/19/8 8/2/8 5/1/8
f 15/19/9 14/4/9 13/16/9 16/3/9
f 14/4/10 15/19/10 12/2/10 9/1/10
f 22/20/1 23/21/1 20/22/1 17/23/1
f 21/5/2 22/6/2 17/7/2 18/8/2 29/9/2 30/10/2 25/11/2 26/12/2
f 19/8/3 20/7/3 23/6/3 24/5/3 27/12/3 28/11/3 31/10/3 32/9/3
f 19/21/4 18/20/4 17/23/4 20/22/4
f 18/20/5 19/21/5 32/22/5 29/23/5
f 23/21/11 22/20/11 21/20/11 24/21/11
f 25/20/12 28/21/12 27/22/12 26/23/12
f 26/23/8 27/22/8 24/21/8 21/20/8
f 31/22/9 30/23/9 29/23/9 32/22/9
f 30/22/10 31/23/10 28/20/10 25/21/10
f 38/24/1 39/25/1 36/26/1 33/27/1
f 37/28/2 38/29/2 33/30/2 34/31/2 45/32/2 46/33/2 41/34/2 42/35/2
f 35/31/3 36/30/3 39/29/3 40/28/3 43/35/3 44/34/3 47/33/3 48/32/3
f 35/36/4 34/37/4 33/27/4 36/26/4
f 34/24/5 35/38/5 48/26/5 45/39/5
f 39/25/6 38/24/6 37/24/6 40/25/6
f 41/24/7 44/25/7 43/40/7 42/41/7
f 42/4/8 43/19/8 40/2/8 37/1/8
f 47/42/9 46/27/9 45/39/9 48/26/9
f 46/27/10 47/42/10 44/25/10 41/24/10
f 54/43/1 55/44/1 52/45/1 49/46/1
f 53/28/2 54/29/2 49/30/2 50/31/2 61/32/2 62/33/2 57/34/2 58/35/2
f 51/31/3 52/30/3 55/29/3 56/28/3 59/35/3 60/34/3 63/33/3 64/32/3
f 51/44/4 50/43/4 49/46/4 52/45/4
f 50/43/5 51/44/5 64/45/5 61/46/5
f 55/44/11 54/43/11 53/43/11 56/44/11
f 57/43/12 60/44/12 59/45/12 58/46/12
f 58/23/8 59/22/8 56/21/8 53/20/8
f 63/45/9 62/46/9 61/46/9 64/45/9
f 62/45/10 63/46/10 60/43/10 57/44/10
