# Blender 3.6.5
# www.blender.org
mtllib Poly_Bridge_Wood_01_Horizontal.mtl
o Cube.002
v -0.599598 0.258000 0.378630
v 0.600402 0.258000 0.378630
v -0.599598 0.191000 0.255799
v 0.600402 0.191000 0.255799
v -0.599598 0.058000 0.255799
v 0.600402 0.058000 0.255799
v -0.599598 -0.008000 0.378630
v 0.600402 -0.008000 0.378630
v -0.599598 0.058000 0.500401
v 0.600402 0.058000 0.500401
v -0.599598 0.191000 0.500401
v 0.600402 0.191000 0.500401
v -0.599598 0.258000 0.126445
v 0.600402 0.258000 0.126445
v -0.599598 0.191000 0.003615
v 0.600402 0.191000 0.003615
v -0.599598 0.058000 0.003615
v 0.600402 0.058000 0.003615
v -0.599598 -0.008000 0.126445
v 0.600402 -0.008000 0.126445
v -0.599598 0.058000 0.248217
v 0.600402 0.058000 0.248217
v -0.599598 0.191000 0.248217
v 0.600402 0.191000 0.248217
v -0.599598 0.258000 -0.125739
v 0.600402 0.258000 -0.125739
v -0.599598 0.191000 -0.248570
v 0.600402 0.191000 -0.248570
v -0.599598 0.058000 -0.248570
v 0.600402 0.058000 -0.248570
v -0.599598 -0.008000 -0.125739
v 0.600402 -0.008000 -0.125739
v -0.599598 0.058000 -0.003968
v 0.600402 0.058000 -0.003968
v -0.599598 0.191000 -0.003968
v 0.600402 0.191000 -0.003968
v -0.599598 0.258000 -0.377924
v 0.600402 0.258000 -0.377924
v -0.599598 0.191000 -0.500754
v 0.600402 0.191000 -0.500754
v -0.599598 0.058000 -0.500754
v 0.600402 0.058000 -0.500754
v -0.599598 -0.008000 -0.377924
v 0.600402 -0.008000 -0.377924
v -0.599598 0.058000 -0.256152
v 0.600402 0.058000 -0.256152
v -0.599598 0.191000 -0.256152
v 0.600402 0.191000 -0.256152
vn -0.0000 0.8779 -0.4789
vn -0.0000 -0.0000 -1.0000
vn -0.0000 -0.8809 -0.4733
vn -0.0000 -0.8792 0.4765
vn 1.0000 -0.0000 -0.0000
vn -0.0000 -0.0000 1.0000
vn -0.0000 0.8761 0.4821
vn -1.0000 -0.0000 -0.0000
vt 0.062192 0.358950
vt 0.000207 0.358950
vt 0.000207 0.344339
vt 0.062192 0.344339
vt 0.106497 0.317960
vt 0.103445 0.323245
vt 0.097342 0.323245
vt 0.094290 0.317960
vt 0.097342 0.312674
vt 0.103445 0.312674
vt 0.103446 0.323245
vt 0.106497 0.317959
vt 0.103446 0.312674
vt 0.097342 0.312674
vt 0.094291 0.317959
vt 0.097342 0.323245
s 0
usemtl Material.001
f 1/1/1 2/2/1 4/3/1 3/4/1
f 3/4/2 4/3/2 6/2/2 5/1/2
f 5/1/3 6/2/3 8/3/3 7/4/3
f 7/4/4 8/3/4 10/2/4 9/1/4
f 4/5/5 2/6/5 12/7/5 10/8/5 8/9/5 6/10/5
f 9/1/6 10/2/6 12/3/6 11/4/6
f 11/4/7 12/3/7 2/2/7 1/1/7
f 1/11/8 3/12/8 5/13/8 7/14/8 9/15/8 11/16/8
f 13/1/1 14/2/1 16/3/1 15/4/1
f 15/4/2 16/3/2 18/2/2 17/1/2
f 17/1/3 18/2/3 20/3/3 19/4/3
f 19/4/4 20/3/4 22/2/4 21/1/4
f 16/5/5 14/6/5 24/7/5 22/8/5 20/9/5 18/10/5
f 21/1/6 22/2/6 24/3/6 23/4/6
f 23/4/7 24/3/7 14/2/7 13/1/7
f 13/11/8 15/12/8 17/13/8 19/14/8 21/15/8 23/16/8
f 25/1/1 26/2/1 28/3/1 27/4/1
f 27/4/2 28/3/2 30/2/2 29/1/2
f 29/1/3 30/2/3 32/3/3 31/4/3
f 31/4/4 32/3/4 34/2/4 33/1/4
f 28/5/5 26/6/5 36/7/5 34/8/5 32/9/5 30/10/5
f 33/1/6 34/2/6 36/3/6 35/4/6
f 35/4/7 36/3/7 26/2/7 25/1/7
f 25/11/8 27/12/8 29/13/8 31/14/8 33/15/8 35/16/8
f 37/1/1 38/2/1 40/3/1 39/4/1
f 39/4/2 40/3/2 42/2/2 41/1/2
f 41/1/3 42/2/3 44/3/3 43/4/3
f 43/4/4 44/3/4 46/2/4 45/1/4
f 40/5/5 38/6/5 48/7/5 46/8/5 44/9/5 42/10/5
f 45/1/6 46/2/6 48/3/6 47/4/6
f 47/4/7 48/3/7 38/2/7 37/1/7
f 37/11/8 39/12/8 41/13/8 43/14/8 45/15/8 47/16/8
