# Blender 3.6.5
# www.blender.org
mtllib Poly_SF_Outside_B_Stairs_02_Right.mtl
o Cube.001
v -0.500000 0.000000 -0.500000
v -0.500000 0.500000 -0.500000
v 0.500000 0.000000 -0.500000
v -0.300000 0.500000 -0.500000
v 0.500000 0.100000 -0.500000
v -0.300000 0.420000 -0.500000
v -0.140000 0.420000 -0.500000
v -0.140000 0.340000 -0.500000
v 0.020000 0.340000 -0.500000
v 0.020000 0.260000 -0.500000
v 0.180000 0.260000 -0.500000
v 0.180000 0.180000 -0.500000
v 0.340000 0.180000 -0.500000
v 0.340000 0.100000 -0.500000
v -0.500000 -0.000000 0.020147
v -0.500000 0.500000 0.020147
v 0.500000 -0.000000 0.020147
v -0.300000 0.500000 0.020147
v -0.300000 0.420000 0.020147
v -0.140000 0.420000 0.020147
v -0.140000 0.340000 0.020147
v 0.020000 0.340000 0.020147
v 0.020000 0.260000 0.020147
v 0.180000 0.260000 0.020147
v 0.180000 0.180000 0.020147
v 0.340000 0.180000 0.020147
v 0.340000 0.100000 0.020147
v 0.500000 0.100000 0.020147
v -0.500000 -0.000000 0.540294
v -0.500000 0.500000 0.540295
v 0.500000 -0.000000 0.540294
v -0.300000 0.500000 0.540295
v 0.500000 0.100000 0.540294
v -0.300000 0.420000 0.540295
v -0.140000 0.420000 0.540295
v -0.140000 0.340000 0.540295
v 0.020000 0.340000 0.540295
v 0.020000 0.260000 0.540295
v 0.180000 0.260000 0.540295
v 0.180000 0.180000 0.540294
v 0.340000 0.180000 0.540294
v 0.340000 0.100000 0.540294
vn -1.0000 -0.0000 -0.0000
vn -0.0000 -0.0000 -1.0000
vn -0.0000 1.0000 -0.0000
vn 1.0000 -0.0000 -0.0000
vn -0.0000 -1.0000 -0.0000
vn -0.0000 -0.0000 1.0000
vt 0.977020 0.031046
vt 0.976959 0.055612
vt 0.941949 0.055612
vt 0.942010 0.031046
vt 0.812308 0.250068
vt 0.812308 0.267913
vt 0.824585 0.267913
vt 0.824585 0.265058
vt 0.834406 0.265058
vt 0.834406 0.262203
vt 0.844228 0.262203
vt 0.844228 0.259347
vt 0.854049 0.259347
vt 0.854049 0.256492
vt 0.863871 0.256492
vt 0.863871 0.253637
vt 0.873692 0.253637
vt 0.873692 0.250068
vt 0.864766 0.287647
vt 0.874919 0.287647
vt 0.874919 0.261838
vt 0.864766 0.261838
vt 0.822777 0.312359
vt 0.822777 0.284003
vt 0.812569 0.284003
vt 0.812569 0.312359
vt 0.823022 0.308451
vt 0.823022 0.283963
vt 0.828019 0.283971
vt 0.828019 0.308451
vt 0.833279 0.308451
vt 0.833321 0.278753
vt 0.822971 0.278761
vt 0.833372 0.301927
vt 0.833372 0.278740
vt 0.838447 0.278740
vt 0.838447 0.301927
vt 0.843716 0.301927
vt 0.843716 0.273497
vt 0.833372 0.273497
vt 0.843849 0.296663
vt 0.843849 0.274853
vt 0.848897 0.274853
vt 0.848897 0.296663
vt 0.854111 0.296663
vt 0.854111 0.268299
vt 0.843849 0.268299
vt 0.854310 0.291577
vt 0.854310 0.270952
vt 0.859238 0.270952
vt 0.859238 0.291577
vt 0.864523 0.291577
vt 0.864523 0.264425
vt 0.854310 0.264425
vt 0.864767 0.287647
vt 0.864767 0.266956
vt 0.869729 0.266956
vt 0.869729 0.287647
vt 0.817589 0.312359
vt 0.812569 0.312359
vt 0.812569 0.289171
vt 0.817589 0.289171
vt 0.876368 0.312359
vt 0.812569 0.293098
vt 0.876368 0.293098
s 0
usemtl Material
f 15/1/1 16/2/1 2/3/1 1/4/1
f 1/5/2 2/6/2 4/7/2 6/8/2 7/9/2 8/10/2 9/11/2 10/12/2 11/13/2 12/14/2 13/15/2 14/16/2 5/17/2 3/18/2
f 4/19/3 2/20/3 16/21/3 18/22/3
f 14/23/3 27/24/3 28/25/3 5/26/3
f 13/27/4 26/28/4 27/29/4 14/30/4
f 12/31/3 25/32/3 26/33/3 13/27/3
f 11/34/4 24/35/4 25/36/4 12/37/4
f 10/38/3 23/39/3 24/40/3 11/34/3
f 9/41/4 22/42/4 23/43/4 10/44/4
f 8/45/3 21/46/3 22/47/3 9/41/3
f 7/48/4 20/49/4 21/50/4 8/51/4
f 6/52/3 19/53/3 20/54/3 7/48/3
f 4/55/4 18/56/4 19/57/4 6/58/4
f 3/59/4 5/60/4 28/61/4 17/62/4
f 1/63/5 3/26/5 17/64/5 15/65/5
f 15/1/1 29/4/1 30/3/1 16/2/1
f 29/5/6 31/18/6 33/17/6 42/16/6 41/15/6 40/14/6 39/13/6 38/12/6 37/11/6 36/10/6 35/9/6 34/8/6 32/7/6 30/6/6
f 32/19/3 18/22/3 16/21/3 30/20/3
f 42/23/3 33/26/3 28/25/3 27/24/3
f 41/27/4 42/30/4 27/29/4 26/28/4
f 40/31/3 41/27/3 26/33/3 25/32/3
f 39/34/4 40/37/4 25/36/4 24/35/4
f 38/38/3 39/34/3 24/40/3 23/39/3
f 37/41/4 38/44/4 23/43/4 22/42/4
f 36/45/3 37/41/3 22/47/3 21/46/3
f 35/48/4 36/51/4 21/50/4 20/49/4
f 34/52/3 35/48/3 20/54/3 19/53/3
f 32/55/4 34/58/4 19/57/4 18/56/4
f 31/59/4 17/62/4 28/61/4 33/60/4
f 29/63/5 15/65/5 17/64/5 31/26/5
