# Blender 3.6.5
# www.blender.org
mtllib Poly_Bridge_Spar_01_Center_Connect.mtl
o Cube
v -0.500000 0.800000 -0.400000
v 0.500000 0.800000 -0.400000
v -0.500000 0.600000 -0.400000
v 0.500000 0.600000 -0.400000
v -0.500000 0.800000 -0.600000
v 0.500000 0.800000 -0.600000
v -0.500000 0.600000 -0.600000
v 0.500000 0.600000 -0.600000
v -0.500000 0.800000 0.400000
v 0.500000 0.800000 0.400000
v -0.500000 0.600000 0.400000
v 0.500000 0.600000 0.400000
v -0.500000 0.800000 0.600000
v 0.500000 0.800000 0.600000
v -0.500000 0.600000 0.600000
v 0.500000 0.600000 0.600000
vn -1.0000 -0.0000 -0.0000
vn -0.0000 -1.0000 -0.0000
vn -0.0000 -0.0000 -1.0000
vn 1.0000 -0.0000 -0.0000
vn -0.0000 -0.0000 1.0000
vn -0.0000 1.0000 -0.0000
vt 0.215592 0.312321
vt 0.202694 0.312321
vt 0.202694 0.300924
vt 0.215592 0.300924
vt 0.138745 0.312268
vt 0.216968 0.312268
vt 0.216968 0.300909
vt 0.138745 0.300909
vt 0.128266 0.300924
vt 0.115367 0.300924
vt 0.115367 0.312321
vt 0.128266 0.312321
vt 0.138745 0.312268
vt 0.216968 0.312268
vt 0.216968 0.300909
vt 0.138745 0.300909
vt 0.012018 0.327990
vt 0.050290 0.327990
vt 0.050290 0.313213
vt 0.012018 0.313213
vt 0.012018 0.313213
vt 0.012018 0.327990
vt 0.050290 0.327990
vt 0.050290 0.313213
s 0
usemtl Material
f 1/1/1 5/2/1 7/3/1 3/4/1
f 4/5/2 3/6/2 7/7/2 8/8/2
f 8/8/3 7/7/3 5/6/3 6/5/3
f 6/9/4 2/10/4 4/11/4 8/12/4
f 2/13/5 1/14/5 3/15/5 4/16/5
f 6/17/6 5/18/6 1/19/6 2/20/6
f 9/1/1 11/4/1 15/3/1 13/2/1
f 12/5/2 16/8/2 15/7/2 11/6/2
f 16/8/5 14/5/5 13/6/5 15/7/5
f 14/9/4 16/12/4 12/11/4 10/10/4
f 10/13/3 12/16/3 11/15/3 9/14/3
f 14/21/6 10/22/6 9/23/6 13/24/6
