# Blender 3.6.5
# www.blender.org
mtllib Poly_SF_Outside_B_Sorted_Waste_Bins_01.mtl
o Cube.004
v -0.700000 0.000000 0.200000
v -0.700000 0.600000 0.200000
v -0.700000 0.000000 -0.200000
v -0.700000 0.600000 -0.200000
v -0.230000 0.000000 0.200000
v -0.230000 0.600000 0.200000
v -0.230000 0.000000 -0.200000
v -0.230000 0.600000 -0.200000
v -0.230000 0.000000 0.200000
v -0.230000 0.600000 0.200000
v -0.230000 0.000000 -0.200000
v -0.230000 0.600000 -0.200000
v 0.230000 0.000000 0.200000
v 0.230000 0.600000 0.200000
v 0.230000 0.000000 -0.200000
v 0.230000 0.600000 -0.200000
v 0.230000 0.000000 0.200000
v 0.230000 0.600000 0.200000
v 0.230000 0.000000 -0.200000
v 0.230000 0.600000 -0.200000
v 0.700000 0.000000 0.200000
v 0.700000 0.600000 0.200000
v 0.700000 0.000000 -0.200000
v 0.700000 0.600000 -0.200000
vn -1.0000 -0.0000 -0.0000
vn -0.0000 -0.0000 -1.0000
vn 1.0000 -0.0000 -0.0000
vn -0.0000 -0.0000 1.0000
vn -0.0000 -1.0000 -0.0000
vn -0.0000 1.0000 -0.0000
vt 0.916096 0.937698
vt 0.916096 0.974961
vt 0.875781 0.974961
vt 0.875781 0.937698
vt 0.915820 0.939365
vt 0.915820 0.979192
vt 0.875992 0.979192
vt 0.875992 0.939365
vt 0.917411 0.999772
vt 0.875220 0.999772
vt 0.875220 0.975622
vt 0.917411 0.975622
vt 0.957939 0.999772
vt 0.917131 0.999772
vt 0.917131 0.975622
vt 0.957939 0.975622
vt 0.999768 0.999772
vt 0.957448 0.999772
vt 0.957448 0.975622
vt 0.999768 0.975622
s 0
usemtl regular
f 1/1/1 2/2/1 4/3/1 3/4/1
f 3/4/2 4/3/2 8/2/2 7/1/2
f 7/1/3 8/2/3 6/3/3 5/4/3
f 5/4/4 6/3/4 2/2/4 1/1/4
f 3/5/5 7/6/5 5/7/5 1/8/5
f 8/9/6 4/10/6 2/11/6 6/12/6
f 9/1/1 10/2/1 12/3/1 11/4/1
f 11/4/2 12/3/2 16/2/2 15/1/2
f 15/1/3 16/2/3 14/3/3 13/4/3
f 13/4/4 14/3/4 10/2/4 9/1/4
f 11/5/5 15/6/5 13/7/5 9/8/5
f 16/13/6 12/14/6 10/15/6 14/16/6
f 17/1/1 18/2/1 20/3/1 19/4/1
f 19/4/2 20/3/2 24/2/2 23/1/2
f 23/1/3 24/2/3 22/3/3 21/4/3
f 21/4/4 22/3/4 18/2/4 17/1/4
f 19/5/5 23/6/5 21/7/5 17/8/5
f 24/17/6 20/18/6 18/19/6 22/20/6
