# Blender 3.6.5
# www.blender.org
mtllib Poly_Light_Pole_Lamps_01_02.mtl
o Icosphere.001
v -0.000000 2.329646 0.238004
v 0.054957 2.329646 0.277932
v 0.033965 2.329646 0.342537
v -0.033965 2.329646 0.342537
v -0.054957 2.329646 0.277932
v -0.000000 2.422816 0.238004
v 0.054957 2.422816 0.277932
v 0.033965 2.422816 0.342537
v -0.033965 2.422816 0.342537
v -0.054957 2.422816 0.277932
v -0.000000 2.329646 -0.238004
v 0.054957 2.329646 -0.277932
v 0.033965 2.329646 -0.342537
v -0.033965 2.329646 -0.342537
v -0.054957 2.329646 -0.277932
v -0.000000 2.422816 -0.238004
v 0.054957 2.422816 -0.277932
v 0.033965 2.422816 -0.342537
v -0.033965 2.422816 -0.342537
v -0.054957 2.422816 -0.277932
vn -0.9511 -0.0000 0.3090
vn -0.0000 1.0000 -0.0000
vn -0.5878 -0.0000 -0.8090
vn 0.5878 -0.0000 -0.8090
vn 0.9511 -0.0000 0.3090
vn -0.0000 -0.0000 1.0000
vn -0.9511 -0.0000 -0.3090
vn -0.5878 -0.0000 0.8090
vn 0.5878 -0.0000 0.8090
vn 0.9511 -0.0000 -0.3090
vn -0.0000 -0.0000 -1.0000
vt 0.024985 0.877699
vt 0.037612 0.877699
vt 0.037612 0.884012
vt 0.024985 0.884012
vt 0.033745 0.882239
vt 0.030652 0.883213
vt 0.028770 0.880574
vt 0.030699 0.877967
vt 0.033773 0.878997
s 0
usemtl Material.003
f 5/1/1 4/2/1 9/3/1 10/4/1
f 7/5/2 6/6/2 10/7/2 9/8/2 8/9/2
f 1/2/3 5/1/3 10/4/3 6/3/3
f 2/1/4 1/2/4 6/3/4 7/4/4
f 3/1/5 2/2/5 7/3/5 8/4/5
f 4/2/6 3/1/6 8/4/6 9/3/6
f 15/1/7 20/4/7 19/3/7 14/2/7
f 17/5/2 18/9/2 19/8/2 20/7/2 16/6/2
f 11/2/8 16/3/8 20/4/8 15/1/8
f 12/1/9 17/4/9 16/3/9 11/2/9
f 13/1/10 18/4/10 17/3/10 12/2/10
f 14/2/11 19/3/11 18/4/11 13/1/11
o Icosphere.002
v 0.238004 2.329646 0.000000
v 0.277932 2.329646 -0.054957
v 0.342537 2.329646 -0.033965
v 0.342537 2.329646 0.033965
v 0.277932 2.329646 0.054957
v 0.238004 2.422816 0.000000
v 0.277932 2.422816 -0.054957
v 0.342537 2.422816 -0.033965
v 0.342537 2.422816 0.033965
v 0.277932 2.422816 0.054957
v -0.238004 2.329646 0.000000
v -0.277932 2.329646 -0.054957
v -0.342537 2.329646 -0.033965
v -0.342537 2.329646 0.033965
v -0.277932 2.329646 0.054957
v -0.238004 2.422816 0.000000
v -0.277932 2.422816 -0.054957
v -0.342537 2.422816 -0.033965
v -0.342537 2.422816 0.033965
v -0.277932 2.422816 0.054957
vn 0.3090 -0.0000 0.9511
vn -0.0000 1.0000 -0.0000
vn -0.8090 -0.0000 0.5878
vn -0.8090 -0.0000 -0.5878
vn 0.3090 -0.0000 -0.9511
vn 1.0000 -0.0000 -0.0000
vn -0.3090 -0.0000 0.9511
vn 0.8090 -0.0000 0.5878
vn 0.8090 -0.0000 -0.5878
vn -0.3090 -0.0000 -0.9511
vn -1.0000 -0.0000 -0.0000
vt 0.024985 0.877699
vt 0.037612 0.877699
vt 0.037612 0.884012
vt 0.024985 0.884012
vt 0.030631 0.883227
vt 0.028725 0.880603
vt 0.030631 0.877980
vt 0.033715 0.878982
vt 0.033715 0.882225
s 0
usemtl Material.003
f 25/10/12 24/11/12 29/12/12 30/13/12
f 27/14/13 26/15/13 30/16/13 29/17/13 28/18/13
f 21/11/14 25/10/14 30/13/14 26/12/14
f 22/10/15 21/11/15 26/12/15 27/13/15
f 23/10/16 22/11/16 27/12/16 28/13/16
f 24/11/17 23/10/17 28/13/17 29/12/17
f 35/10/18 40/13/18 39/12/18 34/11/18
f 37/14/13 38/18/13 39/17/13 40/16/13 36/15/13
f 31/11/19 36/12/19 40/13/19 35/10/19
f 32/10/20 37/13/20 36/12/20 31/11/20
f 33/10/21 38/13/21 37/12/21 32/11/21
f 34/11/22 39/12/22 38/13/22 33/10/22
