# Blender 3.6.5
# www.blender.org
mtllib Poly_SF_Outside_B_Stairs_01_Right.mtl
o Cube.003
v 0.500000 0.000000 -0.500000
v -0.500000 0.000000 -0.500000
v -0.500000 0.501000 -0.500000
v -0.376000 0.501000 -0.500000
v 0.500000 0.050000 -0.500000
v -0.376000 0.436000 -0.500000
v -0.250000 0.436000 -0.500000
v -0.250000 0.372000 -0.500000
v -0.126000 0.372000 -0.500000
v -0.126000 0.307000 -0.500000
v 0.001000 0.307000 -0.500000
v 0.001000 0.243000 -0.500000
v 0.125000 0.243000 -0.500000
v 0.125000 0.179000 -0.500000
v 0.249000 0.179000 -0.500000
v 0.249000 0.114000 -0.500000
v 0.376000 0.114000 -0.500000
v 0.376000 0.050000 -0.500000
v -0.500000 0.000000 0.000000
v -0.500000 0.501000 0.000000
v 0.500000 0.000000 0.000000
v -0.376000 0.501000 0.000000
v -0.376000 0.436000 0.000000
v -0.250000 0.436000 0.000000
v -0.250000 0.372000 0.000000
v -0.126000 0.372000 0.000000
v -0.126000 0.307000 0.000000
v 0.001000 0.307000 0.000000
v 0.001000 0.243000 0.000000
v 0.125000 0.243000 0.000000
v 0.125000 0.179000 0.000000
v 0.249000 0.179000 0.000000
v 0.249000 0.114000 0.000000
v 0.376000 0.114000 0.000000
v 0.376000 0.050000 0.000000
v 0.500000 0.050000 0.000000
v -0.126000 0.372000 -0.500000
v -0.126000 0.372000 0.000000
v 0.500000 0.000000 0.500000
v -0.500000 0.000000 0.500000
v -0.500000 0.501000 0.500000
v -0.376000 0.501000 0.500000
v 0.500000 0.050000 0.500000
v -0.376000 0.436000 0.500000
v -0.250000 0.436000 0.500000
v -0.250000 0.372000 0.500000
v -0.126000 0.372000 0.500000
v -0.126000 0.307000 0.500000
v 0.001000 0.307000 0.500000
v 0.001000 0.243000 0.500000
v 0.125000 0.243000 0.500000
v 0.125000 0.179000 0.500000
v 0.249000 0.179000 0.500000
v 0.249000 0.114000 0.500000
v 0.376000 0.114000 0.500000
v 0.376000 0.050000 0.500000
v -0.126000 0.372000 0.500000
vn -1.0000 -0.0000 -0.0000
vn -0.0000 -1.0000 -0.0000
vn -0.0000 -0.0000 -1.0000
vn 1.0000 -0.0000 -0.0000
vn -0.0000 1.0000 -0.0000
vn -0.0000 -0.0000 -0.0000
vn -0.0000 -0.0000 1.0000
vt 0.802106 0.312554
vt 0.802106 0.333311
vt 0.822904 0.333311
vt 0.822904 0.312554
vt 0.812530 0.369403
vt 0.812530 0.337278
vt 0.812055 0.312554
vt 0.812055 0.332171
vt 0.819849 0.332171
vt 0.819849 0.329626
vt 0.827769 0.329626
vt 0.827769 0.327120
vt 0.835563 0.327120
vt 0.835563 0.324575
vt 0.843546 0.324575
vt 0.843546 0.322069
vt 0.851340 0.322069
vt 0.851340 0.319563
vt 0.859134 0.319563
vt 0.859134 0.317018
vt 0.867117 0.317018
vt 0.867117 0.314512
vt 0.874911 0.314512
vt 0.874911 0.312554
vt 0.869834 0.316493
vt 0.874912 0.316493
vt 0.874912 0.335746
vt 0.869834 0.335746
vt 0.821602 0.337278
vt 0.821602 0.369403
vt 0.862056 0.320359
vt 0.862056 0.339611
vt 0.867134 0.339611
vt 0.867134 0.320359
vt 0.821651 0.337278
vt 0.821651 0.369403
vt 0.830724 0.369403
vt 0.830724 0.337278
vt 0.859317 0.323004
vt 0.859317 0.342256
vt 0.854240 0.342256
vt 0.854240 0.323004
vt 0.838552 0.326884
vt 0.838552 0.359009
vt 0.829480 0.359009
vt 0.829480 0.326884
vt 0.846393 0.326864
vt 0.846393 0.346117
vt 0.851470 0.346117
vt 0.851470 0.326864
vt 0.845077 0.321636
vt 0.845077 0.353761
vt 0.854149 0.353761
vt 0.854149 0.321636
vt 0.843647 0.329444
vt 0.843647 0.348696
vt 0.838570 0.348696
vt 0.838570 0.329444
vt 0.861948 0.317725
vt 0.861948 0.349850
vt 0.852875 0.349850
vt 0.852875 0.317725
vt 0.830745 0.332060
vt 0.830745 0.351313
vt 0.835823 0.351313
vt 0.835823 0.332060
vt 0.828027 0.334663
vt 0.828027 0.353915
vt 0.822949 0.353915
vt 0.822949 0.334663
vt 0.869788 0.315147
vt 0.869788 0.347272
vt 0.860716 0.347272
vt 0.860716 0.315147
vt 0.813886 0.337318
vt 0.813886 0.356570
vt 0.818964 0.356570
vt 0.818964 0.337318
vt 0.868509 0.315130
vt 0.868509 0.347255
vt 0.876197 0.347255
vt 0.876197 0.315130
vt 0.852915 0.317757
vt 0.852915 0.349882
vt 0.861987 0.349882
vt 0.861987 0.317757
s 0
usemtl Material
f 19/1/1 20/2/1 3/3/1 2/4/1
f 19/5/2 2/6/2 1/6/2 21/5/2
f 2/7/3 3/8/3 4/9/3 6/10/3 7/11/3 8/12/3 37/13/3 9/13/3 10/14/3 11/15/3 12/16/3 13/17/3 14/18/3 15/19/3 16/20/3 17/21/3 18/22/3 5/23/3 1/24/3
f 1/25/4 5/26/4 36/27/4 21/28/4
f 18/29/5 35/30/5 36/5/5 5/6/5
f 17/31/4 34/32/4 35/33/4 18/34/4
f 16/35/5 33/36/5 34/37/5 17/38/5
f 15/39/4 32/40/4 33/41/4 16/42/4
f 14/43/5 31/44/5 32/45/5 15/46/5
f 13/47/4 30/48/4 31/49/4 14/50/4
f 12/51/5 29/52/5 30/53/5 13/54/5
f 11/55/4 28/56/4 29/57/4 12/58/4
f 10/59/5 27/60/5 28/61/5 11/62/5
f 9/63/4 26/64/4 27/65/4 10/66/4
f 37/29/6 38/30/6 26/30/6 9/29/6
f 7/67/4 24/68/4 25/69/4 8/70/4
f 6/71/5 23/72/5 24/73/5 7/74/5
f 4/75/4 22/76/4 23/77/4 6/78/4
f 3/79/5 20/80/5 22/81/5 4/82/5
f 8/83/5 25/84/5 38/85/5 37/86/5
f 19/1/1 40/4/1 41/3/1 20/2/1
f 19/5/2 21/5/2 39/6/2 40/6/2
f 40/7/7 39/24/7 43/23/7 56/22/7 55/21/7 54/20/7 53/19/7 52/18/7 51/17/7 50/16/7 49/15/7 48/14/7 47/13/7 57/13/7 46/12/7 45/11/7 44/10/7 42/9/7 41/8/7
f 39/25/4 21/28/4 36/27/4 43/26/4
f 56/29/5 43/6/5 36/5/5 35/30/5
f 55/31/4 56/34/4 35/33/4 34/32/4
f 54/35/5 55/38/5 34/37/5 33/36/5
f 53/39/4 54/42/4 33/41/4 32/40/4
f 52/43/5 53/46/5 32/45/5 31/44/5
f 51/47/4 52/50/4 31/49/4 30/48/4
f 50/51/5 51/54/5 30/53/5 29/52/5
f 49/55/4 50/58/4 29/57/4 28/56/4
f 48/59/5 49/62/5 28/61/5 27/60/5
f 47/63/4 48/66/4 27/65/4 26/64/4
f 57/29/6 47/29/6 26/30/6 38/30/6
f 45/67/4 46/70/4 25/69/4 24/68/4
f 44/71/5 45/74/5 24/73/5 23/72/5
f 42/75/4 44/78/4 23/77/4 22/76/4
f 41/79/5 42/82/5 22/81/5 20/80/5
f 46/83/5 57/86/5 38/85/5 25/84/5
