# Blender 3.6.5
# www.blender.org
mtllib Poly_SF_Outside_B_Tree_01_B.mtl
o Cube.001
v -0.130035 0.690599 0.000000
v 0.130035 0.690599 0.000000
v 0.139977 0.689514 -0.074218
v 0.000000 0.732910 -0.053690
v -0.139977 0.689514 -0.074218
v -0.139977 0.689514 0.074218
v 0.000000 0.732910 0.053690
v 0.139977 0.689514 0.074218
v 0.056632 0.729655 0.056632
v 0.053690 0.732910 0.000000
v 0.074218 0.689514 0.139977
v 0.056632 0.729655 -0.056632
v 0.074218 0.689514 -0.139977
v -0.056632 0.729655 0.056632
v -0.056632 0.729655 -0.056632
v -0.053690 0.732910 0.000000
v -0.074218 0.689514 -0.139977
v -0.074218 0.689514 0.139977
v -0.085038 0.224448 0.179722
v -0.218725 -0.007035 -0.437451
v -0.218725 -0.007035 0.218725
v -0.085038 0.224448 -0.179722
v -0.218725 -0.007035 0.437451
v -0.218725 -0.007035 -0.000000
v -0.218725 -0.007035 -0.218725
v 0.218725 -0.007035 0.437451
v 0.085038 0.224448 -0.179722
v 0.218725 -0.007035 -0.218725
v 0.218725 -0.007035 -0.437451
v 0.085038 0.224448 0.179722
v 0.218725 -0.007035 -0.000000
v 0.218725 -0.007035 0.218725
v 0.179722 0.224447 0.085038
v -0.437451 -0.007035 0.218725
v 0.437451 -0.007035 0.218725
v 0.000000 -0.007035 0.218725
v -0.179722 0.224447 0.085038
v 0.437451 -0.007035 -0.218725
v -0.179722 0.224447 -0.085038
v 0.000000 -0.007035 -0.218725
v -0.437451 -0.007035 -0.218725
v 0.179722 0.224447 -0.085038
v 0.175511 0.225157 0.000000
v 0.344051 -0.007035 0.000000
v -0.175511 0.225157 0.000000
v -0.344051 -0.007035 0.000000
v -0.000000 -0.007035 0.000000
v 0.000000 0.225158 0.175511
v -0.000000 -0.007035 0.344051
v 0.000000 0.225158 -0.175511
v -0.000000 -0.007035 -0.344051
v -0.228248 -0.007035 0.228248
v -0.129277 0.221846 0.129277
v -0.228248 -0.007035 -0.228248
v -0.129277 0.221846 -0.129277
v 0.228248 -0.007035 0.228248
v 0.129277 0.221846 0.129277
v 0.228248 -0.007035 -0.228248
v 0.129277 0.221846 -0.129277
v 0.000000 0.736164 0.000000
v 0.000000 0.690599 0.130035
v 0.000000 0.690599 -0.130035
v -0.115096 0.675411 0.115096
v -0.115096 0.675411 -0.115096
v 0.115096 0.675411 0.115096
v 0.115096 0.675411 -0.115096
v -0.125301 0.108666 -0.254581
v -0.125301 0.108666 0.254581
v 0.125301 0.108666 0.254581
v 0.125301 0.108666 -0.254581
v -0.254581 0.108665 0.125301
v 0.254581 0.108665 0.125301
v -0.214318 0.108958 0.000000
v 0.000000 0.108958 -0.214318
v 0.000000 0.108958 0.214318
v 0.214318 0.108958 0.000000
v 0.254581 0.108665 -0.125301
v -0.254581 0.108665 -0.125301
v -0.147478 0.107592 0.147478
v -0.147478 0.107592 -0.147478
v 0.147478 0.107592 -0.147478
v 0.147478 0.107592 0.147478
vn 0.4601 0.8877 0.0159
vn -0.7414 0.0617 -0.6682
vn -0.0573 0.9967 0.0573
vn -0.0000 -1.0000 -0.0000
vn -0.4601 0.8877 -0.0159
vn 0.4601 0.8877 -0.0159
vn 0.3879 0.8361 0.3879
vn -0.0159 0.8877 0.4601
vn 0.0872 0.0899 -0.9921
vn 0.8618 0.3626 0.3548
vn 0.7414 0.0617 0.6682
vn -0.0872 0.0899 0.9921
vn 0.1872 0.4058 0.8946
vn -0.3879 0.8361 -0.3879
vn 0.3879 0.8361 -0.3879
vn -0.0573 0.9967 -0.0573
vn -0.9921 0.0899 -0.0872
vn 0.0159 0.8877 -0.4601
vn 0.0573 0.9967 -0.0573
vn -0.8618 0.3626 -0.3548
vn 0.0159 0.8877 0.4601
vn 0.9921 0.0899 -0.0872
vn -0.0159 0.8877 -0.4601
vn -0.4601 0.8877 0.0159
vn -0.7414 0.0617 0.6682
vn -0.9921 0.0899 0.0872
vn 0.8946 0.4058 -0.1872
vn 0.9921 0.0899 0.0872
vn -0.1872 0.4058 -0.8946
vn -0.1872 0.4058 0.8946
vn 0.6682 0.0617 -0.7414
vn 0.1872 0.4058 -0.8946
vn -0.8946 0.4058 -0.1872
vn -0.6682 0.0617 -0.7414
vn 0.8946 0.4058 0.1872
vn 0.6682 0.0617 0.7414
vn 0.7414 0.0617 -0.6682
vn -0.3548 0.3626 0.8618
vn -0.8946 0.4058 0.1872
vn -0.6682 0.0617 0.7414
vn -0.0872 0.0899 -0.9921
vn 0.3548 0.3626 -0.8618
vn -0.3548 0.3626 -0.8618
vn 0.8618 0.3626 -0.3548
vn 0.3548 0.3626 0.8618
vn -0.8618 0.3626 0.3548
vn 0.0872 0.0899 0.9921
vn 0.0573 0.9967 0.0573
vn -0.3879 0.8361 0.3879
vn -0.7533 0.6536 0.0733
vn 0.0733 0.6536 0.7533
vn 0.7533 0.6536 -0.0733
vn -0.0733 0.6536 -0.7533
vn 0.0733 0.6536 -0.7533
vn -0.6234 0.7437 0.2416
vn -0.0733 0.6536 0.7533
vn 0.6234 0.7437 0.2416
vn -0.6234 0.7437 -0.2416
vn 0.2416 0.7437 -0.6234
vn -0.2416 0.7437 0.6234
vn -0.2416 0.7437 -0.6234
vn 0.6234 0.7437 -0.2416
vn -0.7533 0.6536 -0.0733
vn 0.2416 0.7437 0.6234
vn 0.7533 0.6536 0.0733
vt 0.846004 0.828085
vt 0.844530 0.829245
vt 0.845558 0.831598
vt 0.846882 0.830022
vt 0.844763 0.832045
vt 0.847154 0.832045
vt 0.847154 0.821447
vt 0.844763 0.821447
vt 0.843787 0.833480
vt 0.845558 0.831598
vt 0.844530 0.829246
vt 0.842058 0.831976
vt 0.851543 0.817404
vt 0.845650 0.822382
vt 0.843551 0.815293
vt 0.846184 0.819935
vt 0.846882 0.830022
vt 0.846005 0.828086
vt 0.846005 0.828086
vt 0.843538 0.826906
vt 0.844965 0.826928
vt 0.841440 0.829460
vt 0.839499 0.832045
vt 0.842477 0.832045
vt 0.842477 0.821447
vt 0.839499 0.821447
vt 0.845277 0.826357
vt 0.844705 0.831175
vt 0.842982 0.832113
vt 0.843163 0.823825
vt 0.841715 0.818602
vt 0.843551 0.815293
vt 0.841676 0.824405
vt 0.850658 0.824217
vt 0.848549 0.827888
vt 0.841140 0.826354
vt 0.840951 0.830608
vt 0.843538 0.826906
vt 0.844964 0.826928
vt 0.846004 0.828085
vt 0.844964 0.826928
vt 0.842057 0.831976
vt 0.849052 0.832045
vt 0.849052 0.821447
vt 0.841440 0.829460
vt 0.845277 0.826356
vt 0.844704 0.831175
vt 0.842982 0.832113
vt 0.843163 0.823825
vt 0.843551 0.815293
vt 0.848810 0.830068
vt 0.847349 0.832420
vt 0.845587 0.833309
vt 0.848859 0.825414
vt 0.848549 0.827888
vt 0.841676 0.824405
vt 0.843551 0.815293
vt 0.841715 0.818602
vt 0.841140 0.826354
vt 0.840951 0.830607
vt 0.843163 0.823825
vt 0.848810 0.830068
vt 0.848859 0.825414
vt 0.845587 0.833309
vt 0.850658 0.824216
vt 0.845277 0.826357
vt 0.848859 0.825414
vt 0.845277 0.826357
vt 0.844964 0.826928
s 0
usemtl regular
f 3/1/1 12/2/1 10/3/1 2/4/1
f 55/5/2 39/6/2 5/7/2 64/8/2
f 60/9/3 16/10/3 14/11/3 7/12/3
f 34/13/4 21/14/4 23/15/4 52/16/4
f 16/10/5 1/17/5 6/18/5 14/11/5
f 2/4/6 10/3/6 9/11/6 8/19/6
f 8/19/7 9/11/7 11/20/7 65/21/7
f 9/11/8 7/12/8 61/22/8 11/20/8
f 50/23/9 22/24/9 17/25/9 62/26/9
f 82/27/10 57/28/10 30/29/10 69/30/10
f 57/5/11 33/6/11 8/7/11 65/8/11
f 51/31/4 29/32/4 28/14/4 40/33/4
f 46/34/4 24/35/4 21/14/4 34/13/4
f 48/23/12 30/24/12 11/25/12 61/26/12
f 41/13/4 25/14/4 24/35/4 46/34/4
f 75/36/13 48/37/13 19/29/13 68/30/13
f 17/38/14 64/39/14 5/40/14 15/2/14
f 66/41/15 13/38/15 12/2/15 3/1/15
f 4/42/16 15/2/16 16/10/16 60/9/16
f 45/43/17 37/6/17 6/7/17 1/44/17
f 62/45/18 17/38/18 15/2/18 4/42/18
f 12/2/19 4/42/19 60/9/19 10/3/19
f 80/46/20 55/47/20 22/48/20 67/49/20
f 7/12/21 14/11/21 18/20/21 61/22/21
f 33/6/22 43/43/22 2/44/22 8/7/22
f 13/38/23 62/45/23 4/42/23 12/2/23
f 15/2/24 5/40/24 1/17/24 16/10/24
f 54/16/4 20/50/4 25/14/4 41/13/4
f 37/6/25 53/5/25 63/8/25 6/7/25
f 39/6/26 45/43/26 1/44/26 5/7/26
f 76/51/27 43/52/27 33/53/27 72/54/27
f 29/32/4 58/16/4 38/13/4 28/14/4
f 40/33/4 28/14/4 31/55/4 47/9/4
f 36/56/4 32/14/4 26/57/4 49/58/4
f 43/43/28 42/6/28 3/7/28 2/44/28
f 74/59/29 50/60/29 27/48/29 70/61/29
f 69/30/30 30/29/30 48/37/30 75/36/30
f 59/5/31 27/24/31 13/25/31 66/8/31
f 67/49/32 22/48/32 50/60/32 74/59/32
f 21/14/4 36/56/4 49/58/4 23/15/4
f 71/54/33 37/53/33 45/52/33 73/62/33
f 22/24/34 55/5/34 64/8/34 17/25/34
f 77/63/35 42/64/35 43/52/35 76/51/35
f 28/14/4 38/13/4 44/65/4 31/55/4
f 30/24/36 57/5/36 65/8/36 11/25/36
f 42/6/37 59/5/37 66/8/37 3/7/37
f 79/66/38 53/28/38 37/53/38 71/54/38
f 73/62/39 45/52/39 39/64/39 78/67/39
f 53/5/40 19/24/40 18/25/40 63/8/40
f 27/24/41 50/23/41 62/26/41 13/25/41
f 81/68/42 59/47/42 42/64/42 77/63/42
f 31/55/4 44/65/4 35/13/4 32/14/4
f 20/50/4 51/31/4 40/33/4 25/14/4
f 24/35/4 47/9/4 36/56/4 21/14/4
f 47/9/4 31/55/4 32/14/4 36/56/4
f 25/14/4 40/33/4 47/9/4 24/35/4
f 78/67/43 39/64/43 55/47/43 80/46/43
f 70/61/44 27/48/44 59/47/44 81/68/44
f 72/54/45 33/53/45 57/28/45 82/27/45
f 68/30/46 19/29/46 53/28/46 79/66/46
f 32/14/4 35/13/4 56/16/4 26/57/4
f 19/24/47 48/23/47 61/26/47 18/25/47
f 10/3/48 60/9/48 7/12/48 9/11/48
f 14/11/49 6/18/49 63/69/49 18/20/49
f 23/15/50 68/30/50 79/66/50 52/16/50
f 35/13/51 72/54/51 82/27/51 56/16/51
f 29/32/52 70/61/52 81/68/52 58/16/52
f 41/13/53 78/67/53 80/46/53 54/16/53
f 58/16/54 81/68/54 77/63/54 38/13/54
f 46/34/55 73/62/55 78/67/55 41/13/55
f 52/16/56 79/66/56 71/54/56 34/13/56
f 38/13/57 77/63/57 76/51/57 44/65/57
f 34/13/58 71/54/58 73/62/58 46/34/58
f 20/50/59 67/49/59 74/59/59 51/31/59
f 26/57/60 69/30/60 75/36/60 49/58/60
f 51/31/61 74/59/61 70/61/61 29/32/61
f 44/65/62 76/51/62 72/54/62 35/13/62
f 54/16/63 80/46/63 67/49/63 20/50/63
f 49/58/64 75/36/64 68/30/64 23/15/64
f 56/16/65 82/27/65 69/30/65 26/57/65
o Icosphere.003
v 0.020385 0.342167 0.011031
v 0.528163 0.904304 0.379949
v -0.173566 0.904303 0.607959
v -0.607263 0.904307 0.011031
v -0.173566 0.904303 -0.585897
v 0.528163 0.904304 -0.357888
v 0.142102 1.852719 0.385646
v -0.298284 1.852719 0.242554
v -0.298284 1.852719 -0.220492
v 0.142102 1.852719 -0.363585
v 0.414279 1.852717 0.011031
v 0.020385 2.594407 0.011031
v -0.123641 0.451725 0.622316
v 0.594966 0.451725 0.388822
v 0.204848 0.837480 0.578740
v 0.617312 0.837481 0.011031
v 0.594966 0.451725 -0.366761
v -0.567774 0.451729 0.011031
v -0.462540 0.837481 0.361895
v -0.123641 0.451725 -0.600255
v -0.462540 0.837481 -0.339833
v 0.204848 0.837480 -0.556679
v 0.550995 1.356128 0.183434
v 0.550995 1.356128 -0.161372
v 0.020385 1.356128 0.568946
v 0.348320 1.356128 0.462394
v -0.510225 1.356128 0.183434
v -0.307550 1.356128 0.462394
v -0.307550 1.356128 -0.440332
v -0.510225 1.356128 -0.161372
v 0.348320 1.356128 -0.440332
v 0.020385 1.356128 -0.546885
v 0.323455 1.894655 0.231223
v -0.095380 1.894656 0.367310
v -0.354231 1.894655 0.011031
v -0.095380 1.894656 -0.345248
v 0.323455 1.894655 -0.209162
v 0.087695 2.266895 0.218196
v 0.238212 2.266894 0.011031
v -0.155841 2.266895 0.139065
v -0.155841 2.266895 -0.117003
v 0.087695 2.266895 -0.196134
vn 0.0618 -0.9798 0.1902
vn 0.9672 0.1468 0.2071
vn -0.1815 -0.9745 0.1319
vn -0.1815 -0.9745 -0.1319
vn 0.0618 -0.9798 -0.1902
vn 0.9728 0.0492 0.2262
vn 0.0855 0.0492 0.9951
vn -0.9200 0.0492 0.3888
vn -0.6541 0.0492 -0.7548
vn 0.5157 0.0492 -0.8553
vn 0.7910 0.2100 0.5747
vn -0.3021 0.2100 0.9299
vn -0.9777 0.2100 -0.0000
vn -0.3021 0.2100 -0.9299
vn 0.7910 0.2100 -0.5747
vn 0.5495 0.3742 0.7470
vn -0.5406 0.3742 0.7535
vn -0.8837 0.3742 -0.2813
vn -0.0055 0.3742 -0.9273
vn 0.8802 0.3742 -0.2918
vn 0.7124 0.4738 -0.5176
vn 0.7139 0.4703 -0.5187
vn 0.5495 0.3742 -0.7470
vn -0.2721 0.4738 -0.8375
vn -0.2727 0.4703 -0.8393
vn -0.5406 0.3742 -0.7535
vn -0.8806 0.4738 -0.0000
vn -0.8825 0.4703 -0.0000
vn -0.8837 0.3742 0.2813
vn -0.2721 0.4738 0.8375
vn -0.2727 0.4703 0.8393
vn -0.0055 0.3742 0.9273
vn 0.7124 0.4738 0.5176
vn 0.7139 0.4703 0.5187
vn 0.8802 0.3742 0.2918
vn 0.8880 0.3486 -0.2999
vn 0.7771 0.2782 -0.5646
vn 0.5596 0.3486 -0.7519
vn -0.0108 0.3486 -0.9372
vn -0.2968 0.2782 -0.9135
vn -0.5421 0.3486 -0.7646
vn -0.8947 0.3486 -0.2793
vn -0.9605 0.2782 -0.0000
vn -0.8947 0.3486 0.2793
vn -0.5421 0.3486 0.7646
vn -0.2968 0.2782 0.9135
vn -0.0108 0.3486 0.9372
vn 0.5596 0.3486 0.7519
vn 0.7771 0.2782 0.5646
vn 0.8880 0.3486 0.2999
vn 0.2979 0.2654 -0.9169
vn 0.3065 0.1268 -0.9434
vn 0.0855 0.0492 -0.9951
vn -0.7800 0.2654 -0.5667
vn -0.8025 0.1268 -0.5830
vn -0.9200 0.0492 -0.3888
vn -0.7800 0.2654 0.5667
vn -0.8025 0.1268 0.5830
vn -0.6541 0.0492 0.7548
vn 0.2979 0.2654 0.9169
vn 0.3065 0.1268 0.9434
vn 0.5157 0.0492 0.8553
vn 0.9641 0.2654 -0.0000
vn 0.9919 0.1268 -0.0000
vn 0.9728 0.0492 -0.2262
vn 0.5077 0.0917 -0.8566
vn 0.3053 -0.1539 -0.9397
vn 0.0841 0.0409 -0.9956
vn -0.6414 -0.0465 -0.7658
vn -0.7719 -0.2995 -0.5608
vn -0.9268 -0.0809 -0.3669
vn -0.9268 -0.0809 0.3669
vn -0.7719 -0.2995 0.5608
vn -0.6414 -0.0465 0.7658
vn 0.9672 0.1468 -0.2071
vn 0.9983 -0.0578 -0.0000
vn 0.1873 -0.9823 -0.0000
vn 0.0841 0.0409 0.9956
vn 0.3053 -0.1539 0.9397
vn 0.5077 0.0917 0.8566
vt 0.843538 0.834609
vt 0.855324 0.846953
vt 0.832236 0.846953
vt 0.843538 0.863759
vt 0.870202 0.863759
vt 0.855324 0.880240
vt 0.818256 0.863759
vt 0.832236 0.880240
vt 0.824922 0.899494
vt 0.843716 0.899494
vt 0.835314 0.919377
vt 0.852477 0.919377
vt 0.843716 0.933996
vt 0.863536 0.899494
s 0
usemtl regular
f 83/70/66 96/71/66 95/72/66
f 84/73/67 96/71/67 98/74/67
f 83/70/68 95/71/68 100/72/68
f 83/70/69 100/71/69 102/72/69
f 83/70/70 102/71/70 99/72/70
f 84/73/71 98/74/71 105/75/71
f 85/76/72 97/73/72 107/77/72
f 86/73/73 101/74/73 109/75/73
f 87/73/74 103/74/74 111/75/74
f 88/73/75 104/74/75 113/75/75
f 84/73/76 105/75/76 108/77/76
f 85/73/77 107/75/77 110/77/77
f 86/73/78 109/75/78 112/77/78
f 87/73/79 111/75/79 114/77/79
f 88/73/80 113/75/80 106/77/80
f 89/78/81 115/79/81 120/80/81
f 90/78/82 116/79/82 122/80/82
f 91/78/83 117/79/83 123/80/83
f 92/78/84 118/79/84 124/80/84
f 93/78/85 119/79/85 121/80/85
f 121/80/86 124/81/86 94/82/86
f 121/80/87 119/79/87 124/81/87
f 119/79/88 92/83/88 124/81/88
f 124/80/89 123/81/89 94/82/89
f 124/80/90 118/79/90 123/81/90
f 118/79/91 91/83/91 123/81/91
f 123/80/92 122/81/92 94/82/92
f 123/80/93 117/79/93 122/81/93
f 117/79/94 90/83/94 122/81/94
f 122/80/95 120/81/95 94/82/95
f 122/80/96 116/79/96 120/81/96
f 116/79/97 89/83/97 120/81/97
f 120/80/98 121/81/98 94/82/98
f 120/80/99 115/79/99 121/81/99
f 115/79/100 93/83/100 121/81/100
f 106/77/101 119/79/101 93/78/101
f 106/77/102 113/75/102 119/79/102
f 113/75/103 92/83/103 119/79/103
f 114/77/104 118/79/104 92/78/104
f 114/77/105 111/75/105 118/79/105
f 111/75/106 91/83/106 118/79/106
f 112/77/107 117/79/107 91/78/107
f 112/77/108 109/75/108 117/79/108
f 109/75/109 90/83/109 117/79/109
f 110/77/110 116/79/110 90/78/110
f 110/77/111 107/75/111 116/79/111
f 107/77/112 89/79/112 116/78/112
f 108/75/113 115/83/113 89/79/113
f 108/77/114 105/75/114 115/79/114
f 105/75/115 93/83/115 115/79/115
f 113/77/116 114/75/116 92/79/116
f 113/77/117 104/73/117 114/75/117
f 104/76/118 87/73/118 114/77/118
f 111/77/119 112/75/119 91/79/119
f 111/77/120 103/73/120 112/75/120
f 103/76/121 86/73/121 112/77/121
f 109/77/122 110/75/122 90/79/122
f 109/77/123 101/73/123 110/75/123
f 101/73/124 85/74/124 110/75/124
f 107/77/125 108/75/125 89/79/125
f 107/77/126 97/73/126 108/75/126
f 97/76/127 84/73/127 108/77/127
f 105/77/128 106/75/128 93/79/128
f 105/77/129 98/73/129 106/75/129
f 98/76/130 88/73/130 106/77/130
f 99/71/131 104/74/131 88/73/131
f 99/72/132 102/71/132 104/73/132
f 102/72/133 87/73/133 104/76/133
f 102/71/134 103/74/134 87/73/134
f 102/72/135 100/71/135 103/73/135
f 100/72/136 86/73/136 103/76/136
f 100/71/137 101/74/137 86/73/137
f 100/72/138 95/71/138 101/73/138
f 95/71/139 85/74/139 101/73/139
f 98/76/140 99/72/140 88/73/140
f 98/73/141 96/72/141 99/71/141
f 96/72/142 83/70/142 99/71/142
f 95/72/143 97/73/143 85/76/143
f 95/72/144 96/71/144 97/73/144
f 96/72/145 84/73/145 97/76/145
