# Blender 3.6.5
# www.blender.org
mtllib Poly_SF_Outside_B_Window_10.mtl
o Cube.001
v 0.500000 0.000000 -0.400000
v 0.500000 1.100000 -0.400000
v -0.500000 0.000000 -0.400000
v -0.500000 1.100000 -0.400000
v 0.500000 0.000000 -0.500000
v 0.500000 1.100000 -0.500000
v -0.500000 0.000000 -0.500000
v 0.500000 0.000000 -0.450000
v 0.500000 1.100000 -0.450000
v 0.500000 1.040000 -0.400000
v -0.500000 1.040000 -0.400000
v 0.500000 1.040000 -0.500000
v 0.500000 1.040000 -0.450000
v -0.500000 0.090000 -0.400000
v 0.500000 0.090000 -0.500000
v 0.500000 0.090000 -0.450000
v 0.500000 0.090000 -0.400000
v -0.464453 0.000000 -0.400000
v -0.464000 1.100000 -0.400000
v -0.464453 0.000000 -0.500000
v -0.464000 1.100000 -0.500000
v -0.464000 1.100000 -0.450000
v -0.464453 0.000000 -0.450000
v -0.464000 1.040000 -0.400000
v -0.464453 0.090000 -0.400000
v 0.464453 0.000000 -0.400000
v 0.464000 1.100000 -0.500000
v 0.464000 1.100000 -0.450000
v 0.464453 0.000000 -0.450000
v 0.464000 1.100000 -0.400000
v 0.464453 0.000000 -0.500000
v 0.464000 1.040000 -0.400000
v 0.464453 0.090000 -0.400000
v 0.464000 1.040000 -0.420000
v -0.464000 1.040000 -0.420000
v 0.464453 0.090000 -0.420000
v -0.464453 0.090000 -0.420000
v -0.500000 1.100000 -0.500000
v -0.500000 0.000000 -0.450000
v -0.500000 1.100000 -0.450000
v -0.500000 1.040000 -0.500000
v -0.500000 1.040000 -0.450000
v -0.500000 0.090000 -0.500000
v -0.500000 0.090000 -0.450000
v -0.070000 0.090000 -0.400000
v -0.070000 1.040000 -0.400000
v -0.070000 0.090000 -0.420000
v -0.070000 1.040000 -0.420000
v 0.070000 0.090000 -0.400000
v 0.070000 1.040000 -0.400000
v 0.070000 0.090000 -0.420000
v 0.070000 1.040000 -0.420000
vn -0.0000 -0.0000 1.0000
vn 1.0000 -0.0000 -0.0000
vn -0.0000 -1.0000 -0.0000
vn -0.0000 1.0000 -0.0000
vn -1.0000 -0.0000 -0.0000
vn -1.0000 -0.0005 -0.0000
vn 1.0000 -0.0005 -0.0000
vt 0.252442 0.409951
vt 0.252442 0.403964
vt 0.250229 0.403964
vt 0.250229 0.409951
vt 0.308969 0.409951
vt 0.308969 0.403964
vt 0.312450 0.403964
vt 0.312450 0.409951
vt 0.310106 0.405887
vt 0.310106 0.407962
vt 0.312313 0.407962
vt 0.312313 0.405887
vt 0.310106 0.403812
vt 0.312313 0.403812
vt 0.312246 0.409799
vt 0.312246 0.449695
vt 0.308969 0.449695
vt 0.308969 0.409799
vt 0.252442 0.409799
vt 0.252442 0.449695
vt 0.250229 0.449695
vt 0.250229 0.409799
vt 0.252442 0.403934
vt 0.250229 0.403934
vt 0.308969 0.403934
vt 0.312450 0.409799
vt 0.312450 0.403934
vt 0.304081 0.403934
vt 0.304081 0.409799
vt 0.258489 0.409799
vt 0.258489 0.403934
vt 0.250242 0.403812
vt 0.250242 0.405887
vt 0.252448 0.405887
vt 0.252448 0.403812
vt 0.250242 0.407962
vt 0.252448 0.407962
vt 0.304081 0.409951
vt 0.304081 0.403964
vt 0.258489 0.403964
vt 0.258489 0.409951
vt 0.252666 0.403802
vt 0.252666 0.405983
vt 0.309854 0.405983
vt 0.309854 0.403802
vt 0.304081 0.449695
vt 0.258489 0.449695
vt 0.254037 0.463185
vt 0.254037 0.417146
vt 0.308304 0.417146
vt 0.308285 0.463185
vt 0.281119 0.414266
vt 0.281119 0.462119
vt 0.277624 0.462119
vt 0.277624 0.414266
vt 0.285084 0.414266
vt 0.285084 0.462119
vt 0.277542 0.462119
vt 0.277542 0.414266
s 0
usemtl regular
f 24/1/1 19/2/1 4/3/1 11/4/1
f 13/5/2 9/6/2 2/7/2 10/8/2
f 29/9/3 31/10/3 5/11/3 8/12/3
f 28/9/4 30/13/4 2/14/4 9/12/4
f 27/10/4 28/9/4 9/12/4 6/11/4
f 26/13/3 29/9/3 8/12/3 1/14/3
f 12/8/2 6/7/2 9/6/2 13/5/2
f 11/8/5 4/7/5 40/6/5 42/5/5
f 14/15/5 11/16/5 42/17/5 44/18/5
f 15/15/2 12/16/2 13/17/2 16/18/2
f 16/18/2 13/17/2 10/16/2 17/15/2
f 25/19/1 24/20/1 11/21/1 14/22/1
f 18/23/1 25/19/1 14/22/1 3/24/1
f 39/25/5 44/18/5 43/26/5 7/27/5
f 8/25/2 16/18/2 17/26/2 1/27/2
f 5/27/2 15/26/2 16/18/2 8/25/2
f 3/27/5 14/26/5 44/18/5 39/25/5
f 26/28/1 33/29/1 25/30/1 18/31/1
f 33/18/6 32/17/6 34/16/6 36/15/6
f 3/32/3 39/33/3 23/34/3 18/35/3
f 38/36/4 40/33/4 22/34/4 21/37/4
f 40/33/4 4/32/4 19/35/4 22/34/4
f 39/33/3 7/36/3 20/37/3 23/34/3
f 32/38/1 30/39/1 19/40/1 24/41/1
f 10/4/1 2/3/1 30/2/1 32/1/1
f 17/22/1 10/21/1 32/20/1 33/19/1
f 1/24/1 17/22/1 33/19/1 26/23/1
f 18/35/3 23/34/3 29/9/3 26/13/3
f 21/42/4 22/43/4 28/44/4 27/45/4
f 22/34/4 19/35/4 30/13/4 28/9/4
f 23/34/3 20/37/3 31/10/3 29/9/3
f 32/46/3 24/47/3 35/47/3 34/46/3
f 24/17/7 25/18/7 37/15/7 35/16/7
f 25/30/4 33/29/4 36/29/4 37/30/4
f 41/8/5 42/5/5 40/6/5 38/7/5
f 43/15/5 44/18/5 42/17/5 41/16/5
f 35/48/1 37/49/1 36/50/1 34/51/1
f 45/52/5 46/53/5 48/54/5 47/55/5
f 51/52/2 52/53/2 50/54/2 49/55/2
f 49/56/1 50/57/1 46/58/1 45/59/1
f 47/59/3 51/56/3 49/56/3 45/59/3
f 52/57/4 48/58/4 46/58/4 50/57/4
