# Blender 3.6.5
# www.blender.org
mtllib Poly_World_Map_Town_House_10.mtl
o Plane
v 0.800000 0.001000 -0.400000
v -0.800000 0.001000 -0.400000
v -0.800000 0.001000 0.500000
v 0.800000 0.001000 0.500000
v -0.214545 0.001000 -0.400000
v -0.214545 0.001000 0.500000
v 0.800000 0.001000 -0.147782
v -0.800000 0.001000 -0.147782
v -0.214545 0.001000 -0.147782
v 0.185455 0.001000 0.500000
v 0.185455 0.001000 -0.400000
v 0.185455 0.001000 -0.147782
v -0.214545 0.001000 0.139920
v 0.800000 0.001000 0.139920
v -0.800000 0.001000 0.139920
v 0.185455 0.001000 0.139920
v 0.567273 0.001000 0.500000
v 0.567273 0.001000 -0.147782
v 0.567273 0.001000 -0.400000
v 0.567273 0.001000 0.139920
v 0.800000 0.001000 -0.345953
v -0.800000 0.001000 -0.345953
v -0.214545 0.001000 -0.345953
v 0.185455 0.001000 -0.345953
v 0.567273 0.001000 -0.345953
v -0.454545 0.001000 -0.400000
v -0.454545 0.001000 0.500000
v -0.454545 0.001000 -0.147782
v -0.454545 0.001000 0.139920
v -0.454545 0.001000 -0.345953
v -0.767273 0.001000 -0.400000
v -0.767273 0.001000 0.500000
v -0.767273 0.001000 -0.147782
v -0.767273 0.001000 0.139920
v -0.767273 0.001000 -0.345953
v -0.669091 0.001000 0.500000
v -0.669091 0.001000 -0.147782
v -0.669091 0.001000 0.139920
v -0.669091 0.001000 -0.345953
v -0.669091 0.001000 -0.400000
vn -0.0000 1.0000 -0.0000
vt 0.630291 0.896852
vt 0.627832 0.896852
vt 0.627832 0.880377
vt 0.630291 0.880376
vt 0.701868 0.896852
vt 0.671817 0.896852
vt 0.671817 0.880376
vt 0.701868 0.880376
vt 0.671682 0.890898
vt 0.671682 0.907481
vt 0.660377 0.907481
vt 0.660377 0.890898
vt 0.630154 0.919084
vt 0.627832 0.919084
vt 0.627832 0.910016
vt 0.630154 0.910016
vt 0.670633 0.907206
vt 0.670633 0.890711
vt 0.661566 0.890711
vt 0.661566 0.907206
vt 0.730554 0.896852
vt 0.730554 0.880376
vt 0.714196 0.910016
vt 0.701868 0.910016
vt 0.701868 0.901165
vt 0.714196 0.901165
vt 0.671817 0.910016
vt 0.630154 0.896852
vt 0.748038 0.910016
vt 0.730554 0.910016
vt 0.748038 0.896852
vt 0.748038 0.880377
vt 0.670633 0.890711
vt 0.661566 0.890711
vt 0.729138 0.880064
vt 0.714625 0.880064
vt 0.714625 0.883991
vt 0.729138 0.883991
vt 0.691555 0.880064
vt 0.691555 0.883991
vt 0.633991 0.880064
vt 0.632014 0.880064
vt 0.632014 0.883991
vt 0.633991 0.883991
vt 0.667387 0.880064
vt 0.667387 0.883991
vt 0.652886 0.880064
vt 0.652886 0.883991
vt 0.653786 0.910016
vt 0.653786 0.896852
vt 0.671817 0.919084
vt 0.653786 0.919084
vt 0.653786 0.880376
vt 0.639923 0.880064
vt 0.639923 0.883991
vt 0.651686 0.885146
vt 0.651686 0.879544
vt 0.668854 0.879544
vt 0.668854 0.885146
vt 0.637667 0.919084
vt 0.630291 0.919084
vt 0.630291 0.911502
vt 0.637667 0.911502
vt 0.637667 0.896852
vt 0.637667 0.880376
vt 0.653786 0.911502
vt 0.653786 0.907497
vt 0.666027 0.907497
vt 0.666027 0.896852
s 1
usemtl Material
f 34/1/1 15/2/1 3/3/1 32/4/1
f 16/5/1 13/6/1 6/7/1 10/8/1
f 24/9/1 23/10/1 9/11/1 12/12/1
f 35/13/1 22/14/1 8/15/1 33/16/1
f 25/17/1 24/18/1 12/19/1 18/20/1
f 20/21/1 16/5/1 10/8/1 17/22/1
f 18/23/1 12/24/1 16/25/1 20/26/1
f 12/24/1 9/27/1 13/6/1 16/5/1
f 33/16/1 8/15/1 15/2/1 34/28/1
f 7/29/1 18/30/1 20/21/1 14/31/1
f 14/31/1 20/21/1 17/22/1 4/32/1
f 21/33/1 25/17/1 18/20/1 7/34/1
f 1/35/1 19/36/1 25/37/1 21/38/1
f 19/36/1 11/39/1 24/40/1 25/37/1
f 31/41/1 2/42/1 22/43/1 35/44/1
f 11/39/1 5/45/1 23/46/1 24/40/1
f 5/45/1 26/47/1 30/48/1 23/46/1
f 9/27/1 28/49/1 29/50/1 13/6/1
f 23/51/1 30/52/1 28/49/1 9/27/1
f 13/6/1 29/50/1 27/53/1 6/7/1
f 40/54/1 31/41/1 35/44/1 39/55/1
f 37/56/1 33/57/1 34/58/1 38/59/1
f 39/60/1 35/61/1 33/62/1 37/63/1
f 38/64/1 34/1/1 32/4/1 36/65/1
f 29/50/1 38/64/1 36/65/1 27/53/1
f 30/52/1 39/60/1 37/63/1 28/66/1
f 28/67/1 37/68/1 38/69/1 29/50/1
f 26/47/1 40/54/1 39/55/1 30/48/1
o Cube.002_Cube.001
v -0.480541 0.220000 0.054693
v -0.736572 0.220000 0.054693
v -0.736572 0.250000 0.316582
v -0.480541 0.250000 0.316582
v -0.480541 0.250000 0.054693
v -0.736572 0.250000 0.054693
v -0.450541 0.250000 0.346582
v -0.450541 0.000000 0.346582
v -0.766572 0.250000 0.346582
v -0.766572 0.000000 0.346582
v -0.450541 0.250000 0.024693
v -0.450541 0.000000 0.024693
v -0.766572 0.250000 0.024693
v -0.766572 0.000000 0.024693
v -0.669342 0.000000 -0.350000
v -0.669342 0.250000 -0.350000
v -0.279539 0.000000 -0.350000
v -0.279539 0.250000 -0.350000
v -0.669342 0.000000 -0.055574
v -0.669342 0.250000 -0.055574
v -0.279539 0.000000 -0.055574
v -0.279539 0.250000 -0.055574
v -0.639342 0.250000 -0.320000
v -0.309539 0.250000 -0.320000
v -0.309539 0.250000 -0.085574
v -0.639342 0.250000 -0.085574
v -0.639342 0.220000 -0.320000
v -0.309539 0.220000 -0.320000
v -0.309539 0.220000 -0.085574
v -0.639342 0.220000 -0.085574
v 0.199386 0.000000 -0.350000
v 0.199386 0.240000 -0.350000
v 0.513604 0.000000 -0.350000
v 0.513604 0.240000 -0.350000
v 0.199386 0.000000 -0.100000
v 0.199386 0.240000 -0.100000
v 0.513604 0.000000 -0.100000
v 0.513604 0.240000 -0.100000
v 0.229386 0.240000 -0.320000
v 0.483604 0.240000 -0.320000
v 0.483604 0.240000 -0.130000
v 0.229386 0.240000 -0.130000
v 0.229386 0.210000 -0.320000
v 0.483604 0.210000 -0.320000
v 0.483604 0.210000 -0.130000
v 0.229386 0.210000 -0.130000
v 0.785156 0.000000 -0.350603
v 0.785156 0.240000 -0.350603
v 0.785156 0.000000 0.139397
v 0.785156 0.240000 0.139397
v 0.565469 0.000000 -0.350603
v 0.565469 0.240000 -0.350603
v 0.565469 0.000000 0.139397
v 0.565469 0.240000 0.139397
v 0.755157 0.240000 -0.320603
v 0.755157 0.240000 0.109397
v 0.595469 0.240000 0.109397
v 0.595469 0.240000 -0.320603
v 0.755157 0.210000 -0.320603
v 0.755157 0.210000 0.109397
v 0.595469 0.210000 0.109397
v 0.595469 0.210000 -0.320603
v -0.480541 0.220000 0.316582
v -0.736572 0.220000 0.316582
v 0.415050 0.000000 0.066254
v 0.257194 0.000000 0.157392
v 0.257194 0.000000 0.339669
v 0.415050 0.000000 0.430807
v 0.572907 0.000000 0.339669
v 0.572907 0.000000 0.157392
v 0.415050 0.149052 0.230440
v 0.399384 0.149052 0.239485
v 0.399384 0.149052 0.257576
v 0.415050 0.149052 0.266621
v 0.430717 0.149052 0.257576
v 0.430717 0.149052 0.239485
vn 1.0000 -0.0000 -0.0000
vn -0.0000 -1.0000 -0.0000
vn -0.0000 -0.0000 1.0000
vn -0.0000 1.0000 -0.0000
vn -1.0000 -0.0000 -0.0000
vn -0.0000 -0.0000 -1.0000
vn 0.7236 0.6903 -0.0000
vn -0.3618 0.6903 0.6266
vn -0.3618 0.6903 -0.6266
vn 0.3618 0.6903 -0.6266
vn 0.3618 0.6903 0.6266
vn -0.7236 0.6903 -0.0000
vt 0.549746 0.932140
vt 0.549746 0.928552
vt 0.519601 0.886734
vt 0.507050 0.886734
vt 0.507050 0.899167
vt 0.519601 0.899167
vt 0.547048 0.909153
vt 0.547048 0.920512
vt 0.569533 0.920512
vt 0.569924 0.909153
vt 0.509782 0.937421
vt 0.534674 0.937421
vt 0.531732 0.933897
vt 0.512413 0.933897
vt 0.522110 0.887691
vt 0.522110 0.899684
vt 0.506582 0.899684
vt 0.506582 0.887691
vt 0.522110 0.899669
vt 0.506582 0.899669
vt 0.569924 0.920512
vt 0.547439 0.920512
vt 0.515578 0.937421
vt 0.527428 0.937421
vt 0.525847 0.933897
vt 0.516895 0.933897
vt 0.527428 0.937421
vt 0.515578 0.937421
vt 0.519481 0.901053
vt 0.509142 0.901053
vt 0.509142 0.921831
vt 0.519481 0.921831
vt 0.567343 0.932140
vt 0.567343 0.928552
vt 0.719374 0.892071
vt 0.719374 0.903669
vt 0.720667 0.903669
vt 0.729599 0.892071
vt 0.719408 0.885657
vt 0.719408 0.903669
vt 0.718115 0.903669
vt 0.709184 0.892017
vt 0.710183 0.892071
vt 0.719115 0.903669
vt 0.719474 0.903669
vt 0.719474 0.892071
vt 0.719103 0.903669
vt 0.710171 0.892071
vt 0.729633 0.892017
vt 0.720701 0.903669
vt 0.717898 0.904107
vt 0.717898 0.902344
vt 0.719424 0.901463
vt 0.720951 0.902344
vt 0.720951 0.904107
vt 0.719424 0.904988
s 0
usemtl Material
f 46/70/2 43/70/2 104/71/2 42/71/2
f 52/72/3 48/73/3 50/74/3 54/75/3
f 48/76/4 47/77/4 49/78/4 50/79/4
f 49/80/5 47/81/5 44/82/5 43/83/5
f 51/81/5 53/80/5 46/83/5 45/82/5
f 50/84/6 49/85/6 53/86/6 54/87/6
f 54/84/7 53/88/7 51/89/7 52/87/7
f 52/84/2 51/85/2 47/86/2 48/87/2
f 55/84/7 56/88/7 58/89/7 57/87/7
f 57/84/2 58/85/2 62/86/2 61/87/2
f 61/79/4 62/90/4 60/91/4 59/76/4
f 59/84/6 60/85/6 56/86/6 55/87/6
f 57/72/3 61/73/3 59/74/3 55/75/3
f 60/80/5 62/81/5 65/82/5 66/83/5
f 63/70/2 66/70/2 70/71/2 67/71/2
f 58/81/5 56/80/5 63/83/5 64/82/5
f 56/92/5 60/93/5 66/94/5 63/95/5
f 62/96/5 58/97/5 64/95/5 65/94/5
f 69/98/5 68/99/5 67/100/5 70/101/5
f 65/102/6 64/102/6 68/103/6 69/103/6
f 66/70/7 65/102/7 69/103/7 70/71/7
f 64/102/4 63/70/4 67/71/4 68/103/4
f 71/84/7 72/88/7 74/89/7 73/87/7
f 73/84/2 74/85/2 78/86/2 77/87/2
f 77/76/4 78/77/4 76/78/4 75/79/4
f 75/84/6 76/85/6 72/86/6 71/87/6
f 73/72/3 77/73/3 75/74/3 71/75/3
f 76/80/5 78/81/5 81/82/5 82/83/5
f 79/70/2 82/70/2 86/71/2 83/71/2
f 74/81/5 72/80/5 79/83/5 80/82/5
f 72/92/5 76/93/5 82/94/5 79/95/5
f 78/96/5 74/97/5 80/95/5 81/94/5
f 85/98/5 84/99/5 83/100/5 86/101/5
f 81/102/6 80/102/6 84/103/6 85/103/6
f 82/70/7 81/102/7 85/103/7 86/71/7
f 80/102/4 79/70/4 83/71/4 84/103/4
f 87/84/2 88/88/2 90/89/2 89/87/2
f 89/84/4 90/85/4 94/86/4 93/87/4
f 93/76/6 94/77/6 92/78/6 91/79/6
f 91/84/7 92/85/7 88/86/7 87/87/7
f 89/72/3 93/73/3 91/74/3 87/75/3
f 92/80/5 94/81/5 97/82/5 98/83/5
f 95/70/4 98/70/4 102/71/4 99/71/4
f 90/81/5 88/80/5 95/83/5 96/82/5
f 88/92/5 92/93/5 98/94/5 95/95/5
f 94/96/5 90/97/5 96/95/5 97/94/5
f 101/98/5 100/99/5 99/100/5 102/101/5
f 97/102/7 96/102/7 100/103/7 101/103/7
f 98/70/2 97/102/2 101/103/2 102/71/2
f 96/102/6 95/70/6 99/71/6 100/103/6
f 53/92/5 49/93/5 43/94/5 46/95/5
f 47/96/5 51/97/5 45/95/5 44/94/5
f 103/98/5 41/99/5 42/100/5 104/101/5
f 44/102/6 45/102/6 41/103/6 103/103/6
f 43/70/7 44/102/7 103/103/7 104/71/7
f 45/102/4 46/70/4 42/71/4 41/103/4
f 110/104/8 116/105/8 115/106/8 109/107/8
f 108/108/9 114/109/9 113/110/9 107/111/9
f 106/112/10 112/113/10 111/114/10 105/115/10
f 105/115/11 111/114/11 116/116/11 110/117/11
f 109/118/12 115/119/12 114/109/12 108/108/12
f 107/115/13 113/114/13 112/113/13 106/112/13
f 112/120/5 113/121/5 114/122/5 115/123/5 116/124/5 111/125/5
o Cube.002_Cube.002
v -0.059290 0.192185 -0.126744
v -0.059290 0.192082 -0.127467
v -0.056219 0.192185 -0.126744
v -0.056219 0.192082 -0.127467
v -0.052241 0.159522 -0.250702
v -0.039246 0.159522 -0.250702
v -0.061829 0.186619 -0.024014
v -0.052619 0.186619 -0.024014
v -0.026750 0.223323 -0.027185
v -0.088969 0.223323 -0.027185
v -0.090164 0.206689 -0.237719
v -0.027000 0.206689 -0.237719
v -0.096491 0.226804 -0.188256
v -0.019992 0.226804 -0.188256
v -0.022245 0.239998 -0.072906
v -0.098558 0.239998 -0.072906
v -0.059290 0.184708 -0.120104
v -0.059290 0.183399 -0.132427
v -0.056219 0.184708 -0.120104
v -0.056219 0.183399 -0.132427
v -0.052241 0.156868 -0.241060
v -0.039246 0.156868 -0.241060
v -0.061829 0.185758 -0.033977
v -0.052619 0.185758 -0.033977
v -0.026750 0.215990 -0.033984
v -0.088969 0.215831 -0.033808
v -0.090164 0.199027 -0.231293
v -0.027000 0.199602 -0.230664
v -0.096491 0.216804 -0.188210
v -0.019992 0.216804 -0.188254
v -0.022245 0.230057 -0.071821
v -0.098558 0.230063 -0.071768
vn -0.0000 0.2654 -0.9641
vn -0.0000 0.0861 0.9963
vn -0.0000 0.9395 0.3426
vn -0.0000 0.9263 -0.3767
vn -0.0000 0.8683 0.4960
vn -0.0000 0.7477 -0.6640
vn -0.0063 -0.2329 0.9725
vn -0.0025 0.0026 -1.0000
vn 0.0005 -0.9368 -0.3498
vn 0.0022 -0.9255 0.3787
vn -0.0003 -0.8580 -0.5136
vn 0.0004 -0.7291 0.6844
vn -0.0000 -0.4960 0.8683
vn -0.0000 -0.6640 -0.7477
vn -0.0000 -0.9641 -0.2654
vn -0.8680 -0.1263 0.4802
vn 0.9645 -0.2281 -0.1331
vn -0.0000 -0.9963 0.0861
vn 0.8879 -0.1865 -0.4206
vn -0.7470 -0.5938 0.2990
vn 0.7654 -0.5782 0.2827
vn -0.9776 -0.0632 0.2007
vn -0.7555 -0.5513 -0.3540
vn 0.9902 -0.0534 -0.1294
vn -0.9921 -0.0432 -0.1179
vn 0.8738 -0.1247 0.4700
vn 0.9949 -0.0316 0.0957
vn -0.8582 -0.2094 -0.4687
vt 0.674610 0.921385
vt 0.674610 0.925586
vt 0.670737 0.920809
vt 0.670737 0.919472
vt 0.670737 0.919472
vt 0.670737 0.920809
vt 0.677453 0.928155
vt 0.677500 0.922942
vt 0.677453 0.928155
vt 0.680369 0.925108
vt 0.680317 0.927338
s 0
usemtl Material
f 127/126/14 128/127/14 122/128/14 121/129/14
f 125/127/15 126/126/15 123/130/15 124/131/15
f 131/132/16 132/133/16 126/126/16 125/127/16
f 129/133/17 130/134/17 128/127/17 127/126/17
f 118/135/18 120/136/18 130/134/18 129/133/18
f 119/136/19 117/135/19 132/133/19 131/132/19
f 143/126/20 137/129/20 138/128/20 144/127/20
f 141/127/21 140/131/21 139/130/21 142/126/21
f 147/132/22 141/127/22 142/126/22 148/133/22
f 145/133/23 143/126/23 144/127/23 146/134/23
f 134/135/24 145/133/24 146/134/24 136/136/24
f 135/136/25 147/132/25 148/133/25 133/135/25
f 120/136/26 118/135/26 134/135/26 136/136/26
f 117/135/27 119/136/27 135/136/27 133/135/27
f 121/129/28 122/128/28 138/128/28 137/129/28
f 118/135/29 129/133/29 145/133/29 134/135/29
f 122/128/30 128/127/30 144/127/30 138/128/30
f 124/131/31 123/130/31 139/130/31 140/131/31
f 119/136/32 131/132/32 147/132/32 135/136/32
f 123/130/33 126/126/33 142/126/33 139/130/33
f 125/127/34 124/131/34 140/131/34 141/127/34
f 126/126/35 132/133/35 148/133/35 142/126/35
f 127/126/36 121/129/36 137/129/36 143/126/36
f 128/127/37 130/134/37 146/134/37 144/127/37
f 129/133/38 127/126/38 143/126/38 145/133/38
f 130/134/39 120/136/39 136/136/39 146/134/39
f 131/132/40 125/127/40 141/127/40 147/132/40
f 132/133/41 117/135/41 133/135/41 148/133/41
o Cube.002_Cube.003
v -0.054329 0.194083 -0.128767
v -0.055120 0.194010 -0.128570
v -0.054791 0.194083 -0.130784
v -0.055582 0.194010 -0.130587
v -0.176834 0.146184 -0.092186
v -0.178405 0.145019 -0.100724
v 0.050208 0.156201 -0.152431
v 0.051460 0.157058 -0.158450
v 0.052652 0.196475 -0.169849
v 0.044198 0.190682 -0.129184
v -0.165243 0.190581 -0.074742
v -0.172876 0.184922 -0.116242
v -0.118958 0.227668 -0.085089
v -0.128203 0.220814 -0.135351
v -0.000757 0.234571 -0.168052
v 0.010723 0.234571 -0.117913
v -0.048938 0.185752 -0.130001
v -0.058655 0.184842 -0.126712
v -0.049400 0.185752 -0.132018
v -0.059117 0.184842 -0.128729
v -0.167141 0.144250 -0.093705
v -0.168712 0.143086 -0.102243
v 0.040431 0.155896 -0.154507
v 0.041682 0.156754 -0.160526
v 0.043815 0.191934 -0.170982
v 0.035575 0.185722 -0.130197
v -0.157176 0.184711 -0.075425
v -0.164566 0.179413 -0.117020
v -0.116588 0.217991 -0.084226
v -0.126467 0.211016 -0.134358
v -0.002183 0.224713 -0.168945
v 0.009021 0.224755 -0.118782
vn -0.9693 0.1934 0.1519
vn 0.9777 0.0305 0.2076
vn 0.6880 0.7254 0.0233
vn -0.6242 0.7813 0.0083
vn 0.3535 0.9168 -0.1858
vn -0.5391 0.8331 0.1234
vn 0.9733 -0.1719 -0.1518
vn -0.9801 0.0013 -0.1986
vn -0.7056 -0.7082 -0.0251
vn 0.6330 -0.7740 -0.0156
vn -0.3722 -0.9074 0.1952
vn 0.5705 -0.8114 -0.1269
vn 0.8984 -0.3881 -0.2057
vn -0.8121 -0.5531 0.1859
vn -0.1683 -0.9721 0.1635
vn 0.6030 0.0774 0.7940
vn -0.2523 -0.3296 -0.9098
vn 0.0582 -0.9899 -0.1289
vn -0.5755 -0.0298 -0.8173
vn 0.0336 -0.5906 0.8063
vn 0.2340 -0.2829 -0.9302
vn 0.1003 -0.1944 0.9758
vn -0.0507 -0.3765 0.9250
vn -0.2643 -0.1868 -0.9462
vn 0.1348 0.1018 0.9856
vn 0.0165 -0.1502 -0.9885
vn 0.0407 0.1107 -0.9930
vn -0.0912 -0.1329 0.9869
vt 0.674610 0.921385
vt 0.674610 0.925586
vt 0.670737 0.920809
vt 0.670737 0.919472
vt 0.670737 0.919472
vt 0.670737 0.920809
vt 0.677453 0.928155
vt 0.677500 0.922942
vt 0.677453 0.928155
vt 0.680369 0.925108
vt 0.680317 0.927338
s 0
usemtl Material
f 159/137/42 160/138/42 154/139/42 153/140/42
f 157/138/43 158/137/43 155/141/43 156/142/43
f 163/143/44 164/144/44 158/137/44 157/138/44
f 161/144/45 162/145/45 160/138/45 159/137/45
f 150/146/46 152/147/46 162/145/46 161/144/46
f 151/147/47 149/146/47 164/144/47 163/143/47
f 175/137/48 169/140/48 170/139/48 176/138/48
f 173/138/49 172/142/49 171/141/49 174/137/49
f 179/143/50 173/138/50 174/137/50 180/144/50
f 177/144/51 175/137/51 176/138/51 178/145/51
f 166/146/52 177/144/52 178/145/52 168/147/52
f 167/147/53 179/143/53 180/144/53 165/146/53
f 152/147/54 150/146/54 166/146/54 168/147/54
f 149/146/55 151/147/55 167/147/55 165/146/55
f 153/140/56 154/139/56 170/139/56 169/140/56
f 150/146/57 161/144/57 177/144/57 166/146/57
f 154/139/58 160/138/58 176/138/58 170/139/58
f 156/142/59 155/141/59 171/141/59 172/142/59
f 151/147/60 163/143/60 179/143/60 167/147/60
f 155/141/61 158/137/61 174/137/61 171/141/61
f 157/138/62 156/142/62 172/142/62 173/138/62
f 158/137/63 164/144/63 180/144/63 174/137/63
f 159/137/64 153/140/64 169/140/64 175/137/64
f 160/138/65 162/145/65 178/145/65 176/138/65
f 161/144/66 159/137/66 175/137/66 177/144/66
f 162/145/67 152/147/67 168/147/67 178/145/67
f 163/143/68 157/138/68 173/138/68 179/143/68
f 164/144/69 149/146/69 165/146/69 180/144/69
o Cube.002_Cube.004
v -0.050668 0.197194 -0.120207
v -0.051395 0.196938 -0.120481
v -0.049896 0.197175 -0.122127
v -0.050623 0.196919 -0.122401
v -0.143087 0.126314 -0.184572
v -0.140415 0.128196 -0.192699
v 0.047229 0.194200 -0.087344
v 0.049545 0.194144 -0.093103
v 0.044758 0.236009 -0.108476
v 0.029115 0.236387 -0.069568
v -0.153873 0.162212 -0.152875
v -0.140887 0.171361 -0.192375
v -0.120967 0.206321 -0.128454
v -0.105240 0.217401 -0.176292
v 0.005919 0.250229 -0.126360
v -0.013268 0.250693 -0.078638
v -0.043938 0.190336 -0.117435
v -0.052467 0.187313 -0.122976
v -0.043166 0.190317 -0.119355
v -0.051695 0.187295 -0.124896
v -0.133593 0.126394 -0.181432
v -0.130921 0.128276 -0.189559
v 0.038204 0.191844 -0.090950
v 0.040520 0.191788 -0.096709
v 0.038293 0.228810 -0.111005
v 0.023135 0.228718 -0.071898
v -0.144956 0.158147 -0.150885
v -0.131830 0.167696 -0.190246
v -0.116952 0.197192 -0.129200
v -0.100653 0.208530 -0.176797
v 0.007575 0.240397 -0.125598
v -0.011395 0.240906 -0.077790
vn -0.9494 -0.0080 -0.3140
vn 0.9025 0.2356 0.3606
vn 0.2967 0.9486 0.1101
vn -0.7679 0.6317 -0.1061
vn 0.1072 0.9624 0.2495
vn -0.6729 0.6858 -0.2772
vn 0.9464 0.0282 0.3217
vn -0.9146 -0.1911 -0.3564
vn -0.3076 -0.9444 -0.1163
vn 0.7741 -0.6230 0.1123
vn -0.1277 -0.9564 -0.2627
vn 0.6913 -0.6655 0.2815
vn 0.9091 -0.1965 0.3674
vn -0.6388 -0.7277 -0.2498
vn 0.0749 -0.9766 -0.2016
vn -0.1302 -0.1887 0.9734
vn 0.2733 0.0003 -0.9619
vn 0.2153 -0.9718 0.0960
vn 0.0705 -0.1726 -0.9825
vn -0.0590 -0.4417 0.8952
vn 0.4929 -0.2676 -0.8279
vn -0.2026 -0.0354 0.9786
vn -0.3286 -0.6955 0.6390
vn 0.2426 0.1397 -0.9600
vn -0.3429 -0.2508 0.9053
vn 0.7393 0.2424 -0.6282
vn 0.4159 -0.0231 -0.9091
vn -0.6343 -0.1634 0.7557
vt 0.674610 0.921385
vt 0.674610 0.925586
vt 0.670737 0.920809
vt 0.670737 0.919472
vt 0.670737 0.919472
vt 0.670737 0.920809
vt 0.677453 0.928155
vt 0.677500 0.922942
vt 0.677453 0.928155
vt 0.680369 0.925108
vt 0.680317 0.927338
s 0
usemtl Material
f 191/148/70 192/149/70 186/150/70 185/151/70
f 189/149/71 190/148/71 187/152/71 188/153/71
f 195/154/72 196/155/72 190/148/72 189/149/72
f 193/155/73 194/156/73 192/149/73 191/148/73
f 182/157/74 184/158/74 194/156/74 193/155/74
f 183/158/75 181/157/75 196/155/75 195/154/75
f 207/148/76 201/151/76 202/150/76 208/149/76
f 205/149/77 204/153/77 203/152/77 206/148/77
f 211/154/78 205/149/78 206/148/78 212/155/78
f 209/155/79 207/148/79 208/149/79 210/156/79
f 198/157/80 209/155/80 210/156/80 200/158/80
f 199/158/81 211/154/81 212/155/81 197/157/81
f 184/158/82 182/157/82 198/157/82 200/158/82
f 181/157/83 183/158/83 199/158/83 197/157/83
f 185/151/84 186/150/84 202/150/84 201/151/84
f 182/157/85 193/155/85 209/155/85 198/157/85
f 186/150/86 192/149/86 208/149/86 202/150/86
f 188/153/87 187/152/87 203/152/87 204/153/87
f 183/158/88 195/154/88 211/154/88 199/158/88
f 187/152/89 190/148/89 206/148/89 203/152/89
f 189/149/90 188/153/90 204/153/90 205/149/90
f 190/148/91 196/155/91 212/155/91 206/148/91
f 191/148/92 185/151/92 201/151/92 207/148/92
f 192/149/93 194/156/93 210/156/93 208/149/93
f 193/155/94 191/148/94 207/148/94 209/155/94
f 194/156/95 184/158/95 200/158/95 210/156/95
f 195/154/96 189/149/96 205/149/96 211/154/96
f 196/155/97 181/157/97 197/157/97 212/155/97
o Cube.002_Cube.005
v -0.118403 0.000000 -0.062881
v -0.078403 0.190000 -0.102881
v -0.118403 0.000000 -0.182881
v -0.078403 0.190000 -0.142881
v 0.001597 0.000000 -0.062881
v -0.038403 0.190000 -0.102881
v 0.001597 0.000000 -0.182881
v -0.038403 0.190000 -0.142881
v -0.078403 0.110000 -0.102881
v -0.078403 0.110000 -0.142881
v -0.038403 0.110000 -0.142881
v -0.038403 0.110000 -0.102881
v -0.088403 0.040000 -0.152881
v -0.018403 0.040000 -0.152881
v -0.018403 0.040000 -0.092881
v -0.088403 0.040000 -0.092881
v 0.154234 -0.004245 0.296489
v 0.027463 -0.004245 0.330152
v -0.050887 -0.004245 0.242024
v 0.027463 -0.004245 0.153895
v 0.154234 -0.004245 0.187558
v 0.075919 0.074395 0.330152
v -0.050852 0.074395 0.296489
v -0.050852 0.074395 0.187558
v 0.075919 0.074395 0.153895
v 0.154269 0.074395 0.242024
v 0.040881 0.122997 0.242024
v 0.299169 -0.004245 0.174569
v 0.180731 -0.004245 0.202809
v 0.107531 -0.004245 0.128877
v 0.180731 -0.004245 0.054944
v 0.299169 -0.004245 0.083184
v 0.226001 0.074395 0.202809
v 0.107563 0.074395 0.174569
v 0.107563 0.074395 0.083184
v 0.226001 0.074395 0.054944
v 0.299202 0.074395 0.128877
v 0.193266 0.122997 0.128877
vn -1.0000 -0.0000 -0.0000
vn -0.0000 -0.0000 -1.0000
vn 1.0000 -0.0000 -0.0000
vn -0.0000 -0.0000 1.0000
vn -0.0000 -1.0000 -0.0000
vn -0.0000 1.0000 -0.0000
vn -0.0000 0.1414 0.9899
vn 0.9615 0.2747 -0.0000
vn -0.0000 0.1414 -0.9899
vn -0.9899 0.1414 -0.0000
vn -0.8000 0.6000 -0.0000
vn -0.0000 0.6000 -0.8000
vn 0.8944 0.4472 -0.0000
vn -0.0000 0.6000 0.8000
vn 1.0000 -0.0004 -0.0000
vn 0.2535 -0.1562 0.9546
vn -0.6790 -0.4178 0.6037
vn -0.6790 -0.4178 -0.6037
vn 0.2535 -0.1562 -0.9546
vn 0.6790 0.4178 0.6037
vn -0.2535 0.1562 0.9546
vn -1.0000 0.0004 -0.0000
vn -0.2535 0.1562 -0.9546
vn 0.6790 0.4178 -0.6037
vn 0.3718 0.8675 0.3306
vn -0.1380 0.8431 0.5198
vn -0.4682 0.8836 -0.0000
vn -0.1380 0.8431 -0.5198
vn 0.3718 0.8675 -0.3306
vn 0.2299 -0.1323 0.9642
vn -0.6578 -0.3782 0.6513
vn -0.6578 -0.3782 -0.6513
vn 0.2299 -0.1323 -0.9642
vn 0.6578 0.3782 0.6513
vn -0.2299 0.1323 0.9642
vn -0.2299 0.1323 -0.9642
vn 0.6578 0.3782 -0.6513
vn 0.3854 0.8401 0.3816
vn -0.1398 0.7979 0.5864
vn -0.4933 0.8699 -0.0000
vn -0.1398 0.7979 -0.5864
vn 0.3854 0.8401 -0.3816
vt 0.682815 0.914757
vt 0.682815 0.917449
vt 0.686336 0.917449
vt 0.686336 0.914757
vt 0.686336 0.914757
vt 0.682815 0.914757
vt 0.687887 0.910551
vt 0.687902 0.910551
vt 0.680623 0.910551
vt 0.687031 0.912275
vt 0.682120 0.912275
vt 0.682120 0.912275
vt 0.687031 0.912275
vt 0.680611 0.910551
vt 0.682120 0.912275
vt 0.687031 0.912275
vt 0.688540 0.910551
vt 0.690420 0.889710
vt 0.696565 0.889710
vt 0.696567 0.894116
vt 0.689462 0.889710
vt 0.692177 0.894116
vt 0.685072 0.889710
vt 0.685074 0.894116
vt 0.693090 0.894116
vt 0.693140 0.889471
vt 0.697984 0.892788
vt 0.690974 0.892788
vt 0.685303 0.890738
vt 0.685303 0.894838
vt 0.693140 0.896105
s 0
usemtl Material
f 221/159/98 214/160/98 216/161/98 222/162/98
f 222/159/99 216/160/99 220/161/99 223/163/99
f 223/164/100 220/160/100 218/161/100 224/163/100
f 224/163/101 218/161/101 214/160/101 221/159/101
f 215/165/102 219/166/102 217/166/102 213/167/102
f 220/161/103 216/161/103 214/160/103 218/161/103
f 227/168/104 224/163/104 221/159/104 228/169/104
f 226/170/105 223/164/105 224/163/105 227/168/105
f 225/170/106 222/159/106 223/163/106 226/171/106
f 228/169/107 221/159/107 222/162/107 225/171/107
f 213/172/108 228/173/108 225/174/108 215/175/108
f 215/172/109 225/173/109 226/174/109 219/175/109
f 219/172/110 226/173/110 227/174/110 217/175/110
f 217/175/111 227/174/111 228/173/111 213/172/111
f 229/176/112 233/177/112 238/178/112
f 230/179/113 229/177/113 234/180/113
f 231/181/114 230/179/114 235/182/114
f 232/179/115 231/181/115 236/182/115
f 233/177/116 232/179/116 237/180/116
f 229/177/117 238/178/117 234/180/117
f 230/179/118 234/180/118 235/182/118
f 231/181/119 235/183/119 236/182/119
f 232/179/120 236/182/120 237/180/120
f 233/177/121 237/180/121 238/178/121
f 234/184/122 238/185/122 239/186/122
f 235/187/123 234/184/123 239/186/123
f 236/188/124 235/187/124 239/186/124
f 237/189/125 236/188/125 239/186/125
f 238/185/126 237/189/126 239/186/126
f 240/176/112 244/177/112 249/178/112
f 241/179/127 240/177/127 245/180/127
f 242/181/128 241/179/128 246/182/128
f 243/179/129 242/181/129 247/182/129
f 244/177/130 243/179/130 248/180/130
f 240/177/131 249/178/131 245/180/131
f 241/179/132 245/180/132 246/182/132
f 242/181/119 246/183/119 247/182/119
f 243/179/133 247/182/133 248/180/133
f 244/177/134 248/180/134 249/178/134
f 245/184/135 249/185/135 250/186/135
f 246/187/136 245/184/136 250/186/136
f 247/188/137 246/187/137 250/186/137
f 248/189/138 247/188/138 250/186/138
f 249/185/139 248/189/139 250/186/139
