# Blender 3.6.5
# www.blender.org
mtllib Poly_SF_Outside_B_Digital_Signage_01_Lamp.mtl
o Cube.001
v -0.500000 0.600000 -0.440000
v 0.500000 0.600000 -0.440000
v -0.500000 0.000000 -0.440000
v 0.500000 0.000000 -0.440000
v -0.500000 0.600000 -0.500000
v 0.500000 0.600000 -0.500000
v -0.500000 0.000000 -0.500000
v 0.500000 0.000000 -0.500000
vn -0.0000 -0.0000 1.0000
vn -0.0000 -0.0000 -1.0000
vt 0.190234 0.110579
vt 0.190228 0.075738
vt 0.248638 0.075738
vt 0.248638 0.110579
vt 0.556119 0.367740
vt 0.614524 0.367740
vt 0.614524 0.332899
vt 0.556113 0.332899
s 0
usemtl regular
f 1/1/1 3/2/1 4/3/1 2/4/1
f 5/5/2 6/6/2 8/7/2 7/8/2
