# Blender 3.6.5
# www.blender.org
mtllib Poly_World_Map_Bridge_01.mtl
o Grid.002
v -0.699990 -0.156652 0.489792
v -0.699990 -0.029919 0.489792
v -0.699990 -0.156652 -0.489792
v -0.699990 -0.029919 -0.489792
v 0.699415 -0.156652 0.489792
v 0.699415 -0.029919 0.489792
v 0.699415 -0.156652 -0.489792
v 0.699415 -0.029919 -0.489792
v -0.000288 0.054569 -0.489792
v -0.000288 0.181301 -0.489792
v -0.000288 0.054569 0.489792
v -0.000288 0.181301 0.489792
v -0.350139 0.012325 -0.489792
v -0.350139 0.139057 0.489792
v -0.350139 0.139057 -0.489792
v -0.350139 0.012325 0.489792
v 0.349564 0.139057 -0.489792
v 0.349564 0.012325 0.489792
v 0.349564 0.012325 -0.489792
v 0.349564 0.139057 0.489792
vn -1.0000 -0.0000 -0.0000
vn -0.0000 -0.0000 -1.0000
vn 1.0000 -0.0000 -0.0000
vn -0.0000 -0.0000 1.0000
vn -0.4349 -0.9005 -0.0000
vn -0.4349 0.9005 -0.0000
vn 0.1199 0.9928 -0.0000
vn 0.1199 -0.9928 -0.0000
vn 0.4349 -0.9005 -0.0000
vn -0.1199 0.9928 -0.0000
vn 0.4349 0.9005 -0.0000
vn -0.1199 -0.9928 -0.0000
vt 0.071358 0.809437
vt 0.071358 0.756450
vt 0.116931 0.756450
vt 0.116931 0.809437
vt 0.062761 0.781964
vt 0.072486 0.781964
vt 0.072395 0.810159
vt 0.062670 0.810159
vt 0.071358 0.760928
vt 0.071358 0.773900
vt 0.116931 0.773900
vt 0.116931 0.760928
vt 0.071254 0.774520
vt 0.071254 0.760971
vt 0.116931 0.760971
vt 0.116931 0.774520
s 0
usemtl Material.002
f 1/1/1 2/2/1 4/3/1 3/4/1
f 19/5/2 17/6/2 8/7/2 7/8/2
f 7/1/3 8/2/3 6/3/3 5/4/3
f 16/5/4 14/6/4 2/7/4 1/8/4
f 19/9/5 7/10/5 5/11/5 18/12/5
f 15/13/6 4/14/6 2/15/6 14/16/6
f 17/13/7 10/14/7 12/15/7 20/16/7
f 13/9/8 9/10/8 11/11/8 16/12/8
f 18/5/4 20/6/4 12/7/4 11/8/4
f 13/5/2 15/6/2 10/7/2 9/8/2
f 3/8/2 4/7/2 15/6/2 13/5/2
f 3/10/9 13/9/9 16/12/9 1/11/9
f 10/14/10 15/13/10 14/16/10 12/15/10
f 11/8/4 12/7/4 14/6/4 16/5/4
f 5/8/4 6/7/4 20/6/4 18/5/4
f 8/14/11 17/13/11 20/16/11 6/15/11
f 9/10/12 19/9/12 18/12/12 11/11/12
f 9/8/2 10/7/2 17/6/2 19/5/2
o Grid.001
v -0.699990 0.139057 0.559762
v -0.699990 0.181301 0.559762
v -0.699990 0.139057 0.489792
v -0.699990 0.181301 0.489792
v 0.699415 0.139057 0.559762
v 0.699415 0.181301 0.559762
v 0.699415 0.139057 0.489792
v 0.699415 0.181301 0.489792
v -0.000288 0.350278 0.489792
v -0.000288 0.392522 0.489792
v -0.000288 0.350278 0.559762
v -0.000288 0.392522 0.559762
v 0.349564 0.350278 0.489792
v 0.349564 0.308033 0.559762
v 0.349564 0.308033 0.489792
v 0.349564 0.350278 0.559762
v -0.350139 0.308033 0.489792
v -0.350139 0.350278 0.559762
v -0.350139 0.350278 0.489792
v -0.350139 0.308033 0.559762
v -0.699990 -0.072163 0.559762
v -0.699990 -0.029919 0.559762
v -0.699990 -0.072163 0.489792
v -0.699990 -0.029919 0.489792
v 0.699415 -0.072163 0.559762
v 0.699415 -0.029919 0.559762
v 0.699415 -0.072163 0.489792
v 0.699415 -0.029919 0.489792
v -0.000288 0.139057 0.489792
v -0.000288 0.181301 0.489792
v -0.000288 0.139057 0.559762
v -0.000288 0.181301 0.559762
v 0.349564 0.139057 0.489792
v 0.349564 0.096813 0.559762
v 0.349564 0.096813 0.489792
v 0.349564 0.139057 0.559762
v -0.350139 0.096813 0.489792
v -0.350139 0.139057 0.559762
v -0.350139 0.139057 0.489792
v -0.350139 0.096813 0.559762
v -0.699990 0.139057 -0.559762
v -0.699990 0.181301 -0.559762
v -0.699990 0.139057 -0.489792
v -0.699990 0.181301 -0.489792
v 0.699415 0.139057 -0.559762
v 0.699415 0.181301 -0.559762
v 0.699415 0.139057 -0.489792
v 0.699415 0.181301 -0.489792
v -0.000288 0.350278 -0.489791
v -0.000288 0.392522 -0.489791
v -0.000288 0.350278 -0.559762
v -0.000288 0.392522 -0.559762
v 0.349564 0.350278 -0.489791
v 0.349564 0.308034 -0.559762
v 0.349564 0.308034 -0.489792
v 0.349564 0.350278 -0.559762
v -0.350139 0.308034 -0.489792
v -0.350139 0.350278 -0.559762
v -0.350139 0.350278 -0.489791
v -0.350139 0.308034 -0.559762
v -0.699990 -0.072163 -0.559762
v -0.699990 -0.029919 -0.559762
v -0.699990 -0.072163 -0.489792
v -0.699990 -0.029919 -0.489792
v 0.699415 -0.072163 -0.559762
v 0.699415 -0.029919 -0.559762
v 0.699415 -0.072163 -0.489792
v 0.699415 -0.029919 -0.489792
v -0.000288 0.139057 -0.489792
v -0.000288 0.181301 -0.489792
v -0.000288 0.139057 -0.559762
v -0.000288 0.181301 -0.559762
v 0.349564 0.139057 -0.489792
v 0.349564 0.096813 -0.559762
v 0.349564 0.096813 -0.489792
v 0.349564 0.139057 -0.559762
v -0.350139 0.096813 -0.489792
v -0.350139 0.139057 -0.559762
v -0.350139 0.139057 -0.489792
v -0.350139 0.096813 -0.559762
vn -1.0000 -0.0000 -0.0000
vn -0.0000 -0.0000 -1.0000
vn 1.0000 -0.0000 -0.0000
vn -0.0000 -0.0000 1.0000
vn -0.4349 -0.9005 -0.0000
vn -0.4349 0.9005 -0.0000
vn 0.1199 0.9928 -0.0000
vn 0.1199 -0.9928 -0.0000
vn 0.4349 0.9005 -0.0000
vn -0.1199 -0.9928 -0.0000
vn 0.4349 -0.9005 -0.0000
vn -0.1199 0.9928 -0.0000
vt 0.062892 0.750391
vt 0.069831 0.750391
vt 0.069831 0.812033
vt 0.062892 0.812033
vt 0.062815 0.750469
vt 0.062815 0.811956
vt 0.069909 0.811956
vt 0.069909 0.750469
vt 0.062669 0.750227
vt 0.062669 0.812136
vt 0.070054 0.812136
vt 0.070054 0.750227
s 0
usemtl Material.002
f 21/17/13 22/18/13 24/19/13 23/20/13
f 35/20/14 33/19/14 28/18/14 27/17/14
f 27/17/15 28/18/15 26/19/15 25/20/15
f 40/20/16 38/19/16 22/18/16 21/17/16
f 35/21/17 27/22/17 25/23/17 34/24/17
f 39/25/18 24/26/18 22/27/18 38/28/18
f 33/25/19 30/26/19 32/27/19 36/28/19
f 37/21/20 29/22/20 31/23/20 40/24/20
f 34/17/16 36/18/16 32/19/16 31/20/16
f 37/17/14 39/18/14 30/19/14 29/20/14
f 25/20/16 26/19/16 36/18/16 34/17/16
f 28/25/21 33/26/21 36/27/21 26/28/21
f 29/21/22 35/22/22 34/23/22 31/24/22
f 29/20/14 30/19/14 33/18/14 35/17/14
f 23/20/14 24/19/14 39/18/14 37/17/14
f 23/21/23 37/22/23 40/23/23 21/24/23
f 30/25/24 39/26/24 38/27/24 32/28/24
f 31/20/16 32/19/16 38/18/16 40/17/16
f 41/17/13 42/18/13 44/19/13 43/20/13
f 55/20/14 53/19/14 48/18/14 47/17/14
f 47/17/15 48/18/15 46/19/15 45/20/15
f 60/20/16 58/19/16 42/18/16 41/17/16
f 55/21/17 47/22/17 45/23/17 54/24/17
f 59/25/18 44/26/18 42/27/18 58/28/18
f 53/25/19 50/26/19 52/27/19 56/28/19
f 57/21/20 49/22/20 51/23/20 60/24/20
f 54/17/16 56/18/16 52/19/16 51/20/16
f 57/17/14 59/18/14 50/19/14 49/20/14
f 45/20/16 46/19/16 56/18/16 54/17/16
f 48/25/21 53/26/21 56/27/21 46/28/21
f 49/21/22 55/22/22 54/23/22 51/24/22
f 49/20/14 50/19/14 53/18/14 55/17/14
f 43/20/14 44/19/14 59/18/14 57/17/14
f 43/21/23 57/22/23 60/23/23 41/24/23
f 50/25/24 59/26/24 58/27/24 52/28/24
f 51/20/16 52/19/16 58/18/16 60/17/16
f 61/17/13 63/20/13 64/19/13 62/18/13
f 75/20/16 67/17/16 68/18/16 73/19/16
f 67/17/15 65/20/15 66/19/15 68/18/15
f 80/20/14 61/17/14 62/18/14 78/19/14
f 75/21/17 74/24/17 65/23/17 67/22/17
f 79/25/18 78/28/18 62/27/18 64/26/18
f 73/25/19 76/28/19 72/27/19 70/26/19
f 77/21/20 80/24/20 71/23/20 69/22/20
f 74/17/14 71/20/14 72/19/14 76/18/14
f 77/17/16 69/20/16 70/19/16 79/18/16
f 65/20/14 74/17/14 76/18/14 66/19/14
f 68/25/21 66/28/21 76/27/21 73/26/21
f 69/21/22 71/24/22 74/23/22 75/22/22
f 69/20/16 75/17/16 73/18/16 70/19/16
f 63/20/16 77/17/16 79/18/16 64/19/16
f 63/21/23 61/24/23 80/23/23 77/22/23
f 70/25/24 72/28/24 78/27/24 79/26/24
f 71/20/14 80/17/14 78/18/14 72/19/14
f 81/17/13 83/20/13 84/19/13 82/18/13
f 95/20/16 87/17/16 88/18/16 93/19/16
f 87/17/15 85/20/15 86/19/15 88/18/15
f 100/20/14 81/17/14 82/18/14 98/19/14
f 95/21/17 94/24/17 85/23/17 87/22/17
f 99/25/18 98/28/18 82/27/18 84/26/18
f 93/25/19 96/28/19 92/27/19 90/26/19
f 97/21/20 100/24/20 91/23/20 89/22/20
f 94/17/14 91/20/14 92/19/14 96/18/14
f 97/17/16 89/20/16 90/19/16 99/18/16
f 85/20/14 94/17/14 96/18/14 86/19/14
f 88/25/21 86/28/21 96/27/21 93/26/21
f 89/21/22 91/24/22 94/23/22 95/22/22
f 89/20/16 95/17/16 93/18/16 90/19/16
f 83/20/16 97/17/16 99/18/16 84/19/16
f 83/21/23 81/24/23 100/23/23 97/22/23
f 90/25/24 92/28/24 98/27/24 99/26/24
f 91/20/14 100/17/14 98/18/14 92/19/14
o Grid.003
v -0.699990 -0.029919 0.559762
v -0.699990 0.139057 0.559762
v -0.699990 -0.029919 0.489792
v -0.699990 0.139057 0.489792
v -0.630020 0.003876 0.559762
v -0.630020 0.172852 0.559762
v -0.630020 0.003876 0.489792
v -0.630020 0.172852 0.489792
v -0.595035 0.020774 0.559762
v -0.595035 0.189750 0.559762
v -0.595035 0.020774 0.489792
v -0.595035 0.189750 0.489792
v -0.525064 0.054569 0.559762
v -0.525064 0.223545 0.559762
v -0.525064 0.054569 0.489792
v -0.525064 0.223545 0.489792
v -0.490079 0.071467 0.559762
v -0.490079 0.240443 0.559762
v -0.490079 0.071467 0.489792
v -0.490079 0.240443 0.489792
v -0.420109 0.105262 0.559762
v -0.420109 0.274238 0.559762
v -0.420109 0.105262 0.489792
v -0.420109 0.274238 0.489792
v -0.385124 0.122159 0.559762
v -0.385124 0.291136 0.559762
v -0.385124 0.122159 0.489792
v -0.385124 0.291136 0.489792
v -0.315154 0.143281 0.559762
v -0.315154 0.312258 0.559762
v -0.315154 0.143281 0.489792
v -0.315154 0.312258 0.489792
v -0.350139 0.139057 0.489792
v -0.350139 0.308033 0.489792
v -0.350139 0.139057 0.559762
v -0.350139 0.308033 0.559762
v 0.699415 -0.029919 0.559762
v 0.699415 0.139057 0.559762
v 0.699415 -0.029919 0.489792
v 0.699415 0.139057 0.489792
v 0.629445 0.003876 0.559762
v 0.629445 0.172852 0.559762
v 0.629445 0.003876 0.489792
v 0.629445 0.172852 0.489792
v 0.594459 0.020774 0.559762
v 0.594459 0.189750 0.559762
v 0.594459 0.020774 0.489792
v 0.594459 0.189750 0.489792
v 0.524489 0.054569 0.559762
v 0.524489 0.223545 0.559762
v 0.524489 0.054569 0.489792
v 0.524489 0.223545 0.489792
v 0.489504 0.071467 0.559762
v 0.489504 0.240443 0.559762
v 0.489504 0.071467 0.489792
v 0.489504 0.240443 0.489792
v 0.419534 0.105262 0.559762
v 0.419534 0.274238 0.559762
v 0.419534 0.105262 0.489792
v 0.419534 0.274238 0.489792
v 0.384549 0.122159 0.559762
v 0.384549 0.291136 0.559762
v 0.384549 0.122159 0.489792
v 0.384549 0.291136 0.489792
v 0.314578 0.143281 0.559762
v 0.314578 0.312258 0.559762
v 0.314578 0.143281 0.489792
v 0.314578 0.312258 0.489792
v 0.349564 0.139057 0.489792
v 0.349564 0.308033 0.489792
v 0.349564 0.139057 0.559762
v 0.349564 0.308033 0.559762
v -0.699990 -0.029919 -0.559762
v -0.699990 0.139057 -0.559762
v -0.699990 -0.029919 -0.489792
v -0.699990 0.139057 -0.489792
v -0.630020 0.003876 -0.559762
v -0.630020 0.172852 -0.559762
v -0.630020 0.003876 -0.489792
v -0.630020 0.172852 -0.489792
v -0.595035 0.020774 -0.559762
v -0.595035 0.189750 -0.559762
v -0.595035 0.020774 -0.489792
v -0.595035 0.189750 -0.489792
v -0.525064 0.054569 -0.559762
v -0.525064 0.223545 -0.559762
v -0.525064 0.054569 -0.489792
v -0.525064 0.223545 -0.489792
v -0.490079 0.071467 -0.559762
v -0.490079 0.240443 -0.559762
v -0.490079 0.071467 -0.489792
v -0.490079 0.240443 -0.489792
v -0.420109 0.105262 -0.559762
v -0.420109 0.274238 -0.559762
v -0.420109 0.105262 -0.489792
v -0.420109 0.274238 -0.489792
v -0.385124 0.122160 -0.559762
v -0.385124 0.291136 -0.559762
v -0.385124 0.122160 -0.489792
v -0.385124 0.291136 -0.489792
v -0.315154 0.143282 -0.559762
v -0.315154 0.312258 -0.559762
v -0.315154 0.143282 -0.489792
v -0.315154 0.312258 -0.489792
v -0.350139 0.139057 -0.489792
v -0.350139 0.308034 -0.489792
v -0.350139 0.139057 -0.559762
v -0.350139 0.308034 -0.559762
v 0.699415 -0.029919 -0.559762
v 0.699415 0.139057 -0.559762
v 0.699415 -0.029919 -0.489792
v 0.699415 0.139057 -0.489792
v 0.629445 0.003876 -0.559762
v 0.629445 0.172852 -0.559762
v 0.629445 0.003876 -0.489792
v 0.629445 0.172852 -0.489792
v 0.594459 0.020774 -0.559762
v 0.594459 0.189750 -0.559762
v 0.594459 0.020774 -0.489792
v 0.594459 0.189750 -0.489792
v 0.524489 0.054569 -0.559762
v 0.524489 0.223545 -0.559762
v 0.524489 0.054569 -0.489792
v 0.524489 0.223545 -0.489792
v 0.489504 0.071467 -0.559762
v 0.489504 0.240443 -0.559762
v 0.489504 0.071467 -0.489792
v 0.489504 0.240443 -0.489792
v 0.419534 0.105262 -0.559762
v 0.419534 0.274238 -0.559762
v 0.419534 0.105262 -0.489792
v 0.419534 0.274238 -0.489792
v 0.384549 0.122160 -0.559762
v 0.384549 0.291136 -0.559762
v 0.384549 0.122160 -0.489792
v 0.384549 0.291136 -0.489792
v 0.314578 0.143282 -0.559762
v 0.314578 0.312258 -0.559762
v 0.314578 0.143282 -0.489792
v 0.314578 0.312258 -0.489792
v 0.349564 0.139057 -0.489792
v 0.349564 0.308034 -0.489792
v 0.349564 0.139057 -0.559762
v 0.349564 0.308034 -0.559762
vn -1.0000 -0.0000 -0.0000
vn -0.0000 -0.0000 -1.0000
vn 1.0000 -0.0000 -0.0000
vn -0.0000 -0.0000 1.0000
vn 0.4349 -0.9005 -0.0000
vn -0.4349 0.9005 -0.0000
vn 0.1199 -0.9928 -0.0000
vn -0.1199 0.9928 -0.0000
vn -0.4349 -0.9005 -0.0000
vn 0.4349 0.9005 -0.0000
vn -0.1199 -0.9928 -0.0000
vn 0.1199 0.9928 -0.0000
vt 0.070078 0.750252
vt 0.070078 0.812077
vt 0.063062 0.812077
vt 0.063062 0.750333
vt 0.070122 0.803223
vt 0.062698 0.803223
vt 0.062698 0.813639
vt 0.070122 0.813639
vt 0.070078 0.803223
vt 0.063062 0.803304
vt 0.066570 0.750293
vt 0.066570 0.812077
vt 0.066570 0.750293
vt 0.066570 0.812078
vt 0.066410 0.803223
vt 0.066410 0.813639
vt 0.066570 0.803263
s 0
usemtl Material.002
f 101/29/25 102/30/25 104/31/25 103/32/25
f 103/32/26 104/31/26 108/30/26 107/29/26
f 107/29/27 108/30/27 106/31/27 105/32/27
f 105/32/28 106/31/28 102/30/28 101/29/28
f 103/33/29 107/34/29 105/35/29 101/36/29
f 108/37/30 104/38/30 102/31/30 106/30/30
f 109/29/25 110/30/25 112/31/25 111/32/25
f 111/32/26 112/31/26 116/30/26 115/29/26
f 115/29/27 116/30/27 114/31/27 113/32/27
f 113/32/28 114/31/28 110/30/28 109/29/28
f 111/33/29 115/34/29 113/35/29 109/36/29
f 116/37/30 112/38/30 110/31/30 114/30/30
f 117/29/25 118/30/25 120/31/25 119/32/25
f 119/32/26 120/31/26 124/30/26 123/29/26
f 123/29/27 124/30/27 122/31/27 121/32/27
f 121/32/28 122/31/28 118/30/28 117/29/28
f 119/33/29 123/34/29 121/35/29 117/36/29
f 124/37/30 120/38/30 118/31/30 122/30/30
f 125/29/25 126/30/25 128/31/25 127/32/25
f 133/39/26 134/40/26 132/30/26 131/29/26
f 131/29/27 132/30/27 130/31/27 129/32/27
f 135/41/28 136/42/28 126/30/28 125/29/28
f 133/43/31 131/34/31 129/35/31 135/44/31
f 134/45/30 128/38/30 126/31/30 136/42/30
f 132/37/32 134/45/32 136/42/32 130/30/32
f 127/33/29 133/43/29 135/44/29 125/36/29
f 129/32/28 130/31/28 136/42/28 135/41/28
f 127/32/26 128/31/26 134/40/26 133/39/26
f 137/29/27 139/32/27 140/31/27 138/30/27
f 139/32/26 143/29/26 144/30/26 140/31/26
f 143/29/25 141/32/25 142/31/25 144/30/25
f 141/32/28 137/29/28 138/30/28 142/31/28
f 139/33/33 137/36/33 141/35/33 143/34/33
f 144/37/34 142/30/34 138/31/34 140/38/34
f 145/29/27 147/32/27 148/31/27 146/30/27
f 147/32/26 151/29/26 152/30/26 148/31/26
f 151/29/25 149/32/25 150/31/25 152/30/25
f 149/32/28 145/29/28 146/30/28 150/31/28
f 147/33/33 145/36/33 149/35/33 151/34/33
f 152/37/34 150/30/34 146/31/34 148/38/34
f 153/29/27 155/32/27 156/31/27 154/30/27
f 155/32/26 159/29/26 160/30/26 156/31/26
f 159/29/25 157/32/25 158/31/25 160/30/25
f 157/32/28 153/29/28 154/30/28 158/31/28
f 155/33/33 153/36/33 157/35/33 159/34/33
f 160/37/34 158/30/34 154/31/34 156/38/34
f 161/29/27 163/32/27 164/31/27 162/30/27
f 169/39/26 167/29/26 168/30/26 170/40/26
f 167/29/25 165/32/25 166/31/25 168/30/25
f 171/41/28 161/29/28 162/30/28 172/42/28
f 169/43/35 171/44/35 165/35/35 167/34/35
f 170/45/34 172/42/34 162/31/34 164/38/34
f 168/37/36 166/30/36 172/42/36 170/45/36
f 163/33/33 161/36/33 171/44/33 169/43/33
f 165/32/28 171/41/28 172/42/28 166/31/28
f 163/32/26 169/39/26 170/40/26 164/31/26
f 173/29/25 175/32/25 176/31/25 174/30/25
f 175/32/28 179/29/28 180/30/28 176/31/28
f 179/29/27 177/32/27 178/31/27 180/30/27
f 177/32/26 173/29/26 174/30/26 178/31/26
f 175/33/29 173/36/29 177/35/29 179/34/29
f 180/37/30 178/30/30 174/31/30 176/38/30
f 181/29/25 183/32/25 184/31/25 182/30/25
f 183/32/28 187/29/28 188/30/28 184/31/28
f 187/29/27 185/32/27 186/31/27 188/30/27
f 185/32/26 181/29/26 182/30/26 186/31/26
f 183/33/29 181/36/29 185/35/29 187/34/29
f 188/37/30 186/30/30 182/31/30 184/38/30
f 189/29/25 191/32/25 192/31/25 190/30/25
f 191/32/28 195/29/28 196/30/28 192/31/28
f 195/29/27 193/32/27 194/31/27 196/30/27
f 193/32/26 189/29/26 190/30/26 194/31/26
f 191/33/29 189/36/29 193/35/29 195/34/29
f 196/37/30 194/30/30 190/31/30 192/38/30
f 197/29/25 199/32/25 200/31/25 198/30/25
f 205/39/28 203/29/28 204/30/28 206/40/28
f 203/29/27 201/32/27 202/31/27 204/30/27
f 207/41/26 197/29/26 198/30/26 208/42/26
f 205/43/31 207/44/31 201/35/31 203/34/31
f 206/45/30 208/42/30 198/31/30 200/38/30
f 204/37/32 202/30/32 208/42/32 206/45/32
f 199/33/29 197/36/29 207/44/29 205/43/29
f 201/32/26 207/41/26 208/42/26 202/31/26
f 199/32/28 205/39/28 206/40/28 200/31/28
f 209/29/27 210/30/27 212/31/27 211/32/27
f 211/32/28 212/31/28 216/30/28 215/29/28
f 215/29/25 216/30/25 214/31/25 213/32/25
f 213/32/26 214/31/26 210/30/26 209/29/26
f 211/33/33 215/34/33 213/35/33 209/36/33
f 216/37/34 212/38/34 210/31/34 214/30/34
f 217/29/27 218/30/27 220/31/27 219/32/27
f 219/32/28 220/31/28 224/30/28 223/29/28
f 223/29/25 224/30/25 222/31/25 221/32/25
f 221/32/26 222/31/26 218/30/26 217/29/26
f 219/33/33 223/34/33 221/35/33 217/36/33
f 224/37/34 220/38/34 218/31/34 222/30/34
f 225/29/27 226/30/27 228/31/27 227/32/27
f 227/32/28 228/31/28 232/30/28 231/29/28
f 231/29/25 232/30/25 230/31/25 229/32/25
f 229/32/26 230/31/26 226/30/26 225/29/26
f 227/33/33 231/34/33 229/35/33 225/36/33
f 232/37/34 228/38/34 226/31/34 230/30/34
f 233/29/27 234/30/27 236/31/27 235/32/27
f 241/39/28 242/40/28 240/30/28 239/29/28
f 239/29/25 240/30/25 238/31/25 237/32/25
f 243/41/26 244/42/26 234/30/26 233/29/26
f 241/43/35 239/34/35 237/35/35 243/44/35
f 242/45/34 236/38/34 234/31/34 244/42/34
f 240/37/36 242/45/36 244/42/36 238/30/36
f 235/33/33 241/43/33 243/44/33 233/36/33
f 237/32/26 238/31/26 244/42/26 243/41/26
f 235/32/28 236/31/28 242/40/28 241/39/28
o Grid.004
v -0.280169 0.147506 0.560462
v -0.280169 0.316482 0.560462
v -0.280169 0.147506 0.489792
v -0.280169 0.316482 0.489792
v -0.210198 0.155955 0.560462
v -0.210198 0.324931 0.560462
v -0.210198 0.155955 0.489792
v -0.210198 0.324931 0.489792
v -0.175213 0.160179 0.560462
v -0.175213 0.329155 0.560462
v -0.175213 0.160179 0.489792
v -0.175213 0.329156 0.489792
v -0.105243 0.168628 0.560462
v -0.105243 0.337604 0.560462
v -0.105243 0.168628 0.489792
v -0.105243 0.337604 0.489792
v -0.070258 0.172852 0.560462
v -0.070258 0.341829 0.560462
v -0.070258 0.172852 0.489792
v -0.070258 0.341829 0.489792
v -0.000288 0.181301 0.560462
v -0.000288 0.350278 0.560462
v -0.000288 0.181301 0.489792
v -0.000288 0.350278 0.489792
v 0.279592 0.147506 0.560462
v 0.279592 0.316482 0.560462
v 0.279592 0.147506 0.489792
v 0.279592 0.316482 0.489792
v 0.209622 0.155955 0.560462
v 0.209622 0.324931 0.560462
v 0.209622 0.155955 0.489792
v 0.209622 0.324931 0.489792
v 0.174637 0.160179 0.560462
v 0.174637 0.329155 0.560462
v 0.174637 0.160179 0.489792
v 0.174637 0.329156 0.489792
v 0.104667 0.168628 0.560462
v 0.104667 0.337604 0.560462
v 0.104667 0.168628 0.489792
v 0.104667 0.337604 0.489792
v 0.069681 0.172852 0.560462
v 0.069681 0.341829 0.560462
v 0.069681 0.172852 0.489792
v 0.069681 0.341829 0.489792
v -0.280169 0.147506 -0.560461
v -0.280169 0.316482 -0.560461
v -0.280169 0.147506 -0.489792
v -0.280169 0.316482 -0.489791
v -0.210198 0.155955 -0.560461
v -0.210198 0.324931 -0.560461
v -0.210198 0.155955 -0.489792
v -0.210198 0.324931 -0.489791
v -0.175213 0.160179 -0.560461
v -0.175213 0.329156 -0.560461
v -0.175213 0.160179 -0.489792
v -0.175213 0.329156 -0.489791
v -0.105243 0.168628 -0.560461
v -0.105243 0.337604 -0.560461
v -0.105243 0.168628 -0.489792
v -0.105243 0.337604 -0.489791
v -0.070258 0.172853 -0.560461
v -0.070258 0.341829 -0.560461
v -0.070258 0.172852 -0.489792
v -0.070258 0.341829 -0.489791
v -0.000288 0.181301 -0.560461
v -0.000288 0.350278 -0.560461
v -0.000288 0.181301 -0.489791
v -0.000288 0.350278 -0.489791
v 0.279592 0.147506 -0.560461
v 0.279592 0.316482 -0.560461
v 0.279592 0.147506 -0.489792
v 0.279592 0.316482 -0.489791
v 0.209622 0.155955 -0.560461
v 0.209622 0.324931 -0.560461
v 0.209622 0.155955 -0.489792
v 0.209622 0.324931 -0.489791
v 0.174637 0.160179 -0.560461
v 0.174637 0.329156 -0.560461
v 0.174637 0.160179 -0.489792
v 0.174637 0.329156 -0.489791
v 0.104667 0.168628 -0.560461
v 0.104667 0.337604 -0.560461
v 0.104667 0.168628 -0.489792
v 0.104667 0.337604 -0.489791
v 0.069681 0.172853 -0.560461
v 0.069681 0.341829 -0.560461
v 0.069681 0.172852 -0.489792
v 0.069681 0.341829 -0.489791
vn -1.0000 -0.0000 -0.0000
vn -0.0000 -0.0000 -1.0000
vn 1.0000 -0.0000 -0.0000
vn -0.0000 -0.0000 1.0000
vn 0.1199 -0.9928 -0.0000
vn -0.1199 0.9928 -0.0000
vn -0.1199 -0.9928 -0.0000
vn 0.1199 0.9928 -0.0000
vt 0.069975 0.750131
vt 0.069975 0.812380
vt 0.062685 0.812380
vt 0.062685 0.750131
s 0
usemtl Material.002
f 245/46/37 246/47/37 248/48/37 247/49/37
f 247/49/38 248/48/38 252/47/38 251/46/38
f 251/46/39 252/47/39 250/48/39 249/49/39
f 249/49/40 250/48/40 246/47/40 245/46/40
f 247/47/41 251/46/41 249/49/41 245/48/41
f 252/47/42 248/46/42 246/49/42 250/48/42
f 253/46/37 254/47/37 256/48/37 255/49/37
f 255/49/38 256/48/38 260/47/38 259/46/38
f 259/46/39 260/47/39 258/48/39 257/49/39
f 257/49/40 258/48/40 254/47/40 253/46/40
f 255/47/41 259/46/41 257/49/41 253/48/41
f 260/47/42 256/46/42 254/49/42 258/48/42
f 261/46/37 262/47/37 264/48/37 263/49/37
f 263/49/38 264/48/38 268/47/38 267/46/38
f 267/46/39 268/47/39 266/48/39 265/49/39
f 265/49/40 266/48/40 262/47/40 261/46/40
f 263/47/41 267/46/41 265/49/41 261/48/41
f 268/47/42 264/46/42 262/49/42 266/48/42
f 269/46/39 271/49/39 272/48/39 270/47/39
f 271/49/38 275/46/38 276/47/38 272/48/38
f 275/46/37 273/49/37 274/48/37 276/47/37
f 273/49/40 269/46/40 270/47/40 274/48/40
f 271/47/43 269/48/43 273/49/43 275/46/43
f 276/47/44 274/48/44 270/49/44 272/46/44
f 277/46/39 279/49/39 280/48/39 278/47/39
f 279/49/38 283/46/38 284/47/38 280/48/38
f 283/46/37 281/49/37 282/48/37 284/47/37
f 281/49/40 277/46/40 278/47/40 282/48/40
f 279/47/43 277/48/43 281/49/43 283/46/43
f 284/47/44 282/48/44 278/49/44 280/46/44
f 285/46/39 287/49/39 288/48/39 286/47/39
f 287/49/38 267/46/38 268/47/38 288/48/38
f 265/49/40 285/46/40 286/47/40 266/48/40
f 287/47/43 285/48/43 265/49/43 267/46/43
f 268/47/44 266/48/44 286/49/44 288/46/44
f 289/46/37 291/49/37 292/48/37 290/47/37
f 291/49/40 295/46/40 296/47/40 292/48/40
f 295/46/39 293/49/39 294/48/39 296/47/39
f 293/49/38 289/46/38 290/47/38 294/48/38
f 291/47/41 289/48/41 293/49/41 295/46/41
f 296/47/42 294/48/42 290/49/42 292/46/42
f 297/46/37 299/49/37 300/48/37 298/47/37
f 299/49/40 303/46/40 304/47/40 300/48/40
f 303/46/39 301/49/39 302/48/39 304/47/39
f 301/49/38 297/46/38 298/47/38 302/48/38
f 299/47/41 297/48/41 301/49/41 303/46/41
f 304/47/42 302/48/42 298/49/42 300/46/42
f 305/46/37 307/49/37 308/48/37 306/47/37
f 307/49/40 311/46/40 312/47/40 308/48/40
f 311/46/39 309/49/39 310/48/39 312/47/39
f 309/49/38 305/46/38 306/47/38 310/48/38
f 307/47/41 305/48/41 309/49/41 311/46/41
f 312/47/42 310/48/42 306/49/42 308/46/42
f 313/46/39 314/47/39 316/48/39 315/49/39
f 315/49/40 316/48/40 320/47/40 319/46/40
f 319/46/37 320/47/37 318/48/37 317/49/37
f 317/49/38 318/48/38 314/47/38 313/46/38
f 315/47/43 319/46/43 317/49/43 313/48/43
f 320/47/44 316/46/44 314/49/44 318/48/44
f 321/46/39 322/47/39 324/48/39 323/49/39
f 323/49/40 324/48/40 328/47/40 327/46/40
f 327/46/37 328/47/37 326/48/37 325/49/37
f 325/49/38 326/48/38 322/47/38 321/46/38
f 323/47/43 327/46/43 325/49/43 321/48/43
f 328/47/44 324/46/44 322/49/44 326/48/44
f 329/46/39 330/47/39 332/48/39 331/49/39
f 331/49/40 332/48/40 312/47/40 311/46/40
f 309/49/38 310/48/38 330/47/38 329/46/38
f 331/47/43 311/46/43 309/49/43 329/48/43
f 312/47/44 332/46/44 330/49/44 310/48/44
