# Blender 3.6.5
# www.blender.org
mtllib Poly_World_Map_Rainbow_01.mtl
o Grid.002
v -2.638000 -0.010000 -0.000000
v -2.374000 -0.010000 -0.000000
v -0.000000 3.762000 0.000000
v -0.000000 2.671000 -0.000000
v -1.847000 2.856000 -0.000000
v -1.556000 1.870000 0.000000
v -2.575000 1.255000 0.000000
v -2.273000 0.525000 -0.000000
v -1.033000 2.318000 0.000000
v -1.319000 3.313000 0.000000
v -2.300000 2.162000 0.000000
v -1.978000 1.280000 -0.000000
v -0.485000 2.582000 0.000000
v -0.659000 3.683000 0.000000
v 2.638000 -0.010000 -0.000000
v 2.374001 -0.010000 -0.000000
v 0.000000 3.762000 0.000000
v 0.000000 2.671000 -0.000000
v 1.847001 2.856000 -0.000000
v 1.556001 1.870000 0.000000
v 2.575001 1.255000 0.000000
v 2.273001 0.525000 -0.000000
v 1.033000 2.318000 0.000000
v 1.319001 3.313000 0.000000
v 2.300001 2.162000 0.000000
v 1.978001 1.280000 -0.000000
v 0.485001 2.582000 0.000000
v 0.659001 3.683000 0.000000
v -2.638000 -0.010000 -0.004260
v -2.374000 -0.010000 -0.004260
v -0.000000 3.762000 -0.004260
v -0.000000 2.671000 -0.004260
v -1.847000 2.856000 -0.004260
v -1.556000 1.870000 -0.004260
v -2.575000 1.255000 -0.004260
v -2.273000 0.525000 -0.004260
v -1.033000 2.318000 -0.004260
v -1.319000 3.313000 -0.004260
v -2.300000 2.162000 -0.004260
v -1.978000 1.280000 -0.004260
v -0.485000 2.582000 -0.004260
v -0.659000 3.683000 -0.004260
v 2.638000 -0.010000 -0.004260
v 2.374001 -0.010000 -0.004260
v 0.000000 3.762000 -0.004260
v 0.000000 2.671000 -0.004260
v 1.847001 2.856000 -0.004260
v 1.556001 1.870000 -0.004260
v 2.575001 1.255000 -0.004260
v 2.273001 0.525000 -0.004260
v 1.033000 2.318000 -0.004260
v 1.319001 3.313000 -0.004260
v 2.300001 2.162000 -0.004260
v 1.978001 1.280000 -0.004260
v 0.485001 2.582000 -0.004260
v 0.659001 3.683000 -0.004260
vn -0.0000 -0.0000 1.0000
vn -0.0000 -0.0000 -1.0000
vn -0.9988 0.0497 -0.0000
vn -0.0000 -1.0000 -0.0000
vn 0.1805 -0.9836 -0.0000
vn 1.0000 -0.0000 -0.0000
vn -0.6544 0.7561 -0.0000
vn 0.8134 -0.5818 -0.0000
vn -0.9570 0.2902 -0.0000
vn 0.9826 -0.1855 -0.0000
vn 0.6506 -0.7595 -0.0000
vn -0.4890 0.8723 -0.0000
vn -0.8374 0.5466 -0.0000
vn 0.9314 -0.3639 -0.0000
vn 0.4340 -0.9009 -0.0000
vn -0.1190 0.9929 -0.0000
vn 0.9988 0.0497 -0.0000
vn -0.1805 -0.9836 -0.0000
vn -1.0000 -0.0000 -0.0000
vn 0.6544 0.7561 -0.0000
vn -0.8134 -0.5818 -0.0000
vn 0.9570 0.2902 -0.0000
vn -0.9826 -0.1855 -0.0000
vn -0.6506 -0.7595 -0.0000
vn 0.4890 0.8723 -0.0000
vn 0.8374 0.5466 -0.0000
vn -0.9314 -0.3639 -0.0000
vn -0.4340 -0.9009 -0.0000
vn 0.1190 0.9929 -0.0000
vt 0.446398 0.977535
vt 0.498564 0.977535
vt 0.498564 0.977864
vt 0.446398 0.977864
vt 0.446398 0.976198
vt 0.498564 0.976198
vt 0.498564 0.976531
vt 0.446398 0.976531
vt 0.446398 0.975198
vt 0.498564 0.975198
vt 0.498564 0.975865
vt 0.446398 0.975865
vt 0.498564 0.977207
vt 0.446398 0.977207
s 0
usemtl Material
f 14/1/1 13/2/1 4/3/1 3/4/1
f 11/5/1 12/6/1 6/7/1 5/8/1
f 1/9/1 2/10/1 8/11/1 7/12/1
f 5/8/1 6/7/1 9/13/1 10/14/1
f 7/12/1 8/11/1 12/6/1 11/5/1
f 10/14/1 9/13/1 13/2/1 14/1/1
f 28/1/1 17/4/1 18/3/1 27/2/1
f 25/5/1 19/8/1 20/7/1 26/6/1
f 15/9/1 21/12/1 22/11/1 16/10/1
f 19/8/1 24/14/1 23/13/1 20/7/1
f 21/12/1 25/5/1 26/6/1 22/11/1
f 24/14/1 28/1/1 27/2/1 23/13/1
f 42/1/2 31/4/2 32/3/2 41/2/2
f 39/5/2 33/8/2 34/7/2 40/6/2
f 29/9/2 35/12/2 36/11/2 30/10/2
f 33/8/2 38/14/2 37/13/2 34/7/2
f 35/12/2 39/5/2 40/6/2 36/11/2
f 38/14/2 42/1/2 41/2/2 37/13/2
f 56/1/2 55/2/2 46/3/2 45/4/2
f 53/5/2 54/6/2 48/7/2 47/8/2
f 43/9/2 44/10/2 50/11/2 49/12/2
f 47/8/2 48/7/2 51/13/2 52/14/2
f 49/12/2 50/11/2 54/6/2 53/5/2
f 52/14/2 51/13/2 55/2/2 56/1/2
f 1/9/3 7/12/3 35/12/3 29/9/3
f 2/10/4 1/9/4 29/9/4 30/10/4
f 4/3/5 13/2/5 41/2/5 32/3/5
f 3/4/6 4/3/6 32/3/6 31/4/6
f 5/8/7 10/14/7 38/14/7 33/8/7
f 6/7/8 12/6/8 40/6/8 34/7/8
f 7/12/9 11/5/9 39/5/9 35/12/9
f 8/11/10 2/10/10 30/10/10 36/11/10
f 9/13/11 6/7/11 34/7/11 37/13/11
f 10/14/12 14/1/12 42/1/12 38/14/12
f 11/5/13 5/8/13 33/8/13 39/5/13
f 12/6/14 8/11/14 36/11/14 40/6/14
f 13/2/15 9/13/15 37/13/15 41/2/15
f 14/1/16 3/4/16 31/4/16 42/1/16
f 21/12/17 15/9/17 43/9/17 49/12/17
f 15/9/4 16/10/4 44/10/4 43/9/4
f 27/2/18 18/3/18 46/3/18 55/2/18
f 18/3/19 17/4/19 45/4/19 46/3/19
f 24/14/20 19/8/20 47/8/20 52/14/20
f 26/6/21 20/7/21 48/7/21 54/6/21
f 25/5/22 21/12/22 49/12/22 53/5/22
f 16/10/23 22/11/23 50/11/23 44/10/23
f 20/7/24 23/13/24 51/13/24 48/7/24
f 28/1/25 24/14/25 52/14/25 56/1/25
f 19/8/26 25/5/26 53/5/26 47/8/26
f 22/11/27 26/6/27 54/6/27 50/11/27
f 23/13/28 27/2/28 55/2/28 51/13/28
f 17/4/29 28/1/29 56/1/29 45/4/29
