# Blender 3.6.5
# www.blender.org
mtllib Poly_World_Map_Floating_Continent_01_Temple.mtl
o Cube.002_Cube.004
v 0.144683 1.955167 0.144683
v -0.144683 1.955167 0.144683
v 0.144683 1.955167 -0.144683
v -0.144683 1.955167 -0.144683
v 0.555282 2.477583 -0.555282
v -0.555282 2.477583 -0.555282
v 0.555282 2.477583 0.555282
v -0.555282 2.477583 0.555282
v -0.615327 2.738791 -0.615327
v 0.615327 2.738791 0.615327
v 0.615327 2.738791 -0.615327
v -0.615327 2.738791 0.615327
v 0.358512 2.216375 -0.358512
v -0.358512 2.216375 0.358512
v -0.358512 2.216375 -0.358512
v 0.358512 2.216375 0.358512
v 0.200151 1.955167 0.000000
v -0.200151 1.955167 0.000000
v -0.768163 2.477583 0.000000
v 0.768163 2.477583 0.000000
v -0.851227 2.738791 0.000000
v 0.851227 2.738791 0.000000
v 0.495956 2.216375 -0.000000
v -0.495956 2.216375 -0.000000
v 0.000000 1.955167 0.200151
v 0.000000 1.955167 -0.200151
v 0.000000 2.477583 0.768163
v 0.000000 2.477583 -0.768163
v 0.000000 2.738791 0.851227
v 0.000000 2.738791 -0.851227
v 0.000000 2.216375 -0.495956
v 0.000000 2.216375 0.495956
v 0.000000 1.809574 0.000000
v 0.594586 2.999999 0.594586
v 0.650488 2.905483 0.650488
v -0.594586 2.999999 0.594586
v -0.650488 2.905483 0.650488
v 0.594586 2.999999 -0.594586
v 0.650488 2.905483 -0.650488
v -0.594586 2.999999 -0.594586
v -0.650488 2.905483 -0.650488
v 0.784978 2.999999 -0.097961
v 0.784979 2.999999 0.097961
v 0.899868 2.905483 -0.000000
v -0.784978 2.999999 0.097961
v -0.784979 2.999999 -0.097961
v -0.899868 2.905483 0.000000
v 0.000000 2.905483 -0.899868
v -0.097961 2.999999 -0.784979
v 0.097961 2.999999 -0.784979
v 0.097961 2.999999 0.784979
v -0.097961 2.999999 0.784979
v 0.000000 2.905483 0.899868
v 0.097961 2.999999 0.097961
v 0.097961 2.999999 -0.097961
v -0.097961 2.999999 -0.097961
v -0.097961 2.999999 0.097961
v 0.172417 1.955167 0.072342
v -0.661723 2.477583 0.277641
v 0.661723 2.477583 0.277641
v -0.733277 2.738791 0.307664
v 0.733277 2.738791 0.307664
v 0.427234 2.216375 0.179256
v -0.427234 2.216375 0.179256
v -0.172417 1.955167 0.072342
v 0.000000 1.882371 0.100076
v -0.775178 2.905483 0.325244
v -0.689782 2.999999 0.346273
v 0.775178 2.905483 0.325244
v 0.689782 2.999999 0.346273
v -0.097961 2.999999 0.441470
v 0.097961 2.999999 0.441470
vn -0.4100 -0.8148 -0.4100
vn 0.3454 -0.2629 -0.9009
vn -0.2460 -0.7266 0.6416
vn -0.9009 -0.2629 0.3454
vn -0.6416 -0.7266 0.2460
vn -0.8951 -0.2846 0.3432
vn 0.6692 -0.6974 0.2566
vn -0.3432 -0.2846 0.8951
vn -0.2566 -0.6974 -0.6692
vn -0.0000 1.0000 -0.0000
vn -0.3454 -0.2629 0.9009
vn 0.8951 -0.2846 0.3432
vn -0.3432 -0.2846 -0.8951
vn -0.2460 -0.7266 -0.6416
vn 0.6416 -0.7266 0.2460
vn -0.6692 -0.6974 0.2566
vn -0.2566 -0.6974 0.6692
vn -0.6692 -0.6974 -0.2566
vn 0.6416 -0.7266 -0.2460
vn 0.8951 -0.2846 -0.3432
vn 0.6692 -0.6974 -0.2566
vn -0.8951 -0.2846 -0.3432
vn -0.6416 -0.7266 -0.2460
vn -0.9009 -0.2629 -0.3454
vn -0.3454 -0.2629 -0.9009
vn -0.4846 -0.7752 0.4052
vn 0.4846 -0.7752 0.4052
vn 0.9009 -0.2629 -0.3454
vn 0.2566 -0.6974 0.6692
vn 0.2460 -0.7266 -0.6416
vn 0.3432 -0.2846 -0.8951
vn 0.9009 -0.2629 0.3454
vn 0.2566 -0.6974 -0.6692
vn 0.3432 -0.2846 0.8951
vn 0.2460 -0.7266 0.6416
vn 0.3454 -0.2629 0.9009
vn 0.4100 -0.8148 -0.4100
vn 0.6353 0.7723 -0.0000
vn -0.6353 0.7723 -0.0000
vn -0.0000 0.7723 -0.6353
vn -0.0000 0.7723 0.6353
vn 0.2845 0.6071 -0.7420
vn 0.7420 0.6071 -0.2845
vn -0.7420 0.6071 0.2845
vn 0.2845 0.6071 0.7420
vn 0.7420 0.6071 0.2845
vn -0.7420 0.6071 -0.2845
vn -0.2845 0.6071 -0.7420
vn -0.2845 0.6071 0.7420
vn 0.3051 -0.8587 0.4117
vn -0.3051 -0.8587 0.4117
vt 0.687844 0.064322
vt 0.692752 0.066031
vt 0.693139 0.068188
vt 0.687844 0.068188
vt 0.654105 0.096868
vt 0.687921 0.096868
vt 0.687927 0.105771
vt 0.651800 0.111295
vt 0.687914 0.077748
vt 0.705843 0.077748
vt 0.687895 0.068188
vt 0.705907 0.108533
vt 0.704751 0.096868
vt 0.721582 0.096868
vt 0.723887 0.111295
vt 0.696878 0.077748
vt 0.691731 0.067648
vt 0.701818 0.087308
vt 0.715721 0.087308
vt 0.678879 0.077748
vt 0.673940 0.087308
vt 0.659966 0.087308
vt 0.669845 0.077748
vt 0.687914 0.087308
vt 0.687914 0.087308
vt 0.680389 0.125772
vt 0.643451 0.129569
vt 0.649393 0.119666
vt 0.680389 0.112074
vt 0.723887 0.111295
vt 0.671013 0.096868
vt 0.683982 0.067648
vt 0.682548 0.068188
vt 0.693128 0.068188
vt 0.705827 0.077748
vt 0.715706 0.087308
vt 0.721566 0.096868
vt 0.680389 0.174681
vt 0.649393 0.167088
vt 0.637510 0.147284
vt 0.680389 0.147284
vt 0.723887 0.111295
vt 0.687844 0.066255
vt 0.682936 0.066031
vt 0.723870 0.111295
vt 0.687927 0.105771
vt 0.669863 0.108533
vt 0.651800 0.111295
vt 0.723613 0.167088
vt 0.692617 0.174681
vt 0.692617 0.147284
vt 0.735496 0.147284
vt 0.695329 0.112541
vt 0.680493 0.112541
vt 0.687862 0.105771
vt 0.695332 0.112541
vt 0.687862 0.105771
vt 0.695332 0.112541
vt 0.680493 0.112541
vt 0.692617 0.139471
vt 0.680389 0.139471
vt 0.680502 0.112537
vt 0.652770 0.118949
vt 0.722911 0.118949
vt 0.695321 0.112537
vt 0.722928 0.118949
vt 0.709126 0.115743
vt 0.687927 0.105771
vt 0.666636 0.115743
vt 0.695324 0.112537
vt 0.722928 0.118949
vt 0.735496 0.139471
vt 0.695324 0.112537
vt 0.695324 0.112537
vt 0.637510 0.139471
vt 0.692617 0.112074
vt 0.692617 0.125772
vt 0.729555 0.129569
vt 0.723613 0.119666
s 0
usemtl Material.002
f 33/1/1 18/2/1 4/3/1 26/4/1
f 11/5/2 30/6/2 48/7/2 39/8/2
f 32/9/3 14/10/3 2/3/3 25/11/3
f 67/12/4 61/13/4 12/14/4 37/15/4
f 64/16/5 65/17/5 2/3/5 14/10/5
f 61/13/6 59/18/6 8/19/6 12/14/6
f 63/20/7 60/21/7 7/22/7 16/23/7
f 29/6/8 12/14/8 8/19/8 27/24/8
f 31/9/9 15/10/9 6/19/9 28/25/9
f 71/26/10 68/27/10 36/28/10 52/29/10
f 53/7/11 37/30/11 12/14/11 29/6/11
f 60/21/12 62/31/12 10/5/12 7/22/12
f 28/25/13 6/19/13 9/14/13 30/6/13
f 26/11/14 4/3/14 15/10/14 31/9/14
f 58/32/15 63/20/15 16/23/15 1/33/15
f 59/18/16 64/16/16 14/10/16 8/19/16
f 27/24/17 8/19/17 14/10/17 32/9/17
f 6/19/18 15/10/18 24/9/18 19/25/18
f 3/34/19 13/35/19 23/9/19 17/11/19
f 5/36/20 11/37/20 22/6/20 20/25/20
f 49/38/10 40/39/10 46/40/10 56/41/10
f 13/35/21 5/36/21 20/25/21 23/9/21
f 9/14/22 6/19/22 19/25/22 21/6/22
f 15/10/23 4/3/23 18/11/23 24/9/23
f 41/42/24 9/14/24 21/6/24 47/7/24
f 30/6/25 9/14/25 41/42/25 48/7/25
f 66/43/26 65/17/26 18/2/26 33/1/26
f 58/32/27 66/43/27 33/1/27 17/44/27
f 11/37/28 39/45/28 44/46/28 22/6/28
f 7/22/29 27/24/29 32/9/29 16/23/29
f 3/33/30 26/11/30 31/9/30 13/23/30
f 5/22/31 28/25/31 30/6/31 11/5/31
f 62/31/32 69/47/32 35/48/32 10/5/32
f 13/23/33 31/9/33 28/25/33 5/22/33
f 10/5/34 29/6/34 27/24/34 7/22/34
f 16/23/35 32/9/35 25/11/35 1/33/35
f 35/8/36 53/7/36 29/6/36 10/5/36
f 38/49/10 50/50/10 55/51/10 42/52/10
f 17/44/37 33/1/37 26/4/37 3/33/37
f 42/53/38 43/54/38 44/55/38
f 45/54/39 46/56/39 47/57/39
f 48/57/40 49/58/40 50/59/40
f 51/54/41 52/56/41 53/57/41
f 54/60/10 55/51/10 56/41/10 57/61/10
f 50/62/42 38/63/42 39/8/42 48/7/42
f 44/46/43 39/45/43 38/64/43 42/65/43
f 67/12/44 37/15/44 36/66/44 68/67/44
f 53/7/45 35/8/45 34/63/45 51/62/45
f 69/47/46 44/68/46 43/62/46 70/69/46
f 41/42/47 47/7/47 46/70/47 40/71/47
f 54/60/10 43/72/10 42/52/10 55/51/10
f 40/66/48 49/73/48 48/7/48 41/42/48
f 37/30/49 53/7/49 52/74/49 36/66/49
f 45/75/10 57/61/10 56/41/10 46/40/10
f 49/38/10 56/41/10 55/51/10 50/50/10
f 71/26/10 52/29/10 51/76/10 72/77/10
f 70/78/10 72/77/10 51/76/10 34/79/10
f 43/72/10 54/60/10 72/77/10 70/78/10
f 57/61/10 71/26/10 72/77/10 54/60/10
f 35/48/46 69/47/46 70/69/46 34/63/46
f 47/7/44 67/12/44 68/67/44 45/74/44
f 22/6/32 44/68/32 69/47/32 62/31/32
f 1/33/50 25/4/50 66/43/50 58/32/50
f 25/4/51 2/3/51 65/17/51 66/43/51
f 19/25/16 24/9/16 64/16/16 59/18/16
f 17/11/15 23/9/15 63/20/15 58/32/15
f 20/25/12 22/6/12 62/31/12 60/21/12
f 57/61/10 45/75/10 68/27/10 71/26/10
f 23/9/7 20/25/7 60/21/7 63/20/7
f 21/6/6 19/25/6 59/18/6 61/13/6
f 24/9/5 18/11/5 65/17/5 64/16/5
f 47/7/4 21/6/4 61/13/4 67/12/4
o Cube
v -0.364781 3.000018 0.364781
v -0.260558 3.364799 0.260558
v -0.364781 3.000018 -0.364781
v -0.260558 3.364799 -0.260558
v 0.364781 3.000018 0.364781
v 0.260558 3.364799 0.260558
v 0.364781 3.000018 -0.364781
v 0.260558 3.364799 -0.260558
v -0.328303 3.052129 0.328303
v -0.328303 3.052129 -0.328303
v 0.328303 3.052129 -0.328303
v 0.328303 3.052129 0.328303
v -0.260558 3.052129 0.260558
v -0.260558 3.052129 -0.260558
v 0.260558 3.052129 -0.260558
v 0.260558 3.052129 0.260558
v 0.000000 3.000018 -0.364781
v 0.000000 3.521133 -0.260558
v 0.000000 3.000018 0.364781
v 0.000000 3.521133 0.260558
v 0.000000 3.052129 0.328303
v 0.000000 3.052129 -0.328303
v 0.000000 3.052129 0.260558
v 0.000000 3.052129 -0.260558
v -0.364781 3.000018 -0.000000
v -0.260558 3.364799 -0.000000
v 0.364781 3.000018 -0.000000
v 0.260558 3.364799 -0.000000
v 0.328303 3.052129 -0.000000
v -0.328303 3.052129 -0.000000
v 0.260558 3.052129 -0.000000
v -0.260558 3.052129 -0.000000
v 0.000000 3.521133 -0.000000
v 0.000000 3.000018 -0.000000
vn -1.0000 -0.0000 -0.0000
vn -0.0000 -0.0000 -1.0000
vn 1.0000 -0.0000 -0.0000
vn -0.0000 -0.0000 1.0000
vn -0.0000 -1.0000 -0.0000
vn -0.5145 0.8575 -0.0000
vn -0.0000 0.5735 0.8192
vn 0.8192 0.5735 -0.0000
vn -0.0000 0.5735 -0.8192
vn -0.8192 0.5735 -0.0000
vn -0.0000 1.0000 -0.0000
vn 0.5145 0.8575 -0.0000
vt 0.464502 0.258110
vt 0.464512 0.279990
vt 0.444826 0.279990
vt 0.444826 0.258110
vt 0.477129 0.257987
vt 0.477129 0.291244
vt 0.493179 0.279914
vt 0.493179 0.257987
vt 0.468828 0.259117
vt 0.468828 0.290607
vt 0.444341 0.279914
vt 0.444341 0.259117
vt 0.468808 0.250421
vt 0.493869 0.250421
vt 0.450604 0.104561
vt 0.450604 0.117778
vt 0.477426 0.117778
vt 0.477426 0.104561
vt 0.468808 0.257775
vt 0.443746 0.257775
vt 0.443746 0.250421
vt 0.493869 0.257775
vt 0.469105 0.255742
vt 0.469105 0.257603
vt 0.443722 0.257603
vt 0.443707 0.255742
vt 0.469116 0.257603
vt 0.494488 0.257603
vt 0.494503 0.255742
vt 0.493316 0.259117
vt 0.493316 0.279914
s 0
usemtl Material.002
f 104/80/52 98/81/52 76/82/52 86/83/52
f 96/84/53 90/85/53 80/86/53 87/87/53
f 103/80/54 100/81/54 78/82/54 88/83/54
f 95/88/55 92/89/55 74/90/55 85/91/55
f 106/92/56 99/93/56 77/93/56 91/92/56
f 105/94/57 98/95/57 74/96/57 92/97/57
f 91/92/58 93/98/58 81/99/58 73/100/58
f 99/93/59 101/101/59 84/101/59 77/93/59
f 89/92/60 94/98/60 83/101/60 79/93/60
f 97/100/61 102/99/61 82/99/61 75/100/61
f 93/102/62 95/103/62 85/104/62 81/105/62
f 101/102/62 103/106/62 88/107/62 84/108/62
f 94/102/62 96/103/62 87/104/62 83/105/62
f 102/102/62 104/106/62 86/107/62 82/108/62
f 82/108/62 86/107/62 96/103/62 94/102/62
f 84/108/62 88/107/62 95/103/62 93/102/62
f 75/100/60 82/99/60 94/98/60 89/92/60
f 77/93/58 84/101/58 93/98/58 91/92/58
f 100/96/63 105/97/63 92/94/63 78/95/63
f 97/100/56 106/92/56 91/92/56 73/100/56
f 88/109/55 78/110/55 92/89/55 95/88/55
f 86/87/53 76/86/53 90/85/53 96/84/53
f 75/100/56 89/92/56 106/92/56 97/100/56
f 80/95/63 90/94/63 105/97/63 100/96/63
f 81/105/62 85/104/62 104/106/62 102/102/62
f 83/105/62 87/104/62 103/106/62 101/102/62
f 73/100/61 81/99/61 102/99/61 97/100/61
f 79/93/59 83/101/59 101/101/59 99/93/59
f 90/97/57 76/96/57 98/95/57 105/94/57
f 89/92/56 79/93/56 99/93/56 106/92/56
f 87/83/54 80/82/54 100/81/54 103/80/54
f 85/83/52 74/82/52 98/81/52 104/80/52
o Cube.001
v -0.400000 3.000000 0.570000
v -0.500000 3.000000 0.570000
v -0.400000 3.000000 0.470000
v -0.500000 3.000000 0.470000
v -0.400000 3.050000 0.570000
v -0.500000 3.050000 0.570000
v -0.400000 3.050000 0.470000
v -0.500000 3.050000 0.470000
v -0.400000 3.350000 0.570000
v -0.500000 3.350000 0.570000
v -0.400000 3.350000 0.470000
v -0.500000 3.350000 0.470000
v -0.400000 3.400000 0.570000
v -0.500000 3.400000 0.570000
v -0.400000 3.400000 0.470000
v -0.500000 3.400000 0.470000
v -0.420000 3.050000 0.550000
v -0.480000 3.050000 0.550000
v -0.420000 3.050000 0.490000
v -0.480000 3.050000 0.490000
v -0.420000 3.350000 0.550000
v -0.480000 3.350000 0.550000
v -0.420000 3.350000 0.490000
v -0.480000 3.350000 0.490000
v 0.400000 3.000000 0.570000
v 0.500000 3.000000 0.570000
v 0.400000 3.000000 0.470000
v 0.500000 3.000000 0.470000
v 0.400000 3.050000 0.570000
v 0.500000 3.050000 0.570000
v 0.400000 3.050000 0.470000
v 0.500000 3.050000 0.470000
v 0.400000 3.350000 0.570000
v 0.500000 3.350000 0.570000
v 0.400000 3.350000 0.470000
v 0.500000 3.350000 0.470000
v 0.400000 3.400000 0.570000
v 0.500000 3.400000 0.570000
v 0.400000 3.400000 0.470000
v 0.500000 3.400000 0.470000
v 0.420000 3.050000 0.550000
v 0.480000 3.050000 0.550000
v 0.420000 3.050000 0.490000
v 0.480000 3.050000 0.490000
v 0.420000 3.350000 0.550000
v 0.480000 3.350000 0.550000
v 0.420000 3.350000 0.490000
v 0.480000 3.350000 0.490000
v -0.400000 3.000000 -0.570000
v -0.500000 3.000000 -0.570000
v -0.400000 3.000000 -0.470000
v -0.500000 3.000000 -0.470000
v -0.400000 3.050000 -0.570000
v -0.500000 3.050000 -0.570000
v -0.400000 3.050000 -0.470000
v -0.500000 3.050000 -0.470000
v -0.400000 3.350000 -0.570000
v -0.500000 3.350000 -0.570000
v -0.400000 3.350000 -0.470000
v -0.500000 3.350000 -0.470000
v -0.400000 3.400000 -0.570000
v -0.500000 3.400000 -0.570000
v -0.400000 3.400000 -0.470000
v -0.500000 3.400000 -0.470000
v -0.420000 3.050000 -0.550000
v -0.480000 3.050000 -0.550000
v -0.420000 3.050000 -0.490000
v -0.480000 3.050000 -0.490000
v -0.420000 3.350000 -0.550000
v -0.480000 3.350000 -0.550000
v -0.420000 3.350000 -0.490000
v -0.480000 3.350000 -0.490000
v 0.400000 3.000000 -0.570000
v 0.500000 3.000000 -0.570000
v 0.400000 3.000000 -0.470000
v 0.500000 3.000000 -0.470000
v 0.400000 3.050000 -0.570000
v 0.500000 3.050000 -0.570000
v 0.400000 3.050000 -0.470000
v 0.500000 3.050000 -0.470000
v 0.400000 3.350000 -0.570000
v 0.500000 3.350000 -0.570000
v 0.400000 3.350000 -0.470000
v 0.500000 3.350000 -0.470000
v 0.400000 3.400000 -0.570000
v 0.500000 3.400000 -0.570000
v 0.400000 3.400000 -0.470000
v 0.500000 3.400000 -0.470000
v 0.420000 3.050000 -0.550000
v 0.480000 3.050000 -0.550000
v 0.420000 3.050000 -0.490000
v 0.480000 3.050000 -0.490000
v 0.420000 3.350000 -0.550000
v 0.480000 3.350000 -0.550000
v 0.420000 3.350000 -0.490000
v 0.480000 3.350000 -0.490000
vn -0.0000 -1.0000 -0.0000
vn -0.0000 -0.0000 -1.0000
vn -0.0000 1.0000 -0.0000
vn -0.0000 -0.0000 1.0000
vn 1.0000 -0.0000 -0.0000
vn -1.0000 -0.0000 -0.0000
vt 0.570323 0.022152
vt 0.574212 0.022152
vt 0.574212 0.028602
vt 0.570323 0.028602
vt 0.570323 0.028602
vt 0.574212 0.028602
vt 0.574212 0.022152
vt 0.570323 0.022152
vt 0.532599 0.038951
vt 0.536416 0.038951
vt 0.536416 0.053264
vt 0.532599 0.053264
vt 0.532572 0.037776
vt 0.536428 0.037776
vt 0.536428 0.053355
vt 0.532572 0.053355
vt 0.532572 0.053355
vt 0.536428 0.053355
vt 0.536428 0.037776
vt 0.532572 0.037776
s 0
usemtl Material.002
f 107/111/64 108/112/64 110/113/64 109/114/64
f 109/115/65 110/116/65 114/117/65 113/118/65
f 113/111/66 114/112/66 112/113/66 111/114/66
f 111/118/67 112/117/67 108/116/67 107/115/67
f 109/115/68 113/118/68 111/117/68 107/116/68
f 114/117/69 110/116/69 108/115/69 112/118/69
f 115/111/64 116/112/64 118/113/64 117/114/64
f 117/111/65 118/112/65 122/113/65 121/114/65
f 121/111/66 122/112/66 120/113/66 119/114/66
f 119/114/67 120/113/67 116/112/67 115/111/67
f 117/112/68 121/113/68 119/114/68 115/111/68
f 122/113/69 118/112/69 116/111/69 120/114/69
f 123/119/64 124/120/64 126/121/64 125/122/64
f 125/123/65 126/124/65 130/125/65 129/126/65
f 129/119/66 130/120/66 128/121/66 127/122/66
f 127/127/67 128/128/67 124/129/67 123/130/67
f 125/124/68 129/125/68 127/126/68 123/123/68
f 130/128/69 126/129/69 124/130/69 128/127/69
f 131/111/64 133/114/64 134/113/64 132/112/64
f 133/115/65 137/118/65 138/117/65 134/116/65
f 137/111/66 135/114/66 136/113/66 138/112/66
f 135/118/67 131/115/67 132/116/67 136/117/67
f 133/115/69 131/116/69 135/117/69 137/118/69
f 138/117/68 136/118/68 132/115/68 134/116/68
f 139/111/64 141/114/64 142/113/64 140/112/64
f 141/111/65 145/114/65 146/113/65 142/112/65
f 145/111/66 143/114/66 144/113/66 146/112/66
f 143/114/67 139/111/67 140/112/67 144/113/67
f 141/112/69 139/111/69 143/114/69 145/113/69
f 146/113/68 144/114/68 140/111/68 142/112/68
f 147/119/64 149/122/64 150/121/64 148/120/64
f 149/123/65 153/126/65 154/125/65 150/124/65
f 153/119/66 151/122/66 152/121/66 154/120/66
f 151/127/67 147/130/67 148/129/67 152/128/67
f 149/124/69 147/123/69 151/126/69 153/125/69
f 154/128/68 152/127/68 148/130/68 150/129/68
f 155/111/64 157/114/64 158/113/64 156/112/64
f 157/115/67 161/118/67 162/117/67 158/116/67
f 161/111/66 159/114/66 160/113/66 162/112/66
f 159/118/65 155/115/65 156/116/65 160/117/65
f 157/115/68 155/116/68 159/117/68 161/118/68
f 162/117/69 160/118/69 156/115/69 158/116/69
f 163/111/64 165/114/64 166/113/64 164/112/64
f 165/111/67 169/114/67 170/113/67 166/112/67
f 169/111/66 167/114/66 168/113/66 170/112/66
f 167/114/65 163/111/65 164/112/65 168/113/65
f 165/112/68 163/111/68 167/114/68 169/113/68
f 170/113/69 168/114/69 164/111/69 166/112/69
f 171/119/64 173/122/64 174/121/64 172/120/64
f 173/123/67 177/126/67 178/125/67 174/124/67
f 177/119/66 175/122/66 176/121/66 178/120/66
f 175/127/65 171/130/65 172/129/65 176/128/65
f 173/124/68 171/123/68 175/126/68 177/125/68
f 178/128/69 176/127/69 172/130/69 174/129/69
f 179/111/64 180/112/64 182/113/64 181/114/64
f 181/115/67 182/116/67 186/117/67 185/118/67
f 185/111/66 186/112/66 184/113/66 183/114/66
f 183/118/65 184/117/65 180/116/65 179/115/65
f 181/115/69 185/118/69 183/117/69 179/116/69
f 186/117/68 182/116/68 180/115/68 184/118/68
f 187/111/64 188/112/64 190/113/64 189/114/64
f 189/111/67 190/112/67 194/113/67 193/114/67
f 193/111/66 194/112/66 192/113/66 191/114/66
f 191/114/65 192/113/65 188/112/65 187/111/65
f 189/112/69 193/113/69 191/114/69 187/111/69
f 194/113/68 190/112/68 188/111/68 192/114/68
f 195/119/64 196/120/64 198/121/64 197/122/64
f 197/123/67 198/124/67 202/125/67 201/126/67
f 201/119/66 202/120/66 200/121/66 199/122/66
f 199/127/65 200/128/65 196/129/65 195/130/65
f 197/124/69 201/125/69 199/126/69 195/123/69
f 202/128/68 198/129/68 196/130/68 200/127/68
o Cube.002
v -0.100000 3.009909 0.540000
v -0.100000 3.009909 0.430000
v 0.060000 3.009909 0.540000
v 0.060000 3.009909 0.430000
v -0.030000 3.009909 0.430000
v -0.030000 3.009909 0.360000
v 0.110000 3.009909 0.430000
v 0.110000 3.009909 0.360000
v -0.150000 3.009909 0.620000
v -0.150000 3.009909 0.540000
v 0.030000 3.009909 0.620000
v 0.030000 3.009909 0.540000
v -0.070000 3.009909 0.720000
v -0.070000 3.009909 0.620000
v 0.110000 3.009909 0.620000
v 0.110000 3.009909 0.720000
v 0.110000 3.009909 0.670000
v 0.190000 3.009909 0.720000
v 0.190000 3.009909 0.670000
v 0.038621 3.009909 0.620000
v 0.038621 3.009909 0.720000
v -0.070000 3.009909 0.696543
v 0.110000 3.009909 0.696543
v 0.038621 3.009909 0.696543
v -0.100000 3.003022 0.540000
v -0.100000 3.003022 0.430000
v 0.060000 3.003022 0.540000
v 0.060000 3.003022 0.430000
v -0.030000 3.003022 0.430000
v -0.030000 3.003022 0.360000
v 0.110000 3.003022 0.430000
v 0.110000 3.003022 0.360000
v -0.150000 3.003022 0.620000
v -0.150000 3.003022 0.540000
v 0.030000 3.003022 0.620000
v 0.030000 3.003022 0.540000
v -0.070000 3.003022 0.720000
v -0.070000 3.003022 0.620000
v 0.110000 3.003022 0.620000
v 0.110000 3.003022 0.720000
v 0.110000 3.003022 0.670000
v 0.190000 3.003022 0.720000
v 0.190000 3.003022 0.670000
v 0.038621 3.003022 0.620000
v 0.038621 3.003022 0.720000
v -0.070000 3.003022 0.696543
v 0.110000 3.003022 0.696543
v 0.038621 3.003022 0.696543
vn -0.0000 1.0000 -0.0000
vn -0.0000 -1.0000 -0.0000
vn -1.0000 -0.0000 -0.0000
vn -0.0000 -0.0000 -1.0000
vn 1.0000 -0.0000 -0.0000
vn -0.0000 -0.0000 1.0000
vt 0.565082 0.014141
vt 0.557332 0.014141
vt 0.557332 0.009157
vt 0.565082 0.009157
vt 0.566389 0.016858
vt 0.561234 0.016858
vt 0.561234 0.013182
vt 0.566389 0.013182
vt 0.563765 0.010296
vt 0.554769 0.010296
vt 0.554769 0.005312
vt 0.563765 0.005312
vt 0.563765 0.001328
vt 0.559901 0.001267
vt 0.559901 0.000043
vt 0.563765 0.000043
vt 0.570324 0.002566
vt 0.566414 0.002566
vt 0.566414 0.000043
vt 0.570324 0.000043
vt 0.566428 0.005258
vt 0.563765 0.005258
vt 0.566428 0.001328
vt 0.559901 0.005258
s 0
usemtl Material.002
f 206/131/70 204/132/70 203/133/70 205/134/70
f 210/135/70 208/136/70 207/137/70 209/138/70
f 214/139/70 212/140/70 211/141/70 213/142/70
f 226/143/70 224/144/70 215/145/70 223/146/70
f 221/147/70 219/148/70 218/149/70 220/150/70
f 217/151/70 222/152/70 226/143/70 225/153/70
f 222/152/70 216/154/70 224/144/70 226/143/70
f 230/131/71 229/134/71 227/133/71 228/132/71
f 234/135/71 233/138/71 231/137/71 232/136/71
f 238/139/71 237/142/71 235/141/71 236/140/71
f 250/143/71 247/146/71 239/145/71 248/144/71
f 245/147/71 244/150/71 242/149/71 243/148/71
f 241/151/71 249/153/71 250/143/71 246/152/71
f 246/152/71 250/143/71 248/144/71 240/154/71
f 203/133/72 204/132/72 228/132/72 227/133/72
f 204/132/73 206/131/73 230/131/73 228/132/73
f 206/131/74 205/134/74 229/134/74 230/131/74
f 205/134/75 203/133/75 227/133/75 229/134/75
f 207/137/72 208/136/72 232/136/72 231/137/72
f 208/136/73 210/135/73 234/135/73 232/136/73
f 210/135/74 209/138/74 233/138/74 234/135/74
f 209/138/75 207/137/75 231/137/75 233/138/75
f 211/141/72 212/140/72 236/140/72 235/141/72
f 212/140/73 214/139/73 238/139/73 236/140/73
f 214/139/74 213/142/74 237/142/74 238/139/74
f 213/142/75 211/141/75 235/141/75 237/142/75
f 224/144/72 216/154/72 240/154/72 248/144/72
f 222/152/73 217/151/73 241/151/73 246/152/73
f 223/146/75 215/145/75 239/145/75 247/146/75
f 218/149/72 219/148/72 243/148/72 242/149/72
f 219/148/73 221/147/73 245/147/73 243/148/73
f 221/147/74 220/150/74 244/150/74 245/147/74
f 220/150/75 218/149/75 242/149/75 244/150/75
f 216/154/73 222/152/73 246/152/73 240/154/73
f 226/143/74 223/146/74 247/146/74 250/143/74
f 215/145/72 224/144/72 248/144/72 239/145/72
f 217/151/74 225/153/74 249/153/74 241/151/74
f 225/153/75 226/143/75 250/143/75 249/153/75
