# Blender 3.6.5
# www.blender.org
mtllib Poly_World_Map_Mountain_Canyon_04.mtl
o Cube.002_Cube.004
v 0.719865 0.400281 -0.335812
v 0.434001 0.370715 -0.440154
v 0.155596 0.370715 -0.364286
v -0.073739 0.370715 -0.204988
v -0.054620 0.381495 0.119729
v 0.023376 0.381495 0.324671
v 0.392268 0.381495 0.224145
v 0.691883 0.370715 -0.001681
v 0.022283 -0.008785 0.074266
v -0.466846 -0.008785 -0.152777
v -0.008477 -0.008785 -0.141719
v -0.713405 -0.008785 -0.003847
v -0.747393 0.689390 0.041648
v -0.394478 0.700731 -0.150535
v -0.199459 -0.008785 0.636800
v -0.567030 -0.008785 0.545478
v -0.793382 -0.008785 0.336709
v 0.706083 -0.008785 -0.293783
v 0.688070 -0.008785 0.052329
v 0.470494 -0.008785 0.232739
v 0.114938 -0.008785 0.370303
v 0.006768 0.689390 0.364216
v -0.260799 0.689390 0.497185
v 0.048416 0.700731 0.022885
v -0.055114 -0.008785 0.076469
v 0.014219 -0.008785 0.284791
v 0.006448 0.700731 -0.202066
v -0.200188 -0.008785 -0.202132
v 0.063476 -0.008785 -0.507549
v -0.563381 0.689390 0.536076
v -0.887081 0.689390 0.381303
v 0.444198 -0.008785 -0.468149
v 0.041051 -0.008785 -0.586091
v -0.448078 -0.008785 -0.813134
v 0.010292 -0.008785 -0.802076
v -0.694636 -0.008785 -0.664204
v -0.588647 0.716926 -0.567820
v -0.358990 0.724306 -0.692882
v -0.180690 -0.008785 -0.023557
v -0.548262 -0.008785 -0.114879
v -0.774614 -0.008785 -0.323648
v 0.133706 -0.008785 -0.290054
v -0.097882 0.716926 -0.357911
v -0.272000 0.716926 -0.271383
v -0.070780 0.724306 -0.580030
v -0.098091 0.724306 -0.726415
v -0.468902 0.716926 -0.246075
v -0.679548 0.716926 -0.346792
v 0.798409 -0.008785 0.359114
v 0.309279 -0.008785 0.132071
v 0.767649 -0.008785 0.143129
v 0.062721 -0.008785 0.281001
v 0.078358 0.516822 0.338619
v 0.387587 0.526759 0.170225
v 0.576667 -0.008785 0.921648
v 0.209096 -0.008785 0.830326
v -0.017256 -0.008785 0.621557
v 0.891064 -0.008785 0.655151
v 0.739164 0.516822 0.621257
v 0.506704 0.520000 0.740099
v 0.775657 0.526759 0.322178
v 0.738884 0.526759 0.125073
v 0.235880 0.520000 0.771306
v -0.044038 0.516822 0.636229
v 0.618026 0.737415 0.410433
v 0.520889 0.737415 0.337619
v 0.371561 0.737415 0.340007
v 0.125921 0.737415 0.366262
v 0.092060 0.741518 0.606191
v 0.262970 0.741518 0.715220
v 0.528628 0.741518 0.692643
v 0.702653 0.737415 0.599114
v 0.668093 0.525723 0.390515
v 0.736649 0.525723 0.620591
v 0.504080 0.519685 0.739808
v -0.043706 0.525723 0.636469
v 0.235822 0.520000 0.771426
v 0.079036 0.525723 0.337946
v 0.310835 0.525723 0.271671
v 0.522498 0.525723 0.293576
v -0.431509 0.930411 -0.008127
v -0.717905 0.930411 0.054721
v -0.772791 0.930411 0.305377
v -0.555566 0.930411 0.434117
v -0.257017 0.935093 0.320625
v -0.150984 0.935093 0.300098
v -0.177547 0.935093 0.156758
v -0.270286 0.930411 0.034102
v -0.449118 0.688812 -0.059955
v -0.201221 0.688812 -0.028182
v -0.091011 0.688812 0.102960
v -0.259909 0.688812 0.497541
v 0.007823 0.688812 0.365337
v -0.564110 0.688812 0.534865
v -0.887866 0.688812 0.380103
v -0.746090 0.688812 0.041338
v -0.054620 0.644614 0.119729
v -0.073739 0.633834 -0.204988
v 0.155596 0.633834 -0.364286
v 0.434001 0.633834 -0.440154
v 0.540178 0.623112 -0.300514
v 0.332622 0.390888 -0.108041
v 0.271843 0.633863 -0.148520
vn -0.0111 0.9999 -0.0063
vn -0.4947 0.0429 -0.8680
vn 0.5593 0.1529 0.8148
vn 0.9954 0.0548 -0.0787
vn 0.9858 -0.0413 -0.1626
vn -0.0776 0.1026 0.9917
vn -0.9495 -0.0670 -0.3066
vn -0.0057 0.9999 0.0138
vn -0.9417 -0.0241 0.3357
vn 0.4542 -0.0179 -0.8907
vn 0.6146 0.1228 0.7792
vn -0.6510 0.3152 -0.6906
vn 0.9977 -0.0141 0.0668
vn -0.0538 0.2253 -0.9728
vn -0.9555 0.1441 0.2575
vn 0.1818 -0.0233 0.9831
vn -0.5505 -0.0565 0.8329
vn -0.0470 -0.0380 -0.9982
vn -0.4917 0.1919 -0.8494
vn 0.5600 0.2931 0.7749
vn 0.9676 0.2227 -0.1192
vn 0.9754 0.1552 -0.1563
vn -0.1125 0.2502 0.9616
vn -0.9465 0.1456 -0.2880
vn -0.5710 0.1544 0.8063
vn -0.0310 0.1320 -0.9908
vn -0.4938 0.1214 -0.8611
vn 0.5545 0.2770 0.7847
vn 0.9836 0.1559 -0.0902
vn 0.9861 0.0392 -0.1612
vn -0.0915 0.2173 0.9718
vn -0.9532 0.0107 -0.3023
vn -0.0059 0.9999 0.0093
vn -0.5617 0.0348 0.8266
vn -0.0421 0.0207 -0.9989
vn 0.0036 0.9999 -0.0116
vn -0.4462 0.3307 0.8316
vn 0.5626 0.1902 -0.8045
vn 0.4579 0.1488 0.8765
vn -0.1836 0.2629 -0.9472
vn 0.9234 0.1821 -0.3378
vn 0.0523 0.2494 -0.9670
vn -0.8881 0.3783 -0.2612
vn 0.0987 0.2150 0.9716
vn -0.0069 1.0000 -0.0044
vn 0.3279 0.4984 0.8026
vn -0.2676 0.1537 -0.9512
vn 0.7224 0.3695 -0.5845
vn -0.4248 0.4031 0.8106
vn 0.1726 0.2438 -0.9543
vn -0.9222 0.2343 -0.3077
vn 0.2094 0.4799 0.8519
vn 0.8650 0.4246 -0.2673
vn -0.9983 -0.0000 0.0588
vn -0.2629 -0.0000 -0.9648
vn -0.5705 -0.0000 -0.8213
vn 0.5035 0.2463 -0.8281
vn 0.0123 0.9999 -0.0066
vn 0.5239 0.2011 0.8277
vn 0.4845 0.2594 0.8354
vn 0.5303 0.1912 0.8260
vn 0.5658 0.1330 0.8137
vt 0.920880 0.687625
vt 0.916610 0.695809
vt 0.909943 0.699024
vt 0.903082 0.699079
vt 0.898876 0.690017
vt 0.897546 0.683056
vt 0.906380 0.678796
vt 0.915594 0.679199
vt 0.911036 0.700337
vt 0.911036 0.728164
vt 0.903609 0.728164
vt 0.903609 0.700337
vt 0.916709 0.684500
vt 0.913804 0.691129
vt 0.909434 0.694075
vt 0.904682 0.694934
vt 0.901054 0.689389
vt 0.899585 0.684901
vt 0.905375 0.680998
vt 0.911794 0.680162
vt 0.885805 0.618627
vt 0.888359 0.625036
vt 0.892401 0.628042
vt 0.896864 0.629097
vt 0.900451 0.624046
vt 0.901967 0.619882
vt 0.896611 0.615899
vt 0.890573 0.614781
vt 0.916583 0.684389
vt 0.913734 0.690944
vt 0.909316 0.694020
vt 0.904579 0.694803
vt 0.900957 0.689269
vt 0.899491 0.684789
vt 0.905270 0.680893
vt 0.911677 0.680059
vt 0.900339 0.625277
vt 0.897770 0.627845
vt 0.893820 0.627761
vt 0.887322 0.626835
vt 0.886426 0.618373
vt 0.890947 0.614527
vt 0.897974 0.615324
vt 0.902578 0.618622
vt 0.903609 0.715768
vt 0.911036 0.715768
vt 0.894724 0.629376
vt 0.887149 0.627159
vt 0.885697 0.618319
vt 0.891443 0.613778
vt 0.899340 0.617781
vt 0.902144 0.618505
vt 0.901442 0.623560
vt 0.898989 0.627886
vt 0.888568 0.627359
vt 0.898902 0.627359
vt 0.901480 0.645346
vt 0.911869 0.645346
vt 0.912032 0.634443
vt 0.901643 0.634443
vt 0.908738 0.634443
vt 0.917722 0.682243
vt 0.910154 0.680918
vt 0.902931 0.682977
vt 0.900081 0.693801
vt 0.910807 0.692867
vt 0.921534 0.691932
vt 0.885448 0.601053
vt 0.896658 0.601053
vt 0.893945 0.611261
vt 0.885448 0.611261
vt 0.896658 0.611261
s 1
usemtl Material.002
f 1/1/1 2/2/1 3/3/1 4/4/1 5/5/1 6/6/1 7/7/1 8/8/1
f 12/9/2 13/10/2 14/11/2 10/12/2
f 21/12/3 22/11/3 23/10/3 15/9/3
f 9/9/4 24/10/4 22/11/4 21/12/4
f 11/12/5 27/11/5 24/10/5 9/9/5
f 15/9/6 23/10/6 30/11/6 16/12/6
f 17/12/7 31/11/7 13/10/7 12/9/7
f 31/13/8 30/14/8 23/15/8 22/16/8 24/17/8 27/18/8 14/19/8 13/20/8
f 26/12/9 6/11/9 5/10/9 25/9/9
f 32/9/10 2/10/10 1/11/10 18/12/10
f 19/9/11 8/10/11 7/11/11 20/12/11
f 28/12/12 4/11/12 3/10/12 29/9/12
f 18/12/13 1/11/13 8/10/13 19/9/13
f 29/9/14 3/10/14 2/11/14 32/12/14
f 25/9/15 5/10/15 4/11/15 28/12/15
f 20/12/16 7/11/16 6/10/16 26/9/16
f 16/9/17 30/10/17 31/11/17 17/12/17
f 10/12/18 14/11/18 27/10/18 11/9/18
f 36/9/19 37/10/19 38/11/19 34/12/19
f 42/12/20 43/11/20 44/10/20 39/9/20
f 33/9/21 45/10/21 43/11/21 42/12/21
f 35/12/22 46/11/22 45/10/22 33/9/22
f 39/9/23 44/10/23 47/11/23 40/12/23
f 41/12/24 48/11/24 37/10/24 36/9/24
f 48/21/8 47/22/8 44/23/8 43/24/8 45/25/8 46/26/8 38/27/8 37/28/8
f 40/9/25 47/10/25 48/11/25 41/12/25
f 34/12/26 38/11/26 46/10/26 35/9/26
f 52/9/27 53/10/27 54/11/27 50/12/27
f 58/12/28 59/11/28 60/10/28 55/9/28
f 49/9/29 61/10/29 59/11/29 58/12/29
f 51/12/30 62/11/30 61/10/30 49/9/30
f 55/9/31 60/10/31 63/11/31 56/12/31
f 57/12/32 64/11/32 53/10/32 52/9/32
f 64/29/33 63/30/33 60/31/33 59/32/33 61/33/33 62/34/33 54/35/33 53/36/33
f 56/9/34 63/10/34 64/11/34 57/12/34
f 50/12/35 54/11/35 62/10/35 51/9/35
f 65/37/36 66/38/36 67/39/36 68/40/36 69/41/36 70/42/36 71/43/36 72/44/36
f 77/45/37 70/11/37 69/10/37 76/46/37
f 80/46/38 66/10/38 65/11/38 73/45/38
f 74/46/39 72/10/39 71/11/39 75/45/39
f 78/45/40 68/11/40 67/10/40 79/46/40
f 73/45/41 65/11/41 72/10/41 74/46/41
f 79/46/42 67/10/42 66/11/42 80/45/42
f 76/46/43 69/10/43 68/11/43 78/45/43
f 75/45/44 71/11/44 70/10/44 77/46/44
f 81/47/45 82/48/45 83/49/45 84/50/45 85/51/45 86/52/45 87/53/45 88/54/45
f 93/45/46 86/11/46 85/10/46 92/46/46
f 96/46/47 82/10/47 81/11/47 89/45/47
f 90/46/48 88/10/48 87/11/48 91/45/48
f 94/45/49 84/11/49 83/10/49 95/46/49
f 89/45/50 81/11/50 88/10/50 90/46/50
f 95/46/51 83/10/51 82/11/51 96/45/51
f 92/46/52 85/10/52 84/11/52 94/45/52
f 91/45/53 87/11/53 86/10/53 93/46/53
f 4/55/54 5/56/54 97/56/54 98/55/54
f 2/57/55 3/58/55 99/59/55 100/60/55
f 3/57/56 4/58/56 98/59/56 99/60/56
f 1/58/57 2/57/57 100/60/57 101/61/57
f 100/62/58 99/63/58 98/64/58 97/65/58 103/66/58 101/67/58
f 102/68/59 1/69/60 101/70/60 103/71/61
f 5/69/62 102/68/59 103/71/61 97/72/62
