# Blender 3.6.5
# www.blender.org
mtllib Poly_SF_Outside_B_Traffic_Light_02.mtl
o Cube.001
v 0.000000 0.000000 -0.190000
v -0.170000 0.000000 -0.100000
v -0.170000 0.000000 0.100000
v 0.000000 0.000000 0.190000
v 0.170000 0.000000 0.100000
v 0.170000 0.000000 -0.100000
v 0.000000 0.700000 -0.190000
v -0.170000 0.700000 -0.100000
v -0.170000 0.700000 0.100000
v 0.000000 0.700000 0.190000
v 0.170000 0.700000 0.100000
v 0.170000 0.700000 -0.100000
v 0.000000 0.700000 -0.090000
v -0.080000 0.700000 -0.040000
v -0.080000 0.700000 0.040000
v 0.000000 0.700000 0.090000
v 0.080000 0.700000 0.040000
v 0.080000 0.700000 -0.040000
v 0.000000 2.860000 -0.090000
v -0.080000 2.860000 -0.040000
v -0.080000 2.860000 0.040000
v 0.000000 2.860000 0.090000
v 0.080000 2.860000 0.040000
v 0.080000 2.860000 -0.040000
v -0.002888 2.693333 -0.050000
v -0.002888 2.653333 -0.030000
v -0.002888 2.653333 0.030000
v -0.002888 2.693333 0.050000
v -0.002888 2.743334 0.030000
v -0.002888 2.743334 -0.030000
v -0.700345 2.693333 -0.050000
v -0.700345 2.653333 -0.030000
v -0.700345 2.653333 0.030000
v -0.700345 2.693333 0.050000
v -0.700345 2.743334 0.030000
v -0.700345 2.743334 -0.030000
v 0.080000 1.900000 0.040000
v 0.080000 1.900000 -0.040000
v -0.080000 1.900000 0.040000
v 0.000000 1.900000 0.090000
v 0.000000 1.900000 -0.090000
v -0.080000 1.900000 -0.040000
v 0.000000 3.070000 -0.090000
v -0.080000 3.070000 -0.040000
v -0.080000 3.070000 0.040000
v 0.000000 3.070000 0.090000
v 0.080000 3.070000 0.040000
v 0.080000 3.070000 -0.040000
v 0.000000 2.970000 -0.090000
v 0.080000 2.970000 -0.040000
v 0.080000 2.970000 0.040000
v 0.000000 2.970000 0.090000
v -0.080000 2.970000 0.040000
v -0.080000 2.970000 -0.040000
v 0.060000 2.920000 -0.040000
v 0.000000 2.920000 0.070000
v -0.060000 2.920000 -0.040000
v 0.000000 2.920000 -0.070000
v 0.060000 2.920000 0.040000
v -0.060000 2.920000 0.040000
v -0.500000 2.590000 -0.030000
v -0.530000 2.590000 -0.020000
v -0.530000 2.590000 0.020000
v -0.500000 2.590000 0.030000
v -0.470000 2.590000 0.020000
v -0.470000 2.590000 -0.020000
v -0.500000 2.660000 -0.030000
v -0.530000 2.660000 -0.020000
v -0.530000 2.660000 0.020000
v -0.500000 2.660000 0.030000
v -0.470000 2.660000 0.020000
v -0.470000 2.660000 -0.020000
v -0.326156 1.956114 -0.034009
v -0.326156 1.983321 -0.020406
v -0.326156 1.983321 0.020406
v -0.326156 1.956114 0.034009
v -0.326156 1.922104 0.020406
v -0.326156 1.922104 -0.020406
v -0.057000 1.956114 -0.034009
v -0.057000 1.983321 -0.020406
v -0.057000 1.983321 0.020406
v -0.057000 1.956114 0.034010
v -0.057000 1.922104 0.020406
v -0.057000 1.922104 -0.020406
v 0.000000 2.774097 -0.118241
v -0.105103 2.774097 -0.052552
v -0.105103 2.774097 0.052552
v 0.000000 2.774097 0.118241
v 0.105103 2.774097 0.052552
v 0.105103 2.774097 -0.052552
v 0.000000 2.642718 -0.118241
v 0.105103 2.642718 -0.052552
v 0.105103 2.642718 0.052552
v 0.000000 2.642718 0.118241
v -0.105103 2.642718 0.052552
v -0.105103 2.642718 -0.052552
v 0.000000 1.987860 -0.118241
v -0.105103 1.987860 -0.052552
v -0.105103 1.987860 0.052552
v 0.000000 1.987860 0.118241
v 0.105103 1.987860 0.052552
v 0.105103 1.987860 -0.052552
v 0.000000 1.919290 -0.118241
v 0.105103 1.919290 -0.052552
v 0.105103 1.919290 0.052552
v 0.000000 1.919290 0.118241
v -0.105103 1.919290 0.052552
v -0.105103 1.919290 -0.052552
v 0.000000 2.708407 -0.118241
v 0.105103 2.708407 0.052552
v -0.105103 2.708407 0.052552
v 0.105103 2.708407 -0.052552
v 0.000000 2.708407 0.118241
v -0.105103 2.708407 -0.052552
vn 1.0000 -0.0000 -0.0000
vn -0.4679 -0.0000 0.8838
vn -0.4679 -0.0000 -0.8838
vn 0.4679 -0.0000 -0.8838
vn 0.4679 -0.0000 0.8838
vn -1.0000 -0.0000 -0.0000
vn -0.0000 1.0000 -0.0000
vn -0.0000 -1.0000 -0.0000
vn -0.5300 -0.0000 0.8480
vn -0.5300 -0.0000 -0.8480
vn 0.5300 -0.0000 -0.8480
vn 0.5300 -0.0000 0.8480
vn -0.0000 -0.4472 0.8944
vn -0.0000 -0.4472 -0.8944
vn -0.0000 0.3714 -0.9285
vn -0.0000 0.3714 0.9285
vn -0.4786 -0.2633 -0.8376
vn -0.4786 -0.2633 0.8376
vn 0.9285 -0.3714 -0.0000
vn -0.9285 -0.3714 -0.0000
vn 0.4786 -0.2633 0.8376
vn 0.4786 -0.2633 -0.8376
vn 0.4838 0.2217 -0.8466
vn 0.4838 0.2217 0.8466
vn -0.9487 0.3162 -0.0000
vn 0.9487 0.3162 -0.0000
vn -0.4838 0.2217 0.8466
vn -0.4838 0.2217 -0.8466
vn -0.3162 -0.0000 0.9487
vn -0.3162 -0.0000 -0.9487
vn 0.3162 -0.0000 -0.9487
vn 0.3162 -0.0000 0.9487
vn -0.0000 0.4472 0.8944
vn -0.0000 0.4472 -0.8944
vn -0.0000 -0.3714 -0.9285
vn -0.0000 -0.3714 0.9285
vt 0.073719 0.566728
vt 0.073719 0.580738
vt 0.066584 0.580738
vt 0.066584 0.566728
vt 0.073719 0.566728
vt 0.073719 0.580738
vt 0.066584 0.580738
vt 0.066584 0.566728
vt 0.076883 0.581377
vt 0.069702 0.581377
vt 0.066470 0.587181
vt 0.080115 0.587181
vt 0.066458 0.578611
vt 0.073351 0.582591
vt 0.080243 0.578611
vt 0.080243 0.570652
vt 0.073351 0.566673
vt 0.066458 0.570652
vt 0.076432 0.633601
vt 0.076432 0.590287
vt 0.069297 0.590287
vt 0.069297 0.633601
vt 0.076432 0.633601
vt 0.076432 0.590287
vt 0.069297 0.590287
vt 0.078123 0.672200
vt 0.073681 0.672200
vt 0.073681 0.678058
vt 0.078123 0.678058
vt 0.076432 0.590304
vt 0.076432 0.637127
vt 0.069297 0.637127
vt 0.069297 0.590304
vt 0.076432 0.590304
vt 0.076432 0.637127
vt 0.069297 0.637127
vt 0.069297 0.590304
vt 0.071448 0.685682
vt 0.075839 0.685682
vt 0.078034 0.681879
vt 0.075839 0.678076
vt 0.071448 0.678076
vt 0.069252 0.681879
vt 0.076432 0.591596
vt 0.069297 0.591596
vt 0.076432 0.591596
vt 0.069297 0.591596
vt 0.069377 0.683896
vt 0.069377 0.679308
vt 0.073351 0.677014
vt 0.077324 0.679308
vt 0.077324 0.683896
vt 0.073351 0.686190
vt 0.078123 0.672200
vt 0.073681 0.672200
vt 0.073681 0.678058
vt 0.078123 0.678058
vt 0.069238 0.672200
vt 0.073437 0.672200
vt 0.073437 0.678058
vt 0.069238 0.678058
vt 0.073681 0.671582
vt 0.069238 0.671582
vt 0.078123 0.671582
vt 0.078123 0.670964
vt 0.073681 0.670964
vt 0.069238 0.670964
vt 0.069702 0.581319
vt 0.076883 0.581319
vt 0.076432 0.593277
vt 0.076432 0.598369
vt 0.069297 0.598369
vt 0.069297 0.593277
vt 0.076432 0.593277
vt 0.076432 0.598369
vt 0.069297 0.598369
vt 0.069297 0.593277
vt 0.165240 0.675070
vt 0.160800 0.675070
vt 0.160800 0.672335
vt 0.165240 0.672335
vt 0.156410 0.675070
vt 0.160800 0.678019
vt 0.156410 0.678019
vt 0.156410 0.672335
vt 0.158498 0.660208
vt 0.163682 0.660208
vt 0.166922 0.665393
vt 0.155257 0.665393
vt 0.163682 0.660170
vt 0.158498 0.660170
vt 0.165210 0.625158
vt 0.157889 0.625158
vt 0.157889 0.629966
vt 0.165210 0.629966
vt 0.160800 0.672120
vt 0.156410 0.672120
vt 0.165240 0.672120
s 0
usemtl Material
f 6/1/1 12/2/1 11/3/1 5/4/1
f 4/5/2 10/6/2 9/7/2 3/8/2
f 2/5/3 8/6/3 7/7/3 1/8/3
f 1/8/4 7/7/4 12/6/4 6/5/4
f 5/8/5 11/7/5 10/6/5 4/5/5
f 3/8/6 9/7/6 8/6/6 2/5/6
f 8/9/7 9/10/7 10/11/7 7/12/7
f 2/13/8 1/14/8 6/15/8 5/16/8 4/17/8 3/18/8
f 38/19/1 24/20/1 23/21/1 37/22/1
f 40/23/9 22/24/9 21/25/9 39/22/9
f 42/23/10 20/24/10 19/25/10 41/22/10
f 41/23/11 19/24/11 24/25/11 38/22/11
f 37/23/12 23/24/12 22/25/12 40/22/12
f 39/23/6 21/24/6 20/25/6 42/22/6
f 50/26/11 49/27/11 43/28/11 48/29/11
f 14/13/8 13/14/8 18/15/8 17/16/8 16/17/8 15/18/8
f 30/30/7 36/31/7 35/32/7 29/33/7
f 28/34/13 34/35/13 33/36/13 27/37/13
f 26/34/14 32/35/14 31/36/14 25/37/14
f 25/34/15 31/35/15 36/36/15 30/37/15
f 29/34/16 35/35/16 34/36/16 28/37/16
f 27/34/8 33/35/8 32/36/8 26/37/8
f 32/38/6 33/39/6 34/40/6 35/41/6 36/42/6 31/43/6
f 15/44/6 39/23/6 42/22/6 14/45/6
f 17/44/12 37/23/12 40/22/12 16/45/12
f 13/44/11 41/23/11 38/22/11 18/45/11
f 14/44/10 42/23/10 41/22/10 13/45/10
f 16/44/9 40/23/9 39/22/9 15/45/9
f 18/46/1 38/19/1 37/22/1 17/47/1
f 44/48/7 45/49/7 46/50/7 47/51/7 48/52/7 43/53/7
f 52/54/12 51/55/12 47/56/12 46/57/12
f 54/58/6 53/59/6 45/60/6 44/61/6
f 51/59/1 50/26/1 48/29/1 47/60/1
f 53/27/9 52/58/9 46/61/9 45/28/9
f 49/27/10 54/58/10 44/61/10 43/28/10
f 58/62/17 57/63/17 54/58/17 49/27/17
f 60/63/18 56/62/18 52/27/18 53/58/18
f 59/64/19 55/64/19 50/26/19 51/26/19
f 57/63/20 60/63/20 53/58/20 54/58/20
f 56/62/21 59/64/21 51/26/21 52/27/21
f 55/64/22 58/62/22 49/27/22 50/26/22
f 24/65/23 19/66/23 58/62/23 55/64/23
f 22/66/24 23/65/24 59/64/24 56/62/24
f 20/67/25 21/67/25 60/63/25 57/63/25
f 23/65/26 24/65/26 55/64/26 59/64/26
f 21/67/27 22/66/27 56/62/27 60/63/27
f 19/66/28 20/67/28 57/63/28 58/62/28
f 11/68/7 12/69/7 7/12/7 10/11/7
f 66/70/1 72/71/1 71/72/1 65/73/1
f 64/74/29 70/75/29 69/76/29 63/77/29
f 62/74/30 68/75/30 67/76/30 61/77/30
f 61/74/31 67/75/31 72/76/31 66/77/31
f 65/74/32 71/75/32 70/76/32 64/77/32
f 63/74/6 69/75/6 68/76/6 62/77/6
f 68/38/7 69/39/7 70/40/7 71/41/7 72/42/7 67/43/7
f 78/70/8 84/71/8 83/72/8 77/73/8
f 76/74/33 82/75/33 81/76/33 75/77/33
f 74/74/34 80/75/34 79/76/34 73/77/34
f 73/74/35 79/75/35 84/76/35 78/77/35
f 77/74/36 83/75/36 82/76/36 76/77/36
f 75/74/7 81/75/7 80/76/7 74/77/7
f 80/38/1 81/39/1 82/40/1 83/41/1 84/42/1 79/43/1
f 112/78/11 109/79/11 85/80/11 90/81/11
f 113/78/12 110/79/12 89/80/12 88/81/12
f 114/82/6 111/79/6 87/83/6 86/84/6
f 110/79/1 112/78/1 90/81/1 89/80/1
f 111/79/9 113/82/9 88/85/9 87/80/9
f 109/79/10 114/82/10 86/85/10 85/80/10
f 89/86/7 90/87/7 85/88/7 88/89/7
f 86/90/7 87/91/7 88/89/7 85/88/7
f 92/87/8 93/86/8 94/89/8 91/88/8
f 96/90/8 91/88/8 94/89/8 95/91/8
f 104/92/11 103/93/11 97/94/11 102/95/11
f 106/92/12 105/93/12 101/94/12 100/95/12
f 108/92/6 107/93/6 99/94/6 98/95/6
f 105/93/1 104/92/1 102/95/1 101/94/1
f 107/93/9 106/92/9 100/95/9 99/94/9
f 103/93/10 108/92/10 98/95/10 97/94/10
f 101/86/7 102/87/7 97/88/7 100/89/7
f 98/90/7 99/91/7 100/89/7 97/88/7
f 104/87/8 105/86/8 106/89/8 103/88/8
f 108/90/8 103/88/8 106/89/8 107/91/8
f 91/96/10 96/97/10 114/82/10 109/79/10
f 95/96/9 94/97/9 113/82/9 111/79/9
f 93/96/1 92/98/1 112/78/1 110/79/1
f 96/97/6 95/96/6 111/79/6 114/82/6
f 94/98/12 93/96/12 110/79/12 113/78/12
f 92/98/11 91/96/11 109/79/11 112/78/11
o Cube.002
v -0.700000 2.600000 0.100000
v -0.300000 2.600000 0.100000
v -0.700000 2.600000 -0.100000
v -0.300000 2.600000 -0.100000
v -0.700000 1.900000 0.100000
v -0.300000 1.900000 0.100000
v -0.700000 1.900000 -0.100000
v -0.300000 1.900000 -0.100000
vn -0.0000 1.0000 -0.0000
vn -0.0000 -0.0000 -1.0000
vn -0.0000 -1.0000 -0.0000
vn -0.0000 -0.0000 1.0000
vn -1.0000 -0.0000 -0.0000
vn 1.0000 -0.0000 -0.0000
vt 0.069306 0.589104
vt 0.069306 0.617432
vt 0.076521 0.617432
vt 0.076521 0.589104
s 0
usemtl Material
f 115/99/37 116/100/37 118/101/37 117/102/37
f 117/102/38 118/99/38 122/100/38 121/101/38
f 121/102/39 122/101/39 120/100/39 119/99/39
f 119/101/40 120/100/40 116/99/40 115/102/40
f 117/99/41 121/100/41 119/101/41 115/102/41
f 122/100/42 118/99/42 116/102/42 120/101/42
o Cube.003
v -0.406509 2.342826 0.142236
v -0.406509 2.284017 0.102236
v -0.332997 2.284017 0.102236
v -0.332997 2.342826 0.142236
v -0.435913 2.431039 0.190902
v -0.435913 2.431039 0.102236
v -0.406509 2.489848 0.102236
v -0.406509 2.489848 0.190902
v -0.568233 2.431039 0.190902
v -0.568233 2.431039 0.102236
v -0.597638 2.489848 0.102236
v -0.597638 2.489848 0.190902
v -0.597638 2.342826 0.142236
v -0.597638 2.284017 0.102236
v -0.656447 2.284017 0.102236
v -0.656447 2.342826 0.142236
v -0.494722 2.445742 0.190902
v -0.494722 2.445742 0.102236
v -0.494722 2.519253 0.102236
v -0.494722 2.519253 0.190902
v -0.597638 2.401634 0.190902
v -0.597638 2.401634 0.102236
v -0.656447 2.431039 0.102236
v -0.656447 2.431039 0.190902
v -0.406509 2.401634 0.190902
v -0.406509 2.401634 0.102236
v -0.332997 2.431039 0.102236
v -0.332997 2.431039 0.190902
v -0.406509 2.021978 0.142236
v -0.406509 1.963169 0.102236
v -0.332997 1.963169 0.102236
v -0.332997 2.021978 0.142236
v -0.435913 2.110192 0.190902
v -0.435913 2.110192 0.102236
v -0.406509 2.169001 0.102236
v -0.406509 2.169001 0.190902
v -0.568233 2.110192 0.190902
v -0.568233 2.110192 0.102236
v -0.597638 2.169001 0.102236
v -0.597638 2.169001 0.190902
v -0.597638 2.021978 0.142236
v -0.597638 1.963169 0.102236
v -0.656447 1.963169 0.102236
v -0.656447 2.021978 0.142236
v -0.494722 2.124895 0.190902
v -0.494722 2.124895 0.102236
v -0.494722 2.198406 0.102236
v -0.494722 2.198406 0.190902
v -0.597638 2.080788 0.190902
v -0.597638 2.080788 0.102236
v -0.656447 2.110192 0.102236
v -0.656447 2.110192 0.190902
v -0.406509 2.080788 0.190902
v -0.406509 2.080788 0.102236
v -0.332997 2.110192 0.102236
v -0.332997 2.110192 0.190902
vn -0.0000 -0.5624 0.8269
vn 0.1961 -0.9806 -0.0000
vn -0.0000 -0.0000 -1.0000
vn -0.2747 0.9615 -0.0000
vn -0.0000 -0.0000 1.0000
vn -0.2425 -0.9701 -0.0000
vn 0.3162 0.9487 -0.0000
vn 1.0000 -0.0000 -0.0000
vn -1.0000 -0.0000 -0.0000
vn -0.1367 -0.5468 0.8260
vn 0.7071 -0.7071 -0.0000
vn -0.7071 0.7071 -0.0000
vn -0.7071 -0.7071 -0.0000
vn 0.6247 0.7809 -0.0000
vn 0.1097 -0.5487 0.8288
vt 0.069328 0.596430
vt 0.075137 0.596430
vt 0.069328 0.605670
vt 0.075137 0.605670
vt 0.075137 0.607320
vt 0.069328 0.607320
vt 0.075137 0.607718
vt 0.069328 0.607718
vt 0.069328 0.612665
vt 0.075137 0.612620
vt 0.075137 0.611280
vt 0.069328 0.611280
vt 0.069328 0.613921
vt 0.075137 0.613921
vt 0.411726 0.764902
vt 0.558575 0.728189
vt 0.075137 0.602280
vt 0.069328 0.602280
vt 0.075137 0.597068
vt 0.069328 0.597112
vt 0.069328 0.602239
vt 0.075137 0.602239
vt 0.069328 0.605010
vt 0.075137 0.605010
s 0
usemtl Material
f 123/103/43 124/104/43 125/104/43 126/103/43
f 138/103/43 137/104/43 136/104/43 135/103/43
f 131/105/44 132/106/44 140/107/44 139/108/44
f 132/109/45 133/110/45 141/111/45 140/112/45
f 133/113/46 134/114/46 142/115/46 141/116/46
f 134/110/47 131/109/47 139/112/47 142/111/47
f 139/117/48 140/117/48 128/118/48 127/118/48
f 140/112/45 141/111/45 129/110/45 128/109/45
f 141/116/49 142/115/49 130/114/49 129/113/49
f 142/111/47 139/112/47 127/109/47 130/110/47
f 135/103/50 136/104/50 144/119/50 143/120/50
f 136/121/45 137/122/45 145/123/45 144/124/45
f 137/104/51 138/103/51 146/125/51 145/126/51
f 138/122/52 135/121/52 143/124/52 146/123/52
f 143/120/53 144/119/53 132/106/53 131/105/53
f 144/124/45 145/123/45 133/110/45 132/109/45
f 145/126/54 146/125/54 134/114/54 133/113/54
f 146/123/47 143/124/47 131/109/47 134/110/47
f 127/105/55 128/106/55 148/119/55 147/120/55
f 128/109/45 129/110/45 149/123/45 148/124/45
f 129/113/56 130/114/56 150/125/56 149/126/56
f 130/110/47 127/109/47 147/124/47 150/123/47
f 147/120/51 148/119/51 124/104/51 123/103/51
f 148/124/45 149/123/45 125/122/45 124/121/45
f 149/126/50 150/125/50 126/103/50 125/104/50
f 150/123/57 147/124/57 123/121/57 126/122/57
f 151/103/43 152/104/43 153/104/43 154/103/43
f 166/103/43 165/104/43 164/104/43 163/103/43
f 159/105/44 160/106/44 168/107/44 167/108/44
f 160/109/45 161/110/45 169/111/45 168/112/45
f 161/113/46 162/114/46 170/115/46 169/116/46
f 162/110/47 159/109/47 167/112/47 170/111/47
f 167/108/48 168/107/48 156/106/48 155/105/48
f 168/112/45 169/111/45 157/110/45 156/109/45
f 169/116/49 170/115/49 158/114/49 157/113/49
f 170/111/47 167/112/47 155/109/47 158/110/47
f 163/103/50 164/104/50 172/119/50 171/120/50
f 164/121/45 165/122/45 173/123/45 172/124/45
f 165/104/51 166/103/51 174/125/51 173/126/51
f 166/122/52 163/121/52 171/124/52 174/123/52
f 171/120/53 172/119/53 160/106/53 159/105/53
f 172/124/45 173/123/45 161/110/45 160/109/45
f 173/126/54 174/125/54 162/114/54 161/113/54
f 174/123/47 171/124/47 159/109/47 162/110/47
f 155/105/55 156/106/55 176/119/55 175/120/55
f 156/109/45 157/110/45 177/123/45 176/124/45
f 157/113/56 158/114/56 178/125/56 177/126/56
f 158/110/47 155/109/47 175/124/47 178/123/47
f 175/120/51 176/119/51 152/104/51 151/103/51
f 176/124/45 177/123/45 153/122/45 152/121/45
f 177/126/50 178/125/50 154/103/50 153/104/50
f 178/123/57 175/124/57 151/121/57 154/122/57
o Cube.004
v -0.406509 2.460444 0.102236
v -0.362402 2.372230 0.102236
v -0.406509 2.284017 0.102236
v -0.494722 2.460444 0.132236
v -0.494722 2.372230 0.142236
v -0.494722 2.284017 0.132236
v -0.494722 2.254612 0.102236
v -0.494722 2.504550 0.102236
v -0.582936 2.460444 0.102236
v -0.612340 2.372230 0.102236
v -0.582936 2.284017 0.102236
v -0.406509 2.139597 0.102236
v -0.377104 2.051383 0.102236
v -0.406509 1.963169 0.102236
v -0.494722 2.139597 0.132236
v -0.494722 2.051383 0.142236
v -0.494722 1.963169 0.132236
v -0.494722 1.933765 0.102236
v -0.494722 2.183703 0.102236
v -0.582936 2.139597 0.102236
v -0.627043 2.051383 0.102236
v -0.582936 1.963169 0.102236
vn 0.2707 0.5414 0.7960
vn 0.2316 -0.6947 0.6810
vn 0.3000 0.1286 0.9452
vn 0.3000 -0.1286 0.9452
vn -0.3201 -0.1067 0.9413
vn -0.2707 0.5414 0.7960
vn -0.2316 -0.6947 0.6810
vn -0.3201 0.1067 0.9413
vn 0.3201 0.1067 0.9413
vn 0.3201 -0.1067 0.9413
vn -0.3000 -0.1286 0.9452
vn -0.3000 0.1286 0.9452
vt 0.142610 0.652963
vt 0.138540 0.654998
vt 0.138540 0.652963
vt 0.138540 0.643467
vt 0.142610 0.644823
vt 0.138540 0.644823
vt 0.144644 0.648893
vt 0.138540 0.648893
vt 0.133113 0.648893
vt 0.134470 0.644823
vt 0.134470 0.652963
vt 0.141714 0.638170
vt 0.138627 0.639714
vt 0.138627 0.638170
vt 0.138627 0.630967
vt 0.141714 0.631996
vt 0.138627 0.631996
vt 0.142743 0.635083
vt 0.138627 0.635083
vt 0.133996 0.635083
vt 0.135539 0.631996
vt 0.135539 0.638170
s 0
usemtl Material
f 179/127/58 186/128/58 182/129/58
f 185/130/59 181/131/59 184/132/59
f 180/133/60 179/127/60 182/129/60 183/134/60
f 181/131/61 180/133/61 183/134/61 184/132/61
f 184/132/62 183/134/62 188/135/62 189/136/62
f 182/129/63 186/128/63 187/137/63
f 185/130/64 184/132/64 189/136/64
f 183/134/65 182/129/65 187/137/65 188/135/65
f 190/138/58 197/139/58 193/140/58
f 196/141/59 192/142/59 195/143/59
f 191/144/66 190/138/66 193/140/66 194/145/66
f 192/142/67 191/144/67 194/145/67 195/143/67
f 195/143/68 194/145/68 199/146/68 200/147/68
f 193/140/63 197/139/63 198/148/63
f 196/141/64 195/143/64 200/147/64
f 194/145/69 193/140/69 198/148/69 199/146/69
o Cube.005
v -0.570000 2.640000 0.203114
v -0.570000 2.600000 0.183114
v -0.530000 2.600000 0.183114
v -0.530000 2.640000 0.203114
v -0.580000 2.710000 0.243114
v -0.580000 2.710000 0.183114
v -0.570000 2.750000 0.183114
v -0.570000 2.750000 0.243114
v -0.650000 2.710000 0.243114
v -0.650000 2.710000 0.183114
v -0.660000 2.750000 0.183114
v -0.660000 2.750000 0.243114
v -0.660000 2.640000 0.203114
v -0.660000 2.600000 0.183114
v -0.700000 2.600000 0.183114
v -0.700000 2.640000 0.203114
v -0.615010 2.723130 0.243114
v -0.615010 2.723130 0.183114
v -0.615010 2.773129 0.183114
v -0.615010 2.773129 0.243114
v -0.660000 2.690000 0.243114
v -0.660000 2.690000 0.183114
v -0.700000 2.710000 0.183114
v -0.700000 2.710000 0.243114
v -0.570000 2.690000 0.243114
v -0.570000 2.690000 0.183114
v -0.530000 2.710000 0.183114
v -0.530000 2.710000 0.243114
v -0.570000 2.600000 0.053114
v -0.530000 2.600000 0.053114
v -0.580000 2.710000 0.053114
v -0.570000 2.750000 0.053114
v -0.650000 2.710000 0.053114
v -0.660000 2.750000 0.053114
v -0.660000 2.600000 0.053114
v -0.700000 2.600000 0.053114
v -0.615010 2.723130 0.053114
v -0.615010 2.773129 0.053114
v -0.660000 2.690000 0.053114
v -0.700000 2.710000 0.053114
v -0.570000 2.690000 0.053114
v -0.530000 2.710000 0.053114
vn -0.0000 -0.4472 0.8944
vn 0.3513 -0.9363 -0.0000
vn 0.4571 0.8894 -0.0000
vn -0.4572 0.8894 -0.0000
vn -0.0000 -0.0000 1.0000
vn -0.3511 -0.9363 -0.0000
vn -0.0000 -1.0000 -0.0000
vn 1.0000 -0.0000 -0.0000
vn -1.0000 -0.0000 -0.0000
vn -0.1374 -0.5494 0.8242
vn 0.8944 -0.4472 -0.0000
vn 0.7071 0.7071 -0.0000
vn -0.7071 0.7071 -0.0000
vn -0.8944 -0.4472 -0.0000
vn 0.1374 -0.5494 0.8242
vn -0.0000 -0.0000 -1.0000
vn -0.0000 0.2646 0.9644
vt 0.135206 0.661096
vt 0.135206 0.659013
vt 0.136660 0.659013
vt 0.136660 0.661096
vt 0.130264 0.661096
vt 0.130264 0.659013
vt 0.131427 0.659013
vt 0.131427 0.661096
vt 0.132008 0.664219
vt 0.133462 0.664740
vt 0.133546 0.662855
vt 0.136709 0.662855
vt 0.136709 0.666487
vt 0.133546 0.666487
vt 0.131873 0.662855
vt 0.131873 0.666468
vt 0.133546 0.666468
vt 0.131427 0.666302
vt 0.133462 0.667343
vt 0.134625 0.664219
vt 0.130385 0.662855
vt 0.130385 0.666487
vt 0.131873 0.666487
vt 0.136709 0.666468
vt 0.135206 0.666302
vt 0.136660 0.664219
vt 0.130264 0.664219
vt 0.131427 0.663178
vt 0.135221 0.662855
vt 0.135221 0.666487
vt 0.130385 0.666468
vt 0.135206 0.663178
vt 0.135221 0.666468
s 0
usemtl Material
f 201/149/70 202/150/70 203/151/70 204/152/70
f 216/153/70 215/154/70 214/155/70 213/156/70
f 209/157/71 210/157/71 218/158/71 217/158/71
f 219/159/72 207/160/72 232/161/72 238/162/72
f 211/163/73 212/164/73 220/165/73 219/159/73
f 212/166/74 209/157/74 217/158/74 220/167/74
f 217/158/75 218/158/75 206/168/75 205/168/75
f 214/163/76 215/169/76 236/170/76 235/171/76
f 219/159/72 220/165/72 208/172/72 207/160/72
f 220/167/74 217/158/74 205/168/74 208/173/74
f 227/174/77 203/151/77 230/151/77 242/174/77
f 215/154/78 216/153/78 224/175/78 223/175/78
f 216/153/79 213/156/79 221/176/79 224/175/79
f 221/176/80 222/176/80 210/157/80 209/157/80
f 207/160/81 227/177/81 242/178/81 232/161/81
f 223/169/82 224/179/82 212/164/82 211/163/82
f 224/175/74 221/176/74 209/157/74 212/166/74
f 205/168/83 206/168/83 226/180/83 225/180/83
f 203/177/76 202/160/76 229/161/76 230/178/76
f 207/160/81 208/172/81 228/181/81 227/177/81
f 208/173/74 205/168/74 225/180/74 228/174/74
f 202/150/76 214/155/76 235/155/76 229/150/76
f 227/174/77 228/174/77 204/152/77 203/151/77
f 228/174/84 225/180/84 201/149/84 204/152/84
f 201/149/70 213/156/70 214/155/70 202/150/70
f 223/169/82 211/163/82 234/171/82 240/170/82
f 233/157/85 234/166/85 238/167/85 237/158/85
f 237/158/85 238/167/85 232/173/85 231/168/85
f 235/155/85 236/154/85 240/175/85 239/176/85
f 239/176/85 240/175/85 234/166/85 233/157/85
f 231/168/85 232/173/85 242/174/85 241/180/85
f 241/180/85 242/174/85 230/151/85 229/150/85
f 239/176/85 233/157/85 237/158/85 231/168/85 241/180/85 229/150/85 235/155/85
f 211/163/73 219/159/73 238/162/73 234/171/73
f 215/154/78 223/175/78 240/175/78 236/154/78
f 221/176/77 213/156/77 222/176/77
f 225/180/78 226/180/78 201/149/78
f 210/157/86 222/176/86 213/156/86 201/149/86 226/180/86 206/168/86 218/158/86
o Cube.006
v -0.260000 1.930000 0.100000
v 0.000000 1.930000 0.100000
v -0.260000 2.620000 0.100000
v 0.000000 2.620000 0.100000
v -0.117656 2.516318 0.015541
v 0.000000 2.319491 0.015541
v -0.379187 2.658152 0.015541
v 0.000000 2.658152 0.015541
v -0.260000 1.930000 0.090000
v 0.000000 1.930000 0.090000
v -0.260000 2.620000 0.090000
v 0.000000 2.620000 0.090000
v -0.117656 2.516318 0.005541
v -0.000000 2.319491 0.005541
v -0.379187 2.658152 0.005541
v -0.000000 2.658152 0.005541
vn -0.0000 -0.0000 1.0000
vn -0.0000 -0.0000 -1.0000
vn -1.0000 -0.0000 -0.0000
vn -0.0000 -1.0000 -0.0000
vn 1.0000 -0.0000 -0.0000
vn -0.0000 1.0000 -0.0000
vn -0.4767 -0.8791 -0.0000
vn -0.8583 -0.5131 -0.0000
vt 0.148558 0.631800
vt 0.158798 0.631800
vt 0.158798 0.658805
vt 0.148558 0.658805
vt 0.164967 0.597599
vt 0.156761 0.597599
vt 0.156761 0.624701
vt 0.164967 0.624701
s 0
usemtl Material
f 243/182/87 244/183/87 246/184/87 245/185/87
f 247/186/87 248/187/87 250/188/87 249/189/87
f 251/182/88 253/185/88 254/184/88 252/183/88
f 255/186/88 257/189/88 258/188/88 256/187/88
f 243/182/89 245/185/89 253/185/89 251/182/89
f 244/183/90 243/182/90 251/182/90 252/183/90
f 246/184/91 244/183/91 252/183/91 254/184/91
f 245/185/92 246/184/92 254/184/92 253/185/92
f 247/186/93 249/189/93 257/189/93 255/186/93
f 248/187/94 247/186/94 255/186/94 256/187/94
f 250/188/91 248/187/91 256/187/91 258/188/91
f 249/189/92 250/188/92 258/188/92 257/189/92
