# Blender 3.6.5
# www.blender.org
mtllib Poly_World_Map_Mountain_Snow_01.mtl
o Cube.002_Cube.001
v 0.108175 -0.025782 -0.713791
v -0.217952 -0.025782 -0.433412
v -0.410204 -0.029051 -0.140480
v -0.217952 -0.029051 0.257467
v 0.108175 -0.029051 0.378804
v 0.551990 -0.029051 0.257467
v 0.717650 -0.029051 -0.137872
v 0.533739 -0.025782 -0.608099
v 0.108175 0.368350 -0.382539
v -0.121832 0.320067 -0.311642
v -0.192730 0.343957 -0.140480
v -0.121832 0.343957 0.135697
v 0.108175 0.392240 0.206595
v 0.430220 0.392240 0.135697
v 0.501118 0.392240 -0.140480
v 0.430220 0.368350 -0.311642
v 0.107584 0.583626 -0.202620
v 0.108175 0.619976 -0.159204
v 0.094934 0.619976 -0.153720
v 0.062313 0.583235 -0.183407
v 0.089450 0.619976 -0.140480
v 0.044137 0.583766 -0.141082
v 0.094934 0.619976 -0.127240
v 0.062602 0.584817 -0.093853
v 0.108175 0.619976 -0.121755
v 0.107584 0.585750 -0.074455
v 0.121415 0.619976 -0.127240
v 0.157032 0.587176 -0.093864
v 0.126899 0.619976 -0.140480
v 0.175975 0.586227 -0.141082
v 0.121415 0.619976 -0.153720
v 0.157855 0.585321 -0.183601
vn -0.8492 0.4111 0.3315
vn -0.4931 0.4999 -0.7120
vn 0.1791 0.6272 -0.7580
vn 0.8672 0.3933 0.3055
vn -0.3324 0.3625 0.8707
vn -0.7816 0.4192 -0.4618
vn 0.8260 0.4476 -0.3425
vn 0.2281 0.3500 0.9086
vn 0.4960 0.8145 -0.3011
vn 0.1316 0.8217 0.5545
vn -0.6919 0.6969 0.1889
vn 0.5023 0.8538 0.1370
vn -0.3179 0.7756 0.5453
vn -0.6708 0.6514 -0.3544
vn -0.3429 0.5981 -0.7244
vn 0.1771 0.6428 -0.7453
vn -0.2660 0.7394 -0.6185
vn -0.6025 0.7532 -0.2638
vn -0.6055 0.7629 0.2266
vn -0.2554 0.7821 0.5684
vn 0.2082 0.7949 0.5699
vn 0.5523 0.8066 0.2105
vn 0.5505 0.7978 -0.2460
vn 0.2196 0.7522 -0.6213
vn -0.0000 1.0000 -0.0000
vt 0.192208 0.079848
vt 0.190464 0.102222
vt 0.181666 0.107143
vt 0.173258 0.092954
vt 0.192165 0.079848
vt 0.190421 0.102222
vt 0.201607 0.103452
vt 0.213995 0.086637
vt 0.214038 0.086637
vt 0.201650 0.103452
vt 0.188976 0.117435
vt 0.187626 0.117421
vt 0.189120 0.117462
vt 0.189790 0.117401
vt 0.189120 0.117461
vt 0.187626 0.117424
vt 0.189120 0.117462
vt 0.187626 0.117424
vt 0.188968 0.117448
vt 0.189657 0.117369
vt 0.188968 0.116608
vt 0.188780 0.117935
vt 0.189062 0.117935
vt 0.189657 0.116529
vt 0.187626 0.116584
vt 0.187854 0.117935
vt 0.188444 0.117935
vt 0.189120 0.116621
vt 0.188572 0.117935
vt 0.187890 0.117935
vt 0.187626 0.116584
vt 0.189790 0.116561
vt 0.189226 0.117935
vt 0.188944 0.117935
vt 0.189120 0.116622
vt 0.188944 0.117935
vt 0.189226 0.117935
vt 0.187626 0.116581
vt 0.188572 0.117935
vt 0.189120 0.116622
vt 0.188976 0.116595
vt 0.187854 0.117935
vt 0.189062 0.117935
vt 0.188780 0.117935
vt 0.153561 0.155411
vt 0.152508 0.152023
vt 0.153561 0.148634
vt 0.156103 0.147231
vt 0.158644 0.148634
vt 0.159697 0.152023
vt 0.158644 0.155412
vt 0.156103 0.156815
s 0
usemtl Material.001
f 4/1/1 12/2/1 11/3/1 3/4/1
f 2/5/2 10/6/2 9/7/2 1/8/2
f 1/8/3 9/7/3 16/6/3 8/5/3
f 7/4/4 15/3/4 14/2/4 6/1/4
f 5/9/5 13/10/5 12/2/5 4/1/5
f 3/4/6 11/3/6 10/6/6 2/5/6
f 8/5/7 16/6/7 15/3/7 7/4/7
f 6/1/8 14/2/8 13/10/8 5/9/8
f 16/6/9 32/11/9 30/12/9 15/3/9
f 14/2/10 28/13/10 26/14/10 13/10/10
f 12/2/11 24/15/11 22/16/11 11/3/11
f 15/3/12 30/12/12 28/17/12 14/2/12
f 13/10/13 26/14/13 24/15/13 12/2/13
f 11/3/14 22/18/14 20/19/14 10/6/14
f 10/6/15 20/19/15 17/20/15 9/7/15
f 9/7/16 17/20/16 32/11/16 16/6/16
f 20/21/17 19/22/17 18/23/17 17/24/17
f 22/25/18 21/26/18 19/27/18 20/21/18
f 24/28/19 23/29/19 21/30/19 22/31/19
f 26/32/20 25/33/20 23/34/20 24/28/20
f 28/35/21 27/36/21 25/37/21 26/32/21
f 30/38/22 29/30/22 27/39/22 28/40/22
f 32/41/23 31/27/23 29/42/23 30/38/23
f 17/24/24 18/43/24 31/44/24 32/41/24
f 19/45/25 21/46/25 23/47/25 25/48/25 27/49/25 29/50/25 31/51/25 18/52/25
o Cube.002_Cube.002
v -0.301166 -0.025782 -0.471690
v -0.627293 -0.025782 -0.102289
v -0.819545 -0.029051 0.190643
v -0.627293 -0.029051 0.588590
v -0.301166 -0.029051 0.764245
v 0.142649 -0.029051 0.588590
v 0.308309 -0.029051 0.193251
v 0.124398 -0.025782 -0.276976
v -0.301166 0.368350 -0.104225
v -0.531173 0.320067 -0.033328
v -0.602071 0.343957 0.137834
v -0.531173 0.322834 0.352149
v -0.301166 0.371116 0.423046
v -0.096810 0.371116 0.352149
v -0.025913 0.392240 0.137834
v -0.096810 0.368350 -0.033328
v -0.301166 0.758789 0.101316
v -0.326989 0.758789 0.112012
v -0.337685 0.758789 0.137834
v -0.326989 0.758789 0.163656
v -0.301166 0.758789 0.174352
v -0.275344 0.758789 0.163656
v -0.264648 0.758789 0.137834
v -0.275344 0.758789 0.112012
vn -0.7959 0.4875 0.3589
vn -0.5725 0.4704 -0.6715
vn 0.2999 0.6356 -0.7113
vn 0.7272 0.6157 0.3035
vn -0.3682 0.5955 0.7140
vn -0.8041 0.3614 -0.4720
vn 0.7486 0.5829 -0.3161
vn 0.2802 0.6155 0.7366
vn 0.7947 0.5185 0.3156
vn -0.3473 0.5054 0.7899
vn -0.7806 0.4938 -0.3832
vn 0.7762 0.5013 -0.3823
vn 0.2854 0.5198 0.8052
vn -0.7995 0.5105 0.3166
vn -0.3471 0.4367 -0.8299
vn 0.2988 0.4471 -0.8431
vn -0.0000 1.0000 -0.0000
vt 0.192208 0.079848
vt 0.190464 0.102222
vt 0.181666 0.107143
vt 0.173258 0.092954
vt 0.192165 0.079848
vt 0.190421 0.102222
vt 0.201607 0.103452
vt 0.213995 0.086637
vt 0.214038 0.086637
vt 0.201650 0.103452
vt 0.188080 0.118524
vt 0.188425 0.118524
vt 0.188567 0.118524
vt 0.188378 0.118524
vt 0.188520 0.118524
vt 0.153126 0.159248
vt 0.151783 0.154928
vt 0.153126 0.150608
vt 0.156367 0.148819
vt 0.159605 0.150608
vt 0.160948 0.154928
vt 0.159605 0.159248
vt 0.156367 0.161037
s 0
usemtl Material.001
f 36/53/26 44/54/26 43/55/26 35/56/26
f 34/57/27 42/58/27 41/59/27 33/60/27
f 33/60/28 41/59/28 48/58/28 40/57/28
f 39/56/29 47/55/29 46/54/29 38/53/29
f 37/61/30 45/62/30 44/54/30 36/53/30
f 35/56/31 43/55/31 42/58/31 34/57/31
f 40/57/32 48/58/32 47/55/32 39/56/32
f 38/53/33 46/54/33 45/62/33 37/61/33
f 47/55/34 55/63/34 54/64/34 46/54/34
f 45/62/35 53/65/35 52/64/35 44/54/35
f 43/55/36 51/63/36 50/66/36 42/58/36
f 48/58/37 56/66/37 55/63/37 47/55/37
f 46/54/38 54/64/38 53/65/38 45/62/38
f 44/54/39 52/64/39 51/63/39 43/55/39
f 42/58/40 50/66/40 49/67/40 41/59/40
f 41/59/41 49/67/41 56/66/41 48/58/41
f 50/68/42 51/69/42 52/70/42 53/71/42 54/72/42 55/73/42 56/74/42 49/75/42
o Cube.002_Cube.003
v -0.582219 -0.043094 -0.743636
v -0.481838 -0.043094 -0.478453
v -0.384412 -0.046364 -0.301936
v -0.130265 -0.046363 -0.292878
v 0.046723 -0.046363 -0.411654
v 0.076548 -0.046363 -0.684685
v -0.080134 -0.046364 -0.875177
v -0.368822 -0.043094 -0.907896
v -0.395224 0.318360 -0.564019
v -0.420927 0.270078 -0.427930
v -0.352870 0.293968 -0.345876
v -0.224766 0.272844 -0.324388
v -0.126906 0.321127 -0.422390
v -0.108093 0.321127 -0.545426
v -0.198109 0.342250 -0.639071
v -0.304254 0.318360 -0.648968
v -0.311650 0.478632 -0.465772
v -0.314832 0.478632 -0.431644
v -0.292950 0.478632 -0.405261
v -0.258822 0.478632 -0.402080
v -0.232440 0.478632 -0.423962
v -0.229258 0.478632 -0.458089
v -0.251140 0.478632 -0.484471
v -0.285267 0.478632 -0.487654
v 0.024421 -0.043094 0.164013
v 0.018408 -0.043094 0.447495
v 0.042796 -0.046364 0.647634
v 0.275137 -0.046363 0.751029
v 0.483691 -0.046363 0.707014
v 0.613406 -0.046363 0.464920
v 0.539281 -0.046364 0.229671
v 0.283745 -0.043094 0.091421
v 0.175632 0.357853 0.289070
v 0.100926 0.309570 0.405689
v 0.133381 0.333460 0.507233
v 0.244168 0.312336 0.575046
v 0.371566 0.360619 0.520724
v 0.435003 0.360619 0.413637
v 0.386513 0.381743 0.293134
v 0.291761 0.357853 0.244280
v 0.252707 0.514104 0.358634
v 0.244739 0.514104 0.374089
v 0.250032 0.514104 0.390652
v 0.265487 0.514104 0.398621
v 0.282050 0.514104 0.393327
v 0.290019 0.514104 0.377872
v 0.284725 0.514104 0.361309
v 0.269270 0.514104 0.353341
vn -0.0734 0.1064 0.9916
vn -0.9390 0.2742 0.2077
vn -0.5215 0.5678 -0.6369
vn 0.6599 0.5290 -0.5336
vn 0.5668 0.2692 0.7786
vn -0.8409 0.1136 0.5291
vn 0.0608 0.5528 -0.8311
vn 0.9009 0.4198 0.1106
vn 0.5838 0.6935 -0.4222
vn 0.5632 0.3768 0.7354
vn -0.7467 0.4005 0.5311
vn -0.0594 0.7245 -0.6867
vn 0.8209 0.5595 0.1149
vn -0.0988 0.3355 0.9369
vn -0.8871 0.4612 -0.0197
vn -0.5220 0.6314 -0.5734
vn -0.0000 1.0000 -0.0000
vn -0.3921 0.3888 0.8337
vn -0.9391 0.3081 -0.1523
vn -0.2780 0.3634 -0.8892
vn 0.8895 0.3569 -0.2854
vn 0.1910 0.4488 0.8730
vn -0.9508 0.2648 0.1610
vn 0.4361 0.2977 -0.8492
vn 0.7969 0.4131 0.4408
vn 0.7330 0.6540 -0.1868
vn 0.0895 0.6572 0.7484
vn -0.7959 0.5902 0.1350
vn 0.2677 0.5853 -0.7653
vn 0.6334 0.6801 0.3691
vn -0.3104 0.6462 0.6972
vn -0.7965 0.5201 -0.3084
vn -0.3033 0.5123 -0.8035
vt 0.192208 0.079848
vt 0.190464 0.102222
vt 0.181666 0.107143
vt 0.173258 0.092954
vt 0.192165 0.079848
vt 0.190421 0.102222
vt 0.201607 0.103452
vt 0.213995 0.086637
vt 0.214038 0.086637
vt 0.201650 0.103452
vt 0.188080 0.118524
vt 0.188425 0.118524
vt 0.188567 0.118524
vt 0.188378 0.118524
vt 0.188520 0.118524
vt 0.151329 0.152255
vt 0.153733 0.148390
vt 0.157483 0.147924
vt 0.160382 0.151130
vt 0.160732 0.156130
vt 0.158327 0.159995
vt 0.154577 0.160461
vt 0.151679 0.157255
s 0
usemtl Material.001
f 60/76/43 68/77/43 67/78/43 59/79/43
f 58/80/44 66/81/44 65/82/44 57/83/44
f 57/83/45 65/82/45 72/81/45 64/80/45
f 63/79/46 71/78/46 70/77/46 62/76/46
f 61/84/47 69/85/47 68/77/47 60/76/47
f 59/79/48 67/78/48 66/81/48 58/80/48
f 64/80/49 72/81/49 71/78/49 63/79/49
f 62/76/50 70/77/50 69/85/50 61/84/50
f 71/78/51 79/86/51 78/87/51 70/77/51
f 69/85/52 77/88/52 76/87/52 68/77/52
f 67/78/53 75/86/53 74/89/53 66/81/53
f 72/81/54 80/89/54 79/86/54 71/78/54
f 70/77/55 78/87/55 77/88/55 69/85/55
f 68/77/56 76/87/56 75/86/56 67/78/56
f 66/81/57 74/89/57 73/90/57 65/82/57
f 65/82/58 73/90/58 80/89/58 72/81/58
f 74/91/59 75/92/59 76/93/59 77/94/59 78/95/59 79/96/59 80/97/59 73/98/59
f 84/76/60 92/77/60 91/78/60 83/79/60
f 82/80/61 90/81/61 89/82/61 81/83/61
f 81/83/62 89/82/62 96/81/62 88/80/62
f 87/79/63 95/78/63 94/77/63 86/76/63
f 85/84/64 93/85/64 92/77/64 84/76/64
f 83/79/65 91/78/65 90/81/65 82/80/65
f 88/80/66 96/81/66 95/78/66 87/79/66
f 86/76/67 94/77/67 93/85/67 85/84/67
f 95/78/68 103/86/68 102/87/68 94/77/68
f 93/85/69 101/88/69 100/87/69 92/77/69
f 91/78/70 99/86/70 98/89/70 90/81/70
f 96/81/71 104/89/71 103/86/71 95/78/71
f 94/77/72 102/87/72 101/88/72 93/85/72
f 92/77/73 100/87/73 99/86/73 91/78/73
f 90/81/74 98/89/74 97/90/74 89/82/74
f 89/82/75 97/90/75 104/89/75 96/81/75
f 98/91/59 99/92/59 100/93/59 101/94/59 102/95/59 103/96/59 104/97/59 97/98/59
