# Blender v3.0.1 OBJ File: 'Poly_Small_Window_00.blend'
# www.blender.org
mtllib Poly_Small_Window_00.mtl
o Cube_Cube.001
v 0.450000 0.450000 -0.712500
v 0.450000 1.050000 -0.712500
v 0.450000 0.450000 -0.412500
v 0.450000 1.050000 -0.412500
v -0.450000 0.450000 -0.712500
v -0.450000 1.050000 -0.712500
v -0.450000 0.450000 -0.412500
v -0.450000 1.050000 -0.412500
v 0.450000 0.975000 -0.712500
v 0.450000 0.975000 -0.412500
v -0.450000 0.975000 -0.412500
v -0.450000 0.975000 -0.712500
v 0.450000 0.525000 -0.412500
v -0.450000 0.525000 -0.412500
v -0.450000 0.525000 -0.712500
v 0.450000 0.525000 -0.712500
v -0.375000 0.450000 -0.412500
v -0.375000 1.050000 -0.412500
v -0.375000 0.450000 -0.712500
v -0.375000 1.050000 -0.712500
v -0.375000 0.975000 -0.712500
v -0.375000 0.975000 -0.412500
v -0.375000 0.525000 -0.412500
v -0.375000 0.525000 -0.712500
v 0.375000 0.450000 -0.412500
v 0.375000 1.050000 -0.712500
v 0.375000 0.975000 -0.712500
v 0.375000 0.525000 -0.712500
v 0.375000 1.050000 -0.412500
v 0.375000 0.450000 -0.712500
v 0.375000 0.975000 -0.412500
v 0.375000 0.525000 -0.412500
v 0.375000 0.975000 -0.487500
v -0.375000 0.975000 -0.487500
v 0.375000 0.525000 -0.487500
v -0.375000 0.525000 -0.487500
vt 0.018957 0.145071
vt 0.015476 0.145071
vt 0.015476 0.147879
vt 0.019021 0.147879
vt 0.047340 0.147879
vt 0.047340 0.145071
vt 0.048952 0.145071
vt 0.048952 0.147879
vt 0.019021 0.147879
vt 0.015476 0.147879
vt 0.015476 0.145071
vt 0.018957 0.145071
vt 0.029452 0.158541
vt 0.029452 0.158541
vt 0.029452 0.158541
vt 0.029452 0.158541
vt 0.015476 0.145071
vt 0.015476 0.145071
vt 0.015476 0.145071
vt 0.015476 0.145071
vt 0.047340 0.147879
vt 0.048823 0.147879
vt 0.048952 0.145071
vt 0.047340 0.145071
vt 0.029452 0.158541
vt 0.029452 0.158541
vt 0.041483 0.147879
vt 0.041483 0.145071
vt 0.015476 0.145071
vt 0.047340 0.145071
vt 0.047340 0.147879
vt 0.015476 0.147879
vt 0.041483 0.145071
vt 0.041483 0.147879
vt 0.044655 0.145071
vt 0.044655 0.147879
vt 0.047340 0.145071
vt 0.047340 0.147879
vt 0.048952 0.147879
vt 0.048952 0.145071
vt 0.044655 0.147879
vt 0.044655 0.145071
vt 0.029452 0.158541
vt 0.029452 0.158541
vt 0.029518 0.158472
vt 0.029518 0.158472
vt 0.029518 0.158472
vt 0.029518 0.158472
vt 0.047340 0.145071
vt 0.047340 0.147879
vt 0.015476 0.147879
vt 0.015476 0.145071
vt 0.044655 0.145071
vt 0.044655 0.145071
vt 0.015476 0.145071
vt 0.029518 0.158472
vt 0.029518 0.158472
vt 0.015411 0.147879
vt 0.015476 0.145071
vt 0.015476 0.145071
vt 0.047340 0.145071
vt 0.029518 0.158472
vt 0.029518 0.158472
vt 0.015476 0.147879
vt 0.015476 0.145071
vt 0.048952 0.147879
vt 0.048952 0.145071
vt 0.047340 0.145071
vt 0.047340 0.147879
vt 0.048952 0.145071
vt 0.048952 0.145071
vt 0.047340 0.147879
vt 0.015476 0.147879
vt 0.015476 0.145071
vt 0.047340 0.145071
vt 0.048952 0.147879
vt 0.015476 0.147879
vt 0.030037 0.158508
vt 0.030037 0.158508
vt 0.030037 0.158508
vt 0.030037 0.158508
vt 0.015476 0.145071
vt 0.015476 0.145071
vt 0.044655 0.145071
vt 0.015476 0.145071
vt 0.044655 0.145071
vt 0.044655 0.145071
vt 0.044655 0.145071
vn 1.0000 0.0000 0.0000
vn 0.0000 0.0000 1.0000
vn -1.0000 0.0000 0.0000
vn 0.0000 0.0000 -1.0000
vn 0.0000 -1.0000 0.0000
vn 0.0000 1.0000 0.0000
usemtl Material
s off
f 9/1/1 2/2/1 4/3/1 10/4/1
f 22/5/2 18/6/2 8/7/2 11/8/2
f 11/9/3 8/10/3 6/11/3 12/12/3
f 27/13/4 26/14/4 2/15/4 9/16/4
f 17/17/5 7/18/5 5/19/5 19/20/5
f 29/21/6 4/22/6 2/23/6 26/24/6
f 28/25/4 27/13/4 9/16/4 16/26/4
f 14/27/3 11/9/3 12/12/3 15/28/3
f 23/29/2 22/30/2 11/31/2 14/32/2
f 16/33/1 9/1/1 10/4/1 13/34/1
f 1/35/1 16/33/1 13/34/1 3/36/1
f 17/37/2 23/38/2 14/39/2 7/40/2
f 7/41/3 14/27/3 15/28/3 5/42/3
f 30/43/4 28/25/4 16/26/4 1/44/4
f 5/45/4 15/46/4 24/47/4 19/48/4
f 25/49/2 32/50/2 23/51/2 17/17/2
f 22/52/1 23/53/1 36/54/1 34/55/1
f 15/46/4 12/56/4 21/57/4 24/47/4
f 8/58/6 18/59/6 20/60/6 6/11/6
f 25/49/5 17/17/5 19/20/5 30/61/5
f 12/56/4 6/62/4 20/63/4 21/57/4
f 31/64/2 29/65/2 18/6/2 22/5/2
f 10/66/2 4/67/2 29/68/2 31/69/2
f 3/70/5 25/49/5 30/61/5 1/71/5
f 13/72/2 10/73/2 31/74/2 32/75/2
f 3/70/2 13/76/2 32/50/2 25/49/2
f 19/48/4 24/47/4 28/25/4 30/43/4
f 24/47/4 21/57/4 27/13/4 28/25/4
f 18/77/6 29/21/6 26/24/6 20/60/6
f 21/57/4 20/63/4 26/14/4 27/13/4
f 35/78/2 33/79/2 34/80/2 36/81/2
f 23/53/6 32/82/6 35/83/6 36/54/6
f 32/84/3 31/74/3 33/85/3 35/86/3
f 31/74/5 22/87/5 34/88/5 33/85/5
