# Blender 3.6.5
# www.blender.org
mtllib Poly_SF_Outside_B_Guardrail_01.mtl
o Cube.001
v -0.500000 0.200000 0.020000
v -0.500000 0.500000 0.020000
v -0.500000 0.200000 -0.020000
v -0.500000 0.500000 -0.020000
v 0.500000 0.200000 0.020000
v 0.500000 0.500000 0.020000
v 0.500000 0.200000 -0.020000
v 0.500000 0.500000 -0.020000
v 0.022000 0.042000 -0.095000
v -0.022000 0.042000 -0.095000
v -0.043000 0.042000 -0.057000
v -0.022000 0.042000 -0.020000
v 0.022000 0.042000 -0.020000
v 0.043000 0.042000 -0.057000
v 0.022000 0.519696 -0.095000
v -0.022000 0.519696 -0.095000
v -0.043000 0.519696 -0.057000
v -0.022000 0.519696 -0.020000
v 0.022000 0.519696 -0.020000
v 0.043000 0.519696 -0.057000
v -0.043000 0.263000 -0.057000
v -0.022000 0.263000 -0.020000
v 0.022000 0.263000 -0.095000
v -0.022000 0.263000 -0.095000
v 0.043000 0.263000 -0.057000
v 0.022000 0.263000 -0.020000
v -0.022000 0.150000 -0.020000
v -0.022000 0.150000 -0.095000
v 0.022000 0.150000 -0.020000
v -0.043000 0.150000 -0.057000
v 0.022000 0.150000 -0.095000
v 0.043000 0.150000 -0.057000
v -0.043000 0.387000 -0.057000
v 0.022000 0.387000 -0.095000
v 0.043000 0.387000 -0.057000
v -0.022000 0.387000 -0.020000
v -0.022000 0.387000 -0.095000
v 0.022000 0.387000 -0.020000
v 0.022632 0.547075 -0.094824
v -0.022632 0.547075 -0.094824
v -0.043206 0.547075 -0.057105
v -0.022632 0.547075 -0.020071
v 0.022632 0.547075 -0.020071
v 0.043206 0.547075 -0.057105
v 0.022632 0.566277 -0.094824
v -0.022632 0.566277 -0.094824
v -0.043206 0.566277 -0.057105
v -0.022632 0.566277 -0.020071
v 0.022632 0.566277 -0.020071
v 0.043206 0.566277 -0.057105
v 0.016459 0.582737 -0.084537
v -0.016459 0.582737 -0.084537
v -0.031547 0.582737 -0.057105
v -0.016459 0.582737 -0.030358
v 0.016459 0.582737 -0.030358
v 0.031547 0.582737 -0.057105
v 0.033000 0.028000 -0.111000
v -0.033000 0.028000 -0.111000
v -0.063000 0.028000 -0.057000
v -0.033000 0.028000 -0.004000
v 0.033000 0.028000 -0.004000
v 0.063000 0.028000 -0.057000
v 0.033000 0.000000 -0.111000
v -0.033000 0.000000 -0.111000
v -0.063000 0.000000 -0.057000
v -0.033000 0.000000 -0.004000
v 0.033000 0.000000 -0.004000
v 0.063000 0.000000 -0.057000
vn -1.0000 -0.0000 -0.0000
vn -0.0000 -0.0000 -1.0000
vn 1.0000 -0.0000 -0.0000
vn -0.0000 -0.0000 1.0000
vn -0.0000 -1.0000 -0.0000
vn -0.0000 1.0000 -0.0000
vn -0.8697 -0.0000 0.4936
vn 0.8752 -0.0000 -0.4837
vn -0.8752 -0.0000 -0.4837
vn 0.8697 -0.0000 0.4936
vn 0.8765 -0.0128 -0.4812
vn -0.0000 0.0026 1.0000
vn -0.8765 -0.0128 -0.4812
vn 0.8719 -0.0118 0.4896
vn -0.8719 -0.0118 0.4896
vn -0.0000 0.0064 -1.0000
vn -0.8779 -0.0000 -0.4789
vn 0.8742 -0.0000 0.4856
vn -0.8742 -0.0000 0.4856
vn 0.8779 -0.0000 -0.4789
vn -0.7401 0.5302 0.4138
vn -0.0000 0.5300 -0.8480
vn 0.7438 0.5301 -0.4071
vn -0.0000 0.5300 0.8480
vn -0.7438 0.5301 -0.4071
vn 0.7401 0.5302 0.4138
vn 0.5476 0.7797 -0.3036
vn -0.0000 0.7526 0.6585
vn -0.5476 0.7797 -0.3036
vn 0.5448 0.7796 0.3087
vn -0.5448 0.7796 0.3087
vn -0.0000 0.7526 -0.6585
vn -0.8742 -0.0000 -0.4856
vn 0.8703 -0.0000 0.4926
vn -0.8703 -0.0000 0.4926
vn 0.8742 -0.0000 -0.4856
vt 0.565105 0.519570
vt 0.565105 0.542902
vt 0.562634 0.542902
vt 0.562634 0.519570
vt 0.624934 0.542902
vt 0.624934 0.519570
vt 0.622012 0.519570
vt 0.622012 0.542902
vt 0.562634 0.542822
vt 0.624934 0.542822
vt 0.624943 0.539125
vt 0.562642 0.539125
vt 0.591815 0.511351
vt 0.591815 0.504583
vt 0.590106 0.504583
vt 0.590106 0.511351
vt 0.591815 0.511351
vt 0.595478 0.504583
vt 0.595478 0.511351
vt 0.597187 0.504583
vt 0.597187 0.511351
vt 0.597187 0.511352
vt 0.597187 0.504570
vt 0.595478 0.504570
vt 0.595478 0.511352
vt 0.590106 0.511352
vt 0.590106 0.504570
vt 0.591815 0.504570
vt 0.591815 0.511352
vt 0.591815 0.504570
vt 0.591815 0.511352
vt 0.591815 0.504024
vt 0.591815 0.517944
vt 0.590106 0.517944
vt 0.590106 0.504024
vt 0.591815 0.517944
vt 0.595478 0.517944
vt 0.595478 0.504024
vt 0.597187 0.517944
vt 0.597187 0.504024
vt 0.595295 0.544433
vt 0.596000 0.546367
vt 0.598100 0.546367
vt 0.596737 0.544433
vt 0.591501 0.546367
vt 0.592206 0.544433
vt 0.590764 0.544433
vt 0.589401 0.546367
vt 0.596000 0.549267
vt 0.591501 0.549267
vt 0.589401 0.549267
vt 0.594882 0.549267
vt 0.594882 0.546367
vt 0.598100 0.549267
vt 0.591671 0.549267
vt 0.591671 0.546367
vt 0.594959 0.546367
vt 0.594959 0.549267
vt 0.593465 0.546367
vt 0.593465 0.549267
vt 0.594959 0.551761
vt 0.590581 0.551761
vt 0.592111 0.551761
vt 0.595390 0.551761
vt 0.593465 0.551761
vt 0.596920 0.551761
vt 0.594882 0.551761
vt 0.591671 0.551761
vt 0.592111 0.551964
vt 0.590581 0.548302
vt 0.592111 0.544373
vt 0.595390 0.544373
vt 0.596920 0.548302
vt 0.595390 0.551964
vt 0.597031 0.501695
vt 0.598569 0.504837
vt 0.593724 0.504837
vt 0.593724 0.501695
vt 0.592032 0.501695
vt 0.591186 0.504837
vt 0.596262 0.504837
vt 0.595416 0.501695
vt 0.588879 0.504837
vt 0.590417 0.501695
vt 0.591186 0.501489
vt 0.596262 0.501489
vt 0.593724 0.501489
vt 0.588879 0.501489
vt 0.598569 0.501489
s 0
usemtl regular
f 1/1/1 2/2/1 4/3/1 3/4/1
f 3/4/2 4/3/2 8/5/2 7/6/2
f 7/7/3 8/8/3 6/5/3 5/6/3
f 5/6/4 6/5/4 2/3/4 1/4/4
f 3/9/5 7/10/5 5/11/5 1/12/5
f 8/11/6 4/12/6 2/9/6 6/10/6
f 36/13/7 18/14/7 17/15/7 33/16/7
f 37/17/2 16/14/2 15/18/2 34/19/2
f 34/19/8 15/18/8 20/20/8 35/21/8
f 38/19/4 19/18/4 18/14/4 36/13/4
f 33/16/9 17/15/9 16/14/9 37/17/9
f 35/21/10 20/20/10 19/18/10 38/19/10
f 32/22/10 25/23/10 26/24/10 29/25/10
f 30/26/9 21/27/9 24/28/9 28/29/9
f 29/25/4 26/24/4 22/30/4 27/31/4
f 31/25/8 23/24/8 25/23/8 32/22/8
f 28/29/2 24/28/2 23/24/2 31/25/2
f 27/31/7 22/30/7 21/27/7 30/26/7
f 12/32/7 27/33/7 30/34/7 11/35/7
f 10/32/2 28/36/2 31/37/2 9/38/2
f 9/38/8 31/37/8 32/39/8 14/40/8
f 13/38/4 29/37/4 27/33/4 12/32/4
f 11/35/9 30/34/9 28/36/9 10/32/9
f 14/40/10 32/39/10 29/37/10 13/38/10
f 25/23/10 35/21/10 38/19/10 26/24/10
f 21/27/9 33/16/9 37/17/9 24/28/9
f 26/24/4 38/19/4 36/13/4 22/30/4
f 23/24/8 34/19/8 35/21/8 25/23/8
f 24/28/2 37/17/2 34/19/2 23/24/2
f 22/30/7 36/13/7 33/16/7 21/27/7
f 15/41/11 39/42/11 44/43/11 20/44/11
f 19/41/12 43/42/12 42/45/12 18/46/12
f 17/47/13 41/48/13 40/45/13 16/46/13
f 20/44/14 44/43/14 43/42/14 19/41/14
f 18/46/15 42/45/15 41/48/15 17/47/15
f 16/46/16 40/45/16 39/42/16 15/41/16
f 43/42/4 49/49/4 48/50/4 42/45/4
f 41/48/17 47/51/17 46/52/17 40/53/17
f 44/43/18 50/54/18 49/55/18 43/56/18
f 42/57/19 48/58/19 47/51/19 41/48/19
f 40/45/2 46/50/2 45/49/2 39/42/2
f 39/59/20 45/60/20 50/54/20 44/43/20
f 48/58/21 54/61/21 53/62/21 47/51/21
f 46/50/22 52/63/22 51/64/22 45/49/22
f 45/60/23 51/65/23 56/66/23 50/54/23
f 49/49/24 55/64/24 54/63/24 48/50/24
f 47/51/25 53/62/25 52/67/25 46/52/25
f 50/54/26 56/66/26 55/68/26 49/55/26
f 52/69/6 53/70/6 54/71/6 55/72/6 56/73/6 51/74/6
f 14/75/27 62/76/27 57/77/27 9/78/27
f 12/79/28 60/80/28 61/81/28 13/82/28
f 10/78/29 58/77/29 59/83/29 11/84/29
f 13/78/30 61/77/30 62/76/30 14/75/30
f 11/84/31 59/83/31 60/77/31 12/78/31
f 9/82/32 57/81/32 58/80/32 10/79/32
f 60/80/4 66/85/4 67/86/4 61/81/4
f 58/77/33 64/87/33 65/88/33 59/83/33
f 61/77/34 67/87/34 68/89/34 62/76/34
f 59/83/35 65/88/35 66/87/35 60/77/35
f 57/81/2 63/86/2 64/85/2 58/80/2
f 62/76/36 68/89/36 63/87/36 57/77/36
