# Blender 3.6.5
# www.blender.org
mtllib Poly_SF_Outside_B_Street_Light_02_Lamp.mtl
o Cube.004
v -0.019000 2.710000 -0.009000
v 0.000000 2.710000 0.022000
v 0.019000 2.710000 -0.009000
v 0.000000 2.710000 -0.022000
v -0.019000 2.710000 0.009000
v 0.019000 2.710000 0.009000
v 0.054000 2.752000 0.032000
v -0.054000 2.752000 0.032000
v 0.000000 2.752000 -0.060000
v 0.000000 2.752000 0.060000
v -0.054000 2.752000 -0.032000
v 0.054000 2.752000 -0.032000
v 0.055000 2.796000 0.032000
v -0.055000 2.796000 0.032000
v 0.000000 2.796000 -0.061000
v 0.000000 2.796000 0.061000
v -0.055000 2.796000 -0.032000
v 0.055000 2.796000 -0.032000
v 0.032000 2.836000 0.019000
v -0.032000 2.836000 0.019000
v 0.000000 2.836000 -0.035000
v 0.000000 2.836000 0.035000
v -0.032000 2.836000 -0.019000
v 0.032000 2.836000 -0.019000
v -0.019000 2.600000 -0.009000
v 0.000000 2.600000 0.022000
v 0.019000 2.600000 -0.009000
v 0.000000 2.600000 -0.022000
v -0.019000 2.600000 0.009000
v 0.019000 2.600000 0.009000
v -0.317000 2.093000 -0.008000
v -0.330000 2.093000 0.017000
v -0.343000 2.093000 -0.008000
v -0.330000 2.093000 -0.017000
v -0.317000 2.093000 0.008000
v -0.343000 2.093000 0.008000
v -0.363000 2.068000 0.019000
v -0.297000 2.068000 0.019000
v -0.330000 2.068000 -0.037000
v -0.330000 2.068000 0.037000
v -0.297000 2.068000 -0.019000
v -0.363000 2.068000 -0.019000
v -0.369000 2.052000 0.022000
v -0.291000 2.052000 0.022000
v -0.330000 2.052000 -0.044000
v -0.330000 2.052000 0.044000
v -0.291000 2.052000 -0.022000
v -0.369000 2.052000 -0.022000
v -0.369000 2.034000 0.022000
v -0.291000 2.034000 0.022000
v -0.330000 2.034000 -0.044000
v -0.330000 2.034000 0.044000
v -0.291000 2.034000 -0.022000
v -0.369000 2.034000 -0.022000
v -0.347000 2.017000 0.011000
v -0.313000 2.017000 0.011000
v -0.330000 2.017000 -0.022000
v -0.330000 2.017000 0.022000
v -0.313000 2.017000 -0.011000
v -0.347000 2.017000 -0.011000
v 0.344000 1.869000 -0.009000
v 0.330000 1.869000 0.018000
v 0.316000 1.869000 -0.009000
v 0.330000 1.869000 -0.018000
v 0.344000 1.869000 0.009000
v 0.316000 1.869000 0.009000
v 0.295000 1.841000 0.020000
v 0.365000 1.841000 0.020000
v 0.330000 1.841000 -0.040000
v 0.330000 1.841000 0.040000
v 0.365000 1.841000 -0.020000
v 0.295000 1.841000 -0.020000
v 0.288000 1.824000 0.024000
v 0.372000 1.824000 0.024000
v 0.330000 1.824000 -0.048000
v 0.330000 1.824000 0.048000
v 0.372000 1.824000 -0.024000
v 0.288000 1.824000 -0.024000
v 0.288000 1.804000 0.024000
v 0.372000 1.804000 0.024000
v 0.330000 1.804000 -0.048000
v 0.330000 1.804000 0.048000
v 0.372000 1.804000 -0.024000
v 0.288000 1.804000 -0.024000
v 0.312000 1.787000 0.012000
v 0.348000 1.787000 0.012000
v 0.330000 1.787000 -0.024000
v 0.330000 1.787000 0.024000
v 0.348000 1.787000 -0.012000
v 0.312000 1.787000 -0.012000
v -0.317000 2.160000 -0.008000
v -0.330000 2.160000 0.017000
v -0.343000 2.160000 -0.008000
v -0.330000 2.160000 -0.017000
v -0.317000 2.160000 0.008000
v -0.343000 2.160000 0.008000
v 0.344000 1.934000 -0.009000
v 0.330000 1.934000 0.018000
v 0.316000 1.934000 -0.009000
v 0.330000 1.934000 -0.018000
v 0.344000 1.934000 0.009000
v 0.316000 1.934000 0.009000
vn -0.7682 -0.6402 -0.0000
vn 0.3755 -0.6419 0.6685
vn 0.3755 -0.6419 -0.6685
vn -0.3755 -0.6419 -0.6685
vn -0.3755 -0.6419 0.6685
vn 0.7682 -0.6402 -0.0000
vn -0.9997 -0.0227 -0.0000
vn 0.4633 -0.0153 0.8860
vn 0.4633 -0.0153 -0.8860
vn -0.4633 -0.0153 -0.8860
vn -0.4633 -0.0153 0.8860
vn 0.9997 -0.0227 -0.0000
vn -0.8669 0.4985 -0.0000
vn 0.4000 0.4920 0.7733
vn 0.4000 0.4920 -0.7733
vn -0.4000 0.4920 -0.7733
vn -0.4000 0.4920 0.7733
vn 0.8669 0.4985 -0.0000
vn -1.0000 -0.0000 -0.0000
vn 1.0000 -0.0000 -0.0000
vn -0.5647 -0.0000 0.8253
vn 0.5647 -0.0000 -0.8253
vn -0.5647 -0.0000 -0.8253
vn 0.5647 -0.0000 0.8253
vn 0.7809 0.6247 -0.0000
vn -0.4075 0.5934 0.6942
vn -0.4075 0.5934 -0.6942
vn 0.4075 0.5934 -0.6942
vn 0.4075 0.5934 0.6942
vn -0.7809 0.6247 -0.0000
vn 0.9363 0.3511 -0.0000
vn -0.4563 0.3422 0.8214
vn -0.4563 0.3422 -0.8214
vn 0.4563 0.3422 -0.8214
vn 0.4563 0.3422 0.8214
vn -0.9363 0.3511 -0.0000
vn -0.4913 -0.0000 0.8710
vn -0.4913 -0.0000 -0.8710
vn 0.4913 -0.0000 -0.8710
vn 0.4913 -0.0000 0.8710
vn -0.6114 -0.7913 -0.0000
vn 0.3307 -0.7587 -0.5612
vn -0.3307 -0.7587 0.5612
vn 0.3307 -0.7587 0.5612
vn -0.3307 -0.7587 -0.5612
vn 0.6114 -0.7913 -0.0000
vn -0.5692 -0.0000 -0.8222
vn -0.0000 -1.0000 -0.0000
vn 0.8000 0.6000 -0.0000
vn 0.4176 0.5724 0.7056
vn -0.4176 0.5724 -0.7056
vn 0.4176 0.5724 -0.7056
vn 0.9247 0.3807 -0.0000
vn -0.4176 0.5724 0.7056
vn -0.8000 0.6000 -0.0000
vn -0.9247 0.3807 -0.0000
vn 0.4593 0.3782 -0.8037
vn -0.4593 0.3782 0.8037
vn -0.4593 0.3782 -0.8037
vn 0.4593 0.3782 0.8037
vn 0.4961 -0.0000 -0.8682
vn -0.4961 -0.0000 0.8682
vn -0.4961 -0.0000 -0.8682
vn -0.5780 -0.8160 -0.0000
vn 0.4961 -0.0000 0.8682
vn -0.3181 -0.7859 0.5302
vn -0.3181 -0.7859 -0.5302
vn 0.5780 -0.8160 -0.0000
vn 0.3181 -0.7859 -0.5302
vn 0.3181 -0.7859 0.5302
vn -0.5408 -0.0000 -0.8412
vn -0.0000 1.0000 -0.0000
vn 0.5692 -0.0000 -0.8222
vn -0.5692 -0.0000 0.8222
vn 0.5692 -0.0000 0.8222
vn -0.5408 -0.0000 0.8412
vn 0.5408 -0.0000 0.8412
vn 0.5408 -0.0000 -0.8412
vt 0.453563 0.406780
s 0
usemtl regular
f 5/1/1 8/1/1 11/1/1 1/1/1
f 6/1/2 7/1/2 10/1/2 2/1/2
f 4/1/3 9/1/3 12/1/3 3/1/3
f 1/1/4 11/1/4 9/1/4 4/1/4
f 2/1/5 10/1/5 8/1/5 5/1/5
f 3/1/6 12/1/6 7/1/6 6/1/6
f 8/1/7 14/1/7 17/1/7 11/1/7
f 7/1/8 13/1/8 16/1/8 10/1/8
f 9/1/9 15/1/9 18/1/9 12/1/9
f 11/1/10 17/1/10 15/1/10 9/1/10
f 10/1/11 16/1/11 14/1/11 8/1/11
f 12/1/12 18/1/12 13/1/12 7/1/12
f 14/1/13 20/1/13 23/1/13 17/1/13
f 13/1/14 19/1/14 22/1/14 16/1/14
f 15/1/15 21/1/15 24/1/15 18/1/15
f 17/1/16 23/1/16 21/1/16 15/1/16
f 16/1/17 22/1/17 20/1/17 14/1/17
f 18/1/18 24/1/18 19/1/18 13/1/18
f 5/1/19 1/1/19 25/1/19 29/1/19
f 3/1/20 6/1/20 30/1/20 27/1/20
f 2/1/21 5/1/21 29/1/21 26/1/21
f 4/1/22 3/1/22 27/1/22 28/1/22
f 1/1/23 4/1/23 28/1/23 25/1/23
f 6/1/24 2/1/24 26/1/24 30/1/24
f 35/1/25 38/1/25 41/1/25 31/1/25
f 36/1/26 37/1/26 40/1/26 32/1/26
f 34/1/27 39/1/27 42/1/27 33/1/27
f 31/1/28 41/1/28 39/1/28 34/1/28
f 32/1/29 40/1/29 38/1/29 35/1/29
f 33/1/30 42/1/30 37/1/30 36/1/30
f 38/1/31 44/1/31 47/1/31 41/1/31
f 37/1/32 43/1/32 46/1/32 40/1/32
f 39/1/33 45/1/33 48/1/33 42/1/33
f 41/1/34 47/1/34 45/1/34 39/1/34
f 40/1/35 46/1/35 44/1/35 38/1/35
f 42/1/36 48/1/36 43/1/36 37/1/36
f 44/1/20 50/1/20 53/1/20 47/1/20
f 43/1/37 49/1/37 52/1/37 46/1/37
f 45/1/38 51/1/38 54/1/38 48/1/38
f 47/1/39 53/1/39 51/1/39 45/1/39
f 46/1/40 52/1/40 50/1/40 44/1/40
f 48/1/19 54/1/19 49/1/19 43/1/19
f 49/1/41 54/1/41 60/1/41 55/1/41
f 51/1/42 53/1/42 59/1/42 57/1/42
f 52/1/43 49/1/43 55/1/43 58/1/43
f 50/1/44 52/1/44 58/1/44 56/1/44
f 54/1/45 51/1/45 57/1/45 60/1/45
f 53/1/46 50/1/46 56/1/46 59/1/46
f 34/1/47 33/1/47 93/1/47 94/1/47
f 59/1/48 56/1/48 58/1/48 55/1/48 60/1/48 57/1/48
f 65/1/49 68/1/49 71/1/49 61/1/49
f 89/1/48 86/1/48 88/1/48 85/1/48 90/1/48 87/1/48
f 62/1/50 70/1/50 68/1/50 65/1/50
f 64/1/51 69/1/51 72/1/51 63/1/51
f 61/1/52 71/1/52 69/1/52 64/1/52
f 68/1/53 74/1/53 77/1/53 71/1/53
f 66/1/54 67/1/54 70/1/54 62/1/54
f 63/1/55 72/1/55 67/1/55 66/1/55
f 72/1/56 78/1/56 73/1/56 67/1/56
f 71/1/57 77/1/57 75/1/57 69/1/57
f 67/1/58 73/1/58 76/1/58 70/1/58
f 69/1/59 75/1/59 78/1/59 72/1/59
f 74/1/20 80/1/20 83/1/20 77/1/20
f 70/1/60 76/1/60 74/1/60 68/1/60
f 78/1/19 84/1/19 79/1/19 73/1/19
f 77/1/61 83/1/61 81/1/61 75/1/61
f 73/1/62 79/1/62 82/1/62 76/1/62
f 75/1/63 81/1/63 84/1/63 78/1/63
f 79/1/64 84/1/64 90/1/64 85/1/64
f 76/1/65 82/1/65 80/1/65 74/1/65
f 82/1/66 79/1/66 85/1/66 88/1/66
f 84/1/67 81/1/67 87/1/67 90/1/67
f 83/1/68 80/1/68 86/1/68 89/1/68
f 81/1/69 83/1/69 89/1/69 87/1/69
f 80/1/70 82/1/70 88/1/70 86/1/70
f 64/1/71 63/1/71 99/1/71 100/1/71
f 93/1/72 96/1/72 92/1/72 95/1/72 91/1/72 94/1/72
f 31/1/73 34/1/73 94/1/73 91/1/73
f 36/1/74 32/1/74 92/1/74 96/1/74
f 35/1/20 31/1/20 91/1/20 95/1/20
f 33/1/19 36/1/19 96/1/19 93/1/19
f 32/1/75 35/1/75 95/1/75 92/1/75
f 99/1/72 102/1/72 98/1/72 101/1/72 97/1/72 100/1/72
f 65/1/20 61/1/20 97/1/20 101/1/20
f 66/1/76 62/1/76 98/1/76 102/1/76
f 62/1/77 65/1/77 101/1/77 98/1/77
f 61/1/78 64/1/78 100/1/78 97/1/78
f 63/1/19 66/1/19 102/1/19 99/1/19
o Cube.002
v -0.060000 2.600000 -0.030000
v 0.000000 2.600000 0.070000
v 0.060000 2.600000 -0.030000
v 0.000000 2.600000 -0.070000
v -0.060000 2.600000 0.030000
v 0.060000 2.600000 0.030000
v 0.170000 2.734683 0.100000
v -0.170000 2.734683 0.100000
v 0.000000 2.734683 -0.190000
v 0.000000 2.734683 0.190000
v -0.170000 2.734683 -0.100000
v 0.170000 2.734683 -0.100000
v 0.195675 2.874683 0.115103
v -0.195675 2.874683 0.115103
v 0.000000 2.874683 -0.218695
v 0.000000 2.874683 0.218695
v -0.195675 2.874683 -0.115103
v 0.195675 2.874683 -0.115103
v 0.170000 3.000000 0.100000
v -0.170000 3.000000 0.100000
v 0.000000 3.000000 -0.190000
v 0.000000 3.000000 0.190000
v -0.170000 3.000000 -0.100000
v 0.170000 3.000000 -0.100000
v -0.368947 1.929067 -0.025965
v -0.330000 1.929067 0.051929
v -0.291053 1.929067 -0.025965
v -0.330000 1.929067 -0.051929
v -0.368947 1.929067 0.025965
v -0.291053 1.929067 0.025965
v -0.229503 2.007173 0.057427
v -0.430497 2.007173 0.057427
v -0.330000 2.007173 -0.114854
v -0.330000 2.007173 0.114854
v -0.430497 2.007173 -0.057427
v -0.229503 2.007173 -0.057427
v -0.210865 2.054969 0.068077
v -0.449135 2.054969 0.068077
v -0.330000 2.054969 -0.136154
v -0.330000 2.054969 0.136154
v -0.449135 2.054969 -0.068077
v -0.210865 2.054969 -0.068077
v -0.210865 2.111631 0.068077
v -0.449135 2.111631 0.068077
v -0.330000 2.111631 -0.136154
v -0.330000 2.111631 0.136154
v -0.449135 2.111631 -0.068077
v -0.210865 2.111631 -0.068077
v -0.278942 2.161603 0.034039
v -0.381058 2.161603 0.034039
v -0.330000 2.161603 -0.068077
v -0.330000 2.161603 0.068077
v -0.381058 2.161603 -0.034039
v -0.278942 2.161603 -0.034039
v 0.356139 1.933876 -0.034039
v 0.254023 1.933876 -0.034039
v 0.305081 1.933876 0.068077
v 0.305081 1.933876 -0.068077
v 0.254023 1.933876 0.034039
v 0.356139 1.933876 0.034039
v 0.424216 1.883904 -0.068077
v 0.185946 1.883904 -0.068077
v 0.305081 1.883904 0.136154
v 0.305081 1.883904 -0.136154
v 0.185946 1.883904 0.068077
v 0.424216 1.883904 0.068077
v 0.424216 1.827242 -0.068077
v 0.185946 1.827242 -0.068077
v 0.305081 1.827242 0.136154
v 0.305081 1.827242 -0.136154
v 0.185946 1.827242 0.068077
v 0.424216 1.827242 0.068077
v 0.405578 1.779445 -0.057427
v 0.204584 1.779445 -0.057427
v 0.305081 1.779445 0.114854
v 0.305081 1.779445 -0.114854
v 0.204584 1.779445 0.057427
v 0.405578 1.779445 0.057427
v 0.344028 1.701339 0.025965
v 0.266134 1.701339 0.025965
v 0.305081 1.701339 -0.051929
v 0.344028 1.701339 -0.025965
v 0.305081 1.701339 0.051929
v 0.266134 1.701339 -0.025965
vn -0.7745 -0.6326 -0.0000
vn 0.3814 -0.6318 0.6748
vn 0.3814 -0.6318 -0.6748
vn -0.3814 -0.6318 -0.6748
vn -0.3814 -0.6318 0.6748
vn 0.7745 -0.6326 -0.0000
vn -0.9836 -0.1804 -0.0000
vn 0.4604 -0.1782 0.8696
vn 0.4604 -0.1782 -0.8696
vn -0.4604 -0.1782 -0.8696
vn -0.4604 -0.1782 0.8696
vn 0.9836 -0.1804 -0.0000
vn -0.9797 0.2007 -0.0000
vn 0.4586 0.1983 0.8662
vn 0.4586 0.1983 -0.8662
vn -0.4586 0.1983 -0.8662
vn -0.4586 0.1983 0.8662
vn 0.9797 0.2007 -0.0000
vn -0.7854 -0.6189 -0.0000
vn 0.4164 -0.5847 0.6962
vn 0.4164 -0.5847 -0.6962
vn -0.4164 -0.5847 -0.6962
vn -0.4164 -0.5847 0.6962
vn 0.7854 -0.6189 -0.0000
vn -0.9317 -0.3633 -0.0000
vn 0.4627 -0.3609 0.8097
vn 0.4627 -0.3609 -0.8097
vn -0.4627 -0.3609 -0.8097
vn -0.4627 -0.3609 0.8097
vn 0.9317 -0.3633 -0.0000
vn -1.0000 -0.0000 -0.0000
vn 0.4961 -0.0000 0.8682
vn 0.4961 -0.0000 -0.8682
vn -0.4961 -0.0000 -0.8682
vn -0.4961 -0.0000 0.8682
vn 1.0000 -0.0000 -0.0000
vn 0.5917 0.8061 -0.0000
vn -0.3251 0.7751 -0.5418
vn 0.3251 0.7751 0.5418
vn -0.3251 0.7751 0.5418
vn 0.3251 0.7751 -0.5418
vn -0.5917 0.8061 -0.0000
vn -0.0000 -1.0000 -0.0000
vn -0.0000 1.0000 -0.0000
vt 0.398640 0.348148
s 0
usemtl transparent.001
f 107/2/79 110/2/79 113/2/79 103/2/79
f 108/2/80 109/2/80 112/2/80 104/2/80
f 106/2/81 111/2/81 114/2/81 105/2/81
f 103/2/82 113/2/82 111/2/82 106/2/82
f 104/2/83 112/2/83 110/2/83 107/2/83
f 105/2/84 114/2/84 109/2/84 108/2/84
f 110/2/85 116/2/85 119/2/85 113/2/85
f 109/2/86 115/2/86 118/2/86 112/2/86
f 111/2/87 117/2/87 120/2/87 114/2/87
f 113/2/88 119/2/88 117/2/88 111/2/88
f 112/2/89 118/2/89 116/2/89 110/2/89
f 114/2/90 120/2/90 115/2/90 109/2/90
f 116/2/91 122/2/91 125/2/91 119/2/91
f 115/2/92 121/2/92 124/2/92 118/2/92
f 117/2/93 123/2/93 126/2/93 120/2/93
f 119/2/94 125/2/94 123/2/94 117/2/94
f 118/2/95 124/2/95 122/2/95 116/2/95
f 120/2/96 126/2/96 121/2/96 115/2/96
f 131/2/97 134/2/97 137/2/97 127/2/97
f 132/2/98 133/2/98 136/2/98 128/2/98
f 130/2/99 135/2/99 138/2/99 129/2/99
f 127/2/100 137/2/100 135/2/100 130/2/100
f 128/2/101 136/2/101 134/2/101 131/2/101
f 129/2/102 138/2/102 133/2/102 132/2/102
f 134/2/103 140/2/103 143/2/103 137/2/103
f 133/2/104 139/2/104 142/2/104 136/2/104
f 135/2/105 141/2/105 144/2/105 138/2/105
f 137/2/106 143/2/106 141/2/106 135/2/106
f 136/2/107 142/2/107 140/2/107 134/2/107
f 138/2/108 144/2/108 139/2/108 133/2/108
f 140/2/109 146/2/109 149/2/109 143/2/109
f 139/2/110 145/2/110 148/2/110 142/2/110
f 141/2/111 147/2/111 150/2/111 144/2/111
f 143/2/112 149/2/112 147/2/112 141/2/112
f 142/2/113 148/2/113 146/2/113 140/2/113
f 144/2/114 150/2/114 145/2/114 139/2/114
f 145/2/115 150/2/115 156/2/115 151/2/115
f 147/2/116 149/2/116 155/2/116 153/2/116
f 148/2/117 145/2/117 151/2/117 154/2/117
f 146/2/118 148/2/118 154/2/118 152/2/118
f 150/2/119 147/2/119 153/2/119 156/2/119
f 149/2/120 146/2/120 152/2/120 155/2/120
f 129/2/121 132/2/121 128/2/121 131/2/121 127/2/121 130/2/121
f 155/2/122 152/2/122 154/2/122 151/2/122 156/2/122 153/2/122
f 184/2/121 181/2/121 185/2/121 182/2/121 186/2/121 183/2/121
f 167/2/118 165/2/118 159/2/118 161/2/118
f 166/2/116 164/2/116 158/2/116 160/2/116
f 164/2/120 167/2/120 161/2/120 158/2/120
f 163/2/119 166/2/119 160/2/119 157/2/119
f 165/2/117 168/2/117 162/2/117 159/2/117
f 171/2/113 165/2/113 167/2/113 173/2/113
f 168/2/115 163/2/115 157/2/115 162/2/115
f 172/2/111 166/2/111 163/2/111 169/2/111
f 174/2/110 168/2/110 165/2/110 171/2/110
f 170/2/112 164/2/112 166/2/112 172/2/112
f 169/2/114 163/2/114 168/2/114 174/2/114
f 177/2/107 171/2/107 173/2/107 179/2/107
f 173/2/109 167/2/109 164/2/109 170/2/109
f 178/2/105 172/2/105 169/2/105 175/2/105
f 180/2/104 174/2/104 171/2/104 177/2/104
f 176/2/106 170/2/106 172/2/106 178/2/106
f 175/2/108 169/2/108 174/2/108 180/2/108
f 184/2/102 175/2/102 180/2/102 181/2/102
f 181/2/98 180/2/98 177/2/98 185/2/98
f 179/2/103 173/2/103 170/2/103 176/2/103
f 186/2/100 176/2/100 178/2/100 183/2/100
f 183/2/99 178/2/99 175/2/99 184/2/99
f 185/2/101 177/2/101 179/2/101 182/2/101
f 158/2/122 161/2/122 159/2/122 162/2/122 157/2/122 160/2/122
f 182/2/97 179/2/97 176/2/97 186/2/97
