# Blender 3.6.5
# www.blender.org
mtllib Poly_SF_Outside_B_Signboard_02.mtl
o Cube.004
v -0.350000 0.000000 -0.053000
v -0.228000 0.640000 -0.053000
v -0.300000 0.000000 -0.016000
v -0.228000 0.591000 -0.016000
v -0.319000 0.000000 0.043000
v -0.228000 0.610000 0.043000
v -0.381000 0.000000 0.043000
v -0.228000 0.670000 0.043000
v -0.400000 0.000000 -0.016000
v -0.228000 0.688000 -0.016000
v -0.350000 0.577127 -0.053000
v -0.300000 0.577127 -0.016000
v -0.319000 0.577127 0.043000
v -0.381000 0.577127 0.043000
v -0.400000 0.577127 -0.016000
v -0.298519 0.632503 -0.053000
v -0.280841 0.589826 -0.016000
v -0.287559 0.606043 0.043000
v -0.309479 0.658963 0.043000
v -0.316197 0.675181 -0.016000
v -0.228342 0.230243 -0.034343
v -0.228342 0.229842 0.024549
v -0.228342 0.285791 0.042987
v -0.228342 0.320482 -0.004604
v -0.228342 0.286366 -0.052862
v -0.338669 0.230243 -0.034343
v -0.338669 0.229842 0.024549
v -0.338669 0.285791 0.042987
v -0.338669 0.320482 -0.004603
v -0.338669 0.286366 -0.052862
v -0.246000 0.640000 -0.053000
v -0.246000 0.591000 -0.016000
v -0.246000 0.610000 0.043000
v -0.246000 0.670000 0.043000
v -0.246000 0.688000 -0.016000
v -0.237000 0.640023 -0.059237
v -0.237000 0.585279 -0.017899
v -0.237000 0.606506 0.048018
v -0.237000 0.673541 0.048018
v -0.237000 0.693651 -0.017899
v -0.252515 0.286366 -0.052862
v -0.252515 0.230243 -0.034343
v -0.252514 0.229842 0.024549
v -0.252514 0.285791 0.042987
v -0.252514 0.320482 -0.004604
v -0.240428 0.288161 -0.058307
v -0.240428 0.225672 -0.037687
v -0.240428 0.225226 0.027884
v -0.240428 0.287520 0.048414
v -0.240428 0.326147 -0.004575
v 0.350000 0.000000 -0.053000
v 0.228000 0.640000 -0.053000
v 0.300000 0.000000 -0.016000
v 0.228000 0.591000 -0.016000
v 0.319000 0.000000 0.043000
v 0.228000 0.610000 0.043000
v 0.381000 0.000000 0.043000
v 0.228000 0.670000 0.043000
v 0.400000 0.000000 -0.016000
v 0.228000 0.688000 -0.016000
v 0.350000 0.577127 -0.053000
v 0.300000 0.577127 -0.016000
v 0.319000 0.577127 0.043000
v 0.381000 0.577127 0.043000
v 0.400000 0.577127 -0.016000
v 0.298519 0.632503 -0.053000
v 0.280841 0.589826 -0.016000
v 0.287559 0.606043 0.043000
v 0.309479 0.658963 0.043000
v 0.316197 0.675181 -0.016000
v 0.228342 0.230243 -0.034343
v 0.228342 0.229842 0.024549
v 0.228342 0.285791 0.042987
v 0.228342 0.320482 -0.004604
v 0.228342 0.286366 -0.052862
v 0.338669 0.230243 -0.034343
v 0.338669 0.229842 0.024549
v 0.338669 0.285791 0.042987
v 0.338669 0.320482 -0.004603
v 0.338669 0.286366 -0.052862
v 0.246000 0.640000 -0.053000
v 0.246000 0.591000 -0.016000
v 0.246000 0.610000 0.043000
v 0.246000 0.670000 0.043000
v 0.246000 0.688000 -0.016000
v 0.237000 0.640023 -0.059237
v 0.237000 0.585279 -0.017899
v 0.237000 0.606506 0.048018
v 0.237000 0.673541 0.048018
v 0.237000 0.693651 -0.017899
v 0.252515 0.286366 -0.052862
v 0.252515 0.230243 -0.034343
v 0.252514 0.229842 0.024549
v 0.252514 0.285791 0.042987
v 0.252514 0.320482 -0.004604
v 0.240428 0.288161 -0.058307
v 0.240428 0.225672 -0.037687
v 0.240428 0.225226 0.027884
v 0.240428 0.287520 0.048414
v 0.240428 0.326147 -0.004575
vn 0.4829 -0.5277 -0.6988
vn 0.4754 -0.8374 0.2697
vn 0.4870 -0.0000 0.8734
vn 1.0000 -0.0000 -0.0000
vn 0.4745 0.8420 0.2569
vn 0.4822 0.5348 -0.6938
vn -0.0000 -1.0000 -0.0000
vn -0.5948 -0.0000 -0.8038
vn -0.5128 0.4522 -0.7298
vn -0.7335 0.6333 0.2469
vn -0.0000 -0.0000 1.0000
vn 0.6170 -0.7502 0.2376
vn 0.4786 -0.4966 -0.7241
vn -0.9519 -0.0000 0.3065
vn 0.9519 -0.0000 0.3065
vn 0.5948 -0.0000 -0.8038
vn 0.3563 -0.2928 -0.8873
vn 0.3553 -0.9347 -0.0064
vn 0.3566 -0.2924 0.8873
vn 0.3553 0.7554 0.5506
vn 0.3563 0.7630 -0.5394
vn -0.1021 0.6169 -0.7804
vn -0.1685 0.9441 0.2834
vn 0.0642 -0.9553 0.2888
vn 0.0615 -0.6197 -0.7824
vn -0.4822 0.5348 -0.6938
vn -0.4745 0.8420 0.2569
vn -0.4870 -0.0000 0.8734
vn -0.4754 -0.8374 0.2697
vn -0.4829 -0.5277 -0.6988
vn -0.0000 0.8166 -0.5773
vn -0.0000 0.8081 0.5891
vn -0.0000 -0.3130 0.9498
vn -0.0000 -1.0000 -0.0068
vn -0.0000 -0.3134 -0.9496
vn -0.3563 0.7630 -0.5394
vn -0.3553 0.7554 0.5506
vn -0.3566 -0.2924 0.8873
vn -0.3553 -0.9347 -0.0064
vn -0.3563 -0.2928 -0.8873
vn -1.0000 -0.0000 -0.0000
vn 0.5128 0.4522 -0.7298
vn 0.7335 0.6333 0.2469
vn -0.6170 -0.7502 0.2376
vn -0.4786 -0.4966 -0.7241
vn 0.1021 0.6169 -0.7804
vn 0.1685 0.9441 0.2834
vn -0.0642 -0.9553 0.2888
vn -0.0615 -0.6197 -0.7824
vt 0.134078 0.111939
vt 0.135165 0.111939
vt 0.135165 0.105514
vt 0.134078 0.105514
vt 0.134078 0.105514
vt 0.131214 0.100544
vt 0.130285 0.101219
vt 0.129356 0.100544
vt 0.129711 0.099452
vt 0.130859 0.099452
vt 0.134078 0.105514
vt 0.130162 0.101404
vt 0.130934 0.100843
vt 0.130639 0.099936
vt 0.129685 0.099936
vt 0.129390 0.100843
vt 0.125270 0.064051
vt 0.125270 0.100562
vt 0.131309 0.100562
vt 0.131309 0.064051
vt 0.125270 0.104887
vt 0.131309 0.104887
vt 0.131309 0.104887
vt 0.131309 0.100562
vt 0.134098 0.111835
vt 0.135325 0.111835
vt 0.135325 0.105796
vt 0.134098 0.105796
vt 0.135325 0.111835
vt 0.135325 0.105796
vt 0.134098 0.105796
vt 0.135325 0.111835
vt 0.135325 0.105796
vt 0.131233 0.100549
vt 0.130284 0.101220
vt 0.129349 0.100538
vt 0.129711 0.099438
vt 0.130869 0.099446
vt 0.125270 0.108113
vt 0.131309 0.108113
vt 0.131309 0.108113
vt 0.125270 0.108113
vt 0.131309 0.108113
vt 0.132992 0.111939
vt 0.132992 0.105514
vt 0.132992 0.105514
vt 0.132992 0.111939
vt 0.132992 0.105514
vt 0.125270 0.077806
vt 0.125270 0.083055
vt 0.131309 0.083055
vt 0.131309 0.077806
vt 0.131309 0.077806
vt 0.131309 0.077806
vt 0.131309 0.083055
vt 0.125270 0.077806
vt 0.125270 0.083055
vt 0.132870 0.111835
vt 0.132870 0.105796
vt 0.132870 0.105796
vt 0.132870 0.111835
s 0
usemtl regular
f 36/1/1 2/2/1 4/3/1 37/4/1
f 37/4/2 4/3/2 6/2/2 38/1/2
f 38/1/3 6/2/3 8/3/3 39/5/3
f 4/6/4 2/7/4 10/8/4 8/9/4 6/10/4
f 39/5/5 8/3/5 10/2/5 40/1/5
f 40/1/6 10/2/6 2/3/6 36/11/6
f 1/12/7 3/13/7 5/14/7 7/15/7 9/16/7
f 9/17/8 15/18/8 11/19/8 1/20/8
f 15/18/9 20/21/9 16/22/9 11/19/9
f 14/19/10 19/23/10 20/21/10 15/18/10
f 13/18/11 18/21/11 19/23/11 14/19/11
f 12/24/12 17/22/12 18/21/12 13/18/12
f 11/18/13 16/21/13 17/22/13 12/24/13
f 7/20/14 14/19/14 15/18/14 9/17/14
f 5/17/11 13/18/11 14/19/11 7/20/11
f 3/20/15 12/24/15 13/18/15 5/17/15
f 11/18/16 12/24/16 3/20/16 1/17/16
f 46/25/17 25/26/17 21/27/17 47/28/17
f 47/28/18 21/27/18 22/29/18 48/25/18
f 48/25/19 22/29/19 23/30/19 49/31/19
f 49/31/20 23/30/20 24/32/20 50/25/20
f 50/25/21 24/32/21 25/33/21 46/31/21
f 25/34/4 24/35/4 23/36/4 22/37/4 21/38/4
f 20/21/22 35/39/22 31/40/22 16/22/22
f 19/23/23 34/41/23 35/39/23 20/21/23
f 18/21/11 33/42/11 34/41/11 19/23/11
f 17/22/24 32/43/24 33/42/24 18/21/24
f 16/21/25 31/42/25 32/43/25 17/22/25
f 35/44/26 40/1/26 36/11/26 31/45/26
f 34/46/27 39/5/27 40/1/27 35/44/27
f 33/47/28 38/1/28 39/5/28 34/46/28
f 32/48/29 37/4/29 38/1/29 33/47/29
f 31/47/30 36/1/30 37/4/30 32/48/30
f 29/49/31 45/50/31 41/51/31 30/52/31
f 28/53/32 44/51/32 45/50/32 29/49/32
f 27/49/33 43/50/33 44/51/33 28/53/33
f 26/54/34 42/55/34 43/50/34 27/49/34
f 30/56/35 41/57/35 42/55/35 26/54/35
f 45/58/36 50/25/36 46/31/36 41/59/36
f 44/59/37 49/31/37 50/25/37 45/58/37
f 43/58/38 48/25/38 49/31/38 44/59/38
f 42/60/39 47/28/39 48/25/39 43/58/39
f 41/61/40 46/25/40 47/28/40 42/60/40
f 86/1/30 87/4/30 54/3/30 52/2/30
f 87/4/29 88/1/29 56/2/29 54/3/29
f 88/1/28 89/5/28 58/3/28 56/2/28
f 54/6/41 56/10/41 58/9/41 60/8/41 52/7/41
f 89/5/27 90/1/27 60/2/27 58/3/27
f 90/1/26 86/11/26 52/3/26 60/2/26
f 51/12/7 59/16/7 57/15/7 55/14/7 53/13/7
f 59/17/16 51/20/16 61/19/16 65/18/16
f 65/18/42 61/19/42 66/22/42 70/21/42
f 64/19/43 65/18/43 70/21/43 69/23/43
f 63/18/11 64/19/11 69/23/11 68/21/11
f 62/24/44 63/18/44 68/21/44 67/22/44
f 61/18/45 62/24/45 67/22/45 66/21/45
f 57/20/15 59/17/15 65/18/15 64/19/15
f 55/17/11 57/20/11 64/19/11 63/18/11
f 53/20/14 55/17/14 63/18/14 62/24/14
f 61/18/8 51/17/8 53/20/8 62/24/8
f 96/25/40 97/28/40 71/27/40 75/26/40
f 97/28/39 98/25/39 72/29/39 71/27/39
f 98/25/38 99/31/38 73/30/38 72/29/38
f 99/31/37 100/25/37 74/32/37 73/30/37
f 100/25/36 96/31/36 75/33/36 74/32/36
f 75/34/41 71/38/41 72/37/41 73/36/41 74/35/41
f 70/21/46 66/22/46 81/40/46 85/39/46
f 69/23/47 70/21/47 85/39/47 84/41/47
f 68/21/11 69/23/11 84/41/11 83/42/11
f 67/22/48 68/21/48 83/42/48 82/43/48
f 66/21/49 67/22/49 82/43/49 81/42/49
f 85/44/6 81/45/6 86/11/6 90/1/6
f 84/46/5 85/44/5 90/1/5 89/5/5
f 83/47/3 84/46/3 89/5/3 88/1/3
f 82/48/2 83/47/2 88/1/2 87/4/2
f 81/47/1 82/48/1 87/4/1 86/1/1
f 79/49/31 80/52/31 91/51/31 95/50/31
f 78/53/32 79/49/32 95/50/32 94/51/32
f 77/49/33 78/53/33 94/51/33 93/50/33
f 76/54/34 77/49/34 93/50/34 92/55/34
f 80/56/35 76/54/35 92/55/35 91/57/35
f 95/58/21 91/59/21 96/31/21 100/25/21
f 94/59/20 95/58/20 100/25/20 99/31/20
f 93/58/19 94/59/19 99/31/19 98/25/19
f 92/60/18 93/58/18 98/25/18 97/28/18
f 91/61/17 92/60/17 97/28/17 96/25/17
o Cube.001
v -0.250000 0.580000 0.010000
v 0.250000 0.580000 0.010000
v -0.250000 0.320000 0.010000
v 0.250000 0.320000 0.010000
v -0.250000 0.580000 -0.010000
v 0.250000 0.580000 -0.010000
v -0.250000 0.320000 -0.010000
v 0.250000 0.320000 -0.010000
v -0.250000 0.450000 0.010000
v 0.250000 0.450000 0.010000
v -0.250000 0.450000 -0.010000
v 0.250000 0.450000 -0.010000
vn -0.0000 -0.0000 1.0000
vn -0.0000 -0.0000 -1.0000
vn -0.0000 -1.0000 -0.0000
vn -0.0000 1.0000 -0.0000
vn 1.0000 -0.0000 -0.0000
vn -1.0000 -0.0000 -0.0000
vt 0.132941 0.094418
vt 0.132941 0.084873
vt 0.179567 0.084873
vt 0.179567 0.094418
vt 0.062861 0.113128
vt 0.062861 0.107044
vt 0.124835 0.107044
vt 0.124835 0.113128
vt 0.093848 0.107044
vt 0.093848 0.113128
vt 0.132941 0.104076
vt 0.179567 0.104076
s 0
usemtl regular
f 109/62/50 103/63/50 104/64/50 110/65/50
f 111/62/51 112/65/51 108/64/51 107/63/51
f 103/66/52 107/67/52 108/68/52 104/69/52
f 102/69/53 106/68/53 105/67/53 101/66/53
f 110/70/54 112/71/54 106/69/54 102/68/54
f 109/70/55 111/71/55 107/66/55 103/67/55
f 101/68/55 105/69/55 111/71/55 109/70/55
f 104/67/54 108/66/54 112/71/54 110/70/54
f 105/72/51 106/73/51 112/65/51 111/62/51
f 101/72/50 109/62/50 110/65/50 102/73/50
o Cube.002
v 0.231746 0.246000 -0.023000
v 0.231746 0.246000 0.013000
v 0.231746 0.280000 0.025000
v 0.231746 0.301000 -0.005000
v 0.231746 0.280000 -0.035000
v -0.229000 0.246000 -0.023000
v -0.229000 0.246000 0.013000
v -0.229000 0.280000 0.025000
v -0.229000 0.301000 -0.005000
v -0.229000 0.280000 -0.035000
v -0.229000 0.650071 -0.035000
v -0.229000 0.671071 -0.005000
v -0.229000 0.650071 0.025000
v -0.229000 0.616071 0.013000
v -0.229000 0.616071 -0.023000
v 0.231746 0.650071 -0.035000
v 0.231746 0.671071 -0.005000
v 0.231746 0.650071 0.025000
v 0.231746 0.616071 0.013000
v 0.231746 0.616071 -0.023000
vn -0.0000 -0.3328 -0.9430
vn -0.0000 -1.0000 -0.0000
vn -0.0000 -0.3328 0.9430
vn -0.0000 0.8192 0.5735
vn -0.0000 0.8192 -0.5735
vn 1.0000 -0.0000 -0.0000
vt 0.138249 0.110528
vt 0.176465 0.110547
vt 0.176482 0.106856
vt 0.138266 0.106856
vt 0.176465 0.110547
vt 0.138249 0.110528
vt 0.176482 0.106856
vt 0.138266 0.106856
s 0
usemtl regular
f 122/74/56 117/75/56 113/76/56 118/77/56
f 118/77/57 113/76/57 114/78/57 119/79/57
f 119/79/58 114/78/58 115/80/58 120/81/58
f 120/81/59 115/80/59 116/75/59 121/79/59
f 121/79/60 116/75/60 117/80/60 122/81/60
f 117/80/61 116/75/61 115/80/61 114/78/61 113/76/61
f 124/79/60 129/75/60 128/80/60 123/81/60
f 125/81/59 130/80/59 129/75/59 124/79/59
f 126/79/58 131/78/58 130/80/58 125/81/58
f 127/77/57 132/76/57 131/78/57 126/79/57
f 123/74/56 128/75/56 132/76/56 127/77/56
f 128/80/61 129/75/61 130/80/61 131/78/61 132/76/61
o Cube.003
v -0.170000 0.619082 0.009000
v -0.150000 0.619082 0.009000
v -0.170000 0.619082 -0.009000
v -0.150000 0.619082 -0.009000
v -0.170000 0.568888 0.009000
v -0.150000 0.568888 0.009000
v -0.170000 0.568888 -0.009000
v -0.150000 0.568888 -0.009000
v -0.170000 0.321316 0.009000
v -0.150000 0.321316 0.009000
v -0.170000 0.321316 -0.009000
v -0.150000 0.321316 -0.009000
v -0.170000 0.285557 0.009000
v -0.150000 0.285557 0.009000
v -0.170000 0.285557 -0.009000
v -0.150000 0.285557 -0.009000
v -0.311000 0.430000 0.009000
v -0.311000 0.460000 0.009000
v -0.311000 0.430000 -0.009000
v -0.311000 0.460000 -0.009000
v -0.240000 0.430000 0.009000
v -0.240000 0.460000 0.009000
v -0.240000 0.430000 -0.009000
v -0.240000 0.460000 -0.009000
v 0.170000 0.619082 0.009000
v 0.150000 0.619082 0.009000
v 0.170000 0.619082 -0.009000
v 0.150000 0.619082 -0.009000
v 0.170000 0.568888 0.009000
v 0.150000 0.568888 0.009000
v 0.170000 0.568888 -0.009000
v 0.150000 0.568888 -0.009000
v 0.170000 0.321316 0.009000
v 0.150000 0.321316 0.009000
v 0.170000 0.321316 -0.009000
v 0.150000 0.321316 -0.009000
v 0.170000 0.285557 0.009000
v 0.150000 0.285557 0.009000
v 0.170000 0.285557 -0.009000
v 0.150000 0.285557 -0.009000
v 0.311000 0.430000 0.009000
v 0.311000 0.460000 0.009000
v 0.311000 0.430000 -0.009000
v 0.311000 0.460000 -0.009000
v 0.240000 0.430000 0.009000
v 0.240000 0.460000 0.009000
v 0.240000 0.430000 -0.009000
v 0.240000 0.460000 -0.009000
vn -0.0000 1.0000 -0.0000
vn -0.0000 -0.0000 -1.0000
vn -0.0000 -1.0000 -0.0000
vn -0.0000 -0.0000 1.0000
vn -1.0000 -0.0000 -0.0000
vn 1.0000 -0.0000 -0.0000
vt 0.137585 0.079519
vt 0.137585 0.083227
vt 0.145467 0.083227
vt 0.145467 0.079519
s 0
usemtl regular
f 133/82/62 134/83/62 136/83/62 135/82/62
f 135/82/63 136/83/63 140/84/63 139/85/63
f 139/85/64 140/84/64 138/84/64 137/85/64
f 137/85/65 138/84/65 134/83/65 133/82/65
f 135/82/66 139/85/66 137/85/66 133/82/66
f 140/84/67 136/83/67 134/83/67 138/84/67
f 141/82/62 142/83/62 144/83/62 143/82/62
f 143/82/63 144/83/63 148/84/63 147/85/63
f 147/85/64 148/84/64 146/84/64 145/85/64
f 145/85/65 146/84/65 142/83/65 141/82/65
f 143/82/66 147/85/66 145/85/66 141/82/66
f 148/84/67 144/83/67 142/83/67 146/84/67
f 149/82/66 150/83/66 152/83/66 151/82/66
f 151/82/63 152/83/63 156/84/63 155/85/63
f 155/85/67 156/84/67 154/84/67 153/85/67
f 153/85/65 154/84/65 150/83/65 149/82/65
f 151/82/64 155/85/64 153/85/64 149/82/64
f 156/84/62 152/83/62 150/83/62 154/84/62
f 157/82/62 159/82/62 160/83/62 158/83/62
f 159/82/63 163/85/63 164/84/63 160/83/63
f 163/85/64 161/85/64 162/84/64 164/84/64
f 161/85/65 157/82/65 158/83/65 162/84/65
f 159/82/67 157/82/67 161/85/67 163/85/67
f 164/84/66 162/84/66 158/83/66 160/83/66
f 165/82/62 167/82/62 168/83/62 166/83/62
f 167/82/63 171/85/63 172/84/63 168/83/63
f 171/85/64 169/85/64 170/84/64 172/84/64
f 169/85/65 165/82/65 166/83/65 170/84/65
f 167/82/67 165/82/67 169/85/67 171/85/67
f 172/84/66 170/84/66 166/83/66 168/83/66
f 173/82/67 175/82/67 176/83/67 174/83/67
f 175/82/63 179/85/63 180/84/63 176/83/63
f 179/85/66 177/85/66 178/84/66 180/84/66
f 177/85/65 173/82/65 174/83/65 178/84/65
f 175/82/64 173/82/64 177/85/64 179/85/64
f 180/84/62 178/84/62 174/83/62 176/83/62
