# Blender v3.0.1 OBJ File: 'Poly_Direction_Board_01.blend'
# www.blender.org
mtllib Poly_Direction_Board_01.mtl
o Cylinder
v -0.550000 0.050000 -0.098528
v -0.550000 0.850000 -0.098528
v -0.467893 0.050000 -0.049264
v -0.467893 0.850000 -0.049264
v -0.467893 0.050000 0.049264
v -0.467893 0.850000 0.049264
v -0.550000 0.050000 0.098528
v -0.550000 0.850000 0.098528
v -0.632106 0.050000 0.049264
v -0.632106 0.850000 0.049264
v -0.632106 0.050000 -0.049264
v -0.632106 0.850000 -0.049264
v -0.467893 0.900000 -0.049264
v -0.550000 0.900000 -0.098528
v -0.467893 0.900000 0.049264
v -0.550000 0.900000 0.098528
v -0.632106 0.900000 0.049264
v -0.632106 0.900000 -0.049264
v -0.550000 0.000000 -0.098528
v -0.467893 0.000000 -0.049264
v -0.467893 0.000000 0.049264
v -0.550000 0.000000 0.098528
v -0.632106 0.000000 0.049264
v -0.632106 0.000000 -0.049264
vt 0.634565 0.884788
vt 0.634565 0.923036
vt 0.629913 0.923036
vt 0.629913 0.884788
vt 0.625385 0.923036
vt 0.625322 0.884788
vt 0.634565 0.884788
vt 0.634565 0.923036
vt 0.629913 0.923036
vt 0.629913 0.884788
vt 0.625385 0.923036
vt 0.625322 0.884788
vt 0.625463 0.878036
vt 0.634649 0.878036
vt 0.634649 0.880914
vt 0.625463 0.880914
vt 0.634565 0.884788
vt 0.634565 0.923036
vt 0.629913 0.923036
vt 0.629913 0.884788
vt 0.625385 0.923036
vt 0.625322 0.884788
vt 0.635439 0.881068
vt 0.625104 0.881068
vt 0.625104 0.877947
vt 0.635439 0.877947
vt 0.632099 0.934293
vt 0.628213 0.934293
vt 0.626195 0.930927
vt 0.628063 0.928969
vt 0.631950 0.928969
vt 0.633967 0.930927
vt 0.625463 0.878036
vt 0.634649 0.878036
vt 0.634649 0.880914
vt 0.625463 0.880914
vt 0.634649 0.878036
vt 0.634649 0.880914
vt 0.625463 0.878036
vt 0.625463 0.880914
vt 0.628152 0.934293
vt 0.632038 0.934293
vt 0.633907 0.930927
vt 0.631889 0.928969
vt 0.628003 0.928969
vt 0.626134 0.930927
vt 0.625104 0.881068
vt 0.635439 0.881068
vt 0.635439 0.877947
vt 0.625104 0.877947
vt 0.625104 0.881068
vt 0.625104 0.877947
vt 0.635439 0.881068
vt 0.635439 0.877947
vn 0.5145 0.0000 -0.8575
vn 1.0000 0.0000 0.0000
vn 0.5145 0.0000 0.8575
vn -0.5145 0.0000 0.8575
vn -1.0000 0.0000 0.0000
vn -0.5145 0.0000 -0.8575
vn 0.0000 1.0000 0.0000
vn 0.0000 -1.0000 0.0000
usemtl Material
s off
f 1/1/1 2/2/1 4/3/1 3/4/1
f 3/4/2 4/3/2 6/5/2 5/6/2
f 5/7/3 6/8/3 8/9/3 7/10/3
f 7/10/4 8/9/4 10/11/4 9/12/4
f 10/13/4 8/14/4 16/15/4 17/16/4
f 9/17/5 10/18/5 12/19/5 11/20/5
f 11/20/6 12/19/6 2/21/6 1/22/6
f 3/23/2 5/24/2 21/25/2 20/26/2
f 13/27/7 14/28/7 18/29/7 17/30/7 16/31/7 15/32/7
f 6/33/2 4/34/2 13/35/2 15/36/2
f 12/37/5 10/13/5 17/16/5 18/38/5
f 4/34/1 2/39/1 14/40/1 13/35/1
f 8/14/3 6/33/3 15/36/3 16/15/3
f 2/39/6 12/37/6 18/38/6 14/40/6
f 19/41/8 20/42/8 21/43/8 22/44/8 23/45/8 24/46/8
f 9/47/5 11/48/5 24/49/5 23/50/5
f 1/51/1 3/23/1 20/26/1 19/52/1
f 5/24/3 7/53/3 22/54/3 21/25/3
f 11/48/6 1/51/6 19/52/6 24/49/6
f 7/53/4 9/47/4 23/50/4 22/54/4
o Cylinder.002
v -0.500000 0.100000 0.050198
v -0.500000 0.800000 0.050198
v -0.500000 0.100000 -0.050198
v -0.500000 0.800000 -0.050198
v 0.500000 0.100000 0.050198
v 0.500000 0.800000 0.050198
v 0.500000 0.100000 -0.050198
v 0.500000 0.800000 -0.050198
vt 0.635767 0.924961
vt 0.635833 0.884772
vt 0.676819 0.884840
vt 0.676752 0.925029
vt 0.635833 0.884772
vt 0.635767 0.924961
vt 0.676819 0.884840
vt 0.676752 0.925029
vt 0.676514 0.917159
vt 0.636325 0.917261
vt 0.636325 0.925444
vt 0.676514 0.925342
vt 0.676514 0.917159
vt 0.636325 0.917261
vt 0.636325 0.925444
vt 0.676514 0.925342
vn -1.0000 0.0000 0.0000
vn 0.0000 0.0000 -1.0000
vn 1.0000 0.0000 0.0000
vn 0.0000 0.0000 1.0000
vn 0.0000 -1.0000 0.0000
vn 0.0000 1.0000 0.0000
usemtl Material
s off
f 25/55/9 26/56/9 28/57/9 27/58/9
f 27/58/10 28/57/10 32/59/10 31/60/10
f 31/60/11 32/59/11 30/61/11 29/62/11
f 29/62/12 30/61/12 26/56/12 25/55/12
f 27/63/13 31/64/13 29/65/13 25/66/13
f 32/67/14 28/68/14 26/69/14 30/70/14
o Cylinder.001_Cylinder.004
v 0.550000 0.050000 -0.100127
v 0.550000 0.850000 -0.100127
v 0.633439 0.050000 -0.050064
v 0.633439 0.850000 -0.050064
v 0.633439 0.050000 0.050064
v 0.633439 0.850000 0.050064
v 0.550000 0.050000 0.100127
v 0.550000 0.850000 0.100127
v 0.466561 0.050000 0.050064
v 0.466561 0.850000 0.050064
v 0.466561 0.050000 -0.050064
v 0.466561 0.850000 -0.050064
v 0.633439 0.900000 -0.050064
v 0.550000 0.900000 -0.100127
v 0.633439 0.900000 0.050064
v 0.550000 0.900000 0.100127
v 0.466561 0.900000 0.050064
v 0.466561 0.900000 -0.050064
v 0.550000 0.000000 -0.100127
v 0.633439 0.000000 -0.050064
v 0.633439 0.000000 0.050064
v 0.550000 0.000000 0.100127
v 0.466561 0.000000 0.050064
v 0.466561 0.000000 -0.050064
vt 0.634565 0.884788
vt 0.634565 0.923036
vt 0.629913 0.923036
vt 0.629913 0.884788
vt 0.625385 0.923036
vt 0.625322 0.884788
vt 0.634565 0.884788
vt 0.634565 0.923036
vt 0.629913 0.923036
vt 0.629913 0.884788
vt 0.625385 0.923036
vt 0.625322 0.884788
vt 0.625463 0.878036
vt 0.634649 0.878036
vt 0.634649 0.880914
vt 0.625463 0.880914
vt 0.634565 0.884788
vt 0.634565 0.923036
vt 0.629913 0.923036
vt 0.629913 0.884788
vt 0.625385 0.923036
vt 0.625322 0.884788
vt 0.635439 0.881068
vt 0.625104 0.881068
vt 0.625104 0.877947
vt 0.635439 0.877947
vt 0.632099 0.934293
vt 0.628213 0.934293
vt 0.626195 0.930927
vt 0.628063 0.928969
vt 0.631950 0.928969
vt 0.633967 0.930927
vt 0.625463 0.878036
vt 0.634649 0.878036
vt 0.634649 0.880914
vt 0.625463 0.880914
vt 0.634649 0.878036
vt 0.634649 0.880914
vt 0.625463 0.878036
vt 0.625463 0.880914
vt 0.628152 0.934293
vt 0.632038 0.934293
vt 0.633907 0.930927
vt 0.631889 0.928969
vt 0.628003 0.928969
vt 0.626134 0.930927
vt 0.625104 0.881068
vt 0.635439 0.881068
vt 0.635439 0.877947
vt 0.625104 0.877947
vt 0.625104 0.881068
vt 0.625104 0.877947
vt 0.635439 0.881068
vt 0.635439 0.877947
vn 0.5145 0.0000 -0.8575
vn 1.0000 0.0000 0.0000
vn 0.5145 0.0000 0.8575
vn -0.5145 0.0000 0.8575
vn -1.0000 0.0000 0.0000
vn -0.5145 0.0000 -0.8575
vn 0.0000 1.0000 0.0000
vn 0.0000 -1.0000 0.0000
usemtl Material
s off
f 33/71/15 34/72/15 36/73/15 35/74/15
f 35/74/16 36/73/16 38/75/16 37/76/16
f 37/77/17 38/78/17 40/79/17 39/80/17
f 39/80/18 40/79/18 42/81/18 41/82/18
f 42/83/18 40/84/18 48/85/18 49/86/18
f 41/87/19 42/88/19 44/89/19 43/90/19
f 43/90/20 44/89/20 34/91/20 33/92/20
f 35/93/16 37/94/16 53/95/16 52/96/16
f 45/97/21 46/98/21 50/99/21 49/100/21 48/101/21 47/102/21
f 38/103/16 36/104/16 45/105/16 47/106/16
f 44/107/19 42/83/19 49/86/19 50/108/19
f 36/104/15 34/109/15 46/110/15 45/105/15
f 40/84/17 38/103/17 47/106/17 48/85/17
f 34/109/20 44/107/20 50/108/20 46/110/20
f 51/111/22 52/112/22 53/113/22 54/114/22 55/115/22 56/116/22
f 41/117/19 43/118/19 56/119/19 55/120/19
f 33/121/15 35/93/15 52/96/15 51/122/15
f 37/94/17 39/123/17 54/124/17 53/95/17
f 43/118/20 33/121/20 51/122/20 56/119/20
f 39/123/18 41/117/18 55/120/18 54/124/18
