# Blender 3.6.5
# www.blender.org
mtllib Poly_World_Map_Pile_Of_Sand_01.mtl
o Grid.006
o Grid.001
v 0.000000 0.278950 -0.268667
v 0.000000 0.278950 0.268667
v 0.153901 0.278950 0.189976
v -0.217648 0.278950 -0.000000
v -0.153901 0.278950 0.189976
v -0.153901 0.278950 -0.189976
v 0.153901 0.278950 -0.189976
v 0.217649 0.278950 -0.000000
v 0.006743 0.430657 -0.008324
v 0.009536 0.430657 -0.000000
v 0.006743 0.430657 0.008324
v 0.000000 0.430657 0.011772
v -0.006743 0.430657 0.008324
v -0.009536 0.430657 -0.000000
v -0.006743 0.430657 -0.008324
v 0.000000 0.430657 -0.011772
v 0.000000 -0.010462 -0.504156
v -0.425767 -0.010463 -0.356492
v -0.602126 -0.010463 -0.000000
v -0.425767 -0.010463 0.356492
v 0.000000 -0.010463 0.504156
v 0.425767 -0.010463 0.356492
v 0.602126 -0.010463 -0.000000
v 0.425767 -0.010463 -0.356492
v 0.000000 0.166371 0.300770
v 0.351200 0.166371 -0.000000
v 0.248336 0.166371 -0.212676
v -0.351200 0.166371 -0.000000
v -0.248336 0.166371 -0.212676
v -0.248336 0.166371 0.212676
v 0.248336 0.166371 0.212676
v 0.000000 0.166371 -0.300770
v -0.067970 0.371789 -0.083902
v 0.067970 0.371789 -0.083902
v 0.096124 0.371789 -0.000000
v -0.067970 0.371789 0.083902
v -0.096123 0.371789 -0.000000
v 0.000000 0.371789 0.118655
v 0.000000 0.371789 -0.118656
v 0.067970 0.371789 0.083902
v 0.432388 0.035674 -0.000000
v -0.305745 0.035674 -0.263310
v -0.305745 0.035674 0.263310
v 0.305745 0.035674 0.263310
v 0.000000 0.035674 0.372376
v 0.305745 0.035674 -0.263310
v -0.432388 0.035674 -0.000000
v 0.000000 0.035674 -0.372376
vn -0.2395 0.8504 -0.4684
vn -0.5525 0.8126 -0.1854
vn -0.3574 0.3597 0.8619
vn 0.3574 0.3597 -0.8619
vn 0.5525 0.8126 0.1854
vn -0.6619 0.6978 0.2739
vn -0.6619 0.6978 -0.2739
vn 0.2395 0.8504 -0.4684
vn 0.5525 0.8126 -0.1854
vn 0.6619 0.6978 -0.2739
vn 0.6619 0.6978 0.2739
vn -0.2395 0.8504 0.4684
vn 0.3574 0.3597 0.8619
vn -0.3574 0.3597 -0.8619
vn 0.2395 0.8504 0.4684
vn -0.5525 0.8126 0.1854
vn -0.2981 0.4573 -0.8379
vn 0.2981 0.4573 0.8379
vn 0.7853 0.4898 0.3787
vn 0.7853 0.4898 -0.3787
vn -0.7853 0.4898 -0.3787
vn -0.7853 0.4898 0.3787
vn 0.2981 0.4573 -0.8379
vn -0.2981 0.4573 0.8379
vn -0.5949 0.7787 0.1996
vn 0.2598 0.8211 0.5082
vn -0.2598 0.8211 0.5082
vn 0.5949 0.7787 -0.1996
vn 0.2598 0.8211 -0.5082
vn 0.5949 0.7787 0.1996
vn -0.5949 0.7787 -0.1996
vn -0.2598 0.8211 -0.5082
vn -0.1139 0.9390 0.3244
vn 0.1139 0.9390 -0.3244
vn -0.2631 0.9561 0.1286
vn -0.2631 0.9561 -0.1286
vn 0.2631 0.9561 -0.1286
vn 0.2631 0.9561 0.1286
vn 0.1139 0.9390 0.3244
vn -0.1139 0.9390 -0.3244
vn -0.0000 1.0000 -0.0000
vt 0.354713 0.920878
vt 0.348699 0.929393
vt 0.341606 0.932648
vt 0.341685 0.924133
vt 0.341789 0.907724
vt 0.341743 0.915414
vt 0.323909 0.912159
vt 0.320390 0.904468
vt 0.359115 0.912159
vt 0.362634 0.904468
vt 0.334324 0.929393
vt 0.328311 0.920878
vt 0.365382 0.895454
vt 0.341825 0.901476
vt 0.317642 0.895454
vt 0.341864 0.874810
vt 0.341756 0.901476
vt 0.317739 0.895454
vt 0.314634 0.887858
vt 0.365366 0.895454
vt 0.363263 0.884603
vt 0.341371 0.932601
vt 0.338182 0.931280
vt 0.336861 0.928091
vt 0.338182 0.924902
vt 0.341371 0.923582
vt 0.344560 0.924902
vt 0.345881 0.928091
vt 0.344560 0.931280
s 0
usemtl Material.002
f 33/1/1 15/2/1 16/3/1 39/4/1
f 37/4/2 14/3/2 15/2/2 33/1/2
f 25/5/3 2/6/3 5/7/3 30/8/3
f 32/5/4 1/6/4 7/7/4 27/8/4
f 35/4/5 10/3/5 11/2/5 40/1/5
f 30/8/6 5/7/6 4/6/6 28/5/6
f 28/5/7 4/6/7 6/9/7 29/10/7
f 39/4/8 16/3/8 9/11/8 34/12/8
f 34/12/9 9/11/9 10/3/9 35/4/9
f 27/8/10 7/7/10 8/6/10 26/5/10
f 26/5/11 8/6/11 3/9/11 31/10/11
f 38/4/12 12/3/12 13/11/12 36/12/12
f 31/10/13 3/9/13 2/6/13 25/5/13
f 29/10/14 6/9/14 1/6/14 32/5/14
f 40/1/15 11/2/15 12/3/15 38/4/15
f 36/12/16 13/11/16 14/3/16 37/4/16
f 42/13/17 29/10/17 32/5/17 48/14/17
f 44/13/18 31/10/18 25/5/18 45/14/18
f 41/14/19 26/5/19 31/10/19 44/13/19
f 46/15/20 27/8/20 26/5/20 41/14/20
f 47/14/21 28/5/21 29/10/21 42/13/21
f 43/15/22 30/8/22 28/5/22 47/14/22
f 48/14/23 32/5/23 27/8/23 46/15/23
f 45/14/24 25/5/24 30/8/24 43/15/24
f 5/7/25 36/12/25 37/4/25 4/6/25
f 3/9/26 40/1/26 38/4/26 2/6/26
f 2/6/27 38/4/27 36/12/27 5/7/27
f 7/7/28 34/12/28 35/4/28 8/6/28
f 1/6/29 39/4/29 34/12/29 7/7/29
f 8/6/30 35/4/30 40/1/30 3/9/30
f 4/6/31 37/4/31 33/1/31 6/9/31
f 6/9/32 33/1/32 39/4/32 1/6/32
f 21/16/33 45/17/33 43/18/33 20/19/33
f 17/16/34 48/17/34 46/18/34 24/19/34
f 20/19/35 43/18/35 47/17/35 19/16/35
f 19/16/36 47/17/36 42/20/36 18/21/36
f 24/19/37 46/18/37 41/17/37 23/16/37
f 23/16/38 41/17/38 44/20/38 22/21/38
f 22/21/39 44/20/39 45/17/39 21/16/39
f 18/21/40 42/20/40 48/17/40 17/16/40
f 16/22/41 15/23/41 14/24/41 13/25/41 12/26/41 11/27/41 10/28/41 9/29/41
