# Blender 3.6.5
# www.blender.org
mtllib Poly_SF_Outside_B_Bridge_Metal_01.mtl
o Cube.001
v -0.500000 0.600000 0.500000
v -0.500000 1.000000 0.500000
v -0.500000 0.600000 -0.500000
v -0.500000 1.000000 -0.500000
v 0.500000 0.600000 0.500000
v 0.500000 1.000000 0.500000
v 0.500000 0.600000 -0.500000
v 0.500000 1.000000 -0.500000
v 0.340000 0.600000 -0.500000
v 0.340000 1.000000 -0.500000
v 0.340000 0.600000 0.500000
v 0.340000 1.000000 0.500000
v -0.330000 0.600000 -0.500000
v -0.330000 1.000000 0.500000
v -0.330000 1.000000 -0.500000
v -0.330000 0.600000 0.500000
v -0.500000 1.080000 0.500000
v -0.500000 1.080000 -0.500000
v 0.340000 1.080000 -0.500000
v 0.500000 1.080000 -0.500000
v 0.500000 1.080000 0.500000
v -0.330000 1.080000 0.500000
v 0.340000 1.080000 0.500000
v -0.330000 1.080000 -0.500000
v -0.500000 0.749565 0.500000
v -0.500000 0.749565 -0.500000
v 0.500000 0.749565 -0.500000
v 0.500000 0.749565 0.500000
v 0.340000 0.749565 0.500000
v 0.340000 0.749565 -0.500000
v -0.330000 0.749565 -0.500000
v -0.330000 0.749565 0.500000
vn -1.0000 -0.0000 -0.0000
vn -0.0000 -0.0000 -1.0000
vn 1.0000 -0.0000 -0.0000
vn -0.0000 -0.0000 1.0000
vn -0.0000 1.0000 -0.0000
vt 0.312639 0.797955
vt 0.312639 0.812316
vt 0.374709 0.812316
vt 0.374709 0.797955
vt 0.322913 0.797955
vt 0.322913 0.812316
vt 0.374709 0.797955
vt 0.312431 0.854085
vt 0.304277 0.854085
vt 0.304277 0.846191
vt 0.312431 0.846191
vt 0.312577 0.825437
vt 0.375102 0.825437
vt 0.375102 0.821656
vt 0.312577 0.821656
vt 0.364361 0.812316
vt 0.364361 0.797955
vt 0.303607 0.874475
vt 0.312010 0.874475
vt 0.312010 0.812534
vt 0.303607 0.812534
vt 0.258686 0.812534
vt 0.250605 0.812534
vt 0.250605 0.874475
vt 0.258686 0.874475
vt 0.302351 0.812523
vt 0.260828 0.812523
vt 0.260868 0.874939
vt 0.302392 0.874939
vt 0.258914 0.812523
vt 0.250181 0.812523
vt 0.250221 0.874939
vt 0.258914 0.874939
vt 0.312431 0.812523
vt 0.304277 0.812523
vt 0.304277 0.874939
vt 0.312431 0.874939
vt 0.375046 0.816097
vt 0.312630 0.816097
vt 0.312630 0.812372
vt 0.375046 0.812372
vt 0.375156 0.864669
vt 0.312711 0.864669
vt 0.312711 0.868449
vt 0.375156 0.868449
vt 0.258538 0.854085
vt 0.250159 0.854085
vt 0.250159 0.846191
vt 0.258538 0.846191
vt 0.258945 0.854085
vt 0.250566 0.854085
vt 0.250566 0.846191
vt 0.258945 0.846191
vt 0.364361 0.789378
vt 0.322913 0.789378
vt 0.374709 0.789378
vt 0.312639 0.789378
s 0
usemtl Material
f 25/1/1 2/2/1 4/3/1 26/4/1
f 30/5/2 10/6/2 8/2/2 27/1/2
f 27/1/3 8/2/3 6/3/3 28/7/3
f 32/5/4 14/6/4 2/2/4 25/1/4
f 8/8/2 10/9/2 19/10/2 20/11/2
f 10/12/1 12/13/1 23/14/1 19/15/1
f 28/7/4 6/3/4 12/16/4 29/17/4
f 31/17/2 15/16/2 10/6/2 30/5/2
f 26/4/2 4/3/2 15/16/2 31/17/2
f 29/18/5 28/19/5 27/20/5 30/21/5 31/22/5 26/23/5 25/24/5 32/25/5
f 10/26/5 15/27/5 14/28/5 12/29/5
f 29/17/4 12/16/4 14/6/4 32/5/4
f 24/30/5 18/31/5 17/32/5 22/33/5
f 20/34/5 19/35/5 23/36/5 21/37/5
f 6/38/3 8/39/3 20/40/3 21/41/3
f 14/42/3 15/43/3 24/44/3 22/45/3
f 12/9/4 6/8/4 21/11/4 23/10/4
f 4/38/1 2/39/1 17/40/1 18/41/1
f 15/46/2 4/47/2 18/48/2 24/49/2
f 2/50/4 14/51/4 22/52/4 17/53/4
f 11/54/4 29/17/4 32/5/4 16/55/4
f 3/56/2 26/4/2 31/17/2 13/54/2
f 13/54/2 31/17/2 30/5/2 9/55/2
f 5/56/4 28/7/4 29/17/4 11/54/4
f 16/55/4 32/5/4 25/1/4 1/57/4
f 7/57/3 27/1/3 28/7/3 5/56/3
f 9/55/2 30/5/2 27/1/2 7/57/2
f 1/57/1 25/1/1 26/4/1 3/56/1
o Cube.002
v 0.270000 0.750000 0.100000
v 0.470000 0.750000 0.100000
v 0.270000 0.750000 -0.100000
v 0.470000 0.750000 -0.100000
v 0.210000 0.000000 0.160000
v 0.530000 0.000000 0.160000
v 0.210000 0.000000 -0.160000
v 0.530000 0.000000 -0.160000
v 0.470000 0.400000 0.100000
v 0.270000 0.400000 -0.100000
v 0.470000 0.400000 -0.100000
v 0.270000 0.400000 0.100000
v 0.470000 0.120000 -0.100000
v 0.270000 0.120000 0.100000
v 0.470000 0.120000 0.100000
v 0.270000 0.120000 -0.100000
v 0.530000 0.120000 -0.160000
v 0.210000 0.120000 0.160000
v 0.530000 0.120000 0.160000
v 0.210000 0.120000 -0.160000
v -0.270000 0.750000 0.100000
v -0.470000 0.750000 0.100000
v -0.270000 0.750000 -0.100000
v -0.470000 0.750000 -0.100000
v -0.210000 0.000000 0.160000
v -0.530000 0.000000 0.160000
v -0.210000 0.000000 -0.160000
v -0.530000 0.000000 -0.160000
v -0.470000 0.400000 0.100000
v -0.270000 0.400000 -0.100000
v -0.470000 0.400000 -0.100000
v -0.270000 0.400000 0.100000
v -0.470000 0.120000 -0.100000
v -0.270000 0.120000 0.100000
v -0.470000 0.120000 0.100000
v -0.270000 0.120000 -0.100000
v -0.530000 0.120000 -0.160000
v -0.210000 0.120000 0.160000
v -0.530000 0.120000 0.160000
v -0.210000 0.120000 -0.160000
vn -0.0000 1.0000 -0.0000
vn -0.0000 -1.0000 -0.0000
vn -0.0000 -0.0000 -1.0000
vn -1.0000 -0.0000 -0.0000
vn -0.0000 -0.0000 1.0000
vn 1.0000 -0.0000 -0.0000
vt 0.296482 0.777113
vt 0.296482 0.751591
vt 0.266051 0.751591
vt 0.266051 0.777113
vt 0.267027 0.756591
vt 0.295405 0.756591
vt 0.295405 0.750266
vt 0.267027 0.750266
vt 0.293893 0.759365
vt 0.268603 0.759365
vt 0.268603 0.788979
vt 0.293893 0.788979
vt 0.296482 0.750391
vt 0.290731 0.756409
vt 0.271801 0.756409
vt 0.266051 0.750391
s 0
usemtl Material
f 33/58/6 34/59/6 36/60/6 35/61/6
f 39/58/7 40/59/7 38/60/7 37/61/7
f 52/62/8 49/63/8 40/64/8 39/65/8
f 42/66/9 44/67/9 33/68/9 35/69/9
f 52/63/9 39/64/9 37/65/9 50/62/9
f 44/67/10 41/66/10 34/69/10 33/68/10
f 36/69/11 34/68/11 41/67/11 43/66/11
f 46/68/10 47/69/10 41/66/10 44/67/10
f 45/69/11 43/66/11 41/67/11 47/68/11
f 49/70/6 45/71/6 47/72/6 51/73/6
f 50/73/6 51/70/6 47/71/6 46/72/6
f 42/66/9 48/69/9 46/68/9 44/67/9
f 42/67/8 43/66/8 45/69/8 48/68/8
f 36/69/8 43/66/8 42/67/8 35/68/8
f 37/65/10 38/64/10 51/63/10 50/62/10
f 40/64/11 49/63/11 51/62/11 38/65/11
f 48/71/6 52/70/6 50/73/6 46/72/6
f 48/72/6 45/71/6 49/70/6 52/73/6
f 53/58/6 55/61/6 56/60/6 54/59/6
f 59/58/7 57/61/7 58/60/7 60/59/7
f 72/62/8 59/65/8 60/64/8 69/63/8
f 62/66/11 55/69/11 53/68/11 64/67/11
f 72/63/11 70/62/11 57/65/11 59/64/11
f 64/67/10 53/68/10 54/69/10 61/66/10
f 56/69/9 63/66/9 61/67/9 54/68/9
f 66/68/10 64/67/10 61/66/10 67/69/10
f 65/69/9 67/68/9 61/67/9 63/66/9
f 69/70/6 71/73/6 67/72/6 65/71/6
f 70/73/6 66/72/6 67/71/6 71/70/6
f 62/66/11 64/67/11 66/68/11 68/69/11
f 62/67/8 68/68/8 65/69/8 63/66/8
f 56/69/8 55/68/8 62/67/8 63/66/8
f 57/65/10 70/62/10 71/63/10 58/64/10
f 60/64/9 58/65/9 71/62/9 69/63/9
f 68/71/6 66/72/6 70/73/6 72/70/6
f 68/72/6 72/73/6 69/70/6 65/71/6
