# Blender 3.6.5
# www.blender.org
mtllib Poly_Window_02.mtl
o Cube.001_Cube
v -0.545822 -0.005014 -0.324694
v 0.554178 -0.005014 -0.324694
v -0.546543 0.161756 -0.479063
v 0.546457 0.161756 -0.479063
v -0.628063 0.068465 -0.447231
v 0.628063 0.068465 -0.447231
v -0.000000 -0.007062 -0.209216
v -0.000000 0.220911 -0.464077
v -0.000000 0.138555 -0.261229
v -0.514190 0.045870 -0.282972
v -0.528260 0.165854 -0.288666
v -0.471247 0.226511 -0.472216
v 0.472376 0.226511 -0.472216
v 0.523796 0.045870 -0.282972
v 0.529644 0.165742 -0.288677
v -0.318201 0.220911 -0.464077
v -0.304795 0.000905 -0.220849
v -0.385087 0.164725 -0.300334
v 0.304080 0.000905 -0.220849
v 0.384300 0.164790 -0.300328
v 0.317551 0.220911 -0.464077
v -0.550000 -0.042908 -0.368999
v 0.550000 -0.042908 -0.368999
v -0.595221 0.121183 -0.489809
v 0.595136 0.121183 -0.489809
v -0.605100 0.014125 -0.491554
v 0.605100 0.014125 -0.491554
v -0.000000 -0.145266 -0.215601
v -0.000000 0.105935 -0.313787
v -0.000000 0.027733 -0.240305
v -0.518368 -0.067456 -0.268012
v -0.570294 0.050837 -0.295837
v -0.471247 0.113365 -0.347690
v 0.472376 0.113365 -0.347690
v 0.519618 -0.067456 -0.268012
v 0.571678 0.050740 -0.295921
v -0.318201 0.105935 -0.313787
v -0.364606 -0.101723 -0.222766
v -0.385087 0.019926 -0.252133
v 0.363891 -0.101723 -0.222766
v 0.384300 0.019978 -0.252089
v 0.317551 0.105935 -0.313787
vn 0.7078 0.7048 0.0478
vn 0.8437 0.0080 0.5367
vn -0.0491 0.3798 0.9238
vn 0.0150 0.9344 0.3559
vn -0.7047 0.7075 0.0524
vn -0.8236 -0.0347 0.5662
vn 0.1004 0.2580 0.9609
vn -0.0245 0.9448 0.3267
vn 0.0254 0.9447 0.3269
vn -0.1044 0.2539 0.9616
vn -0.0151 0.9345 0.3557
vn 0.0492 0.3797 0.9238
vn 0.7587 0.5775 0.3016
vn 0.9039 -0.3728 0.2096
vn -0.0164 0.1794 0.9836
vn -0.0200 0.6402 0.7680
vn -0.7571 0.5769 0.3065
vn -0.9049 -0.3657 0.2176
vn 0.2188 0.1634 0.9620
vn 0.0932 0.6680 0.7383
vn -0.0935 0.6684 0.7379
vn -0.2211 0.1625 0.9616
vn 0.0200 0.6404 0.7678
vn 0.0163 0.1792 0.9837
vt 0.366063 0.224921
vt 0.372421 0.224921
vt 0.372511 0.233711
vt 0.366141 0.233711
vt 0.363684 0.215147
vt 0.369669 0.216704
vt 0.331726 0.214298
vt 0.343636 0.213307
vt 0.343636 0.224921
vt 0.329974 0.224921
vt 0.343636 0.233711
vt 0.329917 0.233711
vt 0.315126 0.224921
vt 0.322202 0.224921
vt 0.322125 0.233711
vt 0.315036 0.233711
vt 0.317879 0.216704
vt 0.324575 0.215147
vt 0.356844 0.214298
vt 0.358592 0.224921
vt 0.358649 0.233711
s 0
usemtl Material.001
f 15/1/1 6/2/1 4/3/1 13/4/1
f 14/5/2 2/6/2 6/2/2 15/1/2
f 17/7/3 7/8/3 9/9/3 18/10/3
f 18/10/4 9/9/4 8/11/4 16/12/4
f 5/13/5 11/14/5 12/15/5 3/16/5
f 1/17/6 10/18/6 11/14/6 5/13/6
f 19/19/7 14/5/7 15/1/7 20/20/7
f 20/20/8 15/1/8 13/4/8 21/21/8
f 11/14/9 18/10/9 16/12/9 12/15/9
f 10/18/10 17/7/10 18/10/10 11/14/10
f 9/9/11 20/20/11 21/21/11 8/11/11
f 7/8/12 19/19/12 20/20/12 9/9/12
f 36/1/13 27/2/13 25/3/13 34/4/13
f 35/5/14 23/6/14 27/2/14 36/1/14
f 38/7/15 28/8/15 30/9/15 39/10/15
f 39/10/16 30/9/16 29/11/16 37/12/16
f 26/13/17 32/14/17 33/15/17 24/16/17
f 22/17/18 31/18/18 32/14/18 26/13/18
f 40/19/19 35/5/19 36/1/19 41/20/19
f 41/20/20 36/1/20 34/4/20 42/21/20
f 32/14/21 39/10/21 37/12/21 33/15/21
f 31/18/22 38/7/22 39/10/22 32/14/22
f 30/9/23 41/20/23 42/21/23 29/11/23
f 28/8/24 40/19/24 41/20/24 30/9/24
o Cube.001_Cube.001
v -0.530000 0.850000 -0.390000
v -0.530000 1.000000 -0.390000
v -0.520000 1.000000 -0.500000
v -0.520000 0.850000 -0.500000
v 0.050000 0.150000 -0.440000
v 0.050000 0.150000 -0.300000
v 0.350000 0.150000 -0.300000
v 0.350000 0.150000 -0.390000
v 0.350000 0.150000 -0.440000
v 0.280000 0.150000 -0.440000
v -0.350000 0.000000 -0.390000
v -0.530000 0.000000 -0.390000
v -0.520000 0.000000 -0.500000
v -0.350000 0.000000 -0.500000
v 0.350000 1.000000 -0.390000
v 0.530000 1.000000 -0.390000
v 0.530000 1.000000 -0.500000
v 0.350000 1.000000 -0.500000
v -0.500000 0.750000 -0.390000
v -0.500000 0.850000 -0.390000
v -0.500000 0.850000 -0.500000
v -0.500000 0.750000 -0.500000
v -0.350000 0.750000 -0.390000
v -0.350000 0.850000 -0.390000
v 0.500000 0.750000 -0.500000
v 0.500000 0.850000 -0.500000
v 0.500000 0.850000 -0.390000
v 0.500000 0.750000 -0.390000
v 0.530000 0.850000 -0.500000
v 0.530000 0.850000 -0.390000
v -0.050000 0.150000 -0.440000
v -0.050000 0.150000 -0.300000
v 0.530000 0.000000 -0.500000
v 0.530000 0.150000 -0.500000
v 0.530000 0.150000 -0.390000
v 0.530000 0.000000 -0.390000
v -0.500000 0.150000 -0.390000
v -0.500000 0.150000 -0.500000
v -0.520000 0.150000 -0.500000
v -0.530000 0.150000 -0.390000
v -0.350000 1.000000 -0.390000
v -0.350000 1.000000 -0.500000
v -0.050000 0.000000 -0.390000
v -0.050000 0.000000 -0.500000
v -0.350000 0.000000 -0.300000
v -0.520000 0.000000 -0.300000
v 0.350000 0.000000 -0.390000
v 0.350000 0.000000 -0.500000
v 0.350000 0.850000 -0.390000
v 0.350000 0.750000 -0.390000
v 0.530000 0.850000 -0.300000
v 0.350000 0.850000 -0.300000
v 0.050000 1.000000 -0.390000
v 0.050000 1.000000 -0.500000
v 0.500000 0.230000 -0.390000
v 0.500000 0.400000 -0.390000
v 0.350000 0.400000 -0.390000
v 0.350000 0.230000 -0.390000
v 0.500000 0.230000 -0.500000
v 0.500000 0.400000 -0.500000
v -0.350000 0.230000 -0.390000
v -0.350000 0.400000 -0.390000
v -0.500000 0.400000 -0.390000
v -0.500000 0.230000 -0.390000
v -0.500000 0.400000 -0.500000
v -0.500000 0.230000 -0.500000
v 0.500000 0.450000 -0.390000
v 0.350000 0.450000 -0.390000
v 0.500000 0.450000 -0.500000
v -0.350000 0.450000 -0.390000
v -0.500000 0.450000 -0.390000
v -0.500000 0.450000 -0.500000
v -0.350000 0.150000 -0.390000
v -0.350000 0.150000 -0.440000
v -0.350000 0.230000 -0.440000
v 0.350000 0.850000 -0.440000
v 0.350000 0.750000 -0.440000
v -0.050000 1.000000 -0.390000
v -0.050000 1.000000 -0.500000
v 0.050000 0.850000 -0.300000
v 0.050000 0.850000 -0.490000
v 0.280000 0.850000 -0.490000
v 0.280000 0.850000 -0.440000
v 0.050000 0.000000 -0.390000
v 0.050000 0.000000 -0.500000
v 0.350000 0.400000 -0.440000
v 0.350000 0.230000 -0.440000
v -0.050000 0.850000 -0.300000
v -0.050000 0.850000 -0.490000
v -0.520000 1.000000 -0.300000
v -0.350000 1.000000 -0.300000
v -0.350000 0.400000 -0.440000
v -0.350000 0.450000 -0.440000
v 0.050000 0.000000 -0.300000
v -0.050000 0.000000 -0.300000
v -0.350000 0.580000 -0.390000
v -0.350000 0.580000 -0.440000
v 0.350000 0.450000 -0.440000
v -0.350000 0.850000 -0.300000
v -0.520000 0.850000 -0.300000
v -0.350000 0.150000 -0.300000
v -0.520000 0.150000 -0.300000
v -0.050000 1.000000 -0.300000
v 0.530000 1.000000 -0.300000
v 0.350000 1.000000 -0.300000
v 0.530000 0.150000 -0.300000
v 0.350000 0.000000 -0.300000
v 0.530000 0.000000 -0.300000
v 0.050000 1.000000 -0.300000
v 0.500000 0.150000 -0.390000
v 0.500000 0.150000 -0.500000
v -0.350000 0.850000 -0.440000
v -0.280000 0.850000 -0.440000
v -0.280000 0.850000 -0.490000
v -0.280000 0.150000 -0.440000
v -0.280000 0.750000 -0.440000
v -0.350000 0.750000 -0.440000
v -0.280000 0.230000 -0.440000
v -0.280000 0.400000 -0.440000
v -0.280000 0.450000 -0.440000
v 0.050000 0.400000 -0.440000
v 0.050000 0.450000 -0.440000
v -0.050000 0.450000 -0.440000
v -0.050000 0.400000 -0.440000
v 0.050000 0.230000 -0.440000
v -0.050000 0.230000 -0.440000
v -0.050000 0.750000 -0.440000
v -0.050000 0.750000 -0.490000
v -0.280000 0.750000 -0.490000
v -0.050000 0.400000 -0.490000
v -0.050000 0.230000 -0.490000
v -0.050000 0.580000 -0.440000
v -0.280000 0.580000 -0.440000
v -0.280000 0.580000 -0.490000
v -0.050000 0.580000 -0.490000
v 0.280000 0.400000 -0.440000
v 0.280000 0.450000 -0.440000
v 0.050000 0.750000 -0.440000
v 0.050000 0.580000 -0.440000
v 0.350000 0.580000 -0.440000
v 0.350000 0.580000 -0.390000
v 0.500000 0.580000 -0.390000
v 0.500000 0.580000 -0.500000
v -0.500000 0.580000 -0.390000
v -0.500000 0.580000 -0.500000
v 0.280000 0.750000 -0.440000
v 0.280000 0.580000 -0.440000
v 0.280000 0.580000 -0.490000
v 0.280000 0.450000 -0.490000
v -0.050000 0.450000 -0.490000
v -0.280000 0.450000 -0.490000
v 0.280000 0.230000 -0.440000
v 0.280000 0.230000 -0.490000
v 0.050000 0.230000 -0.490000
v 0.050000 0.750000 -0.490000
v 0.280000 0.750000 -0.490000
v 0.280000 0.400000 -0.490000
v 0.050000 0.400000 -0.490000
v -0.280000 0.400000 -0.490000
v -0.280000 0.230000 -0.490000
v 0.050000 0.580000 -0.490000
v 0.050000 0.450000 -0.490000
vn -1.0000 -0.0000 0.0100
vn -0.9959 -0.0000 -0.0905
vn -0.0000 1.0000 -0.0000
vn -0.0000 -1.0000 -0.0000
vn -1.0000 -0.0000 -0.0000
vn -0.0000 -0.0000 1.0000
vn 1.0000 -0.0000 -0.0000
vn -0.9939 -0.0000 0.1104
vt 0.262646 0.210009
vt 0.254874 0.210009
vt 0.254874 0.216751
vt 0.262646 0.216751
vt 0.283193 0.166112
vt 0.283193 0.162359
vt 0.298203 0.162359
vt 0.298203 0.164861
vt 0.298203 0.166112
vt 0.294450 0.166112
vt 0.298869 0.209533
vt 0.306750 0.209533
vt 0.306750 0.217069
vt 0.298869 0.217069
vt 0.298543 0.209367
vt 0.306520 0.209367
vt 0.306520 0.217010
vt 0.298543 0.217010
vt 0.268048 0.210009
vt 0.268048 0.216751
vt 0.263548 0.202981
vt 0.263548 0.207872
vt 0.256524 0.207872
vt 0.256524 0.202981
vt 0.278190 0.166112
vt 0.278190 0.162359
vt 0.306724 0.216751
vt 0.298952 0.216751
vt 0.298952 0.210009
vt 0.306724 0.210009
vt 0.254518 0.209367
vt 0.262342 0.209367
vt 0.262342 0.217010
vt 0.254518 0.217010
vt 0.283262 0.209533
vt 0.283262 0.217069
vt 0.254365 0.209533
vt 0.262401 0.209533
vt 0.262401 0.217069
vt 0.254365 0.217069
vt 0.304638 0.202981
vt 0.304638 0.207872
vt 0.297378 0.207872
vt 0.297378 0.202981
vt 0.305708 0.164861
vt 0.306959 0.164861
vt 0.306959 0.162359
vt 0.283127 0.209367
vt 0.283127 0.217010
vt 0.304638 0.174489
vt 0.304638 0.188801
vt 0.297378 0.188801
vt 0.297378 0.174489
vt 0.295011 0.216751
vt 0.285958 0.216751
vt 0.285958 0.210009
vt 0.295011 0.210009
vt 0.263548 0.174489
vt 0.263548 0.188801
vt 0.256524 0.188801
vt 0.256524 0.174489
vt 0.304638 0.191549
vt 0.297378 0.191549
vt 0.283368 0.216751
vt 0.283368 0.210009
vt 0.263548 0.191549
vt 0.256524 0.191549
vt 0.265521 0.175449
vt 0.265521 0.170942
vt 0.264137 0.170942
vt 0.264137 0.175449
vt 0.296924 0.204027
vt 0.296924 0.207071
vt 0.295540 0.207071
vt 0.295540 0.204027
vt 0.277835 0.209367
vt 0.277835 0.217010
vt 0.283193 0.167362
vt 0.294450 0.167362
vt 0.277931 0.209533
vt 0.277931 0.217069
vt 0.296924 0.175449
vt 0.296924 0.190595
vt 0.295540 0.190595
vt 0.295540 0.175449
vt 0.278190 0.167362
vt 0.265521 0.193198
vt 0.265521 0.190595
vt 0.264137 0.190595
vt 0.264137 0.193198
vt 0.265521 0.196443
vt 0.264137 0.196443
vt 0.296924 0.193198
vt 0.295540 0.193198
vt 0.263548 0.216115
vt 0.256524 0.216115
vt 0.263548 0.161488
vt 0.263548 0.169730
vt 0.256524 0.169730
vt 0.256524 0.161488
vt 0.278026 0.161488
vt 0.278026 0.169730
vt 0.278026 0.207872
vt 0.278026 0.216115
vt 0.304638 0.216115
vt 0.297378 0.216115
vt 0.304638 0.169730
vt 0.297378 0.169730
vt 0.297378 0.161488
vt 0.304638 0.161488
vt 0.282971 0.207872
vt 0.282971 0.216115
vt 0.282971 0.161488
vt 0.282971 0.169730
vt 0.263180 0.164861
vt 0.255962 0.164861
vt 0.254424 0.164861
vt 0.254424 0.162359
vt 0.263180 0.162359
vt 0.298917 0.216751
vt 0.298917 0.210001
vt 0.263180 0.166112
vt 0.266932 0.166112
vt 0.266932 0.167362
vt 0.266432 0.203610
vt 0.266432 0.206812
vt 0.263548 0.206812
vt 0.263548 0.203610
vt 0.266432 0.175364
vt 0.266432 0.184147
vt 0.263548 0.184147
vt 0.263548 0.175364
vt 0.266432 0.186714
vt 0.263548 0.186714
vt 0.282971 0.184147
vt 0.282971 0.186714
vt 0.278026 0.186714
vt 0.278026 0.184147
vt 0.282971 0.175364
vt 0.278026 0.175364
vt 0.267603 0.201627
vt 0.277851 0.201627
vt 0.277851 0.175116
vt 0.277851 0.184108
vt 0.277851 0.195367
vt 0.267603 0.195367
vt 0.294596 0.184147
vt 0.294596 0.186714
vt 0.282971 0.203610
vt 0.278026 0.203610
vt 0.278026 0.196808
vt 0.282971 0.196808
vt 0.263548 0.196808
vt 0.266432 0.196808
vt 0.265521 0.204027
vt 0.264137 0.204027
vt 0.295540 0.196443
vt 0.296924 0.196443
vt 0.297378 0.194974
vt 0.304638 0.194974
vt 0.276899 0.216751
vt 0.276899 0.210009
vt 0.256524 0.194974
vt 0.263548 0.194974
vt 0.265521 0.207071
vt 0.264137 0.207071
vt 0.297378 0.196808
vt 0.297378 0.203610
vt 0.294596 0.203610
vt 0.294596 0.196808
vt 0.294939 0.186540
vt 0.294939 0.195367
vt 0.267603 0.186540
vt 0.277851 0.186540
vt 0.297378 0.184147
vt 0.297378 0.186714
vt 0.297378 0.175364
vt 0.294596 0.175364
vt 0.297378 0.206812
vt 0.294596 0.206812
vt 0.297378 0.171177
vt 0.294596 0.171177
vt 0.278026 0.171177
vt 0.266432 0.171177
vt 0.282971 0.171177
vt 0.263548 0.171177
vt 0.296924 0.170942
vt 0.295540 0.170942
vt 0.282535 0.175116
vt 0.292751 0.175116
vt 0.282535 0.201627
vt 0.282971 0.204773
vt 0.282971 0.206812
vt 0.278026 0.206812
vt 0.278026 0.204773
vt 0.293756 0.204773
vt 0.293756 0.206812
vt 0.293756 0.176333
vt 0.293756 0.182984
vt 0.284328 0.182984
vt 0.284328 0.176333
vt 0.276734 0.176333
vt 0.276734 0.182984
vt 0.267401 0.182984
vt 0.267401 0.176333
vt 0.267207 0.206812
vt 0.267207 0.204773
vt 0.276734 0.188006
vt 0.276734 0.194548
vt 0.267401 0.194548
vt 0.267401 0.188006
vt 0.293756 0.188006
vt 0.293756 0.194548
vt 0.284328 0.194548
vt 0.284328 0.188006
vt 0.282535 0.184108
vt 0.292751 0.184108
vt 0.292751 0.201627
vt 0.292751 0.204659
vt 0.266578 0.184108
vt 0.266578 0.175116
vt 0.282535 0.186540
vt 0.292751 0.186540
vt 0.266578 0.195367
vt 0.266578 0.186540
vt 0.294939 0.175116
vt 0.294939 0.184108
vt 0.282535 0.195367
vt 0.267603 0.175116
vt 0.267603 0.184108
vt 0.292751 0.195367
vt 0.267603 0.204659
vt 0.306724 0.207719
vt 0.298952 0.207719
vt 0.254874 0.207719
vt 0.262646 0.207719
s 1
usemtl Material.001
f 43/22/25 44/23/25 45/24/26 46/25/26
f 47/26/27 48/27/27 49/28/27 50/29/27 51/30/27 52/31/27
f 53/32/28 54/33/28 55/34/28 56/35/28
f 57/36/27 58/37/27 59/38/27 60/39/27
f 61/40/29 62/22/29 63/25/29 64/41/29
f 65/42/30 66/43/30 62/44/30 61/45/30
f 67/41/31 68/25/31 69/22/31 70/40/31
f 71/25/31 59/24/31 58/23/31 72/22/31
f 73/46/27 74/47/27 48/27/27 47/26/27
f 75/48/31 76/49/31 77/50/31 78/51/31
f 79/50/27 80/49/27 81/49/27 82/50/27
f 44/52/27 83/53/27 84/54/27 45/55/27
f 85/56/28 53/32/28 56/35/28 86/57/28
f 54/33/28 53/32/28 87/32/28 88/33/28
f 69/22/28 68/25/28 71/25/28 72/22/28
f 78/58/28 89/59/28 90/60/28 75/61/28
f 70/62/30 69/63/30 91/64/30 92/65/30
f 91/29/28 69/66/28 72/67/28 93/68/28 94/28/28
f 95/69/27 57/36/27 60/39/27 96/70/27
f 97/71/30 98/72/30 99/73/30 100/74/30
f 101/75/31 102/76/31 98/77/31 97/78/31
f 103/79/30 104/80/30 105/81/30 106/82/30
f 106/78/29 105/77/29 107/76/29 108/75/29
f 98/72/30 109/83/30 110/84/30 99/73/30
f 102/76/31 111/85/31 109/86/31 98/77/31
f 104/80/30 112/87/30 113/88/30 105/81/30
f 105/77/29 113/86/29 114/85/29 107/76/29
f 103/89/31 115/90/31 116/91/31 117/92/31
f 92/93/29 91/94/29 118/95/29 119/96/29
f 83/53/27 120/97/27 121/98/27 84/54/27
f 91/29/28 94/28/28 122/27/28 123/99/28 124/100/28 125/31/28 118/30/28
f 126/101/28 85/56/28 86/57/28 127/102/28
f 100/103/29 99/104/29 128/105/29 129/106/29
f 123/99/28 122/27/28 130/47/28 131/107/28
f 83/53/27 44/52/27 132/52/27 133/53/27
f 112/108/31 104/109/31 134/110/31 135/111/31
f 89/59/28 126/101/28 127/102/28 90/60/28
f 85/56/28 126/101/28 136/101/28 137/56/28
f 138/112/31 112/108/31 135/111/31 139/113/31
f 99/104/29 110/114/29 140/115/29 128/105/29
f 120/97/27 95/69/27 96/70/27 121/98/27
f 141/43/30 133/116/30 132/117/30 142/44/30
f 87/118/30 143/119/30 144/120/30 88/121/30
f 137/122/30 74/123/30 143/119/30 87/118/30
f 130/124/30 145/125/30 133/116/30 141/43/30
f 146/126/30 147/127/30 94/64/30 93/63/30
f 148/128/30 49/129/30 149/130/30 150/131/30
f 122/132/30 151/133/30 145/125/30 130/124/30
f 136/134/30 48/135/30 74/123/30 137/122/30
f 149/130/30 49/129/30 48/135/30 136/134/30
f 94/64/30 147/127/30 151/133/30 122/132/30
f 152/66/27 50/29/27 49/28/27 148/68/27 77/67/27
f 63/25/28 62/22/28 43/22/28 46/25/28
f 120/97/27 83/53/27 133/53/27 145/97/27
f 126/101/28 89/59/28 149/59/28 136/101/28
f 53/32/28 85/56/28 137/56/28 87/32/28
f 115/136/27 79/137/27 82/138/27 144/139/27 143/140/27
f 153/141/27 152/142/27 77/142/27 76/141/27
f 95/69/27 120/97/27 145/97/27 151/69/27
f 62/137/28 66/136/28 141/140/28 142/139/28 43/138/28
f 131/107/28 130/47/28 141/140/28 66/136/28 154/143/28 155/144/28 156/145/28
f 57/36/27 95/69/27 151/69/27 147/36/27
f 58/37/27 57/36/27 147/36/27 146/37/27
f 89/59/28 78/58/28 150/58/28 149/59/28
f 115/136/27 143/140/27 74/47/27 73/46/27 157/144/27 116/143/27
f 158/146/30 155/147/30 154/148/30 159/149/30
f 160/150/30 161/151/30 134/152/30 117/153/30
f 161/151/30 162/154/30 135/155/30 134/152/30
f 163/156/30 164/157/30 165/158/30 166/159/30
f 167/160/30 163/156/30 166/159/30 168/161/30
f 158/162/27 169/163/27 170/163/27 171/162/27
f 168/164/29 166/165/29 172/165/29 173/164/29
f 174/166/28 175/167/28 176/167/28 177/166/28
f 178/168/30 179/169/30 164/157/30 163/156/30
f 180/170/30 169/171/30 174/172/30 181/173/30
f 158/146/30 159/149/30 139/174/30 175/175/30
f 65/176/31 138/112/31 139/113/31 159/177/31
f 92/93/29 119/96/29 182/178/29 183/179/29
f 70/62/30 92/65/30 183/180/30 184/181/30
f 185/182/31 67/41/31 70/40/31 184/183/31
f 65/42/30 61/45/30 186/184/30 138/185/30
f 61/40/29 64/41/29 187/182/29 186/183/29
f 174/172/30 169/171/30 158/146/30 175/175/30
f 66/186/31 65/176/31 159/177/31 154/187/31
f 182/188/30 119/189/30 188/190/30 189/191/30
f 166/159/30 165/158/30 162/154/30 161/151/30
f 179/192/29 189/193/29 190/193/29 191/192/29
f 162/194/27 165/195/27 192/195/27 193/194/27
f 128/196/30 140/197/30 179/169/30 178/168/30
f 129/198/30 128/196/30 178/168/30 194/199/30
f 119/189/30 118/200/30 125/201/30 188/190/30
f 51/202/30 129/198/30 194/199/30 52/203/30
f 73/204/30 168/161/30 160/150/30 157/205/30
f 52/203/30 194/199/30 167/160/30 47/206/30
f 47/206/30 167/160/30 168/161/30 73/204/30
f 157/205/30 160/150/30 117/153/30 116/207/30
f 50/208/29 100/103/29 129/106/29 51/209/29
f 104/109/31 103/89/31 117/92/31 134/110/31
f 79/50/29 106/78/29 108/75/29 80/49/29
f 115/119/30 103/79/30 106/82/30 79/120/30
f 153/49/31 101/75/31 97/78/31 152/50/31
f 152/128/30 97/71/30 100/74/30 50/129/30
f 140/197/30 182/188/30 189/191/30 179/169/30
f 167/210/27 194/211/27 195/211/27 196/210/27
f 113/86/29 186/183/29 187/182/29 114/85/29
f 112/87/30 138/185/30 186/184/30 113/88/30
f 111/85/31 185/182/31 184/183/31 109/86/31
f 109/83/30 184/181/30 183/180/30 110/84/30
f 110/114/29 183/179/29 182/178/29 140/115/29
f 162/154/30 175/175/30 139/174/30 135/155/30
f 164/157/30 181/173/30 174/172/30 165/158/30
f 169/163/27 180/212/27 197/212/27 170/163/27
f 197/213/30 123/214/30 131/215/30 170/216/30
f 198/217/30 124/218/30 123/214/30 197/213/30
f 195/219/30 199/220/30 200/221/30 196/222/30
f 173/223/30 172/224/30 201/225/30 202/226/30
f 170/216/30 131/215/30 156/227/30 171/228/30
f 192/229/30 177/230/30 176/231/30 193/232/30
f 191/233/30 190/234/30 203/235/30 204/236/30
f 163/237/31 167/210/31 196/210/31 200/237/31
f 178/238/28 163/237/28 200/237/28 199/238/28
f 188/239/29 125/240/29 124/240/29 198/239/29
f 161/241/31 160/242/31 202/242/31 201/241/31
f 164/243/27 179/244/27 191/244/27 204/243/27
f 175/245/31 162/246/31 193/246/31 176/245/31
f 194/247/29 178/248/29 199/248/29 195/247/29
f 181/249/31 164/243/31 204/243/31 203/249/31
f 180/212/27 188/239/27 198/239/27 197/212/27
f 160/250/27 168/164/27 173/164/27 202/250/27
f 166/165/28 161/251/28 201/251/28 172/165/28
f 189/252/28 181/249/28 203/249/28 190/252/28
f 155/253/31 158/162/31 171/162/31 156/253/31
f 165/195/29 174/166/29 177/166/29 192/195/29
f 54/51/25 82/50/25 81/49/26 55/48/26
f 82/50/25 54/51/25 88/254/32 144/255/32
f 78/51/31 77/50/31 148/255/31 150/254/31
f 72/22/31 58/23/31 146/256/31 93/257/31
f 44/23/25 43/22/25 142/257/32 132/256/32
f 188/190/30 180/170/30 181/173/30 189/191/30
