# Blender 3.6.5
# www.blender.org
mtllib Poly_SF_Outside_B_Window_18.mtl
o Cube.001
v 0.400000 0.050000 -0.500000
v 0.400000 0.000000 -0.500000
v 0.400000 0.050000 -0.400000
v 0.400000 0.000000 -0.400000
v -0.400000 0.050000 -0.500000
v -0.400000 0.000000 -0.500000
v -0.400000 0.050000 -0.400000
v -0.400000 0.000000 -0.400000
v 0.400000 0.500000 -0.500000
v 0.400000 0.440000 -0.500000
v 0.400000 0.500000 -0.400000
v 0.400000 0.440000 -0.400000
v -0.400000 0.500000 -0.500000
v -0.400000 0.440000 -0.500000
v -0.400000 0.500000 -0.400000
v -0.400000 0.440000 -0.400000
v -0.340000 0.440000 -0.450000
v 0.340000 0.440000 -0.450000
v -0.340000 0.050000 -0.450000
v 0.340000 0.050000 -0.450000
vn -0.0000 1.0000 -0.0000
vn -0.0000 -1.0000 -0.0000
vn -0.0000 -0.0000 1.0000
vn 1.0000 -0.0000 -0.0000
vn -1.0000 -0.0000 -0.0000
vt 0.258376 0.125243
vt 0.258376 0.146963
vt 0.252891 0.146963
vt 0.252891 0.125243
vt 0.252891 0.148261
vt 0.252891 0.145673
vt 0.258376 0.145673
vt 0.258376 0.148261
vt 0.258376 0.145932
vt 0.302910 0.145932
vt 0.302910 0.124955
s 0
usemtl regular
f 1/1/1 5/2/1 7/3/1 3/4/1
f 6/1/2 2/2/2 4/3/2 8/4/2
f 4/4/3 3/1/3 7/2/3 8/3/3
f 2/5/4 1/6/4 3/7/4 4/8/4
f 8/8/5 7/7/5 5/6/5 6/5/5
f 14/4/2 10/3/2 12/2/2 16/1/2
f 12/1/3 11/4/3 15/3/3 16/2/3
f 10/6/4 9/5/4 11/8/4 12/7/4
f 16/7/5 15/8/5 13/5/5 14/6/5
f 17/1/3 19/9/3 20/10/3 18/11/3
o Cube.002
v -0.340000 0.050000 -0.500000
v -0.400000 0.050000 -0.500000
v -0.340000 0.050000 -0.400000
v -0.400000 0.050000 -0.400000
v -0.340000 0.440000 -0.500000
v -0.400000 0.440000 -0.500000
v -0.340000 0.440000 -0.400000
v -0.400000 0.440000 -0.400000
v 0.340000 0.050000 -0.500000
v 0.400000 0.050000 -0.500000
v 0.340000 0.050000 -0.400000
v 0.400000 0.050000 -0.400000
v 0.340000 0.440000 -0.500000
v 0.400000 0.440000 -0.500000
v 0.340000 0.440000 -0.400000
v 0.400000 0.440000 -0.400000
vn 1.0000 -0.0000 -0.0000
vn -1.0000 -0.0000 -0.0000
vn -0.0000 -0.0000 1.0000
vt 0.252891 0.145417
vt 0.252891 0.125527
vt 0.258376 0.125527
vt 0.258376 0.145417
s 0
usemtl regular
f 21/12/6 25/13/6 27/14/6 23/15/6
f 26/13/7 22/12/7 24/15/7 28/14/7
f 24/12/8 23/15/8 27/14/8 28/13/8
f 29/12/7 31/15/7 35/14/7 33/13/7
f 34/13/6 36/14/6 32/15/6 30/12/6
f 32/15/8 36/14/8 35/13/8 31/12/8
o Cube.003
v -0.400000 0.430000 -0.300000
v -0.400000 0.500000 -0.300000
v -0.400000 0.500000 -0.500000
v -0.400000 0.570000 -0.500000
v 0.400000 0.430000 -0.300000
v 0.400000 0.500000 -0.300000
v 0.400000 0.500000 -0.500000
v 0.400000 0.570000 -0.500000
v -0.400000 0.500000 -0.400000
v -0.400000 0.570000 -0.400000
v 0.400000 0.500000 -0.400000
v 0.400000 0.570000 -0.400000
v -0.400000 0.598992 -0.500000
v 0.400000 0.598992 -0.500000
v -0.400000 0.598992 -0.400000
v 0.400000 0.598992 -0.400000
vn -1.0000 -0.0000 -0.0000
vn 1.0000 -0.0000 -0.0000
vn -0.0000 -0.0000 1.0000
vn -0.0000 -0.8192 -0.5735
vn -0.0000 0.8192 0.5735
vn -0.0000 1.0000 -0.0000
vt 0.288724 0.172827
vt 0.280391 0.172827
vt 0.280391 0.158331
vt 0.288724 0.158331
vt 0.280391 0.149275
vt 0.288724 0.149275
vt 0.312262 0.148686
vt 0.312262 0.156680
vt 0.250211 0.156680
vt 0.250211 0.148686
vt 0.250211 0.172166
vt 0.312262 0.172166
vt 0.312262 0.173368
vt 0.250211 0.173368
vt 0.250211 0.148839
vt 0.312262 0.148839
vt 0.312262 0.174110
vt 0.250211 0.174110
vt 0.250211 0.148830
vt 0.312262 0.148830
vt 0.257698 0.154117
vt 0.250410 0.154117
vt 0.250410 0.149820
vt 0.257698 0.149820
vt 0.250211 0.152194
vt 0.312262 0.152194
vt 0.312262 0.148663
vt 0.250211 0.148663
s 0
usemtl regular
f 45/16/9 46/17/9 40/18/9 39/19/9
f 47/16/10 48/17/10 42/20/10 41/21/10
f 41/22/11 42/23/11 38/24/11 37/25/11
f 45/26/12 47/27/12 41/27/12 37/26/12
f 48/28/13 46/29/13 38/30/13 42/31/13
f 43/19/10 44/18/10 48/17/10 47/16/10
f 37/21/9 38/20/9 46/17/9 45/16/9
f 50/32/14 49/33/14 51/34/14 52/35/14
f 48/36/10 44/37/10 50/38/10 52/39/10
f 40/37/9 46/36/9 51/39/9 49/38/9
f 46/40/11 48/41/11 52/42/11 51/43/11
o Cube.004
v -0.010000 0.440000 -0.400000
v 0.010000 0.440000 -0.400000
v -0.010000 0.440000 -0.440000
v 0.010000 0.440000 -0.440000
v -0.010000 0.050000 -0.400000
v 0.010000 0.050000 -0.400000
v -0.010000 0.050000 -0.440000
v 0.010000 0.050000 -0.440000
v 0.340000 0.270000 -0.400000
v 0.340000 0.240000 -0.400000
v 0.340000 0.270000 -0.440000
v 0.340000 0.240000 -0.440000
v -0.340000 0.270000 -0.400000
v -0.340000 0.240000 -0.400000
v -0.340000 0.270000 -0.440000
v -0.340000 0.240000 -0.440000
vn -0.0000 1.0000 -0.0000
vn -0.0000 -0.0000 -1.0000
vn -0.0000 -1.0000 -0.0000
vn -0.0000 -0.0000 1.0000
vn -1.0000 -0.0000 -0.0000
vn 1.0000 -0.0000 -0.0000
vt 0.252807 0.147223
vt 0.258956 0.147223
vt 0.258956 0.125378
vt 0.252807 0.125378
vt 0.258829 0.147223
vt 0.258829 0.125378
vt 0.252975 0.125378
vt 0.252975 0.147223
s 0
usemtl regular
f 53/44/15 54/45/15 56/45/15 55/44/15
f 55/44/16 56/45/16 60/46/16 59/47/16
f 59/47/17 60/46/17 58/46/17 57/47/17
f 57/47/18 58/46/18 54/45/18 53/44/18
f 55/48/19 59/49/19 57/47/19 53/44/19
f 60/50/20 56/51/20 54/45/20 58/46/20
f 61/44/20 62/45/20 64/45/20 63/44/20
f 63/44/16 64/45/16 68/46/16 67/47/16
f 67/47/19 68/46/19 66/46/19 65/47/19
f 65/47/18 66/46/18 62/45/18 61/44/18
f 63/48/15 67/49/15 65/47/15 61/44/15
f 68/50/17 64/51/17 62/45/17 66/46/17
