# Blender v3.0.1 OBJ File: 'Poly_World_Map_Village_01_Snow.blend'
# www.blender.org
mtllib Poly_World_Map_Village_01_Snow.mtl
o Cube_Cube.002
v 0.611961 0.110000 0.094076
v 0.612419 0.110000 -0.225924
v 0.472877 0.270690 -0.226124
v 0.472419 0.270690 0.093876
v 0.347290 0.110000 -0.226304
v 0.346831 0.110000 0.093696
v 0.472419 0.270690 0.093876
v 0.472877 0.270690 -0.226124
v 0.346832 -0.000000 0.093696
v 0.347290 -0.000000 -0.226304
v 0.611961 -0.000000 0.094076
v 0.612419 -0.000000 -0.225924
vt 0.378171 0.018857
vt 0.404375 0.018857
vt 0.404375 0.034483
vt 0.378171 0.034483
vt 0.378171 0.018857
vt 0.404375 0.018857
vt 0.404375 0.034483
vt 0.378171 0.034483
vt 0.162175 0.200836
vt 0.180627 0.200836
vt 0.171313 0.208683
vt 0.171313 0.208683
vt 0.093891 0.079652
vt 0.093891 0.088883
vt 0.078571 0.088883
vt 0.078571 0.079652
vt 0.002758 0.026456
vt 0.002758 0.035073
vt 0.020484 0.035073
vt 0.020484 0.026456
vt 0.094578 0.079190
vt 0.094578 0.088421
vt 0.070732 0.088421
vt 0.070732 0.079190
vt 0.052423 0.092699
vt 0.052423 0.101930
vt 0.035472 0.101930
vt 0.035472 0.092699
vt 0.037931 0.105229
vt 0.043275 0.105229
vt 0.043275 0.110572
vt 0.037931 0.110572
vt 0.027660 0.117532
vt 0.053460 0.117532
vt 0.053460 0.117532
vt 0.027660 0.117532
vt 0.180627 0.200836
vt 0.162175 0.200836
vt 0.171313 0.208683
vt 0.171313 0.208683
vn 0.7550 0.6557 0.0011
vn -0.7879 0.6158 -0.0011
vn -0.0014 0.0000 1.0000
vn -1.0000 0.0000 -0.0014
vn 1.0000 0.0000 0.0014
vn 0.0014 0.0000 -1.0000
vn -0.0000 -1.0000 0.0000
vn 0.0000 0.0000 0.0000
usemtl Material.002
s 1
f 1/1/1 2/2/1 3/3/1 4/4/1
f 5/5/2 6/6/2 7/7/2 8/8/2
f 6/9/3 1/10/3 4/11/3 7/12/3
f 9/13/4 6/14/4 5/15/4 10/16/4
f 11/17/3 1/18/3 6/19/3 9/20/3
f 12/21/5 2/22/5 1/23/5 11/24/5
f 10/25/6 5/26/6 2/27/6 12/28/6
f 9/29/7 10/30/7 12/31/7 11/32/7
f 8/33/8 7/34/8 4/35/8 3/36/8
f 2/37/6 5/38/6 8/39/6 3/40/6
o Cube.002_Cube.003
v -0.608729 0.180000 -0.614212
v -0.608729 0.180000 -0.264212
v -0.468729 0.330000 -0.264212
v -0.468729 0.330000 -0.614212
v -0.318730 0.180000 -0.264212
v -0.318730 0.180000 -0.614212
v -0.468729 0.330000 -0.614212
v -0.468729 0.330000 -0.264212
v -0.318730 0.000000 -0.614212
v -0.318730 0.000000 -0.264212
v -0.608729 0.000000 -0.614212
v -0.608729 0.000000 -0.264212
vt 0.378171 0.034483
vt 0.378171 0.018857
vt 0.404375 0.018857
vt 0.404375 0.034483
vt 0.378171 0.034483
vt 0.378171 0.018857
vt 0.404375 0.018857
vt 0.404375 0.034483
vt 0.162167 0.200836
vt 0.180500 0.200836
vt 0.171283 0.208683
vt 0.171283 0.208683
vt 0.094344 0.079598
vt 0.094344 0.088829
vt 0.078438 0.088829
vt 0.078438 0.079598
vt 0.011802 0.026281
vt 0.011802 0.032541
vt 0.019906 0.032541
vt 0.019906 0.026281
vt 0.094344 0.079598
vt 0.094344 0.088829
vt 0.078438 0.088829
vt 0.078438 0.079598
vt 0.019906 0.026281
vt 0.019906 0.035512
vt 0.002732 0.035512
vt 0.002732 0.026281
vt 0.009553 0.038811
vt 0.013371 0.038811
vt 0.013371 0.044154
vt 0.009553 0.044154
vt 0.002216 0.051114
vt 0.020646 0.051114
vt 0.020646 0.051114
vt 0.002216 0.051114
vt 0.180500 0.200836
vt 0.162167 0.200836
vt 0.171283 0.208683
vt 0.171283 0.208683
vn -0.7311 0.6823 0.0000
vn 0.7071 0.7071 0.0000
vn 0.0000 0.0000 -1.0000
vn 1.0000 0.0000 0.0000
vn -1.0000 0.0000 0.0000
vn 0.0000 0.0000 1.0000
vn 0.0000 -1.0000 0.0000
vn 0.0000 0.0000 0.0000
usemtl Material.002
s 1
f 13/41/9 14/42/9 15/43/9 16/44/9
f 17/45/10 18/46/10 19/47/10 20/48/10
f 18/49/11 13/50/11 16/51/11 19/52/11
f 21/53/12 18/54/12 17/55/12 22/56/12
f 23/57/11 13/58/11 18/59/11 21/60/11
f 24/61/13 14/62/13 13/63/13 23/64/13
f 22/65/14 17/66/14 14/67/14 24/68/14
f 21/69/15 22/70/15 24/71/15 23/72/15
f 20/73/16 19/74/16 16/75/16 15/76/16
f 14/77/14 17/78/14 20/79/14 15/80/14
o Grid
v -0.800000 0.471568 0.000000
v -0.800000 -0.000000 -0.000000
v -0.446242 0.000000 0.800000
v -0.800000 -0.000000 0.623724
v -0.800000 0.471568 0.623724
v -0.446242 0.471568 0.800000
v -0.800000 0.000000 -0.623724
v -0.446242 0.000000 -0.800000
v -0.446242 0.471568 -0.800000
v -0.800000 0.471568 -0.623724
v 0.800000 0.000000 0.623724
v 0.446242 0.000000 0.800000
v 0.446242 0.471568 0.800000
v 0.800000 0.471568 0.623724
v 0.446242 0.000000 -0.800000
v 0.800000 0.000000 -0.623724
v 0.800000 0.471568 -0.623724
v 0.446242 0.471568 -0.800000
v 0.800000 0.000000 0.000000
v 0.800000 0.471568 0.000000
v -0.000000 0.000000 -0.800000
v 0.000000 0.471568 -0.800000
v -0.659521 0.471568 0.000000
v -0.659521 -0.000000 -0.000000
v -0.392484 0.000000 0.735330
v -0.670217 0.000000 0.596937
v -0.670217 0.471568 0.596937
v -0.392484 0.471568 0.735330
v -0.670217 -0.000000 -0.596937
v -0.392484 -0.000000 -0.735330
v -0.392484 0.471568 -0.735330
v -0.670217 0.471568 -0.596937
v 0.670217 0.000000 0.596937
v 0.392484 0.000000 0.735330
v 0.392484 0.471568 0.735330
v 0.670217 0.471568 0.596937
v 0.392484 -0.000000 -0.735330
v 0.670217 -0.000000 -0.596937
v 0.670217 0.471568 -0.596937
v 0.392484 0.471568 -0.735330
v 0.659521 0.000000 0.000000
v 0.659521 0.471568 0.000000
v -0.000000 -0.000000 -0.730000
v 0.000000 0.471568 -0.730000
vt 0.160416 0.130358
vt 0.214224 0.130358
vt 0.214224 0.152531
vt 0.160416 0.152531
vt 0.196134 0.130358
vt 0.196134 0.152531
vt 0.235406 0.152531
vt 0.235406 0.130358
vt 0.235406 0.130358
vt 0.196134 0.130358
vt 0.196134 0.152531
vt 0.235406 0.152531
vt 0.196134 0.130358
vt 0.196134 0.152531
vt 0.235406 0.152531
vt 0.235406 0.130358
vt 0.139420 0.130358
vt 0.139420 0.152531
vt 0.168997 0.152531
vt 0.168997 0.130358
vt 0.139420 0.152531
vt 0.139420 0.130358
vt 0.168997 0.130358
vt 0.168997 0.152531
vt 0.168997 0.152531
vt 0.168997 0.130358
vt 0.139420 0.130358
vt 0.139420 0.152531
vt 0.139420 0.152531
vt 0.139420 0.130358
vt 0.168997 0.130358
vt 0.168997 0.152531
vt 0.196134 0.130358
vt 0.196134 0.152531
vt 0.235406 0.152531
vt 0.235406 0.130358
vt 0.235406 0.130358
vt 0.235406 0.152531
vt 0.235406 0.130358
vt 0.235406 0.152531
vt 0.160416 0.130358
vt 0.160416 0.152531
vt 0.214224 0.152531
vt 0.214224 0.130358
vt 0.196134 0.130358
vt 0.235406 0.130358
vt 0.235406 0.152531
vt 0.196134 0.152531
vt 0.157646 0.244673
vt 0.214695 0.244673
vt 0.214695 0.234624
vt 0.157646 0.234624
vt 0.196134 0.130358
vt 0.235406 0.130358
vt 0.235406 0.152531
vt 0.196134 0.152531
vt 0.139420 0.130358
vt 0.168997 0.130358
vt 0.168997 0.152531
vt 0.139420 0.152531
vt 0.139420 0.152531
vt 0.168997 0.152531
vt 0.168997 0.130358
vt 0.139420 0.130358
vt 0.168997 0.152531
vt 0.139420 0.152531
vt 0.139420 0.130358
vt 0.168997 0.130358
vt 0.139420 0.152531
vt 0.168997 0.152531
vt 0.168997 0.130358
vt 0.139420 0.130358
vt 0.235406 0.130358
vt 0.235406 0.152531
vt 0.235406 0.130358
vt 0.235406 0.152531
vt 0.235406 0.130358
vt 0.235406 0.152531
vt 0.235406 0.130358
vt 0.157646 0.244673
vt 0.214695 0.244673
vt 0.214695 0.234624
vt 0.157646 0.234624
vt 0.214695 0.244673
vt 0.157646 0.244673
vt 0.157646 0.234624
vt 0.214695 0.234624
vt 0.148004 0.130358
vt 0.148004 0.130358
vt 0.214695 0.244673
vt 0.157646 0.244673
vt 0.157646 0.234624
vt 0.214695 0.234624
vt 0.148004 0.130358
vt 0.148004 0.130358
vt 0.157646 0.244673
vt 0.214695 0.244673
vt 0.214695 0.234624
vt 0.157646 0.234624
vt 0.214695 0.244673
vt 0.214695 0.234624
vt 0.157646 0.244673
vt 0.214695 0.244673
vt 0.214695 0.234624
vt 0.157646 0.234624
vt 0.214695 0.244673
vt 0.157646 0.244673
vt 0.157646 0.234624
vt 0.214695 0.234624
vt 0.157646 0.244673
vt 0.214695 0.244673
vt 0.214695 0.234624
vt 0.157646 0.234624
vt 0.157646 0.244673
vt 0.157646 0.234624
vt 0.214695 0.244673
vt 0.157646 0.244673
vt 0.157646 0.234624
vt 0.214695 0.234624
vt 0.235406 0.152531
vn 0.0000 0.0000 1.0000
vn 1.0000 0.0000 0.0000
vn 0.9997 0.0000 0.0230
vn 1.0000 0.0000 0.0090
vn 0.0000 0.0000 -1.0000
vn -0.4460 0.0000 0.8950
vn -0.4460 0.0000 -0.8950
vn 0.4460 0.0000 -0.8950
vn 0.4460 0.0000 0.8950
vn -1.0000 0.0000 0.0000
vn -0.9998 0.0000 0.0179
vn 0.0000 1.0000 -0.0000
vn 0.0136 -0.0000 0.9999
vn 0.9998 0.0000 -0.0179
vn -0.9998 0.0000 -0.0179
vn -0.0136 -0.0000 0.9999
vn -0.0000 -1.0000 0.0000
usemtl Material.002
s off
f 27/81/17 36/82/17 37/83/17 30/84/17
f 43/85/18 44/86/18 38/87/18 35/88/18
f 50/89/19 48/90/20 47/91/20 51/92/19
f 45/93/21 46/94/21 42/95/21 39/96/21
f 27/97/22 30/98/22 29/99/22 28/100/22
f 33/101/23 32/102/23 31/103/23 34/104/23
f 41/105/24 40/106/24 39/107/24 42/108/24
f 37/109/25 36/110/25 35/111/25 38/112/25
f 26/113/26 25/114/26 34/115/26 31/116/26
f 40/117/18 41/118/18 44/86/18 43/85/18
f 32/119/21 33/120/21 46/94/21 45/93/21
f 49/121/21 52/122/21 59/123/21 58/124/21
f 65/125/27 57/126/27 60/127/27 66/128/27
f 25/129/28 29/130/28 51/131/28 47/132/28
f 67/133/29 61/134/29 64/135/29 68/136/29
f 49/137/24 50/138/24 51/139/24 52/140/24
f 55/141/25 56/142/25 53/143/25 54/144/25
f 63/145/22 64/146/22 61/147/22 62/148/22
f 59/149/23 60/150/23 57/151/23 58/152/23
f 48/90/30 53/153/30 56/154/30 47/91/30
f 62/155/31 65/125/31 66/128/31 63/156/31
f 54/157/32 67/133/32 68/136/32 55/158/32
f 26/113/33 31/116/33 53/153/33 48/90/33
f 28/159/33 26/113/33 48/90/33 50/89/33
f 27/97/33 28/100/33 50/138/33 49/137/33
f 29/160/28 30/161/28 52/162/28 51/163/28
f 33/164/28 34/165/28 56/166/28 55/167/28
f 31/103/33 32/168/33 54/169/33 53/143/33
f 41/170/28 42/171/28 64/172/28 63/173/28
f 39/174/33 40/106/33 62/148/33 61/175/33
f 37/176/28 38/177/28 60/178/28 59/179/28
f 35/111/33 36/110/33 58/152/33 57/151/33
f 34/180/28 25/129/28 47/132/28 56/181/28
f 36/82/33 27/81/33 49/121/33 58/124/33
f 30/182/28 37/183/28 59/184/28 52/185/28
f 32/119/33 45/93/33 67/133/33 54/157/33
f 42/186/28 46/187/28 68/188/28 64/189/28
f 40/117/33 43/85/33 65/125/33 62/155/33
f 38/190/28 44/191/28 66/192/28 60/193/28
f 43/85/33 35/88/33 57/126/33 65/125/33
f 44/194/28 41/170/28 63/173/28 66/195/28
f 45/93/33 39/96/33 61/134/33 67/133/33
f 46/196/28 33/197/28 55/198/28 68/199/28
f 28/159/26 29/200/26 25/114/26 26/113/26
o Cube.002_Cube.001
v -0.603820 0.180000 0.146955
v -0.253820 0.180000 0.146955
v -0.253820 0.330000 0.006955
v -0.603820 0.330000 0.006955
v -0.253820 0.180000 -0.143045
v -0.603820 0.180000 -0.143045
v -0.603820 0.330000 0.006955
v -0.253820 0.330000 0.006955
v -0.603820 0.000000 -0.143045
v -0.253820 0.000000 -0.143045
v -0.603820 0.000000 0.146955
v -0.253820 0.000000 0.146955
v -0.173095 0.180000 0.108763
v 0.083645 0.180000 0.108763
v 0.083645 0.330000 0.006067
v -0.173095 0.330000 0.006067
v 0.083645 0.180000 -0.103965
v -0.173095 0.180000 -0.103965
v -0.173095 0.330000 0.006067
v 0.083645 0.330000 0.006067
v -0.173095 0.000000 -0.103965
v 0.083645 0.000000 -0.103965
v -0.173095 0.000000 0.108763
v 0.083645 0.000000 0.108763
vt 0.378171 0.018857
vt 0.404375 0.018857
vt 0.404375 0.034483
vt 0.378171 0.034483
vt 0.378171 0.018857
vt 0.404375 0.018857
vt 0.404375 0.034483
vt 0.378171 0.034483
vt 0.162167 0.200836
vt 0.180500 0.200836
vt 0.171283 0.208683
vt 0.171283 0.208683
vt 0.094344 0.079598
vt 0.094344 0.088829
vt 0.078438 0.088829
vt 0.078438 0.079598
vt 0.011802 0.026281
vt 0.011802 0.032541
vt 0.019906 0.032541
vt 0.019906 0.026281
vt 0.094344 0.079598
vt 0.094344 0.088829
vt 0.078438 0.088829
vt 0.078438 0.079598
vt 0.019906 0.026281
vt 0.019906 0.035512
vt 0.002732 0.035512
vt 0.002732 0.026281
vt 0.009553 0.038811
vt 0.013371 0.038811
vt 0.013371 0.044154
vt 0.009553 0.044154
vt 0.002216 0.051114
vt 0.020646 0.051114
vt 0.020646 0.051114
vt 0.002216 0.051114
vt 0.180500 0.200836
vt 0.162167 0.200836
vt 0.171283 0.208683
vt 0.171283 0.208683
vt 0.378171 0.018857
vt 0.404375 0.018857
vt 0.404375 0.034483
vt 0.378171 0.034483
vt 0.378171 0.018857
vt 0.404375 0.018857
vt 0.404375 0.034483
vt 0.378171 0.034483
vt 0.162167 0.200836
vt 0.180500 0.200836
vt 0.171283 0.208683
vt 0.171283 0.208683
vt 0.094344 0.079598
vt 0.094344 0.088829
vt 0.078438 0.088829
vt 0.078438 0.079598
vt 0.011802 0.026281
vt 0.011802 0.032541
vt 0.019906 0.032541
vt 0.019906 0.026281
vt 0.094344 0.079598
vt 0.094344 0.088829
vt 0.078438 0.088829
vt 0.078438 0.079598
vt 0.019906 0.026281
vt 0.019906 0.035512
vt 0.002732 0.035512
vt 0.002732 0.026281
vt 0.009553 0.038811
vt 0.013371 0.038811
vt 0.013371 0.044154
vt 0.009553 0.044154
vt 0.002216 0.051114
vt 0.020646 0.051114
vt 0.020646 0.051114
vt 0.002216 0.051114
vt 0.180500 0.200836
vt 0.162167 0.200836
vt 0.171283 0.208683
vt 0.171283 0.208683
vn 0.0000 0.6823 0.7311
vn 0.0000 0.7071 -0.7071
vn -1.0000 0.0000 0.0000
vn 0.0000 0.0000 -1.0000
vn 0.0000 0.0000 1.0000
vn 1.0000 0.0000 0.0000
vn 0.0000 -1.0000 0.0000
vn 0.0000 0.5649 0.8251
vn 0.0000 0.5915 -0.8063
usemtl Material.002
s 1
f 69/201/34 70/202/34 71/203/34 72/204/34
f 73/205/35 74/206/35 75/207/35 76/208/35
f 74/209/36 69/210/36 72/211/36 75/212/36
f 77/213/37 74/214/37 73/215/37 78/216/37
f 79/217/36 69/218/36 74/219/36 77/220/36
f 80/221/38 70/222/38 69/223/38 79/224/38
f 78/225/39 73/226/39 70/227/39 80/228/39
f 77/229/40 78/230/40 80/231/40 79/232/40
f 76/233/38 75/234/38 72/235/38 71/236/38
f 70/237/39 73/238/39 76/239/39 71/240/39
f 81/241/41 82/242/41 83/243/41 84/244/41
f 85/245/42 86/246/42 87/247/42 88/248/42
f 86/249/36 81/250/36 84/251/36 87/252/36
f 89/253/37 86/254/37 85/255/37 90/256/37
f 91/257/36 81/258/36 86/259/36 89/260/36
f 92/261/38 82/262/38 81/263/38 91/264/38
f 90/265/39 85/266/39 82/267/39 92/268/39
f 89/269/40 90/270/40 92/271/40 91/272/40
f 88/273/38 87/274/38 84/275/38 83/276/38
f 82/277/39 85/278/39 88/279/39 83/280/39
o Cube.002_Cube.004
v -0.301453 0.180000 -0.614212
v -0.301453 0.180000 -0.264212
v -0.161453 0.330000 -0.264212
v -0.161453 0.330000 -0.614212
v -0.011453 0.180000 -0.264212
v -0.011453 0.180000 -0.614212
v -0.161453 0.330000 -0.614212
v -0.161453 0.330000 -0.264212
v -0.011453 0.000000 -0.614212
v -0.011453 0.000000 -0.264212
v -0.301453 0.000000 -0.614212
v -0.301453 0.000000 -0.264212
vt 0.404375 0.018857
vt 0.378171 0.018857
vt 0.378171 0.034483
vt 0.404375 0.034483
vt 0.378171 0.018857
vt 0.404375 0.018857
vt 0.404375 0.034483
vt 0.378171 0.034483
vt 0.162217 0.200836
vt 0.180550 0.200836
vt 0.171333 0.208683
vt 0.171333 0.208683
vt 0.094344 0.079598
vt 0.094344 0.088829
vt 0.078438 0.088829
vt 0.078438 0.079598
vt 0.011802 0.026281
vt 0.011802 0.032541
vt 0.019906 0.032541
vt 0.019906 0.026281
vt 0.094344 0.079598
vt 0.094344 0.088829
vt 0.078438 0.088829
vt 0.078438 0.079598
vt 0.019906 0.026281
vt 0.019906 0.035512
vt 0.002732 0.035512
vt 0.002732 0.026281
vt 0.009553 0.038811
vt 0.013371 0.038811
vt 0.013371 0.044154
vt 0.009553 0.044154
vt 0.002216 0.051114
vt 0.020646 0.051114
vt 0.020646 0.051114
vt 0.002216 0.051114
vt 0.180550 0.200836
vt 0.162217 0.200836
vt 0.171333 0.208683
vt 0.171333 0.208683
vn -0.7311 0.6823 0.0000
vn 0.7071 0.7071 0.0000
vn 0.0000 0.0000 -1.0000
vn 1.0000 0.0000 0.0000
vn -1.0000 0.0000 0.0000
vn 0.0000 0.0000 1.0000
vn 0.0000 -1.0000 0.0000
vn 0.0000 0.0000 0.0000
usemtl Material.002
s 1
f 93/281/43 94/282/43 95/283/43 96/284/43
f 97/285/44 98/286/44 99/287/44 100/288/44
f 98/289/45 93/290/45 96/291/45 99/292/45
f 101/293/46 98/294/46 97/295/46 102/296/46
f 103/297/45 93/298/45 98/299/45 101/300/45
f 104/301/47 94/302/47 93/303/47 103/304/47
f 102/305/48 97/306/48 94/307/48 104/308/48
f 101/309/49 102/310/49 104/311/49 103/312/49
f 100/313/50 99/314/50 96/315/50 95/316/50
f 94/317/48 97/318/48 100/319/48 95/320/48
o Cube_Cube.001
v 0.611961 0.110000 0.489989
v 0.612419 0.110000 0.169990
v 0.472877 0.270690 0.169790
v 0.472419 0.270690 0.489789
v 0.347290 0.110000 0.169610
v 0.346831 0.110000 0.489610
v 0.472419 0.270690 0.489789
v 0.472877 0.270690 0.169790
v 0.346832 -0.000000 0.489610
v 0.347290 -0.000000 0.169610
v 0.611961 -0.000000 0.489989
v 0.612419 -0.000000 0.169990
vt 0.378171 0.018857
vt 0.404375 0.018857
vt 0.404375 0.034483
vt 0.378171 0.034483
vt 0.378171 0.018857
vt 0.404375 0.018857
vt 0.404375 0.034483
vt 0.378171 0.034483
vt 0.162175 0.200836
vt 0.180627 0.200836
vt 0.171313 0.208683
vt 0.171313 0.208683
vt 0.093891 0.079652
vt 0.093891 0.088883
vt 0.078571 0.088883
vt 0.078571 0.079652
vt 0.002758 0.026456
vt 0.002758 0.035073
vt 0.020484 0.035073
vt 0.020484 0.026456
vt 0.094578 0.079190
vt 0.094578 0.088421
vt 0.070732 0.088421
vt 0.070732 0.079190
vt 0.052423 0.092699
vt 0.052423 0.101930
vt 0.035472 0.101930
vt 0.035472 0.092699
vt 0.037931 0.105229
vt 0.043275 0.105229
vt 0.043275 0.110572
vt 0.037931 0.110572
vt 0.027660 0.117532
vt 0.053460 0.117532
vt 0.053460 0.117532
vt 0.027660 0.117532
vt 0.180627 0.200836
vt 0.162175 0.200836
vt 0.171313 0.208683
vt 0.171313 0.208683
vn 0.7550 0.6557 0.0011
vn -0.7879 0.6158 -0.0011
vn -0.0014 -0.0000 1.0000
vn -1.0000 0.0000 -0.0014
vn 1.0000 0.0000 0.0014
vn 0.0014 0.0000 -1.0000
vn -0.0000 -1.0000 0.0000
vn 0.0000 0.0000 0.0000
usemtl Material.002
s 1
f 105/321/51 106/322/51 107/323/51 108/324/51
f 109/325/52 110/326/52 111/327/52 112/328/52
f 110/329/53 105/330/53 108/331/53 111/332/53
f 113/333/54 110/334/54 109/335/54 114/336/54
f 115/337/53 105/338/53 110/339/53 113/340/53
f 116/341/55 106/342/55 105/343/55 115/344/55
f 114/345/56 109/346/56 106/347/56 116/348/56
f 113/349/57 114/350/57 116/351/57 115/352/57
f 112/353/58 111/354/58 108/355/58 107/356/58
f 106/357/56 109/358/56 112/359/56 107/360/56
o Cube.002_Cube.002_Cube.002_Cube.005
v 0.000000 0.000000 0.502367
v 0.000000 0.440000 0.502367
v 0.000000 0.000000 0.272367
v 0.000000 0.440000 0.272367
v 0.310000 0.000000 0.502367
v 0.310000 0.440000 0.502367
v 0.310000 0.000000 0.272367
v 0.310000 0.440000 0.272367
v 0.150000 0.000000 0.272367
v 0.150000 0.440000 0.272367
v 0.150000 0.000000 0.502367
v 0.150000 0.440000 0.502367
v 0.310000 0.000000 0.152367
v 0.310000 0.440000 0.152367
v 0.150000 0.000000 0.152367
v 0.150000 0.440000 0.152367
v 0.000000 0.000000 -0.290000
v 0.000000 0.440000 -0.290000
v 0.000000 0.000000 -0.520000
v 0.000000 0.440000 -0.520000
v 0.310000 0.000000 -0.290000
v 0.310000 0.440000 -0.290000
v 0.310000 0.000000 -0.520000
v 0.310000 0.440000 -0.520000
vt 0.146341 0.163067
vt 0.146341 0.181874
vt 0.161332 0.181874
vt 0.161332 0.163067
vt 0.195601 0.189761
vt 0.212147 0.189761
vt 0.212147 0.200363
vt 0.195601 0.200363
vt 0.161332 0.163067
vt 0.161332 0.181874
vt 0.146341 0.181874
vt 0.146341 0.163067
vt 0.146341 0.163067
vt 0.146341 0.181874
vt 0.161332 0.181874
vt 0.161332 0.163067
vt 0.250000 0.500000
vt 0.375000 0.500000
vt 0.375000 0.750000
vt 0.250000 0.750000
vt 0.179845 0.189761
vt 0.179845 0.165677
vt 0.195601 0.165677
vt 0.212147 0.165677
vt 0.161105 0.163005
vt 0.161236 0.180691
vt 0.147414 0.180850
vt 0.147283 0.163165
vt 0.161332 0.163067
vt 0.161332 0.181874
vt 0.146341 0.181874
vt 0.146341 0.163067
vt 0.161332 0.163067
vt 0.161332 0.181874
vt 0.146341 0.181874
vt 0.146341 0.163067
vt 0.250000 0.500000
vt 0.375000 0.500000
vt 0.154153 0.181874
vt 0.154153 0.163067
vt 0.161332 0.163067
vt 0.161332 0.181874
vt 0.146341 0.163067
vt 0.146341 0.181874
vt 0.161332 0.181874
vt 0.161332 0.163067
vt 0.161332 0.163067
vt 0.161332 0.181874
vt 0.146341 0.181874
vt 0.146341 0.163067
vt 0.161332 0.181874
vt 0.161332 0.163067
vt 0.146125 0.163067
vt 0.146125 0.181874
vt 0.211744 0.168167
vt 0.180128 0.168167
vt 0.180128 0.190109
vt 0.211744 0.190109
vn -1.0000 0.0000 0.0000
vn 0.0000 1.0000 0.0000
vn 1.0000 0.0000 0.0000
vn 0.0000 0.0000 1.0000
vn 0.0000 -1.0000 0.0000
vn 0.0000 0.0000 -1.0000
usemtl Material.002
s off
f 117/361/59 118/362/59 120/363/59 119/364/59
f 126/365/60 124/366/60 130/367/60 132/368/60
f 123/369/61 124/370/61 122/371/61 121/372/61
f 127/373/62 128/374/62 118/375/62 117/376/62
f 125/377/63 123/378/63 121/379/63 127/380/63
f 126/365/60 120/381/60 118/382/60 128/383/60
f 124/366/60 126/365/60 128/383/60 122/384/60
f 119/385/63 125/386/63 127/387/63 117/388/63
f 121/389/62 122/390/62 128/374/62 127/373/62
f 119/364/64 120/363/64 126/391/64 125/392/64
f 131/393/64 132/394/64 130/395/64 129/396/64
f 123/378/63 125/377/63 131/397/63 129/398/63
f 125/392/59 126/391/59 132/394/59 131/393/59
f 124/399/61 123/400/61 129/401/61 130/402/61
f 133/403/59 134/404/59 136/405/59 135/406/59
f 139/407/61 140/408/61 138/409/61 137/410/61
f 137/410/62 138/409/62 134/411/62 133/412/62
f 135/413/64 136/414/64 140/408/64 139/407/64
f 134/415/60 138/416/60 140/417/60 136/418/60
o Cube.002_Cube.005_Cube.002_Cube.006
v 0.030000 0.440000 -0.340000
v 0.030000 0.560000 -0.340000
v 0.030000 0.560000 -0.480000
v 0.030000 0.440000 -0.480000
v 0.210000 0.560000 -0.480000
v 0.210000 0.440000 -0.480000
v 0.210000 0.560000 -0.340000
v 0.210000 0.440000 -0.340000
vt 0.161332 0.163067
vt 0.161332 0.181874
vt 0.146341 0.181874
vt 0.146341 0.163067
vt 0.208150 0.233197
vt 0.186546 0.233197
vt 0.186546 0.223721
vt 0.208150 0.223721
vt 0.146125 0.163067
vt 0.146125 0.181874
vt 0.161332 0.181874
vt 0.161332 0.163067
vt 0.146341 0.163067
vt 0.146341 0.181874
vt 0.161332 0.181874
vt 0.161332 0.163067
vn 1.0000 0.0000 0.0000
vn 0.0000 1.0000 0.0000
vn 0.0000 0.0000 -1.0000
vn 0.0000 0.0000 1.0000
vn -1.0000 0.0000 0.0000
usemtl Material.002
s off
f 146/419/65 145/420/65 147/421/65 148/422/65
f 142/423/66 147/424/66 145/425/66 143/426/66
f 144/427/67 143/428/67 145/420/67 146/419/67
f 148/422/68 147/421/68 142/429/68 141/430/68
f 141/431/69 142/432/69 143/433/69 144/434/69
o Grid.001
v -0.700000 0.470000 0.220000
v -0.700000 0.000000 0.220000
v -0.206272 0.471568 0.218329
v -0.206272 -0.000000 0.218329
v -0.699048 0.470000 0.289998
v -0.699048 -0.000000 0.289998
v -0.205321 0.471568 0.288327
v -0.205321 -0.000000 0.288327
vt 0.144004 0.159682
vt 0.144004 0.181856
vt 0.161486 0.181856
vt 0.161486 0.159682
vt 0.144004 0.159682
vt 0.161486 0.159682
vt 0.161486 0.181856
vt 0.144004 0.181856
vt 0.153836 0.159682
vt 0.153348 0.181856
vt 0.125297 0.200931
vt 0.125297 0.171611
vt 0.139012 0.171611
vt 0.139012 0.200931
vn -0.0034 0.0000 -1.0000
vn 0.0034 -0.0000 1.0000
vn -0.9999 0.0000 0.0136
vn 0.9999 -0.0000 -0.0136
vn -0.0032 1.0000 0.0000
vn -0.0000 -1.0000 -0.0000
usemtl Material.002
s off
f 150/435/70 149/436/70 151/437/70 152/438/70
f 154/439/71 156/440/71 155/441/71 153/442/71
f 149/436/72 150/435/72 154/439/72 153/442/72
f 152/443/73 151/444/73 155/441/73 156/440/73
f 151/445/74 149/446/74 153/447/74 155/448/74
f 150/435/75 152/438/75 156/440/75 154/439/75
o Cube.002_Cube.006_Cube.002_Cube.007
v 0.410000 0.000000 -0.310000
v 0.410000 0.750000 -0.310000
v 0.410000 0.000000 -0.490000
v 0.410000 0.750000 -0.490000
v 0.590000 0.000000 -0.310000
v 0.590000 0.750000 -0.310000
v 0.590000 0.000000 -0.490000
v 0.590000 0.750000 -0.490000
v 0.410000 0.269684 -0.310000
v 0.410000 0.269684 -0.490000
v 0.590000 0.269684 -0.490000
v 0.590000 0.269684 -0.310000
v -0.298874 0.000000 0.502871
v -0.298874 0.750000 0.502871
v -0.298874 0.000000 0.322871
v -0.298874 0.750000 0.322871
v -0.118874 0.000000 0.502871
v -0.118874 0.750000 0.502871
v -0.118874 0.000000 0.322871
v -0.118874 0.750000 0.322871
v -0.298874 0.269684 0.502871
v -0.298874 0.269684 0.322871
v -0.118874 0.269684 0.322871
v -0.118874 0.269684 0.502871
vt 0.215243 0.216579
vt 0.215243 0.240508
vt 0.226531 0.240508
vt 0.226531 0.216579
vt 0.226531 0.216579
vt 0.226531 0.240508
vt 0.215243 0.240508
vt 0.215243 0.216579
vt 0.226531 0.240508
vt 0.226531 0.216579
vt 0.215243 0.216579
vt 0.215243 0.240508
vt 0.226531 0.241000
vt 0.215243 0.241000
vt 0.215243 0.249854
vt 0.226531 0.249854
vt 0.215243 0.232891
vt 0.226531 0.232891
vt 0.215243 0.232891
vt 0.226531 0.232891
vt 0.215243 0.232891
vt 0.226531 0.232891
vt 0.215243 0.216579
vt 0.215243 0.240508
vt 0.226531 0.240508
vt 0.226531 0.216579
vt 0.226531 0.216579
vt 0.226531 0.240508
vt 0.215243 0.240508
vt 0.215243 0.216579
vt 0.226531 0.240508
vt 0.226531 0.216579
vt 0.215243 0.216579
vt 0.215243 0.240508
vt 0.226531 0.241000
vt 0.215243 0.241000
vt 0.215243 0.249854
vt 0.226531 0.249854
vt 0.215243 0.232891
vt 0.226531 0.232891
vt 0.215243 0.232891
vt 0.226531 0.232891
vt 0.215243 0.232891
vt 0.226531 0.232891
vn -1.0000 0.0000 0.0000
vn 1.0000 0.0000 0.0000
vn 0.0000 0.0000 1.0000
vn 0.0000 0.0000 -1.0000
vn 0.0000 1.0000 0.0000
usemtl Material.002
s off
f 165/449/76 158/450/76 160/451/76 166/452/76
f 167/453/77 164/454/77 162/455/77 168/456/77
f 168/456/78 162/455/78 158/457/78 165/458/78
f 166/459/79 160/460/79 164/454/79 167/453/79
f 158/461/80 162/462/80 164/463/80 160/464/80
f 159/465/79 166/459/79 167/453/79 163/466/79
f 161/467/78 168/456/78 165/458/78 157/468/78
f 163/466/77 167/453/77 168/456/77 161/467/77
f 157/469/76 165/449/76 166/452/76 159/470/76
f 177/471/76 170/472/76 172/473/76 178/474/76
f 179/475/77 176/476/77 174/477/77 180/478/77
f 180/478/78 174/477/78 170/479/78 177/480/78
f 178/481/79 172/482/79 176/476/79 179/475/79
f 170/483/80 174/484/80 176/485/80 172/486/80
f 171/487/79 178/481/79 179/475/79 175/488/79
f 173/489/78 180/478/78 177/480/78 169/490/78
f 175/488/77 179/475/77 180/478/77 173/489/77
f 169/491/76 177/471/76 178/474/76 171/492/76
