# Blender v3.0.1 OBJ File: 'Poly_Tent_01.blend'
# www.blender.org
mtllib Poly_Tent_02.mtl
o Cube
v -1.203086 0.000000 -1.203086
v 0.000000 2.300000 0.000000
v -1.203086 0.000000 1.203086
v 0.000000 2.300000 0.000000
v 1.203086 0.000000 -1.203086
v 0.000000 2.300000 0.000000
v 1.203086 0.000000 1.203086
v 0.000000 2.300000 0.000000
v 0.000000 2.300000 0.000000
v 0.000000 0.000000 1.684320
v 0.000000 2.300000 0.000000
v 0.000000 0.000000 -1.440000
v 0.000000 2.300000 0.000000
v -1.684320 0.000000 0.000000
v 1.684320 0.000000 0.000000
v 0.000000 2.300000 0.000000
v 0.000000 2.300000 0.000000
v 0.000000 0.000000 0.000000
v -0.615047 1.357862 -0.615047
v 0.615047 1.357862 0.615047
v -0.615047 1.357862 0.615047
v 0.615047 1.357862 -0.615047
v 0.000000 1.357862 -0.820062
v 0.000000 1.357862 0.820062
v -0.820062 1.357862 0.000000
v 0.820062 1.357862 0.000000
v 0.000000 2.300000 0.000000
v 0.601543 0.000000 1.443703
v 0.000000 2.300000 0.000000
v 0.601543 0.000000 -1.443703
v 0.000000 2.300000 0.000000
v 0.842160 0.000000 0.000000
v 0.307523 1.357862 -0.717555
v 0.307523 1.357862 0.717555
v 0.000000 2.300000 0.000000
v -0.601543 0.000000 -1.443703
v 0.000000 2.300000 0.000000
v -0.601543 0.000000 1.443703
v -0.842160 0.000000 0.000000
v 0.000000 2.300000 0.000000
v -0.307523 1.357862 0.717555
v -0.307523 1.357862 -0.717555
v 0.792215 0.985118 0.792215
v -0.792215 0.985118 -0.792215
v -0.792215 0.985118 0.792215
v 0.792215 0.985118 -0.792215
v 0.000000 0.985118 -1.084962
v 0.000000 0.985118 1.084962
v -1.084962 0.985118 0.000000
v 1.084962 0.985118 0.000000
v 0.396107 0.985118 -0.938588
v 0.396107 0.985118 0.938588
v -0.396107 0.985118 0.938588
v -0.396107 0.985118 -0.938588
vt 0.407279 0.690940
vt 0.407279 0.690940
vt 0.407279 0.690940
vt 0.407279 0.690940
vt 0.357243 0.702638
vt 0.332838 0.648790
vt 0.346832 0.634276
vt 0.367581 0.692917
vt 0.346905 0.712360
vt 0.318843 0.662012
vt 0.346832 0.634276
vt 0.367581 0.692917
vt 0.407312 0.690940
vt 0.407312 0.690940
vt 0.407312 0.690940
vt 0.407312 0.690940
vt 0.346905 0.712360
vt 0.318843 0.662012
vt 0.346832 0.634276
vt 0.367581 0.692917
vt 0.387396 0.692455
vt 0.377105 0.634276
vt 0.346832 0.634276
vt 0.367581 0.692917
vt 0.387396 0.692455
vt 0.377105 0.634276
vt 0.407377 0.634276
vt 0.407211 0.691993
vt 0.407312 0.690940
vt 0.407312 0.690940
vt 0.407312 0.690940
vt 0.407312 0.690940
vt 0.357243 0.702639
vt 0.332838 0.648790
vt 0.346832 0.634276
vt 0.367581 0.692917
vt 0.407279 0.690940
vt 0.407279 0.690940
vt 0.407279 0.690940
vt 0.407279 0.690940
vt 0.407279 0.690940
vt 0.407279 0.690940
vt 0.407312 0.690940
vt 0.407312 0.690940
vt 0.346905 0.712361
vt 0.318843 0.662012
vt 0.346832 0.634276
vt 0.367581 0.692917
vt 0.407312 0.690940
vt 0.407312 0.690940
vt 0.346905 0.712361
vt 0.318843 0.662012
vt 0.346832 0.634276
vt 0.367581 0.692917
vt 0.407279 0.690940
vt 0.407279 0.690940
vt 0.406105 0.808603
vt 0.362522 0.740379
vt 0.379128 0.724831
vt 0.406105 0.808045
vt 0.406105 0.808603
vt 0.362522 0.740379
vt 0.379128 0.724831
vt 0.406105 0.808045
vt 0.406105 0.808324
vt 0.370825 0.732605
vt 0.379128 0.724831
vt 0.406105 0.808045
vt 0.406450 0.808423
vt 0.370825 0.732605
vt 0.379128 0.724831
vt 0.406676 0.807936
vt 0.406105 0.808640
vt 0.370825 0.732605
vt 0.379128 0.724831
vt 0.406105 0.808328
vt 0.406105 0.808951
vt 0.362522 0.740379
vt 0.379128 0.724831
vt 0.406105 0.808328
vt 0.406105 0.808951
vt 0.362522 0.740379
vt 0.379128 0.724831
vt 0.406105 0.808328
vt 0.406105 0.808640
vt 0.370825 0.732605
vt 0.379128 0.724831
vt 0.406105 0.808328
vt 0.406105 0.808951
vt 0.362522 0.740379
vt 0.406225 0.808911
vt 0.362522 0.740379
vt 0.407312 0.690940
vt 0.407312 0.690940
vt 0.407312 0.690940
vt 0.346905 0.712361
vt 0.318843 0.662012
vt 0.406105 0.808951
vt 0.362522 0.740379
vt 0.406105 0.808603
vt 0.362522 0.740379
vt 0.407279 0.690940
vt 0.407279 0.690940
vt 0.407279 0.690940
vt 0.346905 0.712361
vt 0.318843 0.662012
vt 0.407119 0.724831
vt 0.393124 0.724831
vt 0.393124 0.724831
vn 0.0000 -1.0000 0.0000
vn 0.3173 0.4796 0.8181
vn 0.8157 0.4842 -0.3164
vn 0.0000 0.0000 1.0000
vn -0.8157 0.4842 0.3164
vn -0.3173 0.4796 -0.8181
vn 0.1292 0.4080 -0.9038
vn -0.3155 0.4888 0.8133
vn -0.8157 0.4842 -0.3164
vn 0.8157 0.4842 0.3164
vn 0.7315 0.6367 0.2438
vn -0.7315 0.6367 -0.2438
vn -0.2438 0.6367 0.7315
vn 0.2438 0.6367 -0.7315
vn -0.2438 0.6367 -0.7315
vn -0.7315 0.6367 0.2438
vn 0.7315 0.6367 -0.2438
vn 0.2438 0.6367 0.7315
vn 0.3173 0.4796 -0.8181
vn 0.3155 0.4888 0.8133
vn -0.3173 0.4796 0.8181
vn -0.1292 0.4080 -0.9038
vn -0.2791 0.5474 -0.7890
vn -0.2831 0.5284 0.8004
vn 0.2791 0.5474 0.7890
vn 0.2831 0.5284 -0.8004
vn 0.7947 0.5380 0.2811
vn -0.7947 0.5380 -0.2811
vn -0.2791 0.5474 0.7890
vn 0.2791 0.5474 -0.7890
vn -0.2831 0.5284 -0.8004
vn -0.7947 0.5380 0.2811
vn 0.7947 0.5380 -0.2811
vn 0.2831 0.5284 0.8004
usemtl Material
s off
f 32/1/1 15/2/1 7/3/1 28/4/1
f 52/5/2 28/6/2 7/7/2 43/8/2
f 50/9/3 15/10/3 5/11/3 46/12/3
f 40/13/4 16/14/4 4/15/4 35/16/4
f 49/17/5 14/18/5 3/19/5 45/20/5
f 54/21/6 36/22/6 1/23/6 44/24/6
f 51/25/7 30/26/7 12/27/7 47/28/7
f 31/29/4 17/30/4 11/31/4 29/32/4
f 53/33/8 38/34/8 10/35/8 48/36/8
f 39/37/1 18/38/1 10/39/1 38/40/1
f 36/41/1 12/42/1 18/38/1 39/37/1
f 27/43/4 9/44/4 17/30/4 31/29/4
f 44/45/9 1/46/9 14/47/9 49/48/9
f 37/49/4 2/50/4 16/14/4 40/13/4
f 43/51/10 7/52/10 15/53/10 50/54/10
f 30/55/1 5/56/1 15/2/1 32/1/1
f 8/57/11 20/58/11 26/59/11 13/60/11
f 2/61/12 19/62/12 25/63/12 16/64/12
f 35/65/13 41/66/13 24/67/13 11/68/13
f 27/69/14 33/70/14 23/71/14 9/72/14
f 37/73/15 42/74/15 19/75/15 2/76/15
f 16/77/16 25/78/16 21/79/16 4/80/16
f 13/81/17 26/82/17 22/83/17 6/84/17
f 29/85/18 34/86/18 20/87/18 8/88/18
f 11/89/18 24/90/18 34/86/18 29/85/18
f 6/91/14 22/92/14 33/70/14 27/69/14
f 12/42/1 30/55/1 32/1/1 18/38/1
f 6/93/4 27/43/4 31/29/4 13/94/4
f 13/94/4 31/29/4 29/32/4 8/95/4
f 46/12/19 5/11/19 30/26/19 51/25/19
f 48/96/20 10/97/20 28/6/20 52/5/20
f 18/38/1 32/1/1 28/4/1 10/39/1
f 9/98/15 23/99/15 42/74/15 37/73/15
f 4/100/13 21/101/13 41/66/13 35/65/13
f 9/44/4 37/49/4 40/13/4 17/30/4
f 1/102/1 36/41/1 39/37/1 14/103/1
f 14/103/1 39/37/1 38/40/1 3/104/1
f 45/105/21 3/106/21 38/34/21 53/33/21
f 47/28/22 12/27/22 36/22/22 54/21/22
f 17/30/4 40/13/4 35/16/4 11/31/4
f 23/107/23 47/28/23 54/21/23 42/108/23
f 21/101/24 45/105/24 53/33/24 41/66/24
f 24/90/25 48/96/25 52/5/25 34/86/25
f 22/83/26 46/12/26 51/25/26 33/109/26
f 20/58/27 43/51/27 50/54/27 26/59/27
f 19/62/28 44/45/28 49/48/28 25/63/28
f 41/66/29 53/33/29 48/36/29 24/67/29
f 33/109/30 51/25/30 47/28/30 23/107/30
f 42/108/31 54/21/31 44/24/31 19/75/31
f 25/78/32 49/17/32 45/20/32 21/79/32
f 26/82/33 50/9/33 46/12/33 22/83/33
f 34/86/34 52/5/34 43/8/34 20/87/34
o Cube.001
v -0.650000 1.111813 -0.866641
v -0.650000 1.241813 -0.866641
v -0.650000 0.981813 -0.866641
v -0.650000 1.111813 -0.996641
v 0.420000 1.021813 -0.956641
v 0.420000 1.201813 -0.956641
v 0.420000 1.021813 -0.786641
v 0.420000 1.201813 -0.786641
v -0.420000 1.021813 -0.956641
v -0.420000 1.201813 -0.786641
v -0.420000 1.201813 -0.956641
v -0.420000 1.021813 -0.786641
v -0.650000 1.111813 -0.736641
v -0.650000 1.201813 -0.956641
v 0.420000 1.111813 -0.736641
v 0.420000 1.111813 -1.006641
v -0.420000 1.111813 -0.996641
v -0.420000 1.111813 -0.736641
v -0.650000 1.021813 -0.956641
v -0.650000 1.201813 -0.786641
v 0.420000 1.241813 -0.866641
v 0.420000 0.981813 -0.866641
v -0.420000 0.981813 -0.866641
v -0.420000 1.241813 -0.866641
v -0.650000 1.021813 -0.786641
v -0.600000 0.941813 -0.866641
v -0.600000 0.991813 -0.756641
v -0.600000 1.111813 -0.696641
v -0.600000 1.231813 -0.756641
v -0.600000 1.281813 -0.866641
v -0.600000 1.231813 -0.986641
v -0.600000 1.111813 -1.046641
v -0.600000 0.991813 -0.986641
v -0.390000 1.011813 -0.986641
v -0.390000 1.211813 -0.756641
v -0.390000 1.211813 -0.986641
v -0.390000 1.011813 -0.756641
v -0.390000 1.111813 -1.036641
v -0.390000 0.961813 -0.866641
v -0.390000 1.261813 -0.866641
v -0.390000 1.111813 -0.706641
v 0.390000 1.211813 -0.986641
v 0.600000 1.231813 -0.986641
v 0.600000 1.111813 -1.046641
v 0.600000 0.991813 -0.986641
v 0.600000 0.941813 -0.866641
v 0.600000 1.281813 -0.866641
v 0.600000 1.231813 -0.756641
v 0.600000 1.111813 -0.696641
v 0.600000 0.991813 -0.756641
v 0.390000 1.011813 -0.756641
v 0.390000 1.011813 -0.986641
v 0.390000 1.211813 -0.756641
v 0.390000 1.261813 -0.866641
v 0.390000 0.961813 -0.866641
v 0.390000 1.111813 -0.706641
v 0.390000 1.111813 -1.036641
v 0.650000 1.021813 -0.786641
v 0.650000 1.201813 -0.786641
v 0.650000 1.021813 -0.956641
v 0.650000 1.201813 -0.956641
v 0.650000 1.111813 -1.006641
v 0.650000 1.111813 -0.736641
v 0.650000 0.981813 -0.866641
v 0.650000 1.241813 -0.866641
v 0.650000 1.111813 -0.866641
v 0.650000 1.201813 -0.956641
v 0.650000 1.111813 -1.006641
v 0.650000 1.021813 -0.956641
v 0.650000 0.981813 -0.866641
v 0.650000 1.241813 -0.866641
v 0.650000 1.201813 -0.786641
v 0.650000 1.111813 -0.736641
v 0.650000 1.021813 -0.786641
v -0.650000 0.981813 -0.866641
v -0.650000 1.021813 -0.786641
v -0.650000 1.111813 -0.736641
v -0.650000 1.201813 -0.786641
v -0.650000 1.241813 -0.866641
v -0.650000 1.201813 -0.956641
v -0.650000 1.111813 -0.996641
v -0.650000 1.021813 -0.956641
v -0.004697 1.198219 -1.145851
v -0.004697 1.023535 -0.971168
v -0.004697 1.023535 -1.145851
v -0.004697 1.198219 -0.971168
v -0.004697 1.110877 -0.927498
v -0.004697 1.110877 -1.189522
v -0.004697 1.241889 -1.058510
v -0.004697 0.979865 -1.058510
vt 0.406809 0.885129
vt 0.406809 0.887701
vt 0.401547 0.887701
vt 0.401547 0.885129
vt 0.411999 0.887701
vt 0.411999 0.885129
vt 0.411999 0.885129
vt 0.411999 0.887701
vt 0.401547 0.889798
vt 0.401547 0.889798
vt 0.401547 0.887701
vt 0.406809 0.887701
vt 0.411999 0.887701
vt 0.411999 0.887701
vt 0.406809 0.887701
vt 0.406809 0.889798
vt 0.406383 0.889798
vt 0.388885 0.889798
vt 0.388885 0.885129
vt 0.406383 0.885129
vt 0.375996 0.889798
vt 0.375996 0.885129
vt 0.375996 0.885129
vt 0.375996 0.889798
vt 0.406383 0.885129
vt 0.406383 0.889798
vt 0.388885 0.889798
vt 0.388885 0.885129
vt 0.411999 0.887701
vt 0.406809 0.887701
vt 0.406809 0.887701
vt 0.411999 0.887701
vt 0.406383 0.889798
vt 0.423880 0.889798
vt 0.423880 0.885129
vt 0.406383 0.885129
vt 0.406383 0.885129
vt 0.406383 0.889798
vt 0.423880 0.889798
vt 0.423880 0.885129
vt 0.406383 0.889798
vt 0.388885 0.889798
vt 0.388885 0.885129
vt 0.406809 0.887701
vt 0.401547 0.887701
vt 0.401547 0.887701
vt 0.406809 0.887701
vt 0.406383 0.885129
vt 0.406383 0.889798
vt 0.388885 0.889798
vt 0.388885 0.885129
vt 0.406809 0.887701
vt 0.411999 0.887701
vt 0.411999 0.887701
vt 0.406809 0.887701
vt 0.411999 0.887701
vt 0.411999 0.887701
vt 0.375996 0.889798
vt 0.375996 0.885129
vt 0.375996 0.885129
vt 0.375996 0.889798
vt 0.406809 0.887701
vt 0.406809 0.887701
vt 0.435539 0.885129
vt 0.435539 0.889798
vt 0.435539 0.889798
vt 0.435539 0.885129
vt 0.375996 0.885129
vt 0.375996 0.889798
vt 0.375996 0.889798
vt 0.375996 0.885129
vt 0.406383 0.885129
vt 0.423880 0.885129
vt 0.406809 0.887701
vt 0.406809 0.887701
vt 0.411999 0.887701
vt 0.406809 0.887701
vt 0.406809 0.887701
vt 0.411999 0.887701
vt 0.401547 0.887701
vt 0.401547 0.887701
vt 0.375996 0.889798
vt 0.375996 0.885129
vt 0.375996 0.885129
vt 0.375996 0.889798
vt 0.435539 0.889798
vt 0.435539 0.885129
vt 0.435539 0.885129
vt 0.435539 0.889798
vt 0.423880 0.889798
vt 0.423880 0.885129
vt 0.435539 0.885129
vt 0.435539 0.889798
vt 0.423880 0.889798
vt 0.435539 0.889798
vt 0.423880 0.885129
vt 0.423880 0.889798
vt 0.423880 0.885129
vt 0.423880 0.889798
vt 0.435539 0.885129
vt 0.423880 0.885129
vt 0.423880 0.885129
vt 0.435539 0.885129
vt 0.435539 0.889798
vt 0.423880 0.889798
vt 0.435539 0.889798
vt 0.435539 0.885129
vt 0.435539 0.889798
vt 0.435539 0.885129
vt 0.401547 0.887701
vt 0.401547 0.887701
vt 0.435539 0.885129
vt 0.401547 0.887701
vt 0.401547 0.887701
vt 0.435539 0.889798
vt 0.388885 0.889798
vt 0.388885 0.885129
vt 0.388885 0.885129
vt 0.388885 0.889798
vt 0.388885 0.885129
vt 0.388885 0.889798
vt 0.375996 0.889798
vt 0.375996 0.885129
vt 0.388885 0.885129
vt 0.388885 0.889798
vt 0.375996 0.885129
vt 0.388885 0.885129
vt 0.388885 0.889798
vt 0.388885 0.885129
vt 0.375996 0.889798
vt 0.388885 0.889798
vt 0.401547 0.887701
vt 0.401547 0.887701
vt 0.375996 0.889798
vt 0.375996 0.885129
vt 0.375996 0.885129
vt 0.401547 0.887701
vt 0.401547 0.887701
vt 0.406809 0.887701
vt 0.406809 0.887701
vt 0.375996 0.889798
vt 0.411999 0.887701
vt 0.411999 0.887701
vt 0.401547 0.889798
vt 0.406809 0.889798
vt 0.406809 0.889798
vt 0.401547 0.889798
vt 0.406809 0.887701
vt 0.401547 0.887701
vt 0.411999 0.889798
vt 0.411999 0.887701
vt 0.411999 0.887701
vt 0.411999 0.889798
vt 0.411999 0.885129
vt 0.406809 0.885129
vt 0.406809 0.885129
vt 0.411999 0.885129
vt 0.401547 0.885129
vt 0.401547 0.887701
vt 0.401547 0.885129
vt 0.411999 0.889798
vt 0.401547 0.885129
vt 0.406809 0.885129
vt 0.411999 0.889798
vt 0.406809 0.889798
vt 0.423880 0.885129
vt 0.423880 0.889798
vt 0.388885 0.885129
vt 0.388885 0.889798
vt 0.423880 0.889798
vt 0.423880 0.885129
vt 0.423880 0.889798
vt 0.388885 0.885129
vt 0.388885 0.889798
vt 0.388885 0.885129
vt 0.423880 0.885129
vt 0.423880 0.889798
vt 0.423880 0.885129
vn -1.0000 0.0000 0.0000
vn 0.0000 0.0000 1.0000
vn 0.5488 -0.7683 0.3293
vn -0.1942 -0.8774 0.4387
vn 0.6047 -0.3696 -0.7055
vn 0.3592 0.4359 -0.8252
vn 0.5488 0.7683 0.3293
vn 0.2022 0.8760 0.4380
vn 0.3731 0.4333 0.8204
vn 0.3714 -0.4336 0.8210
vn 0.6935 -0.3356 -0.6376
vn 0.3609 -0.4356 -0.8247
vn -0.5488 0.7683 0.3293
vn 0.6935 0.3356 -0.6376
vn 0.6047 0.3696 -0.7055
vn -0.6935 0.3356 0.6376
vn -0.6056 -0.7192 0.3407
vn 0.6056 0.7192 0.3407
vn -0.1885 0.8882 -0.4191
vn 0.7476 -0.2843 0.6002
vn 0.1883 -0.8882 -0.4191
vn -0.5488 -0.7683 0.3293
vn 0.5543 -0.7522 -0.3563
vn -0.6935 -0.3356 0.6376
vn 0.6056 -0.7192 0.3407
vn -0.6059 0.7312 -0.3134
vn 0.0426 0.4468 0.8936
vn 0.0864 0.9070 0.4123
vn 0.0426 0.4468 -0.8936
vn 0.0864 -0.9070 0.4123
vn 0.0426 -0.4468 -0.8936
vn 0.0426 -0.4468 0.8936
vn 0.0876 -0.9195 -0.3831
vn 0.0876 0.9195 -0.3831
vn -0.6482 0.3274 -0.6875
vn -0.6056 0.7192 0.3407
vn -0.6047 0.3696 0.7055
vn -0.6047 -0.3696 0.7055
vn 0.7476 0.2843 0.6002
vn -0.6482 -0.3274 -0.6875
vn 0.5543 0.7522 -0.3563
vn -0.6059 -0.7312 -0.3134
vn -0.0426 0.4468 -0.8936
vn -0.0864 -0.9070 0.4123
vn -0.0864 0.9070 0.4123
vn -0.0426 0.4468 0.8936
vn -0.0426 -0.4468 0.8936
vn -0.0426 -0.4468 -0.8936
vn -0.0876 0.9195 -0.3831
vn -0.0876 -0.9195 -0.3831
vn -0.5543 -0.7522 -0.3563
vn 0.6059 -0.7312 -0.3134
vn 0.6047 0.3696 0.7055
vn 0.6047 -0.3696 0.7055
vn -0.5543 0.7522 -0.3563
vn -0.6935 -0.3356 -0.6376
vn 0.6059 0.7312 -0.3134
vn -0.6935 0.3356 -0.6376
vn 1.0000 -0.0000 0.0000
vn -0.1924 -0.8875 -0.4187
vn 0.1845 0.8889 -0.4194
vn -0.3838 -0.3940 -0.8351
vn -0.3643 -0.4349 0.8235
vn -0.3660 0.4346 0.8229
vn -0.1979 0.8767 0.4384
vn -0.3823 0.3943 -0.8357
vn 0.1984 -0.8766 0.4383
usemtl Material
s off
f 57/110/35 55/111/35 58/112/35 73/113/35
f 67/114/36 79/115/36 130/116/36 131/117/36
f 58/112/36 68/118/36 134/119/36 135/120/36
f 78/121/37 65/122/37 90/123/37 94/124/37
f 55/111/35 56/125/35 68/118/35 58/112/35
f 144/126/38 76/127/38 61/128/38 138/129/38
f 99/130/39 98/131/39 122/132/39 123/133/39
f 142/134/40 137/135/40 60/136/40 70/137/40
f 63/138/41 77/139/41 93/140/41 88/141/41
f 143/142/42 78/143/42 64/144/42 140/145/42
f 141/146/43 140/147/43 64/148/43 72/149/43
f 138/129/44 141/150/44 72/151/44 66/152/44
f 72/153/45 64/154/45 89/155/45 95/156/45
f 139/157/46 142/158/46 70/159/46 59/160/46
f 76/161/47 59/162/47 106/163/47 109/164/47
f 66/165/48 72/153/48 95/156/48 91/166/48
f 98/167/49 97/168/49 121/169/49 122/170/49
f 59/162/50 70/171/50 111/172/50 106/163/50
f 80/173/51 81/174/51 130/175/51 129/176/51
f 101/177/52 102/178/52 126/179/52 125/180/52
f 137/181/53 65/182/53 78/143/53 143/142/53
f 65/122/54 71/183/54 92/184/54 90/123/54
f 139/157/55 59/160/55 76/127/55 144/126/55
f 60/185/56 75/186/56 108/187/56 96/188/56
f 64/154/57 78/121/57 94/124/57 89/155/57
f 70/171/58 60/189/58 96/190/58 111/172/58
f 104/191/59 100/192/59 124/193/59 128/194/59
f 84/195/60 85/196/60 134/197/60 133/198/60
f 95/199/61 89/200/61 83/201/61 82/202/61
f 94/203/62 84/195/62 83/201/62 89/200/62
f 86/204/63 85/196/63 90/205/63 92/206/63
f 80/173/64 93/207/64 91/208/64 81/174/64
f 87/209/65 86/204/65 92/206/65 88/210/65
f 91/211/66 95/199/66 82/202/66 81/212/66
f 87/213/67 88/214/67 93/207/67 80/173/67
f 90/205/68 85/196/68 84/195/68 94/203/68
f 85/196/69 86/204/69 135/215/69 134/197/69
f 83/201/70 84/195/70 133/198/70 132/216/70
f 82/202/71 83/201/71 132/216/71 131/217/71
f 81/212/72 82/202/72 131/217/72 130/218/72
f 71/183/73 63/219/73 88/220/73 92/184/73
f 86/204/74 87/209/74 136/221/74 135/215/74
f 77/139/75 66/222/75 91/223/75 93/140/75
f 87/213/76 80/173/76 129/176/76 136/224/76
f 111/225/77 96/226/77 97/168/77 98/167/77
f 109/227/78 100/192/78 104/191/78 105/228/78
f 101/177/79 108/229/79 107/230/79 102/178/79
f 103/231/80 102/232/80 107/233/80 110/234/80
f 104/191/81 103/235/81 110/236/81 105/228/81
f 106/237/82 111/238/82 98/131/82 99/130/82
f 97/239/83 96/240/83 108/229/83 101/177/83
f 106/237/84 99/130/84 100/192/84 109/227/84
f 75/186/85 62/241/85 107/242/85 108/187/85
f 100/192/86 99/130/86 123/133/86 124/193/86
f 102/232/87 103/231/87 127/243/87 126/244/87
f 103/235/88 104/191/88 128/194/88 127/245/88
f 61/246/89 76/161/89 109/164/89 105/247/89
f 62/241/90 69/248/90 110/249/90 107/242/90
f 97/239/91 101/177/91 125/180/91 121/250/91
f 69/248/92 61/251/92 105/252/92 110/249/92
f 113/253/36 119/254/36 125/255/36 126/256/36
f 120/257/93 119/254/93 113/253/93 117/258/93
f 115/259/36 116/260/36 122/261/36 121/262/36
f 114/263/36 118/264/36 124/265/36 123/266/36
f 116/260/36 114/263/36 123/266/36 122/261/36
f 118/264/93 120/257/93 117/258/93 112/267/93
f 114/263/93 116/260/93 120/257/93 118/264/93
f 116/260/93 115/259/93 119/254/93 120/257/93
f 117/258/36 113/253/36 126/256/36 127/268/36
f 112/267/36 117/258/36 127/268/36 128/269/36
f 118/264/36 112/267/36 128/269/36 124/265/36
f 119/254/36 115/259/36 121/262/36 125/255/36
f 79/115/35 67/114/35 55/111/35 57/110/35
f 67/114/35 74/270/35 56/125/35 55/111/35
f 57/110/36 73/113/36 136/271/36 129/272/36
f 79/115/36 57/110/36 129/272/36 130/116/36
f 56/125/36 74/270/36 132/273/36 133/274/36
f 74/270/36 67/114/36 131/117/36 132/273/36
f 68/118/36 56/125/36 133/274/36 134/119/36
f 73/113/36 58/112/36 135/120/36 136/271/36
f 63/275/94 139/157/94 144/126/94 77/276/94
f 60/277/95 137/181/95 143/142/95 75/278/95
f 63/275/96 71/279/96 142/158/96 139/157/96
f 61/280/97 69/281/97 141/150/97 138/129/97
f 69/282/98 62/283/98 140/147/98 141/146/98
f 75/278/99 143/142/99 140/145/99 62/284/99
f 71/285/100 65/286/100 137/135/100 142/134/100
f 77/276/101 144/126/101 138/129/101 66/287/101
