# Blender 3.6.5
# www.blender.org
mtllib Poly_SF_Outside_B_Window_12.mtl
o Cube.001
v 0.500000 0.100000 -0.500000
v 0.500000 0.000000 -0.500000
v 0.500000 0.100000 -0.400000
v 0.500000 0.000000 -0.400000
v -0.500000 0.100000 -0.500000
v -0.500000 0.000000 -0.500000
v -0.500000 0.100000 -0.400000
v -0.500000 0.000000 -0.400000
v -0.500000 0.100000 -0.400000
v -0.500000 1.100000 -0.400000
v -0.500000 0.100000 -0.500000
v -0.500000 1.100000 -0.500000
v 0.500000 0.100000 -0.400000
v 0.500000 1.100000 -0.400000
v 0.500000 0.100000 -0.500000
v 0.500000 1.100000 -0.500000
v 0.500000 1.200000 -0.500000
v 0.500000 1.100000 -0.500000
v 0.500000 1.200000 -0.400000
v 0.500000 1.100000 -0.400000
v -0.500000 1.200000 -0.500000
v -0.500000 1.100000 -0.500000
v -0.500000 1.200000 -0.400000
v -0.500000 1.100000 -0.400000
vn -0.0000 -1.0000 -0.0000
vn -0.0000 -0.0000 1.0000
vn 1.0000 -0.0000 -0.0000
vn -1.0000 -0.0000 -0.0000
vn -0.0000 1.0000 -0.0000
vt 0.345636 0.470107
vt 0.341928 0.470107
vt 0.341928 0.473937
vt 0.345636 0.473937
vt 0.312683 0.473846
vt 0.312683 0.470138
vt 0.374882 0.470138
vt 0.374882 0.473846
vt 0.373615 0.470298
vt 0.313949 0.470298
vt 0.313949 0.473691
vt 0.373615 0.473691
vt 0.312683 0.470036
vt 0.312683 0.407577
vt 0.374882 0.407577
vt 0.374882 0.470036
vt 0.374907 0.470298
vt 0.371200 0.470298
vt 0.371200 0.473691
vt 0.374907 0.473691
vt 0.374907 0.473691
vt 0.371199 0.473691
vt 0.371199 0.470298
vt 0.374907 0.470298
s 0
usemtl regular
f 6/1/1 2/2/1 4/3/1 8/4/1
f 4/5/2 3/6/2 7/7/2 8/8/2
f 15/9/3 16/10/3 14/11/3 13/12/3
f 9/11/4 10/12/4 12/9/4 11/10/4
f 13/13/2 14/14/2 10/15/2 9/16/2
f 2/17/3 1/18/3 3/19/3 4/20/3
f 8/21/4 7/22/4 5/23/4 6/24/4
f 17/4/5 21/3/5 23/2/5 19/1/5
f 20/5/2 19/6/2 23/7/2 24/8/2
f 18/23/3 17/24/3 19/21/3 20/22/3
f 24/19/4 23/20/4 21/17/4 22/18/4
