# Blender 3.6.5
# www.blender.org
mtllib Poly_SF_Outside_B_Digital_Signage_02.mtl
o Cube.001
v -0.700000 0.700000 -0.400000
v 0.700000 0.700000 -0.400000
v -0.700000 0.000000 -0.400000
v 0.700000 0.000000 -0.400000
v -0.700000 0.700000 -0.500000
v 0.700000 0.700000 -0.500000
v -0.700000 0.000000 -0.500000
v 0.700000 0.000000 -0.500000
vn -0.0000 -0.0000 1.0000
vn -0.0000 -0.0000 -1.0000
vn -0.0000 -1.0000 -0.0000
vn -0.0000 1.0000 -0.0000
vn 1.0000 -0.0000 -0.0000
vn -1.0000 -0.0000 -0.0000
vt 0.127700 0.057262
vt 0.127700 0.000171
vt 0.247309 0.000171
vt 0.247309 0.057262
vt 0.521724 0.368851
vt 0.641333 0.368851
vt 0.641333 0.327549
vt 0.521724 0.327549
vt 0.125084 0.062459
vt 0.125084 0.058703
vt 0.249913 0.058703
vt 0.249913 0.062459
s 0
usemtl regular
f 1/1/1 3/2/1 4/3/1 2/4/1
f 5/5/2 6/6/2 8/7/2 7/8/2
f 3/9/3 7/10/3 8/11/3 4/12/3
f 2/12/4 6/11/4 5/10/4 1/9/4
f 4/10/5 8/9/5 6/12/5 2/11/5
f 1/11/6 5/12/6 7/9/6 3/10/6
