# Blender 3.6.5
# www.blender.org
mtllib Poly_SF_Outside_B_Stall_Goods_03.mtl
o Cube.001
v 0.418645 0.000586 -0.078772
v 0.348426 0.000586 -0.038232
v 0.348426 0.000586 0.042849
v 0.418645 0.000586 0.083390
v 0.488863 0.000586 0.042849
v 0.488863 0.000586 -0.038232
v 0.419408 0.261550 -0.116014
v 0.316937 0.261550 -0.056853
v 0.316937 0.261550 0.061470
v 0.419408 0.261550 0.120632
v 0.521879 0.261550 0.061470
v 0.521879 0.261550 -0.056853
v -0.274190 0.128751 -0.055600
v -0.322340 0.128751 -0.027800
v -0.322340 0.128751 0.027800
v -0.274190 0.128751 0.055600
v -0.226039 0.128751 0.027800
v -0.226039 0.128751 -0.027800
v -0.272965 0.517162 -0.189688
v -0.437240 0.517162 -0.094844
v -0.437240 0.517162 0.094844
v -0.272965 0.517162 0.189688
v -0.108691 0.517162 0.094844
v -0.108691 0.517162 -0.094844
v -0.272965 0.613211 -0.111613
v -0.369625 0.613211 -0.055807
v -0.369625 0.613211 0.055807
v -0.272965 0.613211 0.111613
v -0.176305 0.613211 0.055807
v -0.176305 0.613211 -0.055807
v -0.148113 0.266974 -0.072610
v -0.273877 0.266974 -0.145220
v -0.273877 0.266974 0.145220
v -0.148113 0.266974 0.072610
v -0.399642 0.266974 -0.072610
v -0.399642 0.266974 0.072610
v -0.437147 0.001639 0.158052
v -0.400058 0.185165 0.120962
v -0.437147 0.001639 -0.158052
v -0.400058 0.185165 -0.120962
v -0.121043 0.001639 0.158052
v -0.158133 0.185165 0.120962
v -0.121043 0.001639 -0.158052
v -0.158133 0.185165 -0.120962
v -0.437147 0.001639 -0.000000
v -0.400058 0.185165 -0.000000
v -0.121043 0.001639 -0.000000
v -0.158133 0.185165 -0.000000
v -0.437147 0.137143 0.158052
v -0.437147 0.137143 -0.158052
v -0.121043 0.137143 -0.158052
v -0.121043 0.137143 0.158052
v -0.121043 0.137143 -0.000000
v -0.437147 0.137143 -0.000000
vn 0.4961 -0.1241 -0.8593
vn 0.4961 -0.1241 0.8593
vn -0.9928 -0.1198 -0.0000
vn 0.9921 -0.1255 -0.0000
vn -0.4963 -0.1212 0.8596
vn -0.4963 -0.1212 -0.8596
vn -0.0000 1.0000 -0.0000
vn -0.0000 -1.0000 -0.0000
vn 0.4940 -0.1539 -0.8557
vn 0.4940 -0.1539 0.8557
vn -0.9889 -0.1486 -0.0000
vn 0.9878 -0.1556 -0.0000
vn -0.4943 -0.1504 0.8562
vn -0.4943 -0.1504 -0.8562
vn 0.8177 0.5756 -0.0000
vn -0.4089 0.5756 0.7082
vn -0.4089 0.5756 -0.7082
vn 0.4089 0.5756 -0.7082
vn 0.4089 0.5756 0.7082
vn -0.8177 0.5756 -0.0000
vn -0.4362 -0.4889 -0.7555
vn -0.4362 -0.4889 0.7555
vn 0.8711 -0.4911 -0.0000
vn -0.8728 -0.4881 -0.0000
vn 0.4358 -0.4904 0.7548
vn 0.4358 -0.4904 -0.7548
vn -0.7914 0.6113 -0.0000
vn -0.0000 0.6113 -0.7914
vn 0.7914 0.6113 -0.0000
vn -0.0000 0.6113 0.7914
vn -1.0000 -0.0000 -0.0000
vn 1.0000 -0.0000 -0.0000
vn -0.0000 -0.0000 1.0000
vn -0.0000 -0.0000 -1.0000
vt 0.740227 0.191578
vt 0.740227 0.200538
vt 0.743717 0.200538
vt 0.742605 0.191578
vt 0.736813 0.200538
vt 0.737874 0.191578
vt 0.737600 0.202048
vt 0.742794 0.202063
vt 0.745378 0.205415
vt 0.742768 0.208213
vt 0.737574 0.208198
vt 0.734990 0.205385
vt 0.737224 0.190359
vt 0.740216 0.190359
vt 0.743242 0.190359
vt 0.700526 0.201785
vt 0.700526 0.213875
vt 0.698150 0.213875
vt 0.699339 0.201785
vt 0.698150 0.201785
vt 0.699337 0.201785
vt 0.705543 0.213703
vt 0.705543 0.217229
vt 0.698681 0.217229
vt 0.695579 0.213703
vt 0.696264 0.197643
vt 0.700526 0.197643
vt 0.704834 0.197643
vt 0.698796 0.216336
vt 0.703522 0.216350
vt 0.705874 0.219400
vt 0.703499 0.221947
vt 0.698772 0.221933
vt 0.696420 0.219373
vt 0.698636 0.217229
vt 0.695534 0.213703
vt 0.698150 0.197643
vt 0.701031 0.196792
vt 0.701057 0.199190
vt 0.695190 0.199190
vt 0.694412 0.196792
vt 0.707328 0.199190
vt 0.708107 0.196792
vt 0.695190 0.199190
vt 0.694412 0.196793
vt 0.708107 0.196793
vt 0.707328 0.199190
vt 0.692798 0.192561
vt 0.709432 0.192561
vt 0.709432 0.187737
vt 0.692798 0.187737
vt 0.694412 0.196793
vt 0.693012 0.187623
vt 0.693065 0.193902
vt 0.700990 0.193902
vt 0.700990 0.187623
vt 0.693012 0.193902
vt 0.709462 0.187623
vt 0.709463 0.196441
vt 0.693065 0.196441
vt 0.693117 0.187623
vt 0.693012 0.193902
vt 0.693065 0.196441
vt 0.709462 0.196441
vt 0.693065 0.193902
s 0
usemtl regular
f 1/1/1 7/2/1 12/3/1 6/4/1
f 5/4/2 11/3/2 10/2/2 4/1/2
f 3/1/3 9/2/3 8/5/3 2/6/3
f 6/1/4 12/2/4 11/3/4 5/4/4
f 4/1/5 10/2/5 9/5/5 3/6/5
f 2/6/6 8/5/6 7/2/6 1/1/6
f 8/7/7 9/8/7 10/9/7 11/10/7 12/11/7 7/12/7
f 2/13/8 1/14/8 6/14/8 5/15/8 4/14/8 3/14/8
f 32/16/9 19/17/9 24/18/9 31/19/9
f 34/20/10 23/18/10 22/17/10 33/16/10
f 36/21/11 21/17/11 20/18/11 35/20/11
f 31/19/12 24/17/12 23/18/12 34/20/12
f 33/16/13 22/17/13 21/18/13 36/21/13
f 35/20/14 20/18/14 19/17/14 32/16/14
f 24/22/15 30/23/15 29/24/15 23/25/15
f 14/26/8 13/27/8 18/27/8 17/28/8 16/27/8 15/27/8
f 26/29/7 27/30/7 28/31/7 29/32/7 30/33/7 25/34/7
f 22/22/16 28/23/16 27/35/16 21/36/16
f 20/36/17 26/35/17 25/23/17 19/22/17
f 19/22/18 25/23/18 30/24/18 24/25/18
f 23/25/19 29/24/19 28/23/19 22/22/19
f 21/22/20 27/23/20 26/35/20 20/36/20
f 14/37/21 35/20/21 32/16/21 13/27/21
f 16/27/22 33/16/22 36/21/22 15/37/22
f 18/27/23 31/19/23 34/20/23 17/37/23
f 15/27/24 36/21/24 35/20/24 14/37/24
f 17/37/25 34/20/25 33/16/25 16/27/25
f 13/27/26 32/16/26 31/19/26 18/37/26
f 54/38/27 46/39/27 40/40/27 50/41/27
f 50/41/28 40/40/28 44/42/28 51/43/28
f 53/38/29 48/39/29 42/44/29 52/45/29
f 52/46/30 42/47/30 38/44/30 49/45/30
f 45/48/8 47/49/8 41/50/8 37/51/8
f 48/49/7 46/48/7 38/51/7 42/50/7
f 44/50/7 40/51/7 46/48/7 48/49/7
f 39/51/8 43/50/8 47/49/8 45/48/8
f 51/52/29 44/40/29 48/39/29 53/38/29
f 49/45/27 38/44/27 46/39/27 54/38/27
f 37/53/31 49/54/31 54/55/31 45/56/31
f 43/53/32 51/57/32 53/55/32 47/56/32
f 41/58/33 52/59/33 49/60/33 37/61/33
f 47/56/32 53/55/32 52/62/32 41/53/32
f 39/61/34 50/63/34 51/64/34 43/58/34
f 45/56/31 54/55/31 50/65/31 39/53/31
o Cube.002
v 0.214946 0.000000 -0.225982
v 0.109684 0.000000 -0.164579
v 0.109684 0.000000 -0.059318
v 0.214946 0.000000 0.002085
v 0.311435 0.000000 -0.059318
v 0.311435 0.000000 -0.164579
v 0.214946 0.311906 -0.234754
v 0.109684 0.311906 -0.164579
v 0.109684 0.311906 -0.059318
v 0.214946 0.311906 0.010857
v 0.311435 0.311906 -0.059318
v 0.311435 0.311906 -0.164579
v 0.175446 0.412183 -0.130759
v 0.213067 0.412183 -0.155839
v 0.175446 0.412183 -0.093138
v 0.213067 0.412183 -0.068058
v 0.247553 0.412183 -0.093138
v 0.247553 0.412183 -0.130759
v 0.176726 0.626252 -0.130100
v 0.213030 0.626252 -0.154303
v 0.176726 0.626252 -0.093797
v 0.213030 0.626252 -0.069594
v 0.246309 0.626252 -0.093797
v 0.246309 0.626252 -0.130100
v 0.444846 0.244503 0.041168
v 0.457596 0.385458 0.041168
v 0.444846 0.244503 0.014192
v 0.457596 0.385458 0.014192
v 0.471657 0.240849 0.041168
v 0.484407 0.381804 0.041168
v 0.471657 0.240849 0.014192
v 0.484407 0.381804 0.014192
v -0.065396 0.023450 -0.020509
v -0.057503 0.145264 -0.034469
v -0.065396 0.023450 -0.153766
v -0.057503 0.144923 -0.139805
v 0.067861 0.023450 -0.020509
v 0.053900 0.151939 -0.034469
v 0.067861 0.023450 -0.153766
v 0.053900 0.151597 -0.139805
v 0.001233 0.012470 -0.167004
v 0.001233 0.152605 -0.148394
v 0.001233 0.012470 -0.007270
v 0.001233 0.155677 -0.025880
v -0.070317 0.097837 -0.015588
v -0.070317 0.097837 -0.158686
v 0.072782 0.097837 -0.158686
v 0.072782 0.097837 -0.015588
v 0.001233 0.097837 0.010589
v 0.001233 0.081454 -0.184863
v -0.078635 0.012470 -0.087137
v -0.066092 0.153098 -0.087137
v 0.081100 0.012470 -0.087137
v 0.062489 0.159772 -0.087137
v 0.003053 0.153209 -0.087137
v 0.001233 -0.013002 -0.087137
v 0.098959 0.097837 -0.087137
v -0.096494 0.097837 -0.087137
v -0.105668 0.024932 -0.156746
v -0.105668 0.053705 -0.156746
v -0.102594 0.023596 -0.425592
v -0.102594 0.055041 -0.425592
v -0.076896 0.024932 -0.156746
v -0.076896 0.053705 -0.156746
v -0.071148 0.023596 -0.425592
v -0.071148 0.055041 -0.425592
v -0.219438 -0.001497 -0.280149
v -0.219438 0.080135 -0.280149
v -0.137806 -0.001497 -0.280149
v -0.137806 0.080135 -0.280149
v -0.208869 0.080135 -0.343361
v -0.127237 -0.001497 -0.343361
v -0.208869 -0.001497 -0.343361
v -0.127237 0.080135 -0.343361
v -0.202830 -0.001497 -0.216938
v -0.121198 0.080135 -0.216938
v -0.202830 0.080135 -0.216938
v -0.121198 -0.001497 -0.216938
v -0.177654 0.071393 -0.382292
v -0.113506 0.007245 -0.382292
v -0.177654 0.007245 -0.382292
v -0.113506 0.071393 -0.382292
v -0.171286 0.004379 -0.186842
v -0.101407 0.074258 -0.186842
v -0.171286 0.074258 -0.186842
v -0.101407 0.004379 -0.186842
vn 0.5633 -0.0116 -0.8262
vn 0.5633 -0.0116 0.8262
vn -1.0000 -0.0000 -0.0000
vn 1.0000 -0.0000 -0.0000
vn -0.5300 -0.0119 0.8479
vn -0.5300 -0.0119 -0.8479
vn 0.4937 0.5435 0.6789
vn -0.0000 -1.0000 -0.0000
vn -0.5547 0.0059 0.8320
vn -0.8362 0.5484 -0.0000
vn 0.8434 0.5373 -0.0000
vn -0.4663 0.5417 0.6994
vn -0.4663 0.5417 -0.6994
vn 0.4937 0.5435 -0.6789
vn -0.0000 1.0000 -0.0000
vn -0.5547 0.0059 -0.8320
vn 0.5882 0.0059 -0.8087
vn 0.5882 0.0059 0.8087
vn -1.0000 0.0060 -0.0000
vn 1.0000 0.0058 -0.0000
vn -0.9959 0.0901 -0.0000
vn -0.0000 -0.0000 -1.0000
vn 0.9959 -0.0901 -0.0000
vn -0.0000 -0.0000 1.0000
vn -0.1350 -0.9908 -0.0000
vn 0.1350 0.9908 -0.0000
vn -0.8681 0.4164 -0.2704
vn 0.1956 0.4219 -0.8853
vn 0.8522 0.4500 0.2669
vn -0.2622 0.4739 0.8406
vn 0.2551 -0.9326 0.2551
vn -0.0854 0.9950 0.0519
vn -0.0217 0.9987 0.0451
vn -0.2551 -0.9326 0.2551
vn 0.2518 0.4628 0.8500
vn -0.2053 0.4331 -0.8777
vn -0.2999 -0.1597 -0.9405
vn 0.2820 -0.1439 0.9486
vn -0.2820 -0.1439 0.9486
vn 0.9486 -0.1439 0.2820
vn 0.2999 -0.1597 -0.9405
vn -0.9486 -0.1439 -0.2820
vn -0.9486 -0.1439 0.2820
vn 0.9486 -0.1439 -0.2820
vn -0.2551 -0.9326 -0.2551
vn -0.0438 0.9964 -0.0728
vn -0.0660 0.9946 -0.0806
vn 0.2551 -0.9326 -0.2551
vn 0.8513 0.4510 -0.2680
vn -0.8689 0.4152 0.2694
vn -0.4997 -0.0000 -0.8662
vn 0.7754 -0.0000 -0.6315
vn -0.0000 -0.8258 0.5640
vn -0.0000 0.8258 0.5640
vn 0.9863 -0.0000 0.1649
vn -0.9672 -0.0000 0.2541
vn 0.9431 -0.0000 0.3326
vn -0.0000 -0.9757 -0.2191
vn -0.0000 0.9757 -0.2191
vn -0.9863 -0.0000 -0.1649
vn -0.6903 -0.0000 0.7235
vn 0.9672 -0.0000 -0.2541
vn -0.0000 0.9355 -0.3533
vn -0.0000 -0.9355 -0.3533
vn 0.7148 -0.0000 0.6993
vn -0.7802 -0.0000 -0.6255
vn -0.4169 -0.0000 0.9090
vn -0.0000 0.9815 0.1916
vn -0.0000 -0.9815 0.1916
vn 0.8355 -0.0000 -0.5494
vt 0.730266 0.192898
vt 0.730266 0.207809
vt 0.725430 0.207809
vt 0.725430 0.192898
vt 0.730266 0.192898
vt 0.730266 0.207809
vt 0.725430 0.207809
vt 0.725430 0.192898
vt 0.728759 0.210771
vt 0.726937 0.210771
vt 0.737224 0.190359
vt 0.740216 0.190359
vt 0.743242 0.190359
vt 0.729303 0.211019
vt 0.729303 0.218684
vt 0.731662 0.218684
vt 0.731662 0.211019
vt 0.729560 0.218853
vt 0.731411 0.218858
vt 0.731739 0.220051
vt 0.731401 0.221049
vt 0.729551 0.221044
vt 0.729223 0.220043
vt 0.729303 0.211019
vt 0.729303 0.218684
vt 0.742252 0.191815
vt 0.742252 0.199649
vt 0.744726 0.199649
vt 0.744726 0.191815
vt 0.742252 0.199646
vt 0.742252 0.191812
vt 0.744726 0.199646
vt 0.744726 0.191812
vt 0.742818 0.191815
vt 0.744647 0.191812
vt 0.744659 0.199646
vt 0.742829 0.199649
vt 0.715761 0.192652
vt 0.716702 0.194363
vt 0.716968 0.194110
vt 0.716572 0.192652
vt 0.718787 0.192145
vt 0.718787 0.194348
vt 0.720417 0.194317
vt 0.721002 0.192652
vt 0.721813 0.192652
vt 0.720683 0.194570
vt 0.720417 0.194327
vt 0.718787 0.192652
vt 0.718787 0.194443
vt 0.716968 0.194120
vt 0.718787 0.189220
vt 0.721260 0.190009
vt 0.720850 0.190349
vt 0.718787 0.190009
vt 0.718843 0.194366
vt 0.720111 0.194980
vt 0.720087 0.194362
vt 0.716314 0.190009
vt 0.716724 0.190349
vt 0.720079 0.194348
vt 0.712015 0.204656
vt 0.708504 0.204656
vt 0.711516 0.207492
vt 0.714050 0.206617
vt 0.712092 0.198998
vt 0.708504 0.198998
vt 0.711671 0.196068
vt 0.712092 0.196068
vt 0.712092 0.198998
vt 0.712015 0.203713
vt 0.708504 0.203713
vt 0.708504 0.201827
vt 0.712015 0.201827
vt 0.712015 0.199941
vt 0.708504 0.199941
vt 0.712015 0.204656
vt 0.708504 0.204656
vt 0.712015 0.198998
vt 0.712015 0.198998
s 0
usemtl regular
f 55/66/35 61/67/35 66/68/35 60/69/35
f 59/70/36 65/71/36 64/72/36 58/73/36
f 57/66/37 63/67/37 62/68/37 56/69/37
f 60/73/38 66/72/38 65/71/38 59/70/38
f 58/73/39 64/72/39 63/71/39 57/70/39
f 56/69/40 62/68/40 61/67/40 55/66/40
f 65/71/41 71/74/41 70/75/41 64/72/41
f 56/76/42 55/77/42 60/77/42 59/78/42 58/77/42 57/77/42
f 70/79/43 76/80/43 75/81/43 69/82/43
f 63/67/44 69/74/44 67/75/44 62/68/44
f 66/72/45 72/75/45 71/74/45 65/71/45
f 64/72/46 70/75/46 69/74/46 63/71/46
f 62/68/47 67/75/47 68/74/47 61/67/47
f 61/67/48 68/74/48 72/75/48 66/68/48
f 73/83/49 75/84/49 76/85/49 77/86/49 78/87/49 74/88/49
f 67/89/50 73/90/50 74/81/50 68/82/50
f 68/82/51 74/81/51 78/90/51 72/89/51
f 71/82/52 77/81/52 76/80/52 70/79/52
f 69/82/53 75/81/53 73/90/53 67/89/53
f 72/89/54 78/90/54 77/81/54 71/82/54
f 79/91/55 80/92/55 82/93/55 81/94/55
f 81/94/56 82/93/56 86/95/56 85/96/56
f 85/96/57 86/95/57 84/97/57 83/98/57
f 83/98/58 84/97/58 80/92/58 79/91/58
f 81/99/59 85/100/59 83/100/59 79/99/59
f 86/101/60 82/102/60 80/102/60 84/101/60
f 112/103/61 106/104/61 90/105/61 100/106/61
f 104/107/62 96/108/62 94/109/62 101/110/62
f 111/111/63 108/112/63 92/113/63 102/110/63
f 103/114/64 98/115/64 88/116/64 99/106/64
f 110/117/65 107/118/65 91/119/65 97/120/65
f 109/121/66 106/104/66 88/116/66 98/115/66
f 108/112/67 109/122/67 98/123/67 92/113/67
f 105/124/68 110/117/68 97/120/68 87/125/68
f 102/110/69 92/113/69 98/115/69 103/114/69
f 100/106/70 90/105/70 96/108/70 104/107/70
f 89/125/71 100/106/71 104/107/71 95/120/71
f 91/119/72 102/110/72 103/114/72 97/120/72
f 97/120/73 103/114/73 99/106/73 87/125/73
f 107/118/74 111/111/74 102/110/74 91/119/74
f 95/120/75 104/107/75 101/110/75 93/119/75
f 105/124/76 112/103/76 100/106/76 89/125/76
f 87/125/77 99/106/77 112/103/77 105/124/77
f 93/119/78 101/110/78 111/111/78 107/118/78
f 89/125/79 95/120/79 110/117/79 105/124/79
f 94/109/80 96/126/80 109/122/80 108/112/80
f 96/108/81 90/105/81 106/104/81 109/121/81
f 95/120/82 93/119/82 107/118/82 110/117/82
f 101/110/83 94/109/83 108/112/83 111/111/83
f 99/106/84 88/116/84 106/104/84 112/103/84
f 135/127/85 133/128/85 116/129/85 115/130/85
f 115/129/56 116/129/56 120/130/56 119/130/56
f 140/131/86 138/132/86 118/133/86 117/134/86
f 117/134/58 118/134/58 114/133/58 113/133/58
f 137/132/87 140/131/87 117/134/87 113/133/87
f 138/135/88 139/132/88 114/133/88 118/134/88
f 128/136/49 125/137/49 122/138/49 124/139/49
f 127/137/42 126/136/42 123/139/42 121/138/42
f 126/136/89 128/137/89 124/138/89 123/139/89
f 129/140/90 131/141/90 122/138/90 121/139/90
f 134/142/91 136/128/91 128/137/91 126/136/91
f 135/143/92 134/142/92 126/136/92 127/137/92
f 136/142/93 133/128/93 125/137/93 128/136/93
f 121/139/94 122/138/94 125/137/94 127/136/94
f 137/144/95 139/132/95 131/141/95 129/140/95
f 124/139/49 122/138/49 131/141/49 130/140/49
f 121/138/42 123/139/42 132/140/42 129/141/42
f 123/139/96 124/138/96 130/141/96 132/140/96
f 120/130/97 116/129/97 133/128/97 136/142/97
f 115/129/98 119/130/98 134/142/98 135/143/98
f 119/130/99 120/129/99 136/128/99 134/142/99
f 127/136/100 125/137/100 133/128/100 135/127/100
f 113/134/101 114/133/101 139/132/101 137/131/101
f 130/140/102 131/141/102 139/132/102 138/145/102
f 129/141/103 132/140/103 140/144/103 137/132/103
f 132/140/104 130/141/104 138/132/104 140/144/104
o Cube.003
v -0.074128 0.000118 -0.277172
v -0.074128 0.058435 -0.277172
v -0.056968 0.000118 -0.332908
v -0.056968 0.058435 -0.332908
v -0.018393 0.000118 -0.260012
v -0.018393 0.058435 -0.260012
v -0.001232 0.000118 -0.315747
v -0.001232 0.058435 -0.315747
v -0.098221 0.069767 -0.241979
v -0.098221 0.128085 -0.241979
v -0.123171 0.069767 -0.294690
v -0.123171 0.128085 -0.294690
v -0.045511 0.069767 -0.266929
v -0.045511 0.128085 -0.266929
v -0.070460 0.069767 -0.319639
v -0.070460 0.128085 -0.319639
v -0.102444 0.002424 -0.197743
v -0.102444 0.060741 -0.197743
v -0.110084 0.002424 -0.255557
v -0.110084 0.060741 -0.255557
v -0.044630 0.002424 -0.205382
v -0.044630 0.060741 -0.205382
v -0.052269 0.002424 -0.263196
v -0.052269 0.060741 -0.263196
v -0.041027 0.058148 -0.167279
v -0.050010 0.097358 -0.192782
v -0.054458 0.031109 -0.204118
v -0.063441 0.070320 -0.229622
v 0.003778 0.057904 -0.183435
v -0.005204 0.097114 -0.208939
v -0.009653 0.030865 -0.220274
v -0.018636 0.070076 -0.245778
v -0.060093 0.047566 -0.243985
v -0.060093 0.105883 -0.243985
v -0.044781 0.047566 -0.300256
v -0.044781 0.105883 -0.300256
v -0.003822 0.047566 -0.228673
v -0.003822 0.105883 -0.228673
v 0.011490 0.047566 -0.284944
v 0.011490 0.105883 -0.284944
v -0.057285 0.009922 -0.156161
v -0.057285 0.053243 -0.156161
v -0.092161 0.009922 -0.181860
v -0.092161 0.053243 -0.181860
v -0.031586 0.009922 -0.191037
v -0.031586 0.053243 -0.191037
v -0.066462 0.009922 -0.216735
v -0.066462 0.053243 -0.216735
vn -0.9557 -0.0000 -0.2943
vn 0.2943 -0.0000 -0.9557
vn 0.9557 -0.0000 0.2943
vn -0.2943 -0.0000 0.9557
vn -0.0000 -1.0000 -0.0000
vn -0.0000 1.0000 -0.0000
vn -0.9039 -0.0000 0.4278
vn -0.4278 -0.0000 -0.9039
vn 0.9039 -0.0000 -0.4278
vn 0.4278 -0.0000 0.9039
vn -0.9914 -0.0000 0.1310
vn -0.1310 -0.0000 -0.9914
vn 0.9914 -0.0000 -0.1310
vn 0.1310 -0.0000 0.9914
vn -0.9407 0.0051 0.3392
vn -0.2820 -0.5677 -0.7734
vn 0.9407 -0.0051 -0.3392
vn 0.2820 0.5677 0.7734
vn 0.1886 -0.8232 0.5355
vn -0.1886 0.8232 -0.5355
vn -0.9649 -0.0000 -0.2626
vn 0.2626 -0.0000 -0.9649
vn 0.9649 -0.0000 0.2626
vn -0.2626 -0.0000 0.9649
vn -0.5932 -0.0000 0.8050
vn -0.8050 -0.0000 -0.5932
vn 0.5932 -0.0000 -0.8050
vn 0.8050 -0.0000 0.5932
vt 0.713681 0.197972
vt 0.717406 0.197972
vt 0.717406 0.201717
vt 0.713681 0.201717
s 0
usemtl regular
f 141/146/105 142/147/105 144/148/105 143/149/105
f 143/146/106 144/147/106 148/148/106 147/149/106
f 147/146/107 148/147/107 146/148/107 145/149/107
f 145/146/108 146/147/108 142/148/108 141/149/108
f 143/146/109 147/147/109 145/148/109 141/149/109
f 148/146/110 144/147/110 142/148/110 146/149/110
f 149/146/111 150/147/111 152/148/111 151/149/111
f 151/146/112 152/147/112 156/148/112 155/149/112
f 155/146/113 156/147/113 154/148/113 153/149/113
f 153/146/114 154/147/114 150/148/114 149/149/114
f 151/146/109 155/147/109 153/148/109 149/149/109
f 156/146/110 152/147/110 150/148/110 154/149/110
f 157/146/115 158/147/115 160/148/115 159/149/115
f 159/146/116 160/147/116 164/148/116 163/149/116
f 163/146/117 164/147/117 162/148/117 161/149/117
f 161/146/118 162/147/118 158/148/118 157/149/118
f 159/146/109 163/147/109 161/148/109 157/149/109
f 164/146/110 160/147/110 158/148/110 162/149/110
f 165/146/119 166/147/119 168/148/119 167/149/119
f 167/146/120 168/147/120 172/148/120 171/149/120
f 171/146/121 172/147/121 170/148/121 169/149/121
f 169/146/122 170/147/122 166/148/122 165/149/122
f 167/146/123 171/147/123 169/148/123 165/149/123
f 172/146/124 168/147/124 166/148/124 170/149/124
f 173/146/125 174/147/125 176/148/125 175/149/125
f 175/146/126 176/147/126 180/148/126 179/149/126
f 179/146/127 180/147/127 178/148/127 177/149/127
f 177/146/128 178/147/128 174/148/128 173/149/128
f 175/146/109 179/147/109 177/148/109 173/149/109
f 180/146/110 176/147/110 174/148/110 178/149/110
f 181/146/129 182/147/129 184/148/129 183/149/129
f 183/146/130 184/147/130 188/148/130 187/149/130
f 187/146/131 188/147/131 186/148/131 185/149/131
f 185/146/132 186/147/132 182/148/132 181/149/132
f 183/146/109 187/147/109 185/148/109 181/149/109
f 188/146/110 184/147/110 182/148/110 186/149/110
o Cube.004
v -0.041504 0.018956 -0.292446
v -0.042094 0.036147 -0.287215
v 0.025783 0.039459 -0.346676
v 0.025299 0.053559 -0.342386
v -0.022884 0.017535 -0.285674
v -0.023474 0.034726 -0.280443
v 0.032970 0.035163 -0.331746
v 0.032485 0.049263 -0.327455
v -0.024893 0.027998 -0.330616
v -0.025578 0.047950 -0.324546
v -0.006281 0.025649 -0.314327
v -0.006945 0.044988 -0.308442
v -0.000993 0.053641 -0.341585
v 0.014714 0.030421 -0.326253
v -0.000329 0.034308 -0.347468
v 0.014076 0.048989 -0.320604
v -0.027118 0.025028 -0.392165
v -0.027383 0.032759 -0.389812
v -0.018102 0.034279 -0.393761
v -0.017836 0.026548 -0.396114
v -0.016901 0.044172 -0.370384
v -0.032316 0.041069 -0.361926
v -0.016425 0.030304 -0.374604
v -0.031840 0.027201 -0.366146
vn -0.0282 0.2901 -0.9566
vn 0.9070 0.1508 -0.3932
vn 0.8733 -0.1141 0.4737
vn -0.3468 -0.2839 0.8939
vn 0.0429 -0.9726 -0.2284
vn -0.0654 0.9550 0.2895
vn -0.0496 0.9685 0.2439
vn 0.0854 -0.9676 -0.2375
vn 0.5198 -0.2323 0.8221
vn -0.9208 0.0842 -0.3808
vn 0.3400 -0.2631 0.9029
vn 0.1741 -0.9320 -0.3180
vn 0.0338 0.9745 0.2219
vn -0.3340 0.8803 -0.3369
vn -0.4135 0.2520 -0.8749
vn 0.9955 0.0571 -0.0753
vn 0.2483 -0.9590 0.1369
vn -0.9834 0.0211 -0.1802
vn -0.9768 -0.0923 0.1931
vn 0.2244 -0.9745 -0.0079
vn 0.8325 0.1873 -0.5214
vn -0.2932 0.9467 -0.1335
vt 0.708899 0.190829
vt 0.710620 0.190829
vt 0.710620 0.193445
vt 0.708899 0.193445
vt 0.708899 0.188213
vt 0.710620 0.188213
vt 0.709760 0.190829
vt 0.709760 0.190829
vt 0.708899 0.190829
vt 0.710620 0.190829
vt 0.709760 0.189521
vt 0.710620 0.190829
vt 0.708899 0.190829
s 0
usemtl regular
f 203/150/133 201/151/133 192/152/133 191/153/133
f 191/154/134 192/155/134 196/152/134 195/153/134
f 199/156/135 200/157/135 194/152/135 193/153/135
f 193/154/136 194/155/136 190/152/136 189/153/136
f 197/158/137 199/156/137 193/152/137 189/153/137
f 200/157/138 198/159/138 190/152/138 194/153/138
f 204/160/139 201/151/139 198/159/139 200/157/139
f 203/150/140 202/160/140 199/156/140 197/158/140
f 202/160/141 204/160/141 200/157/141 199/156/141
f 189/154/142 190/155/142 198/159/142 197/158/142
f 195/154/143 196/155/143 204/160/143 202/160/143
f 191/154/144 195/155/144 202/160/144 203/150/144
f 196/154/145 192/155/145 201/151/145 204/160/145
f 210/161/146 209/151/146 207/151/146 206/159/146
f 205/158/147 206/159/147 207/151/147 208/150/147
f 209/151/148 211/162/148 208/150/148 207/151/148
f 211/162/149 212/150/149 205/158/149 208/150/149
f 212/150/150 210/161/150 206/159/150 205/158/150
f 197/158/151 198/159/151 210/161/151 212/150/151
f 203/150/152 197/158/152 212/150/152 211/162/152
f 201/151/153 203/150/153 211/162/153 209/151/153
f 198/159/154 201/151/154 209/151/154 210/161/154
