# Blender 3.6.5
# www.blender.org
mtllib Poly_SF_Outside_B_Machine_03.mtl
o Cube_Cube.001
v -0.500000 0.000000 0.500000
v 0.500000 0.000000 0.500000
v -0.500000 0.000000 -0.500000
v 0.500000 0.000000 -0.500000
v -0.400000 0.000000 0.500000
v -0.400000 0.000000 -0.500000
v -0.500000 0.000000 -0.400000
v 0.500000 0.000000 -0.400000
v -0.400000 -0.100000 -0.400000
v 0.400000 0.000000 0.500000
v 0.400000 0.000000 -0.500000
v 0.400000 -0.100000 -0.400000
v -0.500000 0.000000 0.400000
v 0.500000 0.000000 0.400000
v -0.400000 -0.100000 0.400000
v 0.400000 -0.100000 0.400000
v -0.126423 -0.058108 -0.091767
v -0.223322 -0.058108 -0.091767
v -0.291839 -0.058108 -0.023249
v -0.291839 -0.058108 0.073649
v -0.223322 -0.058108 0.142167
v -0.126423 -0.058108 0.142167
v -0.057905 -0.058108 0.073649
v -0.057905 -0.058108 -0.023249
v -0.126423 -0.102169 -0.091767
v -0.223322 -0.102169 -0.091767
v -0.291839 -0.102169 -0.023249
v -0.291839 -0.102169 0.073649
v -0.223322 -0.102169 0.142167
v -0.126423 -0.102169 0.142167
v -0.057905 -0.102169 0.073649
v -0.057905 -0.102169 -0.023249
v -0.057905 -0.058108 0.025200
v -0.057905 -0.102169 0.025200
v -0.291839 -0.058108 0.025200
v -0.291839 -0.102169 0.025200
v -0.195414 -0.059531 0.194719
v -0.254998 -0.059531 0.194719
v -0.297129 -0.059531 0.236851
v -0.297129 -0.059531 0.296434
v -0.254998 -0.059531 0.338566
v -0.195414 -0.059531 0.338566
v -0.153283 -0.059531 0.296434
v -0.153283 -0.059531 0.236851
v -0.179886 -0.100746 0.157231
v -0.270526 -0.100746 0.157231
v -0.334618 -0.100746 0.221323
v -0.334618 -0.100746 0.311963
v -0.270526 -0.100746 0.376054
v -0.179886 -0.100746 0.376054
v -0.115794 -0.100746 0.311963
v -0.115794 -0.100746 0.221323
v -0.153283 -0.059531 0.266643
v -0.115794 -0.100746 0.266643
v -0.297129 -0.059531 0.266643
v -0.334618 -0.100746 0.266643
v 0.404349 -0.026463 -0.103394
v 0.336990 -0.026463 -0.103394
v 0.289360 -0.026463 -0.055764
v 0.289360 -0.026463 0.011595
v 0.336990 -0.026463 0.059225
v 0.404349 -0.026463 0.059225
v 0.451979 -0.026463 0.011595
v 0.451979 -0.026463 -0.055764
v 0.404349 -0.095453 -0.103394
v 0.336990 -0.095453 -0.103394
v 0.289360 -0.095453 -0.055764
v 0.289360 -0.095453 0.011595
v 0.336990 -0.095453 0.059225
v 0.404349 -0.095453 0.059225
v 0.451979 -0.095453 0.011595
v 0.451979 -0.095453 -0.055764
v 0.451979 -0.026463 -0.022084
v 0.451979 -0.095453 -0.022084
v 0.289360 -0.026463 -0.022084
v 0.289360 -0.095453 -0.022084
vn -0.4082 0.8165 0.4082
vn 0.4082 0.8165 0.4082
vn 0.7071 0.7071 -0.0000
vn -0.7071 0.7071 -0.0000
vn -0.0000 1.0000 -0.0000
vn -0.0000 0.7071 0.7071
vn -0.0000 0.7071 -0.7071
vn -0.4082 0.8165 -0.4082
vn 0.4082 0.8165 -0.4082
vn -0.7071 -0.0000 -0.7071
vn 1.0000 -0.0000 -0.0000
vn -0.0000 -0.0000 1.0000
vn -1.0000 -0.0000 -0.0000
vn -0.0000 -0.0000 -1.0000
vn 0.7071 -0.0000 -0.7071
vn 0.7071 -0.0000 0.7071
vn -0.7071 -0.0000 0.7071
vn -0.5231 0.6729 -0.5231
vn 0.7398 0.6729 -0.0000
vn -0.0000 0.6729 0.7398
vn -0.7398 0.6729 -0.0000
vn -0.0000 0.6729 -0.7398
vn 0.5231 0.6729 -0.5231
vn 0.5231 0.6729 0.5231
vn -0.5231 0.6729 0.5231
vt 0.805576 0.744299
vt 0.811953 0.744299
vt 0.811953 0.750768
vt 0.805576 0.750768
vt 0.750893 0.744299
vt 0.757292 0.744299
vt 0.757292 0.750768
vt 0.750893 0.750768
vt 0.750893 0.695115
vt 0.757292 0.695115
vt 0.805576 0.695115
vt 0.811953 0.695115
vt 0.757292 0.689036
vt 0.805576 0.689036
vt 0.811953 0.689036
vt 0.750893 0.689036
vt 0.773264 0.710993
vt 0.768419 0.711013
vt 0.768419 0.713292
vt 0.773264 0.713292
vt 0.777189 0.717732
vt 0.777189 0.715153
vt 0.774997 0.715153
vt 0.774997 0.717732
vt 0.773183 0.711506
vt 0.768310 0.711506
vt 0.768310 0.713377
vt 0.773183 0.713352
vt 0.764378 0.717732
vt 0.764378 0.719965
vt 0.766902 0.719965
vt 0.766902 0.717732
vt 0.768025 0.723959
vt 0.773183 0.723959
vt 0.773183 0.721626
vt 0.768025 0.721575
vt 0.768419 0.711094
vt 0.773264 0.711094
vt 0.773264 0.711013
vt 0.768419 0.711074
vt 0.768419 0.711135
vt 0.773264 0.711115
vt 0.764378 0.720311
vt 0.776830 0.717732
vt 0.776830 0.720311
vt 0.777189 0.719965
vt 0.774997 0.719965
vt 0.764378 0.715153
vt 0.766902 0.715153
vt 0.768025 0.723959
vt 0.773183 0.723959
vt 0.776830 0.720312
vt 0.776830 0.717733
vt 0.764378 0.717733
vt 0.764378 0.720312
vt 0.769995 0.696683
vt 0.766446 0.696683
vt 0.765676 0.699050
vt 0.770765 0.699050
vt 0.773387 0.703300
vt 0.773387 0.701208
vt 0.771196 0.700754
vt 0.771195 0.703333
vt 0.761727 0.703209
vt 0.761727 0.704343
vt 0.764252 0.705527
vt 0.764252 0.703294
vt 0.766571 0.709545
vt 0.768824 0.709545
vt 0.769458 0.707213
vt 0.765937 0.707162
vt 0.765373 0.696926
vt 0.762087 0.700212
vt 0.762087 0.702536
vt 0.773308 0.702536
vt 0.773308 0.700212
vt 0.770021 0.696926
vt 0.773387 0.705112
vt 0.771196 0.705566
vt 0.761727 0.701898
vt 0.764252 0.700715
vt 0.765373 0.696925
vt 0.770021 0.696925
vt 0.773308 0.700212
vt 0.773308 0.702536
vt 0.762087 0.702536
vt 0.762087 0.700212
vt 0.805293 0.716490
vt 0.801574 0.716490
vt 0.801574 0.718058
vt 0.805293 0.718058
vt 0.808306 0.721466
vt 0.808306 0.719487
vt 0.806623 0.719487
vt 0.806623 0.721466
vt 0.805231 0.716490
vt 0.801490 0.716490
vt 0.801490 0.718123
vt 0.805231 0.718104
vt 0.798472 0.721466
vt 0.798471 0.723181
vt 0.800410 0.723181
vt 0.800410 0.721466
vt 0.801271 0.726246
vt 0.805231 0.726246
vt 0.805231 0.724455
vt 0.801271 0.724416
vt 0.798471 0.723446
vt 0.808030 0.721466
vt 0.808030 0.723446
vt 0.808306 0.723181
vt 0.806623 0.723181
vt 0.798471 0.719487
vt 0.800410 0.719487
vt 0.801271 0.726246
vt 0.805231 0.726246
vt 0.808030 0.723447
vt 0.808030 0.721467
vt 0.798472 0.721467
vt 0.798471 0.723447
s 0
usemtl Material.001
f 12/1/1 8/2/1 4/3/1 11/4/1
f 7/5/2 9/6/2 6/7/2 3/8/2
f 13/9/3 15/10/3 9/6/3 7/5/3
f 16/11/4 14/12/4 8/2/4 12/1/4
f 15/10/5 16/11/5 12/1/5 9/6/5
f 9/6/6 12/1/6 11/4/6 6/7/6
f 5/13/7 10/14/7 16/11/7 15/10/7
f 10/14/8 2/15/8 14/12/8 16/11/8
f 1/16/9 5/13/9 15/10/9 13/9/9
f 19/17/10 18/18/10 26/19/10 27/20/10
f 33/21/11 23/22/11 31/23/11 34/24/11
f 22/25/12 21/26/12 29/27/12 30/28/12
f 35/29/13 19/30/13 27/31/13 36/32/13
f 18/33/14 17/34/14 25/35/14 26/36/14
f 17/37/15 24/38/15 32/20/15 25/19/15
f 23/39/16 22/40/16 30/19/16 31/20/16
f 21/41/17 20/42/17 28/20/17 29/19/17
f 18/33/5 19/43/5 35/29/5 33/44/5 24/45/5 17/34/5
f 24/46/11 33/21/11 34/24/11 32/47/11
f 20/48/13 35/29/13 36/32/13 28/49/13
f 21/50/5 22/51/5 23/52/5 33/53/5 35/54/5 20/55/5
f 39/56/18 38/57/18 46/58/18 47/59/18
f 53/60/19 43/61/19 51/62/19 54/63/19
f 42/56/20 41/57/20 49/58/20 50/59/20
f 55/64/21 39/65/21 47/66/21 56/67/21
f 38/68/22 37/69/22 45/70/22 46/71/22
f 37/57/23 44/56/23 52/59/23 45/58/23
f 43/56/24 42/57/24 50/58/24 51/59/24
f 41/57/25 40/56/25 48/59/25 49/58/25
f 38/72/5 39/73/5 55/74/5 53/75/5 44/76/5 37/77/5
f 44/78/19 53/60/19 54/63/19 52/79/19
f 40/80/21 55/64/21 56/67/21 48/81/21
f 41/82/5 42/83/5 43/84/5 53/85/5 55/86/5 40/87/5
f 59/88/10 58/89/10 66/90/10 67/91/10
f 73/92/11 63/93/11 71/94/11 74/95/11
f 62/96/12 61/97/12 69/98/12 70/99/12
f 75/100/13 59/101/13 67/102/13 76/103/13
f 58/104/14 57/105/14 65/106/14 66/107/14
f 57/89/15 64/88/15 72/91/15 65/90/15
f 63/88/16 62/89/16 70/90/16 71/91/16
f 61/89/17 60/88/17 68/91/17 69/90/17
f 58/104/5 59/108/5 75/100/5 73/109/5 64/110/5 57/105/5
f 64/111/11 73/92/11 74/95/11 72/112/11
f 60/113/13 75/100/13 76/103/13 68/114/13
f 61/115/5 62/116/5 63/117/5 73/118/5 75/119/5 60/120/5
o Cube_Cube.002
v -0.500000 0.000000 0.500000
v 0.500000 0.000000 0.500000
v -0.500000 0.000000 -0.500000
v 0.500000 0.000000 -0.500000
v 0.000000 0.000000 0.500000
v 0.000000 0.000000 -0.500000
v -0.400000 0.000000 -0.500000
v -0.400000 0.000000 0.500000
v 0.400000 0.000000 0.500000
v 0.400000 0.000000 -0.500000
v -0.500000 0.000000 -0.400000
v 0.500000 0.000000 -0.400000
v 0.000000 -0.130301 -0.400000
v -0.400000 -0.130301 -0.400000
v 0.400000 -0.130301 -0.400000
v -0.500000 0.000000 0.400000
v 0.500000 0.000000 0.400000
v 0.000000 -0.130301 0.400000
v -0.400000 -0.130301 0.400000
v 0.400000 -0.130301 0.400000
vn -0.4791 0.7354 0.4791
vn -0.0000 0.6088 0.7933
vn 0.4791 0.7354 0.4791
vn -0.0000 1.0000 -0.0000
vn 0.7933 0.6088 -0.0000
vn -0.7933 0.6088 -0.0000
vn -0.4791 0.7354 -0.4791
vn -0.0000 0.6088 -0.7933
vn 0.4791 0.7354 -0.4791
vt 0.990468 0.007785
vt 0.990468 0.002999
vt 0.995962 0.002999
vt 0.995962 0.007785
vt 0.990468 0.007963
vt 0.990468 0.026930
vt 0.995962 0.026930
vt 0.995962 0.007963
vt 0.990468 0.003015
vt 0.995962 0.003015
vt 0.947088 0.026930
vt 0.947088 0.007785
vt 0.947088 0.003015
vt 0.947087 0.007963
vt 0.947088 0.002999
vt 0.941770 0.007785
vt 0.941770 0.002999
vt 0.941770 0.007963
vt 0.941770 0.026930
vt 0.941770 0.003015
s 0
usemtl Material.001
f 91/121/26 88/122/26 80/123/26 86/124/26
f 90/125/27 89/126/27 82/127/27 83/128/27
f 87/129/28 90/125/28 83/128/28 79/130/28
f 89/126/27 91/121/27 86/124/27 82/127/27
f 94/131/29 96/132/29 91/121/29 89/126/29
f 92/133/30 95/134/30 90/125/30 87/129/30
f 95/134/29 94/131/29 89/126/29 90/125/29
f 96/132/31 93/135/31 88/122/31 91/121/31
f 85/136/32 78/137/32 93/135/32 96/132/32
f 84/138/33 81/139/33 94/131/33 95/134/33
f 77/140/34 84/138/34 95/134/34 92/133/34
f 81/139/33 85/136/33 96/132/33 94/131/33
o Cube_Cube.004
v -0.400679 -0.074983 0.501387
v -0.400679 -0.024748 0.501387
v -0.400679 -0.074983 -0.501387
v -0.400679 -0.024748 -0.501387
v -0.315684 -0.074983 0.501387
v -0.315684 -0.024748 0.501387
v -0.315684 -0.074983 -0.501387
v -0.315684 -0.024748 -0.501387
v -0.358181 -0.107056 -0.501387
v -0.358181 0.000240 -0.501387
v -0.358181 -0.107056 0.501387
v -0.358181 0.000240 0.501387
v -0.284388 -0.074983 -0.180393
v -0.284388 -0.024748 -0.180393
v -0.284388 -0.074983 -0.406379
v -0.284388 -0.024748 -0.406379
v -0.199394 -0.074983 -0.180393
v -0.199394 -0.024748 -0.180393
v -0.199394 -0.074983 -0.406379
v -0.199394 -0.024748 -0.406379
v -0.241891 -0.107056 -0.406379
v -0.241891 0.000240 -0.406379
v -0.241891 -0.107056 -0.180393
v -0.241891 0.000240 -0.180393
v -0.284388 -0.074983 -0.482437
v -0.284388 -0.024748 -0.482437
v -0.199394 -0.074983 -0.482437
v -0.199394 -0.024748 -0.482437
v -0.241891 -0.107056 -0.482437
v -0.241891 0.000240 -0.482437
v -0.241891 0.035570 -0.444408
v -0.313663 -0.006631 -0.444408
v -0.170119 -0.006631 -0.444408
v -0.313663 -0.091472 -0.444408
v -0.241891 -0.145639 -0.444408
v -0.170119 -0.091472 -0.444408
vn -1.0000 -0.0000 -0.0000
vn -0.0000 -0.0000 -1.0000
vn 1.0000 -0.0000 -0.0000
vn -0.0000 -0.0000 1.0000
vn 0.6024 -0.7982 -0.0000
vn -0.5069 0.8620 -0.0000
vn 0.5069 0.8620 -0.0000
vn -0.6024 -0.7982 -0.0000
vn 0.3956 0.6729 -0.6251
vn -0.3956 0.6729 -0.6251
vn -0.7924 -0.0000 -0.6100
vn 0.4681 -0.6203 -0.6293
vn 0.7924 -0.0000 -0.6100
vn -0.4681 -0.6203 -0.6293
vn -0.4681 -0.6203 0.6293
vn 0.7924 -0.0000 0.6100
vn 0.4681 -0.6203 0.6293
vn -0.7924 -0.0000 0.6100
vn -0.3956 0.6729 0.6251
vn 0.3956 0.6729 0.6251
vt 0.759294 0.689478
vt 0.756690 0.689478
vt 0.756690 0.745959
vt 0.759294 0.745959
vt 0.759098 0.745959
vt 0.761506 0.745959
vt 0.759349 0.745959
vt 0.756789 0.745959
vt 0.756789 0.689478
vt 0.759349 0.689478
vt 0.759098 0.689478
vt 0.761506 0.689478
vt 0.756867 0.745959
vt 0.756867 0.689478
vt 0.767016 0.730812
vt 0.764482 0.730812
vt 0.764482 0.744933
vt 0.767016 0.744933
vt 0.767016 0.747860
vt 0.764551 0.747860
vt 0.764551 0.744933
vt 0.769298 0.744933
vt 0.769298 0.730812
vt 0.767016 0.736098
vt 0.767016 0.730076
vt 0.764482 0.731376
vt 0.764482 0.734516
vt 0.769298 0.734516
vt 0.769298 0.731376
vt 0.764570 0.747860
vt 0.764570 0.744933
vt 0.764651 0.747905
vt 0.764513 0.747860
vt 0.764513 0.744933
vt 0.764454 0.747931
vt 0.766962 0.747931
vt 0.764454 0.744933
vt 0.766815 0.747860
vt 0.766750 0.747860
vt 0.764519 0.744933
vt 0.767070 0.744933
vt 0.767070 0.747860
vt 0.764519 0.747860
vt 0.768157 0.744933
vt 0.767041 0.747860
s 0
usemtl Material.001
f 97/141/35 98/142/35 100/143/35 99/144/35
f 105/145/36 106/145/36 104/146/36 103/146/36
f 103/147/37 104/148/37 102/149/37 101/150/37
f 107/151/38 108/151/38 98/142/38 97/142/38
f 105/145/39 103/146/39 101/152/39 107/151/39
f 106/145/40 100/143/40 98/142/40 108/151/40
f 104/153/41 106/145/41 108/151/41 102/154/41
f 99/143/42 105/145/42 107/151/42 97/142/42
f 101/152/38 102/152/38 108/151/38 107/151/38
f 99/143/36 100/143/36 106/145/36 105/145/36
f 109/155/35 110/156/35 112/157/35 111/158/35
f 127/159/43 129/160/43 124/161/43 126/158/43
f 115/158/37 116/162/37 114/163/37 113/155/37
f 119/164/38 120/165/38 110/166/38 109/167/38
f 117/158/39 115/162/39 113/163/39 119/155/39
f 118/158/40 112/157/40 110/156/40 120/155/40
f 116/162/41 118/158/41 120/155/41 114/163/41
f 111/157/42 117/158/42 119/155/42 109/156/42
f 113/168/38 114/169/38 120/165/38 119/164/38
f 128/170/44 127/159/44 126/158/44 122/171/44
f 125/158/36 126/158/36 124/162/36 123/162/36
f 121/157/36 122/157/36 126/158/36 125/158/36
f 130/172/45 128/171/45 122/171/45 121/158/45
f 132/173/46 131/159/46 125/158/46 123/174/46
f 129/175/47 132/176/47 123/158/47 124/177/47
f 131/158/48 130/178/48 121/170/48 125/171/48
f 117/171/49 111/170/49 130/179/49 131/158/49
f 116/180/50 115/181/50 132/182/50 129/183/50
f 115/162/51 117/158/51 131/158/51 132/184/51
f 111/158/52 112/171/52 128/170/52 130/185/52
f 112/171/53 118/158/53 127/159/53 128/170/53
f 118/158/54 116/180/54 129/183/54 127/159/54
o Cube_Cube.003
v -0.023367 -0.118375 0.499517
v -0.023367 -0.013581 0.499517
v -0.023367 -0.118375 0.306154
v -0.023367 -0.013581 0.306154
v 0.454705 -0.118375 0.499517
v 0.454705 -0.013581 0.499517
v 0.454705 -0.118375 0.306154
v 0.454705 -0.013581 0.306154
v -0.023367 -0.073895 0.499517
v -0.023367 -0.073895 0.306154
v 0.454705 -0.073895 0.306154
v 0.454705 -0.073895 0.499517
v -0.089107 -0.106811 -0.073195
v -0.089107 -0.026372 -0.073195
v -0.089107 -0.106811 -0.288470
v -0.089107 -0.026372 -0.288470
v 0.277857 -0.106811 -0.073195
v 0.277857 -0.026372 -0.073195
v 0.277857 -0.106811 -0.288470
v 0.277857 -0.026372 -0.288470
v -0.089107 -0.072669 -0.073195
v -0.089107 -0.072669 -0.288470
v 0.277857 -0.072669 -0.288470
v 0.277857 -0.072669 -0.073195
v 0.094375 -0.106811 -0.288470
v 0.094375 -0.026372 -0.288470
v 0.094375 -0.106811 -0.073195
v 0.094375 -0.026372 -0.073195
v 0.094375 -0.072669 -0.073195
v 0.094375 -0.072669 -0.288470
v -0.095127 -0.029446 -0.255656
v -0.095127 -0.079714 -0.255656
v -0.095127 -0.029446 -0.128117
v -0.095127 -0.079714 -0.128116
v -0.294143 -0.029446 -0.255656
v -0.294143 -0.079714 -0.255656
v -0.294143 -0.029446 -0.128117
v -0.294143 -0.079714 -0.128116
vn -1.0000 -0.0000 -0.0000
vn -0.0000 -0.0000 -1.0000
vn 1.0000 -0.0000 -0.0000
vn -0.0000 -0.0000 1.0000
vn -0.0000 1.0000 -0.0000
vn -0.0000 -1.0000 -0.0000
vt 0.779313 0.689022
vt 0.779313 0.699168
vt 0.779313 0.700484
vt 0.779313 0.703007
vt 0.808412 0.699168
vt 0.808412 0.703007
vt 0.808412 0.700484
vt 0.808412 0.689022
vt 0.799445 0.722900
vt 0.796393 0.722900
vt 0.796393 0.733073
vt 0.799445 0.733073
vt 0.779313 0.699354
vt 0.808412 0.699354
vt 0.788011 0.736207
vt 0.788011 0.732461
vt 0.799445 0.732461
vt 0.799445 0.736207
vt 0.799445 0.733684
vt 0.799445 0.722222
vt 0.788011 0.722561
vt 0.788011 0.719062
vt 0.799445 0.719062
vt 0.799445 0.722561
vt 0.788011 0.731676
vt 0.799445 0.731676
vt 0.799445 0.722723
vt 0.788011 0.722723
vt 0.795864 0.722900
vt 0.795905 0.733073
vt 0.772667 0.733950
vt 0.775641 0.733950
vt 0.775641 0.728046
vt 0.772667 0.728046
vt 0.775641 0.728148
vt 0.775641 0.730609
vt 0.763126 0.730609
vt 0.763126 0.728148
vt 0.765663 0.728046
vt 0.763126 0.728046
vt 0.763126 0.733950
vt 0.765663 0.733950
vt 0.763126 0.731233
vt 0.775641 0.731233
s 0
usemtl Material.001
f 141/186/55 134/186/55 136/187/55 142/188/55
f 142/189/56 136/187/56 140/190/56 143/191/56
f 143/192/57 140/190/57 138/193/57 144/193/57
f 144/193/58 138/193/58 134/186/58 141/186/58
f 153/194/55 146/195/55 148/196/55 154/197/55
f 140/190/59 136/187/59 134/186/59 138/193/59
f 137/193/58 144/193/58 141/186/58 133/186/58
f 139/190/57 143/192/57 144/193/57 137/193/57
f 135/198/56 142/189/56 143/191/56 139/199/56
f 133/186/55 141/186/55 142/188/55 135/187/55
f 162/200/56 158/201/56 152/202/56 155/203/56
f 155/204/57 152/202/57 150/205/57 156/205/57
f 161/206/58 160/207/58 146/208/58 153/209/58
f 158/210/59 148/211/59 146/212/59 160/213/59
f 159/207/58 161/206/58 153/209/58 145/208/58
f 151/202/57 155/204/57 156/205/57 149/205/57
f 157/201/56 162/200/56 155/203/56 151/202/56
f 145/214/55 153/194/55 154/197/55 147/215/55
f 147/202/56 154/203/56 162/200/56 157/201/56
f 149/208/58 156/209/58 161/206/58 159/207/58
f 152/211/59 158/210/59 160/213/59 150/212/59
f 156/209/58 150/208/58 160/207/58 161/206/58
f 154/203/56 148/202/56 158/201/56 162/200/56
f 163/216/55 164/217/55 166/218/55 165/219/55
f 165/220/56 166/221/56 170/222/56 169/223/56
f 169/224/57 170/225/57 168/226/57 167/227/57
f 167/226/58 168/228/58 164/229/58 163/217/58
f 165/218/60 169/225/60 167/226/60 163/217/60
f 170/225/59 166/218/59 164/217/59 168/226/59
