# Blender 3.6.5
# www.blender.org
mtllib Poly_World_Map_Land_Tree_03_Single.mtl
o Cube.005_Cube.005
v -0.086451 -0.013759 0.061546
v -0.030964 -0.013759 -0.066445
v 0.068125 -0.013759 -0.023487
v 0.012639 -0.013759 0.104503
v -0.028800 0.143000 -0.071437
v 0.070289 0.143000 -0.028480
v 0.027332 0.143000 0.070610
v -0.071757 0.143000 0.027653
v 0.025571 0.432000 -0.010808
v -0.011129 0.432000 -0.026718
v 0.009661 0.432000 0.025892
v -0.027039 0.432000 0.009982
v 0.316047 0.354858 0.042284
v 0.310908 0.382994 0.139113
v 0.243476 0.354858 0.206746
v 0.132146 0.536182 0.060231
v 0.089025 0.445520 0.138592
v 0.161597 0.445520 -0.025870
v 0.243694 0.512735 0.109454
v 0.159350 0.425199 0.203795
v 0.256532 0.425199 -0.016441
v 0.339510 0.236059 0.151734
v 0.027703 0.442394 0.056858
v 0.276918 0.311090 0.189040
v 0.068091 0.442394 -0.034668
v 0.325509 0.311090 0.078922
v -0.189286 0.224515 -0.181152
v -0.265837 0.232194 -0.115769
v -0.261723 0.223949 -0.016633
v -0.177555 0.460840 -0.076113
v -0.166924 0.385020 0.025661
v -0.094487 0.385586 -0.138859
v -0.264695 0.381285 -0.114753
v -0.243036 0.323241 0.026096
v -0.146034 0.323999 -0.194218
v 0.000000 0.433000 0.000000
v -0.225569 0.088497 -0.098534
v -0.074087 0.425587 0.012022
v -0.249071 0.174394 -0.043684
v -0.033774 0.425902 -0.079537
v -0.200569 0.174773 -0.153840
v 0.039438 0.354858 -0.318629
v 0.136299 0.382994 -0.314120
v 0.204369 0.354858 -0.247129
v 0.058581 0.536182 -0.134848
v 0.137221 0.445520 -0.092238
v -0.027710 0.445520 -0.163738
v 0.107077 0.512735 -0.246713
v 0.201965 0.425199 -0.162985
v -0.018898 0.425199 -0.258733
v 0.148734 0.236059 -0.342803
v 0.055888 0.442394 -0.030386
v 0.186445 0.311090 -0.280454
v -0.035899 0.442394 -0.070177
v 0.076014 0.311090 -0.328328
v -0.205528 0.354858 0.246436
v -0.136024 0.382994 0.314049
v -0.040598 0.354858 0.317936
v -0.058306 0.536182 0.134777
v 0.026551 0.445520 0.163045
v -0.138380 0.445520 0.091545
v -0.106802 0.512735 0.246643
v 0.019173 0.425199 0.258662
v -0.201690 0.425199 0.162914
v 0.000000 0.433000 0.000000
v -0.148459 0.236059 0.342732
v 0.016096 0.442394 0.061402
v -0.077173 0.311090 0.327636
v -0.075691 0.442394 0.021610
v -0.187604 0.311090 0.279762
vn -0.9175 -0.0000 -0.3978
vn 0.9175 -0.0000 0.3978
vn 0.9162 0.0521 0.3972
vn 0.8800 0.2828 0.3815
vn 0.6576 0.1945 0.7278
vn -0.3972 0.0521 0.9162
vn -0.3815 0.2828 0.8800
vn 0.9805 0.1965 0.0031
vn 0.3975 -0.0347 -0.9169
vn -0.3871 0.2294 0.8930
vn -0.0000 1.0000 -0.0000
vn 0.3972 0.0521 -0.9162
vn 0.3815 0.2828 -0.8800
vn 0.4539 0.4670 0.7589
vn -0.6334 0.6930 0.3443
vn 0.8649 0.4707 -0.1746
vn -0.1604 0.7540 -0.6370
vn 0.3222 0.7553 -0.5707
vn -0.2103 0.7538 0.6226
vn -0.1243 0.6317 -0.7651
vn -0.9643 -0.2647 0.0121
vn 0.2025 0.8763 -0.4370
vn 0.7236 0.1945 -0.6623
vn -0.1602 0.8372 0.5230
vn -0.0033 0.1965 -0.9805
vn -0.6458 0.6289 0.4329
vn -0.6477 -0.2618 -0.7155
vn -0.9908 0.0576 0.1223
vn -0.5807 0.0644 -0.8115
vn 0.7559 0.4670 -0.4588
vn 0.3595 0.6897 0.6285
vn -0.1802 0.4707 -0.8637
vn -0.6356 0.7542 0.1652
vn -0.5727 0.7553 -0.3185
vn 0.6239 0.7538 0.2062
vn 0.0112 0.1945 0.9808
vn -0.6240 0.7553 -0.2003
vn 0.1818 0.4670 0.8654
vn -0.7179 0.1965 0.6679
vn -0.3134 0.7542 -0.5769
vn -0.9162 0.0521 -0.3972
vn -0.8800 0.2828 -0.3815
vn 0.7043 0.6899 -0.1677
vn -0.7536 0.4707 0.4589
vn 0.5770 0.7538 0.3144
vt 0.537493 0.448175
vt 0.532757 0.448121
vt 0.532757 0.459606
vt 0.537493 0.459606
vt 0.537493 0.448175
vt 0.534039 0.445259
vt 0.536297 0.445259
vt 0.526532 0.440996
vt 0.526450 0.451401
vt 0.522781 0.450884
vt 0.523677 0.446718
vt 0.529184 0.447101
vt 0.530403 0.450562
vt 0.537553 0.448741
vt 0.532783 0.448741
vt 0.526611 0.457248
vt 0.522861 0.455863
vt 0.528726 0.461794
vt 0.532306 0.467967
vt 0.527945 0.466202
vt 0.524406 0.461982
vt 0.531745 0.455595
vt 0.532477 0.459870
vt 0.532476 0.464523
s 0
usemtl Material.002
f 2/1/1 1/2/1 8/3/1 5/4/1
f 4/5/2 3/2/2 6/3/2 7/4/2
f 7/4/3 6/3/3 9/6/4 11/7/4
f 22/8/5 14/9/5 15/10/5 24/11/5
f 8/3/6 7/4/6 11/7/7 12/6/7
f 26/12/8 13/13/8 14/9/8 22/8/8
f 3/2/9 2/1/9 5/4/9 6/3/9
f 1/2/10 4/5/10 7/4/10 8/3/10
f 9/6/11 10/7/11 12/14/11 11/15/11
f 6/3/12 5/4/12 10/7/13 9/6/13
f 14/9/14 19/16/14 20/17/14 15/10/14
f 16/18/15 36/19/15 23/20/15 17/21/15
f 13/13/16 21/22/16 19/16/16 14/9/16
f 18/23/17 25/24/17 36/19/17 16/18/17
f 21/22/18 18/23/18 16/18/18 19/16/18
f 19/16/19 16/18/19 17/21/19 20/17/19
f 35/22/20 33/16/20 30/18/20 32/23/20
f 37/8/21 39/11/21 29/10/21 28/9/21
f 32/23/22 30/18/22 36/19/22 40/24/22
f 51/8/23 43/9/23 44/10/23 53/11/23
f 30/18/24 31/21/24 38/20/24 36/19/24
f 55/12/25 42/13/25 43/9/25 51/8/25
f 33/16/26 34/17/26 31/21/26 30/18/26
f 41/12/27 37/8/27 28/9/27 27/13/27
f 28/9/28 29/10/28 34/17/28 33/16/28
f 27/13/29 28/9/29 33/16/29 35/22/29
f 43/9/30 48/16/30 49/17/30 44/10/30
f 45/18/31 65/19/31 52/20/31 46/21/31
f 42/13/32 50/22/32 48/16/32 43/9/32
f 47/23/33 54/24/33 65/19/33 45/18/33
f 50/22/34 47/23/34 45/18/34 48/16/34
f 48/16/35 45/18/35 46/21/35 49/17/35
f 66/8/36 68/11/36 58/10/36 57/9/36
f 64/22/37 62/16/37 59/18/37 61/23/37
f 57/9/38 58/10/38 63/17/38 62/16/38
f 70/12/39 66/8/39 57/9/39 56/13/39
f 61/23/40 59/18/40 65/19/40 69/24/40
f 5/4/41 8/3/41 12/6/42 10/7/42
f 59/18/43 60/21/43 67/20/43 65/19/43
f 56/13/44 57/9/44 62/16/44 64/22/44
f 62/16/45 63/17/45 60/21/45 59/18/45
