# Blender 3.6.5
# www.blender.org
mtllib Poly_Window_08_Light_A.mtl
o Cube.004
v -0.100000 0.950000 -0.488000
v -0.400000 0.950000 -0.488000
v 0.400000 0.350000 -0.488000
v 0.400000 0.100000 -0.488000
v -0.400000 0.350000 -0.488000
v -0.400000 0.100000 -0.488000
v -0.100000 0.100000 -0.488000
v -0.100000 0.350000 -0.488000
v 0.400000 0.950000 -0.488000
v 0.100000 0.950000 -0.488000
v 0.100000 0.100000 -0.488000
v 0.100000 0.350000 -0.488000
v 0.400000 0.700000 -0.488000
v -0.400000 0.700000 -0.488000
v -0.100000 0.700000 -0.488000
v 0.100000 0.700000 -0.488000
v -0.100000 0.650000 -0.488000
v -0.400000 0.650000 -0.488000
v 0.400000 0.650000 -0.488000
v 0.100000 0.650000 -0.488000
v 0.400000 0.400000 -0.488000
v -0.400000 0.400000 -0.488000
v -0.100000 0.400000 -0.488000
v 0.100000 0.400000 -0.488000
v -0.100000 -0.500000 0.951000
v -0.400000 -0.500000 0.951000
v 0.400000 -0.500000 0.341000
v 0.400000 -0.500000 0.101000
v -0.400000 -0.500000 0.341000
v -0.400000 -0.500000 0.101000
v -0.100000 -0.500000 0.101000
v -0.100000 -0.500000 0.341000
v 0.400000 -0.500000 0.951000
v 0.100000 -0.500000 0.951000
v 0.100000 -0.500000 0.101000
v 0.100000 -0.500000 0.341000
v 0.400000 -0.500000 0.701000
v -0.400000 -0.500000 0.701000
v -0.100000 -0.500000 0.701000
v 0.100000 -0.500000 0.701000
v -0.100000 -0.500000 0.651000
v -0.400000 -0.500000 0.651000
v 0.400000 -0.500000 0.651000
v 0.100000 -0.500000 0.651000
v 0.400000 -0.500000 0.401000
v -0.400000 -0.500000 0.401000
v -0.100000 -0.500000 0.401000
v 0.100000 -0.500000 0.401000
v 0.400000 1.160000 -0.488000
v 0.400000 1.110000 -0.488000
v -0.400000 1.160000 -0.488000
v -0.400000 1.110000 -0.488000
v -0.250000 1.268000 -0.488000
v 0.250000 1.268000 -0.488000
v -0.050000 1.326000 -0.488000
v -0.050000 1.110000 -0.488000
v 0.050000 1.326000 -0.488000
v 0.050000 1.110000 -0.488000
v -0.110000 1.110000 -0.488000
v -0.300000 1.235000 -0.488000
v 0.110000 1.110000 -0.488000
v 0.300000 1.235000 -0.488000
v 0.400000 -0.500000 1.121000
v 0.400000 -0.500000 1.061000
v -0.400000 -0.500000 1.121000
v -0.400000 -0.500000 1.061000
v -0.050000 -0.500000 1.261000
v -0.050000 -0.500000 1.061000
v 0.050000 -0.500000 1.261000
v 0.050000 -0.500000 1.061000
v -0.110000 -0.500000 1.061000
v 0.250000 -0.500000 1.221000
v -0.250000 -0.500000 1.221000
v -0.300000 -0.500000 1.181000
v 0.110000 -0.500000 1.061000
v 0.300000 -0.500000 1.181000
v -0.400000 0.950135 -0.299306
v -0.100000 0.950135 -0.299306
v -0.400000 0.700512 -0.300366
v -0.100000 0.700512 -0.300366
v -0.400000 0.650000 -0.300000
v -0.100000 0.650000 -0.300000
v -0.400000 0.400000 -0.300000
v -0.100000 0.400000 -0.300000
v -0.400000 0.350000 -0.300000
v -0.100000 0.350000 -0.300000
v -0.400000 0.100000 -0.300000
v -0.100000 0.100000 -0.300000
v 0.100000 0.100000 -0.300000
v 0.100000 0.350000 -0.300000
v 0.400000 0.350000 -0.300000
v 0.400000 0.100000 -0.300000
v 0.100000 0.648593 -0.302076
v 0.400000 0.648593 -0.302076
v 0.400000 0.400849 -0.300791
v 0.100000 0.400849 -0.300791
v 0.400000 0.950250 -0.299358
v 0.400000 0.701626 -0.302100
v 0.100000 0.701626 -0.302100
v 0.100000 0.950250 -0.299358
v 0.400000 1.160000 -0.300000
v 0.400000 1.110000 -0.300000
v 0.110000 1.110000 -0.300000
v 0.300000 1.235000 -0.300000
v -0.050000 1.110000 -0.300000
v -0.250000 1.268000 -0.300000
v -0.050000 1.326000 -0.300000
v 0.250000 1.268000 -0.300000
v 0.050000 1.110000 -0.300000
v 0.050000 1.326000 -0.300000
v -0.400000 1.160000 -0.300000
v -0.300000 1.235000 -0.300000
v -0.400000 1.110000 -0.300000
v -0.110000 1.110000 -0.300000
vn 1.0000 -0.0000 -0.0000
vn -0.0000 0.6386 0.7696
vn -0.0000 0.6530 0.7574
vn -0.0000 0.6021 0.7984
vn -1.0000 -0.0000 -0.0000
vn -0.0000 0.6373 0.7706
vn -0.0000 -1.0000 -0.0000
vn -0.0000 -0.5557 -0.8314
vn -0.0000 -0.6408 -0.7677
vn -0.0000 -0.6146 -0.7889
vn -0.0000 -0.6405 -0.7679
vn -0.0000 -0.6145 -0.7889
vn -0.0000 -0.6456 -0.7637
vn -0.4266 0.5877 0.6875
vn 0.4266 0.5877 0.6875
vn -0.4891 -0.5661 -0.6636
vn -0.4131 0.5896 0.6940
vn 0.4891 -0.5661 -0.6636
vn 0.4131 0.5896 0.6940
vn 0.1679 0.6417 0.7483
vn -0.1679 0.6417 0.7483
vn -0.0000 -1.0000 0.0027
vn -0.0000 1.0000 -0.0007
vn -0.0000 1.0000 -0.0000
vn -0.0000 -1.0000 0.0045
vn -0.0000 1.0000 0.0076
vn -0.0000 1.0000 -0.0013
vn -0.0000 -1.0000 0.0087
vn -0.5496 0.8354 -0.0000
vn 0.6000 0.8000 -0.0000
vn -0.2785 0.9604 -0.0000
vn -0.6199 -0.7847 -0.0000
vn 0.2785 0.9604 -0.0000
vn 0.6199 -0.7847 -0.0000
vn 0.5496 0.8354 -0.0000
vn -0.6000 0.8000 -0.0000
vt 0.146364 0.203820
vt 0.146364 0.203820
vt 0.146364 0.203820
vt 0.146364 0.203820
vt 0.146364 0.203820
vt 0.146364 0.203820
vt 0.146364 0.203820
vt 0.146364 0.203820
vt 0.146364 0.203820
s 0
usemtl Material.001
f 98/1/1 97/2/1 33/2/1 37/2/1
f 94/3/2 93/4/2 44/2/2 43/2/2
f 78/2/3 77/5/3 26/2/3 25/2/3
f 86/2/4 85/2/4 29/2/4 32/2/4
f 90/2/5 89/6/5 35/2/5 36/2/5
f 82/2/6 81/2/6 42/2/6 41/2/6
f 47/2/7 41/2/7 42/2/7 46/2/7
f 45/2/7 43/2/7 44/2/7 48/2/7
f 31/2/7 32/2/7 29/2/7 30/2/7
f 28/2/7 27/2/7 36/2/7 35/2/7
f 91/6/4 90/2/4 36/2/4 27/2/4
f 92/1/1 91/6/1 27/2/1 28/2/1
f 95/2/1 94/3/1 43/2/1 45/2/1
f 77/5/5 79/2/5 38/2/5 26/2/5
f 85/2/5 87/2/5 30/2/5 29/2/5
f 81/2/5 83/2/5 46/2/5 42/2/5
f 80/2/1 78/2/1 25/2/1 39/2/1
f 87/2/8 88/6/8 31/2/8 30/2/8
f 84/7/1 82/2/1 41/2/1 47/2/1
f 100/2/5 99/6/5 40/2/5 34/2/5
f 88/6/1 86/2/1 32/2/1 31/2/1
f 93/4/5 96/2/5 48/2/5 44/2/5
f 99/6/9 98/1/9 37/2/9 40/2/9
f 97/2/3 100/2/3 34/2/3 33/2/3
f 96/2/10 95/2/10 45/2/10 48/2/10
f 79/2/11 80/2/11 39/2/11 38/2/11
f 89/6/8 92/1/8 28/2/8 35/2/8
f 83/2/12 84/7/12 47/2/12 46/2/12
f 111/6/5 113/2/5 66/2/5 65/2/5
f 103/2/13 102/5/13 64/2/13 75/2/13
f 102/5/1 101/8/1 63/2/1 64/2/1
f 112/5/14 111/6/14 65/2/14 74/2/14
f 101/8/15 104/2/15 76/2/15 63/2/15
f 106/2/16 105/1/16 68/2/16 73/2/16
f 105/1/1 107/8/1 67/2/1 68/2/1
f 104/2/17 103/2/17 75/2/17 76/2/17
f 109/9/18 108/2/18 72/2/18 70/2/18
f 110/2/5 109/9/5 70/2/5 69/2/5
f 114/9/19 112/5/19 74/2/19 71/2/19
f 113/2/13 114/9/13 71/2/13 66/2/13
f 108/2/20 110/2/20 69/2/20 72/2/20
f 107/8/21 106/2/21 73/2/21 67/2/21
f 14/2/22 15/2/22 80/2/22 79/2/22
f 15/2/1 1/2/1 78/2/1 80/2/1
f 2/2/5 14/2/5 79/2/5 77/5/5
f 1/2/23 2/2/23 77/5/23 78/2/23
f 22/2/7 23/2/7 84/7/7 83/2/7
f 23/2/1 17/2/1 82/2/1 84/7/1
f 18/2/5 22/2/5 83/2/5 81/2/5
f 17/2/24 18/2/24 81/2/24 82/2/24
f 7/2/1 8/2/1 86/2/1 88/6/1
f 6/2/7 7/2/7 88/6/7 87/2/7
f 5/2/5 6/2/5 87/2/5 85/2/5
f 8/2/24 5/2/24 85/2/24 86/2/24
f 11/2/7 4/2/7 92/1/7 89/6/7
f 4/2/1 3/2/1 91/6/1 92/1/1
f 3/2/24 12/2/24 90/2/24 91/6/24
f 12/2/5 11/2/5 89/6/5 90/2/5
f 24/2/25 21/2/25 95/2/25 96/2/25
f 20/2/5 24/2/5 96/2/5 93/4/5
f 21/2/1 19/2/1 94/3/1 95/2/1
f 19/2/26 20/2/26 93/4/26 94/3/26
f 9/2/27 10/2/27 100/2/27 97/2/27
f 16/2/28 13/2/28 98/1/28 99/6/28
f 10/2/5 16/2/5 99/6/5 100/2/5
f 13/2/1 9/2/1 97/2/1 98/1/1
f 62/2/29 61/2/29 103/2/29 104/2/29
f 49/2/30 62/2/30 104/2/30 101/8/30
f 50/2/1 49/2/1 101/8/1 102/5/1
f 61/2/7 50/2/7 102/5/7 103/2/7
f 55/2/31 53/2/31 106/2/31 107/8/31
f 56/2/1 55/2/1 107/8/1 105/1/1
f 53/2/32 56/2/32 105/1/32 106/2/32
f 54/2/33 57/2/33 110/2/33 108/2/33
f 57/2/5 58/2/5 109/9/5 110/2/5
f 58/2/34 54/2/34 108/2/34 109/9/34
f 52/2/7 59/2/7 114/9/7 113/2/7
f 59/2/35 60/2/35 112/5/35 114/9/35
f 60/2/36 51/2/36 111/6/36 112/5/36
f 51/2/5 52/2/5 113/2/5 111/6/5
o Cube.003
v -0.100000 0.950000 -0.487000
v -0.400000 0.950000 -0.487000
v 0.400000 0.350000 -0.487000
v 0.400000 0.100000 -0.487000
v -0.400000 0.350000 -0.487000
v -0.400000 0.100000 -0.487000
v -0.100000 0.100000 -0.487000
v -0.100000 0.350000 -0.487000
v 0.400000 0.950000 -0.487000
v 0.100000 0.950000 -0.487000
v 0.100000 0.100000 -0.487000
v 0.100000 0.350000 -0.487000
v 0.400000 0.700000 -0.487000
v -0.400000 0.700000 -0.487000
v -0.100000 0.700000 -0.487000
v 0.100000 0.700000 -0.487000
v -0.100000 0.650000 -0.487000
v -0.400000 0.650000 -0.487000
v 0.400000 0.650000 -0.487000
v 0.100000 0.650000 -0.487000
v 0.400000 0.400000 -0.487000
v -0.400000 0.400000 -0.487000
v -0.100000 0.400000 -0.487000
v 0.100000 0.400000 -0.487000
v 0.400000 1.160000 -0.487000
v 0.400000 1.110000 -0.487000
v -0.400000 1.160000 -0.487000
v -0.400000 1.110000 -0.487000
v -0.250000 1.268000 -0.487000
v 0.250000 1.268000 -0.487000
v -0.050000 1.326000 -0.487000
v -0.050000 1.110000 -0.487000
v 0.050000 1.326000 -0.487000
v 0.050000 1.110000 -0.487000
v -0.110000 1.110000 -0.487000
v -0.300000 1.235000 -0.487000
v 0.110000 1.110000 -0.487000
v 0.300000 1.235000 -0.487000
vn -0.0000 -0.0000 1.0000
vt 0.146364 0.203820
s 0
usemtl Material
f 124/10/37 130/10/37 127/10/37 123/10/37
f 134/10/37 138/10/37 135/10/37 133/10/37
f 118/10/37 117/10/37 126/10/37 125/10/37
f 120/10/37 121/10/37 122/10/37 119/10/37
f 132/10/37 136/10/37 137/10/37 131/10/37
f 116/10/37 128/10/37 129/10/37 115/10/37
f 142/10/37 149/10/37 150/10/37 141/10/37
f 146/10/37 145/10/37 143/10/37
f 147/10/37 148/10/37 144/10/37
f 140/10/37 139/10/37 152/10/37 151/10/37
