# Blender 3.6.5
# www.blender.org
mtllib Poly_World_Map_Pond_01.mtl
o Grid.001
v -0.000011 -0.015079 -0.423772
v -0.249210 -0.015079 -0.342802
v -0.403223 -0.015079 -0.130820
v -0.403223 -0.015079 0.131203
v -0.249210 -0.015079 0.343185
v -0.000011 -0.015079 0.424154
v 0.249189 -0.015079 0.343185
v 0.403202 -0.015079 0.131203
v 0.403202 -0.015079 -0.130820
v 0.249189 -0.015079 -0.342802
v -0.000057 0.067806 -0.390430
v -0.230143 0.067806 -0.315671
v -0.372345 0.067806 -0.119947
v -0.372345 0.067806 0.121980
v -0.230143 0.067806 0.317704
v -0.000057 0.067806 0.392463
v 0.230030 0.067806 0.317704
v 0.372231 0.067806 0.121980
v 0.372231 0.067806 -0.119947
v 0.230030 0.067806 -0.315671
v -0.300275 0.022518 0.097956
v -0.300275 0.022518 -0.097161
v -0.185589 0.022518 -0.255013
v -0.000022 0.022518 0.316102
v 0.300231 0.022518 0.097956
v 0.185544 0.022518 0.255808
v -0.185589 0.022518 0.255808
v 0.185544 0.022518 -0.255013
v 0.300231 0.022518 -0.097161
v -0.000022 0.022518 -0.315307
v -0.201092 0.067806 -0.275993
v 0.201011 0.067806 -0.275993
v -0.000041 0.067806 -0.341318
v -0.000041 0.067806 0.342780
v 0.325267 0.067806 0.106430
v 0.201011 0.067806 0.277455
v -0.325349 0.067806 0.106430
v -0.325349 0.067806 -0.104968
v -0.201092 0.067806 0.277455
v 0.325267 0.067806 -0.104968
vn 0.7091 0.4814 0.5152
vn 0.8749 0.4844 -0.0000
vn -0.7566 0.3540 -0.5497
vn 0.7564 0.3547 -0.5496
vn 0.2904 0.3419 0.8937
vn -0.9371 0.3491 -0.0000
vn 0.2886 0.3575 -0.8882
vn 0.7593 0.3451 0.5517
vn -0.7595 0.3444 0.5518
vn -0.2886 0.3572 -0.8883
vn 0.9367 0.3500 -0.0000
vn -0.2904 0.3416 0.8938
vn 0.7065 0.4872 -0.5133
vn 0.2696 0.4888 -0.8297
vn -0.2696 0.4887 -0.8298
vn -0.7067 0.4868 -0.5135
vn -0.8752 0.4838 -0.0000
vn -0.7093 0.4810 0.5153
vn -0.2712 0.4793 0.8347
vn 0.2712 0.4795 0.8346
vn -0.0000 1.0000 -0.0000
vt 0.281969 0.985018
vt 0.271006 0.985018
vt 0.271006 0.989357
vt 0.281969 0.989357
vt 0.292710 0.989357
vt 0.292710 0.985018
vt 0.252971 0.977679
vt 0.257928 0.976200
vt 0.266835 0.987089
vt 0.263773 0.990884
vt 0.309529 0.977679
vt 0.298727 0.990884
vt 0.295659 0.987089
vt 0.304566 0.976200
vt 0.298727 0.948151
vt 0.295659 0.951852
vt 0.281247 0.947692
vt 0.281250 0.943107
vt 0.252971 0.961356
vt 0.257928 0.962741
vt 0.281250 0.995928
vt 0.281247 0.991249
vt 0.309529 0.961356
vt 0.304566 0.962741
vt 0.263773 0.948151
vt 0.266835 0.951852
vt 0.264378 0.949191
vt 0.267674 0.953071
vt 0.259186 0.963023
vt 0.253854 0.961529
vt 0.281406 0.944478
vt 0.281407 0.949270
vt 0.298434 0.949191
vt 0.295141 0.953071
vt 0.308959 0.961529
vt 0.303628 0.963023
vt 0.308959 0.976780
vt 0.303628 0.975323
vt 0.298434 0.989119
vt 0.295141 0.985274
vt 0.281406 0.993832
vt 0.281407 0.989075
vt 0.264378 0.989119
vt 0.267674 0.985274
vt 0.253854 0.976780
vt 0.259186 0.975323
s 0
usemtl Material.002
f 22/1/1 23/2/1 31/3/1 38/4/1
f 22/1/2 38/4/2 37/5/2 21/6/2
f 3/7/3 13/8/3 12/9/3 2/10/3
f 9/11/4 10/12/4 20/13/4 19/14/4
f 7/15/5 17/16/5 16/17/5 6/18/5
f 4/19/6 14/20/6 13/8/6 3/7/6
f 1/21/7 11/22/7 20/13/7 10/12/7
f 7/15/8 8/23/8 18/24/8 17/16/8
f 5/25/9 15/26/9 14/20/9 4/19/9
f 2/10/10 12/9/10 11/22/10 1/21/10
f 9/11/11 19/14/11 18/24/11 8/23/11
f 6/18/12 16/17/12 15/26/12 5/25/12
f 27/2/13 21/1/13 37/4/13 39/3/13
f 27/2/14 39/3/14 34/4/14 24/1/14
f 26/6/15 24/1/15 34/4/15 36/5/15
f 26/6/16 36/5/16 35/4/16 25/1/16
f 29/1/17 25/6/17 35/5/17 40/4/17
f 40/4/18 32/5/18 28/6/18 29/1/18
f 33/4/19 30/1/19 28/6/19 32/5/19
f 30/1/20 33/4/20 31/3/20 23/2/20
f 15/27/21 39/28/21 37/29/21 14/30/21
f 15/27/21 16/31/21 34/32/21 39/28/21
f 17/33/21 36/34/21 34/32/21 16/31/21
f 17/33/21 18/35/21 35/36/21 36/34/21
f 19/37/21 40/38/21 35/36/21 18/35/21
f 19/37/21 20/39/21 32/40/21 40/38/21
f 32/40/21 20/39/21 11/41/21 33/42/21
f 11/41/21 12/43/21 31/44/21 33/42/21
f 13/45/21 38/46/21 31/44/21 12/43/21
f 13/45/21 14/30/21 37/29/21 38/46/21
o Grid.002
v -0.300275 0.022518 0.097956
v -0.300275 0.022518 -0.097161
v -0.185589 0.022518 -0.255013
v -0.000022 0.022518 0.316102
v 0.300231 0.022518 0.097956
v 0.185544 0.022518 0.255808
v -0.185589 0.022518 0.255808
v 0.185544 0.022518 -0.255013
v 0.300231 0.022518 -0.097161
v -0.000022 0.022518 -0.315307
vn -0.0000 1.0000 -0.0000
vt 0.299203 0.978756
vt 0.288496 0.985206
vt 0.275149 0.985332
vt 0.264258 0.979088
vt 0.259985 0.968857
vt 0.263960 0.958548
vt 0.274667 0.952098
vt 0.288015 0.951971
vt 0.298905 0.958216
vt 0.303179 0.968447
s 0
usemtl Material.002
f 41/47/22 47/48/22 44/49/22 46/50/22 45/51/22 49/52/22 48/53/22 50/54/22 43/55/22 42/56/22
