# Blender v3.0.1 OBJ File: 'Inside_Poly_Crate_Big_01.blend'
# www.blender.org
mtllib Poly_Crate_Big_01.mtl
o Cube
v -0.480000 0.000000 0.480000
v -0.480000 0.700000 0.480000
v -0.480000 0.000000 -0.480000
v -0.480000 0.700000 -0.480000
v 0.480000 0.000000 0.480000
v 0.480000 0.700000 0.480000
v 0.480000 0.000000 -0.480000
v 0.480000 0.700000 -0.480000
v -0.480000 0.050000 0.480000
v -0.480000 0.050000 -0.480000
v 0.480000 0.050000 -0.480000
v 0.480000 0.050000 0.480000
v -0.480000 0.650000 0.480000
v -0.480000 0.650000 -0.480000
v 0.480000 0.650000 -0.480000
v 0.480000 0.650000 0.480000
v -0.480000 0.000000 0.380000
v -0.480000 0.700000 0.380000
v 0.480000 0.000000 0.380000
v 0.480000 0.700000 0.380000
v 0.480000 0.050000 0.380000
v -0.480000 0.050000 0.380000
v 0.480000 0.650000 0.380000
v -0.480000 0.650000 0.380000
v -0.480000 0.700000 -0.380000
v 0.480000 0.000000 -0.380000
v -0.480000 0.050000 -0.380000
v -0.480000 0.650000 -0.380000
v -0.480000 0.000000 -0.380000
v 0.480000 0.700000 -0.380000
v 0.480000 0.050000 -0.380000
v 0.480000 0.650000 -0.380000
v 0.380000 0.000000 -0.480000
v 0.380000 0.700000 -0.480000
v 0.380000 0.000000 0.480000
v 0.380000 0.700000 0.480000
v 0.380000 0.050000 0.480000
v 0.380000 0.050000 -0.480000
v 0.380000 0.650000 0.480000
v 0.380000 0.650000 -0.480000
v 0.380000 0.700000 0.380000
v 0.380000 0.000000 0.380000
v 0.380000 0.000000 -0.380000
v 0.380000 0.700000 -0.380000
v -0.380000 0.000000 -0.480000
v -0.380000 0.700000 0.480000
v -0.380000 0.050000 0.480000
v -0.380000 0.650000 0.480000
v -0.380000 0.000000 0.380000
v -0.380000 0.000000 -0.380000
v -0.380000 0.700000 -0.480000
v -0.380000 0.000000 0.480000
v -0.380000 0.050000 -0.480000
v -0.380000 0.650000 -0.480000
v -0.380000 0.700000 0.380000
v -0.380000 0.700000 -0.380000
v 0.440000 0.050000 -0.380000
v 0.440000 0.050000 0.380000
v 0.440000 0.650000 -0.380000
v 0.440000 0.650000 0.380000
v -0.440000 0.650000 0.380000
v -0.440000 0.050000 0.380000
v -0.440000 0.050000 -0.380000
v -0.440000 0.650000 -0.380000
v -0.380000 0.050000 -0.440000
v 0.380000 0.050000 -0.440000
v -0.380000 0.650000 -0.440000
v 0.380000 0.650000 -0.440000
v 0.380000 0.650000 0.440000
v 0.380000 0.050000 0.440000
v -0.380000 0.050000 0.440000
v -0.380000 0.650000 0.440000
v -0.330000 0.700000 -0.480000
v -0.330000 0.000000 0.480000
v -0.330000 0.050000 -0.480000
v -0.330000 0.650000 -0.480000
v -0.330000 0.700000 0.380000
v -0.330000 0.700000 -0.380000
v -0.330000 0.000000 -0.480000
v -0.330000 0.700000 0.480000
v -0.330000 0.050000 0.480000
v -0.330000 0.650000 0.480000
v -0.330000 0.000000 0.380000
v -0.330000 0.000000 -0.380000
v -0.330000 0.050000 -0.440000
v -0.330000 0.650000 -0.440000
v -0.330000 0.050000 0.440000
v -0.330000 0.650000 0.440000
v -0.210000 0.700000 -0.480000
v -0.210000 0.000000 0.480000
v -0.210000 0.050000 -0.480000
v -0.210000 0.650000 -0.480000
v -0.210000 0.700000 0.380000
v -0.210000 0.700000 -0.380000
v -0.210000 0.050000 -0.440000
v -0.210000 0.650000 -0.440000
v -0.210000 0.000000 -0.480000
v -0.210000 0.700000 0.480000
v -0.210000 0.050000 0.480000
v -0.210000 0.650000 0.480000
v -0.210000 0.000000 0.380000
v -0.210000 0.000000 -0.380000
v -0.210000 0.050000 0.440000
v -0.210000 0.650000 0.440000
v 0.230000 0.700000 -0.480000
v 0.230000 0.000000 0.480000
v 0.230000 0.050000 -0.480000
v 0.230000 0.650000 -0.480000
v 0.230000 0.700000 0.380000
v 0.230000 0.700000 -0.380000
v 0.230000 0.050000 -0.440000
v 0.230000 0.650000 -0.440000
v 0.230000 0.000000 -0.480000
v 0.230000 0.700000 0.480000
v 0.230000 0.050000 0.480000
v 0.230000 0.650000 0.480000
v 0.230000 0.000000 0.380000
v 0.230000 0.000000 -0.380000
v 0.230000 0.050000 0.440000
v 0.230000 0.650000 0.440000
v 0.310000 0.700000 -0.480000
v 0.310000 0.000000 0.480000
v 0.310000 0.050000 -0.480000
v 0.310000 0.650000 -0.480000
v 0.310000 0.700000 0.380000
v 0.310000 0.700000 -0.380000
v 0.310000 0.050000 -0.440000
v 0.310000 0.650000 -0.440000
v 0.310000 0.000000 -0.480000
v 0.310000 0.700000 0.480000
v 0.310000 0.050000 0.480000
v 0.310000 0.650000 0.480000
v 0.310000 0.000000 0.380000
v 0.310000 0.000000 -0.380000
v 0.310000 0.050000 0.440000
v 0.310000 0.650000 0.440000
v 0.310000 0.680000 0.380000
v 0.380000 0.680000 0.380000
v 0.310000 0.680000 -0.380000
v 0.380000 0.680000 -0.380000
v -0.380000 0.680000 -0.380000
v -0.380000 0.680000 0.380000
v -0.330000 0.680000 0.380000
v -0.330000 0.680000 -0.380000
v -0.210000 0.680000 -0.380000
v -0.210000 0.680000 0.380000
v 0.230000 0.680000 0.380000
v 0.230000 0.680000 -0.380000
vt 0.806062 0.556195
vt 0.812285 0.556195
vt 0.812285 0.562451
vt 0.806062 0.562451
vt 0.806062 0.507749
vt 0.812285 0.507749
vt 0.812285 0.500195
vt 0.806062 0.500195
vt 0.806062 0.556195
vt 0.812285 0.556195
vt 0.812285 0.562451
vt 0.806062 0.562451
vt 0.806062 0.507749
vt 0.812285 0.507749
vt 0.812285 0.500195
vt 0.806062 0.500195
vt 0.757478 0.556195
vt 0.750049 0.556195
vt 0.750049 0.562451
vt 0.757478 0.562451
vt 0.817950 0.621007
vt 0.812861 0.621007
vt 0.812861 0.623607
vt 0.817950 0.623607
vt 0.750049 0.507749
vt 0.757478 0.507749
vt 0.757478 0.500195
vt 0.750049 0.500195
vt 0.757478 0.556195
vt 0.757478 0.562451
vt 0.750049 0.507749
vt 0.757478 0.507749
vt 0.757478 0.500195
vt 0.750049 0.500195
vt 0.750049 0.556195
vt 0.757478 0.556195
vt 0.757478 0.562451
vt 0.750049 0.562451
vt 0.757478 0.556205
vt 0.806062 0.556205
vt 0.806062 0.562192
vt 0.757478 0.562192
vt 0.757478 0.556205
vt 0.806062 0.556205
vt 0.806062 0.562192
vt 0.757478 0.562192
vt 0.806062 0.556205
vt 0.757478 0.556205
vt 0.806062 0.562451
vt 0.757478 0.562451
vt 0.757478 0.556195
vt 0.806062 0.556195
vt 0.757478 0.507749
vt 0.750049 0.507749
vt 0.750049 0.500195
vt 0.757478 0.500195
vt 0.757478 0.562451
vt 0.750049 0.562451
vt 0.817950 0.596221
vt 0.812861 0.596221
vt 0.757478 0.507749
vt 0.750049 0.507749
vt 0.757478 0.500195
vt 0.750049 0.500195
vt 0.750049 0.562451
vt 0.757478 0.562451
vt 0.812285 0.507749
vt 0.806062 0.507749
vt 0.812285 0.507749
vt 0.806062 0.507749
vt 0.757478 0.500195
vt 0.750049 0.505186
vt 0.757478 0.505186
vt 0.817950 0.593678
vt 0.812861 0.593678
vt 0.757478 0.507749
vt 0.757478 0.562451
vt 0.806062 0.562451
vt 0.806062 0.556195
vt 0.757478 0.556195
vt 0.750049 0.557488
vt 0.750049 0.562451
vt 0.757478 0.562451
vt 0.757478 0.554910
vt 0.873976 0.593678
vt 0.870093 0.593678
vt 0.870093 0.596263
vt 0.873976 0.596263
vt 0.761351 0.500195
vt 0.761351 0.505186
vt 0.761351 0.507749
vt 0.761351 0.556195
vt 0.870093 0.621120
vt 0.873976 0.621120
vt 0.750049 0.500195
vt 0.750049 0.562451
vt 0.757478 0.562451
vt 0.757478 0.500195
vt 0.806062 0.556195
vt 0.757478 0.556195
vt 0.750049 0.505159
vt 0.757478 0.505159
vt 0.757478 0.500195
vt 0.750049 0.500195
vt 0.750049 0.556195
vt 0.870093 0.623607
vt 0.873976 0.623607
vt 0.761351 0.562451
vt 0.812285 0.556195
vt 0.757478 0.505159
vt 0.750049 0.505159
vt 0.750049 0.500195
vt 0.757478 0.500195
vt 0.812285 0.556195
vt 0.806062 0.556195
vt 0.812285 0.556195
vt 0.806062 0.556195
vt 0.806062 0.562451
vt 0.812285 0.562451
vt 0.757478 0.556195
vt 0.750049 0.556195
vt 0.812285 0.507749
vt 0.806062 0.507749
vt 0.812285 0.500195
vt 0.806062 0.500195
vt 0.806062 0.505186
vt 0.812285 0.505186
vt 0.823382 0.593678
vt 0.819032 0.593678
vt 0.819032 0.596169
vt 0.823382 0.596169
vt 0.864933 0.621703
vt 0.864933 0.597197
vt 0.862061 0.597197
vt 0.862061 0.621703
vt 0.757478 0.562451
vt 0.806062 0.562451
vt 0.806062 0.556195
vt 0.757478 0.556195
vt 0.750049 0.511981
vt 0.757478 0.511981
vt 0.823382 0.621052
vt 0.819032 0.621052
vt 0.819032 0.623607
vt 0.823382 0.623607
vt 0.806062 0.511981
vt 0.812285 0.511981
vt 0.757478 0.507749
vt 0.806062 0.507749
vt 0.806062 0.556195
vt 0.757478 0.556195
vt 0.757478 0.507749
vt 0.806062 0.507749
vt 0.758137 0.551775
vt 0.805730 0.551704
vt 0.805739 0.555586
vt 0.758147 0.555657
vt 0.758043 0.512949
vt 0.805636 0.512878
vt 0.805626 0.508995
vt 0.758033 0.509066
vt 0.750049 0.505633
vt 0.750049 0.500195
vt 0.757478 0.500195
vt 0.757478 0.505633
vt 0.750049 0.557013
vt 0.750049 0.562451
vt 0.757478 0.562451
vt 0.757478 0.554488
vt 0.757478 0.562451
vt 0.806062 0.562451
vt 0.806062 0.556195
vt 0.757478 0.556195
vt 0.806062 0.562451
vt 0.806062 0.562451
vt 0.757478 0.562451
vt 0.757478 0.556195
vt 0.806062 0.556195
vt 0.750049 0.505159
vt 0.750049 0.500195
vt 0.757478 0.500195
vt 0.757478 0.505159
vt 0.757478 0.500195
vt 0.750049 0.500195
vt 0.750049 0.562451
vt 0.806062 0.562451
vt 0.757478 0.562451
vt 0.757478 0.556195
vt 0.806062 0.556195
vt 0.750049 0.500195
vt 0.750049 0.562451
vt 0.750049 0.500195
vt 0.750049 0.562451
vt 0.757478 0.562451
vt 0.757478 0.500195
vt 0.757478 0.562451
vt 0.806062 0.562451
vt 0.806062 0.556195
vt 0.757478 0.556195
vt 0.757478 0.562451
vt 0.806062 0.562451
vt 0.806062 0.556195
vt 0.757478 0.556195
vt 0.750049 0.562451
vt 0.750049 0.557013
vt 0.757478 0.557013
vt 0.757478 0.562451
vt 0.750049 0.548735
vt 0.757478 0.546578
vt 0.750049 0.513911
vt 0.757478 0.513911
vt 0.758059 0.519743
vt 0.805652 0.519672
vt 0.758033 0.509066
vt 0.805626 0.508995
vt 0.805636 0.512878
vt 0.758043 0.512949
vt 0.806062 0.518423
vt 0.812285 0.518423
vt 0.829583 0.621032
vt 0.823203 0.621032
vt 0.823203 0.623607
vt 0.829583 0.623607
vt 0.750049 0.518423
vt 0.757478 0.518423
vt 0.829583 0.596247
vt 0.823203 0.596247
vt 0.829583 0.593678
vt 0.823203 0.593678
vt 0.757478 0.562451
vt 0.750049 0.562451
vt 0.750049 0.557013
vt 0.757478 0.557013
vt 0.801818 0.556195
vt 0.801818 0.562451
vt 0.750049 0.562451
vt 0.757478 0.557013
vt 0.750049 0.557013
vt 0.801818 0.507749
vt 0.801819 0.500195
vt 0.801818 0.505186
vt 0.750049 0.500195
vt 0.750049 0.505633
vt 0.757478 0.508807
vt 0.757478 0.500195
vt 0.858451 0.593678
vt 0.830005 0.593678
vt 0.830005 0.596169
vt 0.858451 0.596169
vt 0.862262 0.597197
vt 0.862262 0.621703
vt 0.864865 0.621703
vt 0.864865 0.597197
vt 0.750049 0.546093
vt 0.757478 0.546093
vt 0.858451 0.621052
vt 0.830005 0.621052
vt 0.830005 0.623607
vt 0.858451 0.623607
vt 0.806062 0.546093
vt 0.812285 0.546093
vt 0.758123 0.545951
vt 0.805716 0.545880
vt 0.750049 0.549470
vt 0.757478 0.549470
vt 0.750049 0.513177
vt 0.757478 0.512600
vt 0.750049 0.548735
vt 0.757478 0.548735
vt 0.805652 0.519672
vt 0.758059 0.519743
vt 0.750049 0.548735
vt 0.757478 0.548735
vt 0.795358 0.556195
vt 0.795358 0.562451
vt 0.757478 0.548735
vt 0.750049 0.548735
vt 0.795358 0.507749
vt 0.795358 0.500195
vt 0.795358 0.505186
vt 0.750049 0.513911
vt 0.757478 0.516167
vt 0.750049 0.505159
vt 0.757478 0.504938
vt 0.750049 0.557488
vt 0.757478 0.557488
vt 0.758137 0.551775
vt 0.805730 0.551704
vt 0.806062 0.552333
vt 0.812285 0.552333
vt 0.864792 0.621052
vt 0.864792 0.623607
vt 0.750049 0.552333
vt 0.757478 0.552333
vt 0.864792 0.596247
vt 0.858451 0.621703
vt 0.864792 0.621703
vt 0.864792 0.593678
vt 0.750049 0.513177
vt 0.757478 0.513177
vt 0.805716 0.545880
vt 0.758123 0.545951
vt 0.750049 0.513177
vt 0.757478 0.513177
vt 0.767608 0.556195
vt 0.767608 0.562451
vt 0.757478 0.513177
vt 0.750049 0.513177
vt 0.767608 0.507749
vt 0.767609 0.500195
vt 0.767608 0.505186
vt 0.750049 0.549470
vt 0.757478 0.547781
vt 0.868836 0.593678
vt 0.864865 0.593678
vt 0.864865 0.596169
vt 0.868836 0.596169
vt 0.819032 0.621703
vt 0.823382 0.621704
vt 0.823382 0.621704
vt 0.819032 0.621703
vt 0.868836 0.621052
vt 0.864865 0.621052
vt 0.864865 0.623607
vt 0.868836 0.623607
vt 0.758147 0.555657
vt 0.805739 0.555586
vt 0.750049 0.562451
vt 0.757478 0.562451
vt 0.750049 0.500195
vt 0.757478 0.500195
vt 0.760296 0.566540
vt 0.757492 0.566540
vt 0.757492 0.621703
vt 0.760297 0.621704
vt 0.795365 0.566540
vt 0.766919 0.566540
vt 0.766919 0.621704
vt 0.795365 0.621703
vt 0.805750 0.566540
vt 0.801780 0.566540
vt 0.801780 0.621703
vt 0.805750 0.621703
vt 0.858451 0.597197
vt 0.830005 0.597197
vt 0.830005 0.597197
vt 0.858451 0.597197
vt 0.827252 0.597197
vt 0.827252 0.621704
vt 0.829557 0.621704
vt 0.829557 0.597197
vt 0.823382 0.597197
vt 0.819032 0.597197
vt 0.819032 0.597197
vt 0.823382 0.597197
vt 0.868836 0.597197
vt 0.864865 0.597197
vt 0.868836 0.597197
vt 0.864865 0.621703
vt 0.868836 0.621703
vt 0.868836 0.621703
vt 0.872835 0.621703
vt 0.872733 0.597197
vt 0.870067 0.597197
vt 0.870067 0.621703
vt 0.830005 0.621704
vt 0.858451 0.621703
vt 0.830005 0.621704
vt 0.827248 0.621704
vt 0.827248 0.597197
vt 0.829777 0.597197
vt 0.829777 0.621704
vt 0.817934 0.597197
vt 0.817934 0.620541
vt 0.815431 0.620541
vt 0.815367 0.597197
vn -1.0000 0.0000 0.0000
vn 0.0000 0.0000 -1.0000
vn 1.0000 0.0000 0.0000
vn 0.0000 0.0000 1.0000
vn 0.0000 -1.0000 0.0000
vn 0.0000 1.0000 0.0000
usemtl Material
s off
f 28/1/1 25/2/1 4/3/1 14/4/1
f 40/5/2 34/6/2 8/7/2 15/8/2
f 23/9/3 20/10/3 6/11/3 16/12/3
f 48/13/4 46/14/4 2/15/4 13/16/4
f 42/17/5 19/18/5 5/19/5 35/20/5
f 55/21/6 18/22/6 2/23/6 46/24/6
f 52/25/4 47/26/4 9/27/4 1/28/4
f 19/18/3 21/29/3 12/30/3 5/19/3
f 33/31/2 38/32/2 11/33/2 7/34/2
f 29/35/1 27/36/1 10/37/1 3/38/1
f 47/39/4 48/40/4 13/41/4 9/42/4
f 21/29/3 23/9/3 16/12/3 12/30/3
f 38/43/2 40/44/2 15/45/2 11/46/2
f 27/36/1 28/1/1 14/4/1 10/37/1
f 9/42/1 13/41/1 24/47/1 22/48/1
f 28/49/4 27/50/4 63/51/4 64/52/4
f 1/28/1 9/27/1 22/53/1 17/54/1
f 26/55/3 31/56/3 21/57/3 19/58/3
f 56/59/6 25/60/6 18/22/6 55/21/6
f 43/61/5 26/62/5 19/18/5 42/17/5
f 32/63/3 30/64/3 20/65/3 23/66/3
f 13/16/1 2/15/1 18/67/1 24/68/1
f 15/8/3 8/7/3 30/69/3 32/70/3
f 33/71/5 7/34/5 26/72/5 43/73/5
f 51/74/6 4/75/6 25/60/6 56/59/6
f 7/34/3 11/33/3 31/76/3 26/62/3
f 11/77/3 15/78/3 32/79/3 31/80/3
f 131/81/6 37/82/6 70/83/6 135/84/6
f 17/54/1 22/53/1 27/36/1 29/35/1
f 24/68/1 18/67/1 25/2/1 28/1/1
f 8/85/6 34/86/6 44/87/6 30/88/6
f 129/89/5 33/71/5 43/73/5 134/90/5
f 134/91/5 43/61/5 42/17/5 133/92/5
f 30/88/6 44/87/6 41/93/6 20/94/6
f 32/95/5 23/96/5 60/97/5 59/98/5
f 12/30/4 16/12/4 39/99/4 37/100/4
f 129/101/2 123/102/2 38/103/2 33/104/2
f 5/19/4 12/30/4 37/100/4 35/105/4
f 20/94/6 41/93/6 36/106/6 6/107/6
f 133/92/5 42/17/5 35/20/5 122/108/5
f 16/12/4 6/11/4 36/109/4 39/99/4
f 124/110/2 121/111/2 34/112/2 40/113/2
f 14/4/2 4/3/2 51/114/2 54/115/2
f 17/116/5 49/117/5 52/118/5 1/119/5
f 3/38/2 10/37/2 53/120/2 45/121/2
f 10/37/2 14/4/2 54/115/2 53/120/2
f 29/122/5 50/123/5 49/117/5 17/116/5
f 3/124/5 45/125/5 50/126/5 29/127/5
f 73/128/6 51/129/6 56/130/6 78/131/6
f 109/132/1 110/133/1 148/134/1 147/135/1
f 31/136/4 32/137/4 59/138/4 57/139/4
f 74/140/4 81/141/4 47/26/4 52/25/4
f 77/142/6 55/143/6 46/144/6 80/145/6
f 82/146/4 80/147/4 46/14/4 48/13/4
f 57/148/3 59/149/3 60/150/3 58/151/3
f 62/152/1 61/153/1 64/52/1 63/51/1
f 127/154/2 128/155/2 68/156/2 66/157/2
f 87/158/4 88/159/4 72/160/4 71/161/4
f 82/162/5 48/163/5 72/164/5 88/165/5
f 75/166/6 53/167/6 65/168/6 85/169/6
f 22/170/2 24/171/2 61/172/2 62/173/2
f 23/174/2 21/57/2 58/151/2 60/150/2
f 48/175/3 47/176/3 71/177/3 72/178/3
f 124/179/5 40/180/5 68/181/5 128/182/5
f 27/50/6 22/183/6 62/184/6 63/185/6
f 40/186/1 38/187/1 66/188/1 68/189/1
f 21/57/6 31/56/6 57/190/6 58/191/6
f 24/192/5 28/193/5 64/194/5 61/195/5
f 53/196/3 54/197/3 67/198/3 65/199/3
f 37/200/1 39/201/1 69/202/1 70/203/1
f 54/204/5 76/205/5 86/206/5 67/207/5
f 91/208/6 75/166/6 85/169/6 95/209/6
f 100/210/5 82/162/5 88/165/5 104/211/5
f 103/212/4 104/213/4 88/159/4 87/158/4
f 65/214/2 67/215/2 86/216/2 85/217/2
f 100/218/4 98/219/4 80/147/4 82/146/4
f 93/220/6 77/221/6 80/222/6 98/223/6
f 90/224/4 99/225/4 81/141/4 74/140/4
f 94/226/6 78/227/6 77/221/6 93/220/6
f 89/228/6 73/229/6 78/227/6 94/226/6
f 54/230/2 51/231/2 73/232/2 76/233/2
f 49/117/5 83/234/5 74/235/5 52/118/5
f 45/236/2 53/196/2 75/237/2 79/238/2
f 50/123/5 84/239/5 83/234/5 49/117/5
f 45/125/5 79/240/5 84/241/5 50/126/5
f 47/242/6 81/243/6 87/244/6 71/245/6
f 105/246/6 89/247/6 94/248/6 110/249/6
f 126/250/3 125/251/3 137/252/3 139/253/3
f 106/254/4 115/255/4 99/225/4 90/224/4
f 109/256/6 93/257/6 98/258/6 114/259/6
f 116/260/4 114/261/4 98/219/4 100/218/4
f 119/262/4 120/263/4 104/213/4 103/212/4
f 116/264/5 100/210/5 104/211/5 120/265/5
f 107/266/6 91/208/6 95/209/6 111/267/6
f 76/205/5 92/268/5 96/269/5 86/206/5
f 85/217/2 86/216/2 96/270/2 95/271/2
f 76/233/2 73/232/2 89/272/2 92/273/2
f 83/234/5 101/274/5 90/275/5 74/235/5
f 79/238/2 75/237/2 91/276/2 97/277/2
f 84/239/5 102/278/5 101/274/5 83/234/5
f 79/240/5 97/279/5 102/280/5 84/241/5
f 81/243/6 99/281/6 103/282/6 87/244/6
f 123/283/6 107/266/6 111/267/6 127/284/6
f 132/285/5 116/264/5 120/265/5 136/286/5
f 135/287/4 136/288/4 120/263/4 119/262/4
f 132/289/4 130/290/4 114/261/4 116/260/4
f 125/291/6 109/256/6 114/259/6 130/292/6
f 122/293/4 131/294/4 115/255/4 106/254/4
f 126/295/6 110/249/6 109/296/6 125/297/6
f 121/298/6 105/246/6 110/249/6 126/295/6
f 92/268/5 108/299/5 112/300/5 96/269/5
f 95/271/2 96/270/2 112/301/2 111/302/2
f 92/273/2 89/272/2 105/303/2 108/304/2
f 101/274/5 117/305/5 106/306/5 90/275/5
f 97/277/2 91/276/2 107/307/2 113/308/2
f 102/278/5 118/309/5 117/305/5 101/274/5
f 97/279/5 113/310/5 118/311/5 102/280/5
f 99/281/6 115/312/6 119/313/6 103/282/6
f 34/314/6 121/315/6 126/316/6 44/317/6
f 55/318/2 77/319/2 143/320/2 142/321/2
f 35/105/4 37/100/4 131/294/4 122/293/4
f 41/322/6 125/323/6 130/324/6 36/325/6
f 39/99/4 36/109/4 130/290/4 132/289/4
f 70/326/4 69/327/4 136/288/4 135/287/4
f 39/328/5 132/285/5 136/286/5 69/329/5
f 38/330/6 123/283/6 127/284/6 66/331/6
f 108/299/5 124/179/5 128/182/5 112/300/5
f 111/302/2 112/301/2 128/155/2 127/154/2
f 108/304/2 105/303/2 121/111/2 124/110/2
f 117/305/5 133/92/5 122/108/5 106/306/5
f 113/308/2 107/307/2 123/102/2 129/101/2
f 118/309/5 134/91/5 133/92/5 117/305/5
f 113/310/5 129/89/5 134/90/5 118/311/5
f 115/312/6 131/81/6 135/84/6 119/313/6
f 144/332/6 141/333/6 142/334/6 143/335/6
f 148/336/6 145/337/6 146/338/6 147/339/6
f 140/340/6 139/341/6 137/342/6 138/343/6
f 110/344/4 94/345/4 145/346/4 148/347/4
f 94/348/3 93/349/3 146/350/3 145/351/3
f 78/352/4 56/353/4 141/354/4 144/355/4
f 44/356/4 126/357/4 139/253/4 140/358/4
f 125/359/2 41/360/2 138/361/2 137/252/2
f 41/362/1 44/363/1 140/364/1 138/365/1
f 93/366/2 109/296/2 147/367/2 146/368/2
f 77/369/1 78/370/1 144/371/1 143/372/1
f 56/373/3 55/374/3 142/375/3 141/376/3
