# Blender 3.6.5
# www.blender.org
mtllib Poly_SF_Outside_B_Timetable_01.mtl
o Cube.001
v 0.220000 0.100000 -0.210000
v 0.220000 0.000000 -0.210000
v 0.220000 0.100000 0.230000
v 0.220000 0.000000 0.230000
v -0.220000 0.100000 -0.210000
v -0.220000 0.000000 -0.210000
v -0.220000 0.100000 0.230000
v -0.220000 0.000000 0.230000
v -0.280000 0.300000 0.150000
v -0.280000 1.000000 0.150000
v -0.280000 0.300000 -0.270000
v -0.280000 1.000000 -0.270000
v 0.280000 0.300000 0.150000
v 0.280000 1.000000 0.150000
v 0.280000 0.300000 -0.270000
v 0.280000 1.000000 -0.270000
v -0.280000 0.650000 0.150000
v -0.280000 0.650000 -0.270000
v 0.280000 0.650000 -0.270000
v 0.280000 0.650000 0.150000
v -0.280000 0.480000 -0.270000
v 0.280000 0.480000 -0.270000
v 0.280000 0.480000 0.150000
v -0.280000 0.480000 0.150000
v -0.280000 0.820000 0.150000
v -0.280000 0.820000 -0.270000
v 0.280000 0.820000 -0.270000
v 0.280000 0.820000 0.150000
v 0.220000 0.100000 0.010000
v -0.220000 0.100000 0.010000
v -0.220000 0.000000 0.010000
v 0.220000 0.000000 0.010000
v 0.000000 0.000000 0.230000
v 0.000000 0.100000 -0.210000
v 0.000000 0.000000 -0.210000
v 0.000000 0.100000 0.230000
v 0.000000 0.000000 0.010000
v 0.000000 0.168889 0.010000
vn -0.0000 -0.0000 -1.0000
vn -0.0000 -0.0000 1.0000
vn -1.0000 -0.0000 -0.0000
vn 1.0000 -0.0000 -0.0000
vn -0.1529 0.9764 0.1529
vn -0.0000 -1.0000 -0.0000
vn -0.0000 1.0000 -0.0000
vn -0.1529 0.9764 -0.1529
vn 0.1529 0.9764 -0.1529
vn 0.1529 0.9764 0.1529
vt 0.647590 0.501421
vt 0.647590 0.506320
vt 0.666435 0.506320
vt 0.666435 0.501421
vt 0.656223 0.508376
vt 0.645952 0.508376
vt 0.645952 0.503802
vt 0.656223 0.503802
vt 0.765622 0.925684
vt 0.750128 0.925684
vt 0.750128 0.907939
vt 0.765622 0.907939
vt 0.794674 0.925684
vt 0.794674 0.907939
vt 0.767822 0.907939
vt 0.767822 0.925684
vt 0.670530 0.547260
vt 0.670530 0.557303
vt 0.641962 0.557303
vt 0.641962 0.547260
vt 0.767822 0.907893
vt 0.794674 0.907893
vt 0.794674 0.925603
vt 0.767822 0.925603
vt 0.769902 0.907939
vt 0.794794 0.907939
vt 0.794794 0.925684
vt 0.769902 0.925684
vt 0.670530 0.527176
vt 0.670530 0.537218
vt 0.641962 0.537218
vt 0.641962 0.527176
vt 0.765817 0.907939
vt 0.781312 0.907939
vt 0.781312 0.925684
vt 0.765817 0.925684
vt 0.794674 0.911797
vt 0.767822 0.911797
vt 0.750323 0.925684
vt 0.750323 0.907939
vt 0.794561 0.907939
vt 0.794561 0.925684
vt 0.767870 0.925684
vt 0.767870 0.907939
vt 0.670530 0.517133
vt 0.641962 0.517133
vt 0.796806 0.907939
vt 0.796806 0.925684
vt 0.656223 0.503916
vt 0.645952 0.504030
vt 0.666494 0.504030
vt 0.666494 0.508376
vt 0.666494 0.503802
s 0
usemtl regular
f 35/1/1 34/2/1 1/3/1 2/4/1
f 33/1/2 36/2/2 7/3/2 8/4/2
f 31/1/3 30/2/3 5/3/3 6/4/3
f 32/1/4 29/2/4 3/3/4 4/4/4
f 38/5/5 30/6/5 7/7/5 36/8/5
f 37/1/6 32/4/6 4/4/6 33/1/6
f 25/9/3 10/10/3 12/11/3 26/12/3
f 26/13/1 12/14/1 16/15/1 27/16/1
f 27/12/4 16/11/4 14/10/4 28/9/4
f 28/17/2 14/18/2 10/19/2 25/20/2
f 11/21/6 15/22/6 13/23/6 9/24/6
f 16/25/7 12/26/7 10/27/7 14/28/7
f 23/29/2 20/30/2 17/31/2 24/32/2
f 22/33/4 19/34/4 20/35/4 23/36/4
f 21/13/1 18/37/1 19/38/1 22/16/1
f 24/36/3 17/35/3 18/34/3 21/33/3
f 9/39/3 24/36/3 21/33/3 11/40/3
f 11/41/1 21/42/1 22/43/1 15/44/1
f 15/40/4 22/33/4 23/36/4 13/39/4
f 13/45/2 23/29/2 24/32/2 9/46/2
f 20/30/2 28/17/2 25/20/2 17/31/2
f 19/34/4 27/47/4 28/48/4 20/35/4
f 18/37/1 26/13/1 27/16/1 19/38/1
f 17/35/3 25/27/3 26/26/3 18/34/3
f 35/1/6 2/4/6 32/4/6 37/1/6
f 34/49/8 5/50/8 30/6/8 38/5/8
f 2/4/4 1/3/4 29/2/4 32/1/4
f 8/4/3 7/3/3 30/2/3 31/1/3
f 1/51/9 34/49/9 38/5/9 29/52/9
f 6/4/6 35/1/6 37/1/6 31/4/6
f 31/4/6 37/1/6 33/1/6 8/4/6
f 29/52/10 38/5/10 36/8/10 3/53/10
f 4/4/2 3/3/2 36/2/2 33/1/2
f 6/4/1 5/3/1 34/2/1 35/1/1
o Cube.002
v 0.000000 0.069387 -0.073142
v -0.070744 0.069387 -0.032298
v -0.070744 0.069387 0.049390
v 0.000000 0.069387 0.090235
v 0.070744 0.069387 0.049390
v 0.070744 0.069387 -0.032298
v 0.000000 0.313611 -0.073142
v -0.070744 0.313611 -0.032298
v -0.070744 0.313611 0.049390
v 0.000000 0.313611 0.090235
v 0.070744 0.313611 0.049390
v 0.070744 0.313611 -0.032298
vn -0.5000 -0.0000 -0.8660
vn 0.5000 -0.0000 -0.8660
vn 0.5000 -0.0000 0.8660
vn -1.0000 -0.0000 -0.0000
vn 1.0000 -0.0000 -0.0000
vn -0.5000 -0.0000 0.8660
vt 0.658763 0.509395
vt 0.658763 0.516836
vt 0.653768 0.516836
vt 0.653768 0.509395
s 0
usemtl regular
f 40/54/11 46/55/11 45/56/11 39/57/11
f 39/57/12 45/56/12 50/55/12 44/54/12
f 43/54/13 49/55/13 48/56/13 42/57/13
f 41/57/14 47/56/14 46/55/14 40/54/14
f 44/57/15 50/56/15 49/55/15 43/54/15
f 42/57/16 48/56/16 47/55/16 41/54/16
o Cube.003
v -0.280000 0.930000 0.250000
v -0.280000 1.000000 0.250000
v -0.280000 0.930000 0.150000
v -0.280000 1.000000 0.150000
v 0.280000 0.930000 0.250000
v 0.280000 1.000000 0.250000
v 0.280000 0.930000 0.150000
v 0.280000 1.000000 0.150000
vn -0.0000 1.0000 -0.0000
vn -1.0000 -0.0000 -0.0000
vn 1.0000 -0.0000 -0.0000
vn -0.0000 -0.0000 1.0000
vn -0.0000 -1.0000 -0.0000
vn -0.0000 -0.0000 -1.0000
vt 0.812326 0.924053
vt 0.750293 0.924053
vt 0.750293 0.916363
vt 0.812326 0.916363
vt 0.750275 0.912669
vt 0.750275 0.907684
vt 0.756271 0.907684
vt 0.756271 0.912669
vt 0.642001 0.558524
vt 0.642001 0.552271
vt 0.670514 0.552271
vt 0.670514 0.558524
vt 0.750293 0.916191
vt 0.812326 0.916191
vt 0.812326 0.907602
vt 0.750293 0.907602
vt 0.812326 0.917798
vt 0.750293 0.917798
s 0
usemtl regular
f 58/58/17 54/59/17 52/60/17 56/61/17
f 51/62/18 52/63/18 54/64/18 53/65/18
f 57/65/19 58/64/19 56/63/19 55/62/19
f 52/66/20 51/67/20 55/68/20 56/69/20
f 53/70/21 57/71/21 55/72/21 51/73/21
f 58/74/22 57/72/22 53/73/22 54/75/22
o Cube.004
v -0.280000 0.930000 0.250000
v -0.200000 0.930000 0.250000
v -0.280000 0.930000 0.150000
v -0.200000 0.930000 0.150000
v -0.280000 0.720000 0.160000
v -0.200000 0.720000 0.160000
v -0.280000 0.720000 0.150000
v -0.200000 0.720000 0.150000
v 0.280000 0.930000 0.250000
v 0.200000 0.930000 0.250000
v 0.280000 0.930000 0.150000
v 0.200000 0.930000 0.150000
v 0.280000 0.720000 0.160000
v 0.200000 0.720000 0.160000
v 0.280000 0.720000 0.150000
v 0.200000 0.720000 0.150000
vn 1.0000 -0.0000 -0.0000
vn -0.0000 1.0000 -0.0000
vn -0.0000 -1.0000 -0.0000
vn -0.0000 -0.3939 0.9191
vn -1.0000 -0.0000 -0.0000
vn -0.0000 -0.0000 -1.0000
vt 0.657818 0.552868
vt 0.670495 0.558229
vt 0.670495 0.552228
vt 0.657818 0.552228
vt 0.646930 0.552147
vt 0.646930 0.558570
vt 0.642047 0.558570
vt 0.642047 0.552147
vt 0.670732 0.552147
vt 0.670732 0.558570
vt 0.665161 0.558570
vt 0.665161 0.552147
vt 0.751414 0.913825
vt 0.762799 0.908464
vt 0.762799 0.907825
vt 0.751414 0.907825
s 0
usemtl regular
f 66/76/23 62/77/23 60/78/23 64/79/23
f 59/80/24 60/81/24 62/82/24 61/83/24
f 65/84/25 66/85/25 64/86/25 63/87/25
f 60/82/26 59/83/26 63/84/26 64/85/26
f 61/88/27 65/89/27 63/90/27 59/91/27
f 66/85/28 65/84/28 61/83/28 62/82/28
f 74/76/27 72/79/27 68/78/27 70/77/27
f 67/80/24 69/83/24 70/82/24 68/81/24
f 73/84/25 71/87/25 72/86/25 74/85/25
f 68/82/26 72/85/26 71/84/26 67/83/26
f 69/88/23 67/91/23 71/90/23 73/89/23
f 74/85/28 70/82/28 69/83/28 73/84/28
