# Blender 3.6.5
# www.blender.org
mtllib Poly_Stairs_02_Left.mtl
o Cube.005
v 0.500000 0.547000 0.500000
v 0.500000 -0.000000 0.500000
v -0.502000 0.000000 0.500000
v 0.249000 0.547000 0.500000
v -0.502000 0.137000 0.500000
v 0.249000 0.410000 0.500000
v -0.002000 0.410000 0.500000
v -0.002000 0.274000 0.500000
v -0.251000 0.274000 0.500000
v -0.251000 0.137000 0.500000
v -0.502000 0.000000 -0.000000
v 0.500000 0.547000 0.000000
v 0.500000 -0.000000 0.000000
v 0.249000 0.547000 0.000000
v 0.249000 0.410000 0.000000
v -0.002000 0.410000 -0.000000
v -0.002000 0.274000 -0.000000
v -0.251000 0.274000 -0.000000
v -0.251000 0.137000 -0.000000
v -0.502000 0.137000 -0.000000
v 0.500000 0.547000 -0.500000
v 0.500000 -0.000000 -0.500000
v -0.502000 0.000000 -0.500000
v 0.249000 0.547000 -0.500000
v -0.502000 0.137000 -0.500000
v 0.249000 0.410000 -0.500000
v -0.002000 0.410000 -0.500000
v -0.002000 0.274000 -0.500000
v -0.251000 0.274000 -0.500000
v -0.251000 0.137000 -0.500000
vn 1.0000 -0.0000 -0.0000
vn -0.0000 -0.0000 1.0000
vn -0.0000 1.0000 -0.0000
vn -1.0000 -0.0000 -0.0000
vn -0.0000 -0.0000 -1.0000
vt 0.234593 0.937589
vt 0.234593 0.964452
vt 0.248622 0.964452
vt 0.248622 0.937589
vt 0.248811 0.937549
vt 0.248811 0.959997
vt 0.238510 0.959997
vt 0.238510 0.954375
vt 0.228210 0.954375
vt 0.228210 0.948794
vt 0.217992 0.948794
vt 0.217992 0.943172
vt 0.207692 0.943172
vt 0.207692 0.937549
vt 0.248549 0.972631
vt 0.248549 0.988984
vt 0.231765 0.989086
vt 0.231751 0.972631
vt 0.200212 0.946615
vt 0.200212 0.962968
vt 0.187392 0.962968
vt 0.187392 0.946615
vt 0.233105 0.967149
vt 0.233105 0.989636
vt 0.248469 0.989636
vt 0.248469 0.967149
vt 0.215845 0.954545
vt 0.215845 0.970898
vt 0.200439 0.970898
vt 0.200439 0.954545
vt 0.231751 0.963598
vt 0.231751 0.979951
vt 0.216064 0.979951
vt 0.216064 0.963598
s 0
usemtl Material.002
f 13/1/1 12/2/1 1/3/1 2/4/1
f 2/5/2 1/6/2 4/7/2 6/8/2 7/9/2 8/10/2 9/11/2 10/12/2 5/13/2 3/14/2
f 1/15/3 12/16/3 14/17/3 4/18/3
f 10/19/3 19/20/3 20/21/3 5/22/3
f 9/23/4 18/24/4 19/25/4 10/26/4
f 8/27/3 17/28/3 18/29/3 9/30/3
f 7/23/4 16/24/4 17/25/4 8/26/4
f 6/31/3 15/32/3 16/33/3 7/34/3
f 4/23/4 14/24/4 15/25/4 6/26/4
f 3/26/4 5/23/4 20/24/4 11/25/4
f 13/1/1 22/4/1 21/3/1 12/2/1
f 22/5/5 23/14/5 25/13/5 30/12/5 29/11/5 28/10/5 27/9/5 26/8/5 24/7/5 21/6/5
f 21/15/3 24/18/3 14/17/3 12/16/3
f 30/19/3 25/22/3 20/21/3 19/20/3
f 29/23/4 30/26/4 19/25/4 18/24/4
f 28/27/3 29/30/3 18/29/3 17/28/3
f 27/23/4 28/26/4 17/25/4 16/24/4
f 26/31/3 27/34/3 16/33/3 15/32/3
f 24/23/4 26/26/4 15/25/4 14/24/4
f 23/26/4 11/25/4 20/24/4 25/23/4
o Cube.001
v 0.501000 0.580000 0.000000
v 0.501000 0.550000 0.000000
v 0.230000 0.520000 -0.501000
v 0.230000 0.580000 -0.501000
v 0.501000 0.520000 -0.501000
v 0.501000 0.580000 -0.501000
v 0.249000 0.439000 0.000000
v 0.249000 0.409000 0.000000
v -0.021000 0.379000 -0.501000
v -0.021000 0.439000 -0.501000
v 0.249000 0.379000 -0.501000
v 0.249000 0.439000 -0.501000
v -0.001000 0.301000 -0.000000
v -0.001000 0.271000 -0.000000
v -0.271000 0.241000 -0.501000
v -0.271000 0.301000 -0.501000
v -0.001000 0.241000 -0.501000
v -0.001000 0.301000 -0.501000
v -0.252000 0.163000 -0.000000
v -0.252000 0.133000 -0.000000
v -0.522000 0.103000 -0.501000
v -0.522000 0.163000 -0.501000
v -0.252000 0.103000 -0.501000
v -0.252000 0.163000 -0.501000
v -0.522000 0.103000 -0.000000
v -0.522000 0.163000 -0.000000
v -0.252000 0.103000 -0.000000
v -0.252000 0.163000 -0.000000
v -0.271000 0.241000 -0.000000
v -0.271000 0.301000 -0.000000
v -0.001000 0.241000 -0.000000
v -0.001000 0.301000 -0.000000
v -0.021000 0.379000 -0.000000
v -0.021000 0.439000 -0.000000
v 0.249000 0.379000 0.000000
v 0.249000 0.439000 0.000000
v 0.230000 0.520000 0.000000
v 0.230000 0.580000 0.000000
v 0.501000 0.520000 0.000000
v 0.501000 0.580000 0.000000
v 0.230000 0.520000 0.501000
v 0.230000 0.580000 0.501000
v 0.501000 0.520000 0.501000
v 0.501000 0.580000 0.501000
v -0.021000 0.379000 0.501000
v -0.021000 0.439000 0.501000
v 0.249000 0.379000 0.501000
v 0.249000 0.439000 0.501000
v -0.271000 0.241000 0.501000
v -0.271000 0.301000 0.501000
v -0.001000 0.241000 0.501000
v -0.001000 0.301000 0.501000
v -0.522000 0.103000 0.501000
v -0.522000 0.163000 0.501000
v -0.252000 0.103000 0.501000
v -0.252000 0.163000 0.501000
vn -1.0000 -0.0000 -0.0000
vn -0.0000 -0.0000 -1.0000
vn -0.0000 1.0000 -0.0000
vn -0.0000 -1.0000 -0.0000
vn 1.0000 -0.0000 -0.0000
vn -0.0000 -0.0000 1.0000
vt 0.244685 0.901551
vt 0.237923 0.901606
vt 0.237898 0.880427
vt 0.244660 0.880372
vt 0.249507 0.964883
vt 0.249507 0.968516
vt 0.233150 0.968516
vt 0.233150 0.964883
vt 0.244685 0.901551
vt 0.237923 0.901606
vt 0.249952 0.967592
vt 0.233152 0.967592
vt 0.233152 0.986793
vt 0.249952 0.986793
vt 0.233152 0.999888
vt 0.249952 0.999888
vt 0.249952 0.983692
vt 0.233152 0.983692
vt 0.233152 0.983692
vt 0.249952 0.986793
vt 0.249952 0.983692
s 0
usemtl Material.002
f 67/35/6 68/36/6 34/37/6 33/38/6
f 33/39/7 34/40/7 36/41/7 35/42/7
f 63/43/6 64/44/6 40/37/6 39/38/6
f 39/39/7 40/40/7 42/41/7 41/42/7
f 59/35/6 60/36/6 46/37/6 45/38/6
f 45/39/7 46/40/7 48/41/7 47/42/7
f 55/35/6 56/36/6 52/37/6 51/38/6
f 51/39/7 52/40/7 54/41/7 53/42/7
f 54/45/8 52/46/8 56/47/8 58/48/8
f 51/49/9 53/50/9 57/51/9 55/52/9
f 53/38/10 54/37/10 58/36/10 57/35/10
f 48/45/8 46/46/8 60/47/8 62/48/8
f 45/49/9 47/50/9 61/51/9 59/53/9
f 47/38/10 48/37/10 62/44/10 61/43/10
f 42/45/8 40/46/8 64/47/8 66/48/8
f 39/49/9 41/50/9 65/51/9 63/53/9
f 41/38/10 42/37/10 66/36/10 65/35/10
f 36/45/8 34/46/8 68/47/8 70/54/8
f 33/49/9 35/50/9 69/55/9 67/53/9
f 35/38/10 36/37/10 70/36/10 69/35/10
f 67/35/6 71/38/6 72/37/6 68/36/6
f 71/39/11 73/42/11 74/41/11 72/40/11
f 63/43/6 75/38/6 76/37/6 64/44/6
f 75/39/11 77/42/11 78/41/11 76/40/11
f 59/35/6 79/38/6 80/37/6 60/36/6
f 79/39/11 81/42/11 82/41/11 80/40/11
f 55/35/6 83/38/6 84/37/6 56/36/6
f 83/39/11 85/42/11 86/41/11 84/40/11
f 86/45/8 58/48/8 56/47/8 84/46/8
f 83/49/9 55/52/9 57/51/9 85/50/9
f 85/38/10 57/35/10 58/36/10 86/37/10
f 82/45/8 62/48/8 60/47/8 80/46/8
f 79/49/9 59/53/9 61/51/9 81/50/9
f 81/38/10 61/43/10 62/44/10 82/37/10
f 78/45/8 66/48/8 64/47/8 76/46/8
f 75/49/9 63/53/9 65/51/9 77/50/9
f 77/38/10 65/35/10 66/36/10 78/37/10
f 74/45/8 70/54/8 68/47/8 72/46/8
f 71/49/9 67/53/9 69/55/9 73/50/9
f 73/38/10 69/35/10 70/36/10 74/37/10
l 31 32
l 37 38
l 43 44
l 49 50
