# Blender 3.6.5
# www.blender.org
mtllib Poly_SF_Outside_B_Metal_Stairs_01.mtl
o Cube.001
v -0.300000 0.000000 -0.020000
v -0.300000 0.300000 -0.020000
v -0.300000 0.300000 0.200000
v -0.300000 0.000000 0.200000
v -0.400000 0.000000 0.200000
v -0.400000 0.300000 0.200000
v -0.400000 0.371000 0.200000
v -0.400000 0.300000 -0.020000
v -0.400000 0.000000 -0.020000
v -0.300000 0.371000 -0.020000
v -0.400000 0.371000 -0.020000
v -0.400000 0.630000 -0.020000
v -0.300000 0.630000 -0.020000
v -0.300000 0.630000 0.200000
v 0.000000 0.630000 -0.020000
v 0.000000 0.630000 0.200000
v -0.400000 0.630000 0.200000
v -0.300000 0.700000 -0.020000
v -0.400000 0.700000 -0.020000
v -0.400000 1.000000 -0.020000
v -0.300000 1.000000 -0.020000
v -0.300000 0.700000 0.200000
v -0.400000 0.700000 0.200000
v -0.400000 1.000000 0.200000
v -0.400000 1.070000 0.200000
v -0.400000 1.070000 -0.020000
v -0.300000 1.000000 0.200000
v -0.300000 1.070000 0.200000
v -0.300000 1.070000 -0.020000
v -0.300000 1.330000 -0.020000
v -0.300000 1.330000 0.200000
v -0.300000 1.400000 0.200000
v 0.000000 1.330000 0.200000
v 0.000000 1.400000 0.200000
v -0.400000 1.330000 -0.020000
v -0.400000 1.400000 -0.020000
v -0.300000 1.400000 -0.020000
v -0.400000 1.330000 0.200000
v -0.300000 1.630000 -0.020000
v -0.300000 1.630000 0.200000
v -0.400000 1.400000 0.200000
v -0.300000 2.000000 -0.020000
v -0.400000 1.630000 0.200000
v -0.400000 1.630000 -0.020000
v 0.000000 0.700000 -0.020000
v 0.000000 0.700000 0.200000
v 0.000000 1.000000 0.200000
v 0.000000 1.000000 -0.020000
v 0.000000 1.070000 -0.020000
v 0.000000 1.070000 0.200000
v 0.000000 1.330000 -0.020000
v 0.000000 1.400000 -0.020000
v -0.300000 1.700000 -0.020000
v -0.400000 1.700000 -0.020000
v -0.400000 2.000000 -0.020000
v -0.300000 1.700000 0.200000
v -0.400000 1.700000 0.200000
v -0.300000 2.000000 0.200000
v -0.400000 2.000000 0.200000
v 0.000000 1.630000 0.200000
v 0.000000 1.630000 -0.020000
v 0.000000 1.700000 -0.020000
v 0.000000 1.700000 0.200000
v 0.300000 0.000000 -0.020000
v 0.300000 0.000000 0.200000
v 0.300000 0.300000 0.200000
v 0.300000 0.300000 -0.020000
v 0.400000 0.000000 0.200000
v 0.400000 0.300000 0.200000
v 0.400000 0.371000 0.200000
v 0.300000 0.371000 0.200000
v 0.400000 0.300000 -0.020000
v 0.400000 0.000000 -0.020000
v 0.300000 0.371000 -0.020000
v 0.300000 0.630000 -0.020000
v 0.400000 0.630000 -0.020000
v 0.400000 0.371000 -0.020000
v 0.300000 0.630000 0.200000
v 0.400000 0.630000 0.200000
v 0.300000 0.700000 -0.020000
v 0.300000 1.000000 -0.020000
v 0.400000 1.000000 -0.020000
v 0.400000 0.700000 -0.020000
v 0.400000 0.700000 0.200000
v 0.300000 0.700000 0.200000
v 0.400000 1.070000 -0.020000
v 0.400000 1.070000 0.200000
v 0.400000 1.000000 0.200000
v 0.300000 1.000000 0.200000
v 0.300000 1.070000 0.200000
v 0.300000 1.330000 0.200000
v 0.300000 1.330000 -0.020000
v 0.300000 1.070000 -0.020000
v 0.300000 1.400000 0.200000
v 0.300000 1.400000 -0.020000
v 0.400000 1.400000 -0.020000
v 0.400000 1.330000 -0.020000
v 0.400000 1.330000 0.200000
v 0.300000 1.630000 0.200000
v 0.300000 1.630000 -0.020000
v 0.400000 1.400000 0.200000
v 0.300000 2.000000 -0.020000
v 0.400000 1.630000 0.200000
v 0.400000 1.630000 -0.020000
v 0.300000 1.700000 -0.020000
v 0.400000 2.000000 -0.020000
v 0.400000 1.700000 -0.020000
v 0.400000 1.700000 0.200000
v 0.300000 1.700000 0.200000
v 0.300000 2.000000 0.200000
v 0.400000 2.000000 0.200000
v 0.300000 0.301000 0.200000
v 0.300000 0.301000 -0.020000
v 0.000000 0.371000 0.200000
v 0.000000 0.371000 -0.020000
v -0.300000 0.371000 0.200000
v 0.000000 0.301000 0.200000
v 0.000000 0.301000 -0.020000
v -0.300000 0.301000 0.200000
v -0.300000 0.301000 -0.020000
vn 1.0000 -0.0000 -0.0000
vn -0.0000 -0.0000 1.0000
vn -1.0000 -0.0000 -0.0000
vn -0.0000 -1.0000 -0.0000
vn -0.0000 -0.0000 -1.0000
vn -0.0000 1.0000 -0.0000
vn -0.5774 0.5774 -0.5774
vn -0.0000 0.7071 -0.7071
vn -0.5774 0.5774 0.5774
vn -0.0000 0.7071 0.7071
vn 0.5774 0.5774 -0.5774
vn 0.5774 0.5774 0.5774
vt 0.812613 0.088616
vt 0.812613 0.112953
vt 0.820255 0.112953
vt 0.820255 0.088616
vt 0.812614 0.088648
vt 0.820273 0.088648
vt 0.820273 0.111441
vt 0.812614 0.111441
vt 0.820273 0.115589
vt 0.812614 0.115589
vt 0.820273 0.249843
vt 0.812614 0.249843
vt 0.812614 0.134097
vt 0.820273 0.134097
vt 0.820255 0.118713
vt 0.812613 0.118713
vt 0.821683 0.161521
vt 0.821683 0.173148
vt 0.847394 0.173148
vt 0.847394 0.161521
vt 0.820255 0.139724
vt 0.812613 0.139724
vt 0.820273 0.138946
vt 0.812614 0.138946
vt 0.812614 0.159726
vt 0.820273 0.159726
vt 0.820255 0.145402
vt 0.812613 0.145402
vt 0.812613 0.169739
vt 0.820255 0.169739
vt 0.820255 0.175418
vt 0.812613 0.175418
vt 0.812613 0.196510
vt 0.820255 0.196510
vt 0.821683 0.161447
vt 0.821683 0.156353
vt 0.847394 0.156353
vt 0.847394 0.161447
vt 0.820273 0.164576
vt 0.812614 0.164576
vt 0.820273 0.182585
vt 0.812614 0.182585
vt 0.812614 0.187433
vt 0.820273 0.187433
vt 0.820255 0.202189
vt 0.812613 0.202189
vt 0.812613 0.220847
vt 0.820255 0.220847
vt 0.820273 0.203365
vt 0.812614 0.203365
vt 0.820273 0.208214
vt 0.812614 0.208214
vt 0.812614 0.228935
vt 0.820273 0.228935
vt 0.820255 0.226526
vt 0.812613 0.226526
vt 0.820255 0.249991
vt 0.812613 0.249991
vt 0.812614 0.245580
vt 0.820273 0.245580
s 1
usemtl Material.001
f 1/1/1 2/2/1 3/3/1 4/4/1
f 5/5/2 4/6/2 3/7/2 6/8/2
f 6/8/2 3/7/2 116/9/2 7/10/2
f 8/2/3 9/1/3 5/4/3 6/3/3
f 9/11/4 1/12/4 4/5/4 5/6/4
f 8/8/5 2/7/5 1/6/5 9/5/5
f 10/9/5 11/10/5 12/13/5 13/14/5
f 8/2/3 6/3/3 7/15/3 11/16/3
f 2/7/5 8/8/5 11/10/5 10/9/5
f 14/17/4 13/18/4 15/19/4 16/20/4
f 11/16/3 7/15/3 17/21/3 12/22/3
f 116/15/1 10/16/1 13/22/1 14/21/1
f 7/10/2 116/9/2 14/14/2 17/13/2
f 18/23/5 19/24/5 20/25/5 21/26/5
f 17/13/2 14/14/2 22/23/2 23/24/2
f 13/14/5 12/13/5 19/24/5 18/23/5
f 12/22/3 17/21/3 23/27/3 19/28/3
f 20/29/3 24/30/3 25/31/3 26/32/3
f 19/28/3 23/27/3 24/30/3 20/29/3
f 22/27/1 18/28/1 21/29/1 27/30/1
f 23/24/2 22/23/2 27/26/2 24/25/2
f 28/31/1 29/32/1 30/33/1 31/34/1
f 32/35/2 31/36/2 33/37/2 34/38/2
f 24/25/2 27/26/2 28/39/2 25/40/2
f 21/26/5 20/25/5 26/40/5 29/39/5
f 30/41/5 35/42/5 36/43/5 37/44/5
f 25/40/2 28/39/2 31/41/2 38/42/2
f 29/39/5 26/40/5 35/42/5 30/41/5
f 26/32/3 25/31/3 38/34/3 35/33/3
f 32/45/1 37/46/1 39/47/1 40/48/1
f 35/33/3 38/34/3 41/45/3 36/46/3
f 38/42/2 31/41/2 32/44/2 41/43/2
f 41/43/2 32/44/2 40/49/2 43/50/2
f 37/44/5 36/43/5 44/50/5 39/49/5
f 36/46/3 41/45/3 43/48/3 44/47/3
f 18/18/6 22/17/6 46/20/6 45/19/6
f 27/17/4 21/18/4 48/19/4 47/20/4
f 13/36/5 18/35/5 45/38/5 15/37/5
f 29/18/6 28/17/6 50/20/6 49/19/6
f 31/17/4 30/18/4 51/19/4 33/20/4
f 22/35/2 14/36/2 16/37/2 46/38/2
f 37/18/6 32/17/6 34/20/6 52/19/6
f 10/18/6 116/17/6 114/20/6 115/19/6
f 21/36/5 29/35/5 49/38/5 48/37/5
f 30/36/5 37/35/5 52/38/5 51/37/5
f 28/35/2 27/36/2 47/37/2 50/38/2
f 53/51/5 54/52/5 55/53/7 42/54/8
f 43/50/2 40/49/2 56/51/2 57/52/2
f 39/49/5 44/50/5 54/52/5 53/51/5
f 44/47/3 43/48/3 57/55/3 54/56/3
f 54/56/3 57/55/3 59/57/9 55/58/7
f 56/55/1 53/56/1 42/58/1 58/57/1
f 57/52/2 56/51/2 58/54/10 59/53/9
f 40/17/4 39/18/4 61/19/4 60/20/4
f 56/35/2 40/36/2 60/37/2 63/38/2
f 53/18/6 56/17/6 63/20/6 62/19/6
f 39/36/5 53/35/5 62/38/5 61/37/5
f 64/1/3 65/4/3 66/3/3 67/2/3
f 68/5/2 69/8/2 66/7/2 65/6/2
f 69/8/2 70/10/2 71/9/2 66/7/2
f 72/2/1 69/3/1 68/4/1 73/1/1
f 73/11/4 68/6/4 65/5/4 64/12/4
f 72/8/5 73/5/5 64/6/5 67/7/5
f 74/9/5 75/14/5 76/13/5 77/10/5
f 72/2/1 77/16/1 70/15/1 69/3/1
f 67/7/5 74/9/5 77/10/5 72/8/5
f 78/17/4 16/20/4 15/19/4 75/18/4
f 77/16/1 76/22/1 79/21/1 70/15/1
f 71/15/3 78/21/3 75/22/3 74/16/3
f 70/10/2 79/13/2 78/14/2 71/9/2
f 80/23/5 81/26/5 82/25/5 83/24/5
f 79/13/2 84/24/2 85/23/2 78/14/2
f 75/14/5 80/23/5 83/24/5 76/13/5
f 76/22/1 83/28/1 84/27/1 79/21/1
f 82/29/1 86/32/1 87/31/1 88/30/1
f 83/28/1 82/29/1 88/30/1 84/27/1
f 85/27/3 89/30/3 81/29/3 80/28/3
f 84/24/2 88/25/2 89/26/2 85/23/2
f 90/31/3 91/34/3 92/33/3 93/32/3
f 94/35/2 34/38/2 33/37/2 91/36/2
f 88/25/2 87/40/2 90/39/2 89/26/2
f 81/26/5 93/39/5 86/40/5 82/25/5
f 92/41/5 95/44/5 96/43/5 97/42/5
f 87/40/2 98/42/2 91/41/2 90/39/2
f 93/39/5 92/41/5 97/42/5 86/40/5
f 86/32/1 97/33/1 98/34/1 87/31/1
f 94/45/3 99/48/3 100/47/3 95/46/3
f 97/33/1 96/46/1 101/45/1 98/34/1
f 98/42/2 101/43/2 94/44/2 91/41/2
f 101/43/2 103/50/2 99/49/2 94/44/2
f 95/44/5 100/49/5 104/50/5 96/43/5
f 96/46/1 104/47/1 103/48/1 101/45/1
f 80/18/6 45/19/6 46/20/6 85/17/6
f 89/17/4 47/20/4 48/19/4 81/18/4
f 75/36/5 15/37/5 45/38/5 80/35/5
f 93/18/6 49/19/6 50/20/6 90/17/6
f 91/17/4 33/20/4 51/19/4 92/18/4
f 85/35/2 46/38/2 16/37/2 78/36/2
f 95/18/6 52/19/6 34/20/6 94/17/6
f 119/17/4 120/18/4 118/19/4 117/20/4
f 81/36/5 48/37/5 49/38/5 93/35/5
f 92/36/5 51/37/5 52/38/5 95/35/5
f 90/35/2 50/38/2 47/37/2 89/36/2
f 105/51/5 102/54/8 106/53/11 107/52/5
f 103/50/2 108/52/2 109/51/2 99/49/2
f 100/49/5 105/51/5 107/52/5 104/50/5
f 104/47/1 107/56/1 108/55/1 103/48/1
f 107/56/1 106/58/11 111/57/12 108/55/1
f 109/55/3 110/57/3 102/58/3 105/56/3
f 108/52/2 111/53/12 110/54/10 109/51/2
f 58/59/10 42/12/8 55/11/7 59/60/9
f 111/60/12 106/11/11 102/12/8 110/59/10
f 99/17/4 60/20/4 61/19/4 100/18/4
f 109/35/2 63/38/2 60/37/2 99/36/2
f 105/18/6 62/19/6 63/20/6 109/17/6
f 100/36/5 61/37/5 62/38/5 105/35/5
f 112/17/4 117/20/4 118/19/4 113/18/4
f 74/18/6 115/19/6 114/20/6 71/17/6
f 113/36/5 118/37/5 115/38/5 74/35/5
f 120/36/5 10/35/5 115/38/5 118/37/5
f 71/35/2 114/38/2 117/37/2 112/36/2
f 116/35/2 119/36/2 117/37/2 114/38/2
