# Blender 3.6.5
# www.blender.org
mtllib Poly_SF_Outside_B_Helment_01.mtl
o Cube.002
v 0.000000 0.259522 -0.227771
v 0.000000 0.166348 -0.274662
v 0.000000 0.120701 -0.283377
v 0.000000 0.068338 -0.281551
v 0.000000 0.054944 -0.339258
v 0.087890 0.321779 -0.061588
v 0.162400 0.259522 -0.113854
v 0.212185 0.166348 -0.148777
v 0.225255 0.121908 -0.157944
v 0.229419 0.069799 -0.168178
v 0.264910 0.044947 -0.198767
v 0.087890 0.321779 0.061714
v 0.162400 0.259522 0.113980
v 0.212185 0.166348 0.148903
v 0.225255 0.124155 0.158070
v 0.229668 0.073505 0.161166
v 0.283795 0.056129 0.163145
v -0.000000 0.321779 0.123366
v -0.000000 0.259522 0.209799
v -0.000000 0.166348 0.247068
v -0.000000 0.107761 0.271091
v -0.000000 0.056441 0.277282
v -0.000000 0.030791 0.374907
v -0.087890 0.321779 0.061714
v -0.162400 0.259522 0.113980
v -0.212185 0.166348 0.148903
v -0.225255 0.124155 0.158070
v -0.229668 0.073505 0.161166
v -0.283795 0.056129 0.163144
v -0.087890 0.321779 -0.061588
v -0.162400 0.259522 -0.113854
v -0.212185 0.166348 -0.148777
v -0.225255 0.121908 -0.157944
v -0.229419 0.069799 -0.168178
v -0.264910 0.044947 -0.198767
v 0.000000 0.343641 0.000063
v 0.000000 0.321779 -0.123240
v -0.043945 0.321779 -0.092414
v -0.081200 0.259522 -0.170812
v -0.106093 0.166348 -0.223197
v -0.112627 0.122161 -0.236948
v -0.122357 0.069799 -0.244651
v -0.137652 0.044947 -0.305829
v 0.081200 0.259522 -0.170812
v 0.106093 0.166348 -0.223197
v 0.112627 0.122161 -0.236948
v 0.122357 0.069799 -0.244651
v 0.137652 0.044947 -0.305829
v 0.043945 0.321779 -0.092414
v -0.081200 0.259522 0.170938
v -0.106093 0.166348 0.223322
v -0.112627 0.107761 0.237074
v -0.114834 0.056441 0.241717
v -0.141897 0.030791 0.361953
v -0.043945 0.321779 0.092540
v 0.114834 0.056441 0.241717
v 0.112627 0.107761 0.237074
v 0.141897 0.030791 0.361953
v 0.043945 0.321779 0.092540
v 0.081200 0.259522 0.170938
v 0.106093 0.166348 0.223322
v 0.175255 0.259522 0.000063
v 0.228982 0.166348 0.000063
v 0.243086 0.129707 0.000063
v 0.247714 0.077598 -0.003506
v 0.287196 0.057344 0.000183
v 0.094847 0.321779 0.000063
v -0.247714 0.077598 -0.003506
v -0.243086 0.129707 0.000063
v -0.287196 0.057344 0.000183
v -0.094847 0.321779 0.000063
v -0.175255 0.259522 0.000063
v -0.228982 0.166348 0.000063
v 0.000000 0.249129 -0.137816
v 0.000000 0.162160 -0.202873
v 0.000000 0.096089 -0.220749
v 0.000000 0.062329 -0.228375
v 0.000000 0.015800 -0.339247
v 0.147069 0.241114 -0.060606
v 0.192934 0.156987 -0.089100
v 0.205190 0.093448 -0.097071
v 0.216037 0.055174 -0.099104
v 0.254827 0.012273 -0.176165
v 0.147069 0.241114 0.060732
v 0.193050 0.156641 0.089289
v 0.205147 0.086907 0.096980
v 0.218324 0.051813 0.107265
v 0.277565 0.027025 0.143863
v -0.000000 0.249129 0.137942
v -0.000000 0.162469 0.202870
v -0.000000 0.076163 0.220725
v -0.000000 0.038164 0.245575
v -0.000000 0.003289 0.369233
v -0.147069 0.241114 0.060732
v -0.193050 0.156641 0.089289
v -0.205147 0.086907 0.096980
v -0.218325 0.051813 0.107265
v -0.277565 0.027025 0.143863
v -0.147069 0.241114 -0.060606
v -0.192934 0.156987 -0.089100
v -0.205190 0.093448 -0.097071
v -0.216037 0.055174 -0.099104
v -0.254827 0.012273 -0.176165
v -0.076342 0.249226 -0.082436
v -0.100982 0.162211 -0.130207
v -0.107573 0.094905 -0.143541
v -0.117644 0.061828 -0.153859
v -0.149706 0.008612 -0.298482
v 0.076342 0.249226 -0.082436
v 0.100982 0.162211 -0.130206
v 0.107573 0.094905 -0.143541
v 0.117644 0.061828 -0.153859
v 0.149706 0.008612 -0.298482
v -0.076342 0.249226 0.082562
v -0.101044 0.162410 0.130205
v -0.107631 0.076302 0.179548
v -0.110907 0.039705 0.197949
v -0.139874 0.004583 0.349358
v 0.110907 0.039705 0.197949
v 0.107631 0.076302 0.179548
v 0.139874 0.004583 0.349358
v 0.076342 0.249226 0.082562
v 0.101043 0.162410 0.130205
v 0.153942 0.238869 0.000063
v 0.202129 0.155062 0.000819
v 0.214972 0.102221 0.001548
v 0.224019 0.060369 0.006143
v 0.277016 0.029458 0.015111
v -0.224019 0.060369 0.006143
v -0.214972 0.102221 0.001548
v -0.277016 0.029458 0.015111
v -0.153942 0.238869 0.000063
v -0.202129 0.155062 0.000819
vn -0.4894 0.5231 0.6978
vn 0.5442 0.3208 -0.7752
vn 0.5647 0.2120 -0.7976
vn -0.1216 0.9773 -0.1733
vn 0.2668 0.9015 -0.3406
vn -0.1216 0.9773 0.1733
vn -0.2963 0.7931 0.5321
vn 0.3378 0.8086 0.4816
vn -0.8622 0.4972 -0.0973
vn 0.9354 0.3354 0.1116
vn 0.9899 0.0866 0.1126
vn 0.3706 0.9279 0.0393
vn -0.2246 0.9744 -0.0000
vn 0.2909 0.1066 0.9508
vn 0.0423 0.9737 0.2240
vn 0.2246 0.9744 -0.0000
vn 0.6108 0.7888 -0.0689
vn 0.8622 0.4972 0.0973
vn 0.2428 0.3099 0.9193
vn -0.6108 0.7888 0.0689
vn 0.2837 0.4462 0.8488
vn -0.5360 0.2850 0.7946
vn -0.5617 0.0988 0.8214
vn -0.1213 0.9588 0.2570
vn 0.1216 0.9773 0.1733
vn -0.9884 0.0987 -0.1154
vn -0.4856 0.8682 -0.1024
vn -0.4998 -0.5200 0.6927
vn -0.9380 0.3273 -0.1142
vn 0.4894 0.5231 -0.6978
vn -0.3942 0.2499 -0.8844
vn -0.3321 0.0836 -0.9395
vn -0.1101 0.9502 -0.2915
vn 0.1216 0.9773 -0.1733
vn 0.3378 0.8086 -0.4816
vn -0.2668 0.9015 -0.3406
vn -0.5647 0.2120 -0.7976
vn -0.5442 0.3208 -0.7752
vn -0.4430 0.4669 -0.7653
vn -0.3378 0.8086 -0.4816
vn 0.1101 0.9502 -0.2915
vn 0.3321 0.0836 -0.9395
vn 0.3942 0.2499 -0.8844
vn 0.8622 0.4972 -0.0973
vn 0.2963 0.7931 0.5321
vn -0.0423 0.9737 0.2240
vn -0.2909 0.1066 0.9508
vn -0.2428 0.3099 0.9193
vn -0.8622 0.4972 0.0973
vn 0.5360 0.2850 0.7946
vn -0.2837 0.4462 0.8488
vn -0.3378 0.8086 0.4816
vn 0.1213 0.9588 0.2570
vn 0.5617 0.0988 0.8214
vn -0.6108 0.7888 -0.0689
vn 0.4856 0.8682 -0.1024
vn 0.9884 0.0987 -0.1154
vn 0.9380 0.3273 -0.1142
vn 0.4894 0.5231 0.6978
vn -0.9354 0.3354 0.1116
vn -0.4894 0.5231 -0.6978
vn -0.3706 0.9279 0.0393
vn -0.9899 0.0866 0.1126
vn 0.3487 -0.4973 -0.7944
vn -0.4165 -0.2042 0.8859
vn -0.4497 -0.2787 0.8485
vn -0.2792 -0.9104 0.3055
vn 0.8642 -0.4970 0.0785
vn -0.9718 -0.2057 -0.1153
vn -0.9489 -0.2955 -0.1108
vn -0.4267 -0.9029 -0.0527
vn -0.3260 -0.4849 -0.8115
vn -0.0539 -0.9690 -0.2409
vn -0.8639 -0.4973 -0.0797
vn -0.4504 -0.3391 -0.8259
vn -0.4997 -0.5205 -0.6924
vn 0.5052 -0.3494 -0.7891
vn 0.5600 -0.4154 -0.7169
vn 0.1496 -0.9602 -0.2358
vn 0.9664 -0.2367 0.1004
vn 0.5670 -0.8151 0.1192
vn -0.0000 -1.0000 -0.0000
vn 0.6108 0.7888 0.0689
vn 0.9707 -0.2159 0.1055
vn -0.3482 -0.4975 0.7945
vn 0.5709 -0.2137 0.7927
vn 0.5357 -0.2933 0.7919
vn 0.1729 -0.9247 0.3393
vn 0.2792 -0.9104 0.3055
vn 0.4497 -0.2787 0.8485
vn 0.4165 -0.2042 0.8859
vn 0.4998 -0.5200 0.6927
vn -0.1729 -0.9247 0.3393
vn -0.5357 -0.2933 0.7919
vn -0.5709 -0.2137 0.7927
vn -0.8642 -0.4970 0.0785
vn 0.0539 -0.9690 -0.2409
vn 0.3260 -0.4849 -0.8115
vn 0.4504 -0.3391 -0.8259
vn 0.8639 -0.4973 -0.0797
vn -0.5052 -0.3494 -0.7891
vn 0.4997 -0.5205 -0.6924
vn -0.1496 -0.9602 -0.2358
vn -0.5600 -0.4154 -0.7169
vn -0.5670 -0.8151 0.1192
vn -0.9664 -0.2367 0.1004
vn -0.9707 -0.2159 0.1055
vn -0.3487 -0.4973 -0.7944
vn 0.9718 -0.2057 -0.1153
vn 0.3482 -0.4975 0.7945
vn 0.4267 -0.9029 -0.0527
vn 0.9489 -0.2955 -0.1108
vn 0.2465 -0.0549 -0.9676
vn 0.9297 -0.3598 -0.0787
vn 0.7759 -0.3979 0.4895
vn -0.1110 -0.3238 0.9396
vn -0.9608 -0.2771 0.0059
vn -0.6773 -0.2765 -0.6818
vn -0.2465 -0.0549 -0.9676
vn 0.6773 -0.2765 -0.6818
vn -0.7759 -0.3979 0.4895
vn 0.1110 -0.3238 0.9396
vn 0.9608 -0.2771 0.0059
vn -0.9297 -0.3598 -0.0787
vn 0.4430 0.4669 -0.7653
vt 0.406293 0.025941
vt 0.406293 0.029719
vt 0.409618 0.029719
vt 0.411144 0.025941
vt 0.406598 0.023376
vt 0.406293 0.025941
vt 0.401441 0.025941
vt 0.400769 0.024277
vt 0.406598 0.020963
vt 0.406598 0.022054
vt 0.401407 0.022054
vt 0.401407 0.020963
vt 0.404115 0.032557
vt 0.406213 0.037327
vt 0.408471 0.032557
vt 0.406293 0.032557
vt 0.406293 0.017366
vt 0.406598 0.020008
vt 0.400187 0.019294
vt 0.400187 0.017366
vt 0.406293 0.032557
vt 0.402968 0.029719
vt 0.406293 0.029719
vt 0.406293 0.029719
vt 0.406598 0.023376
vt 0.411817 0.024277
vt 0.406598 0.022054
vt 0.412399 0.022054
vt 0.412399 0.020963
vt 0.406598 0.020008
vt 0.412399 0.019294
vt 0.412399 0.017366
vt 0.406293 0.017366
vt 0.406293 0.032557
vt 0.406598 0.023376
vt 0.406293 0.025941
vt 0.406598 0.023376
vt 0.406598 0.020963
vt 0.406293 0.017366
vt 0.406598 0.020008
vt 0.406293 0.029719
vt 0.401407 0.020722
vt 0.401407 0.022476
vt 0.412399 0.020722
vt 0.412399 0.022476
s 0
usemtl regular
f 51/1/1 50/2/1 25/3/1 26/4/1
f 46/5/2 45/6/2 8/7/2 9/8/2
f 47/9/3 46/10/3 9/11/3 10/12/3
f 30/13/4 36/14/4 37/15/4 38/16/4
f 48/17/5 47/18/5 10/19/5 11/20/5
f 18/13/6 36/14/6 24/15/6 55/21/6
f 19/22/7 18/13/7 55/21/7 50/2/7
f 12/15/8 59/16/8 60/23/8 13/3/8
f 73/1/9 72/24/9 31/22/9 32/7/9
f 64/25/10 63/1/10 14/4/10 15/26/10
f 65/9/11 64/27/11 15/28/11 16/29/11
f 66/17/12 65/30/12 16/31/12 17/32/12
f 24/15/13 36/14/13 30/13/13 71/16/13
f 56/9/14 57/10/14 21/11/14 22/12/14
f 58/33/15 56/18/15 22/19/15 23/20/15
f 6/13/16 36/14/16 12/15/16 67/34/16
f 7/22/17 6/13/17 67/34/17 62/24/17
f 63/1/18 62/24/18 13/3/18 14/4/18
f 57/35/19 61/36/19 20/7/19 21/8/19
f 24/15/20 71/16/20 72/24/20 25/3/20
f 61/36/21 60/23/21 19/22/21 20/7/21
f 52/37/22 51/1/22 26/4/22 27/26/22
f 53/38/23 52/10/23 27/28/23 28/29/23
f 54/39/24 53/40/24 28/31/24 29/32/24
f 12/15/25 36/14/25 18/13/25 59/16/25
f 68/9/26 69/27/26 33/11/26 34/12/26
f 70/39/27 68/18/27 34/19/27 35/20/27
f 110/6/28 109/24/28 74/3/28 75/4/28
f 69/25/29 73/1/29 32/7/29 33/8/29
f 45/6/30 44/24/30 7/22/30 8/7/30
f 41/35/31 40/1/31 2/4/31 3/26/31
f 42/9/32 41/10/32 3/28/32 4/29/32
f 43/39/33 42/18/33 4/31/33 5/32/33
f 37/15/34 36/14/34 6/13/34 49/16/34
f 44/24/35 49/16/35 6/13/35 7/22/35
f 37/15/35 49/16/35 44/24/35 1/3/35
f 35/20/36 34/19/36 42/18/36 43/39/36
f 34/12/37 33/11/37 41/10/37 42/9/37
f 33/8/38 32/7/38 40/1/38 41/35/38
f 40/1/39 39/41/39 1/3/39 2/4/39
f 39/41/40 38/16/40 37/15/40 1/3/40
f 5/32/41 4/31/41 47/18/41 48/17/41
f 4/29/42 3/28/42 46/10/42 47/9/42
f 3/26/43 2/4/43 45/6/43 46/5/43
f 7/22/44 62/24/44 63/1/44 8/7/44
f 60/23/45 59/16/45 18/13/45 19/22/45
f 23/20/46 22/19/46 53/40/46 54/39/46
f 22/12/47 21/11/47 52/10/47 53/38/47
f 21/8/48 20/7/48 51/1/48 52/37/48
f 25/3/49 72/24/49 73/1/49 26/4/49
f 15/26/50 14/4/50 61/36/50 57/35/50
f 19/22/51 50/2/51 51/1/51 20/7/51
f 55/21/52 24/15/52 25/3/52 50/2/52
f 17/32/53 16/31/53 56/18/53 58/33/53
f 16/29/54 15/28/54 57/10/54 56/9/54
f 72/24/55 71/16/55 30/13/55 31/22/55
f 11/20/56 10/19/56 65/30/56 66/17/56
f 10/12/57 9/11/57 64/27/57 65/9/57
f 9/8/58 8/7/58 63/1/58 64/25/58
f 13/3/59 60/23/59 61/36/59 14/4/59
f 27/26/60 26/4/60 73/1/60 69/25/60
f 31/22/61 39/41/61 40/1/61 32/7/61
f 30/13/40 38/16/40 39/41/40 31/22/40
f 29/32/62 28/31/62 68/18/62 70/39/62
f 28/29/63 27/28/63 69/27/63 68/9/63
f 115/1/64 95/4/64 94/3/64 114/2/64
f 111/5/65 81/8/65 80/7/65 110/6/65
f 112/18/66 82/42/66 81/43/66 111/5/66
f 113/17/67 83/20/67 82/19/67 112/18/67
f 133/1/68 100/7/68 99/22/68 132/24/68
f 126/25/69 86/26/69 85/4/69 125/1/69
f 127/30/70 87/44/70 86/45/70 126/25/70
f 128/17/71 88/32/71 87/31/71 127/30/71
f 119/18/72 92/42/72 91/43/72 120/35/72
f 121/33/73 93/20/73 92/19/73 119/18/73
f 125/1/74 85/4/74 84/3/74 124/24/74
f 120/35/75 91/8/75 90/7/75 123/36/75
f 123/36/76 90/7/76 89/22/76 122/23/76
f 116/37/77 96/26/77 95/4/77 115/1/77
f 117/40/78 97/44/78 96/45/78 116/37/78
f 118/39/79 98/32/79 97/31/79 117/40/79
f 129/18/80 102/42/80 101/43/80 130/25/80
f 131/39/81 103/20/81 102/19/81 129/18/81
f 74/3/82 109/24/82 79/22/82 124/24/82 84/3/82 122/23/82 89/22/82 114/2/82 94/3/82 132/24/82 99/22/82 104/41/82
f 67/34/83 12/15/83 13/3/83 62/24/83
f 130/25/84 101/8/84 100/7/84 133/1/84
f 110/6/85 80/7/85 79/22/85 109/24/85
f 106/35/86 76/26/86 75/4/86 105/1/86
f 107/9/87 77/29/87 76/28/87 106/10/87
f 108/39/88 78/32/88 77/31/88 107/18/88
f 103/20/89 108/39/89 107/18/89 102/19/89
f 102/42/90 107/18/90 106/35/90 101/43/90
f 101/8/91 106/35/91 105/1/91 100/7/91
f 105/1/92 75/4/92 74/3/92 104/41/92
f 78/32/93 113/17/93 112/18/93 77/31/93
f 77/29/94 112/9/94 111/10/94 76/28/94
f 76/26/95 111/5/95 110/6/95 75/4/95
f 125/1/96 124/24/96 79/22/96 80/7/96
f 93/20/97 118/39/97 117/40/97 92/19/97
f 92/42/98 117/40/98 116/37/98 91/43/98
f 91/8/99 116/37/99 115/1/99 90/7/99
f 133/1/100 132/24/100 94/3/100 95/4/100
f 86/26/101 120/35/101 123/36/101 85/4/101
f 115/1/102 114/2/102 89/22/102 90/7/102
f 88/32/103 121/33/103 119/18/103 87/31/103
f 87/44/104 119/18/104 120/35/104 86/45/104
f 83/20/105 128/17/105 127/30/105 82/19/105
f 82/42/106 127/30/106 126/25/106 81/43/106
f 81/8/107 126/25/107 125/1/107 80/7/107
f 123/36/108 122/23/108 84/3/108 85/4/108
f 96/26/109 130/25/109 133/1/109 95/4/109
f 105/1/110 104/41/110 99/22/110 100/7/110
f 98/32/111 131/39/111 129/18/111 97/31/111
f 97/44/112 129/18/112 130/25/112 96/45/112
f 5/32/113 48/17/113 113/17/113 78/32/113
f 11/20/114 66/17/114 128/17/114 83/20/114
f 17/32/115 58/33/115 121/33/115 88/32/115
f 23/20/116 54/39/116 118/39/116 93/20/116
f 29/32/117 70/39/117 131/39/117 98/32/117
f 35/20/118 43/39/118 108/39/118 103/20/118
f 43/39/119 5/32/119 78/32/119 108/39/119
f 48/17/120 11/20/120 83/20/120 113/17/120
f 54/39/121 29/32/121 98/32/121 118/39/121
f 58/33/122 23/20/122 93/20/122 121/33/122
f 66/17/123 17/32/123 88/32/123 128/17/123
f 70/39/124 35/20/124 103/20/124 131/39/124
f 1/3/125 44/24/125 45/6/125 2/4/125
