# Blender 3.6.5
# www.blender.org
mtllib Poly_SF_Outside_B_Window_02.mtl
o Cube.001
v 0.700000 0.000000 -0.400000
v 0.700000 1.000000 -0.400000
v -0.080000 0.000000 -0.400000
v -0.080000 1.000000 -0.400000
v 0.700000 0.000000 -0.500000
v 0.700000 1.000000 -0.500000
v -0.080000 0.000000 -0.500000
v 0.700000 0.000000 -0.450000
v 0.700000 1.000000 -0.450000
v 0.700000 0.890000 -0.400000
v -0.080000 0.890000 -0.400000
v 0.700000 0.890000 -0.500000
v 0.700000 0.890000 -0.450000
v -0.080000 0.090000 -0.400000
v 0.700000 0.090000 -0.500000
v 0.700000 0.090000 -0.450000
v 0.700000 0.090000 -0.400000
v 0.000000 0.000000 -0.400000
v 0.000000 1.000000 -0.400000
v 0.000000 0.000000 -0.500000
v 0.000000 1.000000 -0.500000
v 0.000000 1.000000 -0.450000
v 0.000000 0.000000 -0.450000
v 0.000000 0.890000 -0.400000
v 0.000000 0.090000 -0.400000
v 0.620000 0.000000 -0.400000
v 0.620000 1.000000 -0.500000
v 0.620000 1.000000 -0.450000
v 0.620000 0.000000 -0.450000
v 0.620000 1.000000 -0.400000
v 0.620000 0.000000 -0.500000
v 0.620000 0.890000 -0.400000
v 0.620000 0.090000 -0.400000
v 0.620000 0.890000 -0.420000
v 0.000000 0.890000 -0.420000
v 0.620000 0.090000 -0.420000
v 0.000000 0.090000 -0.420000
v 0.000000 0.592000 -0.400000
v 0.000000 0.592000 -0.420000
v 0.000000 0.482000 -0.400000
v 0.000000 0.482000 -0.420000
v 0.083000 0.592000 -0.400000
v 0.080000 0.592000 -0.420000
v 0.080000 0.482000 -0.420000
v 0.083000 0.482000 -0.400000
v -0.700000 0.000000 -0.400000
v -0.700000 1.000000 -0.400000
v -0.080000 1.000000 -0.500000
v -0.700000 0.000000 -0.500000
v -0.700000 1.000000 -0.500000
v -0.700000 0.000000 -0.450000
v -0.700000 1.000000 -0.450000
v -0.080000 0.000000 -0.450000
v -0.080000 1.000000 -0.450000
v -0.700000 0.890000 -0.400000
v -0.700000 0.890000 -0.500000
v -0.080000 0.890000 -0.450000
v -0.700000 0.890000 -0.450000
v -0.700000 0.090000 -0.400000
v -0.700000 0.090000 -0.500000
v -0.080000 0.090000 -0.450000
v -0.700000 0.090000 -0.450000
v -0.620000 0.000000 -0.400000
v -0.620000 1.000000 -0.400000
v -0.620000 0.000000 -0.500000
v -0.620000 1.000000 -0.500000
v -0.620000 1.000000 -0.450000
v -0.620000 0.000000 -0.450000
v -0.620000 0.890000 -0.400000
v -0.620000 0.090000 -0.400000
v -0.080000 0.000000 -0.400000
v -0.080000 1.000000 -0.500000
v -0.080000 1.000000 -0.450000
v -0.080000 0.000000 -0.450000
v -0.080000 1.000000 -0.400000
v -0.080000 0.000000 -0.500000
v -0.080000 0.890000 -0.400000
v -0.080000 0.090000 -0.400000
v -0.080000 0.890000 -0.420000
v -0.620000 0.890000 -0.420000
v -0.080000 0.090000 -0.420000
v -0.620000 0.090000 -0.420000
vn -0.0000 -0.0000 1.0000
vn 1.0000 -0.0000 -0.0000
vn -0.0000 -1.0000 -0.0000
vn -0.0000 1.0000 -0.0000
vn -1.0000 -0.0000 -0.0000
vn 0.9889 -0.0000 -0.1483
vt 0.033726 0.544380
vt 0.033726 0.549368
vt 0.030068 0.549368
vt 0.030068 0.544380
vt 0.056046 0.544380
vt 0.056046 0.549368
vt 0.058549 0.549368
vt 0.058549 0.544380
vt 0.055222 0.459024
vt 0.055222 0.460939
vt 0.058474 0.460939
vt 0.058474 0.459024
vt 0.055222 0.457110
vt 0.058474 0.457110
vt 0.026765 0.457110
vt 0.026765 0.459024
vt 0.058549 0.518203
vt 0.056046 0.518203
vt 0.033726 0.518203
vt 0.030068 0.518203
vt 0.033726 0.514355
vt 0.030068 0.514355
vt 0.056046 0.514355
vt 0.058549 0.514355
vt 0.054794 0.514355
vt 0.054794 0.518203
vt 0.053607 0.518203
vt 0.053607 0.544380
vt 0.055662 0.544380
vt 0.055662 0.518203
vt 0.058570 0.457110
vt 0.058570 0.459024
vt 0.054664 0.459024
vt 0.054664 0.457110
vt 0.058570 0.460939
vt 0.054664 0.460939
vt 0.054794 0.544380
vt 0.054794 0.549368
vt 0.058495 0.544380
vt 0.058495 0.549368
vt 0.058495 0.518203
vt 0.058495 0.514355
vt 0.030017 0.457110
vt 0.030017 0.459024
vt 0.030017 0.460939
vt 0.005661 0.455414
vt 0.005661 0.419582
vt 0.027012 0.419582
vt 0.027012 0.455414
vt 0.053705 0.544380
vt 0.053705 0.518203
vt 0.036410 0.526101
vt 0.036410 0.532484
vt 0.032724 0.532484
vt 0.032724 0.526101
vt 0.001347 0.457110
vt 0.001347 0.459024
vt 0.004599 0.459024
vt 0.004599 0.457110
vt 0.001347 0.460939
vt 0.004599 0.460939
vt 0.026765 0.460939
s 0
usemtl regular
f 24/1/1 19/2/1 4/3/1 11/4/1
f 13/5/2 9/6/2 2/7/2 10/8/2
f 29/9/3 31/10/3 5/11/3 8/12/3
f 28/9/4 30/13/4 2/14/4 9/12/4
f 27/10/4 28/9/4 9/12/4 6/11/4
f 26/13/3 29/9/3 8/12/3 1/14/3
f 12/8/2 6/7/2 9/6/2 13/5/2
f 11/15/5 4/15/5 54/16/5 57/16/5
f 14/15/5 11/15/5 57/16/5 61/16/5
f 15/17/2 12/8/2 13/5/2 16/18/2
f 16/18/2 13/5/2 10/8/2 17/17/2
f 25/19/1 24/1/1 11/4/1 14/20/1
f 18/21/1 25/19/1 14/20/1 3/22/1
f 8/23/2 16/18/2 17/17/2 1/24/2
f 5/24/2 15/17/2 16/18/2 8/23/2
f 3/15/5 14/15/5 61/16/5 53/16/5
f 26/25/1 33/26/1 25/19/1 18/21/1
f 33/27/5 32/28/5 34/29/5 36/30/5
f 3/31/3 53/32/3 23/33/3 18/34/3
f 48/35/4 54/32/4 22/33/4 21/36/4
f 54/32/4 4/31/4 19/34/4 22/33/4
f 53/32/3 7/35/3 20/36/3 23/33/3
f 32/37/1 30/38/1 19/2/1 24/1/1
f 10/39/1 2/40/1 30/38/1 32/37/1
f 17/41/1 10/39/1 32/37/1 33/26/1
f 1/42/1 17/41/1 33/26/1 26/25/1
f 18/43/3 23/44/3 29/9/3 26/13/3
f 21/45/4 22/44/4 28/9/4 27/10/4
f 22/44/4 19/43/4 30/13/4 28/9/4
f 23/44/3 20/45/3 31/10/3 29/9/3
f 36/46/1 34/47/1 35/48/1 37/49/1
f 32/37/3 24/1/3 35/1/3 34/37/3
f 24/50/2 25/51/2 37/30/2 35/29/2
f 25/19/4 33/26/4 36/26/4 37/19/4
f 45/52/1 42/53/1 38/54/1 40/55/1
f 39/54/4 38/54/4 42/53/4 43/53/4
f 40/55/5 38/54/5 39/54/5 41/55/5
f 42/53/6 45/52/6 44/52/6 43/53/6
f 40/55/3 41/55/3 44/52/3 45/52/3
f 69/1/1 64/2/1 47/3/1 55/4/1
f 58/5/5 52/6/5 50/7/5 56/8/5
f 55/8/5 47/7/5 52/6/5 58/5/5
f 59/17/5 55/8/5 58/5/5 62/18/5
f 62/18/5 58/5/5 56/8/5 60/17/5
f 70/19/1 69/1/1 55/4/1 59/20/1
f 63/21/1 70/19/1 59/20/1 46/22/1
f 51/23/5 62/18/5 60/17/5 49/24/5
f 46/24/5 59/17/5 62/18/5 51/23/5
f 71/25/1 78/26/1 70/19/1 63/21/1
f 46/56/3 51/57/3 68/58/3 63/59/3
f 50/60/4 52/57/4 67/58/4 66/61/4
f 52/57/4 47/56/4 64/59/4 67/58/4
f 51/57/3 49/60/3 65/61/3 68/58/3
f 77/37/1 75/38/1 64/2/1 69/1/1
f 63/59/3 68/58/3 74/16/3 71/15/3
f 66/61/4 67/58/4 73/16/4 72/62/4
f 67/58/4 64/59/4 75/15/4 73/16/4
f 68/58/3 65/61/3 76/62/3 74/16/3
f 81/46/1 79/47/1 80/48/1 82/49/1
f 77/37/3 69/1/3 80/1/3 79/37/3
f 69/50/2 70/51/2 82/30/2 80/29/2
f 70/19/4 78/26/4 81/26/4 82/19/4
