# Blender 3.6.5
# www.blender.org
mtllib Poly_World_Map_Wall_01_Left_End.mtl
o Grid.001
v -0.500000 0.000000 0.150000
v -0.500000 0.900000 0.150000
v -0.500000 0.000000 -0.150000
v -0.500000 0.900000 -0.150000
v 0.500000 0.000000 0.150000
v 0.500000 0.900000 0.150000
v 0.500000 0.000000 -0.150000
v 0.500000 0.900000 -0.150000
v -0.500000 0.900000 0.080000
v 0.500000 0.900000 0.080000
v -0.500000 0.900000 -0.080000
v 0.500000 0.900000 -0.080000
v 0.500000 0.840000 0.080000
v 0.500000 0.840000 -0.080000
v -0.332618 0.000000 -0.150000
v -0.332618 0.900000 -0.150000
v -0.332618 0.000000 0.150000
v -0.332618 0.900000 0.150000
v -0.332618 0.900000 0.080000
v -0.332618 0.900000 -0.080000
v -0.332618 0.840000 0.080000
v -0.332618 0.840000 -0.080000
v -0.500000 0.000000 -0.000000
v -0.332618 0.000000 -0.000000
v 0.500000 0.840000 -0.000000
v -0.332618 0.900000 0.000000
v -0.500000 0.900000 -0.000000
v -0.332618 0.840000 -0.000000
vn -0.0000 1.0000 -0.0000
vn -0.0000 -0.0000 -1.0000
vn -1.0000 -0.0000 -0.0000
vn -0.0000 -0.0000 1.0000
vn 1.0000 -0.0000 -0.0000
vn -0.0000 -1.0000 -0.0000
vt 0.745503 0.684503
vt 0.749991 0.684503
vt 0.749991 0.680954
vt 0.745503 0.680954
vt 0.682248 0.439304
vt 0.682248 0.480323
vt 0.656235 0.480323
vt 0.656235 0.439304
vt 0.773423 0.627197
vt 0.773423 0.667785
vt 0.767904 0.667785
vt 0.761596 0.667785
vt 0.755288 0.667785
vt 0.749769 0.667785
vt 0.749769 0.627197
vt 0.761596 0.627197
vt 0.682248 0.439304
vt 0.682248 0.480323
vt 0.687477 0.480323
vt 0.687477 0.439304
vt 0.604688 0.555712
vt 0.604684 0.550908
vt 0.594847 0.550904
vt 0.594847 0.555712
vt 0.761718 0.617688
vt 0.757604 0.617688
vt 0.757604 0.622465
vt 0.761718 0.622465
vt 0.562964 0.555712
vt 0.614522 0.555712
vt 0.614529 0.550913
vt 0.563006 0.550913
vt 0.511473 0.605441
vt 0.511473 0.519167
vt 0.505132 0.519167
vt 0.505132 0.605441
vt 0.500139 0.546625
vt 0.500139 0.512877
vt 0.505090 0.512877
vt 0.505090 0.546625
vt 0.671856 0.480323
vt 0.671856 0.473457
vt 0.656235 0.473457
vt 0.656235 0.480323
vt 0.656235 0.439304
vt 0.562964 0.550913
vt 0.614522 0.550913
vt 0.614529 0.555712
vt 0.563008 0.555712
vt 0.687477 0.439304
vt 0.687477 0.480323
vt 0.687477 0.473457
vt 0.505128 0.605441
vt 0.505128 0.519167
vt 0.765832 0.617688
vt 0.765832 0.622465
s 0
usemtl Material
f 16/1/1 4/2/1 11/3/1 20/4/1
f 15/5/2 16/6/2 8/7/2 7/8/2
f 1/9/3 2/10/3 9/11/3 27/12/3 11/13/3 4/14/3 3/15/3 23/16/3
f 17/17/4 18/18/4 2/19/4 1/20/4
f 19/4/1 9/3/1 2/2/1 18/1/1
f 26/21/5 28/22/5 22/23/5 20/24/5
f 26/25/1 20/26/1 11/27/1 27/28/1
f 12/29/4 20/30/4 22/31/4 14/32/4
f 25/33/1 28/34/1 21/35/1 13/36/1
f 10/37/1 19/38/1 18/39/1 6/40/1
f 23/41/6 24/42/6 17/43/6 1/44/6
f 5/45/4 6/44/4 18/18/4 17/17/4
f 13/46/2 21/47/2 19/48/2 10/49/2
f 3/50/2 4/51/2 16/6/2 15/5/2
f 8/40/1 16/39/1 20/38/1 12/37/1
f 3/19/6 15/52/6 24/42/6 23/41/6
f 14/53/1 22/54/1 28/34/1 25/33/1
f 19/55/1 26/25/1 27/28/1 9/56/1
f 19/48/5 21/47/5 28/22/5 26/21/5
