# Blender 3.6.5
# www.blender.org
mtllib Poly_Small_Window_00_Light_A.mtl
o Cube.001
v 0.375000 0.975000 -0.486000
v -0.375000 0.975000 -0.486000
v 0.375000 0.525000 -0.486000
v -0.375000 0.525000 -0.486000
v 0.375000 -0.570000 0.900000
v -0.375000 -0.570000 0.900000
v 0.375000 -0.570000 0.450000
v -0.375000 -0.570000 0.450000
v 0.375000 0.975000 -0.412500
v 0.375000 0.525000 -0.412500
v -0.375000 0.525000 -0.412500
v -0.375000 0.975000 -0.412500
vn -0.0000 -1.0000 -0.0000
vn 1.0000 -0.0000 -0.0000
vn -0.0000 -0.6188 -0.7856
vn -1.0000 -0.0000 -0.0000
vn -0.0000 0.6474 0.7621
vn -0.0000 1.0000 -0.0000
vt 0.139941 0.204814
vt 0.139941 0.204814
s 0
usemtl Material.001
f 7/1/1 5/1/1 6/1/1 8/1/1
f 10/2/2 9/1/2 5/1/2 7/1/2
f 11/1/3 10/2/3 7/1/3 8/1/3
f 12/1/4 11/1/4 8/1/4 6/1/4
f 9/1/5 12/1/5 6/1/5 5/1/5
f 1/1/6 2/1/6 12/1/6 9/1/6
f 2/1/4 4/1/4 11/1/4 12/1/4
f 4/1/1 3/1/1 10/2/1 11/1/1
f 3/1/2 1/1/2 9/1/2 10/2/2
o Cube.002
v 0.375000 0.975000 -0.483000
v -0.375000 0.975000 -0.483000
v 0.375000 0.525000 -0.483000
v -0.375000 0.525000 -0.483000
vn -0.0000 -0.0000 1.0000
vt 0.139941 0.204814
s 0
usemtl Material
f 15/3/7 13/3/7 14/3/7 16/3/7
