# Blender 3.6.5
# www.blender.org
mtllib Poly_Mushroom_01.mtl
o Cylinder
v -0.000000 0.046238 -0.262095
v 0.247411 0.046238 -0.061073
v 0.139169 0.046238 0.201800
v -0.139169 0.046238 0.201800
v -0.247411 0.046238 -0.061073
v 0.089756 0.317352 0.129737
v -0.087506 0.316075 0.120648
v -0.147597 0.317362 -0.052608
v 0.147442 0.207924 -0.047907
v 0.000000 0.207924 -0.155030
v 0.091124 0.207924 0.125422
v -0.091124 0.207924 0.125422
v -0.147442 0.207924 -0.047907
v 0.000000 0.287789 -0.305959
v 0.303592 0.287673 -0.096277
v 0.187600 0.287726 0.260672
v -0.187637 0.287689 0.260664
v -0.303617 0.287635 -0.096247
v 0.360059 0.191431 -0.113209
v 0.222529 0.191431 0.310066
v -0.222529 0.191431 0.310066
v -0.360059 0.191431 -0.113209
v 0.000000 0.199052 -0.374809
v -0.116603 0.290369 0.161425
v -0.189115 0.290369 -0.061620
v 0.000605 0.290369 -0.199508
v 0.117928 0.290340 0.161425
v 0.190371 0.290369 -0.061683
v -0.159892 0.255396 -0.052129
v 0.000168 0.255399 -0.168176
v 0.098717 0.255398 0.136156
v -0.098986 0.255395 0.135959
v 0.159997 0.255401 -0.051810
v -0.126803 0.240310 0.175697
v -0.206042 0.240361 -0.066287
v -0.000351 0.240644 -0.216263
v 0.127816 0.240280 0.175025
v 0.205875 0.240340 -0.067171
v -0.321039 0.014093 0.066929
v -0.184456 0.238882 0.060017
v -0.369026 0.318825 0.121770
v -0.462204 0.227752 0.153697
v -0.167613 0.290254 0.054792
v -0.142773 0.253175 0.045502
v -0.164665 0.014380 -0.294265
v -0.113731 0.238761 -0.157054
v -0.228071 0.318825 -0.312046
v -0.285312 0.228747 -0.389923
v -0.103465 0.290254 -0.143083
v -0.087395 0.253172 -0.121723
v 0.223655 0.014475 -0.254551
v 0.114156 0.238767 -0.156862
v 0.228071 0.318825 -0.312046
v 0.285312 0.228747 -0.389923
v 0.104548 0.290254 -0.143222
v 0.088757 0.253163 -0.120731
v 0.302395 0.014375 0.129155
v 0.184531 0.238925 0.060176
v 0.369026 0.322429 0.121770
v 0.462047 0.231779 0.153640
v 0.168960 0.290254 0.054567
v 0.142249 0.253160 0.047106
v -0.034486 0.014542 0.312940
v 0.001963 0.238959 0.194397
v -0.000000 0.318825 0.389883
v -0.000000 0.227567 0.489531
v 0.000682 0.290264 0.176931
v -0.000845 0.253168 0.149845
v 0.336935 0.101513 -0.105547
v 0.208237 0.101513 0.290543
v -0.208237 0.101513 0.290543
v -0.336935 0.101513 -0.105547
v 0.000000 0.111067 -0.350344
v -0.424841 0.083273 0.141060
v -0.263192 0.089000 -0.357555
v 0.263192 0.089000 -0.357555
v 0.424841 0.083273 0.141061
v -0.000000 0.083273 0.450201
v -0.121257 -0.000107 -0.042835
v -0.134752 0.207928 0.040574
v -0.245006 0.017235 0.162515
v -0.302482 0.314834 0.207210
v -0.377237 0.219976 0.248741
v -0.344543 0.085261 0.234686
v -0.085981 0.001655 0.097097
v -0.365302 0.314834 0.013870
v -0.449103 0.220330 0.027352
v -0.124606 0.316055 0.041888
v -0.414585 0.085261 0.019120
v -0.080229 0.207927 -0.115619
v -0.240440 0.017235 -0.181553
v -0.288589 0.314834 -0.222228
v -0.349530 0.220172 -0.279437
v -0.326609 0.088378 -0.252243
v -0.124124 0.314834 -0.336547
v -0.158842 0.221558 -0.416249
v 0.006568 0.313377 -0.170334
v -0.078240 0.316055 -0.105706
v -0.143238 0.093577 -0.385471
v 0.023418 0.001041 -0.142026
v 0.085168 0.207927 -0.112030
v 0.105791 0.017235 -0.290956
v 0.124124 0.314834 -0.336547
v 0.158842 0.221558 -0.416249
v 0.143238 0.093577 -0.385471
v 0.288589 0.314834 -0.222228
v 0.349530 0.220171 -0.279436
v 0.164740 0.313356 -0.047363
v 0.014967 0.316420 -0.149761
v 0.326609 0.088378 -0.252243
v 0.141454 0.001132 -0.011315
v 0.132866 0.207927 0.046381
v 0.303915 0.017235 0.019450
v 0.365302 0.316796 0.013870
v 0.448926 0.222528 0.027160
v 0.414585 0.085261 0.019120
v 0.302482 0.316796 0.207210
v 0.376979 0.222173 0.248791
v 0.147162 0.316418 -0.032179
v 0.344543 0.085261 0.234686
v 0.055738 0.001108 0.120463
v -0.003053 0.207927 0.140695
v 0.075740 0.017235 0.278885
v 0.101645 0.314834 0.353127
v 0.116411 0.220051 0.438197
v 0.113330 0.085261 0.402931
v -0.101645 0.314834 0.353127
v -0.116411 0.220051 0.438197
v -0.103667 0.313378 0.134505
v 0.001438 0.316056 0.131594
v -0.113330 0.085261 0.402931
vn -0.3652 0.9001 0.2376
vn -0.3477 0.9017 -0.2568
vn 0.1451 0.9047 -0.4006
vn 0.4313 0.9020 0.0188
vn 0.0779 0.8824 0.4641
vn -0.2706 -0.8854 -0.3780
vn 0.6887 0.2414 0.6837
vn -0.1180 0.9915 0.0553
vn -0.1553 0.2414 -0.9579
vn -0.4374 0.2414 0.8663
vn 0.8630 0.2414 -0.4437
vn -0.9590 0.2414 -0.1483
vn -0.6782 0.5286 -0.5105
vn -0.6894 0.5404 0.4825
vn 0.2381 0.5417 0.8061
vn 0.8448 0.5349 0.0147
vn 0.8715 -0.2684 -0.4104
vn -0.0193 -0.1058 -0.9942
vn 0.6026 -0.1135 0.7899
vn -0.6493 0.7417 0.1682
vn -0.5964 -0.2134 -0.7738
vn 0.1627 0.9643 -0.2091
vn 0.2362 0.9686 0.0782
vn 0.4274 -0.8990 0.0951
vn -0.4349 -0.8868 0.1567
vn 0.0315 -0.8874 0.4600
vn 0.2471 -0.8900 -0.3832
vn 0.3363 0.9042 -0.2634
vn -0.2448 0.5443 0.8024
vn -0.5579 0.8234 0.1039
vn 0.3634 0.9008 0.2378
vn -0.8448 0.5349 0.0147
vn -0.3002 0.7779 -0.5521
vn -0.0781 0.8826 0.4636
vn 0.4363 0.7732 -0.4603
vn -0.4346 0.9006 0.0054
vn 0.6751 0.5260 -0.5173
vn 0.5135 0.8225 0.2446
vn -0.1450 0.9049 -0.4001
vn 0.6894 0.5404 0.4824
vn -0.0819 0.7767 0.6245
vn 0.2950 0.5697 -0.7670
vn -0.0000 1.0000 -0.0000
vn 0.2359 -0.2248 -0.9454
vn 0.8645 0.5016 0.0320
vn 0.2281 0.5086 0.8302
vn -0.7164 0.5061 0.4802
vn -0.6840 0.4957 -0.5352
vn -0.8320 -0.2119 -0.5128
vn -0.7445 -0.2119 0.6331
vn 0.3743 -0.2110 0.9030
vn 0.9739 -0.2141 -0.0756
vn -0.7331 -0.2446 0.6346
vn -0.4770 0.8692 0.1305
vn -0.5379 0.6817 0.4960
vn 0.3421 0.9182 -0.1995
vn -0.8293 -0.2475 -0.5010
vn -0.2822 0.8724 -0.3990
vn -0.6446 0.6749 -0.3591
vn 0.2996 0.9163 0.2657
vn 0.2106 -0.2524 -0.9444
vn 0.3146 0.8587 -0.4045
vn 0.1258 0.6821 -0.7203
vn -0.1540 0.9129 0.3779
vn 0.9680 -0.2363 -0.0842
vn 0.4650 0.8673 0.1773
vn 0.7313 0.6753 -0.0955
vn -0.4053 0.9130 -0.0467
vn 0.3776 -0.2430 0.8935
vn -0.0058 0.8720 0.4895
vn 0.3042 0.6832 0.6638
vn -0.0845 0.9186 -0.3861
vn 0.0102 0.5258 0.8505
vn 0.1712 -0.8915 0.4194
vn 0.5075 -0.8609 -0.0372
vn 0.1290 -0.8117 -0.5697
vn -0.4585 -0.8421 -0.2841
vn -0.3600 -0.8759 0.3212
vn 0.5644 -0.8239 0.0522
vn 0.0811 -0.8565 0.5098
vn -0.4592 -0.8592 0.2257
vn -0.3824 -0.8379 -0.3894
vn 0.2517 -0.7692 -0.5873
vn 0.0024 -1.0000 0.0028
vn -0.0590 -0.9971 0.0486
vn -0.0976 -0.9944 -0.0404
vn 0.0086 -0.9946 -0.1034
vn 0.1032 -0.9944 -0.0245
vn 0.0535 -0.9941 0.0944
vn -0.0667 -0.8245 0.5619
vn 0.0878 -0.8997 0.4277
vn -0.3727 -0.2130 0.9032
vn -0.2341 0.5097 0.8279
vn -0.8556 0.3081 0.4160
vn 0.8681 -0.2746 -0.4135
vn 0.9649 0.2142 -0.1520
vn -0.6346 0.7110 0.3028
vn 0.8794 0.2028 -0.4307
vn -0.5839 -0.8094 -0.0623
vn -0.9350 0.3124 0.1680
vn 0.9498 -0.2384 -0.2027
vn -0.9665 -0.2421 -0.0856
vn -0.7314 0.6766 -0.0855
vn 0.3956 0.9176 -0.0400
vn -0.6175 -0.7822 0.0834
vn -0.3631 -0.9104 0.1982
vn -0.9739 -0.2141 -0.0756
vn -0.8645 0.5016 0.0320
vn -0.6612 0.3031 -0.6862
vn 0.6616 -0.2741 0.6980
vn 0.4427 0.2142 0.8707
vn -0.4195 0.7928 -0.4422
vn 0.6814 0.2028 0.7033
vn -0.0282 -0.9982 -0.0526
vn -0.1273 -0.7339 -0.6672
vn -0.4494 0.3047 -0.8398
vn -0.0613 0.9907 -0.1215
vn 0.4281 -0.3179 0.8460
vn -0.2106 -0.2524 -0.9444
vn -0.1258 0.6821 -0.7203
vn 0.1544 0.9129 0.3779
vn -0.2951 -0.7259 -0.6212
vn -0.3237 -0.9046 -0.2774
vn -0.2950 0.5697 -0.7670
vn -0.2359 -0.2248 -0.9454
vn 0.4497 0.2919 -0.8441
vn -0.4698 -0.1487 0.8702
vn -0.6913 0.2142 0.6901
vn 0.3389 0.7038 -0.6243
vn -0.4583 0.2028 0.8653
vn 0.0447 -0.9982 -0.0397
vn 0.5538 -0.7610 -0.3380
vn 0.0876 0.9913 -0.0985
vn 0.6621 0.2937 -0.6894
vn -0.6222 -0.3820 0.6833
vn 0.8293 -0.2475 -0.5010
vn 0.6446 0.6749 -0.3591
vn -0.2996 0.9161 0.2665
vn 0.3983 -0.8059 -0.4381
vn 0.1704 -0.8829 -0.4376
vn 0.8331 -0.2099 -0.5117
vn 0.6807 0.4945 -0.5405
vn 0.9426 0.2892 0.1672
vn -0.9729 -0.1474 -0.1779
vn -0.8700 0.2142 -0.4442
vn 0.7012 0.7010 0.1298
vn -0.9646 0.2028 -0.1685
vn 0.0525 -0.9980 0.0340
vn 0.4248 -0.8209 0.3817
vn 0.8602 0.2948 0.4161
vn -0.8938 -0.2726 -0.3560
vn 0.7352 -0.2387 0.6344
vn 0.5318 0.6806 0.5039
vn -0.3550 0.9134 -0.1990
vn 0.5085 -0.8307 0.2265
vn 0.4496 -0.8926 0.0341
vn 0.7445 -0.2119 0.6331
vn 0.7164 0.5062 0.4802
vn 0.1336 0.3038 0.9433
vn -0.1251 -0.2723 -0.9540
vn 0.1536 0.2142 -0.9646
vn 0.0795 0.7924 0.6048
vn -0.1378 0.2028 -0.9695
vn -0.0142 -0.9979 0.0630
vn -0.2151 -0.8505 0.4799
vn -0.0205 0.9856 0.1679
vn -0.1293 0.3066 0.9430
vn 0.1234 -0.2729 -0.9541
vn -0.3776 -0.2430 0.8935
vn -0.3042 0.6832 0.6638
vn 0.0823 0.9190 -0.3856
vt 0.667143 0.103746
vt 0.675109 0.104364
vt 0.671378 0.108218
vt 0.665477 0.090076
vt 0.672320 0.081707
vt 0.676606 0.086878
vt 0.647472 0.089670
vt 0.639756 0.082087
vt 0.647985 0.081136
vt 0.645235 0.103693
vt 0.636977 0.104365
vt 0.634299 0.098194
vt 0.656013 0.108641
vt 0.656009 0.111961
vt 0.650632 0.112501
vt 0.639579 0.103693
vt 0.641311 0.102100
vt 0.637972 0.095620
vt 0.647942 0.103108
vt 0.649482 0.102749
vt 0.652945 0.104517
vt 0.648267 0.090733
vt 0.649673 0.091824
vt 0.647655 0.096173
vt 0.663522 0.092381
vt 0.662419 0.093713
vt 0.655993 0.092977
vt 0.656019 0.106607
vt 0.656009 0.105462
vt 0.659639 0.104405
vt 0.649617 0.091784
vt 0.650866 0.092988
vt 0.649183 0.096776
vt 0.664432 0.103088
vt 0.662881 0.102749
vt 0.663283 0.096468
vt 0.630289 0.097865
vt 0.647293 0.075632
vt 0.678968 0.086013
vt 0.674748 0.110500
vt 0.663864 0.091859
vt 0.656283 0.091829
vt 0.647445 0.103288
vt 0.652029 0.105150
vt 0.656252 0.107745
vt 0.656622 0.106364
vt 0.666177 0.103126
vt 0.664439 0.102104
vt 0.672509 0.103693
vt 0.672177 0.100424
vt 0.665449 0.107301
vt 0.642004 0.084168
vt 0.642203 0.086292
vt 0.653517 0.084168
vt 0.670292 0.083990
vt 0.665403 0.085744
vt 0.674187 0.092259
vt 0.656009 0.111396
vt 0.657662 0.109743
vt 0.649785 0.108890
vt 0.635685 0.087071
vt 0.632465 0.085698
vt 0.643882 0.095370
vt 0.644414 0.103915
vt 0.641043 0.107637
vt 0.636921 0.110648
vt 0.650309 0.106927
vt 0.656008 0.109235
vt 0.661932 0.113081
vt 0.662110 0.106934
vt 0.668016 0.103916
vt 0.677994 0.098194
vt 0.681598 0.097954
vt 0.668703 0.095385
vt 0.666149 0.089331
vt 0.664245 0.080943
vt 0.664481 0.075858
vt 0.656186 0.088992
vt 0.646812 0.088992
vt 0.656009 0.113256
vt 0.648015 0.116263
vt 0.656009 0.112140
vt 0.649890 0.113383
vt 0.678723 0.105125
vt 0.672258 0.081546
vt 0.638513 0.080727
vt 0.633365 0.105125
vt 0.636472 0.104409
vt 0.633971 0.098225
vt 0.640258 0.082447
vt 0.648223 0.079208
vt 0.671275 0.082768
vt 0.675844 0.087481
vt 0.675616 0.104409
vt 0.672186 0.108855
vt 0.631469 0.092040
vt 0.635864 0.087244
vt 0.626994 0.090907
vt 0.631589 0.092031
vt 0.644637 0.095562
vt 0.641654 0.114269
vt 0.640032 0.108370
vt 0.640002 0.116126
vt 0.643461 0.112726
vt 0.650669 0.106555
vt 0.670565 0.114980
vt 0.662472 0.113868
vt 0.663788 0.116107
vt 0.671720 0.116239
vt 0.669486 0.113757
vt 0.661693 0.106553
vt 0.680414 0.092194
vt 0.678015 0.098301
vt 0.684854 0.091041
vt 0.680910 0.092031
vt 0.667857 0.095563
vt 0.656188 0.075968
vt 0.663731 0.079368
vt 0.656188 0.071691
vt 0.656188 0.080160
vt 0.656183 0.089588
vt 0.663240 0.084079
vt 0.673703 0.098729
vt 0.660232 0.110003
vt 0.643952 0.105924
vt 0.639803 0.088966
vt 0.647577 0.096294
vt 0.652092 0.105228
vt 0.660339 0.105194
vt 0.664910 0.096207
vt 0.656129 0.091774
s 0
usemtl Material
f 38/1/1 15/2/1 106/3/1
f 37/4/2 16/5/2 117/6/2
f 34/7/3 17/8/3 127/9/3
f 35/10/4 18/11/4 86/12/4
f 36/13/5 14/14/5 95/15/5
f 5/16/6 79/17/6 39/18/6
f 29/19/7 13/20/7 90/21/7
f 129/22/8 7/23/8 88/24/8
f 31/25/9 11/26/9 122/27/9
f 30/28/10 10/29/10 101/30/10
f 32/31/11 12/32/11 80/33/11
f 33/34/12 9/35/12 112/36/12
f 86/12/13 18/11/13 87/37/13
f 127/9/14 17/8/14 128/38/14
f 117/6/15 16/5/15 118/39/15
f 106/3/16 15/2/16 107/40/16
f 7/23/17 32/31/17 88/24/17
f 6/41/18 31/25/18 130/42/18
f 8/43/19 29/19/19 98/44/19
f 129/22/20 88/24/20 8/43/20
f 8/43/21 98/44/21 97/45/21
f 97/45/22 109/46/22 108/47/22
f 108/47/23 119/48/23 6/41/23
f 2/49/24 111/50/24 51/51/24
f 4/52/25 85/53/25 63/54/25
f 3/55/26 121/56/26 57/57/26
f 1/58/27 100/59/27 45/60/27
f 17/8/28 34/7/28 82/61/28
f 17/8/29 82/61/29 83/62/29
f 43/63/30 8/43/30 25/64/30
f 18/11/31 35/10/31 92/65/31
f 18/11/32 92/65/32 93/66/32
f 49/67/33 97/45/33 26/68/33
f 14/14/34 36/13/34 103/69/34
f 55/70/35 108/47/35 28/71/35
f 15/2/36 38/1/36 114/72/36
f 15/2/37 114/72/37 115/73/37
f 61/74/38 6/41/38 27/75/38
f 16/5/39 37/4/39 124/76/39
f 16/5/40 124/76/40 125/77/40
f 67/78/41 129/22/41 24/79/41
f 23/80/42 96/81/42 95/15/42 14/14/42
f 112/36/43 9/35/43 101/30/43 10/29/43 90/21/43 13/20/43 80/33/43 12/32/43 122/27/43 11/26/43
f 23/80/44 73/82/44 99/83/44 96/81/44
f 107/40/45 15/2/45 19/84/45
f 118/39/46 16/5/46 20/85/46
f 128/38/47 17/8/47 21/86/47
f 87/37/48 18/11/48 22/87/48
f 22/87/49 72/88/49 89/89/49 87/37/49
f 21/86/50 71/90/50 131/91/50 128/38/50
f 20/85/51 70/92/51 120/93/51 118/39/51
f 19/84/52 69/94/52 110/95/52 107/40/52
f 74/96/53 84/97/53 83/62/53 42/98/53
f 43/63/54 129/22/54 8/43/54
f 41/99/55 42/98/55 83/62/55 82/61/55
f 40/100/56 41/99/56 82/61/56 34/7/56
f 75/101/57 94/102/57 93/66/57 48/103/57
f 49/67/58 8/43/58 97/45/58
f 47/104/59 48/103/59 93/66/59 92/65/59
f 46/105/60 47/104/60 92/65/60 35/10/60
f 76/106/61 105/107/61 104/108/61 54/109/61
f 55/70/62 97/45/62 108/47/62
f 53/110/63 54/109/63 104/108/63 103/69/63
f 52/111/64 53/110/64 103/69/64 36/13/64
f 77/112/65 116/113/65 115/73/65 60/114/65
f 61/74/66 108/47/66 6/41/66
f 59/115/67 60/114/67 115/73/67 114/72/67
f 58/116/68 59/115/68 114/72/68 38/1/68
f 78/117/69 126/118/69 125/77/69 66/119/69
f 67/78/70 6/41/70 129/22/70
f 65/120/71 66/119/71 125/77/71 124/76/71
f 64/121/72 65/120/72 124/76/72 37/4/72
f 129/22/73 6/41/73 130/42/73
f 63/54/74 123/122/74 126/118/74 78/117/74
f 57/57/75 113/123/75 116/113/75 77/112/75
f 51/51/76 102/124/76 105/107/76 76/106/76
f 45/60/77 91/125/77 94/102/77 75/101/77
f 39/18/78 81/126/78 84/97/78 74/96/78
f 69/94/79 2/49/79 51/51/79 110/95/79
f 70/92/80 3/55/80 57/57/80 120/93/80
f 71/90/81 4/52/81 63/54/81 131/91/81
f 72/88/82 5/16/82 39/18/82 89/89/82
f 73/82/83 1/58/83 45/60/83 99/83/83
f 111/50/84 121/56/84 85/53/84 79/17/84 100/59/84
f 79/17/85 85/53/85 81/126/85 39/18/85
f 91/125/86 45/60/86 79/17/86
f 102/124/87 51/51/87 100/59/87
f 113/123/88 57/57/88 111/50/88
f 123/122/89 63/54/89 121/56/89
f 81/126/90 4/52/90 71/90/90 84/97/90
f 4/52/91 81/126/91 85/53/91
f 84/97/92 71/90/92 21/86/92 83/62/92
f 21/86/93 17/8/93 83/62/93
f 24/79/94 43/63/94 40/100/94 34/7/94
f 88/24/95 32/31/95 44/127/95
f 13/20/96 29/19/96 44/127/96 80/33/96
f 43/63/97 24/79/97 129/22/97
f 44/127/98 32/31/98 80/33/98
f 39/18/99 74/96/99 89/89/99
f 25/64/100 35/10/100 40/100/100 43/63/100
f 44/127/101 29/19/101 8/43/101 88/24/101
f 87/37/102 89/89/102 74/96/102 42/98/102
f 87/37/103 42/98/103 41/99/103 86/12/103
f 86/12/104 41/99/104 40/100/104 35/10/104
f 91/125/105 5/16/105 72/88/105 94/102/105
f 5/16/106 91/125/106 79/17/106
f 94/102/107 72/88/107 22/87/107 93/66/107
f 22/87/108 18/11/108 93/66/108
f 25/64/109 49/67/109 46/105/109 35/10/109
f 98/44/110 29/19/110 50/128/110
f 10/29/111 30/28/111 50/128/111 90/21/111
f 49/67/112 25/64/112 8/43/112
f 50/128/113 29/19/113 90/21/113
f 45/60/114 100/59/114 79/17/114
f 45/60/115 75/101/115 99/83/115
f 26/68/116 36/13/116 46/105/116 49/67/116
f 97/45/117 98/44/117 109/46/117
f 50/128/118 30/28/118 109/46/118 98/44/118
f 96/81/119 99/83/119 75/101/119 48/103/119
f 96/81/120 48/103/120 47/104/120 95/15/120
f 95/15/121 47/104/121 46/105/121 36/13/121
f 102/124/122 1/58/122 73/82/122 105/107/122
f 1/58/123 102/124/123 100/59/123
f 103/69/124 104/108/124 23/80/124 14/14/124
f 105/107/125 73/82/125 23/80/125 104/108/125
f 26/68/126 55/70/126 52/111/126 36/13/126
f 109/46/127 30/28/127 56/129/127
f 9/35/128 33/34/128 56/129/128 101/30/128
f 55/70/129 26/68/129 97/45/129
f 56/129/130 30/28/130 101/30/130
f 51/51/131 111/50/131 100/59/131
f 51/51/132 76/106/132 110/95/132
f 108/47/133 109/46/133 119/48/133
f 28/71/134 38/1/134 52/111/134 55/70/134
f 56/129/135 33/34/135 119/48/135 109/46/135
f 107/40/136 110/95/136 76/106/136 54/109/136
f 107/40/137 54/109/137 53/110/137 106/3/137
f 106/3/138 53/110/138 52/111/138 38/1/138
f 113/123/139 2/49/139 69/94/139 116/113/139
f 2/49/140 113/123/140 111/50/140
f 116/113/141 69/94/141 19/84/141 115/73/141
f 19/84/142 15/2/142 115/73/142
f 28/71/143 61/74/143 58/116/143 38/1/143
f 119/48/144 33/34/144 62/130/144
f 11/26/145 31/25/145 62/130/145 112/36/145
f 61/74/146 28/71/146 108/47/146
f 62/130/147 33/34/147 112/36/147
f 57/57/148 121/56/148 111/50/148
f 57/57/149 77/112/149 120/93/149
f 27/75/150 37/4/150 58/116/150 61/74/150
f 62/130/151 31/25/151 6/41/151 119/48/151
f 118/39/152 120/93/152 77/112/152 60/114/152
f 118/39/153 60/114/153 59/115/153 117/6/153
f 117/6/154 59/115/154 58/116/154 37/4/154
f 123/122/155 3/55/155 70/92/155 126/118/155
f 3/55/156 123/122/156 121/56/156
f 126/118/157 70/92/157 20/85/157 125/77/157
f 20/85/158 16/5/158 125/77/158
f 67/78/159 64/121/159 37/4/159 27/75/159
f 130/42/160 31/25/160 68/131/160
f 12/32/161 32/31/161 68/131/161 122/27/161
f 67/78/162 27/75/162 6/41/162
f 68/131/163 31/25/163 122/27/163
f 63/54/164 85/53/164 121/56/164
f 63/54/165 78/117/165 131/91/165
f 129/22/166 130/42/166 7/23/166
f 24/79/167 34/7/167 64/121/167 67/78/167
f 68/131/168 32/31/168 7/23/168 130/42/168
f 128/38/169 131/91/169 78/117/169 66/119/169
f 128/38/170 66/119/170 65/120/170 127/9/170
f 127/9/171 65/120/171 64/121/171 34/7/171
