# Blender 3.6.5
# www.blender.org
mtllib Poly_SF_Outside_B_Board_Neo_Sign_14_Lamp.mtl
o Cube
v 1.000000 0.000000 -0.100000
v -1.000000 0.000000 -0.100000
v 1.000000 0.000000 0.100000
v -1.000000 0.000000 0.100000
v 1.000000 0.600000 -0.100000
v -1.000000 0.600000 -0.100000
v 1.000000 0.600000 0.100000
v -1.000000 0.600000 0.100000
vn -0.0000 -0.0000 1.0000
vn -0.0000 -0.0000 -1.0000
vt 0.187578 0.316452
vt 0.312473 0.316452
vt 0.312473 0.354142
vt 0.187578 0.354142
s 0
usemtl Material
f 4/1/1 3/2/1 7/3/1 8/4/1
f 6/1/2 5/2/2 1/3/2 2/4/2
