# Blender 3.6.5
# www.blender.org
mtllib Poly_Bush_01.mtl
o Icosphere.001
v -0.000000 0.067596 0.000000
v 0.426527 0.391037 0.309887
v -0.162916 0.391037 0.501412
v -0.527217 0.391039 0.000000
v -0.162916 0.391037 -0.501412
v 0.426527 0.391037 -0.309887
v 0.153684 0.695211 0.472997
v -0.402356 0.695211 0.292325
v -0.402356 0.695211 -0.292325
v 0.153684 0.695211 -0.472997
v 0.497339 0.695210 0.000000
v -0.000000 0.993754 0.000000
v -0.139628 0.179562 0.429735
v 0.365556 0.179562 0.265589
v 0.154947 0.358131 0.476869
v 0.501411 0.358131 0.000000
v 0.365556 0.179562 -0.265589
v -0.451854 0.179563 -0.000000
v -0.405651 0.358131 0.294721
v -0.139628 0.179562 -0.429735
v -0.405651 0.358131 -0.294721
v 0.154947 0.358131 -0.476869
v 0.478410 0.536004 0.155443
v 0.478410 0.536004 -0.155443
v -0.000000 0.536004 0.503030
v 0.295674 0.536004 0.406959
v -0.478410 0.536004 0.155443
v -0.295674 0.536004 0.406959
v -0.295674 0.536004 -0.406959
v -0.478410 0.536004 -0.155443
v 0.295674 0.536004 -0.406959
v -0.000000 0.536004 -0.503030
v 0.382662 0.726253 0.278019
v -0.146166 0.726253 0.449844
v -0.472996 0.726252 0.000000
v -0.146166 0.726253 -0.449844
v 0.382662 0.726253 -0.278019
v 0.073764 0.913842 0.227027
v 0.238712 0.913841 0.000000
v -0.193121 0.913842 0.140309
v -0.193121 0.913842 -0.140309
v 0.073764 0.913842 -0.227027
vn 0.0905 -0.9562 0.2785
vn 0.9137 -0.3167 0.2544
vn -0.2369 -0.9562 0.1721
vn -0.2369 -0.9562 -0.1721
vn 0.0905 -0.9562 -0.2785
vn 0.9662 -0.0872 0.2427
vn 0.0677 -0.0872 0.9939
vn -0.9243 -0.0872 0.3715
vn -0.6390 -0.0872 -0.7643
vn 0.5294 -0.0872 -0.8439
vn 0.7667 0.3191 0.5571
vn -0.2929 0.3191 0.9013
vn -0.9477 0.3191 -0.0000
vn -0.2929 0.3191 -0.9013
vn 0.7667 0.3191 -0.5571
vn 0.3657 0.7515 0.5491
vn -0.4092 0.7515 0.5175
vn -0.6186 0.7515 -0.2293
vn 0.0269 0.7515 -0.6592
vn 0.6353 0.7515 -0.1781
vn 0.3093 0.9240 -0.2247
vn 0.4504 0.8307 -0.3273
vn 0.3657 0.7515 -0.5491
vn -0.1182 0.9240 -0.3636
vn -0.1721 0.8307 -0.5295
vn -0.4092 0.7515 -0.5175
vn -0.3824 0.9240 -0.0000
vn -0.5568 0.8307 -0.0000
vn -0.6186 0.7515 0.2293
vn -0.1182 0.9240 0.3636
vn -0.1721 0.8307 0.5295
vn 0.0269 0.7515 0.6592
vn 0.3093 0.9240 0.2247
vn 0.4504 0.8307 0.3273
vn 0.6353 0.7515 0.1781
vn 0.9080 0.2324 -0.3486
vn 0.8087 0.0284 -0.5875
vn 0.6121 0.2324 -0.7559
vn -0.0509 0.2324 -0.9713
vn -0.3089 0.0284 -0.9507
vn -0.5297 0.2324 -0.8157
vn -0.9395 0.2324 -0.2517
vn -0.9996 0.0284 -0.0000
vn -0.9395 0.2324 0.2517
vn -0.5297 0.2324 0.8157
vn -0.3089 0.0284 0.9507
vn -0.0509 0.2324 0.9713
vn 0.6121 0.2324 0.7559
vn 0.8087 0.0284 0.5875
vn 0.9080 0.2324 0.3486
vn 0.3069 -0.1181 -0.9444
vn 0.3065 0.1282 -0.9432
vn 0.0677 -0.0872 -0.9939
vn -0.8034 -0.1181 -0.5837
vn -0.8023 0.1282 -0.5829
vn -0.9243 -0.0872 -0.3715
vn -0.8034 -0.1181 0.5837
vn -0.8023 0.1282 0.5829
vn -0.6390 -0.0872 0.7643
vn 0.3069 -0.1181 0.9444
vn 0.3065 0.1282 0.9432
vn 0.5294 -0.0872 0.8439
vn 0.9930 -0.1181 -0.0000
vn 0.9917 0.1282 -0.0000
vn 0.9662 -0.0872 -0.2427
vn 0.5244 -0.3167 -0.7904
vn 0.2459 -0.6055 -0.7569
vn 0.0404 -0.3167 -0.9477
vn -0.5897 -0.3167 -0.7429
vn -0.6439 -0.6055 -0.4678
vn -0.8888 -0.3167 -0.3312
vn -0.8888 -0.3167 0.3312
vn -0.6439 -0.6055 0.4678
vn -0.5897 -0.3167 0.7429
vn 0.9137 -0.3167 -0.2544
vn 0.7959 -0.6055 -0.0000
vn 0.2929 -0.9562 -0.0000
vn 0.0404 -0.3167 0.9477
vn 0.2459 -0.6055 0.7569
vn 0.5244 -0.3167 0.7904
vt 0.843528 0.717543
vt 0.855492 0.721155
vt 0.832055 0.721155
vt 0.843528 0.737205
vt 0.870594 0.737205
vt 0.855492 0.752431
vt 0.817865 0.737205
vt 0.832055 0.752431
vt 0.817865 0.772279
vt 0.843528 0.772279
vt 0.832055 0.801124
vt 0.855492 0.801124
vt 0.843528 0.807908
vt 0.870594 0.772279
s 0
usemtl Material.001
f 1/1/1 14/2/1 13/3/1
f 2/4/2 14/2/2 16/5/2
f 1/1/3 13/2/3 18/3/3
f 1/1/4 18/2/4 20/3/4
f 1/1/5 20/2/5 17/3/5
f 2/4/6 16/5/6 23/6/6
f 3/7/7 15/4/7 25/8/7
f 4/4/8 19/5/8 27/6/8
f 5/4/9 21/5/9 29/6/9
f 6/4/10 22/5/10 31/6/10
f 2/4/11 23/6/11 26/8/11
f 3/4/12 25/6/12 28/8/12
f 4/4/13 27/6/13 30/8/13
f 5/4/14 29/6/14 32/8/14
f 6/4/15 31/6/15 24/8/15
f 7/9/16 33/10/16 38/11/16
f 8/9/17 34/10/17 40/11/17
f 9/9/18 35/10/18 41/11/18
f 10/9/19 36/10/19 42/11/19
f 11/9/20 37/10/20 39/11/20
f 39/11/21 42/12/21 12/13/21
f 39/11/22 37/10/22 42/12/22
f 37/10/23 10/14/23 42/12/23
f 42/11/24 41/12/24 12/13/24
f 42/11/25 36/10/25 41/12/25
f 36/10/26 9/14/26 41/12/26
f 41/11/27 40/12/27 12/13/27
f 41/11/28 35/10/28 40/12/28
f 35/10/29 8/14/29 40/12/29
f 40/11/30 38/12/30 12/13/30
f 40/11/31 34/10/31 38/12/31
f 34/10/32 7/14/32 38/12/32
f 38/11/33 39/12/33 12/13/33
f 38/11/34 33/10/34 39/12/34
f 33/10/35 11/14/35 39/12/35
f 24/8/36 37/10/36 11/9/36
f 24/8/37 31/6/37 37/10/37
f 31/6/38 10/14/38 37/10/38
f 32/8/39 36/10/39 10/9/39
f 32/8/40 29/6/40 36/10/40
f 29/6/41 9/14/41 36/10/41
f 30/8/42 35/10/42 9/9/42
f 30/8/43 27/6/43 35/10/43
f 27/6/44 8/14/44 35/10/44
f 28/8/45 34/10/45 8/9/45
f 28/8/46 25/6/46 34/10/46
f 25/8/47 7/10/47 34/9/47
f 26/6/48 33/14/48 7/10/48
f 26/8/49 23/6/49 33/10/49
f 23/6/50 11/14/50 33/10/50
f 31/8/51 32/6/51 10/10/51
f 31/8/52 22/4/52 32/6/52
f 22/7/53 5/4/53 32/8/53
f 29/8/54 30/6/54 9/10/54
f 29/8/55 21/4/55 30/6/55
f 21/7/56 4/4/56 30/8/56
f 27/8/57 28/6/57 8/10/57
f 27/8/58 19/4/58 28/6/58
f 19/4/59 3/5/59 28/6/59
f 25/8/60 26/6/60 7/10/60
f 25/8/61 15/4/61 26/6/61
f 15/7/62 2/4/62 26/8/62
f 23/8/63 24/6/63 11/10/63
f 23/8/64 16/4/64 24/6/64
f 16/7/65 6/4/65 24/8/65
f 17/2/66 22/5/66 6/4/66
f 17/3/67 20/2/67 22/4/67
f 20/3/68 5/4/68 22/7/68
f 20/2/69 21/5/69 5/4/69
f 20/3/70 18/2/70 21/4/70
f 18/3/71 4/4/71 21/7/71
f 18/2/72 19/5/72 4/4/72
f 18/3/73 13/2/73 19/4/73
f 13/2/74 3/5/74 19/4/74
f 16/7/75 17/3/75 6/4/75
f 16/4/76 14/3/76 17/2/76
f 14/3/77 1/1/77 17/2/77
f 13/3/78 15/4/78 3/7/78
f 13/3/79 14/2/79 15/4/79
f 14/3/80 2/4/80 15/7/80
o Plane
v 0.065305 0.130195 0.075753
v -0.050107 0.130195 0.090626
v -0.011396 0.047171 0.092552
v -0.147369 0.049930 -0.008796
v -0.097199 0.058966 0.057601
v -0.127079 0.138399 -0.054311
v -0.018145 0.049930 -0.115570
v -0.101537 0.060740 -0.076181
v -0.035833 0.138399 -0.108577
v 0.032414 0.139164 -0.095740
v 0.025397 0.160608 -0.045169
v 0.105978 0.139164 -0.021334
v 0.069196 0.139164 -0.058537
v -0.065939 0.158641 0.011812
v 0.033463 0.156952 0.016085
v -0.056020 0.157229 -0.041893
v -0.127079 0.138399 -0.054311
v -0.065939 0.158641 0.011812
v 0.025397 0.160608 -0.045169
v -0.035833 0.138399 -0.108577
v 0.068933 0.058966 -0.079668
v 0.117828 0.047171 -0.014222
v 0.170687 -0.026359 -0.018722
v 0.099104 -0.034798 -0.113619
v -0.024069 -0.022406 -0.163885
v -0.145063 -0.032258 -0.108623
v -0.209158 -0.022407 -0.010951
v -0.138849 -0.034798 0.082995
v 0.073271 0.057192 0.054114
v -0.014402 -0.026359 0.134211
v 0.105317 -0.037339 0.077999
v 0.032414 0.139164 -0.095740
v 0.105978 0.139164 -0.021334
v 0.085642 0.134680 0.027210
v 0.069721 0.148058 -0.002625
v 0.033463 0.156952 0.016085
v -0.056020 0.157229 -0.041893
v -0.019235 -0.024383 -0.014837
vn 0.1274 0.0823 0.9884
vn -0.5972 0.0231 0.8018
vn -0.6369 0.0076 -0.7709
vn -0.5109 -0.0342 -0.8590
vn 0.1824 0.1137 -0.9766
vn 0.0616 0.9219 -0.3824
vn 0.3325 0.8840 -0.3287
vn 0.0145 0.9982 0.0577
vn -0.0428 0.9985 -0.0342
vn -0.0512 0.9569 -0.2857
vn 0.7094 0.4723 -0.5231
vn -0.3634 0.4944 -0.7897
vn -0.6867 0.5013 0.5265
vn 0.3880 0.3923 0.8340
vn -0.3325 -0.8840 0.3287
vn 0.3410 0.9122 0.2271
vn -0.0000 -0.0000 1.0000
vn 0.0428 -0.9985 0.0342
vn 0.0512 -0.9569 0.2857
vn -0.0107 -0.9999 -0.0129
vn -0.7595 0.4872 0.4309
vn 0.6429 -0.1524 0.7507
vn 0.7694 0.1031 -0.6304
vn 0.0472 -0.9865 0.1565
vn 0.5044 0.0570 -0.8616
vn 0.3436 0.4566 -0.8206
vn -0.3372 0.4264 0.8393
vn -0.7003 0.5430 -0.4633
vn 0.7480 0.4357 0.5007
vn 0.8723 0.0936 0.4799
vt 0.840277 0.708177
vt 0.839539 0.708177
vt 0.836402 0.705144
vt 0.843498 0.705399
vt 0.839950 0.705272
vt 0.846731 0.708715
vt 0.850973 0.705399
vt 0.847235 0.705399
vt 0.849424 0.708715
vt 0.848787 0.708765
vt 0.846277 0.710171
vt 0.845095 0.708765
vt 0.846941 0.708765
vt 0.843450 0.710042
vt 0.843238 0.709931
vt 0.846115 0.709949
vt 0.847425 0.705272
vt 0.843877 0.705144
vt 0.844809 0.696643
vt 0.849584 0.696643
vt 0.854359 0.696643
vt 0.849284 0.696643
vt 0.844208 0.696643
vt 0.838723 0.696643
vt 0.840140 0.705144
vt 0.833237 0.696643
vt 0.839023 0.696643
vt 0.842686 0.708471
vt 0.844166 0.709348
vt 0.844154 0.696643
s 1
usemtl Material.001
f 43/15/81 44/16/81 45/17/81
f 44/16/82 46/18/82 47/19/82 45/17/82
f 48/20/83 49/21/83 50/22/83 46/18/83
f 51/23/84 49/21/84 48/20/84
f 51/23/85 52/24/85 49/21/85
f 51/23/86 53/25/86 52/24/86
f 53/25/87 54/26/87 55/27/87 52/24/87
f 53/25/88 56/28/88 57/29/88
f 53/25/89 58/30/89 56/28/89
f 53/25/90 51/23/90 58/30/90
f 63/31/91 64/32/91 65/33/91 66/34/91
f 50/22/92 49/21/92 67/35/92 68/36/92
f 47/19/93 46/18/93 69/37/93 70/38/93
f 71/39/94 45/17/94 72/40/94 73/41/94
f 53/25/95 74/24/95 75/26/95 54/26/95
f 76/42/96 77/43/96 78/29/96 43/15/96
f 43/15/97 78/29/97 79/30/97 57/29/97
f 58/30/98 61/25/98 60/28/98 56/28/98
f 56/28/97 60/28/97 59/20/97 48/20/97
f 48/20/97 59/20/97 62/23/97 51/23/97
f 51/23/99 62/23/99 61/25/99 58/30/99
f 80/44/100 70/38/100 69/37/100 68/36/100
f 56/28/101 48/20/101 46/18/101 44/16/101
f 76/42/102 43/15/102 45/17/102 71/39/102
f 55/27/103 54/26/103 64/32/103 63/31/103
f 57/29/104 79/30/104 74/24/104 53/25/104
f 52/24/105 55/27/105 63/31/105 49/21/105
f 49/21/106 63/31/106 66/34/106 67/35/106
f 45/17/107 47/19/107 70/38/107 72/40/107
f 73/41/100 72/40/100 70/38/100 80/44/100
f 46/18/108 50/22/108 68/36/108 69/37/108
f 64/32/109 71/39/109 73/41/109 65/33/109
f 54/26/96 75/26/96 77/43/96 76/42/96
f 66/34/100 80/44/100 68/36/100 67/35/100
f 54/26/110 76/42/110 71/39/110 64/32/110
f 65/33/100 73/41/100 80/44/100 66/34/100
