# Blender 3.6.5
# www.blender.org
mtllib Poly_Weed_Plant_01.mtl
o Plane.001
v 0.002148 -0.008641 -0.003972
v 0.002313 -0.008641 0.002463
v 0.461995 0.005335 -0.008820
v 0.462419 0.005335 0.007700
v 0.381716 0.091164 -0.050558
v 0.383794 0.091164 0.030473
v 0.204146 0.105763 -0.058569
v 0.206409 0.105763 0.029684
v 0.002148 -0.008641 -0.003972
v 0.002313 -0.008641 0.002463
v 0.363534 0.179717 -0.384681
v 0.376178 0.179717 -0.374042
v 0.213652 0.292893 -0.284561
v 0.275675 0.292893 -0.232374
v 0.078942 0.255381 -0.139936
v 0.146493 0.255381 -0.083097
v 0.002148 -0.008641 -0.003972
v 0.002313 -0.008641 0.002463
v 0.512319 0.264614 0.000361
v 0.512808 0.264116 0.016875
v 0.349342 0.348874 -0.041660
v 0.351742 0.346430 0.039341
v 0.170775 0.255866 -0.049578
v 0.173389 0.253205 0.038642
v 0.002148 -0.008641 -0.003972
v 0.002313 -0.008641 0.002463
v 0.481007 0.339499 -0.184810
v 0.488834 0.339001 -0.170261
v 0.325381 0.382892 -0.150201
v 0.363773 0.380448 -0.078835
v 0.181991 0.243174 -0.088273
v 0.223805 0.240513 -0.010547
v 0.002148 -0.008641 -0.003972
v 0.002313 -0.008641 0.002463
v 0.406645 0.311630 0.255026
v 0.399428 0.311170 0.269888
v 0.298487 0.295725 0.159874
v 0.263085 0.293466 0.232773
v 0.188838 0.225274 0.091182
v 0.150281 0.222814 0.170577
v 0.002148 -0.008641 -0.003972
v 0.002313 -0.008641 0.002463
v 0.309725 0.442728 0.011452
v 0.310204 0.442268 0.027967
v 0.164229 0.395781 -0.028784
v 0.166581 0.393523 0.052222
v 0.054378 0.200177 -0.041861
v 0.056939 0.197717 0.046365
v 0.002148 -0.008641 -0.003972
v 0.002313 -0.008641 0.002463
v 0.213668 0.050954 0.452129
v 0.199588 0.050048 0.460753
v 0.190070 0.190753 0.375538
v 0.121007 0.186308 0.417839
v 0.135378 0.166623 0.228988
v 0.060160 0.161783 0.275060
v 0.002148 -0.008641 -0.003972
v 0.002313 -0.008641 0.002463
v 0.051635 0.505851 -0.258643
v 0.061346 0.504815 -0.257541
v 0.020477 0.386799 -0.153033
v 0.100761 0.378232 -0.143929
v 0.009245 0.173426 -0.054695
v 0.096684 0.164095 -0.044779
v -0.001893 -0.008641 -0.003868
v -0.001728 -0.008641 0.002567
v -0.461385 0.005335 0.014856
v -0.460961 0.005335 0.031376
v -0.383350 0.091164 -0.030941
v -0.381273 0.091164 0.050090
v -0.206424 0.105763 -0.048042
v -0.204161 0.105763 0.040211
v -0.001893 -0.008641 -0.003868
v -0.001728 -0.008641 0.002567
v -0.382315 0.179717 -0.365557
v -0.394398 0.179717 -0.354283
v -0.227499 0.292893 -0.273250
v -0.286766 0.292893 -0.217953
v -0.085554 0.255381 -0.135718
v -0.150104 0.255381 -0.075492
v -0.001893 -0.008641 -0.003868
v -0.001728 -0.008641 0.002567
v -0.511172 0.264614 0.026604
v -0.510814 0.264116 0.043121
v -0.350563 0.348874 -0.023714
v -0.348808 0.346430 0.057304
v -0.172636 0.255866 -0.040773
v -0.170726 0.253205 0.047466
v -0.001893 -0.008641 -0.003868
v -0.001728 -0.008641 0.002567
v -0.489390 0.339499 -0.159929
v -0.496461 0.339001 -0.144997
v -0.332195 0.382892 -0.133340
v -0.366879 0.380448 -0.060101
v -0.185821 0.243174 -0.078842
v -0.223596 0.240513 0.000924
v -0.001893 -0.008641 -0.003868
v -0.001728 -0.008641 0.002567
v -0.392586 0.311630 0.275519
v -0.384616 0.311170 0.289992
v -0.289446 0.295725 0.174949
v -0.250355 0.293466 0.245938
v -0.183462 0.225274 0.100728
v -0.140887 0.222814 0.178043
v -0.001893 -0.008641 -0.003868
v -0.001728 -0.008641 0.002567
v -0.308275 0.442728 0.027298
v -0.307908 0.442268 0.043815
v -0.165034 0.395781 -0.020342
v -0.163231 0.393523 0.060678
v -0.055996 0.200177 -0.039031
v -0.054033 0.197717 0.049210
v -0.001893 -0.008641 -0.003868
v -0.001728 -0.008641 0.002567
v -0.189761 0.050954 0.462474
v -0.175258 0.050048 0.470364
v -0.170119 0.190753 0.384773
v -0.098979 0.186308 0.423479
v -0.123010 0.166623 0.235614
v -0.045529 0.161783 0.277770
v -0.001893 -0.008641 -0.003868
v -0.001728 -0.008641 0.002567
v -0.064367 0.505851 -0.255668
v -0.074009 0.504815 -0.254071
v -0.027838 0.386799 -0.151795
v -0.107549 0.378232 -0.138588
v -0.011581 0.173426 -0.054161
v -0.098396 0.164095 -0.039777
vn 0.7348 0.6781 -0.0188
vn 0.0820 0.9966 -0.0021
vn -0.4902 0.8715 0.0126
vn 0.3523 0.8370 -0.4187
vn -0.1202 0.9824 0.1429
vn -0.5874 0.5096 0.6287
vn 0.4565 0.8896 0.0133
vn -0.4630 0.8854 0.0404
vn -0.8392 0.5423 0.0399
vn 0.2466 0.9640 -0.0997
vn -0.5785 0.7429 0.3367
vn -0.6910 0.6243 0.3644
vn -0.1212 0.9922 -0.0281
vn -0.4444 0.8757 -0.1887
vn -0.6915 0.6615 -0.2903
vn -0.3158 0.9482 0.0356
vn -0.8724 0.4873 0.0389
vn -0.9680 0.2486 0.0343
vn 0.4328 0.4883 0.7578
vn -0.1324 0.9848 -0.1127
vn -0.3558 0.8287 -0.4321
vn -0.0136 0.6655 0.7462
vn -0.0578 0.4204 0.9055
vn -0.1438 0.3014 0.9426
vn -0.7348 0.6781 0.0188
vn -0.0820 0.9966 0.0021
vn 0.4902 0.8715 -0.0126
vn -0.3733 0.8370 -0.4001
vn 0.1274 0.9824 0.1365
vn 0.6189 0.5096 0.5978
vn -0.4552 0.8896 0.0367
vn 0.4644 0.8854 0.0166
vn 0.8402 0.5423 -0.0032
vn -0.2514 0.9640 -0.0869
vn 0.5950 0.7429 0.3066
vn 0.7087 0.6243 0.3285
vn 0.1196 0.9922 -0.0343
vn 0.4342 0.8757 -0.2112
vn 0.6757 0.6615 -0.3254
vn 0.3172 0.9482 0.0194
vn 0.8732 0.4873 -0.0058
vn 0.9685 0.2486 -0.0153
vn -0.3934 0.4883 0.7790
vn 0.1265 0.9848 -0.1194
vn 0.3332 0.8287 -0.4498
vn 0.0518 0.6655 0.7446
vn 0.1042 0.4204 0.9014
vn 0.1919 0.3014 0.9340
vt 0.593327 0.784556
vt 0.596467 0.784556
vt 0.594869 0.792108
vt 0.594442 0.792108
vt 0.593349 0.777779
vt 0.596588 0.777779
vt 0.594511 0.771144
vt 0.595245 0.771144
s 0
usemtl Material
f 5/1/1 6/2/1 4/3/1 3/4/1
f 7/5/2 8/6/2 6/2/2 5/1/2
f 1/7/3 2/8/3 8/6/3 7/5/3
f 13/1/4 14/2/4 12/3/4 11/4/4
f 15/5/5 16/6/5 14/2/5 13/1/5
f 9/7/6 10/8/6 16/6/6 15/5/6
f 21/1/7 22/2/7 20/3/7 19/4/7
f 23/5/8 24/6/8 22/2/8 21/1/8
f 17/7/9 18/8/9 24/6/9 23/5/9
f 29/1/10 30/2/10 28/3/10 27/4/10
f 31/5/11 32/6/11 30/2/11 29/1/11
f 25/7/12 26/8/12 32/6/12 31/5/12
f 37/1/13 38/2/13 36/3/13 35/4/13
f 39/5/14 40/6/14 38/2/14 37/1/14
f 33/7/15 34/8/15 40/6/15 39/5/15
f 45/1/16 46/2/16 44/3/16 43/4/16
f 47/5/17 48/6/17 46/2/17 45/1/17
f 41/7/18 42/8/18 48/6/18 47/5/18
f 53/1/19 54/2/19 52/3/19 51/4/19
f 55/5/20 56/6/20 54/2/20 53/1/20
f 49/7/21 50/8/21 56/6/21 55/5/21
f 61/1/22 62/2/22 60/3/22 59/4/22
f 63/5/23 64/6/23 62/2/23 61/1/23
f 57/7/24 58/8/24 64/6/24 63/5/24
f 69/1/25 67/4/25 68/3/25 70/2/25
f 71/5/26 69/1/26 70/2/26 72/6/26
f 65/7/27 71/5/27 72/6/27 66/8/27
f 77/1/28 75/4/28 76/3/28 78/2/28
f 79/5/29 77/1/29 78/2/29 80/6/29
f 73/7/30 79/5/30 80/6/30 74/8/30
f 85/1/31 83/4/31 84/3/31 86/2/31
f 87/5/32 85/1/32 86/2/32 88/6/32
f 81/7/33 87/5/33 88/6/33 82/8/33
f 93/1/34 91/4/34 92/3/34 94/2/34
f 95/5/35 93/1/35 94/2/35 96/6/35
f 89/7/36 95/5/36 96/6/36 90/8/36
f 101/1/37 99/4/37 100/3/37 102/2/37
f 103/5/38 101/1/38 102/2/38 104/6/38
f 97/7/39 103/5/39 104/6/39 98/8/39
f 109/1/40 107/4/40 108/3/40 110/2/40
f 111/5/41 109/1/41 110/2/41 112/6/41
f 105/7/42 111/5/42 112/6/42 106/8/42
f 117/1/43 115/4/43 116/3/43 118/2/43
f 119/5/44 117/1/44 118/2/44 120/6/44
f 113/7/45 119/5/45 120/6/45 114/8/45
f 125/1/46 123/4/46 124/3/46 126/2/46
f 127/5/47 125/1/47 126/2/47 128/6/47
f 121/7/48 127/5/48 128/6/48 122/8/48
o Plane.002
v 0.004346 -0.008641 -0.001051
v -0.000590 -0.008641 0.003081
v 0.335541 0.027656 0.444601
v 0.322869 0.027656 0.455208
v 0.315792 0.218679 0.328649
v 0.253637 0.218679 0.380680
v 0.211612 0.233278 0.184629
v 0.143917 0.233278 0.241296
v 0.004346 -0.008641 -0.001051
v -0.000590 -0.008641 0.003081
v 0.522387 0.095297 0.075410
v 0.522172 0.095297 0.091934
v 0.407141 0.292893 0.043733
v 0.406087 0.292893 0.124785
v 0.209894 0.255381 0.031205
v 0.208746 0.255381 0.119480
v 0.004346 -0.008641 -0.001051
v -0.000590 -0.008641 0.003081
v -0.510007 0.264499 0.227646
v -0.512561 0.264230 0.219079
v -0.377003 0.348874 0.198897
v -0.400153 0.346430 0.121237
v -0.200180 0.255866 0.142827
v -0.225394 0.253205 0.058245
v 0.004346 -0.008641 -0.001051
v -0.000590 -0.008641 0.003081
v 0.278713 0.339499 0.348607
v 0.266087 0.339001 0.359262
v 0.208105 0.382892 0.210012
v 0.146174 0.380448 0.262276
v 0.117980 0.243174 0.082447
v 0.050529 0.240513 0.139369
v 0.004346 -0.008641 -0.001051
v -0.000590 -0.008641 0.003081
v 0.496468 0.129318 0.143441
v 0.494465 0.126540 0.159709
v 0.422123 0.362601 0.108347
v 0.412297 0.348971 0.188143
v 0.243813 0.317935 0.068589
v 0.233111 0.303090 0.155496
v 0.004346 -0.008641 -0.001051
v -0.000590 -0.008641 0.003081
v -0.462967 0.021446 0.171141
v -0.470787 0.022703 0.156614
v -0.374399 0.118772 0.176966
v -0.412756 0.124939 0.105710
v -0.172152 0.122281 0.084640
v -0.247926 0.114277 0.023170
v 0.004346 -0.008641 -0.001051
v -0.000590 -0.008641 0.003081
v 0.175231 0.139700 0.494676
v 0.161343 0.128226 0.496845
v 0.156327 0.282319 0.427436
v 0.088205 0.226039 0.438074
v 0.132357 0.309736 0.252016
v 0.058165 0.248440 0.263602
v 0.004346 -0.008641 -0.001051
v -0.000590 -0.008641 0.003081
v 0.065248 0.469326 0.125922
v 0.052741 0.468420 0.136701
v 0.051296 0.357628 0.046430
v -0.010054 0.353184 0.099300
v 0.033325 0.151145 -0.005864
v -0.033493 0.146304 0.051718
v 0.001751 -0.008641 -0.004151
v -0.003185 -0.008641 -0.000019
v -0.378672 0.027656 -0.408594
v -0.391344 0.027656 -0.397987
v -0.268005 0.218679 -0.368751
v -0.330160 0.218679 -0.316721
v -0.144562 0.233278 -0.240855
v -0.212257 0.233278 -0.184188
v 0.001751 -0.008641 -0.004151
v -0.003185 -0.008641 -0.000019
v 0.017635 0.095297 -0.527564
v 0.001332 0.095297 -0.530260
v 0.028539 0.292893 -0.408542
v -0.051433 0.292893 -0.421766
v 0.006165 0.255381 -0.212168
v -0.080935 0.255381 -0.226571
v 0.001751 -0.008641 -0.004151
v -0.003185 -0.008641 -0.000019
v -0.313882 0.264499 0.461936
v -0.305898 0.264230 0.465958
v -0.262179 0.348874 0.336066
v -0.189804 0.346430 0.372520
v -0.175870 0.255866 0.171868
v -0.097045 0.253205 0.211571
v 0.001751 -0.008641 -0.004151
v -0.003185 -0.008641 -0.000019
v -0.294176 0.339499 -0.335762
v -0.306886 0.339001 -0.325208
v -0.170167 0.382892 -0.241869
v -0.232512 0.380448 -0.190101
v -0.060450 0.243174 -0.130704
v -0.128352 0.240513 -0.074321
v 0.001751 -0.008641 -0.004151
v -0.003185 -0.008641 -0.000019
v -0.053895 0.129318 -0.514020
v -0.070262 0.126540 -0.514910
v -0.032430 0.362601 -0.434660
v -0.112710 0.348971 -0.439027
v -0.024667 0.317935 -0.252135
v -0.112101 0.303090 -0.256892
v 0.001751 -0.008641 -0.004151
v -0.003185 -0.008641 -0.000019
v -0.249982 0.021446 0.425573
v -0.237057 0.022703 0.435826
v -0.240131 0.118772 0.337361
v -0.176736 0.124939 0.387657
v -0.113660 0.122281 0.154515
v -0.066482 0.114277 0.239923
v 0.001751 -0.008641 -0.004151
v -0.003185 -0.008641 -0.000019
v -0.456174 0.139700 -0.259596
v -0.460752 0.128226 -0.246307
v -0.393309 0.282319 -0.229156
v -0.415767 0.226039 -0.163969
v -0.224844 0.309736 -0.174694
v -0.249304 0.248440 -0.103698
v 0.001751 -0.008641 -0.004151
v -0.003185 -0.008641 -0.000019
v -0.112525 0.469326 -0.086445
v -0.125337 0.468420 -0.076029
v -0.036728 0.357628 -0.058724
v -0.099568 0.353184 -0.007634
v 0.011588 0.151145 -0.031831
v -0.056853 0.146304 0.023812
vn 0.5667 0.4695 0.6770
vn 0.0527 0.9966 0.0629
vn -0.4236 0.7513 -0.5060
vn 0.8630 0.5051 0.0112
vn -0.1867 0.9824 -0.0024
vn -0.7782 0.6259 -0.0512
vn -0.5119 0.8498 0.1259
vn 0.4214 0.8938 -0.1537
vn 0.6892 0.6682 -0.2804
vn 0.1513 0.9627 0.2243
vn -0.4486 0.7429 -0.4968
vn -0.5759 0.4798 -0.6619
vn 0.9313 0.3223 0.1697
vn -0.2681 0.9546 0.1300
vn -0.7963 0.6036 -0.0384
vn -0.6837 0.5970 0.4197
vn 0.0091 0.9997 -0.0217
vn 0.3199 0.7663 -0.5572
vn -0.1888 0.3982 0.8977
vn -0.6046 0.7702 0.2030
vn -0.5909 0.6354 -0.4970
vn -0.5791 0.5195 -0.6283
vn -0.6436 0.2401 -0.7267
vn -0.6528 0.0965 -0.7514
vn -0.5667 0.4695 -0.6770
vn -0.0527 0.9966 -0.0629
vn 0.4236 0.7513 0.5060
vn 0.1408 0.5051 -0.8515
vn -0.0305 0.9824 0.1842
vn -0.0865 0.6259 0.7751
vn -0.2140 0.8498 0.4817
vn 0.2255 0.8938 -0.3877
vn 0.3973 0.6682 -0.6291
vn -0.1942 0.9627 -0.1884
vn 0.4101 0.7429 0.5290
vn 0.5502 0.4798 0.6834
vn -0.0032 0.3223 -0.9466
vn -0.1752 0.9546 0.2410
vn -0.1024 0.6036 0.7907
vn -0.5334 0.5970 0.5992
vn 0.0230 0.9997 -0.0052
vn 0.6048 0.7663 -0.2168
vn -0.9169 0.3982 0.0279
vn -0.3062 0.7702 0.5595
vn 0.3853 0.6354 0.6692
vn 0.5166 0.5195 0.6806
vn 0.6021 0.2401 0.7615
vn 0.6248 0.0965 0.7748
vt 0.593327 0.784556
vt 0.596467 0.784556
vt 0.594869 0.792108
vt 0.594442 0.792108
vt 0.593349 0.777779
vt 0.596588 0.777779
vt 0.594511 0.771144
vt 0.595245 0.771144
s 0
usemtl Material
f 133/9/49 134/10/49 132/11/49 131/12/49
f 135/13/50 136/14/50 134/10/50 133/9/50
f 129/15/51 130/16/51 136/14/51 135/13/51
f 141/9/52 142/10/52 140/11/52 139/12/52
f 143/13/53 144/14/53 142/10/53 141/9/53
f 137/15/54 138/16/54 144/14/54 143/13/54
f 149/9/55 150/10/55 148/11/55 147/12/55
f 151/13/56 152/14/56 150/10/56 149/9/56
f 145/15/57 146/16/57 152/14/57 151/13/57
f 157/9/58 158/10/58 156/11/58 155/12/58
f 159/13/59 160/14/59 158/10/59 157/9/59
f 153/15/60 154/16/60 160/14/60 159/13/60
f 165/9/61 166/10/61 164/11/61 163/12/61
f 167/13/62 168/14/62 166/10/62 165/9/62
f 161/15/63 162/16/63 168/14/63 167/13/63
f 173/9/64 174/10/64 172/11/64 171/12/64
f 175/13/65 176/14/65 174/10/65 173/9/65
f 169/15/66 170/16/66 176/14/66 175/13/66
f 181/9/67 182/10/67 180/11/67 179/12/67
f 183/13/68 184/14/68 182/10/68 181/9/68
f 177/15/69 178/16/69 184/14/69 183/13/69
f 189/9/70 190/10/70 188/11/70 187/12/70
f 191/13/71 192/14/71 190/10/71 189/9/71
f 185/15/72 186/16/72 192/14/72 191/13/72
f 197/9/73 195/12/73 196/11/73 198/10/73
f 199/13/74 197/9/74 198/10/74 200/14/74
f 193/15/75 199/13/75 200/14/75 194/16/75
f 205/9/76 203/12/76 204/11/76 206/10/76
f 207/13/77 205/9/77 206/10/77 208/14/77
f 201/15/78 207/13/78 208/14/78 202/16/78
f 213/9/79 211/12/79 212/11/79 214/10/79
f 215/13/80 213/9/80 214/10/80 216/14/80
f 209/15/81 215/13/81 216/14/81 210/16/81
f 221/9/82 219/12/82 220/11/82 222/10/82
f 223/13/83 221/9/83 222/10/83 224/14/83
f 217/15/84 223/13/84 224/14/84 218/16/84
f 229/9/85 227/12/85 228/11/85 230/10/85
f 231/13/86 229/9/86 230/10/86 232/14/86
f 225/15/87 231/13/87 232/14/87 226/16/87
f 237/9/88 235/12/88 236/11/88 238/10/88
f 239/13/89 237/9/89 238/10/89 240/14/89
f 233/15/90 239/13/90 240/14/90 234/16/90
f 245/9/91 243/12/91 244/11/91 246/10/91
f 247/13/92 245/9/92 246/10/92 248/14/92
f 241/15/93 247/13/93 248/14/93 242/16/93
f 253/9/94 251/12/94 252/11/94 254/10/94
f 255/13/95 253/9/95 254/10/95 256/14/95
f 249/15/96 255/13/96 256/14/96 250/16/96
o Plane.003
v -0.002254 -0.007501 -0.002955
v 0.003072 -0.007501 -0.001126
v 0.128128 -0.071354 -0.415610
v 0.141892 -0.069409 -0.411640
v 0.055074 0.015923 -0.416625
v 0.122588 0.025465 -0.397153
v -0.002973 0.082088 -0.287801
v 0.070557 0.092480 -0.266593
v -0.002254 -0.007501 -0.002955
v 0.003072 -0.007501 -0.001126
v -0.213644 0.052919 -0.496562
v -0.201214 0.050313 -0.503468
v -0.190088 0.201830 -0.416656
v -0.129115 0.189048 -0.450529
v -0.108836 0.231736 -0.263439
v -0.042430 0.217815 -0.300330
v -0.002254 -0.007501 -0.002955
v 0.003072 -0.007501 -0.001126
v 0.145736 0.123497 -0.538789
v 0.159522 0.125018 -0.534704
v 0.048639 0.235264 -0.476102
v 0.116263 0.242728 -0.456063
v -0.007760 0.214849 -0.310352
v 0.065891 0.222978 -0.288528
v -0.002254 -0.007501 -0.002955
v 0.003072 -0.007501 -0.001126
v -0.017495 0.170454 -0.588120
v -0.003216 0.169440 -0.590157
v -0.048486 0.256561 -0.497412
v 0.021554 0.251588 -0.507405
v -0.036262 0.196235 -0.324726
v 0.040021 0.190819 -0.335609
v -0.002254 -0.007501 -0.002955
v 0.003072 -0.007501 -0.001126
v 0.324766 0.226450 -0.407566
v 0.334966 0.230198 -0.398029
v 0.201325 0.233546 -0.366975
v 0.251359 0.251930 -0.320193
v 0.114213 0.202210 -0.277307
v 0.168707 0.222233 -0.226356
v -0.002254 -0.007501 -0.002955
v 0.003072 -0.007501 -0.001126
v 0.093426 0.331922 -0.440777
v 0.107209 0.333478 -0.436696
v 0.005108 0.331943 -0.344667
v 0.072719 0.340612 -0.325080
v -0.033973 0.207148 -0.200620
v 0.039664 0.215457 -0.178822
v -0.002254 -0.007501 -0.002955
v 0.003072 -0.007501 -0.001126
v 0.436414 0.100903 -0.121197
v 0.439493 0.105647 -0.107883
v 0.349982 0.209705 -0.192747
v 0.365085 0.232975 -0.127439
v 0.213617 0.188847 -0.180904
v 0.230066 0.214191 -0.109775
v -0.002254 -0.007501 -0.002955
v 0.003072 -0.007501 -0.001126
v -0.304885 0.295036 -0.397106
v -0.298055 0.293576 -0.402119
v -0.243402 0.335498 -0.307307
v -0.186933 0.323432 -0.348754
v -0.057117 0.198007 -0.160454
v -0.023566 0.164447 -0.221618
v -0.003402 -0.007501 0.000390
v 0.001923 -0.007501 0.002219
v -0.154073 -0.071354 0.406077
v -0.140775 -0.069409 0.411402
v -0.212336 0.015923 0.361993
v -0.147104 0.025465 0.388110
v -0.178983 0.082088 0.224687
v -0.107938 0.092480 0.253132
v -0.003402 -0.007501 0.000390
v 0.001923 -0.007501 0.002219
v -0.473465 0.052919 0.259958
v -0.467900 0.050313 0.273044
v -0.405784 0.201830 0.211387
v -0.378489 0.189048 0.275574
v -0.247539 0.231736 0.140422
v -0.217811 0.217815 0.210330
v -0.003402 -0.007501 0.000390
v 0.001923 -0.007501 0.002219
v -0.215864 0.123497 0.514082
v -0.202476 0.125018 0.519329
v -0.253956 0.235264 0.404965
v -0.188289 0.242728 0.430704
v -0.196615 0.214849 0.239539
v -0.125096 0.222978 0.267572
v -0.003402 -0.007501 0.000390
v 0.001923 -0.007501 0.002219
v -0.374960 0.170454 0.452712
v -0.364946 0.169440 0.463092
v -0.343679 0.256561 0.362103
v -0.294558 0.251588 0.413022
v -0.227934 0.196235 0.233367
v -0.174435 0.190819 0.288824
v -0.003402 -0.007501 0.000390
v 0.001923 -0.007501 0.002219
v 0.006013 0.226450 0.520547
v 0.019921 0.230198 0.519289
v -0.066440 0.233546 0.412677
v 0.001780 0.251930 0.406509
v -0.080077 0.202210 0.288408
v -0.005777 0.222233 0.281690
v -0.003402 -0.007501 0.000390
v 0.001923 -0.007501 0.002219
v -0.196916 0.331922 0.404611
v -0.183534 0.333478 0.409861
v -0.207546 0.331943 0.274519
v -0.142168 0.340612 0.300606
v -0.149876 0.207148 0.136857
v -0.078385 0.215457 0.164901
v -0.003402 -0.007501 0.000390
v 0.001923 -0.007501 0.002219
v 0.270051 0.100903 0.363204
v 0.280661 0.105647 0.354591
v 0.157896 0.209705 0.366551
v 0.209939 0.232975 0.324303
v 0.057582 0.188847 0.273423
v 0.114263 0.214191 0.227410
v -0.003402 -0.007501 0.000390
v 0.001923 -0.007501 0.002219
v -0.484345 0.295036 0.125428
v -0.482036 0.293576 0.133581
v -0.380662 0.335498 0.092354
v -0.361574 0.323432 0.159751
v -0.143458 0.198007 0.090945
v -0.154567 0.164447 0.159817
vn 0.2462 0.1951 -0.9494
vn 0.0054 0.8905 -0.4549
vn -0.2092 0.9321 0.2957
vn -0.3445 0.4856 -0.8034
vn 0.0758 0.9703 -0.2296
vn 0.4001 0.7557 0.5185
vn 0.1689 0.5897 -0.7898
vn -0.1319 0.9883 0.0769
vn -0.2514 0.7816 0.5708
vn -0.0485 0.7161 -0.6963
vn 0.1125 0.9405 0.3206
vn 0.1138 0.8469 0.5194
vn -0.0502 0.9467 -0.3183
vn -0.3418 0.9397 -0.0037
vn -0.5585 0.7533 0.3472
vn -0.0978 0.9910 -0.0919
vn -0.2647 0.7623 0.5906
vn -0.2832 0.6262 0.7264
vn 0.8321 0.4330 -0.3467
vn -0.1695 0.9401 -0.2958
vn -0.6992 0.7138 -0.0393
vn -0.0722 0.9269 -0.3682
vn 0.5724 0.8074 0.1432
vn 0.8375 0.4663 0.2850
vn -0.3890 0.1951 0.9003
vn -0.2753 0.8905 0.3622
vn 0.0166 0.9321 -0.3618
vn -0.7655 0.4856 0.4222
vn -0.0812 0.9703 0.2278
vn 0.6343 0.7557 -0.1633
vn -0.3519 0.5897 0.7269
vn -0.0568 0.9883 -0.1417
vn 0.1524 0.7816 -0.6049
vn -0.4661 0.7161 0.5196
vn 0.2857 0.9405 -0.1838
vn 0.4089 0.8469 -0.3398
vn -0.2352 0.9467 0.2203
vn -0.2720 0.9397 -0.2071
vn -0.2273 0.7533 -0.6171
vn -0.1336 0.9910 0.0125
vn 0.1540 0.7623 -0.6286
vn 0.2228 0.6262 -0.7471
vn 0.4435 0.4330 0.7848
vn -0.3154 0.9401 0.1292
vn -0.5758 0.7138 -0.3986
vn -0.2832 0.9269 0.2462
vn 0.5396 0.8074 0.2387
vn 0.8359 0.4663 0.2897
vt 0.593327 0.784556
vt 0.596467 0.784556
vt 0.594869 0.792108
vt 0.594442 0.792108
vt 0.593349 0.777779
vt 0.596588 0.777779
vt 0.594511 0.771144
vt 0.595245 0.771144
s 0
usemtl Material
f 261/17/97 262/18/97 260/19/97 259/20/97
f 263/21/98 264/22/98 262/18/98 261/17/98
f 257/23/99 258/24/99 264/22/99 263/21/99
f 269/17/100 270/18/100 268/19/100 267/20/100
f 271/21/101 272/22/101 270/18/101 269/17/101
f 265/23/102 266/24/102 272/22/102 271/21/102
f 277/17/103 278/18/103 276/19/103 275/20/103
f 279/21/104 280/22/104 278/18/104 277/17/104
f 273/23/105 274/24/105 280/22/105 279/21/105
f 285/17/106 286/18/106 284/19/106 283/20/106
f 287/21/107 288/22/107 286/18/107 285/17/107
f 281/23/108 282/24/108 288/22/108 287/21/108
f 293/17/109 294/18/109 292/19/109 291/20/109
f 295/21/110 296/22/110 294/18/110 293/17/110
f 289/23/111 290/24/111 296/22/111 295/21/111
f 301/17/112 302/18/112 300/19/112 299/20/112
f 303/21/113 304/22/113 302/18/113 301/17/113
f 297/23/114 298/24/114 304/22/114 303/21/114
f 309/17/115 310/18/115 308/19/115 307/20/115
f 311/21/116 312/22/116 310/18/116 309/17/116
f 305/23/117 306/24/117 312/22/117 311/21/117
f 317/17/118 318/18/118 316/19/118 315/20/118
f 319/21/119 320/22/119 318/18/119 317/17/119
f 313/23/120 314/24/120 320/22/120 319/21/120
f 325/17/121 323/20/121 324/19/121 326/18/121
f 327/21/122 325/17/122 326/18/122 328/22/122
f 321/23/123 327/21/123 328/22/123 322/24/123
f 333/17/124 331/20/124 332/19/124 334/18/124
f 335/21/125 333/17/125 334/18/125 336/22/125
f 329/23/126 335/21/126 336/22/126 330/24/126
f 341/17/127 339/20/127 340/19/127 342/18/127
f 343/21/128 341/17/128 342/18/128 344/22/128
f 337/23/129 343/21/129 344/22/129 338/24/129
f 349/17/130 347/20/130 348/19/130 350/18/130
f 351/21/131 349/17/131 350/18/131 352/22/131
f 345/23/132 351/21/132 352/22/132 346/24/132
f 357/17/133 355/20/133 356/19/133 358/18/133
f 359/21/134 357/17/134 358/18/134 360/22/134
f 353/23/135 359/21/135 360/22/135 354/24/135
f 365/17/136 363/20/136 364/19/136 366/18/136
f 367/21/137 365/17/137 366/18/137 368/22/137
f 361/23/138 367/21/138 368/22/138 362/24/138
f 373/17/139 371/20/139 372/19/139 374/18/139
f 375/21/140 373/17/140 374/18/140 376/22/140
f 369/23/141 375/21/141 376/22/141 370/24/141
f 381/17/142 379/20/142 380/19/142 382/18/142
f 383/21/143 381/17/143 382/18/143 384/22/143
f 377/23/144 383/21/144 384/22/144 378/24/144
