# Blender 3.6.5
# www.blender.org
mtllib Poly_Barrel_01.mtl
o Torus
v 0.354422 0.299493 0.000014
v 0.238763 0.626564 0.000014
v 0.195072 0.636536 0.000014
v 0.188565 0.612589 0.000014
v 0.178027 0.031712 0.000014
v 0.222241 -0.000632 0.000014
v 0.225419 0.018518 0.000014
v 0.250611 0.299493 -0.250608
v 0.168828 0.626564 -0.168824
v 0.137934 0.636536 -0.137930
v 0.133333 0.612589 -0.133329
v 0.125881 0.031712 -0.125877
v 0.157145 -0.000632 -0.157141
v 0.159393 0.018518 -0.159389
v -0.000010 0.299493 -0.354418
v -0.000010 0.626564 -0.238759
v -0.000010 0.636536 -0.195068
v -0.000010 0.612589 -0.188561
v -0.000010 0.031712 -0.178023
v -0.000010 -0.000632 -0.222237
v -0.000010 0.018518 -0.225415
v -0.250632 0.299493 -0.250608
v -0.168848 0.626564 -0.168824
v -0.137954 0.636536 -0.137930
v -0.133353 0.612589 -0.133329
v -0.125902 0.031712 -0.125877
v -0.157165 -0.000632 -0.157141
v -0.159413 0.018518 -0.159389
v -0.354443 0.299493 0.000014
v -0.238783 0.626564 0.000014
v -0.195092 0.636536 0.000014
v -0.188586 0.612589 0.000014
v -0.178047 0.031712 0.000014
v -0.222261 -0.000632 0.000014
v -0.225440 0.018518 0.000014
v -0.250632 0.299493 0.250636
v -0.168848 0.626564 0.168852
v -0.137954 0.636536 0.137958
v -0.133353 0.612589 0.133357
v -0.125902 0.031712 0.125905
v -0.157165 -0.000632 0.157169
v -0.159413 0.018518 0.159417
v -0.000010 0.299493 0.354446
v -0.000010 0.626564 0.238787
v -0.000010 0.636536 0.195096
v -0.000010 0.612589 0.188589
v -0.000010 0.031712 0.178051
v -0.000010 -0.000632 0.222265
v -0.000010 0.018518 0.225444
v 0.250611 0.299493 0.250636
v 0.168828 0.626564 0.168852
v 0.137934 0.636536 0.137958
v 0.133333 0.612589 0.133357
v 0.125881 0.031712 0.125905
v 0.157145 -0.000632 0.157169
v 0.159392 0.018518 0.159417
v 0.337300 0.437538 0.000014
v 0.238504 0.437538 -0.238500
v -0.000010 0.437538 -0.337296
v -0.238524 0.437538 -0.238500
v -0.337320 0.437538 0.000014
v -0.238524 0.437538 0.238528
v -0.000010 0.437538 0.337324
v 0.238504 0.437538 0.238528
v 0.318964 0.148402 0.000014
v -0.318984 0.148402 0.000014
v -0.225559 0.148402 -0.225535
v -0.000010 0.148402 0.318988
v 0.225539 0.148402 -0.225535
v -0.225559 0.148402 0.225563
v -0.000010 0.148402 -0.318960
v 0.225538 0.148402 0.225563
v 0.303143 0.544365 0.000014
v 0.214352 0.544365 -0.214348
v -0.000010 0.544365 -0.303139
v -0.214372 0.544365 -0.214348
v -0.303164 0.544365 0.000014
v -0.214372 0.544365 0.214376
v -0.000010 0.544365 0.303167
v 0.214352 0.544365 0.214376
v -0.000010 0.515788 -0.245471
vn 0.7485 0.5862 -0.3100
vn 0.2216 0.9708 -0.0918
vn -0.8961 0.2435 0.3712
vn -0.5735 -0.7840 0.2376
vn 0.9132 -0.1516 -0.3783
vn 0.9029 -0.2119 -0.3740
vn 0.3100 0.5862 -0.7485
vn 0.0918 0.9708 -0.2216
vn -0.3712 0.2435 0.8961
vn -0.2376 -0.7840 0.5735
vn 0.3783 -0.1516 -0.9132
vn 0.3740 -0.2119 -0.9029
vn -0.3100 0.5862 -0.7485
vn -0.0918 0.9708 -0.2216
vn 0.3712 0.2435 0.8961
vn 0.2376 -0.7840 0.5735
vn -0.3783 -0.1516 -0.9132
vn -0.3740 -0.2119 -0.9029
vn -0.7485 0.5862 -0.3100
vn -0.2216 0.9708 -0.0918
vn 0.8961 0.2435 0.3712
vn 0.5735 -0.7840 0.2376
vn -0.9132 -0.1516 -0.3783
vn -0.9029 -0.2119 -0.3740
vn -0.7485 0.5862 0.3100
vn -0.2216 0.9708 0.0918
vn 0.8961 0.2435 -0.3712
vn 0.5735 -0.7840 -0.2376
vn -0.9132 -0.1516 0.3783
vn -0.9029 -0.2119 0.3740
vn -0.3100 0.5862 0.7485
vn -0.0918 0.9708 0.2216
vn 0.3712 0.2435 -0.8961
vn 0.2376 -0.7840 -0.5735
vn -0.3783 -0.1516 0.9132
vn 0.3100 0.5862 0.7485
vn 0.0918 0.9708 0.2216
vn -0.3712 0.2435 -0.8961
vn -0.2376 -0.7840 -0.5735
vn 0.3783 -0.1516 0.9132
vn 0.7485 0.5862 0.3100
vn 0.2216 0.9708 0.0918
vn -0.8961 0.2435 -0.3712
vn -0.5735 -0.7840 -0.2376
vn 0.9132 -0.1516 0.3783
vn 0.9029 -0.2119 0.3740
vn 0.9179 0.1138 0.3802
vn 0.3802 0.1138 0.9179
vn -0.3802 0.1138 0.9179
vn -0.9179 0.1138 0.3802
vn -0.9179 0.1138 -0.3802
vn -0.3802 0.1138 -0.9179
vn 0.3802 0.1138 -0.9179
vn 0.9179 0.1138 -0.3802
vn 0.7692 -0.5540 0.3186
vn 0.3186 -0.5540 0.7692
vn -0.3186 -0.5540 0.7692
vn -0.7692 -0.5540 0.3186
vn -0.7692 -0.5540 -0.3186
vn -0.3186 -0.5540 -0.7692
vn 0.3186 -0.5540 -0.7692
vn 0.7692 -0.5540 -0.3186
vn 0.8860 0.2833 0.3670
vn 0.3670 0.2833 0.8860
vn -0.3670 0.2833 0.8860
vn -0.8860 0.2833 0.3670
vn -0.8860 0.2833 -0.3670
vn -0.3670 0.2833 -0.8860
vn 0.3670 0.2833 -0.8860
vn 0.8860 0.2833 -0.3670
vn -0.0000 -1.0000 -0.0000
vn -0.0000 1.0000 -0.0000
vn -0.3740 -0.2119 0.9029
vn 0.3740 -0.2119 0.9029
vt 0.849319 0.904204
vt 0.837883 0.904204
vt 0.837883 0.909754
vt 0.849319 0.909754
vt 0.840101 0.912282
vt 0.847260 0.912282
vt 0.847260 0.909754
vt 0.840101 0.909754
vt 0.839172 0.929452
vt 0.847988 0.929452
vt 0.847988 0.932045
vt 0.839172 0.932045
vt 0.837894 0.879196
vt 0.849267 0.879196
vt 0.849267 0.883187
vt 0.837894 0.883187
vt 0.849319 0.883187
vt 0.837883 0.883187
vt 0.837883 0.891942
vt 0.849319 0.891942
vt 0.849319 0.901141
vt 0.837883 0.901141
vt 0.837883 0.879196
vt 0.849319 0.879196
vt 0.832217 0.925543
vt 0.838869 0.931308
vt 0.848277 0.931309
vt 0.854929 0.925543
vt 0.854929 0.917389
vt 0.848277 0.911624
vt 0.838869 0.911624
vt 0.832217 0.917389
vt 0.844027 0.930472
vt 0.834137 0.927950
vt 0.830040 0.921860
vt 0.834137 0.915770
vt 0.844027 0.913247
vt 0.853916 0.915770
vt 0.858013 0.921860
vt 0.853916 0.927950
s 0
usemtl Material
f 73/1/1 74/2/1 9/3/1 2/4/1
f 2/5/2 9/6/2 10/7/2 3/8/2
f 3/9/3 10/10/3 11/11/3 4/12/3
f 5/13/4 12/14/4 13/15/4 6/16/4
f 6/16/5 13/15/5 14/15/5 7/16/5
f 65/17/6 69/18/6 8/19/6 1/20/6
f 74/2/7 75/1/7 16/4/7 9/3/7
f 9/6/8 16/5/8 17/8/8 10/7/8
f 10/10/9 17/9/9 18/12/9 11/11/9
f 12/14/10 19/13/10 20/16/10 13/15/10
f 13/15/11 20/16/11 21/16/11 14/15/11
f 69/18/12 71/17/12 15/20/12 8/19/12
f 75/1/13 76/2/13 23/3/13 16/4/13
f 16/5/14 23/6/14 24/7/14 17/8/14
f 17/9/15 24/10/15 25/11/15 18/12/15
f 19/13/16 26/14/16 27/15/16 20/16/16
f 20/16/17 27/15/17 28/15/17 21/16/17
f 71/17/18 67/18/18 22/19/18 15/20/18
f 76/2/19 77/1/19 30/4/19 23/3/19
f 23/6/20 30/5/20 31/8/20 24/7/20
f 24/10/21 31/9/21 32/12/21 25/11/21
f 26/14/22 33/13/22 34/16/22 27/15/22
f 27/15/23 34/16/23 35/16/23 28/15/23
f 67/18/24 66/17/24 29/20/24 22/19/24
f 77/1/25 78/2/25 37/3/25 30/4/25
f 30/5/26 37/6/26 38/7/26 31/8/26
f 31/9/27 38/10/27 39/11/27 32/12/27
f 33/13/28 40/14/28 41/15/28 34/16/28
f 34/16/29 41/15/29 42/15/29 35/16/29
f 66/17/30 70/18/30 36/19/30 29/20/30
f 78/2/31 79/1/31 44/4/31 37/3/31
f 37/6/32 44/5/32 45/8/32 38/7/32
f 38/10/33 45/9/33 46/12/33 39/11/33
f 40/14/34 47/13/34 48/16/34 41/15/34
f 41/15/35 48/16/35 49/16/35 42/15/35
f 79/1/36 80/2/36 51/3/36 44/4/36
f 44/5/37 51/6/37 52/7/37 45/8/37
f 45/9/38 52/10/38 53/11/38 46/12/38
f 47/13/39 54/14/39 55/15/39 48/16/39
f 48/16/40 55/15/40 56/15/40 49/16/40
f 80/2/41 73/1/41 2/4/41 51/3/41
f 51/6/42 2/5/42 3/8/42 52/7/42
f 52/10/43 3/9/43 4/12/43 53/11/43
f 54/14/44 5/13/44 6/16/44 55/15/44
f 55/15/45 6/16/45 7/16/45 56/15/45
f 72/18/46 65/17/46 1/20/46 50/19/46
f 50/19/47 1/20/47 57/21/47 64/22/47
f 43/20/48 50/19/48 64/22/48 63/21/48
f 36/19/49 43/20/49 63/21/49 62/22/49
f 29/20/50 36/19/50 62/22/50 61/21/50
f 22/19/51 29/20/51 61/21/51 60/22/51
f 15/20/52 22/19/52 60/22/52 59/21/52
f 8/19/53 15/20/53 59/21/53 58/22/53
f 1/20/54 8/19/54 58/22/54 57/21/54
f 56/23/55 7/24/55 65/17/55 72/18/55
f 49/24/56 56/23/56 72/18/56 68/17/56
f 42/23/57 49/24/57 68/17/57 70/18/57
f 35/24/58 42/23/58 70/18/58 66/17/58
f 28/23/59 35/24/59 66/17/59 67/18/59
f 21/24/60 28/23/60 67/18/60 71/17/60
f 14/23/61 21/24/61 71/17/61 69/18/61
f 7/24/62 14/23/62 69/18/62 65/17/62
f 64/22/63 57/21/63 73/1/63 80/2/63
f 63/21/64 64/22/64 80/2/64 79/1/64
f 62/22/65 63/21/65 79/1/65 78/2/65
f 61/21/66 62/22/66 78/2/66 77/1/66
f 60/22/67 61/21/67 77/1/67 76/2/67
f 59/21/68 60/22/68 76/2/68 75/1/68
f 58/22/69 59/21/69 75/1/69 74/2/69
f 57/21/70 58/22/70 74/2/70 73/1/70
f 5/25/71 54/26/71 47/27/71 40/28/71 33/29/71 26/30/71 19/31/71 12/32/71
f 18/33/72 25/34/72 32/35/72 39/36/72 46/37/72 53/38/72 4/39/72 11/40/72
f 36/19/73 70/18/73 68/17/73 43/20/73
f 43/20/74 68/17/74 72/18/74 50/19/74
l 18 81
