# Blender 3.6.5
# www.blender.org
mtllib Poly_Mooring_Pole_01.mtl
o Icosphere
v 0.060000 0.000000 0.190000
v 0.171608 0.179659 0.124700
v -0.065561 0.179659 0.201763
v -0.212141 0.179660 0.000014
v -0.065561 0.179659 -0.201735
v 0.171608 0.179659 -0.124672
v 0.075499 0.417638 0.232411
v -0.197699 0.417638 0.143642
v -0.197699 0.417638 -0.143614
v 0.075499 0.417638 -0.232383
v 0.244347 0.417637 0.000014
v -0.000010 0.541710 0.000014
v -0.060000 0.000000 -0.200000
v 0.170000 0.000000 -0.120000
v 0.062335 0.161037 0.191887
v 0.201738 0.161038 0.000014
v -0.210000 0.000000 0.000000
v -0.060000 0.000000 0.200000
v -0.163228 0.161037 0.118598
v 0.170000 0.000000 0.120000
v -0.163228 0.161037 -0.118570
v 0.062335 0.161037 -0.191859
v 0.259818 0.295458 0.084436
v 0.259818 0.295458 -0.084408
v -0.000010 0.295458 0.273213
v 0.160573 0.295458 0.221037
v -0.259838 0.295458 0.084436
v -0.160593 0.295458 0.221037
v -0.160593 0.295458 -0.221009
v -0.259838 0.295458 -0.084408
v 0.160573 0.295458 -0.221009
v -0.000010 0.295458 -0.273185
v 0.188003 0.439089 0.136613
v -0.071826 0.439089 0.221035
v -0.232406 0.439089 0.000014
v -0.071826 0.439089 -0.221007
v 0.188003 0.439089 -0.136585
v 0.044373 0.527856 0.136612
v 0.143619 0.527855 0.000014
v -0.116208 0.527856 0.084436
v -0.116208 0.527856 -0.084408
v 0.044373 0.527856 -0.136584
v 0.200000 0.000000 0.000000
v -0.160000 0.000000 0.120000
v -0.160000 0.000000 -0.120000
v 0.060000 0.000000 -0.190000
vn 0.8087 -0.5210 0.2732
vn 0.8819 -0.4561 -0.1195
vn -0.7837 -0.4561 -0.4217
vn -0.4936 -0.5210 -0.6964
vn 0.5097 -0.5210 -0.6846
vn 0.7480 -0.3809 0.5435
vn -0.2857 -0.3809 0.8794
vn -0.9246 -0.3809 -0.0000
vn -0.2857 -0.3809 -0.8794
vn 0.7480 -0.3809 -0.5435
vn -0.0853 0.7430 0.6639
vn -0.4713 0.6617 0.5831
vn 0.4592 0.7430 -0.4870
vn 0.7240 0.6617 -0.1947
vn 0.0958 0.9930 -0.0696
vn 0.4592 0.7430 0.4870
vn -0.0366 0.9930 -0.1126
vn -0.4713 0.6617 -0.5831
vn -0.1184 0.9930 -0.0000
vn -0.7002 0.6617 0.2680
vn -0.0366 0.9930 0.1126
vn -0.0853 0.7430 -0.6639
vn 0.0958 0.9930 0.0696
vn 0.7240 0.6617 0.1947
vn 0.8485 0.2560 0.4631
vn 0.5746 0.3304 -0.7488
vn -0.1783 0.2560 0.9501
vn -0.5346 0.3304 -0.7779
vn 0.8485 0.2560 -0.4631
vn -0.9050 0.3304 0.2680
vn -0.5346 0.3304 0.7779
vn -0.9587 0.2560 -0.1241
vn 0.5746 0.3304 0.7488
vn -0.6577 0.7430 -0.1241
vn 0.3066 0.1256 -0.9435
vn 0.1589 -0.4561 0.8756
vn -0.8026 0.1256 -0.5831
vn -0.1783 0.2560 -0.9501
vn -0.8026 0.1256 0.5831
vn -0.4936 -0.5210 0.6964
vn 0.3066 0.1256 0.9435
vn 0.5097 -0.5210 0.6846
vn 0.9921 0.1256 -0.0000
vn -0.7837 -0.4561 0.4217
vn -0.6355 -0.0172 0.7719
vn 0.0792 -0.0099 0.9968
vn -0.0000 -1.0000 -0.0000
vn -0.9240 -0.0129 -0.3821
vn -0.6355 -0.0171 -0.7719
vn 0.5316 -0.0225 0.8467
vn 0.0792 -0.0098 -0.9968
vn 0.9708 -0.0128 -0.2395
vn -0.9240 -0.0130 0.3821
vn 0.5316 -0.0224 -0.8467
vn 0.9708 -0.0128 0.2395
vn 0.1589 -0.4561 -0.8756
vt 0.604824 0.966972
vt 0.606733 0.974270
vt 0.610412 0.969329
vt 0.604824 0.981568
vt 0.610412 0.979212
vt 0.583613 0.981211
vt 0.580515 0.974270
vt 0.577493 0.979212
vt 0.583780 0.987207
vt 0.589800 0.986079
vt 0.597902 0.985501
vt 0.604125 0.987207
vt 0.604125 0.961334
vt 0.589800 0.962462
vt 0.593952 0.958280
vt 0.583780 0.961334
vt 0.577493 0.969329
vt 0.593952 0.990261
vt 0.589403 0.961334
vt 0.598736 0.960668
vt 0.596764 0.966275
vt 0.586592 0.969329
vt 0.581429 0.965864
vt 0.605862 0.982265
vt 0.598736 0.987873
vt 0.596764 0.982265
vt 0.603051 0.974270
vt 0.609432 0.974270
vt 0.593952 0.974270
vt 0.605862 0.966275
vt 0.586592 0.979211
vt 0.589403 0.987207
vt 0.581429 0.982677
vt 0.579231 0.974270
vt 0.597902 0.963040
vt 0.583613 0.967329
vt 0.589306 0.957229
vt 0.582158 0.957229
vt 0.582314 0.949549
vt 0.589713 0.944762
vt 0.598666 0.957229
vt 0.598495 0.944762
vt 0.579841 0.957865
vt 0.575806 0.957865
vt 0.612120 0.957865
vt 0.608085 0.957865
vt 0.604050 0.957865
vt 0.600015 0.957865
vt 0.595980 0.957865
vt 0.591946 0.957865
vt 0.587911 0.957865
vt 0.583876 0.957865
vt 0.578578 0.957229
vt 0.578655 0.949549
vt 0.606663 0.957229
vt 0.606465 0.949549
vt 0.608868 0.957229
vt 0.608661 0.949549
s 0
usemtl Material
f 2/1/1 16/2/1 23/3/1
f 16/2/2 6/4/2 24/5/2 23/3/2
f 21/6/3 4/7/3 30/8/3 29/9/3
f 5/10/4 21/6/4 29/9/4
f 6/4/5 22/11/5 31/12/5
f 2/1/6 23/3/6 26/13/6
f 3/14/7 25/15/7 28/16/7
f 4/7/8 27/17/8 30/8/8
f 5/10/9 29/9/9 32/18/9
f 6/4/10 31/12/10 24/5/10
f 34/19/11 7/20/11 38/21/11 40/22/11
f 8/23/12 34/19/12 40/22/12
f 37/24/13 10/25/13 42/26/13 39/27/13
f 11/28/14 37/24/14 39/27/14
f 39/27/15 42/26/15 12/29/15
f 33/30/16 39/27/16 38/21/16 7/20/16
f 42/26/17 41/31/17 12/29/17
f 36/32/18 9/33/18 41/31/18
f 41/31/19 40/22/19 12/29/19
f 35/34/20 8/23/20 40/22/20
f 40/22/21 38/21/21 12/29/21
f 36/32/22 41/31/22 42/26/22 10/25/22
f 38/21/23 39/27/23 12/29/23
f 33/30/24 11/28/24 39/27/24
f 23/3/25 11/28/25 33/30/25 26/13/25
f 31/12/26 10/25/26 37/24/26
f 25/15/27 7/20/27 34/19/27 28/16/27
f 29/9/28 9/33/28 36/32/28
f 24/5/29 31/12/29 37/24/29 11/28/29
f 27/17/30 8/23/30 35/34/30
f 28/16/31 34/19/31 8/23/31
f 30/8/32 27/17/32 35/34/32 9/33/32
f 26/13/33 33/30/33 7/20/33
f 35/34/34 40/22/34 41/31/34 9/33/34
f 31/12/35 32/18/35 10/25/35
f 15/35/36 26/13/36 25/15/36 3/14/36
f 29/9/37 30/8/37 9/33/37
f 32/18/38 29/9/38 36/32/38 10/25/38
f 27/17/39 28/16/39 8/23/39
f 19/36/40 3/14/40 28/16/40
f 25/15/41 26/13/41 7/20/41
f 15/35/42 2/1/42 26/13/42
f 23/3/43 24/5/43 11/28/43
f 19/36/44 28/16/44 27/17/44 4/7/44
f 3/37/45 19/38/45 44/39/45 18/40/45
f 15/41/46 3/37/46 18/40/46 1/42/46
f 20/43/47 1/44/47 18/45/47 44/46/47 17/47/47 45/48/47 13/49/47 46/50/47 14/51/47 43/52/47
f 4/53/48 21/38/48 45/39/48 17/54/48
f 21/38/49 5/37/49 13/40/49 45/39/49
f 2/55/50 15/41/50 1/42/50 20/56/50
f 5/37/51 22/41/51 46/42/51 13/40/51
f 6/55/52 16/57/52 43/58/52 14/56/52
f 19/38/53 4/53/53 17/54/53 44/39/53
f 22/41/54 6/55/54 14/56/54 46/42/54
f 16/57/55 2/55/55 20/56/55 43/58/55
f 22/11/56 5/10/56 32/18/56 31/12/56
o Icosphere.001
v -0.233586 0.061986 0.023590
v -0.233586 0.109138 0.023590
v -0.233586 0.061986 -0.023562
v -0.233586 0.109138 -0.023562
v -0.241807 0.085562 0.031811
v -0.241807 0.085562 -0.031783
v -0.192022 0.052559 -0.032990
v -0.192022 0.118566 -0.032990
v -0.192022 0.052559 0.033018
v -0.192022 0.118566 0.033018
v -0.192022 0.085562 0.044525
v -0.192022 0.085562 -0.044497
v -0.243014 0.052559 0.000014
v -0.243014 0.118566 0.000014
v -0.254521 0.085562 0.000014
v -0.192022 0.130923 0.000014
v -0.192022 0.040202 0.000014
v 0.233586 0.061986 0.023590
v 0.233586 0.109138 0.023590
v 0.233586 0.061986 -0.023562
v 0.233586 0.109138 -0.023562
v 0.241807 0.085562 0.031811
v 0.241807 0.085562 -0.031783
v 0.192022 0.052559 -0.032990
v 0.192022 0.118566 -0.032990
v 0.192022 0.052559 0.033018
v 0.192022 0.118566 0.033018
v 0.192022 0.085562 0.044525
v 0.192022 0.085562 -0.044497
v 0.243014 0.052559 0.000014
v 0.243014 0.118566 0.000014
v 0.254521 0.085562 0.000014
v 0.192022 0.130923 0.000014
v 0.192022 0.040202 0.000014
vn -0.8465 0.3530 -0.3986
vn -0.2546 0.3512 0.9010
vn -0.2484 0.8894 0.3838
vn -0.2546 -0.3512 0.9010
vn -0.8465 -0.3530 -0.3986
vn -0.2546 -0.3512 -0.9010
vn -0.2484 -0.8894 0.3838
vn -0.2546 0.3512 -0.9010
vn -0.2484 -0.8894 -0.3838
vn -0.8465 -0.3530 0.3986
vn -0.2484 0.8894 -0.3838
vn -0.8465 0.3530 0.3986
vn 0.8465 0.3530 -0.3986
vn 0.2546 0.3512 0.9010
vn 0.2484 0.8894 0.3838
vn 0.2546 -0.3512 0.9010
vn 0.8465 -0.3530 -0.3986
vn 0.2546 -0.3512 -0.9010
vn 0.2484 -0.8894 0.3838
vn 0.2546 0.3512 -0.9010
vn 0.2484 -0.8894 -0.3838
vn 0.8465 -0.3530 0.3986
vn 0.2484 0.8894 -0.3838
vn 0.8465 0.3530 0.3986
vt 0.594858 0.952410
vt 0.591886 0.952410
vt 0.591886 0.948600
vt 0.594858 0.948600
vt 0.594858 0.952942
vt 0.594858 0.948067
s 0
usemtl Material
f 61/59/57 60/60/57 50/61/57 52/62/57
f 57/63/58 56/60/58 48/61/58 51/64/58
f 62/63/59 60/60/59 48/61/59 56/64/59
f 55/60/60 57/63/60 51/64/60 47/61/60
f 59/60/61 61/59/61 52/62/61 49/61/61
f 49/61/62 52/64/62 58/63/62 53/60/62
f 59/60/63 63/63/63 55/64/63 47/61/63
f 52/64/64 50/61/64 54/60/64 58/63/64
f 49/61/65 53/64/65 63/63/65 59/60/65
f 47/61/66 51/62/66 61/59/66 59/60/66
f 54/64/67 50/61/67 60/60/67 62/63/67
f 51/62/68 48/61/68 60/60/68 61/59/68
f 78/59/69 69/62/69 67/61/69 77/60/69
f 74/63/70 68/64/70 65/61/70 73/60/70
f 79/63/71 73/64/71 65/61/71 77/60/71
f 72/60/72 64/61/72 68/64/72 74/63/72
f 76/60/73 66/61/73 69/62/73 78/59/73
f 66/61/74 70/60/74 75/63/74 69/64/74
f 76/60/75 64/61/75 72/64/75 80/63/75
f 69/64/76 75/63/76 71/60/76 67/61/76
f 66/61/77 76/60/77 80/63/77 70/64/77
f 64/61/78 76/60/78 78/59/78 68/62/78
f 71/64/79 79/63/79 77/60/79 67/61/79
f 68/62/80 78/59/80 77/60/80 65/61/80
o Icosphere.002
v -0.023590 0.061986 -0.233586
v -0.023590 0.109138 -0.233586
v 0.023562 0.061986 -0.233586
v 0.023562 0.109138 -0.233586
v -0.031811 0.085562 -0.241807
v 0.031783 0.085562 -0.241807
v 0.032990 0.052559 -0.192022
v 0.032990 0.118566 -0.192022
v -0.033018 0.052559 -0.192022
v -0.033018 0.118566 -0.192022
v -0.044525 0.085562 -0.192022
v 0.044497 0.085562 -0.192022
v -0.000014 0.052559 -0.243014
v -0.000014 0.118566 -0.243014
v -0.000014 0.085562 -0.254521
v -0.000014 0.130923 -0.192022
v -0.000014 0.040202 -0.192022
v -0.023590 0.061986 0.233586
v -0.023590 0.109138 0.233586
v 0.023562 0.061986 0.233586
v 0.023562 0.109138 0.233586
v -0.031811 0.085562 0.241807
v 0.031783 0.085562 0.241807
v 0.032990 0.052559 0.192022
v 0.032990 0.118566 0.192022
v -0.033018 0.052559 0.192022
v -0.033018 0.118566 0.192022
v -0.044525 0.085562 0.192022
v 0.044497 0.085562 0.192022
v -0.000014 0.052559 0.243014
v -0.000014 0.118566 0.243014
v -0.000014 0.085562 0.254521
v -0.000014 0.130923 0.192022
v -0.000014 0.040202 0.192022
vn 0.3986 0.3530 -0.8465
vn -0.9010 0.3512 -0.2546
vn -0.3838 0.8894 -0.2484
vn -0.9010 -0.3512 -0.2546
vn 0.3986 -0.3530 -0.8465
vn 0.9010 -0.3512 -0.2546
vn -0.3838 -0.8894 -0.2484
vn 0.9010 0.3512 -0.2546
vn 0.3838 -0.8894 -0.2484
vn -0.3986 -0.3530 -0.8465
vn 0.3838 0.8894 -0.2484
vn -0.3986 0.3530 -0.8465
vn 0.3986 0.3530 0.8465
vn -0.9010 0.3512 0.2546
vn -0.3838 0.8894 0.2484
vn -0.9010 -0.3512 0.2546
vn 0.3986 -0.3530 0.8465
vn 0.9010 -0.3512 0.2546
vn -0.3838 -0.8894 0.2484
vn 0.9010 0.3512 0.2546
vn 0.3838 -0.8894 0.2484
vn -0.3986 -0.3530 0.8465
vn 0.3838 0.8894 0.2484
vn -0.3986 0.3530 0.8465
vt 0.594858 0.952410
vt 0.591886 0.952410
vt 0.591886 0.948600
vt 0.594858 0.948600
vt 0.594858 0.952942
vt 0.594858 0.948067
s 0
usemtl Material
f 95/65/81 94/66/81 84/67/81 86/68/81
f 91/69/82 90/66/82 82/67/82 85/70/82
f 96/69/83 94/66/83 82/67/83 90/70/83
f 89/66/84 91/69/84 85/70/84 81/67/84
f 93/66/85 95/65/85 86/68/85 83/67/85
f 83/67/86 86/70/86 92/69/86 87/66/86
f 93/66/87 97/69/87 89/70/87 81/67/87
f 86/70/88 84/67/88 88/66/88 92/69/88
f 83/67/89 87/70/89 97/69/89 93/66/89
f 81/67/90 85/68/90 95/65/90 93/66/90
f 88/70/91 84/67/91 94/66/91 96/69/91
f 85/68/92 82/67/92 94/66/92 95/65/92
f 112/65/93 103/68/93 101/67/93 111/66/93
f 108/69/94 102/70/94 99/67/94 107/66/94
f 113/69/95 107/70/95 99/67/95 111/66/95
f 106/66/96 98/67/96 102/70/96 108/69/96
f 110/66/97 100/67/97 103/68/97 112/65/97
f 100/67/98 104/66/98 109/69/98 103/70/98
f 110/66/99 98/67/99 106/70/99 114/69/99
f 103/70/100 109/69/100 105/66/100 101/67/100
f 100/67/101 110/66/101 114/69/101 104/70/101
f 98/67/102 110/66/102 112/65/102 102/68/102
f 105/70/103 113/69/103 111/66/103 101/67/103
f 102/68/104 112/65/104 111/66/104 99/67/104
