# Blender 3.6.5
# www.blender.org
mtllib Poly_SF_Outside_B_Shipping_Container_01.mtl
o Cube.001
v 0.400000 0.500000 0.300000
v 0.400000 0.000000 0.300000
v 0.400000 0.500000 -0.300000
v 0.400000 0.000000 -0.300000
v -0.400000 0.500000 0.300000
v -0.400000 0.000000 0.300000
v -0.400000 0.500000 -0.300000
v -0.400000 0.000000 -0.300000
v 0.400000 0.000000 -0.210000
v -0.400000 0.500000 -0.210000
v 0.400000 0.500000 -0.210000
v -0.400000 0.000000 -0.210000
v 0.400000 0.500000 0.210000
v -0.400000 0.000000 0.210000
v 0.400000 0.000000 0.210000
v -0.400000 0.500000 0.210000
v -0.330000 0.000000 -0.300000
v -0.330000 0.500000 0.300000
v -0.330000 0.500000 -0.300000
v -0.330000 0.000000 0.300000
v -0.330000 0.000000 -0.210000
v -0.330000 0.500000 -0.210000
v -0.330000 0.000000 0.210000
v -0.330000 0.500000 0.210000
v 0.330000 0.500000 -0.300000
v 0.330000 0.000000 0.300000
v 0.330000 0.500000 -0.210000
v 0.330000 0.500000 0.210000
v 0.330000 0.000000 -0.300000
v 0.330000 0.500000 0.300000
v 0.330000 0.000000 -0.210000
v 0.330000 0.000000 0.210000
v -0.330000 0.450900 0.210000
v -0.330000 0.450900 -0.210000
v 0.330000 0.450900 -0.210000
v 0.330000 0.450900 0.210000
v 0.330000 0.000000 -0.300000
v -0.330000 0.000000 -0.300000
v -0.330000 0.500000 -0.300000
v 0.330000 0.500000 -0.300000
v 0.330000 0.500000 0.280000
v -0.330000 0.500000 0.280000
v -0.330000 0.000000 0.280000
v 0.330000 0.000000 0.280000
vn -0.0000 -0.0000 1.0000
vn -0.0000 1.0000 -0.0000
vn -0.0000 -1.0000 -0.0000
vn -0.0000 -0.0000 -1.0000
vn -1.0000 -0.0000 -0.0000
vn 1.0000 -0.0000 -0.0000
vt 0.619971 0.965736
vt 0.624814 0.965793
vt 0.624814 0.937696
vt 0.619971 0.937696
vt 0.619897 0.972610
vt 0.619897 0.967585
vt 0.619897 0.966226
vt 0.624814 0.966226
vt 0.624814 0.972610
vt 0.619673 0.966525
vt 0.619673 0.970405
vt 0.619673 0.971435
vt 0.624821 0.971435
vt 0.624821 0.966525
vt 0.567516 0.965793
vt 0.567516 0.937696
vt 0.562654 0.937696
vt 0.562654 0.965793
vt 0.567624 0.968703
vt 0.562654 0.968703
vt 0.567624 0.937696
vt 0.619873 0.937696
vt 0.624192 0.937696
vt 0.624192 0.968703
vt 0.619873 0.968703
vt 0.567907 0.937696
vt 0.619607 0.937696
vt 0.619607 0.968703
vt 0.567907 0.968703
vt 0.619607 0.968703
vt 0.567907 0.968703
vt 0.619532 0.966370
vt 0.619532 0.971258
vt 0.624821 0.971258
vt 0.624821 0.966370
vt 0.619897 0.999918
vt 0.619897 0.995030
vt 0.624814 0.995030
vt 0.624814 0.999918
vt 0.619873 0.968703
vt 0.567495 0.937696
vt 0.567495 0.968703
vt 0.619968 0.971258
vt 0.619968 0.993494
vt 0.624821 0.993494
vt 0.619897 0.972407
vt 0.624814 0.972406
vt 0.562501 0.995030
vt 0.562501 0.972406
vt 0.567612 0.972407
vt 0.567612 0.995030
vt 0.567643 0.942344
vt 0.567643 0.959351
vt 0.619532 0.959351
vt 0.619532 0.942344
vt 0.562501 0.999918
vt 0.567612 0.999918
vt 0.567643 0.995101
vt 0.567643 0.999967
vt 0.619532 0.999967
vt 0.619532 0.995101
vt 0.562501 0.972610
vt 0.562501 0.966226
vt 0.567612 0.966226
vt 0.567612 0.967585
vt 0.567612 0.972610
vt 0.567516 0.965819
vt 0.562501 0.966525
vt 0.562501 0.971447
vt 0.567716 0.971447
vt 0.567716 0.970405
vt 0.567716 0.966525
vt 0.619971 0.965793
vt 0.562501 0.966370
vt 0.562501 0.971258
vt 0.567643 0.971258
vt 0.567643 0.966370
vt 0.562501 0.993494
vt 0.567643 0.993494
vt 0.619603 0.995787
vt 0.567978 0.995787
vt 0.567978 0.993634
vt 0.619603 0.993634
vt 0.567790 0.995030
vt 0.567790 0.972407
vt 0.619673 0.972407
vt 0.619673 0.995030
vt 0.567753 0.993626
vt 0.621016 0.993626
vt 0.621016 0.996026
vt 0.567753 0.996026
vt 0.619591 0.965937
vt 0.619591 0.937696
vt 0.567917 0.937696
vt 0.567917 0.965937
vt 0.567716 0.995101
vt 0.567716 0.999930
vt 0.619673 0.999930
vt 0.619673 0.995101
vt 0.567612 0.972569
vt 0.567612 0.967702
vt 0.619897 0.967702
vt 0.619897 0.972569
s 0
usemtl regular
f 18/1/1 5/2/1 6/3/1 20/4/1
f 28/5/2 41/6/2 30/7/2 1/8/2 13/9/2
f 23/10/3 43/11/3 20/12/3 6/13/3 14/14/3
f 19/15/4 17/16/4 8/17/4 7/18/4
f 10/19/5 7/20/5 8/17/5 12/21/5
f 9/22/6 4/23/6 3/24/6 11/25/6
f 15/26/6 9/27/6 11/28/6 13/29/6
f 16/30/5 10/31/5 12/26/5 14/27/5
f 17/32/3 21/33/3 12/34/3 8/35/3
f 25/36/2 27/37/2 11/38/2 3/39/2
f 5/24/5 16/40/5 14/22/5 6/23/5
f 2/17/6 15/41/6 13/42/6 1/20/6
f 21/43/3 23/44/3 14/45/3 12/34/3
f 27/37/2 28/46/2 13/47/2 11/38/2
f 10/48/2 16/49/2 24/50/2 22/51/2
f 31/52/3 32/53/3 23/54/3 21/55/3
f 7/56/2 10/48/2 22/51/2 19/57/2
f 29/58/3 31/59/3 21/60/3 17/61/3
f 17/16/2 19/15/2 39/15/2 38/16/2
f 16/62/2 5/63/2 18/64/2 42/65/2 24/66/2
f 18/1/6 20/4/6 43/4/6 42/1/6
f 1/18/1 30/67/1 26/16/1 2/17/1
f 15/68/3 2/69/3 26/70/3 44/71/3 32/72/3
f 3/2/4 4/3/4 29/4/4 25/73/4
f 4/74/3 9/75/3 31/76/3 29/77/3
f 9/75/3 15/78/3 32/79/3 31/76/3
f 22/80/6 24/81/6 33/82/6 34/83/6
f 19/57/2 22/51/2 27/37/2 25/36/2
f 34/84/2 33/85/2 36/86/2 35/87/2
f 24/88/4 28/89/4 36/90/4 33/91/4
f 27/90/1 22/91/1 34/88/1 35/89/1
f 28/81/5 27/80/5 35/83/5 36/82/5
f 40/92/4 37/93/4 38/94/4 39/95/4
f 25/73/2 29/4/2 37/4/2 40/73/2
f 29/77/2 17/32/2 38/32/2 37/77/2
f 19/57/2 25/36/2 40/36/2 39/57/2
f 41/95/1 42/92/1 43/93/1 44/94/1
f 26/16/5 30/67/5 41/67/5 44/16/5
f 32/96/3 44/97/3 43/98/3 23/99/3
f 24/100/2 42/101/2 41/102/2 28/103/2
o Cube.002
v -0.340000 0.450000 -0.070000
v -0.340000 0.450000 0.070000
v -0.340000 0.499000 0.070000
v -0.340000 0.499000 -0.070000
v -0.040000 0.450000 -0.070000
v -0.100000 0.450000 0.070000
v -0.100000 0.499000 0.070000
v -0.040000 0.499000 -0.070000
v 0.080000 0.450000 0.090000
v 0.020000 0.450000 0.210000
v 0.020000 0.499000 0.210000
v 0.080000 0.499000 0.090000
v 0.340000 0.450000 0.090000
v 0.340000 0.450000 0.210000
v 0.340000 0.499000 0.210000
v 0.340000 0.499000 0.090000
vn -1.0000 -0.0000 -0.0000
vn 1.0000 -0.0000 -0.0000
vn -0.0000 -0.0000 1.0000
vn -0.0000 1.0000 -0.0000
vn -0.0000 -0.0000 -1.0000
vn -0.0000 -1.0000 -0.0000
vn -0.7593 -0.0000 0.6508
vn 0.8000 -0.0000 -0.6000
vt 0.567908 0.988135
vt 0.567908 0.980734
vt 0.620866 0.979052
vt 0.620866 0.971400
vt 0.586962 0.993547
vt 0.586946 0.995777
vt 0.568137 0.995777
vt 0.568153 0.993547
vt 0.582355 0.980734
vt 0.585628 0.988135
vt 0.567100 0.988135
vt 0.567100 0.980734
vt 0.591648 0.995777
vt 0.591664 0.993547
vt 0.598737 0.971400
vt 0.598737 0.979052
vt 0.596367 0.993547
vt 0.596350 0.995777
vt 0.576283 0.980648
vt 0.576283 0.988174
vt 0.587973 0.988174
vt 0.587973 0.980648
vt 0.601053 0.995777
vt 0.601069 0.993547
vt 0.587973 0.988135
vt 0.587973 0.980734
vt 0.621446 0.993547
vt 0.621429 0.995777
vt 0.602787 0.979052
s 0
usemtl regular
f 45/104/7 46/105/7 47/105/7 48/104/7
f 60/106/8 59/107/8 58/107/8 57/106/8
f 50/108/9 51/109/9 47/110/9 46/111/9
f 51/112/10 52/113/10 48/114/10 47/115/10
f 52/116/11 49/117/11 45/111/11 48/110/11
f 57/106/12 58/107/12 54/118/12 53/119/12
f 54/120/13 55/121/13 51/109/13 50/108/13
f 55/122/10 56/123/10 52/124/10 51/125/10
f 56/126/14 53/127/14 49/117/14 52/116/14
f 49/128/12 50/129/12 46/105/12 45/104/12
f 58/130/9 59/131/9 55/121/9 54/120/9
f 59/107/10 60/106/10 56/132/10 55/118/10
f 60/131/11 57/130/11 53/127/11 56/126/11
f 53/123/12 54/122/12 50/125/12 49/124/12
