# Blender 3.6.5
# www.blender.org
mtllib Poly_SF_Outside_B_Outdoor_Air_Intake_Unit_01.mtl
o Cube.007
v -0.400000 0.100000 0.200000
v -0.400000 0.600000 0.200000
v -0.400000 0.100000 -0.200000
v -0.400000 0.600000 -0.200000
v 0.400000 0.100000 0.200000
v 0.400000 0.600000 0.200000
v 0.400000 0.100000 -0.200000
v 0.400000 0.600000 -0.200000
vn -1.0000 -0.0000 -0.0000
vn -0.0000 -0.0000 -1.0000
vn 1.0000 -0.0000 -0.0000
vn -0.0000 -0.0000 1.0000
vn -0.0000 -1.0000 -0.0000
vn -0.0000 1.0000 -0.0000
vt 0.627823 0.673330
vt 0.665104 0.673330
vt 0.665104 0.687438
vt 0.627823 0.687438
vt 0.627762 0.672580
vt 0.627762 0.687408
vt 0.683295 0.687408
vt 0.683295 0.672580
vt 0.627823 0.687438
vt 0.665104 0.687438
vt 0.665104 0.673330
vt 0.627823 0.673330
vt 0.683295 0.637108
vt 0.683295 0.672580
vt 0.627762 0.672580
vt 0.627762 0.637108
vt 0.627762 0.687438
vt 0.683295 0.687438
vt 0.683295 0.673330
vt 0.627762 0.673330
s 0
usemtl regular
f 1/1/1 2/2/1 4/3/1 3/4/1
f 3/5/2 4/6/2 8/7/2 7/8/2
f 7/9/3 8/10/3 6/11/3 5/12/3
f 5/13/4 6/14/4 2/15/4 1/16/4
f 3/17/5 7/18/5 5/19/5 1/20/5
f 8/18/6 4/17/6 2/20/6 6/19/6
o Cube.001
v -0.400000 0.000000 0.200000
v -0.400000 0.040000 0.200000
v -0.400000 0.000000 -0.200000
v -0.400000 0.040000 -0.200000
v -0.290000 0.000000 0.200000
v -0.290000 0.040000 0.200000
v -0.290000 0.000000 -0.200000
v -0.290000 0.040000 -0.200000
v -0.390000 0.040000 0.160000
v -0.380000 0.100000 0.160000
v -0.390000 0.040000 -0.160000
v -0.380000 0.100000 -0.160000
v -0.300000 0.040000 0.160000
v -0.310000 0.100000 0.160000
v -0.300000 0.040000 -0.160000
v -0.310000 0.100000 -0.160000
v -0.380000 0.070000 0.160000
v -0.380000 0.070000 -0.160000
v -0.310000 0.070000 -0.160000
v -0.310000 0.070000 0.160000
v 0.400000 0.000000 0.200000
v 0.400000 0.040000 0.200000
v 0.400000 0.000000 -0.200000
v 0.400000 0.040000 -0.200000
v 0.290000 0.000000 0.200000
v 0.290000 0.040000 0.200000
v 0.290000 0.000000 -0.200000
v 0.290000 0.040000 -0.200000
v 0.390000 0.040000 0.160000
v 0.380000 0.100000 0.160000
v 0.390000 0.040000 -0.160000
v 0.380000 0.100000 -0.160000
v 0.300000 0.040000 0.160000
v 0.310000 0.100000 0.160000
v 0.300000 0.040000 -0.160000
v 0.310000 0.100000 -0.160000
v 0.380000 0.070000 0.160000
v 0.380000 0.070000 -0.160000
v 0.310000 0.070000 -0.160000
v 0.310000 0.070000 0.160000
vn -1.0000 -0.0000 -0.0000
vn -0.0000 -0.0000 -1.0000
vn 1.0000 -0.0000 -0.0000
vn -0.0000 -0.0000 1.0000
vn -0.0000 -1.0000 -0.0000
vn -0.0000 1.0000 -0.0000
vn 0.9487 0.3162 -0.0000
vn -0.9487 0.3162 -0.0000
vt 0.680760 0.638117
vt 0.680760 0.635572
vt 0.667082 0.635572
vt 0.667082 0.638117
vt 0.627724 0.625144
vt 0.627724 0.627233
vt 0.639152 0.627233
vt 0.639152 0.625144
vt 0.680760 0.635560
vt 0.667082 0.635560
vt 0.639152 0.625137
vt 0.627724 0.625137
vt 0.680760 0.642737
vt 0.680760 0.635772
vt 0.667082 0.635772
vt 0.667082 0.642737
vt 0.680760 0.640378
vt 0.680760 0.638026
vt 0.667082 0.638026
vt 0.667082 0.640378
vt 0.627724 0.628530
vt 0.639152 0.628530
vt 0.639152 0.626185
vt 0.627724 0.626185
vt 0.638030 0.626243
vt 0.628846 0.626243
vt 0.680760 0.642729
vt 0.667082 0.642729
vt 0.627724 0.629827
vt 0.639152 0.629827
s 0
usemtl regular
f 9/21/7 10/22/7 12/23/7 11/24/7
f 11/25/8 12/26/8 16/27/8 15/28/8
f 15/21/9 16/29/9 14/30/9 13/24/9
f 13/31/10 14/27/10 10/26/10 9/32/10
f 11/33/11 15/34/11 13/35/11 9/36/11
f 16/34/12 12/33/12 10/36/12 14/35/12
f 25/37/7 18/38/7 20/39/7 26/40/7
f 26/41/8 20/26/8 24/27/8 27/42/8
f 27/37/9 24/38/9 22/39/9 28/40/9
f 28/43/10 22/27/10 18/26/10 25/44/10
f 19/33/11 23/34/11 21/35/11 17/36/11
f 24/34/12 20/33/12 18/36/12 22/35/12
f 21/31/10 28/45/10 25/46/10 17/32/10
f 23/47/13 27/37/13 28/40/13 21/48/13
f 19/49/8 26/46/8 27/45/8 23/50/8
f 17/47/14 25/37/14 26/40/14 19/48/14
f 29/21/9 31/24/9 32/23/9 30/22/9
f 31/25/8 35/28/8 36/27/8 32/26/8
f 35/21/7 33/24/7 34/30/7 36/29/7
f 33/31/10 29/32/10 30/26/10 34/27/10
f 31/33/11 29/36/11 33/35/11 35/34/11
f 36/34/12 34/35/12 30/36/12 32/33/12
f 45/37/9 46/40/9 40/39/9 38/38/9
f 46/41/8 47/42/8 44/27/8 40/26/8
f 47/37/7 48/40/7 42/39/7 44/38/7
f 48/43/10 45/44/10 38/26/10 42/27/10
f 39/33/11 37/36/11 41/35/11 43/34/11
f 44/34/12 42/35/12 38/36/12 40/33/12
f 41/31/10 37/32/10 45/46/10 48/45/10
f 43/47/14 41/48/14 48/40/14 47/37/14
f 39/49/8 43/50/8 47/45/8 46/46/8
f 37/47/13 39/48/13 46/40/13 45/37/13
