# Blender 3.6.5
# www.blender.org
mtllib Poly_SF_Outside_B_Machine_Device_01.mtl
o Cube.005
v -0.400000 0.500000 0.260000
v -0.400000 0.600000 0.260000
v -0.400000 0.500000 -0.300000
v -0.400000 0.700000 -0.300000
v 0.400000 0.500000 0.260000
v 0.400000 0.600000 0.260000
v 0.400000 0.500000 -0.300000
v 0.400000 0.700000 -0.300000
v -0.400000 0.500000 -0.110000
v -0.400000 0.600000 -0.110000
v 0.400000 0.500000 -0.110000
v 0.400000 0.600000 -0.110000
v -0.240000 0.500000 -0.300000
v -0.240000 0.700000 -0.300000
v -0.240000 0.500000 0.260000
v -0.240000 0.600000 0.260000
v -0.240000 0.600000 -0.110000
v -0.240000 0.500000 -0.110000
v 0.210000 0.700000 -0.300000
v 0.210000 0.500000 0.260000
v 0.210000 0.600000 -0.110000
v 0.210000 0.500000 -0.300000
v 0.210000 0.600000 0.260000
v 0.210000 0.500000 -0.110000
v -0.240000 0.820000 -0.300000
v -0.240000 0.660000 -0.110000
v 0.210000 0.820000 -0.300000
v 0.210000 0.660000 -0.110000
v 0.190000 0.630000 -0.060000
v 0.190000 0.600000 -0.060000
v 0.190000 0.630000 0.140000
v 0.190000 0.600000 0.140000
v -0.250000 0.630000 -0.060000
v -0.250000 0.600000 -0.060000
v -0.250000 0.630000 0.140000
v -0.250000 0.600000 0.140000
v -0.270000 0.630000 0.000000
v -0.270000 0.600000 0.000000
v -0.270000 0.630000 0.080000
v -0.270000 0.600000 0.080000
v -0.350000 0.630000 0.000000
v -0.350000 0.600000 0.000000
v -0.350000 0.630000 0.080000
v -0.350000 0.600000 0.080000
v 0.267677 0.630000 -0.056590
v 0.267677 0.600000 -0.056590
v 0.267677 0.630000 0.104462
v 0.267677 0.600000 0.104462
v 0.239886 0.630000 -0.056590
v 0.239886 0.600000 -0.056590
v 0.239886 0.630000 0.104462
v 0.239886 0.600000 0.104462
v 0.320981 0.630000 -0.029573
v 0.320981 0.600000 -0.029573
v 0.320981 0.630000 0.078540
v 0.320981 0.600000 0.078540
v 0.293191 0.630000 -0.029573
v 0.293191 0.600000 -0.029573
v 0.293191 0.630000 0.078540
v 0.293191 0.600000 0.078540
vn -1.0000 -0.0000 -0.0000
vn -0.0000 -0.0000 -1.0000
vn 1.0000 -0.0000 -0.0000
vn -0.0000 -0.0000 1.0000
vn -0.0000 -1.0000 -0.0000
vn -0.0000 1.0000 -0.0000
vn -0.0000 0.8849 0.4657
vn -0.0000 0.7649 0.6441
vt 0.441783 0.018501
vt 0.441783 0.026124
vt 0.459129 0.033711
vt 0.459129 0.018501
vt 0.450616 0.018387
vt 0.450616 0.028261
vt 0.441514 0.028261
vt 0.441514 0.018387
vt 0.480310 0.026124
vt 0.480310 0.018501
vt 0.472439 0.018387
vt 0.472439 0.023335
vt 0.480253 0.023335
vt 0.480253 0.018387
vt 0.604066 0.780056
vt 0.613166 0.780056
vt 0.604066 0.780056
vt 0.582248 0.798187
vt 0.574436 0.798187
vt 0.574436 0.780231
vt 0.582248 0.780231
vt 0.582005 0.807243
vt 0.574436 0.807243
vt 0.582005 0.798187
vt 0.574436 0.780056
vt 0.582248 0.780056
vt 0.582248 0.783759
vt 0.604066 0.783759
vt 0.604066 0.780081
vt 0.582248 0.780081
vt 0.604066 0.798187
vt 0.604066 0.780231
vt 0.450616 0.023335
vt 0.480253 0.028261
vt 0.472439 0.028261
vt 0.441514 0.023335
vt 0.613166 0.798187
vt 0.613166 0.780231
vt 0.613166 0.807243
vt 0.604227 0.807243
vt 0.604227 0.798187
vt 0.604066 0.811070
vt 0.582248 0.811070
vt 0.472439 0.033862
vt 0.450616 0.033862
vt 0.601937 0.798804
vt 0.610737 0.799170
vt 0.611907 0.795808
vt 0.602442 0.796996
vt 0.602756 0.795550
vt 0.602756 0.786781
vt 0.582191 0.786781
vt 0.582191 0.795550
vt 0.580707 0.792930
vt 0.580707 0.789123
vt 0.576853 0.789123
vt 0.576853 0.792930
vt 0.606736 0.795499
vt 0.606736 0.787863
vt 0.605547 0.787863
vt 0.605547 0.795499
vt 0.609337 0.794227
vt 0.609337 0.789123
vt 0.608149 0.789123
vt 0.608149 0.794227
s 0
usemtl regular
f 9/1/1 10/2/1 4/3/1 3/4/1
f 22/5/2 19/6/2 8/7/2 7/8/2
f 11/1/3 12/2/3 6/9/3 5/10/3
f 15/11/4 16/12/4 2/13/4 1/14/4
f 24/15/5 11/16/5 5/16/5 20/17/5
f 17/18/6 10/19/6 2/20/6 16/21/6
f 14/22/7 4/23/7 10/19/7 17/24/7
f 22/15/5 7/16/5 11/16/5 24/15/5
f 7/4/3 8/3/3 12/2/3 11/1/3
f 1/10/1 2/9/1 10/2/1 9/1/1
f 3/25/5 13/26/5 18/26/5 9/25/5
f 17/27/4 21/28/4 28/29/4 26/30/4
f 21/31/6 17/18/6 16/21/6 23/32/6
f 9/25/5 18/26/5 15/26/5 1/25/5
f 20/5/4 23/33/4 16/12/4 15/11/4
f 3/14/2 4/34/2 14/35/2 13/11/2
f 5/8/4 6/36/4 23/33/4 20/5/4
f 12/37/6 21/31/6 23/32/6 6/38/6
f 8/39/7 19/40/7 21/41/7 12/37/7
f 13/26/5 22/15/5 24/15/5 18/26/5
f 18/26/5 24/15/5 20/17/5 15/26/5
f 13/11/2 14/35/2 19/6/2 22/5/2
f 27/42/8 25/43/8 26/18/8 28/31/8
f 19/6/2 14/35/2 25/44/2 27/45/2
f 21/46/3 19/47/3 27/48/3 28/49/3
f 14/47/1 17/46/1 26/49/1 25/48/1
f 29/50/3 31/51/3 32/51/3 30/50/3
f 31/51/4 35/52/4 36/52/4 32/51/4
f 35/52/1 33/53/1 34/53/1 36/52/1
f 33/53/2 29/50/2 30/50/2 34/53/2
f 31/51/6 29/50/6 33/53/6 35/52/6
f 37/54/3 39/55/3 40/55/3 38/54/3
f 39/55/4 43/56/4 44/56/4 40/55/4
f 43/56/1 41/57/1 42/57/1 44/56/1
f 41/57/2 37/54/2 38/54/2 42/57/2
f 39/55/6 37/54/6 41/57/6 43/56/6
f 45/58/3 47/59/3 48/59/3 46/58/3
f 47/59/4 51/60/4 52/60/4 48/59/4
f 51/60/1 49/61/1 50/61/1 52/60/1
f 49/61/2 45/58/2 46/58/2 50/61/2
f 47/59/6 45/58/6 49/61/6 51/60/6
f 53/62/3 55/63/3 56/63/3 54/62/3
f 55/63/4 59/64/4 60/64/4 56/63/4
f 59/64/1 57/65/1 58/65/1 60/64/1
f 57/65/2 53/62/2 54/62/2 58/65/2
f 55/63/6 53/62/6 57/65/6 59/64/6
o Cube.001
v -0.400000 0.000000 0.260000
v -0.400000 0.500000 0.260000
v -0.400000 0.000000 -0.300000
v -0.400000 0.500000 -0.300000
v 0.400000 0.000000 0.260000
v 0.400000 0.500000 0.260000
v 0.400000 0.000000 -0.300000
v 0.400000 0.500000 -0.300000
vn -1.0000 -0.0000 -0.0000
vn -0.0000 -0.0000 -1.0000
vn 1.0000 -0.0000 -0.0000
vn -0.0000 -0.0000 1.0000
vn -0.0000 -1.0000 -0.0000
vn -0.0000 1.0000 -0.0000
vt 0.574341 0.752768
vt 0.574341 0.779758
vt 0.613171 0.779758
vt 0.613171 0.752768
s 0
usemtl regular
f 61/66/9 62/67/9 64/68/9 63/69/9
f 63/66/10 64/67/10 68/68/10 67/69/10
f 67/66/11 68/67/11 66/68/11 65/69/11
f 65/66/12 66/67/12 62/68/12 61/69/12
f 63/66/13 67/67/13 65/68/13 61/69/13
f 68/66/14 64/67/14 62/68/14 66/69/14
