# Blender v3.0.1 OBJ File: ''
# www.blender.org
mtllib Poly_Window_12.mtl
o Cube.002_Cube.001
v 0.430000 0.600000 -0.360000
v 0.430000 0.790000 -0.360000
v 0.420000 0.600000 -0.400000
v 0.420000 0.790000 -0.400000
v 0.490000 0.600000 -0.360000
v 0.490000 0.790000 -0.360000
v 0.500000 0.600000 -0.400000
v 0.500000 0.790000 -0.400000
v 0.430000 0.220000 -0.360000
v 0.430000 0.410000 -0.360000
v 0.420000 0.220000 -0.400000
v 0.420000 0.410000 -0.400000
v 0.490000 0.220000 -0.360000
v 0.490000 0.410000 -0.360000
v 0.500000 0.220000 -0.400000
v 0.500000 0.410000 -0.400000
v -0.430000 0.600000 -0.360000
v -0.430000 0.790000 -0.360000
v -0.420000 0.600000 -0.400000
v -0.420000 0.790000 -0.400000
v -0.490000 0.600000 -0.360000
v -0.490000 0.790000 -0.360000
v -0.500000 0.600000 -0.400000
v -0.500000 0.790000 -0.400000
v -0.430000 0.220000 -0.360000
v -0.430000 0.410000 -0.360000
v -0.420000 0.220000 -0.400000
v -0.420000 0.410000 -0.400000
v -0.490000 0.220000 -0.360000
v -0.490000 0.410000 -0.360000
v -0.500000 0.220000 -0.400000
v -0.500000 0.410000 -0.400000
vt 0.432110 0.195415
vt 0.432110 0.202973
vt 0.427281 0.202973
vt 0.427281 0.195415
vt 0.432110 0.202973
vt 0.432110 0.195415
vt 0.427281 0.202973
vt 0.427281 0.195415
vt 0.432110 0.202973
vt 0.427281 0.202973
vt 0.432110 0.195415
vt 0.427281 0.195415
vt 0.432110 0.195415
vt 0.432110 0.202973
vt 0.427281 0.202973
vt 0.427281 0.195415
vt 0.432110 0.202973
vt 0.432110 0.195415
vt 0.427281 0.202973
vt 0.427281 0.195415
vt 0.432110 0.202973
vt 0.427281 0.202973
vt 0.432110 0.195415
vt 0.427281 0.195415
vt 0.432110 0.195415
vt 0.427281 0.195415
vt 0.427281 0.202973
vt 0.432110 0.202973
vt 0.432110 0.195415
vt 0.432110 0.202973
vt 0.427281 0.195415
vt 0.427281 0.202973
vt 0.432110 0.202973
vt 0.427281 0.202973
vt 0.427281 0.195415
vt 0.432110 0.195415
vt 0.432110 0.195415
vt 0.427281 0.195415
vt 0.427281 0.202973
vt 0.432110 0.202973
vt 0.432110 0.195415
vt 0.432110 0.202973
vt 0.427281 0.195415
vt 0.427281 0.202973
vt 0.432110 0.202973
vt 0.427281 0.202973
vt 0.427281 0.195415
vt 0.432110 0.195415
vn -0.9701 0.0000 0.2425
vn 0.0000 0.0000 -1.0000
vn 0.9701 0.0000 0.2425
vn 0.0000 0.0000 1.0000
vn 0.0000 -1.0000 0.0000
vn 0.0000 1.0000 0.0000
usemtl Material.001
s off
f 1/1/1 2/2/1 4/3/1 3/4/1
f 3/4/2 4/3/2 8/5/2 7/6/2
f 7/6/3 8/5/3 6/7/3 5/8/3
f 5/8/4 6/7/4 2/2/4 1/1/4
f 3/9/5 7/6/5 5/8/5 1/10/5
f 8/5/6 4/11/6 2/12/6 6/7/6
f 9/13/1 10/14/1 12/15/1 11/16/1
f 11/16/2 12/15/2 16/17/2 15/18/2
f 15/18/3 16/17/3 14/19/3 13/20/3
f 13/20/4 14/19/4 10/14/4 9/13/4
f 11/21/5 15/18/5 13/20/5 9/22/5
f 16/17/6 12/23/6 10/24/6 14/19/6
f 17/25/3 19/26/3 20/27/3 18/28/3
f 19/26/2 23/29/2 24/30/2 20/27/2
f 23/29/1 21/31/1 22/32/1 24/30/1
f 21/31/4 17/25/4 18/28/4 22/32/4
f 19/33/5 17/34/5 21/31/5 23/29/5
f 24/30/6 22/32/6 18/35/6 20/36/6
f 25/37/3 27/38/3 28/39/3 26/40/3
f 27/38/2 31/41/2 32/42/2 28/39/2
f 31/41/1 29/43/1 30/44/1 32/42/1
f 29/43/4 25/37/4 26/40/4 30/44/4
f 27/45/5 25/46/5 29/43/5 31/41/5
f 32/42/6 30/44/6 26/47/6 28/48/6
o Cube.001_Cube.002
v -0.530000 0.000000 -0.300000
v -0.530000 1.000000 -0.300000
v -0.525000 0.000000 -0.500000
v -0.525000 1.000000 -0.500000
v 0.530000 0.000000 -0.300000
v 0.530000 1.000000 -0.300000
v 0.525000 0.000000 -0.500000
v 0.525000 1.000000 -0.500000
v -0.530000 0.850000 -0.300000
v -0.525000 0.850000 -0.500000
v 0.525000 0.850000 -0.500000
v 0.530000 0.850000 -0.300000
v -0.525000 0.150000 -0.500000
v 0.525000 0.150000 -0.500000
v 0.530000 0.150000 -0.300000
v -0.530000 0.150000 -0.300000
v 0.500000 0.850000 -0.500000
v 0.500000 0.850000 -0.300000
v 0.500000 0.150000 -0.500000
v 0.500000 0.150000 -0.300000
v -0.500000 0.150000 -0.500000
v -0.500000 0.850000 -0.500000
v -0.500000 0.850000 -0.300000
v -0.500000 0.150000 -0.300000
v -0.500000 0.850000 -0.400000
v -0.500000 0.150000 -0.400000
v 0.500000 0.150000 -0.400000
v 0.500000 0.850000 -0.400000
vt 0.262639 0.207418
vt 0.254869 0.207418
vt 0.254869 0.217057
vt 0.262639 0.217057
vt 0.262639 0.217057
vt 0.254869 0.217057
vt 0.254869 0.207418
vt 0.262639 0.207418
vt 0.431757 0.207459
vt 0.431684 0.217160
vt 0.379411 0.217160
vt 0.379485 0.207738
vt 0.381857 0.207725
vt 0.429282 0.207472
vt 0.306669 0.217057
vt 0.306669 0.217057
vt 0.306669 0.207418
vt 0.306669 0.207418
vt 0.431765 0.216948
vt 0.379411 0.217076
vt 0.379411 0.207555
vt 0.431684 0.207834
vt 0.262639 0.207418
vt 0.262639 0.209346
vt 0.262639 0.217057
vt 0.431571 0.216853
vt 0.379723 0.216853
vt 0.379723 0.212773
vt 0.431571 0.212773
vt 0.262639 0.217057
vt 0.262639 0.209346
vt 0.262639 0.207418
vt 0.298899 0.207418
vt 0.298899 0.217057
vt 0.298899 0.217057
vt 0.298899 0.207418
vt 0.431564 0.207448
vt 0.431633 0.216677
vt 0.429157 0.216690
vt 0.381733 0.216943
vt 0.379360 0.216956
vt 0.379292 0.207727
vt 0.298899 0.217057
vt 0.298899 0.209346
vt 0.298899 0.207418
vt 0.298899 0.207418
vt 0.298899 0.209346
vt 0.298899 0.217057
vt 0.379852 0.208769
vt 0.431700 0.208769
vt 0.431700 0.212849
vt 0.379852 0.212849
vt 0.430690 0.207917
vt 0.382051 0.207917
vt 0.381986 0.169491
vt 0.430625 0.169354
vn -0.9997 0.0000 -0.0250
vn 0.9997 0.0000 -0.0250
vn 0.0000 0.0000 1.0000
vn 0.0000 -1.0000 0.0000
vn 0.0000 1.0000 0.0000
vn 1.0000 0.0000 0.0000
vn -1.0000 0.0000 0.0000
usemtl Material.001
s off
f 41/49/7 34/50/7 36/51/7 42/52/7
f 43/53/8 40/54/8 38/55/8 44/56/8
f 44/57/9 38/58/9 34/59/9 41/60/9 55/61/9 50/62/9
f 35/63/10 39/64/10 37/65/10 33/66/10
f 40/67/11 36/68/11 34/69/11 38/70/11
f 43/53/10 44/56/10 50/71/10 60/72/10 49/73/10
f 50/74/10 55/75/10 57/76/10 60/77/10
f 41/49/10 42/52/10 54/78/10 57/79/10 55/80/10
f 33/66/7 48/81/7 45/82/7 35/63/7
f 39/64/8 46/83/8 47/84/8 37/65/8
f 37/85/9 47/86/9 52/87/9 56/88/9 48/89/9 33/90/9
f 47/84/11 46/83/11 51/91/11 59/92/11 52/93/11
f 45/82/11 48/81/11 56/94/11 58/95/11 53/96/11
f 51/91/12 49/73/12 60/72/12 59/92/12
f 56/97/11 52/98/11 59/99/11 58/100/11
f 60/101/9 57/102/9 58/103/9 59/104/9
f 57/79/13 54/78/13 53/96/13 58/95/13
o Cube.003_Cube.004
v -0.190000 0.520000 -0.400427
v -0.180000 0.570000 -0.400427
v -0.160000 0.570000 -0.400427
v -0.130000 0.520000 -0.400427
v -0.160000 0.430000 -0.400427
v -0.180000 0.430000 -0.400427
v -0.140000 0.520000 -0.330427
v -0.140000 0.570000 -0.330427
v -0.130000 0.570000 -0.350427
v -0.120000 0.520000 -0.380427
v -0.130000 0.430000 -0.350427
v -0.140000 0.430000 -0.330427
v -0.060000 0.520000 -0.330427
v -0.070000 0.570000 -0.330427
v -0.070000 0.570000 -0.350427
v -0.090000 0.520000 -0.380427
v -0.070000 0.430000 -0.350427
v -0.070000 0.430000 -0.330427
v -0.031625 0.512936 -0.357088
v -0.031625 0.536448 -0.357088
v -0.050000 0.570000 -0.400427
v -0.080000 0.520000 -0.400427
v -0.050000 0.430000 -0.400427
v -0.031625 0.470615 -0.357088
v -0.070000 0.570000 -0.420000
v -0.070000 0.570000 -0.410000
v -0.090000 0.520000 -0.410000
v -0.070000 0.430000 -0.410000
v -0.070000 0.430000 -0.420000
v -0.140000 0.570000 -0.420000
v -0.130000 0.570000 -0.410000
v -0.120000 0.520000 -0.410000
v -0.130000 0.430000 -0.410000
v -0.140000 0.430000 -0.420000
v 0.000000 0.512427 -0.368999
v 0.000000 0.538762 -0.368999
v 0.000000 0.465024 -0.368999
v 0.000000 0.538762 -0.402134
v 0.000000 0.465024 -0.402134
v 0.190000 0.520000 -0.400427
v 0.180000 0.570000 -0.400427
v 0.160000 0.570000 -0.400427
v 0.130000 0.520000 -0.400427
v 0.160000 0.430000 -0.400427
v 0.180000 0.430000 -0.400427
v 0.140000 0.520000 -0.330427
v 0.140000 0.570000 -0.330427
v 0.130000 0.570000 -0.350427
v 0.120000 0.520000 -0.380427
v 0.130000 0.430000 -0.350427
v 0.140000 0.430000 -0.330427
v 0.060000 0.520000 -0.330427
v 0.070000 0.570000 -0.330427
v 0.070000 0.570000 -0.350427
v 0.090000 0.520000 -0.380427
v 0.070000 0.430000 -0.350427
v 0.070000 0.430000 -0.330427
v 0.031625 0.512936 -0.357088
v 0.031625 0.536448 -0.357088
v 0.050000 0.570000 -0.400427
v 0.080000 0.520000 -0.400427
v 0.050000 0.430000 -0.400427
v 0.031625 0.470615 -0.357088
v 0.070000 0.570000 -0.420000
v 0.070000 0.570000 -0.410000
v 0.090000 0.520000 -0.410000
v 0.070000 0.430000 -0.410000
v 0.070000 0.430000 -0.420000
v 0.140000 0.570000 -0.420000
v 0.130000 0.570000 -0.410000
v 0.120000 0.520000 -0.410000
v 0.130000 0.430000 -0.410000
v 0.140000 0.430000 -0.420000
vt 0.429673 0.202969
vt 0.429673 0.201485
vt 0.427229 0.200870
vt 0.427223 0.202969
vt 0.427231 0.200501
vt 0.427226 0.201792
vt 0.429673 0.199746
vt 0.429673 0.200275
vt 0.432074 0.200513
vt 0.432069 0.201803
vt 0.432073 0.200881
vt 0.432067 0.202969
vt 0.429673 0.196947
vt 0.427242 0.197550
vt 0.427240 0.197919
vt 0.429673 0.198686
vt 0.432084 0.197931
vt 0.432085 0.197562
vt 0.429673 0.195539
vt 0.427248 0.195539
vt 0.427245 0.196628
vt 0.429673 0.198156
vt 0.432089 0.196640
vt 0.432092 0.195539
vt 0.432092 0.195539
vt 0.429673 0.195539
vt 0.427242 0.197550
vt 0.427240 0.197919
vt 0.429673 0.198686
vt 0.432084 0.197931
vt 0.432085 0.197562
vt 0.427248 0.195539
vt 0.427242 0.197550
vt 0.427229 0.200870
vt 0.427231 0.200501
vt 0.429673 0.199746
vt 0.432074 0.200513
vt 0.432073 0.200881
vt 0.432085 0.197562
vt 0.429673 0.202969
vt 0.427223 0.202969
vt 0.427229 0.200870
vt 0.429673 0.201485
vt 0.427226 0.201792
vt 0.427231 0.200501
vt 0.429673 0.200275
vt 0.429673 0.199746
vt 0.432069 0.201803
vt 0.432074 0.200513
vt 0.432067 0.202969
vt 0.432073 0.200881
vt 0.427242 0.197550
vt 0.429673 0.196947
vt 0.427240 0.197919
vt 0.429673 0.198686
vt 0.432084 0.197931
vt 0.432085 0.197562
vt 0.427248 0.195539
vt 0.429673 0.195539
vt 0.427245 0.196628
vt 0.429673 0.198156
vt 0.432089 0.196640
vt 0.432092 0.195539
vt 0.427240 0.197919
vt 0.427242 0.197550
vt 0.429673 0.198686
vt 0.432084 0.197931
vt 0.432085 0.197562
vt 0.427231 0.200501
vt 0.427229 0.200870
vt 0.429673 0.199746
vt 0.432074 0.200513
vt 0.432073 0.200881
vn -0.8382 0.0838 0.5389
vn 0.0000 1.0000 0.0000
vn 0.7778 0.4444 -0.4444
vn 0.8370 -0.2657 -0.4783
vn 0.0000 -1.0000 0.0000
vn -0.8403 -0.0467 0.5402
vn 0.0000 -0.0000 1.0000
vn 0.0000 0.5145 -0.8575
vn 0.0000 -0.3162 -0.9487
vn 0.6542 0.0890 0.7511
vn 0.6647 0.7226 0.1899
vn -0.7959 0.5003 -0.3411
vn -0.8752 -0.3056 -0.3751
vn 0.7278 -0.6535 0.2079
vn 0.6381 -0.0482 0.7684
vn 0.3525 0.0000 0.9358
vn 0.6648 -0.3109 -0.6793
vn -0.5195 0.2598 0.8140
vn -0.5321 -0.1478 0.8337
vn 0.6752 0.2609 -0.6899
vn 0.2543 0.9402 0.2268
vn 0.4254 0.1702 0.8888
vn 0.4298 -0.0955 0.8979
vn 0.2505 -0.9235 0.2905
vn 0.8382 0.0838 0.5389
vn -0.7778 0.4444 -0.4444
vn -0.8370 -0.2657 -0.4783
vn 0.8403 -0.0467 0.5402
vn -0.6542 0.0890 0.7511
vn -0.6647 0.7226 0.1899
vn 0.7959 0.5003 -0.3411
vn 0.8752 -0.3056 -0.3751
vn -0.7278 -0.6535 0.2079
vn -0.6381 -0.0482 0.7684
vn -0.3525 0.0000 0.9358
vn -0.6648 -0.3109 -0.6793
vn 0.5195 0.2598 0.8140
vn 0.5321 -0.1478 0.8337
vn -0.6752 0.2609 -0.6900
vn -0.2543 0.9402 0.2268
vn -0.4254 0.1702 0.8888
vn -0.4298 -0.0955 0.8979
vn -0.2505 -0.9235 0.2905
usemtl Material.001
s off
f 61/105/14 67/106/14 68/107/14 62/108/14
f 62/108/15 68/107/15 69/109/15 63/110/15
f 63/110/16 69/109/16 70/111/16 64/112/16
f 64/112/17 70/111/17 71/113/17 65/114/17
f 65/114/18 71/113/18 72/115/18 66/116/18
f 66/116/19 72/115/19 67/106/19 61/105/19
f 67/106/20 73/117/20 74/118/20 68/107/20
f 68/107/15 74/118/15 75/119/15 69/109/15
f 69/109/21 75/119/21 76/120/21 70/111/21
f 70/111/22 76/120/22 77/121/22 71/113/22
f 71/113/18 77/121/18 78/122/18 72/115/18
f 72/115/20 78/122/20 73/117/20 67/106/20
f 73/117/23 79/123/23 80/124/23 74/118/23
f 74/118/24 80/124/24 81/125/24 75/119/24
f 75/119/25 81/125/25 82/126/25 76/120/25
f 76/120/26 82/126/26 83/127/26 77/121/26
f 77/121/27 83/127/27 84/128/27 78/122/27
f 78/122/28 84/128/28 79/123/28 73/117/28
f 79/123/29 84/128/29 97/129/29 95/130/29
f 80/124/30 85/131/30 86/132/30 81/125/30
f 81/125/31 86/132/31 87/133/31 82/126/31
f 82/126/32 87/133/32 88/134/32 83/127/32
f 83/127/33 88/134/33 89/135/33 84/128/33
f 85/131/34 80/124/34 96/136/34 98/137/34
f 85/131/15 90/138/15 91/139/15 86/132/15
f 86/132/20 91/139/20 92/140/20 87/133/20
f 87/133/20 92/140/20 93/141/20 88/134/20
f 88/134/18 93/141/18 94/142/18 89/135/18
f 90/138/15 62/108/15 63/110/15 91/139/15
f 91/139/35 63/110/35 64/112/35 92/140/35
f 92/140/36 64/112/36 65/114/36 93/141/36
f 93/141/18 65/114/18 66/116/18 94/142/18
f 84/128/37 89/135/37 99/143/37 97/129/37
f 80/124/29 79/123/29 95/130/29 96/136/29
f 100/144/38 101/145/38 107/146/38 106/147/38
f 101/145/15 102/148/15 108/149/15 107/146/15
f 102/148/39 103/150/39 109/151/39 108/149/39
f 103/150/40 104/152/40 110/153/40 109/151/40
f 104/152/18 105/154/18 111/155/18 110/153/18
f 105/154/41 100/144/41 106/147/41 111/155/41
f 106/147/20 107/146/20 113/156/20 112/157/20
f 107/146/15 108/149/15 114/158/15 113/156/15
f 108/149/21 109/151/21 115/159/21 114/158/21
f 109/151/22 110/153/22 116/160/22 115/159/22
f 110/153/18 111/155/18 117/161/18 116/160/18
f 111/155/20 106/147/20 112/157/20 117/161/20
f 112/157/42 113/156/42 119/162/42 118/163/42
f 113/156/43 114/158/43 120/164/43 119/162/43
f 114/158/44 115/159/44 121/165/44 120/164/44
f 115/159/45 116/160/45 122/166/45 121/165/45
f 116/160/46 117/161/46 123/167/46 122/166/46
f 117/161/47 112/157/47 118/163/47 123/167/47
f 118/163/48 95/130/48 97/129/48 123/167/48
f 119/162/49 120/164/49 125/168/49 124/169/49
f 120/164/50 121/165/50 126/170/50 125/168/50
f 121/165/51 122/166/51 127/171/51 126/170/51
f 122/166/52 123/167/52 128/172/52 127/171/52
f 124/169/53 98/137/53 96/136/53 119/162/53
f 124/169/15 125/168/15 130/173/15 129/174/15
f 125/168/20 126/170/20 131/175/20 130/173/20
f 126/170/20 127/171/20 132/176/20 131/175/20
f 127/171/18 128/172/18 133/177/18 132/176/18
f 129/174/15 130/173/15 102/148/15 101/145/15
f 130/173/54 131/175/54 103/150/54 102/148/54
f 131/175/55 132/176/55 104/152/55 103/150/55
f 132/176/18 133/177/18 105/154/18 104/152/18
f 123/167/56 97/129/56 99/143/56 128/172/56
f 119/162/48 96/136/48 95/130/48 118/163/48
