# Blender 3.6.5
# www.blender.org
mtllib Poly_SF_Outside_B_Junk_Stall_01_Lights.mtl
o Cube.003
v 1.499000 0.960104 0.200000
v 0.549000 0.960104 0.200000
v 1.499000 1.000105 0.200000
v 0.549000 1.000105 0.200000
v 1.499000 0.960104 0.300000
v 0.549000 0.960104 0.300000
v 1.499000 1.000105 0.300000
v 0.549000 1.000105 0.300000
v 1.019000 0.960104 0.200000
v 1.019000 1.000105 0.200000
v 1.019000 1.000105 0.300000
v 1.019000 0.960104 0.300000
v 0.549000 0.960104 0.200000
v -0.401000 0.960104 0.200000
v 0.549000 1.000105 0.200000
v -0.401000 1.000105 0.200000
v 0.549000 0.960104 0.300000
v -0.401000 0.960104 0.300000
v 0.549000 1.000105 0.300000
v -0.401000 1.000105 0.300000
v 0.069000 0.960104 0.200000
v 0.069000 1.000105 0.200000
v 0.069000 1.000105 0.300000
v 0.069000 0.960104 0.300000
v 0.784000 0.960104 0.200000
v 0.784000 1.000105 0.200000
v 0.784000 1.000105 0.300000
v 0.784000 0.960104 0.300000
v 1.259000 1.000105 0.200000
v 1.259000 1.000105 0.300000
v 1.259000 0.960104 0.300000
v 1.259000 0.960104 0.200000
v 0.309000 1.000105 0.200000
v 0.309000 1.000105 0.300000
v 0.309000 0.960104 0.300000
v 0.309000 0.960104 0.200000
v -0.166000 0.960104 0.200000
v -0.166000 1.000105 0.200000
v -0.166000 1.000105 0.300000
v -0.166000 0.960104 0.300000
vn -0.0000 -0.0000 -1.0000
vn -0.0000 1.0000 -0.0000
vn -0.0000 -0.0000 1.0000
vn -0.0000 -1.0000 -0.0000
vn 1.0000 -0.0000 -0.0000
vn -1.0000 -0.0000 -0.0000
vt 0.530561 0.113640
vt 0.516537 0.113640
vt 0.516537 0.115516
vt 0.530561 0.115516
vt 0.544747 0.113640
vt 0.544747 0.115516
vt 0.530561 0.113602
vt 0.544747 0.113602
vt 0.516537 0.113602
s 0
usemtl regular
f 25/1/1 2/2/1 4/3/1 26/4/1
f 26/1/2 4/2/2 8/3/2 27/4/2
f 27/1/3 8/2/3 6/3/3 28/4/3
f 28/1/4 6/2/4 2/3/4 25/4/4
f 3/2/5 7/3/5 5/3/5 1/3/5
f 8/2/6 4/5/6 2/6/6 6/3/6
f 31/1/4 12/5/4 9/6/4 32/4/4
f 30/7/3 11/8/3 12/6/3 31/4/3
f 29/1/2 10/5/2 11/6/2 30/4/2
f 32/1/1 9/5/1 10/6/1 29/4/1
f 37/1/1 14/2/1 16/3/1 38/4/1
f 38/1/2 16/2/2 20/3/2 39/4/2
f 39/1/3 20/2/3 18/3/3 40/4/3
f 40/1/4 18/2/4 14/3/4 37/4/4
f 15/2/5 19/5/5 17/6/5 13/3/5
f 20/9/6 16/8/6 14/6/6 18/3/6
f 1/2/1 32/1/1 29/4/1 3/3/1
f 3/2/2 29/1/2 30/4/2 7/3/2
f 7/2/3 30/1/3 31/4/3 5/3/3
f 5/2/4 31/1/4 32/4/4 1/3/4
f 13/2/1 36/1/1 33/4/1 15/3/1
f 15/2/2 33/1/2 34/4/2 19/3/2
f 19/2/3 34/1/3 35/4/3 17/3/3
f 17/2/4 35/1/4 36/4/4 13/3/4
f 24/5/4 40/1/4 37/4/4 21/6/4
f 23/5/3 39/1/3 40/4/3 24/6/3
f 22/5/2 38/1/2 39/4/2 23/6/2
f 21/5/1 37/1/1 38/4/1 22/6/1
f 24/6/5 21/5/5 22/5/5 23/5/5
f 36/4/6 35/1/6 34/1/6 33/1/6
f 28/4/5 25/1/5 26/1/5 27/1/5
f 12/6/6 11/8/6 10/5/6 9/5/6
