# Blender 3.6.5
# www.blender.org
mtllib Poly_SF_Outside_B_Window_05.mtl
o Cube.001
v 0.450000 0.050000 -0.400000
v 0.450000 0.700000 -0.400000
v -0.040000 0.050000 -0.400000
v -0.040000 0.700000 -0.400000
v 0.450000 0.640000 -0.400000
v -0.040000 0.640000 -0.400000
v -0.040000 0.100000 -0.400000
v 0.450000 0.100000 -0.400000
v 0.040000 0.050000 -0.400000
v 0.040000 0.700000 -0.400000
v 0.040000 0.640000 -0.400000
v 0.040000 0.100000 -0.400000
v 0.380000 0.050000 -0.400000
v 0.380000 0.700000 -0.400000
v 0.380000 0.640000 -0.400000
v 0.380000 0.100000 -0.400000
v 0.380000 0.640000 -0.420000
v 0.040000 0.640000 -0.420000
v 0.380000 0.100000 -0.420000
v 0.040000 0.100000 -0.420000
v 0.380000 0.400000 -0.400000
v 0.040000 0.400000 -0.400000
v -0.040000 0.400000 -0.400000
v 0.450000 0.400000 -0.400000
v -0.450000 0.050000 -0.400000
v -0.450000 0.700000 -0.400000
v -0.450000 0.640000 -0.400000
v -0.040000 0.640000 -0.420000
v -0.450000 0.100000 -0.400000
v -0.040000 0.100000 -0.420000
v -0.380000 0.050000 -0.400000
v -0.380000 0.700000 -0.400000
v -0.380000 0.640000 -0.400000
v -0.380000 0.100000 -0.400000
v -0.040000 0.050000 -0.400000
v -0.040000 0.700000 -0.400000
v -0.040000 0.640000 -0.400000
v -0.040000 0.100000 -0.400000
v -0.040000 0.640000 -0.420000
v -0.380000 0.640000 -0.420000
v -0.040000 0.100000 -0.420000
v -0.380000 0.100000 -0.420000
v 0.040000 0.400000 -0.420000
v 0.380000 0.400000 -0.420000
v -0.040000 0.400000 -0.420000
v -0.450000 0.400000 -0.400000
v -0.380000 0.400000 -0.400000
v -0.380000 0.400000 -0.420000
v -0.040000 0.400000 -0.420000
vn -0.0000 -0.0000 1.0000
vn -1.0000 -0.0000 -0.0000
vn -0.0000 -1.0000 -0.0000
vn 1.0000 -0.0000 -0.0000
vn -0.0000 1.0000 -0.0000
vt 0.157427 0.545658
vt 0.157427 0.549444
vt 0.153777 0.549444
vt 0.153777 0.545658
vt 0.158206 0.533992
vt 0.158206 0.545658
vt 0.157427 0.533992
vt 0.153777 0.533992
vt 0.139258 0.549444
vt 0.139258 0.545945
vt 0.153771 0.545945
vt 0.153771 0.549444
vt 0.158206 0.543673
vt 0.153751 0.549444
vt 0.153751 0.545945
vt 0.135475 0.545945
vt 0.135475 0.549444
vt 0.135475 0.533992
vt 0.135475 0.543673
vt 0.139258 0.543673
vt 0.139258 0.533992
vt 0.139420 0.533992
vt 0.139420 0.545428
vt 0.153552 0.545428
vt 0.153552 0.533992
vt 0.139258 0.548434
vt 0.157427 0.548434
vt 0.157427 0.549199
vt 0.139258 0.549199
vt 0.153777 0.548434
vt 0.158206 0.544438
vt 0.153777 0.549199
vt 0.135475 0.544438
vt 0.139258 0.544438
s 0
usemtl regular
f 11/1/1 10/2/1 4/3/1 6/4/1
f 23/5/2 6/6/2 28/6/2 45/5/2
f 22/7/1 11/1/1 6/4/1 23/8/1
f 9/2/1 12/1/1 7/4/1 3/3/1
f 13/9/1 16/10/1 12/11/1 9/12/1
f 21/5/2 15/13/2 17/13/2 44/5/2
f 15/10/1 14/9/1 10/14/1 11/15/1
f 5/16/1 2/17/1 14/9/1 15/10/1
f 24/18/1 5/19/1 15/20/1 21/21/1
f 1/17/1 8/16/1 16/10/1 13/9/1
f 44/22/1 17/23/1 18/24/1 43/25/1
f 15/26/3 11/27/3 18/27/3 17/26/3
f 22/5/4 12/6/4 20/6/4 43/5/4
f 12/28/5 16/29/5 19/29/5 20/28/5
f 19/23/1 44/22/1 43/25/1 20/24/1
f 11/6/4 22/5/4 43/5/4 18/6/4
f 33/10/1 32/9/1 26/17/1 27/16/1
f 47/21/1 33/20/1 27/19/1 46/18/1
f 31/9/1 34/10/1 29/16/1 25/17/1
f 35/12/1 38/11/1 34/10/1 31/9/1
f 37/15/1 36/14/1 32/9/1 33/10/1
f 49/25/1 39/24/1 40/23/1 48/22/1
f 37/30/3 33/26/3 40/26/3 39/30/3
f 47/5/4 34/31/4 42/31/4 48/5/4
f 34/29/5 38/32/5 41/32/5 42/29/5
f 8/33/1 24/18/1 21/21/1 16/34/1
f 16/31/2 21/5/2 44/5/2 19/31/2
f 12/1/1 22/7/1 23/8/1 7/4/1
f 7/6/2 23/5/2 45/5/2 30/6/2
f 33/13/4 47/5/4 48/5/4 40/13/4
f 41/24/1 49/25/1 48/22/1 42/23/1
f 34/34/1 47/21/1 46/18/1 29/33/1
o Cube.002
v -0.500000 0.050000 -0.360000
v -0.500000 0.050000 -0.500000
v -0.500000 0.000000 -0.360000
v -0.500000 0.000000 -0.500000
v 0.000000 0.000000 -0.500000
v 0.000000 0.000000 -0.360000
v 0.000000 0.050000 -0.360000
v 0.000000 0.050000 -0.500000
v -0.500000 0.350000 -0.500000
v -0.500000 0.350000 -0.360000
v -0.450000 0.350000 -0.360000
v -0.450000 0.350000 -0.500000
v -0.450000 0.700000 -0.500000
v -0.450000 0.050000 -0.500000
v -0.450000 0.700000 -0.360000
v -0.450000 0.050000 -0.360000
v -0.500000 0.700000 -0.500000
v -0.500000 0.050000 -0.500000
v -0.500000 0.700000 -0.360000
v -0.500000 0.050000 -0.360000
v -0.500000 0.750000 -0.360000
v -0.500000 0.750000 -0.500000
v -0.500000 0.700000 -0.360000
v -0.500000 0.700000 -0.500000
v 0.000000 0.700000 -0.500000
v 0.000000 0.700000 -0.360000
v 0.000000 0.750000 -0.360000
v 0.000000 0.750000 -0.500000
v -0.450000 0.380000 -0.360000
v -0.450000 0.380000 -0.380000
v -0.450000 0.330000 -0.360000
v -0.450000 0.330000 -0.380000
v 0.000000 0.330000 -0.380000
v 0.000000 0.330000 -0.360000
v 0.000000 0.380000 -0.360000
v 0.000000 0.380000 -0.380000
v 0.500000 0.050000 -0.360000
v 0.500000 0.050000 -0.500000
v 0.500000 0.000000 -0.360000
v 0.500000 0.000000 -0.500000
v 0.500000 0.350000 -0.500000
v 0.500000 0.350000 -0.360000
v 0.450000 0.350000 -0.360000
v 0.450000 0.350000 -0.500000
v 0.450000 0.700000 -0.500000
v 0.450000 0.050000 -0.500000
v 0.450000 0.700000 -0.360000
v 0.450000 0.050000 -0.360000
v 0.500000 0.700000 -0.500000
v 0.500000 0.050000 -0.500000
v 0.500000 0.700000 -0.360000
v 0.500000 0.050000 -0.360000
v 0.500000 0.750000 -0.360000
v 0.500000 0.750000 -0.500000
v 0.500000 0.700000 -0.360000
v 0.500000 0.700000 -0.500000
v 0.450000 0.380000 -0.360000
v 0.450000 0.380000 -0.380000
v 0.450000 0.330000 -0.360000
v 0.450000 0.330000 -0.380000
vn -0.0000 -1.0000 -0.0000
vn -0.0000 -0.0000 1.0000
vn -1.0000 -0.0000 -0.0000
vn -0.0000 1.0000 -0.0000
vn 1.0000 -0.0000 -0.0000
vn -0.0000 -0.0000 -1.0000
vt 0.136604 0.549259
vt 0.132954 0.549259
vt 0.136604 0.534142
vt 0.132954 0.534142
vt 0.136604 0.546915
vt 0.136604 0.549123
vt 0.132954 0.549123
vt 0.132954 0.546915
vt 0.136604 0.534100
vt 0.132954 0.534100
vt 0.139176 0.532466
vt 0.135526 0.532466
vt 0.135526 0.517348
vt 0.139176 0.517348
s 0
usemtl regular
f 53/35/6 54/35/6 55/36/6 52/36/6
f 65/35/7 60/37/7 59/38/7 69/36/7
f 52/35/7 55/37/7 56/38/7 50/36/7
f 51/39/8 53/40/8 52/41/8 50/42/8
f 50/36/9 56/38/9 57/37/9 51/35/9
f 60/37/7 64/35/7 68/36/7 59/38/7
f 61/37/10 62/35/10 64/36/10 60/38/10
f 59/38/8 68/42/8 66/39/8 58/37/8
f 67/40/6 63/43/6 65/44/6 69/41/6
f 69/42/8 59/38/8 58/37/8 67/39/8
f 63/35/10 61/35/10 60/36/10 65/36/10
f 73/35/6 74/35/6 75/36/6 72/36/6
f 72/35/7 75/37/7 76/38/7 70/36/7
f 71/40/8 73/39/8 72/42/8 70/41/8
f 70/36/9 76/38/9 77/37/9 71/35/9
f 81/45/6 82/45/6 83/46/6 80/46/6
f 79/46/11 85/47/11 82/48/11 81/45/11
f 80/45/7 83/48/7 84/47/7 78/46/7
f 78/46/9 84/47/9 85/48/9 79/45/9
f 89/35/6 88/36/6 55/36/6 54/35/6
f 97/35/7 101/36/7 91/38/7 92/37/7
f 88/35/7 86/36/7 56/38/7 55/37/7
f 87/39/10 86/42/10 88/41/10 89/40/10
f 86/36/9 87/35/9 57/37/9 56/38/9
f 92/37/7 91/38/7 100/36/7 96/35/7
f 93/37/8 92/38/8 96/36/8 94/35/8
f 91/38/10 90/37/10 98/39/10 100/42/10
f 99/40/6 101/41/6 97/44/6 95/43/6
f 101/42/10 99/39/10 90/37/10 91/38/10
f 95/35/8 97/36/8 92/36/8 93/35/8
f 105/35/6 104/36/6 75/36/6 74/35/6
f 104/35/7 102/36/7 76/38/7 75/37/7
f 103/40/10 102/41/10 104/42/10 105/39/10
f 102/36/9 103/35/9 77/37/9 76/38/9
f 109/45/6 108/46/6 83/46/6 82/45/6
f 107/46/11 109/45/11 82/48/11 85/47/11
f 108/45/7 106/46/7 84/47/7 83/48/7
f 106/46/9 107/45/9 85/48/9 84/47/9
o Cube.003
v -0.360000 0.330000 -0.360000
v -0.360000 0.330000 -0.380000
v -0.400000 0.330000 -0.360000
v -0.400000 0.330000 -0.380000
v -0.400000 0.050000 -0.380000
v -0.400000 0.050000 -0.360000
v -0.360000 0.050000 -0.360000
v -0.360000 0.050000 -0.380000
v -0.250000 0.330000 -0.360000
v -0.250000 0.330000 -0.380000
v -0.290000 0.330000 -0.360000
v -0.290000 0.330000 -0.380000
v -0.290000 0.050000 -0.380000
v -0.290000 0.050000 -0.360000
v -0.250000 0.050000 -0.360000
v -0.250000 0.050000 -0.380000
v -0.140000 0.330000 -0.360000
v -0.140000 0.330000 -0.380000
v -0.180000 0.330000 -0.360000
v -0.180000 0.330000 -0.380000
v -0.180000 0.050000 -0.380000
v -0.180000 0.050000 -0.360000
v -0.140000 0.050000 -0.360000
v -0.140000 0.050000 -0.380000
v -0.030000 0.330000 -0.360000
v -0.030000 0.330000 -0.380000
v -0.070000 0.330000 -0.360000
v -0.070000 0.330000 -0.380000
v -0.070000 0.050000 -0.380000
v -0.070000 0.050000 -0.360000
v -0.030000 0.050000 -0.360000
v -0.030000 0.050000 -0.380000
v 0.080000 0.330000 -0.360000
v 0.080000 0.330000 -0.380000
v 0.040000 0.330000 -0.360000
v 0.040000 0.330000 -0.380000
v 0.040000 0.050000 -0.380000
v 0.040000 0.050000 -0.360000
v 0.080000 0.050000 -0.360000
v 0.080000 0.050000 -0.380000
v 0.180000 0.330000 -0.360000
v 0.180000 0.330000 -0.380000
v 0.140000 0.330000 -0.360000
v 0.140000 0.330000 -0.380000
v 0.140000 0.050000 -0.380000
v 0.140000 0.050000 -0.360000
v 0.180000 0.050000 -0.360000
v 0.180000 0.050000 -0.380000
v 0.290000 0.330000 -0.360000
v 0.290000 0.330000 -0.380000
v 0.250000 0.330000 -0.360000
v 0.250000 0.330000 -0.380000
v 0.250000 0.050000 -0.380000
v 0.250000 0.050000 -0.360000
v 0.290000 0.050000 -0.360000
v 0.290000 0.050000 -0.380000
v 0.400000 0.330000 -0.360000
v 0.400000 0.330000 -0.380000
v 0.360000 0.330000 -0.360000
v 0.360000 0.330000 -0.380000
v 0.360000 0.050000 -0.380000
v 0.360000 0.050000 -0.360000
v 0.400000 0.050000 -0.360000
v 0.400000 0.050000 -0.380000
vn -1.0000 -0.0000 -0.0000
vn -0.0000 -0.0000 -1.0000
vn -0.0000 -0.0000 1.0000
vn 1.0000 -0.0000 -0.0000
vt 0.139176 0.517348
vt 0.135526 0.517348
vt 0.135526 0.532466
vt 0.139176 0.532466
s 0
usemtl regular
f 113/49/12 114/49/12 115/50/12 112/50/12
f 111/50/13 117/51/13 114/52/13 113/49/13
f 112/49/14 115/52/14 116/51/14 110/50/14
f 110/50/15 116/51/15 117/52/15 111/49/15
f 121/49/12 122/49/12 123/50/12 120/50/12
f 119/50/13 125/51/13 122/52/13 121/49/13
f 120/49/14 123/52/14 124/51/14 118/50/14
f 118/50/15 124/51/15 125/52/15 119/49/15
f 129/49/12 130/49/12 131/50/12 128/50/12
f 127/50/13 133/51/13 130/52/13 129/49/13
f 128/49/14 131/52/14 132/51/14 126/50/14
f 126/50/15 132/51/15 133/52/15 127/49/15
f 137/49/12 138/49/12 139/50/12 136/50/12
f 135/50/13 141/51/13 138/52/13 137/49/13
f 136/49/14 139/52/14 140/51/14 134/50/14
f 134/50/15 140/51/15 141/52/15 135/49/15
f 145/49/12 146/49/12 147/50/12 144/50/12
f 143/50/13 149/51/13 146/52/13 145/49/13
f 144/49/14 147/52/14 148/51/14 142/50/14
f 142/50/15 148/51/15 149/52/15 143/49/15
f 153/49/12 154/49/12 155/50/12 152/50/12
f 151/50/13 157/51/13 154/52/13 153/49/13
f 152/49/14 155/52/14 156/51/14 150/50/14
f 150/50/15 156/51/15 157/52/15 151/49/15
f 161/49/12 162/49/12 163/50/12 160/50/12
f 159/50/13 165/51/13 162/52/13 161/49/13
f 160/49/14 163/52/14 164/51/14 158/50/14
f 158/50/15 164/51/15 165/52/15 159/49/15
f 169/49/12 170/49/12 171/50/12 168/50/12
f 167/50/13 173/51/13 170/52/13 169/49/13
f 168/49/14 171/52/14 172/51/14 166/50/14
f 166/50/15 172/51/15 173/52/15 167/49/15
