# Blender v3.0.1 OBJ File: 'Poly_Pot_01.blend'
# www.blender.org
mtllib Poly_Pot_02_Snow.mtl
o Torus
v 0.354422 0.216649 0.000014
v 0.210403 0.485077 0.000014
v 0.171902 0.493864 0.000014
v 0.166168 0.472762 0.000014
v 0.178027 0.021976 0.000014
v 0.184170 -0.000632 0.000014
v 0.225419 0.008782 0.000014
v 0.250611 0.216649 -0.250608
v 0.148775 0.485077 -0.148771
v 0.121550 0.493864 -0.121546
v 0.117495 0.472762 -0.117492
v 0.125881 0.021976 -0.125877
v 0.130225 -0.000632 -0.130221
v 0.159393 0.008782 -0.159389
v -0.000010 0.216649 -0.354418
v -0.000010 0.485077 -0.210400
v -0.000010 0.493864 -0.171898
v -0.000010 0.472762 -0.166164
v -0.000010 0.021976 -0.178023
v -0.000010 -0.000632 -0.184166
v -0.000010 0.008782 -0.225415
v -0.250632 0.216649 -0.250608
v -0.148795 0.485077 -0.148771
v -0.121570 0.493864 -0.121546
v -0.117516 0.472762 -0.117492
v -0.125902 0.021976 -0.125877
v -0.130245 -0.000632 -0.130221
v -0.159413 0.008782 -0.159389
v -0.354443 0.216649 0.000014
v -0.210424 0.485077 0.000014
v -0.171922 0.493864 0.000014
v -0.166188 0.472762 0.000014
v -0.178047 0.021976 0.000014
v -0.184190 -0.000632 0.000014
v -0.225440 0.008782 0.000014
v -0.250632 0.216649 0.250636
v -0.148795 0.485077 0.148799
v -0.121570 0.493864 0.121574
v -0.117516 0.472762 0.117520
v -0.125902 0.021976 0.125905
v -0.130245 -0.000632 0.130249
v -0.159413 0.008782 0.159417
v -0.000010 0.216649 0.354446
v -0.000010 0.485077 0.210428
v -0.000010 0.493864 0.171926
v -0.000010 0.472762 0.166192
v -0.000010 0.021976 0.178051
v -0.000010 -0.000632 0.184194
v -0.000010 0.008782 0.225444
v 0.250611 0.216649 0.250636
v 0.148775 0.485077 0.148799
v 0.121550 0.493864 0.121574
v 0.117495 0.472762 0.117520
v 0.125881 0.021976 0.125905
v 0.130225 -0.000632 0.130249
v 0.159392 0.008782 0.159417
v 0.337300 0.334301 0.000014
v 0.238504 0.334301 -0.238500
v -0.000010 0.334301 -0.337296
v -0.238524 0.334301 -0.238500
v -0.337320 0.334301 0.000014
v -0.238524 0.334301 0.238528
v -0.000010 0.334301 0.337324
v 0.238504 0.334301 0.238528
v 0.316697 0.112716 0.000014
v -0.316718 0.112716 0.000014
v -0.223956 0.112716 -0.223932
v -0.000010 0.112716 0.316721
v 0.223936 0.112716 -0.223932
v -0.223956 0.112716 0.223960
v -0.000010 0.112716 -0.316693
v 0.223936 0.112716 0.223960
v 0.186830 0.432243 0.000014
v 0.132106 0.432243 -0.132102
v -0.000010 0.432243 -0.186827
v -0.132127 0.432243 -0.132102
v -0.186851 0.432243 0.000014
v -0.132127 0.432243 0.132130
v -0.000010 0.432243 0.186855
v 0.132106 0.432243 0.132130
v 0.151288 0.414630 0.000014
v 0.106974 0.414630 -0.106970
v -0.000010 0.414630 -0.151284
v -0.106994 0.414630 -0.106970
v -0.151309 0.414630 0.000014
v -0.106994 0.414630 0.106998
v -0.000010 0.414630 0.151313
v 0.106974 0.414630 0.106998
v 0.285469 0.216145 0.000014
v 0.201854 0.216145 -0.201850
v -0.000010 0.216145 -0.285465
v -0.201875 0.216145 -0.201850
v -0.285490 0.216145 0.000014
v -0.201875 0.216145 0.201878
v -0.000010 0.216145 0.285494
v 0.201854 0.216145 0.201879
vt 0.837760 0.467712
vt 0.847170 0.467712
vt 0.847170 0.475441
vt 0.837760 0.475441
vt 0.847170 0.444401
vt 0.837760 0.444401
vt 0.847170 0.475441
vt 0.837760 0.475441
vt 0.837760 0.467712
vt 0.847170 0.467712
vt 0.847170 0.475441
vt 0.837760 0.475441
vt 0.847170 0.444401
vt 0.837760 0.444401
vt 0.847170 0.475441
vt 0.837760 0.475441
vt 0.837760 0.459541
vt 0.847170 0.459541
vt 0.846969 0.449734
vt 0.837559 0.449734
vt 0.837760 0.467712
vt 0.837760 0.475441
vt 0.837760 0.444401
vt 0.837760 0.475441
vt 0.837760 0.467712
vt 0.837760 0.475441
vt 0.837760 0.444401
vt 0.837760 0.475441
vt 0.837760 0.459541
vt 0.837559 0.449734
vt 0.847170 0.467712
vt 0.847170 0.475441
vt 0.847170 0.444401
vt 0.847170 0.475441
vt 0.847170 0.467712
vt 0.847170 0.475441
vt 0.847170 0.444401
vt 0.847170 0.475441
vt 0.847170 0.459541
vt 0.846969 0.449734
vt 0.837760 0.467712
vt 0.837760 0.475441
vt 0.837760 0.444401
vt 0.837760 0.475441
vt 0.837760 0.467712
vt 0.837760 0.475441
vt 0.837760 0.444401
vt 0.837760 0.475441
vt 0.837760 0.459541
vt 0.837559 0.449734
vt 0.847170 0.467712
vt 0.847170 0.475441
vt 0.847170 0.444401
vt 0.847170 0.475441
vt 0.847170 0.467712
vt 0.847170 0.475441
vt 0.847170 0.444401
vt 0.847170 0.475441
vt 0.847170 0.459541
vt 0.846969 0.449734
vt 0.837760 0.467712
vt 0.837760 0.475441
vt 0.837760 0.444401
vt 0.837760 0.475441
vt 0.837760 0.467712
vt 0.837760 0.475441
vt 0.837760 0.444401
vt 0.837760 0.475441
vt 0.837760 0.459541
vt 0.837559 0.449734
vt 0.847170 0.467712
vt 0.847170 0.475441
vt 0.847170 0.444401
vt 0.847170 0.475441
vt 0.847170 0.467712
vt 0.847170 0.475441
vt 0.847170 0.444401
vt 0.847170 0.475441
vt 0.847170 0.459541
vt 0.846969 0.449734
vt 0.837760 0.459541
vt 0.847170 0.459541
vt 0.837760 0.459541
vt 0.847170 0.459541
vt 0.837760 0.459541
vt 0.847170 0.459541
vt 0.837760 0.459541
vt 0.847170 0.459541
vt 0.837760 0.444401
vt 0.837760 0.444401
vt 0.837760 0.444401
vt 0.837760 0.444401
vt 0.837760 0.444401
vt 0.837760 0.444401
vt 0.837760 0.444401
vt 0.837760 0.444401
vt 0.837760 0.444401
vt 0.837760 0.444401
vt 0.837760 0.444401
vt 0.837760 0.444401
vt 0.847170 0.444401
vt 0.837760 0.444401
vt 0.837760 0.459541
vt 0.847170 0.459541
vt 0.837760 0.444401
vt 0.837760 0.459541
vt 0.847170 0.444401
vt 0.847170 0.459541
vt 0.837760 0.444401
vt 0.837760 0.459541
vt 0.847170 0.444401
vt 0.847170 0.459541
vt 0.837760 0.444401
vt 0.837760 0.459541
vt 0.847170 0.444401
vt 0.847170 0.459541
vn 0.8542 -0.3811 -0.3538
vn 0.2216 0.9708 -0.0918
vn -0.8961 0.2435 0.3712
vn -0.8226 0.4552 0.3407
vn -0.8961 -0.2435 0.3712
vn 0.2216 -0.9708 -0.0918
vn 0.8759 -0.3179 -0.3628
vn 0.3538 -0.3811 -0.8542
vn 0.0918 0.9708 -0.2216
vn -0.3712 0.2435 0.8961
vn -0.3407 0.4552 0.8226
vn -0.3712 -0.2435 0.8961
vn 0.0918 -0.9708 -0.2216
vn 0.3628 -0.3179 -0.8759
vn -0.3538 -0.3811 -0.8542
vn -0.0918 0.9708 -0.2216
vn 0.3712 0.2435 0.8961
vn 0.3407 0.4552 0.8226
vn 0.3712 -0.2435 0.8961
vn -0.0918 -0.9708 -0.2216
vn -0.3628 -0.3179 -0.8759
vn -0.8542 -0.3811 -0.3538
vn -0.2216 0.9708 -0.0918
vn 0.8961 0.2435 0.3712
vn 0.8226 0.4552 0.3407
vn 0.8961 -0.2435 0.3712
vn -0.2216 -0.9708 -0.0918
vn -0.8759 -0.3179 -0.3628
vn -0.8542 -0.3811 0.3538
vn -0.2216 0.9708 0.0918
vn 0.8961 0.2435 -0.3712
vn 0.8226 0.4552 -0.3407
vn 0.8961 -0.2435 -0.3712
vn -0.2216 -0.9708 0.0918
vn -0.8759 -0.3179 0.3628
vn -0.3538 -0.3811 0.8542
vn -0.0918 0.9708 0.2216
vn 0.3712 0.2435 -0.8961
vn 0.3407 0.4552 -0.8226
vn 0.3712 -0.2435 -0.8961
vn -0.0918 -0.9708 0.2216
vn -0.3628 -0.3179 0.8759
vn 0.3538 -0.3811 0.8542
vn 0.0918 0.9708 0.2216
vn -0.3712 0.2435 -0.8961
vn -0.3407 0.4552 -0.8226
vn -0.3712 -0.2435 -0.8961
vn 0.0918 -0.9708 0.2216
vn 0.3628 -0.3179 0.8759
vn 0.8542 -0.3811 0.3538
vn 0.2216 0.9708 0.0918
vn -0.8961 0.2435 -0.3712
vn -0.8226 0.4552 -0.3407
vn -0.8961 -0.2435 -0.3712
vn 0.2216 -0.9708 0.0918
vn 0.8759 -0.3179 0.3628
vn 0.9156 0.1333 0.3793
vn 0.3793 0.1333 0.9156
vn -0.3793 0.1333 0.9156
vn -0.9156 0.1333 0.3793
vn -0.9156 0.1333 -0.3793
vn -0.3793 0.1333 -0.9156
vn 0.3793 0.1333 -0.9156
vn 0.9156 0.1333 -0.3793
vn 0.7174 -0.6301 0.2972
vn 0.2972 -0.6301 0.7174
vn -0.2972 -0.6301 0.7174
vn -0.7174 -0.6301 0.2972
vn -0.7174 -0.6301 -0.2972
vn -0.2972 -0.6301 -0.7174
vn 0.2972 -0.6301 -0.7174
vn 0.7174 -0.6301 -0.2972
vn 0.5321 0.8175 0.2204
vn 0.2204 0.8175 0.5321
vn -0.2204 0.8175 0.5321
vn -0.5321 0.8175 0.2204
vn -0.5321 0.8175 -0.2204
vn -0.2204 0.8175 -0.5321
vn 0.2204 0.8175 -0.5321
vn 0.5321 0.8175 -0.2204
vn 0.0000 -1.0000 0.0000
vn -0.8991 0.2301 -0.3724
vn -0.3724 0.2301 -0.8991
vn 0.3724 0.2301 -0.8991
vn 0.8991 0.2301 -0.3724
vn 0.8991 0.2301 0.3724
vn 0.3724 0.2301 0.8991
vn -0.3724 0.2301 0.8991
vn -0.8991 0.2301 0.3724
vn -0.7836 -0.5297 -0.3246
vn -0.3246 -0.5297 -0.7836
vn 0.3246 -0.5297 -0.7836
vn 0.7836 -0.5297 -0.3246
vn 0.7836 -0.5297 0.3246
vn 0.3246 -0.5297 0.7836
vn -0.3246 -0.5297 0.7836
vn -0.7836 -0.5297 0.3246
usemtl Material
s off
f 73/1/1 74/2/1 9/3/1 2/4/1
f 2/4/2 9/3/2 10/5/2 3/6/2
f 3/6/3 10/5/3 11/7/3 4/8/3
f 89/9/4 90/10/4 12/11/4 5/12/4
f 5/12/5 12/11/5 13/13/5 6/14/5
f 6/14/6 13/13/6 14/15/6 7/16/6
f 65/17/7 69/18/7 8/19/7 1/20/7
f 74/2/8 75/21/8 16/22/8 9/3/8
f 9/3/9 16/22/9 17/23/9 10/5/9
f 10/5/10 17/23/10 18/24/10 11/7/10
f 90/10/11 91/25/11 19/26/11 12/11/11
f 12/11/12 19/26/12 20/27/12 13/13/12
f 13/13/13 20/27/13 21/28/13 14/15/13
f 69/18/14 71/29/14 15/30/14 8/19/14
f 75/21/15 76/31/15 23/32/15 16/22/15
f 16/22/16 23/32/16 24/33/16 17/23/16
f 17/23/17 24/33/17 25/34/17 18/24/17
f 91/25/18 92/35/18 26/36/18 19/26/18
f 19/26/19 26/36/19 27/37/19 20/27/19
f 20/27/20 27/37/20 28/38/20 21/28/20
f 71/29/21 67/39/21 22/40/21 15/30/21
f 76/31/22 77/41/22 30/42/22 23/32/22
f 23/32/23 30/42/23 31/43/23 24/33/23
f 24/33/24 31/43/24 32/44/24 25/34/24
f 92/35/25 93/45/25 33/46/25 26/36/25
f 26/36/26 33/46/26 34/47/26 27/37/26
f 27/37/27 34/47/27 35/48/27 28/38/27
f 67/39/28 66/49/28 29/50/28 22/40/28
f 77/41/29 78/51/29 37/52/29 30/42/29
f 30/42/30 37/52/30 38/53/30 31/43/30
f 31/43/31 38/53/31 39/54/31 32/44/31
f 93/45/32 94/55/32 40/56/32 33/46/32
f 33/46/33 40/56/33 41/57/33 34/47/33
f 34/47/34 41/57/34 42/58/34 35/48/34
f 66/49/35 70/59/35 36/60/35 29/50/35
f 78/51/36 79/61/36 44/62/36 37/52/36
f 37/52/37 44/62/37 45/63/37 38/53/37
f 38/53/38 45/63/38 46/64/38 39/54/38
f 94/55/39 95/65/39 47/66/39 40/56/39
f 40/56/40 47/66/40 48/67/40 41/57/40
f 41/57/41 48/67/41 49/68/41 42/58/41
f 70/59/42 68/69/42 43/70/42 36/60/42
f 79/61/43 80/71/43 51/72/43 44/62/43
f 44/62/44 51/72/44 52/73/44 45/63/44
f 45/63/45 52/73/45 53/74/45 46/64/45
f 95/65/46 96/75/46 54/76/46 47/66/46
f 47/66/47 54/76/47 55/77/47 48/67/47
f 48/67/48 55/77/48 56/78/48 49/68/48
f 68/69/49 72/79/49 50/80/49 43/70/49
f 80/71/50 73/1/50 2/4/50 51/72/50
f 51/72/51 2/4/51 3/6/51 52/73/51
f 52/73/52 3/6/52 4/8/52 53/74/52
f 96/75/53 89/9/53 5/12/53 54/76/53
f 54/76/54 5/12/54 6/14/54 55/77/54
f 55/77/55 6/14/55 7/16/55 56/78/55
f 72/79/56 65/17/56 1/20/56 50/80/56
f 50/80/57 1/20/57 57/81/57 64/82/57
f 43/70/58 50/80/58 64/82/58 63/83/58
f 36/60/59 43/70/59 63/83/59 62/84/59
f 29/50/60 36/60/60 62/84/60 61/85/60
f 22/40/61 29/50/61 61/85/61 60/86/61
f 15/30/62 22/40/62 60/86/62 59/87/62
f 8/19/63 15/30/63 59/87/63 58/88/63
f 1/20/64 8/19/64 58/88/64 57/81/64
f 56/78/65 7/16/65 65/17/65 72/79/65
f 49/68/66 56/78/66 72/79/66 68/69/66
f 42/58/67 49/68/67 68/69/67 70/59/67
f 35/48/68 42/58/68 70/59/68 66/49/68
f 28/38/69 35/48/69 66/49/69 67/39/69
f 21/28/70 28/38/70 67/39/70 71/29/70
f 14/15/71 21/28/71 71/29/71 69/18/71
f 7/16/72 14/15/72 69/18/72 65/17/72
f 64/82/73 57/81/73 73/1/73 80/71/73
f 63/83/74 64/82/74 80/71/74 79/61/74
f 62/84/75 63/83/75 79/61/75 78/51/75
f 61/85/76 62/84/76 78/51/76 77/41/76
f 60/86/77 61/85/77 77/41/77 76/31/77
f 59/87/78 60/86/78 76/31/78 75/21/78
f 58/88/79 59/87/79 75/21/79 74/2/79
f 57/81/80 58/88/80 74/2/80 73/1/80
f 5/89/81 54/90/81 47/91/81 40/92/81 33/93/81 26/94/81 19/95/81 12/96/81
f 20/27/81 13/97/81 6/14/81 55/98/81 48/67/81 41/99/81 34/47/81 27/100/81
f 53/101/82 4/102/82 81/103/82 88/104/82
f 46/105/83 53/101/83 88/104/83 87/106/83
f 39/107/84 46/105/84 87/106/84 86/108/84
f 32/109/85 39/107/85 86/108/85 85/110/85
f 25/111/86 32/109/86 85/110/86 84/112/86
f 18/113/87 25/111/87 84/112/87 83/114/87
f 11/115/88 18/113/88 83/114/88 82/116/88
f 4/102/89 11/115/89 82/116/89 81/103/89
f 88/104/90 81/103/90 89/9/90 96/75/90
f 87/106/91 88/104/91 96/75/91 95/65/91
f 86/108/92 87/106/92 95/65/92 94/55/92
f 85/110/93 86/108/93 94/55/93 93/45/93
f 84/112/94 85/110/94 93/45/94 92/35/94
f 83/114/95 84/112/95 92/35/95 91/25/95
f 82/116/96 83/114/96 91/25/96 90/10/96
f 81/103/97 82/116/97 90/10/97 89/9/97
o Cylinder
v -0.000010 0.013239 -0.203711
v -0.000010 0.039879 -0.227122
v 0.144045 0.013239 -0.144041
v 0.160599 0.039879 -0.160595
v 0.203715 0.013239 0.000014
v 0.227126 0.039879 0.000014
v 0.144045 0.013239 0.144069
v 0.160599 0.039879 0.160623
v -0.000010 0.013239 0.203739
v -0.000010 0.039879 0.227150
v -0.144065 0.013239 0.144069
v -0.160619 0.039879 0.160623
v -0.203735 0.013239 0.000014
v -0.227146 0.039879 0.000014
v -0.144065 0.013239 -0.144041
v -0.160620 0.039879 -0.160595
vt 0.843369 0.492575
vt 0.843369 0.493423
vt 0.849192 0.491011
vt 0.848592 0.490411
vt 0.851604 0.485188
vt 0.850756 0.485188
vt 0.849192 0.479365
vt 0.848592 0.479965
vt 0.843369 0.476953
vt 0.843369 0.477801
vt 0.837546 0.479365
vt 0.838146 0.479965
vt 0.835133 0.485188
vt 0.835982 0.485188
vt 0.837546 0.491011
vt 0.838146 0.490411
vn 0.2971 -0.6303 -0.7172
vn 0.7172 -0.6303 -0.2971
vn 0.7172 -0.6303 0.2971
vn 0.2971 -0.6303 0.7172
vn -0.2971 -0.6303 0.7172
vn -0.7172 -0.6303 0.2971
vn 0.0000 1.0000 -0.0000
vn -0.7172 -0.6303 -0.2971
vn -0.2971 -0.6303 -0.7172
vn 0.0000 -1.0000 -0.0000
usemtl Material
s off
f 97/117/98 98/118/98 100/119/98 99/120/98
f 99/120/99 100/119/99 102/121/99 101/122/99
f 101/122/100 102/121/100 104/123/100 103/124/100
f 103/124/101 104/123/101 106/125/101 105/126/101
f 105/126/102 106/125/102 108/127/102 107/128/102
f 107/128/103 108/127/103 110/129/103 109/130/103
f 100/119/104 98/118/104 112/131/104 110/129/104 108/127/104 106/125/104 104/123/104 102/121/104
f 109/130/105 110/129/105 112/131/105 111/132/105
f 111/132/106 112/131/106 98/118/106 97/117/106
f 97/117/107 99/120/107 101/122/107 103/124/107 105/126/107 107/128/107 109/130/107 111/132/107
