# Blender v3.0.1 OBJ File: 'Poly_Tomb_Stone_02.blend'
# www.blender.org
mtllib Poly_Tomb_Stone_02.mtl
o Cube
v -0.403262 -0.001871 0.376921
v -0.403262 0.199754 0.376921
v -0.403262 -0.001871 -0.429582
v -0.403262 0.199754 -0.429582
v 0.403240 -0.001871 0.376921
v 0.403240 0.199754 0.376921
v 0.403240 -0.001871 -0.429582
v 0.403240 0.199754 -0.429582
v -0.120986 -0.001871 -0.429582
v -0.120986 0.199754 -0.429582
v -0.120986 -0.001871 0.376921
v -0.120986 0.199754 0.376921
v 0.120964 0.199754 -0.429582
v 0.120964 -0.001871 0.376921
v 0.120964 -0.001871 -0.429582
v 0.120964 0.199754 0.376921
v -0.403262 -0.001871 0.235783
v -0.403262 0.199754 0.235783
v 0.403240 -0.001871 0.235783
v 0.403240 0.199754 0.235783
v -0.120986 0.199754 0.235783
v -0.120986 -0.001871 0.235783
v 0.120964 0.199754 0.235783
v 0.120964 -0.001871 0.235783
v 0.120964 0.020830 0.376921
v -0.120986 0.020830 0.376921
v -0.120986 0.179154 0.235783
v 0.120964 0.179154 0.235783
v -0.121000 -0.002000 0.236000
v -0.121000 -0.002000 0.377000
v 0.121000 -0.002000 0.377000
v 0.121000 -0.002000 0.236000
vt 0.942079 0.884790
vt 0.948253 0.884790
vt 0.948253 0.910832
vt 0.942079 0.910832
vt 0.942079 0.884790
vt 0.948253 0.884790
vt 0.948253 0.881786
vt 0.942079 0.881786
vt 0.959878 0.880054
vt 0.959878 0.878111
vt 0.959878 0.876915
vt 0.941967 0.876915
vt 0.941967 0.880054
vt 0.977166 0.884710
vt 0.996168 0.884710
vt 0.996168 0.884060
vt 0.977166 0.884060
vt 0.954657 0.904567
vt 0.948506 0.904567
vt 0.948506 0.892591
vt 0.954657 0.892591
vt 0.977166 0.884710
vt 0.960878 0.884710
vt 0.960878 0.884710
vt 0.977166 0.884710
vt 0.941876 0.884710
vt 0.960878 0.884710
vt 0.960878 0.884060
vt 0.941876 0.884060
vt 0.954919 0.912829
vt 0.954888 0.904646
vt 0.954856 0.895887
vt 0.948515 0.895895
vt 0.948548 0.904655
vt 0.948578 0.912837
vt 0.948502 0.920822
vt 0.954843 0.920814
vt 0.941967 0.880054
vt 0.941967 0.876915
vt 0.959878 0.876915
vt 0.959878 0.880054
vt 0.959878 0.880054
vt 0.948506 0.904567
vt 0.954657 0.904567
vt 0.954657 0.892591
vt 0.948506 0.892591
vt 0.977166 0.884710
vt 0.960878 0.884710
vt 0.960878 0.887774
vt 0.977166 0.887774
vt 0.948506 0.925483
vt 0.954657 0.925483
vt 0.948506 0.925483
vt 0.954657 0.925483
vt 0.954657 0.904567
vt 0.948506 0.904567
vt 0.948506 0.925483
vt 0.954657 0.925483
vt 0.948506 0.904567
vt 0.948506 0.925483
vt 0.948506 0.925483
vt 0.954657 0.925483
vt 0.954657 0.904567
vt 0.948506 0.904567
vt 0.942079 0.910832
vt 0.948253 0.910832
vt 0.942079 0.881786
vt 0.948253 0.881786
vt 0.978751 0.883471
vt 0.960171 0.883471
vt 0.960171 0.876682
vt 0.978751 0.876682
vt 0.960878 0.884060
vt 0.960878 0.884060
vt 0.977166 0.884060
vt 0.977166 0.884060
vt 0.960878 0.884060
vt 0.977166 0.884060
vt 0.960576 0.883307
vt 0.978267 0.883307
vt 0.978267 0.876686
vt 0.960576 0.876686
vn -1.0000 0.0000 0.0000
vn 1.0000 0.0000 0.0000
vn 0.0000 0.0000 1.0000
vn 0.0000 -1.0000 0.0000
vn 0.0000 1.0000 0.0000
vn 0.0000 0.0000 -1.0000
vn 0.0000 -0.8602 -0.5100
vn 0.0000 0.6654 0.7465
vn -0.0000 0.0035 1.0000
vn -0.9945 0.1051 0.0000
vn 0.9638 0.2666 0.0000
usemtl Material
s off
f 17/1/1 18/2/1 4/3/1 3/4/1
f 19/5/2 20/6/2 6/7/2 5/8/2
f 11/9/3 26/10/3 12/11/3 2/12/3 1/13/3
f 24/14/4 19/15/4 5/16/4 14/17/4
f 21/18/5 18/19/5 2/20/5 12/21/5
f 23/22/3 21/23/3 27/24/3 28/25/3
f 17/26/4 22/27/4 11/28/4 1/29/4
f 10/30/6 13/31/6 8/32/6 7/33/6 15/34/6 9/35/6 3/36/6 4/37/6
f 5/38/3 6/39/3 16/40/3 25/41/3 14/42/3
f 20/43/5 23/44/5 16/45/5 6/46/5
f 22/27/7 24/14/7 32/47/7 29/48/7
f 9/49/4 15/50/4 24/14/4 22/27/4
f 8/51/5 13/52/5 23/44/5 20/43/5
f 3/53/4 9/54/4 22/55/4 17/56/4
f 13/57/5 10/58/5 21/18/5 23/59/5
f 10/58/5 4/60/5 18/19/5 21/18/5
f 15/61/4 7/62/4 19/63/4 24/64/4
f 7/65/2 8/66/2 20/6/2 19/5/2
f 1/67/1 2/68/1 18/2/1 17/1/1
f 28/69/8 27/70/8 26/71/8 25/72/8
f 21/23/2 12/73/2 26/74/2 27/24/2
f 16/75/1 23/22/1 28/25/1 25/76/1
f 14/17/9 25/76/9 26/74/9 11/28/9 30/77/9 31/78/9
f 29/79/4 32/80/4 31/81/4 30/82/4
f 11/28/10 22/27/10 29/48/10 30/77/10
f 24/14/11 14/17/11 31/78/11 32/47/11
o Cube.001
v 0.302428 0.744144 -0.046493
v 0.302428 0.199754 -0.046493
v 0.302428 0.744144 -0.288444
v 0.302428 0.199754 -0.288444
v -0.302450 0.744144 -0.046493
v -0.302450 0.199754 -0.046493
v -0.302450 0.744144 -0.288444
v -0.302450 0.199754 -0.288444
v 0.100802 0.482030 0.155133
v 0.161290 0.199754 0.175295
v 0.100802 0.482030 -0.006168
v 0.161290 0.199754 -0.026330
v -0.100824 0.482030 0.155133
v -0.161312 0.199754 0.175295
v -0.100824 0.482030 -0.006168
v -0.161312 0.199754 -0.026330
v 0.201615 0.844956 -0.288444
v 0.201615 0.199754 -0.288444
v 0.201615 0.844956 -0.046493
v 0.201615 0.199754 -0.046493
v -0.201637 0.199754 -0.288444
v -0.201637 0.844956 -0.046493
v -0.201637 0.844956 -0.288444
v -0.201637 0.199754 -0.046493
v 0.161290 0.320730 0.175295
v 0.161290 0.320730 -0.026330
v -0.161312 0.320730 -0.026330
v -0.161312 0.320730 0.175295
v 0.100802 0.320730 -0.006168
v -0.100824 0.320730 -0.006168
v -0.100824 0.320730 0.155133
v 0.100802 0.320730 0.155133
v -0.060499 0.502193 -0.006168
v -0.094810 0.199754 -0.026330
v -0.060499 0.502193 0.155133
v -0.094810 0.199754 0.175295
v -0.094810 0.320730 0.175295
v -0.094810 0.320730 -0.026330
v -0.059261 0.320730 -0.006168
v -0.059261 0.320730 0.155133
v 0.060477 0.502193 -0.006168
v 0.095154 0.199754 0.175295
v 0.095154 0.320730 0.175295
v 0.059467 0.320730 0.155133
v 0.095154 0.199754 -0.026330
v 0.060477 0.502193 0.155133
v 0.095154 0.320730 -0.026330
v 0.059467 0.320730 -0.006168
v 0.302428 0.455222 -0.046493
v 0.302428 0.455222 -0.288444
v -0.302450 0.455222 -0.288444
v -0.302450 0.455222 -0.046493
v 0.201615 0.502531 -0.046493
v 0.201615 0.502531 -0.288444
v -0.201637 0.502531 -0.046493
v -0.201637 0.502531 -0.288444
vt 0.983852 0.906981
vt 0.983993 0.892619
vt 0.990553 0.892619
vt 0.990553 0.906981
vt 0.955603 0.910047
vt 0.955462 0.892499
vt 0.948504 0.892499
vt 0.948645 0.906782
vt 0.954957 0.906981
vt 0.954957 0.892619
vt 0.948504 0.892619
vt 0.948645 0.906981
vt 0.983435 0.910047
vt 0.983294 0.892499
vt 0.990252 0.892499
vt 0.990393 0.906782
vt 0.978992 0.935749
vt 0.984844 0.935749
vt 0.984844 0.929155
vt 0.978992 0.929155
vt 0.978871 0.891624
vt 0.978871 0.887330
vt 0.960249 0.887330
vt 0.960249 0.891624
vt 0.963910 0.891674
vt 0.963973 0.887305
vt 0.959971 0.887305
vt 0.959907 0.891674
vt 0.978871 0.891624
vt 0.978871 0.887330
vt 0.960249 0.887330
vt 0.960249 0.891624
vt 0.975344 0.891674
vt 0.975407 0.887305
vt 0.979388 0.887305
vt 0.979325 0.891674
vt 0.964804 0.892051
vt 0.960065 0.892051
vt 0.960065 0.887365
vt 0.964804 0.887365
vt 0.975407 0.887305
vt 0.979388 0.887305
vt 0.959348 0.935749
vt 0.954219 0.935749
vt 0.954219 0.929155
vt 0.959348 0.929155
vt 0.984844 0.935749
vt 0.978992 0.935749
vt 0.978992 0.929155
vt 0.984844 0.929155
vt 0.959348 0.935749
vt 0.959348 0.929155
vt 0.955692 0.910047
vt 0.955692 0.921461
vt 0.983524 0.921461
vt 0.983524 0.910047
vt 0.990393 0.906782
vt 0.990252 0.892499
vt 0.983294 0.892499
vt 0.983435 0.910047
vt 0.948645 0.906782
vt 0.948504 0.892499
vt 0.955462 0.892499
vt 0.955603 0.910047
vt 0.954219 0.935749
vt 0.954219 0.929155
vt 0.983595 0.925973
vt 0.955763 0.925973
vt 0.973196 0.891674
vt 0.975684 0.891674
vt 0.963548 0.891674
vt 0.959907 0.891674
vt 0.963548 0.891674
vt 0.966050 0.891674
vt 0.979325 0.891674
vt 0.975684 0.891674
vt 0.979623 0.891796
vt 0.959178 0.891796
vt 0.959178 0.887479
vt 0.979623 0.887479
vt 0.965722 0.905573
vt 0.965797 0.894650
vt 0.963295 0.894650
vt 0.963295 0.904359
vt 0.979623 0.891796
vt 0.959178 0.891796
vt 0.959178 0.887479
vt 0.979623 0.887479
vt 0.973004 0.905573
vt 0.972943 0.894650
vt 0.975431 0.894650
vt 0.975431 0.904359
vt 0.963295 0.904359
vt 0.963295 0.894650
vt 0.965797 0.894650
vt 0.965722 0.905573
vt 0.973004 0.905573
vt 0.972943 0.894650
vt 0.973196 0.891674
vt 0.975344 0.891674
vt 0.963910 0.891674
vt 0.966050 0.891674
vt 0.963973 0.887305
vt 0.959971 0.887305
vt 0.974365 0.892051
vt 0.974365 0.887365
vt 0.978712 0.892051
vt 0.978712 0.887365
vt 0.975431 0.904359
vt 0.975431 0.894650
vt 0.960065 0.887365
vt 0.978712 0.887365
vt 0.978712 0.892051
vt 0.960065 0.892051
vt 0.983595 0.929893
vt 0.955763 0.929893
vt 0.948805 0.922935
vt 0.955763 0.929893
vt 0.990553 0.922935
vt 0.955692 0.929893
vt 0.983524 0.929893
vt 0.983595 0.929893
vt 0.990553 0.922935
vt 0.954957 0.922815
vt 0.948805 0.922815
vt 0.948805 0.922935
vt 0.983692 0.922815
vt 0.990553 0.922815
vn 1.0000 0.0000 0.0000
vn 0.0000 0.0000 -1.0000
vn -1.0000 0.0000 0.0000
vn 0.0000 0.0000 1.0000
vn 0.0000 -1.0000 0.0000
vn -0.4472 0.8944 0.0000
vn -0.7071 0.7071 0.0000
vn 0.7071 0.7071 0.0000
vn 0.0000 1.0000 0.0000
vn 0.4472 0.8944 0.0000
usemtl Material
s off
f 81/83/12 34/84/12 36/85/12 82/86/12
f 88/87/13 53/88/13 40/89/13 83/90/13
f 83/91/14 40/92/14 38/93/14 84/94/14
f 85/95/15 52/96/15 34/97/15 81/98/15
f 50/99/16 36/100/16 34/101/16 52/102/16
f 57/103/12 42/104/12 44/105/12 58/106/12
f 70/107/13 66/108/13 48/109/13 59/110/13
f 59/111/14 48/112/14 46/113/14 60/114/14
f 75/115/15 74/116/15 42/117/15 57/118/15
f 65/119/17 47/120/17 45/121/17 67/122/17
f 77/123/16 44/124/16 42/117/16 74/116/16
f 55/125/18 39/126/18 37/127/18 54/128/18
f 35/129/19 49/130/19 51/131/19 33/132/19
f 53/133/16 50/99/16 52/102/16 56/134/16
f 87/135/15 56/136/15 52/137/15 85/138/15
f 82/139/13 36/140/13 50/141/13 86/142/13
f 84/143/15 38/144/15 56/145/15 87/146/15
f 40/147/16 53/133/16 56/134/16 38/148/16
f 49/130/20 55/125/20 54/128/20 51/131/20
f 86/142/13 50/149/13 53/150/13 88/87/13
f 76/151/20 75/115/20 57/118/20 64/152/20
f 62/153/20 59/110/20 60/154/20 63/155/20
f 71/156/20 70/107/20 59/110/20 62/153/20
f 64/152/20 57/118/20 58/157/20 61/158/20
f 41/159/12 64/160/12 61/161/12 43/162/12
f 65/163/13 71/164/13 62/165/13 47/166/13
f 47/167/14 62/168/14 63/169/14 45/170/14
f 78/171/15 76/172/15 64/173/15 41/174/15
f 45/175/15 63/176/15 72/177/15 67/178/15
f 73/179/13 80/180/13 71/164/13 65/163/13
f 80/181/20 79/182/20 70/107/20 71/156/20
f 63/155/20 60/154/20 69/183/20 72/184/20
f 48/109/16 66/108/16 68/185/16 46/186/16
f 73/187/20 65/119/20 67/122/20 78/188/20
f 60/154/15 46/186/15 68/185/15 69/183/15
f 79/182/13 77/123/13 66/108/13 70/107/13
f 58/157/13 44/124/13 77/123/13 79/182/13
f 43/189/21 73/187/21 78/188/21 41/190/21
f 61/158/20 58/157/20 79/182/20 80/181/20
f 43/191/13 61/192/13 80/180/13 73/179/13
f 67/178/15 72/177/15 76/172/15 78/171/15
f 72/184/20 69/183/20 75/115/20 76/151/20
f 66/193/16 77/194/16 74/195/16 68/196/16
f 69/183/15 68/185/15 74/116/15 75/115/15
f 49/197/13 86/142/13 88/87/13 55/198/13
f 37/199/15 84/143/15 87/146/15 54/200/15
f 35/201/13 82/139/13 86/142/13 49/197/13
f 54/202/15 87/135/15 85/138/15 51/203/15
f 51/204/15 85/95/15 81/98/15 33/205/15
f 39/206/14 83/91/14 84/94/14 37/207/14
f 55/198/13 88/87/13 83/90/13 39/208/13
f 33/209/12 81/83/12 82/86/12 35/210/12
