# Blender 3.6.5
# www.blender.org
mtllib Poly_SF_Outside_B_Window_13.mtl
o Cube.001
v 0.400000 0.050000 -0.500000
v 0.400000 0.000000 -0.500000
v 0.400000 0.050000 -0.400000
v 0.400000 0.000000 -0.400000
v -0.400000 0.050000 -0.500000
v -0.400000 0.000000 -0.500000
v -0.400000 0.050000 -0.400000
v -0.400000 0.000000 -0.400000
v -0.230000 0.200000 -0.430000
v -0.230000 0.450000 -0.430000
v 0.230000 0.200000 -0.430000
v 0.230000 0.450000 -0.430000
v 0.400000 0.650000 -0.500000
v 0.400000 0.590000 -0.500000
v 0.400000 0.650000 -0.400000
v 0.400000 0.590000 -0.400000
v -0.400000 0.650000 -0.500000
v -0.400000 0.590000 -0.500000
v -0.400000 0.650000 -0.400000
v -0.400000 0.590000 -0.400000
v 0.340000 0.480000 -0.500000
v 0.340000 0.450000 -0.500000
v 0.340000 0.480000 -0.400000
v 0.340000 0.450000 -0.400000
v -0.340000 0.480000 -0.500000
v -0.340000 0.450000 -0.500000
v -0.340000 0.480000 -0.400000
v -0.340000 0.450000 -0.400000
v 0.340000 0.200000 -0.500000
v 0.340000 0.170000 -0.500000
v 0.340000 0.200000 -0.400000
v 0.340000 0.170000 -0.400000
v -0.340000 0.200000 -0.500000
v -0.340000 0.170000 -0.500000
v -0.340000 0.200000 -0.400000
v -0.340000 0.170000 -0.400000
v -0.340000 0.590000 -0.450000
v 0.340000 0.590000 -0.450000
v -0.340000 0.050000 -0.450000
v 0.340000 0.050000 -0.450000
vn -0.0000 1.0000 -0.0000
vn -0.0000 -1.0000 -0.0000
vn -0.0000 -0.0000 1.0000
vn 1.0000 -0.0000 -0.0000
vn -1.0000 -0.0000 -0.0000
vt 0.418248 0.518141
vt 0.418248 0.517094
vt 0.419541 0.517094
vt 0.419541 0.518141
vt 0.391392 0.518206
vt 0.391392 0.516977
vt 0.392531 0.516977
vt 0.392531 0.518206
vt 0.380466 0.514291
vt 0.380466 0.516901
vt 0.430715 0.516901
vt 0.430715 0.514291
vt 0.389488 0.540170
vt 0.389488 0.524924
vt 0.421759 0.524924
vt 0.421759 0.540170
vt 0.380466 0.547087
vt 0.380466 0.549331
vt 0.430715 0.549331
vt 0.430715 0.547087
vt 0.264813 0.510686
vt 0.264813 0.529609
vt 0.296347 0.529609
vt 0.296347 0.510686
s 0
usemtl regular
f 1/1/1 5/2/1 7/3/1 3/4/1
f 6/5/2 2/6/2 4/7/2 8/8/2
f 4/9/3 3/10/3 7/11/3 8/12/3
f 11/13/3 12/14/3 10/15/3 9/16/3
f 2/8/4 1/7/4 3/6/4 4/5/4
f 8/5/5 7/6/5 5/7/5 6/8/5
f 13/8/1 17/7/1 19/6/1 15/5/1
f 18/4/2 14/3/2 16/2/2 20/1/2
f 16/17/3 15/18/3 19/19/3 20/20/3
f 14/7/4 13/8/4 15/5/4 16/6/4
f 20/6/5 19/5/5 17/8/5 18/7/5
f 21/1/1 25/2/1 27/3/1 23/4/1
f 26/4/2 22/3/2 24/2/2 28/1/2
f 24/17/3 23/18/3 27/19/3 28/20/3
f 29/1/1 33/2/1 35/3/1 31/4/1
f 34/4/2 30/3/2 32/2/2 36/1/2
f 32/9/3 31/10/3 35/11/3 36/12/3
f 30/7/4 29/8/4 31/5/4 32/6/4
f 37/21/3 39/22/3 40/23/3 38/24/3
o Cube.002
v -0.340000 0.050000 -0.500000
v -0.400000 0.050000 -0.500000
v -0.340000 0.050000 -0.400000
v -0.400000 0.050000 -0.400000
v -0.340000 0.590000 -0.500000
v -0.400000 0.590000 -0.500000
v -0.340000 0.590000 -0.400000
v -0.400000 0.590000 -0.400000
v -0.230000 0.200000 -0.500000
v -0.260000 0.200000 -0.500000
v -0.230000 0.200000 -0.400000
v -0.260000 0.200000 -0.400000
v -0.230000 0.450000 -0.500000
v -0.260000 0.450000 -0.500000
v -0.230000 0.450000 -0.400000
v -0.260000 0.450000 -0.400000
v -0.090000 0.480000 -0.500000
v -0.120000 0.480000 -0.500000
v -0.090000 0.480000 -0.400000
v -0.120000 0.480000 -0.400000
v -0.090000 0.590000 -0.500000
v -0.120000 0.590000 -0.500000
v -0.090000 0.590000 -0.400000
v -0.120000 0.590000 -0.400000
v -0.090000 0.050000 -0.500000
v -0.120000 0.050000 -0.500000
v -0.090000 0.050000 -0.400000
v -0.120000 0.050000 -0.400000
v -0.090000 0.170000 -0.500000
v -0.120000 0.170000 -0.500000
v -0.090000 0.170000 -0.400000
v -0.120000 0.170000 -0.400000
v 0.340000 0.050000 -0.500000
v 0.400000 0.050000 -0.500000
v 0.340000 0.050000 -0.400000
v 0.400000 0.050000 -0.400000
v 0.340000 0.590000 -0.500000
v 0.400000 0.590000 -0.500000
v 0.340000 0.590000 -0.400000
v 0.400000 0.590000 -0.400000
v 0.230000 0.200000 -0.500000
v 0.260000 0.200000 -0.500000
v 0.230000 0.200000 -0.400000
v 0.260000 0.200000 -0.400000
v 0.230000 0.450000 -0.500000
v 0.260000 0.450000 -0.500000
v 0.230000 0.450000 -0.400000
v 0.260000 0.450000 -0.400000
v 0.090000 0.480000 -0.500000
v 0.120000 0.480000 -0.500000
v 0.090000 0.480000 -0.400000
v 0.120000 0.480000 -0.400000
v 0.090000 0.590000 -0.500000
v 0.120000 0.590000 -0.500000
v 0.090000 0.590000 -0.400000
v 0.120000 0.590000 -0.400000
v 0.090000 0.050000 -0.500000
v 0.120000 0.050000 -0.500000
v 0.090000 0.050000 -0.400000
v 0.120000 0.050000 -0.400000
v 0.090000 0.170000 -0.500000
v 0.120000 0.170000 -0.500000
v 0.090000 0.170000 -0.400000
v 0.120000 0.170000 -0.400000
vn 1.0000 -0.0000 -0.0000
vn -1.0000 -0.0000 -0.0000
vn -0.0000 -0.0000 1.0000
vt 0.423306 0.524700
vt 0.423306 0.523618
vt 0.424793 0.523618
vt 0.424793 0.524700
vt 0.393050 0.518170
vt 0.393050 0.517001
vt 0.390906 0.516995
vt 0.390906 0.518170
vt 0.430111 0.549295
vt 0.428562 0.549295
vt 0.428562 0.516274
vt 0.430111 0.516274
s 0
usemtl regular
f 41/25/6 45/26/6 47/27/6 43/28/6
f 46/29/7 42/30/7 44/31/7 48/32/7
f 44/33/8 43/34/8 47/35/8 48/36/8
f 49/25/6 53/26/6 55/27/6 51/28/6
f 54/28/7 50/27/7 52/26/7 56/25/7
f 52/33/8 51/34/8 55/35/8 56/36/8
f 57/25/6 61/26/6 63/27/6 59/28/6
f 62/25/7 58/26/7 60/27/7 64/28/7
f 60/33/8 59/34/8 63/35/8 64/36/8
f 65/25/6 69/26/6 71/27/6 67/28/6
f 70/28/7 66/27/7 68/26/7 72/25/7
f 68/33/8 67/34/8 71/35/8 72/36/8
f 73/25/7 75/28/7 79/27/7 77/26/7
f 78/29/6 80/32/6 76/31/6 74/30/6
f 76/33/8 80/36/8 79/35/8 75/34/8
f 81/25/7 83/28/7 87/27/7 85/26/7
f 86/28/6 88/25/6 84/26/6 82/27/6
f 84/33/8 88/36/8 87/35/8 83/34/8
f 89/25/7 91/28/7 95/27/7 93/26/7
f 94/25/6 96/28/6 92/27/6 90/26/6
f 92/33/8 96/36/8 95/35/8 91/34/8
f 97/25/7 99/28/7 103/27/7 101/26/7
f 102/28/6 104/25/6 100/26/6 98/27/6
f 100/33/8 104/36/8 103/35/8 99/34/8
o Cube.003
v -0.100000 0.650000 -0.400000
v -0.100000 0.750000 -0.400000
v -0.100000 0.650000 -0.420000
v -0.100000 0.750000 -0.420000
v -0.100000 0.720000 -0.420000
v -0.100000 0.720000 -0.400000
v -0.080000 0.650000 -0.420000
v -0.080000 0.750000 -0.420000
v -0.080000 0.650000 -0.400000
v -0.080000 0.750000 -0.400000
v -0.080000 0.720000 -0.400000
v -0.080000 0.720000 -0.420000
v -0.060000 0.750000 -0.420000
v -0.060000 0.650000 -0.400000
v -0.060000 0.720000 -0.420000
v -0.060000 0.650000 -0.420000
v -0.060000 0.750000 -0.400000
v -0.060000 0.720000 -0.400000
v 0.000000 0.750000 -0.420000
v 0.000000 0.650000 -0.400000
v 0.000000 0.720000 -0.420000
v 0.000000 0.650000 -0.420000
v 0.000000 0.750000 -0.400000
v 0.000000 0.720000 -0.400000
v -0.020000 0.650000 -0.420000
v -0.020000 0.750000 -0.400000
v -0.020000 0.720000 -0.400000
v -0.020000 0.750000 -0.420000
v -0.020000 0.650000 -0.400000
v -0.020000 0.720000 -0.420000
v 0.000000 0.770000 -0.420000
v 0.000000 0.770000 -0.400000
v -0.020000 0.770000 -0.400000
v -0.020000 0.770000 -0.420000
v 0.100000 0.650000 -0.400000
v 0.100000 0.750000 -0.400000
v 0.100000 0.650000 -0.420000
v 0.100000 0.750000 -0.420000
v 0.100000 0.720000 -0.420000
v 0.100000 0.720000 -0.400000
v 0.080000 0.650000 -0.420000
v 0.080000 0.750000 -0.420000
v 0.080000 0.650000 -0.400000
v 0.080000 0.750000 -0.400000
v 0.080000 0.720000 -0.400000
v 0.080000 0.720000 -0.420000
v 0.060000 0.750000 -0.420000
v 0.060000 0.650000 -0.400000
v 0.060000 0.720000 -0.420000
v 0.060000 0.650000 -0.420000
v 0.060000 0.750000 -0.400000
v 0.060000 0.720000 -0.400000
v 0.020000 0.650000 -0.420000
v 0.020000 0.750000 -0.400000
v 0.020000 0.720000 -0.400000
v 0.020000 0.750000 -0.420000
v 0.020000 0.650000 -0.400000
v 0.020000 0.720000 -0.420000
v 0.020000 0.770000 -0.400000
v 0.020000 0.770000 -0.420000
vn -1.0000 -0.0000 -0.0000
vn -0.0000 -0.0000 1.0000
vn -0.0000 1.0000 -0.0000
vn -0.0000 -0.0000 -1.0000
vn -0.0000 -1.0000 -0.0000
vn 1.0000 -0.0000 -0.0000
vt 0.399941 0.553383
vt 0.399941 0.554647
vt 0.401063 0.553383
vt 0.401063 0.554647
vt 0.401063 0.554647
vt 0.401063 0.549626
vt 0.399941 0.549626
vt 0.401063 0.549626
vt 0.402386 0.549626
vt 0.402385 0.553383
vt 0.405033 0.553383
vt 0.405033 0.554647
vt 0.402385 0.554647
vt 0.405033 0.554647
vt 0.402385 0.554647
vt 0.405033 0.549626
vt 0.402385 0.549626
vt 0.405033 0.549626
vt 0.406331 0.553383
vt 0.406331 0.549626
vt 0.406331 0.549626
vt 0.406331 0.554647
vt 0.400820 0.554647
vt 0.400820 0.554647
vt 0.400820 0.553383
vt 0.405033 0.554905
vt 0.406331 0.554905
vt 0.406331 0.554647
vt 0.406331 0.554905
vt 0.405033 0.554905
vt 0.000000 0.000000
s 0
usemtl regular
f 110/37/9 106/38/9 108/38/9 109/37/9
f 115/39/10 114/40/10 106/38/10 110/37/10
f 112/41/11 108/38/11 106/38/11 114/40/11
f 113/42/10 115/39/10 110/37/10 105/43/10
f 105/43/9 110/37/9 109/37/9 107/43/9
f 107/43/12 109/37/12 116/39/12 111/44/12
f 118/45/10 122/46/10 115/39/10 113/42/10
f 107/43/13 111/44/13 113/42/13 105/43/13
f 109/37/12 108/38/12 112/41/12 116/39/12
f 131/47/10 130/48/10 121/49/10 122/46/10
f 132/50/11 117/51/11 121/49/11 130/48/11
f 133/52/10 131/47/10 122/46/10 118/45/10
f 111/44/12 116/39/12 119/46/12 120/53/12
f 111/44/13 120/53/13 118/45/13 113/42/13
f 129/54/12 134/47/12 125/55/12 126/56/12
f 129/54/13 126/56/13 124/57/13 133/52/13
f 134/47/12 132/50/12 123/58/12 125/55/12
f 112/59/14 114/60/14 115/61/14 116/61/14
f 122/46/9 121/49/9 117/51/9 119/46/9
f 122/46/11 119/46/11 116/39/11 115/39/11
f 119/46/12 117/51/12 132/50/12 134/47/12
f 120/53/13 129/54/13 133/52/13 118/45/13
f 120/53/12 119/46/12 134/47/12 129/54/12
f 124/57/10 128/55/10 131/47/10 133/52/10
f 130/62/10 127/63/10 136/63/10 137/62/10
f 128/55/10 127/64/10 130/48/10 131/47/10
f 135/65/11 138/66/11 137/62/11 136/63/11
f 132/66/9 130/62/9 137/62/9 138/66/9
f 127/67/14 123/67/14 135/67/14 136/67/14
f 123/65/12 132/66/12 138/66/12 135/65/12
f 144/37/14 143/37/14 142/38/14 140/38/14
f 149/39/10 144/37/10 140/38/10 148/40/10
f 146/41/11 148/40/11 140/38/11 142/38/11
f 147/42/10 139/43/10 144/37/10 149/39/10
f 139/43/14 141/43/14 143/37/14 144/37/14
f 141/43/12 145/44/12 150/39/12 143/37/12
f 152/45/10 147/42/10 149/39/10 156/46/10
f 141/43/13 139/43/13 147/42/13 145/44/13
f 143/37/12 150/39/12 146/41/12 142/38/12
f 159/47/10 156/46/10 155/49/10 158/48/10
f 160/50/11 158/48/11 155/49/11 151/51/11
f 161/52/10 152/45/10 156/46/10 159/47/10
f 145/44/12 154/53/12 153/46/12 150/39/12
f 145/44/13 147/42/13 152/45/13 154/53/13
f 157/54/12 126/56/12 125/55/12 162/47/12
f 157/54/13 161/52/13 124/57/13 126/56/13
f 162/47/12 125/55/12 123/58/12 160/50/12
f 146/59/9 150/61/9 149/61/9 148/60/9
f 156/46/14 153/46/14 151/51/14 155/49/14
f 156/46/11 149/39/11 150/39/11 153/46/11
f 153/46/12 162/47/12 160/50/12 151/51/12
f 154/53/13 152/45/13 161/52/13 157/54/13
f 154/53/12 157/54/12 162/47/12 153/46/12
f 124/57/10 161/52/10 159/47/10 128/55/10
f 158/62/10 163/62/10 136/63/10 127/63/10
f 128/55/10 159/47/10 158/48/10 127/64/10
f 135/65/11 136/63/11 163/62/11 164/66/11
f 160/66/14 164/66/14 163/62/14 158/62/14
f 123/65/12 135/65/12 164/66/12 160/66/12
