# Blender 3.6.5
# www.blender.org
mtllib Poly_SF_Outside_B_Shipping_Container_02.mtl
o Cube.001
v 0.400000 0.800000 0.450000
v 0.400000 0.000000 0.450000
v 0.400000 0.800000 -0.450000
v 0.400000 0.000000 -0.450000
v -0.400000 0.800000 0.450000
v -0.400000 0.000000 0.450000
v -0.400000 0.800000 -0.450000
v -0.400000 0.000000 -0.450000
v 0.350000 0.800000 -0.450000
v 0.350000 0.000000 -0.450000
v 0.350000 0.800000 0.450000
v 0.350000 0.000000 0.450000
v -0.350000 0.000000 -0.450000
v -0.350000 0.800000 0.450000
v -0.350000 0.800000 -0.450000
v -0.350000 0.000000 0.450000
v 0.400000 0.050000 0.450000
v 0.400000 0.050000 -0.450000
v -0.400000 0.050000 -0.450000
v -0.400000 0.050000 0.450000
v 0.350000 0.050000 0.450000
v 0.350000 0.050000 -0.450000
v -0.350000 0.050000 0.450000
v -0.350000 0.050000 -0.450000
v 0.400000 0.750000 -0.450000
v -0.400000 0.750000 -0.450000
v -0.400000 0.750000 0.450000
v 0.350000 0.750000 0.450000
v 0.350000 0.750000 -0.450000
v -0.350000 0.750000 0.450000
v -0.350000 0.750000 -0.450000
v 0.400000 0.750000 0.450000
v 0.400000 0.800000 0.400000
v 0.400000 0.000000 0.400000
v -0.400000 0.800000 0.400000
v -0.400000 0.000000 0.400000
v 0.350000 0.000000 0.400000
v 0.350000 0.800000 0.400000
v -0.350000 0.000000 0.400000
v -0.350000 0.800000 0.400000
v -0.400000 0.050000 0.400000
v 0.400000 0.050000 0.400000
v 0.400000 0.750000 0.400000
v -0.400000 0.750000 0.400000
v 0.400000 0.000000 -0.400000
v -0.400000 0.800000 -0.400000
v 0.400000 0.050000 -0.400000
v 0.400000 0.750000 -0.400000
v 0.400000 0.800000 -0.400000
v -0.400000 0.000000 -0.400000
v 0.350000 0.000000 -0.400000
v 0.350000 0.800000 -0.400000
v -0.350000 0.000000 -0.400000
v -0.350000 0.800000 -0.400000
v -0.400000 0.050000 -0.400000
v -0.400000 0.750000 -0.400000
v -0.350000 0.050000 0.420000
v 0.350000 0.050000 0.420000
v 0.350000 0.750000 0.420000
v -0.350000 0.750000 0.420000
v 0.350000 0.050000 -0.420000
v -0.350000 0.050000 -0.420000
v 0.350000 0.750000 -0.420000
v -0.350000 0.750000 -0.420000
v 0.370000 0.050000 0.400000
v 0.370000 0.750000 0.400000
v 0.370000 0.050000 -0.400000
v 0.370000 0.750000 -0.400000
v -0.370000 0.050000 -0.400000
v -0.370000 0.050000 0.400000
v -0.370000 0.750000 -0.400000
v -0.370000 0.750000 0.400000
v 0.350000 0.030000 -0.400000
v 0.350000 0.030000 0.400000
v -0.350000 0.030000 -0.400000
v -0.350000 0.030000 0.400000
v 0.350000 0.770000 -0.400000
v 0.350000 0.770000 0.400000
v -0.350000 0.770000 -0.400000
v -0.350000 0.770000 0.400000
vn 1.0000 -0.0000 -0.0000
vn -0.0000 -0.0000 -1.0000
vn -1.0000 -0.0000 -0.0000
vn -0.0000 -0.0000 1.0000
vn -0.0000 1.0000 -0.0000
vn -0.0000 -1.0000 -0.0000
vt 0.432397 0.132639
vt 0.432397 0.127769
vt 0.437384 0.127769
vt 0.437384 0.132639
vt 0.380392 0.132639
vt 0.380392 0.127769
vt 0.375295 0.127769
vt 0.375295 0.132639
vt 0.380392 0.204534
vt 0.375295 0.204534
vt 0.375295 0.186145
vt 0.380392 0.186145
vt 0.432397 0.191332
vt 0.432397 0.186145
vt 0.437384 0.186145
vt 0.437384 0.191332
vt 0.432397 0.247206
vt 0.437384 0.247206
vt 0.437384 0.204534
vt 0.432397 0.204534
vt 0.432397 0.249922
vt 0.437384 0.249922
vt 0.380392 0.191332
vt 0.432331 0.131641
vt 0.380248 0.131641
vt 0.380248 0.134287
vt 0.432331 0.134287
vt 0.437384 0.182419
vt 0.432397 0.182419
vt 0.432331 0.245649
vt 0.380248 0.245649
vt 0.380248 0.248295
vt 0.432331 0.248295
vt 0.380392 0.182419
vt 0.375295 0.182419
vt 0.380392 0.249922
vt 0.380392 0.247206
vt 0.432225 0.238863
vt 0.380248 0.238863
vt 0.380248 0.245772
vt 0.432225 0.245772
vt 0.375295 0.247206
vt 0.375295 0.191332
vt 0.375295 0.249922
vt 0.375295 0.215919
vt 0.380392 0.215919
vt 0.432397 0.215919
vt 0.437384 0.215919
vt 0.427336 0.178206
vt 0.427336 0.131731
vt 0.380811 0.131731
vt 0.380811 0.178206
vt 0.379222 0.245749
vt 0.379222 0.192708
vt 0.432083 0.192708
vt 0.432083 0.245749
s 0
usemtl regular
f 47/1/1 45/2/1 4/3/1 18/4/1
f 24/5/2 13/6/2 8/7/2 19/8/2
f 41/1/3 36/2/3 6/3/3 20/4/3
f 21/5/4 12/6/4 2/7/4 17/8/4
f 40/9/5 35/10/5 5/11/5 14/12/5
f 37/13/6 34/14/6 2/15/6 12/16/6
f 39/17/6 37/13/6 12/16/6 16/18/6
f 33/19/5 38/20/5 11/14/5 1/15/5
f 23/1/4 16/2/4 12/6/4 21/5/4
f 18/4/2 4/3/2 10/2/2 22/1/2
f 20/4/4 6/3/4 16/2/4 23/1/4
f 36/21/6 39/17/6 16/18/6 6/22/6
f 38/13/5 40/23/5 14/12/5 11/14/5
f 22/1/2 10/2/2 13/6/2 24/5/2
f 22/24/5 24/25/5 62/26/5 61/27/5
f 27/28/4 20/4/4 23/1/4 30/29/4
f 25/28/2 18/4/2 22/1/2 29/29/2
f 30/30/1 23/31/1 57/32/1 60/33/1
f 28/34/4 21/5/4 17/8/4 32/35/4
f 44/29/3 41/1/3 20/4/3 27/28/3
f 31/34/2 24/5/2 19/8/2 26/35/2
f 48/29/1 47/1/1 18/4/1 25/28/1
f 49/14/1 48/29/1 25/28/1 3/15/1
f 15/12/2 31/34/2 26/35/2 7/11/2
f 35/14/3 44/29/3 27/28/3 5/15/3
f 11/12/4 28/34/4 32/35/4 1/11/4
f 14/14/4 30/29/4 28/34/4 11/12/4
f 3/15/2 25/28/2 29/29/2 9/14/2
f 5/15/4 27/28/4 30/29/4 14/14/4
f 9/14/2 29/29/2 31/34/2 15/12/2
f 46/12/3 56/34/3 44/29/3 35/14/3
f 1/11/1 32/35/1 43/34/1 33/12/1
f 32/35/1 17/8/1 42/5/1 43/34/1
f 44/31/6 56/30/6 71/33/6 72/32/6
f 52/30/4 54/31/4 79/32/4 77/33/4
f 50/36/6 53/37/6 39/17/6 36/21/6
f 49/18/5 52/17/5 38/13/5 33/16/5
f 37/38/2 39/39/2 76/40/2 74/41/2
f 51/23/6 45/12/6 34/14/6 37/13/6
f 54/37/5 46/42/5 35/43/5 40/23/5
f 55/5/3 50/6/3 36/2/3 41/1/3
f 17/8/1 2/7/1 34/6/1 42/5/1
f 19/8/3 8/7/3 50/6/3 55/5/3
f 15/36/5 7/44/5 46/45/5 54/46/5
f 10/43/6 4/11/6 45/12/6 51/23/6
f 13/42/6 10/43/6 51/23/6 53/37/6
f 3/22/5 9/21/5 52/47/5 49/48/5
f 8/44/6 13/42/6 53/37/6 50/36/6
f 9/21/5 15/36/5 54/37/5 52/17/5
f 26/35/3 19/8/3 55/5/3 56/34/3
f 7/11/3 26/35/3 56/34/3 46/12/3
f 33/12/1 43/34/1 48/29/1 49/14/1
f 47/31/4 48/30/4 68/33/4 67/32/4
f 42/5/1 34/6/1 45/2/1 47/1/1
f 60/49/4 57/50/4 58/51/4 59/52/4
f 21/31/3 28/30/3 59/33/3 58/32/3
f 28/30/6 30/31/6 60/32/6 59/33/6
f 23/25/5 21/24/5 58/27/5 57/26/5
f 63/49/2 61/50/2 62/51/2 64/52/2
f 24/31/1 31/30/1 64/33/1 62/32/1
f 29/30/3 22/31/3 61/32/3 63/33/3
f 31/31/6 29/30/6 63/33/6 64/32/6
f 66/52/1 65/51/1 67/50/1 68/49/1
f 48/30/6 43/31/6 66/32/6 68/33/6
f 43/30/2 42/31/2 65/32/2 66/33/2
f 42/25/5 47/24/5 67/27/5 65/26/5
f 71/52/3 69/51/3 70/50/3 72/49/3
f 56/30/4 55/31/4 69/32/4 71/33/4
f 55/24/5 41/25/5 70/26/5 69/27/5
f 41/31/2 44/30/2 72/33/2 70/32/2
f 75/53/6 73/54/6 74/55/6 76/56/6
f 39/39/1 53/38/1 75/41/1 76/40/1
f 53/39/4 51/38/4 73/41/4 75/40/4
f 51/38/3 37/39/3 74/40/3 73/41/3
f 77/56/5 79/53/5 80/54/5 78/55/5
f 54/30/1 40/31/1 80/32/1 79/33/1
f 38/31/3 52/30/3 77/33/3 78/32/3
f 40/31/2 38/30/2 78/33/2 80/32/2
