# Blender 3.6.5
# www.blender.org
mtllib Poly_SF_Outside_B_Board_Neo_Sign_14.mtl
o Cube
v 1.000000 0.000000 -0.100000
v -1.000000 0.000000 -0.100000
v 1.000000 0.000000 0.100000
v -1.000000 0.000000 0.100000
v 1.000000 0.600000 -0.100000
v -1.000000 0.600000 -0.100000
v 1.000000 0.600000 0.100000
v -1.000000 0.600000 0.100000
vn 1.0000 -0.0000 -0.0000
vn -0.0000 -0.0000 1.0000
vn -0.0000 1.0000 -0.0000
vn -1.0000 -0.0000 -0.0000
vn -0.0000 -1.0000 -0.0000
vn -0.0000 -0.0000 -1.0000
vt 0.045243 0.312363
vt 0.008006 0.312363
vt 0.008006 0.305012
vt 0.045243 0.305012
vt 0.187578 0.316452
vt 0.312473 0.316452
vt 0.312473 0.354142
vt 0.187578 0.354142
vt 0.187569 0.354291
vt 0.312377 0.354291
vt 0.312377 0.360609
vt 0.187569 0.360609
vt 0.312377 0.354291
vt 0.187569 0.354291
s 0
usemtl Material
f 1/1/1 5/2/1 7/3/1 3/4/1
f 4/5/2 3/6/2 7/7/2 8/8/2
f 8/9/3 7/10/3 5/11/3 6/12/3
f 6/1/4 2/2/4 4/3/4 8/4/4
f 2/12/5 1/11/5 3/13/5 4/14/5
f 6/5/6 5/6/6 1/7/6 2/8/6
