# Blender 3.6.5
# www.blender.org
mtllib Poly_Bush_02.mtl
o Icosphere.001
v -0.000000 0.067596 0.000000
v 0.426527 0.430415 0.309887
v -0.162916 0.430415 0.501412
v -0.527217 0.430416 0.000000
v -0.162916 0.430415 -0.501412
v 0.426527 0.430415 -0.309887
v 0.153684 0.740214 0.472997
v -0.402356 0.740214 0.292325
v -0.402356 0.740214 -0.292325
v 0.153684 0.740214 -0.472997
v 0.497339 0.740213 0.000000
v -0.000000 0.993754 0.000000
v -0.139628 0.179562 0.429735
v 0.365556 0.179562 0.265589
v 0.154947 0.397508 0.476869
v 0.501411 0.397509 0.000000
v 0.365556 0.179562 -0.265589
v -0.451854 0.179563 -0.000000
v -0.405651 0.397509 0.294721
v -0.139628 0.179562 -0.429735
v -0.405651 0.397509 -0.294721
v 0.154947 0.397508 -0.476869
v 0.478410 0.579132 0.155443
v 0.478410 0.579132 -0.155443
v -0.000000 0.579132 0.503030
v 0.295674 0.579132 0.406959
v -0.478410 0.579132 0.155443
v -0.295674 0.579132 0.406959
v -0.295674 0.579132 -0.406959
v -0.478410 0.579132 -0.155443
v 0.295674 0.579132 -0.406959
v -0.000000 0.579132 -0.503030
v 0.382662 0.771255 0.278019
v -0.146166 0.771256 0.449844
v -0.472996 0.771255 0.000000
v -0.146166 0.771256 -0.449844
v 0.382662 0.771255 -0.278019
v 0.073764 0.913842 0.227027
v 0.238712 0.913841 0.000000
v -0.193121 0.913842 0.140309
v -0.193121 0.913842 -0.140309
v 0.073764 0.913842 -0.227027
vn 0.0905 -0.9562 0.2785
vn 0.9288 -0.2705 0.2532
vn -0.2369 -0.9562 0.1721
vn -0.2369 -0.9562 -0.1721
vn 0.0905 -0.9562 -0.2785
vn 0.9664 -0.0852 0.2426
vn 0.0679 -0.0852 0.9940
vn -0.9244 -0.0852 0.3718
vn -0.6392 -0.0852 -0.7643
vn 0.5293 -0.0852 -0.8441
vn 0.7687 0.3118 0.5585
vn -0.2936 0.3118 0.9036
vn -0.9501 0.3118 -0.0000
vn -0.2936 0.3118 -0.9036
vn 0.7687 0.3118 -0.5585
vn 0.2999 0.8225 0.4832
vn -0.3669 0.8225 0.4346
vn -0.5266 0.8225 -0.2146
vn 0.0414 0.8225 -0.5672
vn 0.5522 0.8225 -0.1359
vn 0.3093 0.9240 -0.2247
vn 0.3673 0.8910 -0.2668
vn 0.2999 0.8225 -0.4832
vn -0.1182 0.9240 -0.3636
vn -0.1403 0.8910 -0.4317
vn -0.3669 0.8225 -0.4346
vn -0.3824 0.9240 -0.0000
vn -0.4539 0.8910 -0.0000
vn -0.5266 0.8225 0.2146
vn -0.1182 0.9240 0.3636
vn -0.1403 0.8910 0.4317
vn 0.0414 0.8225 0.5672
vn 0.3093 0.9240 0.2247
vn 0.3673 0.8910 0.2668
vn 0.5522 0.8225 0.1359
vn 0.9084 0.2301 -0.3490
vn 0.8087 0.0282 -0.5875
vn 0.6127 0.2301 -0.7561
vn -0.0512 0.2301 -0.9718
vn -0.3089 0.0282 -0.9507
vn -0.5298 0.2301 -0.8163
vn -0.9401 0.2301 -0.2516
vn -0.9996 0.0282 -0.0000
vn -0.9401 0.2301 0.2516
vn -0.5298 0.2301 0.8163
vn -0.3089 0.0282 0.9507
vn -0.0512 0.2301 0.9718
vn 0.6127 0.2301 0.7561
vn 0.8087 0.0282 0.5875
vn 0.9084 0.2301 0.3490
vn 0.3069 -0.1167 -0.9446
vn 0.3066 0.1256 -0.9435
vn 0.0679 -0.0852 -0.9940
vn -0.8035 -0.1167 -0.5838
vn -0.8026 0.1256 -0.5831
vn -0.9244 -0.0852 -0.3718
vn -0.8035 -0.1167 0.5838
vn -0.8026 0.1256 0.5831
vn -0.6392 -0.0852 0.7643
vn 0.3069 -0.1167 0.9446
vn 0.3066 0.1256 0.9435
vn 0.5293 -0.0852 0.8441
vn 0.9932 -0.1167 -0.0000
vn 0.9921 0.1256 -0.0000
vn 0.9664 -0.0852 -0.2426
vn 0.5278 -0.2705 -0.8051
vn 0.2622 -0.5290 -0.8071
vn 0.0462 -0.2705 -0.9616
vn -0.6026 -0.2705 -0.7508
vn -0.6866 -0.5290 -0.4988
vn -0.9003 -0.2705 -0.3411
vn -0.9003 -0.2705 0.3411
vn -0.6866 -0.5290 0.4988
vn -0.6026 -0.2705 0.7508
vn 0.9288 -0.2705 -0.2532
vn 0.8486 -0.5290 -0.0000
vn 0.2929 -0.9562 -0.0000
vn 0.0462 -0.2705 0.9616
vn 0.2622 -0.5290 0.8071
vn 0.5278 -0.2705 0.8051
vt 0.842555 0.079901
vt 0.821445 0.079901
vt 0.832732 0.069658
vt 0.831186 0.093476
vt 0.852794 0.095592
vt 0.823886 0.105116
vt 0.843288 0.111708
vt 0.852850 0.095592
vt 0.842555 0.079392
vt 0.821445 0.079392
s 0
usemtl Material.001
f 1/1/1 14/2/1 13/3/1
f 2/1/2 14/3/2 16/2/2
f 1/1/3 13/2/3 18/3/3
f 1/1/4 18/2/4 20/3/4
f 1/1/5 20/2/5 17/3/5
f 2/1/6 16/2/6 23/4/6
f 3/2/7 15/1/7 25/4/7
f 4/1/8 19/2/8 27/4/8
f 5/1/9 21/2/9 29/4/9
f 6/1/10 22/2/10 31/4/10
f 2/1/11 23/5/11 26/4/11
f 3/1/12 25/5/12 28/4/12
f 4/1/13 27/5/13 30/4/13
f 5/1/14 29/5/14 32/4/14
f 6/1/15 31/5/15 24/4/15
f 7/6/16 33/7/16 38/4/16
f 8/6/17 34/7/17 40/4/17
f 9/6/18 35/7/18 41/4/18
f 10/6/19 36/7/19 42/4/19
f 11/6/20 37/7/20 39/4/20
f 39/4/21 42/8/21 12/1/21
f 39/4/22 37/7/22 42/8/22
f 37/7/23 10/6/23 42/4/23
f 42/4/24 41/8/24 12/1/24
f 42/4/25 36/7/25 41/8/25
f 36/7/26 9/6/26 41/4/26
f 41/4/27 40/8/27 12/1/27
f 41/4/28 35/7/28 40/8/28
f 35/7/29 8/6/29 40/4/29
f 40/4/30 38/8/30 12/1/30
f 40/4/31 34/7/31 38/8/31
f 34/7/32 7/6/32 38/4/32
f 38/4/33 39/8/33 12/1/33
f 38/4/34 33/7/34 39/8/34
f 33/7/35 11/6/35 39/4/35
f 24/4/36 37/7/36 11/6/36
f 24/4/37 31/5/37 37/7/37
f 31/4/38 10/6/38 37/7/38
f 32/4/39 36/7/39 10/6/39
f 32/4/40 29/5/40 36/7/40
f 29/4/41 9/6/41 36/7/41
f 30/4/42 35/7/42 9/6/42
f 30/4/43 27/5/43 35/7/43
f 27/4/44 8/6/44 35/7/44
f 28/4/45 34/7/45 8/6/45
f 28/4/46 25/5/46 34/7/46
f 25/4/47 7/7/47 34/6/47
f 26/4/48 33/7/48 7/6/48
f 26/4/49 23/5/49 33/7/49
f 23/4/50 11/6/50 33/7/50
f 31/4/51 32/5/51 10/7/51
f 31/4/52 22/1/52 32/5/52
f 22/2/53 5/1/53 32/4/53
f 29/4/54 30/5/54 9/7/54
f 29/4/55 21/1/55 30/5/55
f 21/2/56 4/1/56 30/4/56
f 27/4/57 28/5/57 8/7/57
f 27/4/58 19/1/58 28/5/58
f 19/1/59 3/2/59 28/4/59
f 25/4/60 26/5/60 7/7/60
f 25/4/61 15/1/61 26/5/61
f 15/2/62 2/1/62 26/4/62
f 23/4/63 24/5/63 11/7/63
f 23/4/64 16/1/64 24/5/64
f 16/2/65 6/1/65 24/4/65
f 17/3/66 22/2/66 6/1/66
f 17/3/67 20/9/67 22/10/67
f 20/3/68 5/1/68 22/2/68
f 20/3/69 21/2/69 5/1/69
f 20/3/70 18/9/70 21/10/70
f 18/3/71 4/1/71 21/2/71
f 18/3/72 19/2/72 4/1/72
f 18/3/73 13/9/73 19/10/73
f 13/3/74 3/2/74 19/1/74
f 16/2/75 17/3/75 6/1/75
f 16/10/76 14/3/76 17/9/76
f 14/3/77 1/1/77 17/2/77
f 13/3/78 15/1/78 3/2/78
f 13/3/79 14/9/79 15/10/79
f 14/3/80 2/1/80 15/2/80
o Plane
v 0.062165 0.107141 0.086318
v -0.022701 0.107141 0.100489
v 0.005764 0.042117 0.102324
v -0.094221 0.044278 0.005756
v -0.057330 0.051355 0.069021
v -0.079301 0.113567 -0.037613
v 0.000802 0.044278 -0.095982
v -0.060519 0.052744 -0.058451
v -0.012205 0.113567 -0.089319
v 0.037979 0.114165 -0.077087
v 0.032819 0.130961 -0.028902
v 0.092074 0.114165 -0.006191
v 0.065027 0.114165 -0.041639
v -0.034343 0.129420 0.025392
v 0.038751 0.128097 0.029463
v -0.027049 0.128314 -0.025780
v -0.079301 0.113567 -0.037613
v -0.034343 0.129420 0.025392
v 0.032819 0.130961 -0.028902
v -0.012205 0.113567 -0.089319
v 0.064833 0.051355 -0.061774
v 0.100787 0.042117 0.000586
v 0.139656 -0.015471 -0.003702
v 0.087019 -0.022081 -0.094123
v -0.003554 -0.012376 -0.142019
v -0.092526 -0.020091 -0.089363
v -0.139656 -0.012376 0.003702
v -0.087956 -0.022081 0.093218
v 0.068023 0.049966 0.065699
v 0.003554 -0.015471 0.142019
v 0.091588 -0.024071 0.088458
v 0.037979 0.114165 -0.077087
v 0.092074 0.114165 -0.006191
v 0.077119 0.110653 0.040064
v 0.065412 0.121131 0.011636
v 0.038751 0.128097 0.029463
v -0.027049 0.128314 -0.025780
v 0.000000 -0.013923 -0.000000
vn 0.1639 0.0994 0.9815
vn -0.6942 0.0252 0.7193
vn -0.7308 0.0082 -0.6826
vn -0.6100 -0.0384 -0.7915
vn 0.2331 0.1363 -0.9629
vn 0.0672 0.9444 -0.3220
vn 0.3577 0.8930 -0.2730
vn 0.0154 0.9988 0.0474
vn -0.0456 0.9986 -0.0281
vn -0.0553 0.9697 -0.2380
vn 0.7637 0.4774 -0.4346
vn -0.4286 0.5475 -0.7188
vn -0.7413 0.5081 0.4386
vn 0.4636 0.4401 0.7690
vn -0.3577 -0.8930 0.2730
vn 0.3634 0.9127 0.1868
vn -0.0000 -0.0000 1.0000
vn 0.0456 -0.9986 0.0281
vn 0.0553 -0.9697 0.2380
vn -0.0114 -0.9999 -0.0106
vn -0.8021 0.4831 0.3512
vn 0.7329 -0.1631 0.6605
vn 0.8405 0.1057 -0.5314
vn 0.0505 -0.9903 0.1291
vn 0.6031 0.0640 -0.7951
vn 0.4098 0.5113 -0.7554
vn -0.4049 0.4807 0.7778
vn -0.7473 0.5441 -0.3815
vn 0.7991 0.4370 0.4128
vn 0.9165 0.0924 0.3891
vt 0.840277 0.708177
vt 0.839539 0.708177
vt 0.836402 0.705144
vt 0.843498 0.705399
vt 0.839950 0.705272
vt 0.846731 0.708715
vt 0.850973 0.705399
vt 0.847235 0.705399
vt 0.849424 0.708715
vt 0.848787 0.708765
vt 0.846277 0.710171
vt 0.845095 0.708765
vt 0.846941 0.708765
vt 0.843450 0.710042
vt 0.843238 0.709931
vt 0.846115 0.709949
vt 0.847425 0.705272
vt 0.843877 0.705144
vt 0.844809 0.696643
vt 0.849584 0.696643
vt 0.854359 0.696643
vt 0.849284 0.696643
vt 0.844208 0.696643
vt 0.838723 0.696643
vt 0.840140 0.705144
vt 0.833237 0.696643
vt 0.839023 0.696643
vt 0.842686 0.708471
vt 0.844166 0.709348
vt 0.844154 0.696643
s 1
usemtl Material.001
f 43/11/81 44/12/81 45/13/81
f 44/12/82 46/14/82 47/15/82 45/13/82
f 48/16/83 49/17/83 50/18/83 46/14/83
f 51/19/84 49/17/84 48/16/84
f 51/19/85 52/20/85 49/17/85
f 51/19/86 53/21/86 52/20/86
f 53/21/87 54/22/87 55/23/87 52/20/87
f 53/21/88 56/24/88 57/25/88
f 53/21/89 58/26/89 56/24/89
f 53/21/90 51/19/90 58/26/90
f 63/27/91 64/28/91 65/29/91 66/30/91
f 50/18/92 49/17/92 67/31/92 68/32/92
f 47/15/93 46/14/93 69/33/93 70/34/93
f 71/35/94 45/13/94 72/36/94 73/37/94
f 53/21/95 74/20/95 75/22/95 54/22/95
f 76/38/96 77/39/96 78/25/96 43/11/96
f 43/11/97 78/25/97 79/26/97 57/25/97
f 58/26/98 61/21/98 60/24/98 56/24/98
f 56/24/97 60/24/97 59/16/97 48/16/97
f 48/16/97 59/16/97 62/19/97 51/19/97
f 51/19/99 62/19/99 61/21/99 58/26/99
f 80/40/100 70/34/100 69/33/100 68/32/100
f 56/24/101 48/16/101 46/14/101 44/12/101
f 76/38/102 43/11/102 45/13/102 71/35/102
f 55/23/103 54/22/103 64/28/103 63/27/103
f 57/25/104 79/26/104 74/20/104 53/21/104
f 52/20/105 55/23/105 63/27/105 49/17/105
f 49/17/106 63/27/106 66/30/106 67/31/106
f 45/13/107 47/15/107 70/34/107 72/36/107
f 73/37/100 72/36/100 70/34/100 80/40/100
f 46/14/108 50/18/108 68/32/108 69/33/108
f 64/28/109 71/35/109 73/37/109 65/29/109
f 54/22/96 75/22/96 77/39/96 76/38/96
f 66/30/100 80/40/100 68/32/100 67/31/100
f 54/22/110 76/38/110 71/35/110 64/28/110
f 65/29/100 73/37/100 80/40/100 66/30/100
