# Blender v3.0.1 OBJ File: 'Poly_Small_Window_02.blend'
# www.blender.org
mtllib Poly_Small_Window_02.mtl
o Cube_Cube.001
v 0.450000 0.450000 -0.712500
v 0.450000 1.050000 -0.712500
v 0.450000 0.450000 -0.412500
v 0.450000 1.050000 -0.412500
v -0.450000 0.450000 -0.712500
v -0.450000 1.050000 -0.712500
v -0.450000 0.450000 -0.412500
v -0.450000 1.050000 -0.412500
v 0.450000 0.975000 -0.712500
v 0.450000 0.975000 -0.412500
v -0.450000 0.975000 -0.412500
v -0.450000 0.975000 -0.712500
v 0.450000 0.525000 -0.412500
v -0.450000 0.525000 -0.412500
v -0.450000 0.525000 -0.712500
v 0.450000 0.525000 -0.712500
v -0.375000 0.450000 -0.412500
v -0.375000 1.050000 -0.412500
v -0.375000 0.450000 -0.712500
v -0.375000 1.050000 -0.712500
v -0.375000 0.975000 -0.712500
v -0.375000 0.975000 -0.412500
v -0.375000 0.525000 -0.412500
v -0.375000 0.525000 -0.712500
v 0.375000 0.450000 -0.412500
v 0.375000 1.050000 -0.712500
v 0.375000 0.975000 -0.712500
v 0.375000 0.525000 -0.712500
v 0.375000 1.050000 -0.412500
v 0.375000 0.450000 -0.712500
v 0.375000 0.975000 -0.412500
v 0.375000 0.525000 -0.412500
v 0.375000 0.975000 -0.487500
v -0.375000 0.975000 -0.487500
v 0.375000 0.525000 -0.487500
v -0.375000 0.525000 -0.487500
vt 0.114151 0.168651
vt 0.114151 0.171153
vt 0.114151 0.171153
vt 0.114151 0.168651
vt 0.074974 0.168651
vt 0.074974 0.171153
vt 0.071959 0.171153
vt 0.072024 0.168651
vt 0.071959 0.171153
vt 0.072024 0.168651
vt 0.093055 0.157525
vt 0.093055 0.157525
vt 0.093055 0.157525
vt 0.093055 0.157525
vt 0.074974 0.143897
vt 0.071959 0.143897
vt 0.071959 0.143897
vt 0.074974 0.143897
vt 0.111070 0.171153
vt 0.111070 0.171153
vt 0.093055 0.157525
vt 0.093055 0.157525
vt 0.072024 0.146335
vt 0.072024 0.146335
vt 0.074974 0.146335
vt 0.114151 0.146335
vt 0.114151 0.146335
vt 0.114151 0.143897
vt 0.114151 0.143897
vt 0.093055 0.157525
vt 0.093055 0.157525
vt 0.093055 0.157525
vt 0.093055 0.157525
vt 0.093055 0.157525
vt 0.093055 0.157525
vt 0.111070 0.143897
vt 0.111070 0.146335
vt 0.078871 0.145254
vt 0.107649 0.145254
vt 0.107649 0.145254
vt 0.078871 0.145254
vt 0.093055 0.157525
vt 0.093055 0.157525
vt 0.074974 0.171153
vt 0.111070 0.143897
vt 0.093055 0.157525
vt 0.093055 0.157525
vt 0.111070 0.168651
vt 0.093640 0.157493
vt 0.093640 0.157493
vt 0.093640 0.157493
vt 0.093640 0.157493
vt 0.078871 0.145254
vt 0.078871 0.145254
vt 0.107649 0.145254
vt 0.078871 0.145254
vt 0.078871 0.145254
vt 0.107649 0.145254
vt 0.107649 0.145254
vt 0.107649 0.145254
vn 1.0000 0.0000 0.0000
vn 0.0000 0.0000 1.0000
vn -1.0000 0.0000 0.0000
vn 0.0000 0.0000 -1.0000
vn 0.0000 -1.0000 0.0000
vn 0.0000 1.0000 0.0000
usemtl Material
s off
f 9/1/1 2/2/1 4/3/1 10/4/1
f 22/5/2 18/6/2 8/7/2 11/8/2
f 11/8/3 8/7/3 6/9/3 12/10/3
f 27/11/4 26/12/4 2/13/4 9/14/4
f 17/15/5 7/16/5 5/17/5 19/18/5
f 29/19/6 4/3/6 2/2/6 26/20/6
f 28/21/4 27/11/4 9/14/4 16/22/4
f 14/23/3 11/8/3 12/10/3 15/24/3
f 23/25/2 22/5/2 11/8/2 14/23/2
f 16/26/1 9/1/1 10/4/1 13/27/1
f 1/28/1 16/26/1 13/27/1 3/29/1
f 17/15/2 23/25/2 14/23/2 7/16/2
f 7/16/3 14/23/3 15/24/3 5/17/3
f 30/30/4 28/21/4 16/22/4 1/31/4
f 5/32/4 15/33/4 24/34/4 19/35/4
f 25/36/2 32/37/2 23/25/2 17/15/2
f 22/38/1 23/39/1 36/40/1 34/41/1
f 15/33/4 12/42/4 21/43/4 24/34/4
f 8/7/6 18/6/6 20/44/6 6/9/6
f 25/36/5 17/15/5 19/18/5 30/45/5
f 12/42/4 6/46/4 20/47/4 21/43/4
f 31/48/2 29/19/2 18/6/2 22/5/2
f 10/4/2 4/3/2 29/19/2 31/48/2
f 3/29/5 25/36/5 30/45/5 1/28/5
f 13/27/2 10/4/2 31/48/2 32/37/2
f 3/29/2 13/27/2 32/37/2 25/36/2
f 19/35/4 24/34/4 28/21/4 30/30/4
f 24/34/4 21/43/4 27/11/4 28/21/4
f 18/6/6 29/19/6 26/20/6 20/44/6
f 21/43/4 20/47/4 26/12/4 27/11/4
f 35/49/2 33/50/2 34/51/2 36/52/2
f 23/39/6 32/53/6 35/54/6 36/40/6
f 32/55/3 31/56/3 33/57/3 35/58/3
f 31/56/5 22/59/5 34/60/5 33/57/5
o Cube.001_Cube.002
v 0.525000 0.972878 -0.412500
v 0.525000 1.200000 -0.412500
v 0.525000 0.972878 -0.112500
v 0.524917 1.200000 -0.262500
v -0.525000 0.972878 -0.412500
v -0.525000 1.200000 -0.412500
v -0.525000 0.972878 -0.112500
v -0.525083 1.200000 -0.262500
v 0.525000 0.972878 -0.712500
v 0.525000 1.200000 -0.712500
v -0.525000 1.200000 -0.712500
v -0.525000 0.972878 -0.712500
v -0.450000 0.975000 -0.112500
v -0.451860 1.200000 -0.262500
v -0.450000 0.975000 -0.300000
v -0.451776 1.200000 -0.412500
v -0.450000 0.975000 -0.712500
v -0.451776 1.200000 -0.712500
v 0.450000 0.975000 -0.112500
v 0.450500 1.200000 -0.412500
v 0.450500 1.200000 -0.712500
v 0.450417 1.200000 -0.262500
v 0.450000 0.975000 -0.300000
v 0.450000 0.975000 -0.712500
v 0.450000 1.049610 -0.412500
v -0.450000 1.049610 -0.412500
v 0.450000 1.049610 -0.712500
v -0.450000 1.049610 -0.712500
vt 0.159713 0.166128
vt 0.151844 0.166046
vt 0.151844 0.162622
vt 0.159790 0.162622
vt 0.138911 0.162164
vt 0.138782 0.165014
vt 0.136060 0.165014
vt 0.136190 0.162164
vt 0.159790 0.162622
vt 0.151844 0.162622
vt 0.151844 0.166046
vt 0.159713 0.166128
vt 0.172381 0.175120
vt 0.175156 0.175120
vt 0.175156 0.165014
vt 0.172352 0.165014
vt 0.136190 0.162164
vt 0.138911 0.162164
vt 0.172381 0.175120
vt 0.175156 0.175120
vt 0.175156 0.165014
vt 0.172381 0.165014
vt 0.172451 0.162164
vt 0.172418 0.163109
vt 0.175091 0.165014
vt 0.175221 0.162164
vt 0.151742 0.166046
vt 0.151742 0.175222
vt 0.159554 0.175303
vt 0.151742 0.166046
vt 0.159554 0.175303
vt 0.151742 0.175222
vt 0.136190 0.162164
vt 0.138911 0.162164
vt 0.138911 0.162164
vt 0.138911 0.162164
vt 0.136060 0.165014
vt 0.138778 0.165014
vt 0.138867 0.163109
vt 0.136047 0.175120
vt 0.138774 0.175120
vt 0.138774 0.165014
vt 0.136047 0.165014
vt 0.172451 0.162164
vt 0.172451 0.162164
vt 0.136047 0.175120
vt 0.138774 0.175120
vt 0.136047 0.165014
vt 0.172322 0.165014
vt 0.175221 0.162164
vt 0.175091 0.165014
vt 0.175221 0.162164
vt 0.172451 0.162164
vt 0.172451 0.162164
vn 1.0000 0.0002 0.0002
vn -0.0079 0.5529 0.8332
vn -1.0000 -0.0002 -0.0002
vn 0.0000 1.0000 0.0000
vn 0.0283 -0.9996 -0.0000
vn -0.0000 -0.0000 -1.0000
vn -1.0000 0.0000 0.0000
vn 1.0000 0.0000 0.0000
vn 0.0000 -1.0000 -0.0000
vn 0.0000 0.5547 0.8321
vn 0.0078 0.5529 0.8332
vn -0.0283 -0.9996 -0.0000
vn 0.0000 -0.8334 -0.5527
usemtl Material
s off
f 37/61/7 38/62/7 40/63/7 39/64/7
f 49/65/8 50/66/8 44/67/8 43/68/8
f 43/69/9 44/70/9 42/71/9 41/72/9
f 56/73/10 38/74/10 46/75/10 57/76/10
f 49/65/11 43/68/11 41/77/11 51/78/11
f 58/79/10 40/80/10 38/81/10 56/82/10
f 60/83/12 63/84/12 57/76/12 46/85/12 45/86/12
f 41/72/13 42/87/13 47/88/13 48/89/13
f 38/90/14 37/61/14 45/91/14 46/92/14
f 51/78/11 41/77/11 48/93/11 53/94/11
f 51/78/14 53/94/14 64/95/14 62/96/14
f 48/93/12 47/97/12 54/98/12 64/99/12 53/94/12
f 44/100/10 50/101/10 52/102/10 42/103/10
f 55/104/15 49/65/15 51/78/15 59/105/15
f 42/106/10 52/107/10 54/98/10 47/108/10
f 55/104/16 58/109/16 50/66/16 49/65/16
f 39/110/17 40/111/17 58/109/17 55/104/17
f 39/110/18 55/104/18 59/105/18 37/112/18
f 37/112/18 59/105/18 60/83/18 45/86/18
f 50/101/10 58/79/10 56/82/10 52/102/10
f 52/107/10 56/73/10 57/76/10 54/98/10
f 61/113/15 62/96/15 64/95/15 63/114/15
f 59/105/19 51/78/19 62/96/19 61/113/19
f 60/83/13 59/105/13 61/113/13 63/114/13
f 64/99/12 54/98/12 57/76/12 63/114/12
