# Blender 3.6.5
# www.blender.org
mtllib Poly_SF_Outside_B_Hole_Metal_Ladder_01.mtl
o Cube
v -0.440000 -1.100000 0.440000
v -0.440000 0.050000 0.440000
v -0.440000 -1.100000 -0.440000
v -0.440000 0.050000 -0.440000
v 0.440000 -1.100000 0.440000
v 0.440000 0.050000 0.440000
v 0.440000 -1.100000 -0.440000
v 0.440000 0.050000 -0.440000
v -0.440000 -0.100000 0.440000
v -0.440000 -0.100000 -0.440000
v 0.440000 -0.100000 -0.440000
v 0.440000 -0.100000 0.440000
v -0.500000 0.050000 0.500000
v -0.500000 0.050000 -0.500000
v 0.500000 0.050000 0.500000
v 0.500000 0.050000 -0.500000
v -0.500000 0.000000 0.500000
v -0.500000 0.000000 -0.500000
v 0.500000 0.000000 0.500000
v 0.500000 0.000000 -0.500000
vn 1.0000 -0.0000 -0.0000
vn -0.0000 -0.0000 1.0000
vn -1.0000 -0.0000 -0.0000
vn -0.0000 -0.0000 -1.0000
vn -0.0000 1.0000 -0.0000
vt 0.941905 0.045687
vt 0.995925 0.045687
vt 0.995925 0.054460
vt 0.941905 0.054460
vt 0.941905 0.002874
vt 0.995925 0.002874
vt 0.995925 0.002874
vt 0.941905 0.002874
vt 0.995091 0.368613
vt 0.943392 0.368613
vt 0.938526 0.374917
vt 0.999957 0.374917
vt 0.995037 0.369610
vt 0.953233 0.369610
vt 0.953233 0.364615
vt 0.995037 0.364615
vt 0.895251 0.011090
s 0
usemtl Material
f 9/1/1 10/2/1 4/3/1 2/4/1
f 10/2/2 11/1/2 8/4/2 4/3/2
f 11/2/3 12/1/3 6/4/3 8/3/3
f 12/1/4 9/2/4 2/3/4 6/4/4
f 5/5/4 1/6/4 9/2/4 12/1/4
f 7/7/3 5/8/3 12/1/3 11/2/3
f 3/6/2 7/5/2 11/1/2 10/2/2
f 1/8/1 3/7/1 10/2/1 9/1/1
f 8/9/5 6/10/5 15/11/5 16/12/5
f 2/9/5 4/10/5 14/11/5 13/12/5
f 6/9/5 2/10/5 13/11/5 15/12/5
f 4/10/5 8/9/5 16/12/5 14/11/5
f 15/13/2 13/14/2 17/15/2 19/16/2
f 14/14/4 16/13/4 20/16/4 18/15/4
f 16/13/1 15/14/1 19/15/1 20/16/1
f 13/14/3 14/13/3 18/16/3 17/15/3
f 3/17/5 1/17/5 5/17/5 7/17/5
o Cube.001
v -0.300000 -1.200000 -0.440000
v -0.400000 -1.200000 -0.440000
v -0.400000 -0.900000 -0.440000
v -0.300000 -0.900000 -0.440000
v -0.300000 -1.200000 -0.380000
v -0.400000 -1.200000 -0.380000
v -0.400000 -0.900000 -0.380000
v -0.400000 -0.830000 -0.380000
v -0.400000 -0.830000 -0.440000
v -0.300000 -0.900000 -0.380000
v -0.300000 -0.830000 -0.380000
v -0.300000 -0.830000 -0.440000
v -0.300000 -0.570000 -0.440000
v -0.300000 -0.570000 -0.380000
v -0.300000 -0.500000 -0.380000
v 0.000000 -0.570000 -0.380000
v 0.000000 -0.500000 -0.380000
v -0.400000 -0.570000 -0.440000
v -0.400000 -0.500000 -0.440000
v -0.300000 -0.500000 -0.440000
v -0.400000 -0.570000 -0.380000
v -0.300000 -0.270000 -0.440000
v -0.300000 -0.270000 -0.380000
v -0.400000 -0.500000 -0.380000
v -0.300000 0.100000 -0.440000
v -0.400000 -0.270000 -0.380000
v -0.400000 -0.270000 -0.440000
v 0.000000 -0.900000 -0.380000
v 0.000000 -0.900000 -0.440000
v 0.000000 -0.830000 -0.440000
v 0.000000 -0.830000 -0.380000
v 0.000000 -0.570000 -0.440000
v 0.000000 -0.500000 -0.440000
v -0.300000 -0.200000 -0.440000
v -0.400000 -0.200000 -0.440000
v -0.400000 0.100000 -0.440000
v -0.300000 -0.200000 -0.380000
v -0.400000 -0.200000 -0.380000
v -0.300000 0.100000 -0.380000
v -0.400000 0.100000 -0.380000
v 0.000000 -0.270000 -0.380000
v 0.000000 -0.270000 -0.440000
v 0.000000 -0.200000 -0.440000
v 0.000000 -0.200000 -0.380000
v 0.300000 -1.200000 -0.440000
v 0.300000 -0.900000 -0.440000
v 0.400000 -0.900000 -0.440000
v 0.400000 -1.200000 -0.440000
v 0.400000 -1.200000 -0.380000
v 0.300000 -1.200000 -0.380000
v 0.400000 -0.830000 -0.440000
v 0.400000 -0.830000 -0.380000
v 0.400000 -0.900000 -0.380000
v 0.300000 -0.900000 -0.380000
v 0.300000 -0.830000 -0.380000
v 0.300000 -0.570000 -0.380000
v 0.300000 -0.570000 -0.440000
v 0.300000 -0.830000 -0.440000
v 0.300000 -0.500000 -0.380000
v 0.300000 -0.500000 -0.440000
v 0.400000 -0.500000 -0.440000
v 0.400000 -0.570000 -0.440000
v 0.400000 -0.570000 -0.380000
v 0.300000 -0.270000 -0.380000
v 0.300000 -0.270000 -0.440000
v 0.400000 -0.500000 -0.380000
v 0.300000 0.100000 -0.440000
v 0.400000 -0.270000 -0.380000
v 0.400000 -0.270000 -0.440000
v 0.300000 -0.200000 -0.440000
v 0.400000 0.100000 -0.440000
v 0.400000 -0.200000 -0.440000
v 0.400000 -0.200000 -0.380000
v 0.300000 -0.200000 -0.380000
v 0.300000 0.100000 -0.380000
v 0.400000 0.100000 -0.380000
vn -0.0000 -0.0000 -1.0000
vn -1.0000 -0.0000 -0.0000
vn 1.0000 -0.0000 -0.0000
vn -0.0000 -0.0000 1.0000
vn -0.0000 -1.0000 -0.0000
vn -0.0000 1.0000 -0.0000
vn -0.5774 0.5774 -0.5774
vn -0.0000 0.7071 -0.7071
vn -0.5774 0.5774 0.5774
vn -0.0000 0.7071 0.7071
vn 0.5774 0.5774 -0.5774
vn 0.5774 0.5774 0.5774
vt 0.760296 0.154102
vt 0.753963 0.154102
vt 0.753963 0.172040
vt 0.760296 0.172040
vt 0.753963 0.171876
vt 0.760296 0.171876
vt 0.760296 0.176081
vt 0.753963 0.176081
vt 0.753963 0.153859
vt 0.760296 0.153859
vt 0.753963 0.191696
vt 0.760296 0.191696
vt 0.760296 0.169123
vt 0.760296 0.163006
vt 0.786282 0.163006
vt 0.786282 0.169123
vt 0.760296 0.176226
vt 0.753963 0.176226
vt 0.760296 0.191772
vt 0.753963 0.191772
vt 0.760296 0.195900
vt 0.753963 0.195900
vt 0.753963 0.209714
vt 0.760296 0.209714
vt 0.753963 0.195957
vt 0.760296 0.195957
vt 0.760296 0.209710
vt 0.753963 0.209710
vt 0.760296 0.213895
vt 0.753963 0.213895
vt 0.753963 0.231833
vt 0.760296 0.231833
vt 0.760296 0.213918
vt 0.760296 0.231936
vt 0.753963 0.231936
vt 0.753963 0.213918
vt 0.753963 0.246233
vt 0.753963 0.249922
vt 0.760296 0.249922
vt 0.760296 0.246233
s 1
usemtl Material
f 21/18/6 22/19/6 23/20/6 24/21/6
f 23/22/7 27/23/7 28/24/7 29/25/7
f 22/26/7 26/27/7 27/23/7 23/22/7
f 25/27/8 21/26/8 24/22/8 30/23/8
f 26/19/9 25/18/9 30/21/9 27/20/9
f 31/24/8 32/25/8 33/28/8 34/29/8
f 35/30/9 34/31/9 36/32/9 37/33/9
f 27/20/9 30/21/9 31/34/9 28/35/9
f 28/35/9 31/34/9 34/36/9 41/37/9
f 29/25/7 28/24/7 41/29/7 38/37/7
f 35/38/8 40/39/8 42/40/8 43/41/8
f 38/37/7 41/29/7 44/38/7 39/42/7
f 41/37/9 34/36/9 35/43/9 44/42/9
f 44/42/9 35/43/9 43/44/9 46/45/9
f 39/42/7 44/38/7 46/41/7 47/45/7
f 30/31/10 24/30/10 49/33/10 48/32/10
f 32/30/11 31/31/11 51/32/11 50/33/11
f 34/31/10 33/30/10 52/33/10 36/32/10
f 40/30/11 35/31/11 37/32/11 53/33/11
f 31/30/9 30/31/9 48/32/9 51/33/9
f 54/46/6 55/47/6 56/48/12 45/49/13
f 46/45/9 43/44/9 57/46/9 58/47/9
f 47/45/7 46/41/7 58/50/7 55/47/7
f 55/47/7 58/50/7 60/51/14 56/52/12
f 57/50/8 54/53/8 45/52/8 59/51/8
f 58/47/9 57/46/9 59/49/15 60/48/14
f 43/31/10 42/30/10 62/33/10 61/32/10
f 57/30/9 43/31/9 61/32/9 64/33/9
f 54/30/11 57/31/11 64/32/11 63/33/11
f 65/18/6 66/21/6 67/20/6 68/19/6
f 67/22/8 71/25/8 72/24/8 73/23/8
f 68/26/8 67/22/8 73/23/8 69/27/8
f 70/27/7 74/23/7 66/22/7 65/26/7
f 69/19/9 73/20/9 74/21/9 70/18/9
f 75/24/7 76/29/7 77/28/7 78/25/7
f 79/30/9 37/33/9 36/32/9 76/31/9
f 73/20/9 72/35/9 75/34/9 74/21/9
f 72/35/9 83/37/9 76/36/9 75/34/9
f 71/25/8 82/37/8 83/29/8 72/24/8
f 79/38/7 84/41/7 85/40/7 80/39/7
f 82/37/8 81/42/8 86/38/8 83/29/8
f 83/37/9 86/42/9 79/43/9 76/36/9
f 86/42/9 88/45/9 84/44/9 79/43/9
f 81/42/8 89/45/8 88/41/8 86/38/8
f 74/31/10 48/32/10 49/33/10 66/30/10
f 78/30/11 50/33/11 51/32/11 75/31/11
f 76/31/10 36/32/10 52/33/10 77/30/10
f 80/30/11 53/33/11 37/32/11 79/31/11
f 75/30/9 51/33/9 48/32/9 74/31/9
f 90/46/6 87/49/13 91/48/16 92/47/6
f 88/45/9 93/47/9 94/46/9 84/44/9
f 89/45/8 92/47/8 93/50/8 88/41/8
f 92/47/8 91/52/16 96/51/17 93/50/8
f 94/50/7 95/51/7 87/52/7 90/53/7
f 93/47/9 96/48/17 95/49/15 94/46/9
f 59/54/15 45/55/13 56/56/12 60/57/14
f 96/57/17 91/56/16 87/55/13 95/54/15
f 84/31/10 61/32/10 62/33/10 85/30/10
f 94/30/9 64/33/9 61/32/9 84/31/9
f 90/30/11 63/33/11 64/32/11 94/31/11
