# Blender 3.6.5
# www.blender.org
mtllib Poly_World_Map_Mountain_Canyon_01.mtl
o Cube.002_Cube.004
v -0.104097 0.400281 0.737800
v 0.165180 0.370715 0.600724
v 0.256787 0.370715 0.441934
v 0.287193 0.370715 0.165011
v 0.072056 0.381495 -0.038756
v -0.101272 0.381495 -0.118488
v -0.248123 0.381495 0.222443
v -0.276707 0.370715 0.596116
v 0.056856 -0.008785 0.048766
v 0.478225 -0.008785 -0.161443
v 0.210230 -0.008785 0.170926
v 0.524961 -0.008785 -0.444176
v 0.515701 0.689390 -0.499906
v 0.435601 0.700731 -0.109302
v -0.247177 -0.008785 -0.434768
v -0.068005 -0.008785 -0.673767
v 0.339688 -0.008785 -0.682210
v -0.122684 -0.008785 0.699374
v -0.308508 -0.008785 0.557040
v -0.298079 -0.008785 0.274664
v -0.182119 -0.008785 -0.081240
v -0.116688 0.689390 -0.157341
v -0.166140 0.689390 -0.383753
v 0.074293 0.700731 0.102624
v 0.099548 -0.008785 -0.010088
v -0.070973 -0.008785 -0.098510
v 0.239689 0.700731 0.222493
v 0.357409 -0.008785 0.069357
v 0.399363 -0.008785 0.469799
v -0.064169 0.689390 -0.664752
v 0.328847 0.689390 -0.739886
v 0.193801 -0.008785 0.665516
v 0.461537 -0.008785 0.505890
v 0.791692 -0.008785 0.341205
v 0.590883 -0.008785 0.529537
v 0.804271 -0.008785 0.077015
v 0.683022 0.716926 0.065649
v 0.671057 0.724306 0.300794
v 0.233980 -0.008785 -0.036043
v 0.459906 -0.008785 -0.155929
v 0.655255 -0.008785 -0.154772
v 0.222561 -0.008785 0.375884
v 0.397132 0.716926 0.249751
v 0.381796 0.716926 0.091434
v 0.468551 0.724306 0.402102
v 0.602612 0.724306 0.410425
v 0.497234 0.716926 -0.009044
v 0.625284 0.716926 -0.037530
v -0.511455 -0.008785 0.245515
v -0.090086 -0.008785 0.035305
v -0.358081 -0.008785 0.367675
v -0.043350 -0.008785 -0.247427
v -0.088497 0.516822 -0.274506
v -0.158681 0.526759 0.067747
v -0.739011 -0.008785 -0.296419
v -0.529249 -0.008785 -0.471455
v -0.281539 -0.008785 -0.583951
v -0.750431 -0.008785 0.115510
v -0.642605 0.516822 0.025654
v -0.661449 0.520000 -0.211137
v -0.475265 0.526759 0.253439
v -0.330342 0.526759 0.358470
v -0.507378 0.520000 -0.411988
v -0.320012 0.516822 -0.537176
v -0.441007 0.737415 0.077353
v -0.339888 0.737415 0.054215
v -0.256348 0.737415 -0.058085
v -0.132972 0.737415 -0.257801
v -0.302148 0.741518 -0.431421
v -0.487527 0.741518 -0.354263
v -0.644084 0.741518 -0.163034
v -0.607884 0.737415 0.013450
v -0.456992 0.525723 0.127836
v -0.640754 0.525723 0.024237
v -0.659771 0.519685 -0.212887
v -0.320352 0.525723 -0.537091
v -0.507421 0.520000 -0.412112
v -0.088460 0.525723 -0.273552
v -0.178781 0.525723 -0.057237
v -0.313101 0.525723 0.084968
v 0.367115 0.930411 -0.232333
v 0.490684 0.930411 -0.486821
v 0.311517 0.930411 -0.604203
v -0.004487 0.930411 -0.590527
v -0.033598 0.935093 -0.350048
v 0.013481 0.935093 -0.231249
v 0.118771 0.935093 -0.154735
v 0.248737 0.930411 -0.141160
v 0.409743 0.688812 -0.210601
v 0.248581 0.688812 -0.048159
v 0.103328 0.688812 -0.054478
v -0.166870 0.688812 -0.383332
v -0.117994 0.688812 -0.157311
v -0.062992 0.688812 -0.664479
v 0.330049 0.688812 -0.739662
v 0.515153 0.688812 -0.498732
v 0.072056 0.644614 -0.038756
v 0.287193 0.633834 0.165011
v 0.256787 0.633834 0.441934
v 0.165180 0.633834 0.600724
v -0.119376 0.623112 0.690843
v -0.005208 0.390888 0.401181
v 0.024395 0.633863 0.383709
v 0.706142 0.578547 0.067817
v 0.694060 0.584520 0.308500
v 0.363845 0.578547 0.273802
v 0.467214 0.584520 0.421892
v 0.490116 0.578547 -0.037052
v 0.600375 0.584520 0.433137
v 0.630999 0.578547 -0.059886
v 0.353610 0.578547 0.067127
v 0.072056 0.519218 -0.038756
v 0.256787 0.508438 0.441934
v -0.112095 0.516917 0.713221
v 0.287193 0.508438 0.165011
v 0.165180 0.508438 0.600724
v 0.010287 0.518067 0.392036
v -0.624344 0.631406 0.018852
v -0.497489 0.630588 -0.383232
v -0.110682 0.631406 -0.265688
v -0.326474 0.631406 0.069615
v -0.449012 0.631406 0.102633
v -0.311264 0.633454 -0.484337
v -0.217505 0.631406 -0.057660
v -0.651940 0.630431 -0.187999
v -0.033739 0.809611 -0.627503
v 0.502919 0.809611 -0.492777
v -0.052257 0.811952 -0.194280
v 0.320783 0.809611 -0.671932
v 0.388429 0.809612 -0.221467
v -0.100234 0.811952 -0.366690
v 0.111049 0.811952 -0.104607
v 0.248659 0.809611 -0.094660
vn 0.0114 0.9999 -0.0053
vn 0.9822 0.0367 0.1844
vn -0.9756 0.1058 0.1926
vn -0.6717 0.0512 0.7391
vn -0.6042 -0.0392 0.7958
vn -0.8773 0.0737 -0.4743
vn 0.7885 -0.0385 -0.6138
vn -0.0071 0.9999 -0.0128
vn 0.4392 -0.0235 -0.8981
vn 0.2816 0.0356 0.9589
vn -0.9929 0.1045 -0.0573
vn 0.9624 0.2713 -0.0164
vn -0.6187 -0.0376 0.7847
vn 0.7433 0.2437 0.6230
vn 0.5111 0.1387 -0.8483
vn -0.8857 -0.0206 -0.4638
vn -0.1038 -0.0352 -0.9940
vn 0.8193 -0.0342 0.5723
vn 0.9852 0.1650 0.0457
vn 0.9853 0.1650 0.0452
vn -0.9758 0.2167 0.0297
vn -0.9739 0.2163 0.0682
vn -0.9758 0.2167 0.0292
vn -0.7430 0.1935 0.6407
vn -0.8533 0.1832 0.4883
vn -0.7468 0.1933 0.6364
vn -0.1012 0.1508 0.9834
vn -0.0722 0.1508 0.9859
vn -0.5631 0.2223 -0.7959
vn -0.6148 0.2215 -0.7569
vn -0.5623 0.2223 -0.7965
vn 0.8503 0.1259 -0.5111
vn 0.8598 0.1257 -0.4949
vn 0.8504 0.1259 -0.5109
vn -0.0101 0.9998 -0.0173
vn -0.1234 0.1783 -0.9762
vn -0.1845 0.1769 -0.9668
vn -0.1216 0.1783 -0.9764
vn 0.7697 0.1253 0.6259
vn 0.8161 0.1221 0.5648
vn 0.7672 0.1254 0.6290
vn 0.9779 0.1039 0.1813
vn -0.9848 0.1732 0.0121
vn -0.6558 0.1462 0.7407
vn -0.6055 0.0371 0.7950
vn -0.7092 0.1606 -0.6865
vn 0.7849 0.0740 -0.6152
vn -0.0037 0.9999 -0.0109
vn -0.4774 0.0806 -0.8750
vn 0.8169 0.0187 0.5764
vn 0.0068 0.9999 0.0102
vn -0.4496 0.3469 -0.8231
vn -0.4072 0.3508 -0.8433
vn -0.4540 0.3465 -0.8209
vn 0.2549 0.1885 0.9484
vn 0.2391 0.1889 0.9524
vn 0.2554 0.1885 0.9483
vn -0.9862 0.0985 0.1328
vn -0.9818 0.0952 0.1642
vn -0.9867 0.0989 0.1287
vn 0.8665 0.2343 0.4407
vn 0.8479 0.2276 0.4787
vn 0.8633 0.2332 0.4477
vn -0.4236 0.1774 0.8883
vn -0.3901 0.1758 0.9038
vn -0.4253 0.1775 0.8875
vn 0.7383 0.2293 0.6343
vn 0.7582 0.2323 0.6092
vn 0.7405 0.2297 0.6316
vn 0.7192 0.2304 -0.6554
vn 0.7095 0.2326 -0.6652
vn 0.7178 0.2307 -0.6569
vn -0.7666 0.2090 -0.6072
vn -0.7617 0.2100 -0.6129
vn -0.7675 0.2088 -0.6061
vn 0.0084 1.0000 -0.0053
vn -0.8472 0.4750 0.2381
vn -0.8377 0.4728 0.2734
vn -0.8478 0.4751 0.2356
vn 0.9133 0.1346 0.3845
vn 0.9028 0.1337 0.4088
vn 0.9128 0.1346 0.3855
vn -0.0608 0.3693 0.9273
vn -0.0718 0.3693 0.9265
vn -0.0609 0.3693 0.9273
vn -0.1158 0.4030 -0.9078
vn -0.0791 0.4019 -0.9123
vn -0.1145 0.4030 -0.9080
vn 0.6527 0.2289 0.7222
vn 0.6276 0.2317 0.7433
vn 0.6553 0.2285 0.7199
vn 0.6815 0.2683 -0.6809
vn 0.6090 0.2805 -0.7420
vn 0.6717 0.2702 -0.6898
vn -0.8884 0.3991 -0.2269
vn -0.9020 0.3936 -0.1775
vn -0.8861 0.3998 -0.2343
vn -0.4408 0.4133 0.7968
vn -0.4784 0.4162 0.7732
vn -0.4374 0.4130 0.7988
vn 0.6877 -0.0000 -0.7260
vn 0.8662 -0.0000 0.4997
vn 0.9940 -0.0000 0.1091
vn 0.3782 0.1008 0.9202
vn 0.3792 0.1008 0.9198
vn 0.3372 0.1010 0.9360
vn 0.0002 0.9999 0.0153
vn -0.9676 0.0162 -0.2519
vn -0.9362 -0.0197 -0.3508
vn -0.9203 -0.0257 -0.3903
vn -0.9681 0.0174 -0.2499
vn -0.9884 0.0529 -0.1421
vn -0.9905 0.0536 -0.1263
vn 0.7223 0.1276 0.6797
vn -0.0633 0.1790 -0.9818
vn 0.8418 0.1260 -0.5249
vn -0.5127 0.2222 -0.8293
vn -0.1303 0.1506 0.9800
vn -0.6202 0.1969 0.7593
vn -0.9762 0.2168 -0.0019
vn 0.9852 0.1650 0.0462
vn -0.9861 0.0522 -0.1579
vn -0.9699 0.0172 -0.2430
vn -0.9478 -0.0149 -0.3186
vn 0.4191 0.1004 0.9024
vn -0.7722 0.2078 -0.6004
vn 0.7251 0.2291 -0.6494
vn 0.7229 0.2269 0.6526
vn -0.4552 0.1788 0.8723
vn 0.8805 0.2395 0.4091
vn -0.9896 0.1016 0.1023
vn 0.2690 0.1881 0.9446
vn -0.4925 0.3421 -0.8002
vn -0.4082 0.4102 0.8156
vn -0.8723 0.4036 -0.2760
vn 0.7273 0.2586 -0.6358
vn 0.6750 0.2261 0.7023
vn -0.1446 0.4035 -0.9035
vn -0.0503 0.3692 0.9280
vn 0.9221 0.1354 0.3625
vn -0.8544 0.4764 0.2077
vt 0.810279 0.332480
vt 0.820837 0.335130
vt 0.826353 0.341894
vt 0.828299 0.349747
vt 0.819062 0.357057
vt 0.811444 0.360493
vt 0.804134 0.351531
vt 0.802068 0.340854
vt 0.820112 0.389405
vt 0.820112 0.404803
vt 0.811315 0.404803
vt 0.811315 0.389405
vt 0.802016 0.376882
vt 0.790152 0.383957
vt 0.780099 0.383687
vt 0.771765 0.379752
vt 0.772279 0.367116
vt 0.774974 0.358516
vt 0.788294 0.358874
vt 0.799191 0.364694
vt 0.861602 0.392071
vt 0.861602 0.399894
vt 0.849143 0.399894
vt 0.849143 0.392071
vt 0.861602 0.392071
vt 0.849143 0.392071
vt 0.778780 0.357888
vt 0.774639 0.368905
vt 0.776286 0.377338
vt 0.780705 0.383793
vt 0.791029 0.381540
vt 0.797723 0.378030
vt 0.795541 0.366856
vt 0.789208 0.358512
vt 0.861602 0.392071
vt 0.801943 0.376569
vt 0.790249 0.383591
vt 0.779976 0.383470
vt 0.771750 0.379434
vt 0.772262 0.366822
vt 0.774952 0.358238
vt 0.788248 0.358595
vt 0.799124 0.364404
vt 0.789474 0.382965
vt 0.783285 0.383254
vt 0.778399 0.378612
vt 0.771267 0.369983
vt 0.779854 0.358281
vt 0.789972 0.358622
vt 0.797921 0.367696
vt 0.799939 0.377142
vt 0.849143 0.392071
vt 0.861602 0.392071
vt 0.861603 0.392071
vt 0.849143 0.392071
vt 0.861603 0.392071
vt 0.849143 0.392071
vt 0.849142 0.392071
vt 0.777686 0.381687
vt 0.770676 0.370192
vt 0.778996 0.357375
vt 0.791458 0.358246
vt 0.796822 0.372363
vt 0.799528 0.376497
vt 0.792837 0.382067
vt 0.784775 0.384706
vt 0.849143 0.392071
vt 0.772237 0.372075
vt 0.785271 0.383941
vt 0.861602 0.399835
vt 0.849143 0.399835
vt 0.768616 0.374690
vt 0.777854 0.382708
vt 0.789397 0.385829
vt 0.802171 0.373402
vt 0.786770 0.365872
vt 0.771370 0.358342
vt 0.811315 0.371420
vt 0.811315 0.398437
vt 0.820112 0.398437
vt 0.820112 0.371420
vt 0.820112 0.398437
vt 0.820112 0.398437
vt 0.811315 0.398437
vt 0.811315 0.398437
vt 0.811315 0.398437
vt 0.820112 0.395023
vt 0.811315 0.395023
vt 0.811315 0.400142
vt 0.820112 0.400142
vt 0.820112 0.399898
vt 0.811315 0.399684
vt 0.820112 0.399684
vt 0.811315 0.399684
vt 0.811315 0.399905
vt 0.820112 0.399905
vt 0.820112 0.399905
vt 0.811315 0.399905
vt 0.820112 0.399905
vt 0.811314 0.399905
vt 0.811314 0.399905
vt 0.820112 0.399905
vt 0.820113 0.399905
vt 0.811315 0.399905
vt 0.811315 0.399913
vt 0.820112 0.399913
vt 0.820112 0.399913
vt 0.811315 0.399913
vt 0.811315 0.399913
vt 0.811315 0.399913
vt 0.820112 0.399913
vt 0.820112 0.399913
s 1
usemtl Material.002
f 1/1/1 2/2/1 3/3/1 4/4/1 5/5/1 6/6/1 7/7/1 8/8/1
f 12/9/2 13/10/2 14/11/2 10/12/2
f 21/12/3 22/11/3 23/10/3 15/9/3
f 9/9/4 24/10/4 22/11/4 21/12/4
f 11/12/5 27/11/5 24/10/5 9/9/5
f 15/9/6 23/10/6 30/11/6 16/12/6
f 17/12/7 31/11/7 13/10/7 12/9/7
f 31/13/8 30/14/8 23/15/8 22/16/8 24/17/8 27/18/8 14/19/8 13/20/8
f 26/12/9 6/11/9 5/10/9 25/9/9
f 32/9/10 2/10/10 1/11/10 18/12/10
f 19/9/11 8/10/11 7/11/11 20/12/11
f 28/12/12 4/11/12 3/10/12 29/9/12
f 18/12/13 1/11/13 8/10/13 19/9/13
f 29/9/14 3/10/14 2/11/14 32/12/14
f 25/9/15 5/10/15 4/11/15 28/12/15
f 20/12/16 7/11/16 6/10/16 26/9/16
f 16/9/17 30/10/17 31/11/17 17/12/17
f 10/12/18 14/11/18 27/10/18 11/9/18
f 104/21/19 37/22/20 38/23/20 105/24/19
f 106/24/21 43/23/22 44/22/22 111/21/23
f 107/25/24 45/22/25 43/23/25 106/24/26
f 109/26/27 46/23/28 45/22/28 107/25/27
f 111/21/29 44/22/30 47/23/30 108/26/31
f 110/24/32 48/23/33 37/22/33 104/21/34
f 48/27/35 47/28/35 44/29/35 43/30/35 45/31/35 46/32/35 38/33/35 37/34/35
f 108/25/36 47/22/37 48/23/37 110/24/38
f 105/24/39 38/23/40 46/22/40 109/35/41
f 52/9/42 53/10/42 54/11/42 50/12/42
f 58/12/43 59/11/43 60/10/43 55/9/43
f 49/9/44 61/10/44 59/11/44 58/12/44
f 51/12/45 62/11/45 61/10/45 49/9/45
f 55/9/46 60/10/46 63/11/46 56/12/46
f 57/12/47 64/11/47 53/10/47 52/9/47
f 64/36/48 63/37/48 60/38/48 59/39/48 61/40/48 62/41/48 54/42/48 53/43/48
f 56/9/49 63/10/49 64/11/49 57/12/49
f 50/12/50 54/11/50 62/10/50 51/9/50
f 65/44/51 66/45/51 67/46/51 68/47/51 69/48/51 70/49/51 71/50/51 72/51/51
f 119/52/52 70/23/53 69/22/53 123/53/54
f 121/54/55 66/22/56 65/23/56 122/55/57
f 118/56/58 72/22/59 71/23/59 125/57/60
f 120/57/61 68/23/62 67/22/62 124/56/63
f 122/55/64 65/23/65 72/22/65 118/56/66
f 124/56/67 67/22/68 66/23/68 121/58/69
f 123/53/70 69/22/71 68/23/71 120/57/72
f 125/57/73 71/23/74 70/22/74 119/21/75
f 81/59/76 82/60/76 83/61/76 84/62/76 85/63/76 86/64/76 87/65/76 88/66/76
f 128/24/77 86/23/78 85/22/78 131/21/79
f 127/25/80 82/22/81 81/23/81 130/24/82
f 133/35/83 88/22/84 87/23/84 132/67/85
f 126/24/86 84/23/87 83/22/87 129/21/88
f 130/24/89 81/23/90 88/22/90 133/35/91
f 129/21/92 83/22/93 82/23/93 127/26/94
f 131/21/95 85/22/96 84/23/96 126/24/97
f 132/67/98 87/23/99 86/22/99 128/21/100
f 115/68/101 112/69/101 97/69/101 98/68/101
f 116/26/102 113/35/102 99/70/102 100/71/102
f 113/26/103 115/35/103 98/70/103 99/71/103
f 114/35/104 116/26/105 100/71/106 101/70/106
f 100/72/107 99/73/107 98/74/107 97/75/107 103/76/107 101/77/107
f 117/24/108 114/35/109 101/22/110 103/23/111
f 112/25/112 117/24/108 103/23/111 97/22/113
f 34/78/114 105/79/39 109/80/41 35/81/114
f 40/81/115 108/82/36 110/79/38 41/78/115
f 41/78/116 110/79/32 104/83/34 36/81/116
f 39/81/117 111/83/29 108/84/31 40/78/117
f 35/78/118 109/85/27 107/82/27 33/81/118
f 33/81/119 107/82/24 106/86/26 42/78/119
f 42/78/120 106/86/21 111/83/23 39/81/120
f 36/81/121 104/83/19 105/79/19 34/78/121
f 5/87/122 102/88/123 117/89/108 112/90/112
f 102/88/123 1/87/124 114/91/109 117/89/108
f 1/10/125 2/11/125 116/92/105 114/91/104
f 3/11/103 4/10/103 115/93/103 113/94/103
f 2/11/102 3/10/102 113/93/102 116/92/102
f 4/68/101 5/69/101 112/69/101 115/68/101
f 75/88/126 125/95/73 119/96/75 77/87/126
f 76/87/127 123/97/70 120/98/72 78/88/127
f 79/87/128 124/99/67 121/100/69 80/88/128
f 73/88/129 122/101/64 118/102/66 74/87/129
f 78/88/130 120/98/61 124/99/63 79/87/130
f 74/87/131 118/102/58 125/95/60 75/88/131
f 80/87/132 121/103/55 122/101/57 73/88/132
f 77/88/133 119/104/52 123/97/54 76/87/133
f 91/88/134 132/105/98 128/106/100 93/87/134
f 92/87/135 131/107/95 126/108/97 94/88/135
f 95/87/136 129/107/92 127/109/94 96/88/136
f 89/88/137 130/110/89 133/111/91 90/87/137
f 94/88/138 126/108/86 129/107/88 95/87/138
f 90/87/139 133/111/83 132/105/85 91/88/139
f 96/87/140 127/112/80 130/110/82 89/88/140
f 93/88/141 128/108/77 131/107/79 92/87/141
o Cube.002_Cube.001
v -0.390502 -0.008785 0.608710
v -0.233697 -0.008785 0.449518
v -0.302859 -0.008785 0.639948
v -0.256219 -0.008785 0.315412
v -0.280651 0.109503 0.310202
v -0.259497 0.119440 0.474635
v -0.576032 -0.008785 0.400454
v -0.508803 -0.008785 0.289607
v -0.414917 -0.008785 0.200997
v -0.517779 -0.008785 0.587121
v -0.483202 0.080534 0.530196
v -0.528093 0.112681 0.426802
v -0.373038 0.090472 0.606699
v -0.291824 0.090472 0.631549
v -0.489836 0.112681 0.312937
v -0.424990 0.109503 0.227913
v -0.384753 0.213064 0.522385
v -0.342921 0.213064 0.496440
v -0.322700 0.213063 0.433177
v -0.298045 0.189278 0.324544
v -0.400700 0.203709 0.272637
v -0.472043 0.224119 0.335795
v -0.512897 0.240805 0.445723
v -0.469494 0.236702 0.519375
v -0.384161 0.118404 0.547506
v -0.482589 0.118404 0.529275
v -0.527610 0.112366 0.425758
v -0.425129 0.118404 0.228004
v -0.489874 0.112681 0.312888
v -0.280488 0.118404 0.310625
v -0.287750 0.118404 0.421623
v -0.326165 0.118404 0.506124
v -0.476051 0.177274 0.524332
v -0.480972 0.176456 0.324324
v -0.289253 0.177274 0.317574
v -0.334530 0.177274 0.501289
v -0.384456 0.177274 0.534964
v -0.412933 0.179322 0.250286
v -0.305198 0.177274 0.427391
v -0.520265 0.176299 0.435725
vn 0.9666 0.2090 -0.1484
vn -0.8552 0.3851 0.3468
vn -0.3681 0.3684 0.8537
vn -0.3138 0.0946 0.9448
vn -0.8580 0.3187 -0.4028
vn 0.5379 0.1545 -0.8287
vn -0.0441 0.9965 0.0712
vn -0.7262 0.1667 -0.6669
vn 0.1674 0.9833 -0.0713
vn -0.6679 0.3881 -0.6351
vn -0.5844 0.4791 -0.6550
vn -0.6768 0.3773 -0.6322
vn 0.5466 0.2083 0.8110
vn 0.5260 0.2609 0.8095
vn 0.5473 0.2065 0.8111
vn -0.8913 0.0823 0.4459
vn -0.8765 0.0792 0.4748
vn -0.8929 0.0826 0.4426
vn -0.1011 0.1684 0.9805
vn -0.0512 0.1842 0.9816
vn -0.1030 0.1678 0.9804
vn 0.8997 0.2471 0.3599
vn 0.8916 0.3183 0.3221
vn 0.8990 0.2559 0.3554
vn 0.4678 0.3155 -0.8256
vn 0.4215 0.5444 -0.7252
vn 0.4623 0.3541 -0.8129
vn -0.9238 0.1868 -0.3342
vn -0.9165 0.1995 -0.3468
vn -0.9250 0.1846 -0.3321
vn -0.9318 0.1721 -0.3197
vn 0.4795 0.1951 -0.8556
vn 0.9018 0.1947 0.3857
vn -0.1484 0.1529 0.9770
vn -0.9048 0.0852 0.4171
vn 0.5635 0.1610 0.8103
vn -0.7423 0.2891 -0.6046
vt 0.820112 0.394959
vt 0.820112 0.399964
vt 0.811315 0.399964
vt 0.811315 0.394959
vt 0.786010 0.362654
vt 0.779453 0.358716
vt 0.773692 0.358784
vt 0.769079 0.361048
vt 0.769366 0.368120
vt 0.770874 0.372934
vt 0.780609 0.375175
vt 0.786708 0.371918
vt 0.779018 0.359068
vt 0.775547 0.358906
vt 0.772808 0.361509
vt 0.768808 0.366348
vt 0.773624 0.372910
vt 0.781576 0.375160
vt 0.786033 0.370072
vt 0.784887 0.362333
vt 0.849143 0.392071
vt 0.849143 0.399894
vt 0.861602 0.399894
vt 0.861602 0.392071
vt 0.861603 0.392071
vt 0.849143 0.392071
vt 0.861603 0.392071
vt 0.849143 0.392071
vt 0.849142 0.392071
vt 0.861602 0.392071
vt 0.811315 0.399964
vt 0.820112 0.399964
vt 0.820112 0.399964
vt 0.820112 0.399964
vt 0.811314 0.399964
vt 0.811314 0.399964
vt 0.820113 0.399964
vt 0.811315 0.399964
s 1
usemtl Material.002
f 137/113/142 138/114/142 139/115/142 135/116/142
f 143/116/143 144/115/143 145/114/143 140/113/143
f 134/113/144 146/114/144 144/115/144 143/116/144
f 136/116/145 147/115/145 146/114/145 134/113/145
f 140/113/146 145/114/146 148/115/146 141/116/146
f 142/116/147 149/115/147 138/114/147 137/113/147
f 149/117/148 148/118/148 145/119/148 144/120/148 146/121/148 147/122/148 139/123/148 138/124/148
f 141/113/149 148/114/149 149/115/149 142/116/149
f 150/125/150 151/126/150 152/127/150 153/128/150 154/129/150 155/130/150 156/131/150 157/132/150
f 167/133/151 155/134/152 154/135/152 171/136/153
f 169/137/154 151/135/155 150/134/155 170/138/156
f 166/139/157 157/135/158 156/134/158 173/140/159
f 170/138/160 150/134/161 157/135/161 166/139/162
f 172/139/163 152/135/164 151/134/164 169/141/165
f 171/136/166 154/135/167 153/134/167 168/140/168
f 173/140/169 156/134/170 155/135/170 167/142/171
f 160/116/172 173/143/169 167/144/171 162/113/172
f 161/113/173 171/145/166 168/143/168 163/116/173
f 164/113/174 172/146/163 169/147/165 165/116/174
f 158/116/175 170/148/160 166/146/162 159/113/175
f 159/113/176 166/146/157 173/143/159 160/116/176
f 165/113/177 169/149/154 170/148/156 158/116/177
f 162/116/178 167/150/151 171/145/153 161/113/178
