# Blender 3.6.5
# www.blender.org
mtllib Poly_SF_Outside_B_Scap_Metal_01.mtl
o Cube.002
v 0.085478 0.141839 0.521828
v -0.443989 0.061881 0.331739
v -0.311205 0.182921 -0.181805
v 0.169838 0.006940 -0.550380
v 0.566880 0.022352 0.032744
v -0.017966 0.464842 0.121200
v 0.482841 -0.006904 0.518081
v 0.672309 -0.006904 -0.115985
v -0.195493 -0.006904 0.589952
v 0.223445 -0.006904 0.650138
v -0.525422 -0.006904 0.179882
v -0.493689 -0.006324 0.455771
v -0.335224 -0.006904 -0.443710
v -0.416896 0.000000 -0.255858
v 0.434265 -0.006904 -0.443710
v 0.050074 -0.006904 -0.568821
v 0.325628 0.162733 0.484975
v -0.211647 0.171488 0.451631
v -0.389494 0.173830 0.131069
v -0.123753 0.128370 -0.463639
v 0.530714 0.028106 -0.120909
v 0.064453 0.313636 0.417224
v 0.392057 0.323483 0.084655
v -0.287780 0.326448 0.266393
v -0.312484 0.284988 -0.203366
v 0.164510 0.440188 -0.177147
v -0.292021 0.019570 -0.516872
v -0.455950 -0.014227 -0.411544
v -0.463715 0.038425 -0.221080
v -0.307550 0.124875 -0.135944
v -0.143620 0.158672 -0.241272
v -0.135856 0.106019 -0.431736
v -0.324393 0.113067 -0.473264
v -0.431820 0.090919 -0.404240
v -0.436908 0.125424 -0.279424
v -0.334570 0.182076 -0.223633
v -0.227143 0.204224 -0.292657
v -0.222055 0.169720 -0.417473
v -0.179445 0.249571 -0.267861
v -0.171681 0.196919 -0.458326
v -0.499539 0.129325 -0.247669
v -0.343374 0.215775 -0.162533
v -0.327846 0.110470 -0.543461
v -0.491775 0.076673 -0.438133
vn 0.0842 0.5257 0.8465
vn -0.5715 0.4984 0.6519
vn -0.9677 -0.0637 -0.2440
vn 0.0463 0.6523 -0.7565
vn 0.8374 0.5168 -0.1778
vn 0.3334 0.9342 0.1267
vn 0.7206 0.5908 -0.3629
vn 0.6506 0.5002 -0.5714
vn -0.2869 0.9243 -0.2518
vn -0.2138 0.7607 -0.6128
vn -0.8371 -0.1231 -0.5330
vn -0.4779 0.8769 -0.0523
vn -0.8298 0.5580 -0.0056
vn -0.8534 0.5180 0.0572
vn -0.1771 0.8556 0.4864
vn -0.2666 0.6825 0.6805
vn -0.1514 0.5005 0.8524
vn 0.3329 0.8741 0.3538
vn 0.3792 0.8352 0.3983
vn 0.8434 0.4354 0.3148
vn 0.2406 0.9704 -0.0203
vn 0.2420 0.9542 -0.1758
vn 0.1076 0.9844 -0.1389
vn 0.0425 0.6467 -0.7615
vn -0.2922 0.3242 -0.8998
vn -0.5054 0.7200 -0.4755
vn -0.8155 0.5474 -0.1881
vn -0.8085 0.5561 -0.1926
vn -0.7740 0.6186 0.1349
vn -0.5144 0.8216 0.2457
vn -0.3399 0.5568 0.7579
vn -0.1266 0.6006 0.7894
vn 0.0531 0.6800 0.7313
vn 0.3900 0.5109 0.7661
vn 0.7074 0.6876 0.1639
vn 0.1790 -0.8161 -0.5495
vn -0.7454 0.5704 -0.3450
vn -0.7282 0.6804 0.0823
vn -0.1153 0.5854 0.8025
vn 0.4290 0.8942 0.1282
vn -0.0021 -1.0000 -0.0005
vn -0.6026 0.7625 -0.2354
vn -0.1983 0.8459 -0.4951
vn -0.2175 0.9757 -0.0254
vn -0.4806 0.8769 -0.0088
vn -0.4615 0.7470 -0.4785
vn -0.0764 0.9602 -0.2686
vn -0.3538 0.8977 -0.2626
vn -0.9345 -0.3511 0.0590
vn 0.4332 0.4061 0.8046
vn 0.5013 -0.0550 -0.8635
vn -0.4332 -0.4061 -0.8046
vn -0.5013 0.0550 0.8635
vn 0.9345 0.3511 -0.0590
vt 0.781589 0.626857
vt 0.792706 0.633673
vt 0.781015 0.636572
vt 0.756680 0.638648
vt 0.766541 0.632743
vt 0.767190 0.646004
vt 0.767613 0.667924
vt 0.758663 0.657333
vt 0.771740 0.665273
vt 0.793573 0.675539
vt 0.780614 0.675769
vt 0.788592 0.660551
vt 0.802143 0.646947
vt 0.802646 0.653606
vt 0.794428 0.647085
vt 0.777421 0.650847
vt 0.808300 0.651599
vt 0.802885 0.667845
vt 0.788956 0.677806
vt 0.771832 0.677676
vt 0.758054 0.667506
vt 0.752886 0.651181
vt 0.758138 0.630540
vt 0.758138 0.630622
vt 0.772230 0.624974
vt 0.789354 0.625104
vt 0.803132 0.635274
vt 0.751258 0.640194
vt 0.772230 0.626718
vt 0.789354 0.626848
vt 0.781589 0.630410
vt 0.758300 0.634935
vt 0.768481 0.667984
vt 0.766412 0.670431
vt 0.759252 0.670431
vt 0.757183 0.667984
vt 0.757551 0.672771
vt 0.757551 0.668596
vt 0.762609 0.665676
vt 0.767667 0.668596
vt 0.767667 0.672771
vt 0.762609 0.675691
vt 0.758067 0.665551
vt 0.758067 0.669302
vt 0.764110 0.669302
vt 0.764110 0.665551
vt 0.756375 0.669082
vt 0.756407 0.672107
vt 0.763642 0.676284
vt 0.766905 0.675434
vt 0.766872 0.672408
vt 0.760832 0.667521
s 0
usemtl regular
f 1/1/1 17/2/1 22/3/1
f 2/4/2 18/5/2 24/6/2
f 3/7/3 19/8/3 25/9/3
f 4/10/4 20/11/4 26/12/4
f 5/13/5 21/14/5 23/15/5
f 23/15/6 26/12/6 6/16/6
f 23/15/7 21/14/7 26/12/7
f 21/14/8 4/10/8 26/12/8
f 26/12/9 25/9/9 6/16/9
f 26/12/10 20/11/10 25/9/10
f 20/11/11 3/7/11 25/9/11
f 25/9/12 24/6/12 6/16/12
f 25/9/13 19/8/13 24/6/13
f 19/8/14 2/4/14 24/6/14
f 24/6/15 22/3/15 6/16/15
f 24/6/16 18/5/16 22/3/16
f 18/5/17 1/1/17 22/3/17
f 22/3/18 23/15/18 6/16/18
f 22/3/19 17/2/19 23/15/19
f 17/2/20 5/13/20 23/15/20
f 8/17/21 21/14/21 5/13/21
f 8/17/22 15/18/22 21/14/22
f 15/18/23 4/10/23 21/14/23
f 16/19/24 20/11/24 4/10/24
f 16/19/25 13/20/25 20/11/25
f 13/20/26 3/7/26 20/11/26
f 14/21/27 19/8/27 3/7/27
f 14/21/28 11/22/28 19/8/28
f 11/22/29 2/4/29 19/8/29
f 12/23/30 18/5/30 2/4/30
f 12/24/31 9/25/31 18/5/31
f 9/25/32 1/1/32 18/5/32
f 10/26/33 17/2/33 1/1/33
f 10/26/34 7/27/34 17/2/34
f 7/27/35 5/13/35 17/2/35
f 15/18/36 16/19/36 4/10/36
f 13/20/37 14/21/37 3/7/37
f 11/28/38 12/23/38 2/4/38
f 9/29/39 10/30/39 1/31/39
f 7/27/40 8/17/40 5/13/40
f 8/17/41 7/27/41 10/26/41 9/25/41 12/32/41 11/22/41 14/21/41 13/20/41 16/19/41 15/18/41
f 40/33/42 38/34/42 37/35/42 39/36/42
f 42/33/43 36/34/43 35/35/43 41/36/43
f 44/33/44 34/34/44 33/35/44 43/36/44
f 43/36/45 33/35/45 38/34/45 40/33/45
f 39/36/46 37/35/46 36/34/46 42/33/46
f 41/36/47 35/35/47 34/34/47 44/33/47
f 34/37/48 35/38/48 36/39/48 37/40/48 38/41/48 33/42/48
f 29/43/49 41/44/49 44/45/49 28/46/49
f 31/43/50 39/44/50 42/45/50 30/46/50
f 27/43/51 43/44/51 40/45/51 32/46/51
f 28/46/52 44/45/52 43/44/52 27/43/52
f 30/46/53 42/45/53 41/44/53 29/43/53
f 32/46/54 40/45/54 39/44/54 31/43/54
f 28/47/48 29/48/48 30/49/48 31/50/48 32/51/48 27/52/48
o Cube.001
v -0.107774 0.228912 -0.499694
v -0.096230 0.323489 -0.440765
v 0.261483 0.278246 -0.427022
v 0.242161 0.368698 -0.374168
v -0.574820 0.176790 0.060685
v -0.528171 0.307754 0.071793
v -0.293358 0.166439 0.120327
v -0.316892 0.331162 0.128086
v -0.465101 0.086309 0.402156
v -0.232803 0.208726 0.467040
v -0.480226 0.175670 0.418346
v -0.217678 0.119365 0.450850
v -0.338090 0.386784 -0.180152
v -0.114558 0.247512 -0.160112
v -0.367253 0.261706 -0.214093
v -0.138240 0.413558 -0.152502
vn -0.6404 0.3967 -0.6576
vn 0.0981 0.5176 -0.8500
vn -0.1563 0.9701 0.1858
vn 0.8273 0.0924 0.5540
vn -0.9612 0.1060 0.2546
vn -0.1972 0.9061 0.3744
vn 0.9680 0.1651 -0.1892
vn 0.5380 -0.1069 0.8361
vn 0.0450 -0.9974 0.0555
vn -0.0731 0.9489 -0.3071
vn -0.8006 0.3256 -0.5031
vt 0.771310 0.664634
vt 0.766915 0.664634
vt 0.774605 0.672793
vt 0.781041 0.672793
vt 0.774605 0.670595
vt 0.788175 0.672793
vt 0.788419 0.670962
vt 0.776619 0.664634
vt 0.758614 0.655173
vt 0.771044 0.655173
vt 0.771967 0.664634
vt 0.766161 0.655173
vt 0.770170 0.664634
vt 0.763212 0.655173
vt 0.771961 0.664634
vt 0.789395 0.670758
vt 0.786710 0.671898
vt 0.775465 0.670493
vt 0.782397 0.667320
vt 0.765828 0.655173
vt 0.771351 0.664634
s 0
usemtl regular
f 59/53/55 57/54/55 46/55/55 45/56/55
f 45/57/56 46/55/56 48/58/56 47/59/56
f 60/60/57 57/54/57 50/61/57 52/62/57
f 58/60/58 60/63/58 52/64/58 51/62/58
f 53/54/59 55/65/59 50/66/59 49/61/59
f 52/62/60 50/61/60 55/54/60 54/60/60
f 51/62/61 52/64/61 54/67/61 56/60/61
f 47/68/62 48/69/62 60/70/62 58/71/62
f 45/55/63 47/58/63 58/60/63 59/54/63
f 48/58/64 46/55/64 57/54/64 60/60/64
f 49/72/65 50/61/65 57/54/65 59/73/65
o Cube.003
v -0.600000 0.001000 0.700000
v 0.700000 0.001000 0.700000
v -0.600000 0.001000 -0.600000
v 0.700000 0.001000 -0.600000
vn -0.0000 1.0000 -0.0000
vt 0.750350 0.625314
vt 0.812371 0.625314
vt 0.812371 0.683266
vt 0.750350 0.683266
s 0
usemtl regular
f 61/74/66 62/75/66 64/76/66 63/77/66
