# Blender 3.6.5
# www.blender.org
mtllib Poly_SF_Outside_B_Iron_Materials_01.mtl
o Cube.002
v -0.400000 0.000000 0.500000
v -0.390000 0.250000 0.500000
v -0.400000 0.000000 -0.500000
v -0.390000 0.250000 -0.500000
v -0.150000 0.000000 0.500000
v -0.160000 0.250000 0.500000
v -0.150000 0.000000 -0.500000
v -0.160000 0.250000 -0.500000
v -0.390000 0.190000 0.500000
v -0.390000 0.190000 -0.500000
v -0.160000 0.190000 -0.500000
v -0.160000 0.190000 0.500000
v -0.400000 0.060000 -0.500000
v -0.150000 0.060000 -0.500000
v -0.150000 0.060000 0.500000
v -0.400000 0.060000 0.500000
v -0.310000 0.060000 -0.500000
v -0.310000 0.060000 0.500000
v -0.310000 0.190000 -0.500000
v -0.310000 0.190000 0.500000
v -0.240000 0.190000 -0.500000
v -0.240000 0.190000 0.500000
v -0.240000 0.060000 -0.500000
v -0.240000 0.060000 0.500000
v -0.390000 0.250000 -0.500000
v -0.400000 0.000000 -0.500000
v -0.390000 0.250000 0.500000
v -0.400000 0.000000 0.500000
v -0.150000 0.000000 0.500000
v -0.160000 0.250000 0.500000
v -0.150000 0.000000 -0.500000
v -0.160000 0.250000 -0.500000
v -0.390000 0.190000 0.500000
v -0.390000 0.190000 -0.500000
v -0.160000 0.190000 -0.500000
v -0.160000 0.190000 0.500000
v -0.400000 0.060000 -0.500000
v -0.150000 0.060000 -0.500000
v -0.150000 0.060000 0.500000
v -0.400000 0.060000 0.500000
v -0.310000 0.060000 -0.500000
v -0.310000 0.060000 0.500000
v -0.310000 0.190000 -0.500000
v -0.310000 0.190000 0.500000
v -0.240000 0.190000 -0.500000
v -0.240000 0.190000 0.500000
v -0.240000 0.060000 -0.500000
v -0.240000 0.060000 0.500000
v -0.125000 0.000000 0.562590
v -0.115000 0.250000 0.562590
v -0.125000 0.000000 -0.437410
v -0.115000 0.250000 -0.437410
v 0.125000 0.000000 0.562590
v 0.115000 0.250000 0.562590
v 0.125000 0.000000 -0.437410
v 0.115000 0.250000 -0.437410
v -0.115000 0.190000 0.562590
v -0.115000 0.190000 -0.437410
v 0.115000 0.190000 -0.437410
v 0.115000 0.190000 0.562590
v -0.125000 0.060000 -0.437410
v 0.125000 0.060000 -0.437410
v 0.125000 0.060000 0.562590
v -0.125000 0.060000 0.562590
v -0.035000 0.060000 -0.437410
v -0.035000 0.060000 0.562590
v -0.035000 0.190000 -0.437410
v -0.035000 0.190000 0.562590
v 0.035000 0.190000 -0.437410
v 0.035000 0.190000 0.562590
v 0.035000 0.060000 -0.437410
v 0.035000 0.060000 0.562590
v -0.115000 0.250000 -0.437410
v -0.125000 0.000000 -0.437410
v -0.115000 0.250000 0.562590
v -0.125000 0.000000 0.562590
v 0.125000 0.000000 0.562590
v 0.115000 0.250000 0.562590
v 0.125000 0.000000 -0.437410
v 0.115000 0.250000 -0.437410
v -0.115000 0.190000 0.562590
v -0.115000 0.190000 -0.437410
v 0.115000 0.190000 -0.437410
v 0.115000 0.190000 0.562590
v -0.125000 0.060000 -0.437410
v 0.125000 0.060000 -0.437410
v 0.125000 0.060000 0.562590
v -0.125000 0.060000 0.562590
v -0.035000 0.060000 -0.437410
v -0.035000 0.060000 0.562590
v -0.035000 0.190000 -0.437410
v -0.035000 0.190000 0.562590
v 0.035000 0.190000 -0.437410
v 0.035000 0.190000 0.562590
v 0.035000 0.060000 -0.437410
v 0.035000 0.060000 0.562590
v 0.150000 0.000000 0.419239
v 0.160000 0.250000 0.419239
v 0.150000 0.000000 -0.580761
v 0.160000 0.250000 -0.580761
v 0.400000 0.000000 0.419239
v 0.390000 0.250000 0.419239
v 0.400000 0.000000 -0.580761
v 0.390000 0.250000 -0.580761
v 0.160000 0.190000 0.419239
v 0.160000 0.190000 -0.580761
v 0.390000 0.190000 -0.580761
v 0.390000 0.190000 0.419239
v 0.150000 0.060000 -0.580761
v 0.400000 0.060000 -0.580761
v 0.400000 0.060000 0.419239
v 0.150000 0.060000 0.419239
v 0.240000 0.060000 -0.580761
v 0.240000 0.060000 0.419239
v 0.240000 0.190000 -0.580761
v 0.240000 0.190000 0.419239
v 0.310000 0.190000 -0.580761
v 0.310000 0.190000 0.419239
v 0.310000 0.060000 -0.580761
v 0.310000 0.060000 0.419239
v 0.160000 0.250000 -0.580761
v 0.150000 0.000000 -0.580761
v 0.160000 0.250000 0.419239
v 0.150000 0.000000 0.419239
v 0.400000 0.000000 0.419239
v 0.390000 0.250000 0.419239
v 0.400000 0.000000 -0.580761
v 0.390000 0.250000 -0.580761
v 0.160000 0.190000 0.419239
v 0.160000 0.190000 -0.580761
v 0.390000 0.190000 -0.580761
v 0.390000 0.190000 0.419239
v 0.150000 0.060000 -0.580761
v 0.400000 0.060000 -0.580761
v 0.400000 0.060000 0.419239
v 0.150000 0.060000 0.419239
v 0.240000 0.060000 -0.580761
v 0.240000 0.060000 0.419239
v 0.240000 0.190000 -0.580761
v 0.240000 0.190000 0.419239
v 0.310000 0.190000 -0.580761
v 0.310000 0.190000 0.419239
v 0.310000 0.060000 -0.580761
v 0.310000 0.060000 0.419239
v -0.279952 0.249536 0.432803
v -0.269952 0.499536 0.432803
v -0.279952 0.249536 -0.567197
v -0.269952 0.499536 -0.567197
v -0.029952 0.249536 0.432803
v -0.039952 0.499536 0.432803
v -0.029952 0.249536 -0.567197
v -0.039952 0.499536 -0.567197
v -0.269952 0.439536 0.432803
v -0.269952 0.439536 -0.567197
v -0.039952 0.439536 -0.567197
v -0.039952 0.439536 0.432803
v -0.279952 0.309536 -0.567197
v -0.029952 0.309536 -0.567197
v -0.029952 0.309536 0.432803
v -0.279952 0.309536 0.432803
v -0.189952 0.309536 -0.567197
v -0.189952 0.309536 0.432803
v -0.189952 0.439536 -0.567197
v -0.189952 0.439536 0.432803
v -0.119952 0.439536 -0.567197
v -0.119952 0.439536 0.432803
v -0.119952 0.309536 -0.567197
v -0.119952 0.309536 0.432803
v -0.269952 0.499536 -0.567197
v -0.279952 0.249536 -0.567197
v -0.269952 0.499536 0.432803
v -0.279952 0.249536 0.432803
v -0.029952 0.249536 0.432803
v -0.039952 0.499536 0.432803
v -0.029952 0.249536 -0.567197
v -0.039952 0.499536 -0.567197
v -0.269952 0.439536 0.432803
v -0.269952 0.439536 -0.567197
v -0.039952 0.439536 -0.567197
v -0.039952 0.439536 0.432803
v -0.279952 0.309536 -0.567197
v -0.029952 0.309536 -0.567197
v -0.029952 0.309536 0.432803
v -0.279952 0.309536 0.432803
v -0.189952 0.309536 -0.567197
v -0.189952 0.309536 0.432803
v -0.189952 0.439536 -0.567197
v -0.189952 0.439536 0.432803
v -0.119952 0.439536 -0.567197
v -0.119952 0.439536 0.432803
v -0.119952 0.309536 -0.567197
v -0.119952 0.309536 0.432803
v -0.004952 0.249536 0.494599
v 0.005048 0.499536 0.494599
v -0.004952 0.249536 -0.505401
v 0.005048 0.499536 -0.505401
v 0.245048 0.249536 0.494599
v 0.235048 0.499536 0.494599
v 0.245048 0.249536 -0.505401
v 0.235048 0.499536 -0.505401
v 0.005048 0.439536 0.494599
v 0.005048 0.439536 -0.505401
v 0.235048 0.439536 -0.505401
v 0.235048 0.439536 0.494599
v -0.004952 0.309536 -0.505401
v 0.245048 0.309536 -0.505401
v 0.245048 0.309536 0.494599
v -0.004952 0.309536 0.494599
v 0.085048 0.309536 -0.505401
v 0.085048 0.309536 0.494599
v 0.085048 0.439536 -0.505401
v 0.085048 0.439536 0.494599
v 0.155048 0.439536 -0.505401
v 0.155048 0.439536 0.494599
v 0.155048 0.309536 -0.505401
v 0.155048 0.309536 0.494599
v 0.005048 0.499536 -0.505401
v -0.004952 0.249536 -0.505401
v 0.005048 0.499536 0.494599
v -0.004952 0.249536 0.494599
v 0.245048 0.249536 0.494599
v 0.235048 0.499536 0.494599
v 0.245048 0.249536 -0.505401
v 0.235048 0.499536 -0.505401
v 0.005048 0.439536 0.494599
v 0.005048 0.439536 -0.505401
v 0.235048 0.439536 -0.505401
v 0.235048 0.439536 0.494599
v -0.004952 0.309536 -0.505401
v 0.245048 0.309536 -0.505401
v 0.245048 0.309536 0.494599
v -0.004952 0.309536 0.494599
v 0.085048 0.309536 -0.505401
v 0.085048 0.309536 0.494599
v 0.085048 0.439536 -0.505401
v 0.085048 0.439536 0.494599
v 0.155048 0.439536 -0.505401
v 0.155048 0.439536 0.494599
v 0.155048 0.309536 -0.505401
v 0.155048 0.309536 0.494599
vn -1.0000 -0.0000 -0.0000
vn 1.0000 -0.0000 -0.0000
vn -0.0000 -1.0000 -0.0000
vn -0.0000 1.0000 -0.0000
vn -0.0000 -0.0000 -1.0000
vn -0.0000 -0.0000 1.0000
vt 0.368465 0.053287
vt 0.360715 0.053287
vt 0.360715 0.011812
vt 0.368465 0.011812
vt 0.326876 0.062486
vt 0.341093 0.062486
vt 0.341093 0.021408
vt 0.326876 0.021408
vt 0.342491 0.009408
vt 0.342491 0.014238
vt 0.336207 0.014238
vt 0.330821 0.014238
vt 0.324537 0.014238
vt 0.324537 0.009408
vt 0.360924 0.011812
vt 0.360924 0.053287
vt 0.368153 0.053287
vt 0.368153 0.011812
vt 0.330821 0.019765
vt 0.336207 0.019765
vt 0.336207 0.014238
vt 0.330821 0.014238
vt 0.325893 0.019765
vt 0.325893 0.023319
vt 0.342491 0.023319
vt 0.342491 0.019765
vt 0.342491 0.019765
vt 0.342491 0.023319
vt 0.325893 0.023319
vt 0.325893 0.019765
vt 0.330821 0.019765
vt 0.336207 0.019765
vt 0.324537 0.009408
vt 0.324537 0.014238
vt 0.342491 0.014238
vt 0.342491 0.009408
s 0
usemtl regular
f 9/1/1 2/2/1 4/3/1 10/4/1
f 11/4/2 8/3/2 6/2/2 12/1/2
f 3/5/3 7/6/3 5/7/3 1/8/3
f 8/6/4 4/5/4 2/8/4 6/7/4
f 26/9/5 37/10/5 41/11/5 47/12/5 38/13/5 31/14/5
f 11/15/3 12/16/3 22/17/3 21/18/3
f 1/1/1 16/2/1 13/3/1 3/4/1
f 7/4/2 14/3/2 15/2/2 5/1/2
f 9/16/3 10/15/3 19/18/3 20/17/3
f 13/18/4 16/17/4 18/16/4 17/15/4
f 15/17/4 14/18/4 23/15/4 24/16/4
f 23/3/2 21/4/2 22/1/2 24/2/2
f 46/19/6 44/20/6 42/21/6 48/22/6
f 36/23/6 30/24/6 27/25/6 33/26/6 44/20/6 46/19/6
f 18/2/1 20/1/1 19/4/1 17/3/1
f 34/27/5 25/28/5 32/29/5 35/30/5 45/31/5 43/32/5
f 29/33/6 39/34/6 48/22/6 42/21/6 40/35/6 28/36/6
f 43/32/5 45/31/5 47/12/5 41/11/5
f 57/1/1 50/2/1 52/3/1 58/4/1
f 59/4/2 56/3/2 54/2/2 60/1/2
f 51/5/3 55/6/3 53/7/3 49/8/3
f 56/6/4 52/5/4 50/8/4 54/7/4
f 74/9/5 85/10/5 89/11/5 95/12/5 86/13/5 79/14/5
f 59/15/3 60/16/3 70/17/3 69/18/3
f 49/1/1 64/2/1 61/3/1 51/4/1
f 55/4/2 62/3/2 63/2/2 53/1/2
f 57/16/3 58/15/3 67/18/3 68/17/3
f 61/18/4 64/17/4 66/16/4 65/15/4
f 63/17/4 62/18/4 71/15/4 72/16/4
f 71/3/2 69/4/2 70/1/2 72/2/2
f 94/19/6 92/20/6 90/21/6 96/22/6
f 84/23/6 78/24/6 75/25/6 81/26/6 92/20/6 94/19/6
f 66/2/1 68/1/1 67/4/1 65/3/1
f 82/27/5 73/28/5 80/29/5 83/30/5 93/31/5 91/32/5
f 77/33/6 87/34/6 96/22/6 90/21/6 88/35/6 76/36/6
f 91/32/5 93/31/5 95/12/5 89/11/5
f 105/1/1 98/2/1 100/3/1 106/4/1
f 107/4/2 104/3/2 102/2/2 108/1/2
f 99/5/3 103/6/3 101/7/3 97/8/3
f 104/6/4 100/5/4 98/8/4 102/7/4
f 122/9/5 133/10/5 137/11/5 143/12/5 134/13/5 127/14/5
f 107/15/3 108/16/3 118/17/3 117/18/3
f 97/1/1 112/2/1 109/3/1 99/4/1
f 103/4/2 110/3/2 111/2/2 101/1/2
f 105/16/3 106/15/3 115/18/3 116/17/3
f 109/18/4 112/17/4 114/16/4 113/15/4
f 111/17/4 110/18/4 119/15/4 120/16/4
f 119/3/2 117/4/2 118/1/2 120/2/2
f 142/19/6 140/20/6 138/21/6 144/22/6
f 132/23/6 126/24/6 123/25/6 129/26/6 140/20/6 142/19/6
f 114/2/1 116/1/1 115/4/1 113/3/1
f 130/27/5 121/28/5 128/29/5 131/30/5 141/31/5 139/32/5
f 125/33/6 135/34/6 144/22/6 138/21/6 136/35/6 124/36/6
f 139/32/5 141/31/5 143/12/5 137/11/5
f 153/1/1 146/2/1 148/3/1 154/4/1
f 155/4/2 152/3/2 150/2/2 156/1/2
f 147/5/3 151/6/3 149/7/3 145/8/3
f 152/6/4 148/5/4 146/8/4 150/7/4
f 170/9/5 181/10/5 185/11/5 191/12/5 182/13/5 175/14/5
f 155/15/3 156/16/3 166/17/3 165/18/3
f 145/1/1 160/2/1 157/3/1 147/4/1
f 151/4/2 158/3/2 159/2/2 149/1/2
f 153/16/3 154/15/3 163/18/3 164/17/3
f 157/18/4 160/17/4 162/16/4 161/15/4
f 159/17/4 158/18/4 167/15/4 168/16/4
f 167/3/2 165/4/2 166/1/2 168/2/2
f 190/19/6 188/20/6 186/21/6 192/22/6
f 180/23/6 174/24/6 171/25/6 177/26/6 188/20/6 190/19/6
f 162/2/1 164/1/1 163/4/1 161/3/1
f 178/27/5 169/28/5 176/29/5 179/30/5 189/31/5 187/32/5
f 173/33/6 183/34/6 192/22/6 186/21/6 184/35/6 172/36/6
f 187/32/5 189/31/5 191/12/5 185/11/5
f 201/1/1 194/2/1 196/3/1 202/4/1
f 203/4/2 200/3/2 198/2/2 204/1/2
f 195/5/3 199/6/3 197/7/3 193/8/3
f 200/6/4 196/5/4 194/8/4 198/7/4
f 218/9/5 229/10/5 233/11/5 239/12/5 230/13/5 223/14/5
f 203/15/3 204/16/3 214/17/3 213/18/3
f 193/1/1 208/2/1 205/3/1 195/4/1
f 199/4/2 206/3/2 207/2/2 197/1/2
f 201/16/3 202/15/3 211/18/3 212/17/3
f 205/18/4 208/17/4 210/16/4 209/15/4
f 207/17/4 206/18/4 215/15/4 216/16/4
f 215/3/2 213/4/2 214/1/2 216/2/2
f 238/19/6 236/20/6 234/21/6 240/22/6
f 228/23/6 222/24/6 219/25/6 225/26/6 236/20/6 238/19/6
f 210/2/1 212/1/1 211/4/1 209/3/1
f 226/27/5 217/28/5 224/29/5 227/30/5 237/31/5 235/32/5
f 221/33/6 231/34/6 240/22/6 234/21/6 232/35/6 220/36/6
f 235/32/5 237/31/5 239/12/5 233/11/5
