# Blender 3.6.5
# www.blender.org
mtllib Poly_SF_Outside_B_Signboard_01.mtl
o Cube.004
v -0.350000 0.000000 -0.053000
v -0.350000 0.800000 -0.053000
v -0.300000 0.000000 -0.016000
v -0.300000 0.800000 -0.016000
v -0.319000 0.000000 0.043000
v -0.319000 0.800000 0.043000
v -0.381000 0.000000 0.043000
v -0.381000 0.800000 0.043000
v -0.400000 0.000000 -0.016000
v -0.400000 0.800000 -0.016000
v 0.350000 0.000000 -0.053000
v 0.350000 0.800000 -0.053000
v 0.300000 0.000000 -0.016000
v 0.300000 0.800000 -0.016000
v 0.319000 0.000000 0.043000
v 0.319000 0.800000 0.043000
v 0.381000 0.000000 0.043000
v 0.381000 0.800000 0.043000
v 0.400000 0.000000 -0.016000
v 0.400000 0.800000 -0.016000
vn 0.5948 -0.0000 -0.8038
vn 0.9519 -0.0000 0.3065
vn -0.0000 -0.0000 1.0000
vn -0.0000 1.0000 -0.0000
vn -0.9519 -0.0000 0.3065
vn -0.5948 -0.0000 -0.8038
vn -0.0000 -1.0000 -0.0000
vt 0.074600 0.001934
vt 0.074600 0.049901
vt 0.079250 0.049901
vt 0.079250 0.001934
vt 0.074086 0.122496
vt 0.070944 0.124779
vt 0.067803 0.122496
vt 0.069003 0.118803
vt 0.072886 0.118803
vt 0.070943 0.124779
vt 0.074085 0.122496
vt 0.072885 0.118803
vt 0.069002 0.118803
vt 0.067802 0.122496
s 0
usemtl regular
f 1/1/1 2/2/1 4/3/1 3/4/1
f 3/4/2 4/3/2 6/2/2 5/1/2
f 5/1/3 6/2/3 8/3/3 7/4/3
f 4/5/4 2/6/4 10/7/4 8/8/4 6/9/4
f 7/4/5 8/3/5 10/2/5 9/1/5
f 9/1/6 10/2/6 2/3/6 1/4/6
f 1/10/7 3/11/7 5/12/7 7/13/7 9/14/7
f 11/1/6 13/4/6 14/3/6 12/2/6
f 13/4/5 15/1/5 16/2/5 14/3/5
f 15/1/3 17/4/3 18/3/3 16/2/3
f 14/5/4 16/9/4 18/8/4 20/7/4 12/6/4
f 17/4/2 19/1/2 20/2/2 18/3/2
f 19/1/1 11/4/1 12/3/1 20/2/1
f 11/10/7 19/14/7 17/13/7 15/12/7 13/11/7
o Cube.001
v -0.500000 0.710000 0.103000
v 0.500000 0.710000 0.103000
v -0.500000 0.110000 0.103000
v 0.500000 0.110000 0.103000
v -0.500000 0.710000 0.043000
v 0.500000 0.710000 0.043000
v -0.500000 0.110000 0.043000
v 0.500000 0.110000 0.043000
vn -0.0000 -0.0000 1.0000
vn -0.0000 -0.0000 -1.0000
vn -0.0000 -1.0000 -0.0000
vn -0.0000 1.0000 -0.0000
vn 1.0000 -0.0000 -0.0000
vn -1.0000 -0.0000 -0.0000
vt 0.062861 0.107998
vt 0.062861 0.071636
vt 0.124835 0.071636
vt 0.124835 0.107998
vt 0.134709 0.150001
vt 0.175084 0.150001
vt 0.175084 0.185923
vt 0.134709 0.185923
vt 0.062861 0.113128
vt 0.062861 0.107044
vt 0.124835 0.107044
vt 0.124835 0.113128
s 0
usemtl regular
f 21/15/8 23/16/8 24/17/8 22/18/8
f 25/19/9 26/20/9 28/21/9 27/22/9
f 23/23/10 27/24/10 28/25/10 24/26/10
f 22/26/11 26/25/11 25/24/11 21/23/11
f 24/24/12 28/23/12 26/26/12 22/25/12
f 21/25/13 25/26/13 27/23/13 23/24/13
