# Blender 3.6.5
# www.blender.org
mtllib Poly_World_Map_Town_House_12.mtl
o Cube.002_Cube.001
v -0.187521 -0.000744 0.187521
v -0.062005 0.298659 0.062005
v -0.187521 -0.000744 -0.187521
v -0.062005 0.298659 -0.062005
v 0.187521 -0.000744 0.187521
v 0.062005 0.298659 0.062005
v 0.187521 -0.000744 -0.187521
v 0.062005 0.298659 -0.062005
v -0.165862 0.129548 0.165862
v -0.165862 0.129548 -0.165862
v 0.165862 0.129548 -0.165862
v 0.165862 0.129548 0.165862
v -0.077088 -0.000744 -0.254620
v -0.042096 0.298659 0.084192
v -0.090909 0.143203 0.221262
v -0.042096 0.298659 -0.084192
v -0.102781 -0.000430 0.260474
v -0.068184 0.129548 -0.225210
v 0.042096 0.298659 -0.084192
v 0.102781 -0.000430 0.260474
v 0.068184 0.129548 -0.225210
v 0.077089 -0.000744 -0.254620
v 0.042096 0.298659 0.084192
v 0.090909 0.143203 0.221262
v -0.084192 0.298659 -0.042096
v 0.254620 -0.000744 -0.127310
v -0.225210 0.129548 -0.112605
v -0.254620 -0.000744 -0.127310
v 0.084192 0.298659 -0.042096
v 0.225210 0.129548 -0.112605
v -0.068109 -0.000744 -0.112480
v -0.042096 0.278458 -0.042096
v 0.042096 0.278458 -0.042096
v 0.068109 -0.000744 -0.112480
v -0.254620 -0.000744 0.127310
v 0.084192 0.298659 0.042096
v 0.225210 0.129548 0.112605
v -0.084192 0.298659 0.042096
v 0.254620 -0.000744 0.127310
v -0.225210 0.129548 0.112605
v -0.068109 -0.000744 0.112480
v -0.042096 0.278458 0.042096
v 0.042096 0.278458 0.042096
v 0.068109 -0.000744 0.112480
v -0.102282 0.298659 0.000000
v 0.278917 -0.000744 0.000000
v -0.246701 0.129548 0.000000
v -0.278917 -0.000744 0.000000
v 0.102282 0.298659 0.000000
v 0.246701 0.129548 0.000000
v -0.154664 -0.000744 0.000000
v -0.051141 0.278458 0.000000
v 0.051141 0.278458 0.000000
v 0.154664 -0.000744 0.000000
v 0.000000 -0.000744 -0.255074
v 0.000000 0.298659 0.090970
v 0.000000 0.143203 0.221798
v 0.000000 0.298659 -0.090970
v 0.000000 -0.000744 0.261761
v 0.000000 0.129548 -0.225612
v 0.000000 -0.000744 -0.137559
v 0.000000 0.278458 -0.045485
v 0.000000 -0.000744 0.137559
v 0.000000 0.278458 0.045485
v 0.000000 0.278458 0.000000
v 0.000000 -0.000744 0.000000
v -0.112893 0.204030 -0.112893
v 0.112893 0.204030 -0.112893
v 0.112893 0.204030 0.112893
v -0.112893 0.204030 0.112893
v -0.069231 0.199455 0.160460
v -0.069231 0.199455 -0.160459
v 0.069231 0.199455 -0.160459
v 0.069231 0.199455 0.160460
v -0.160459 0.199455 -0.080230
v 0.160460 0.199455 -0.080230
v 0.160460 0.199455 0.080230
v -0.160459 0.199455 0.080230
v 0.173511 0.199455 0.000000
v -0.173511 0.199455 0.000000
v 0.000000 0.199455 -0.159870
v 0.000000 0.199455 0.159870
vn -0.4404 0.6589 -0.6099
vn -0.4270 0.6720 -0.6050
vn -0.5855 0.4688 -0.6614
vn -0.5883 0.4621 -0.6636
vn -0.6003 0.4758 -0.6428
vn -0.5934 0.6831 -0.4257
vn -0.6098 0.6495 -0.4542
vn -0.5976 0.4654 -0.6529
vn 0.5855 0.4688 -0.6614
vn 0.4270 0.6720 -0.6050
vn 0.4404 0.6589 -0.6099
vn 0.5883 0.4621 -0.6636
vn 0.6003 0.4758 0.6428
vn 0.5934 0.6831 0.4257
vn 0.6098 0.6495 0.4542
vn 0.5976 0.4654 0.6529
vn -0.0009 -1.0000 0.0014
vn 0.4122 0.8125 -0.4122
vn -0.6207 0.2417 0.7459
vn 0.6502 0.2285 0.7246
vn 0.5062 0.2227 -0.8332
vn -0.6502 0.2285 -0.7246
vn 0.0057 0.2206 -0.9754
vn 0.0020 -1.0000 0.0009
vn 0.0002 0.7371 0.6757
vn 0.4404 0.6589 0.6099
vn 0.4270 0.6720 0.6050
vn 0.5855 0.4688 0.6614
vn 0.5883 0.4621 0.6636
vn -0.0010 0.6823 -0.7311
vn -0.0000 -1.0000 -0.0000
vn -0.6919 0.7113 -0.1239
vn 0.0063 0.6036 0.7973
vn 0.0682 0.5480 0.8337
vn 0.0733 0.5564 0.8276
vn 0.0050 0.6055 0.7958
vn 0.0009 -1.0000 0.0014
vn -0.5062 0.2227 -0.8332
vn 0.0505 0.9069 -0.4184
vn 0.6098 0.6495 -0.4542
vn 0.5934 0.6831 -0.4257
vn 0.6003 0.4758 -0.6428
vn 0.5976 0.4654 -0.6529
vn -0.0063 0.6036 -0.7973
vn -0.0682 0.5480 -0.8337
vn -0.0733 0.5564 -0.8276
vn -0.0050 0.6055 -0.7958
vn -0.4122 0.8125 -0.4122
vn 0.6207 0.2417 0.7459
vn -0.7544 0.6303 0.1833
vn -0.8060 0.5745 0.1424
vn -0.8080 0.5716 0.1427
vn -0.7545 0.6300 0.1839
vn -0.0086 0.2658 0.9640
vn -0.4122 0.8125 0.4122
vn -0.7545 0.6300 -0.1839
vn -0.8080 0.5716 -0.1427
vn -0.8060 0.5745 -0.1424
vn -0.7544 0.6303 -0.1833
vn -0.0000 1.0000 -0.0000
vn -0.0505 0.9069 0.4184
vn 0.4122 0.8125 0.4122
vn 0.6502 0.2285 -0.7246
vn 0.9545 0.2360 0.1822
vn 0.6919 0.7113 0.1239
vn 0.7545 0.6300 0.1839
vn 0.8080 0.5716 0.1427
vn 0.8060 0.5745 0.1424
vn 0.7544 0.6303 0.1833
vn 0.3944 0.9101 0.1271
vn -0.6502 0.2285 0.7246
vn -0.3944 0.9101 -0.1271
vn -0.6098 0.6495 0.4542
vn -0.5934 0.6831 0.4257
vn -0.6003 0.4758 0.6428
vn -0.5976 0.4654 0.6529
vn -0.9545 0.2360 -0.1822
vn -0.9545 0.2360 0.1822
vn 0.7544 0.6303 -0.1833
vn 0.8060 0.5745 -0.1424
vn 0.8080 0.5716 -0.1427
vn 0.7545 0.6300 -0.1839
vn -0.3944 0.9101 0.1271
vn 0.3944 0.9101 -0.1271
vn 0.6919 0.7113 -0.1239
vn 0.9545 0.2360 -0.1822
vn -0.0050 0.6055 0.7958
vn -0.0733 0.5564 0.8276
vn -0.0682 0.5480 0.8337
vn -0.0063 0.6036 0.7973
vn -0.6919 0.7113 0.1239
vn 0.0505 0.9069 0.4184
vn 0.0086 0.2658 0.9640
vn -0.0505 0.9069 -0.4184
vn 0.0010 0.6823 -0.7311
vn 0.0050 0.6055 -0.7958
vn 0.0733 0.5564 -0.8276
vn 0.0682 0.5480 -0.8337
vn 0.0063 0.6036 -0.7973
vn -0.0002 0.7371 0.6757
vn -0.0020 -1.0000 0.0009
vn -0.0057 0.2206 -0.9754
vn -0.4654 0.6998 0.5419
vn 0.4654 0.6998 -0.5419
vn 0.4890 0.7146 0.5003
vn -0.4411 0.6570 -0.6113
vn -0.4654 0.6998 -0.5419
vn 0.4411 0.6570 -0.6113
vn 0.4654 0.6998 0.5419
vn -0.4890 0.7146 0.5003
vn -0.5855 0.4688 0.6614
vn -0.4270 0.6720 0.6050
vn -0.4404 0.6589 0.6099
vn -0.5883 0.4621 0.6636
vt 0.844410 0.916253
vt 0.850200 0.916253
vt 0.850200 0.908940
vt 0.844410 0.908940
vt 0.838567 0.908940
vt 0.838567 0.916253
vt 0.851511 0.905779
vt 0.882057 0.902744
vt 0.856625 0.884282
vt 0.851184 0.884282
vt 0.840811 0.906395
vt 0.837600 0.906395
vt 0.838348 0.903932
vt 0.840811 0.903184
vt 0.850200 0.895879
vt 0.844410 0.895879
vt 0.838567 0.895879
vt 0.844131 0.905779
vt 0.844131 0.884282
vt 0.844131 0.921867
vt 0.864759 0.921867
vt 0.882057 0.902744
vt 0.844131 0.906390
vt 0.844131 0.903173
vt 0.850445 0.906395
vt 0.847234 0.906395
vt 0.847234 0.903184
vt 0.849697 0.903932
vt 0.841603 0.884282
vt 0.841603 0.894514
vt 0.850198 0.894514
vt 0.850198 0.884282
vt 0.849697 0.915281
vt 0.847234 0.916253
vt 0.847234 0.912818
vt 0.850445 0.912818
vt 0.882057 0.902744
vt 0.844131 0.909607
vt 0.840505 0.909607
vt 0.844131 0.916253
vt 0.844131 0.912824
vt 0.882057 0.902744
vt 0.840811 0.916253
vt 0.838348 0.915281
vt 0.837600 0.912818
vt 0.840811 0.912818
vt 0.885707 0.921867
vt 0.864759 0.921867
vt 0.836987 0.909607
vt 0.885707 0.921867
vt 0.851058 0.909607
vt 0.847540 0.909607
s 0
usemtl Material
f 4/1/1 16/2/2 72/3/3 67/4/4
f 75/5/5 25/6/6 4/1/7 67/4/8
f 73/3/9 19/2/10 8/1/11 68/4/12
f 77/3/13 36/2/14 6/1/15 69/4/16
f 44/7/17 39/8/17 5/9/17 20/10/17
f 42/11/18 38/12/18 2/13/18 14/14/18
f 17/15/19 15/2/19 9/1/19 1/16/19
f 39/15/20 37/2/20 12/1/20 5/16/20
f 22/15/21 21/2/21 11/1/21 7/16/21
f 28/17/22 27/6/22 10/1/22 3/16/22
f 55/16/23 60/1/23 21/2/23 22/15/23
f 63/18/24 44/7/24 20/10/24 59/19/24
f 82/3/25 71/5/25 15/17/25 57/15/25
f 6/1/26 23/2/27 74/3/28 69/4/29
f 81/3/30 73/5/30 21/17/30 60/15/30
f 66/20/31 54/21/31 44/7/31 63/18/31
f 80/4/32 75/3/32 27/15/32 47/16/32
f 14/6/33 71/5/34 82/3/35 56/2/36
f 35/22/37 41/7/37 17/10/37 1/9/37
f 3/16/38 10/1/38 18/2/38 13/15/38
f 64/23/39 42/11/39 14/14/39 56/24/39
f 8/1/40 29/6/41 76/5/42 68/4/43
f 19/6/44 73/5/45 81/3/46 58/2/47
f 36/25/48 43/26/48 23/27/48 6/28/48
f 5/16/49 12/1/49 24/2/49 20/15/49
f 45/1/50 80/4/51 78/3/52 38/2/53
f 59/29/54 57/30/54 15/31/54 17/32/54
f 55/19/31 61/18/31 31/7/31 13/10/31
f 8/33/55 19/34/55 33/35/55 29/36/55
f 3/9/31 13/10/31 31/7/31 28/37/31
f 25/2/56 75/3/57 80/4/58 45/1/59
f 65/38/60 52/39/60 42/11/60 64/23/60
f 58/40/61 62/41/61 33/35/61 19/34/61
f 22/10/31 7/9/31 26/42/31 34/7/31
f 16/43/62 4/44/62 25/45/62 32/46/62
f 7/16/63 11/1/63 30/6/63 26/17/63
f 46/16/64 50/1/64 37/2/64 39/15/64
f 48/47/31 51/48/31 41/7/31 35/22/31
f 79/4/65 77/3/65 37/15/65 50/16/65
f 36/3/66 77/2/67 79/1/68 49/4/69
f 45/49/70 52/39/70 32/46/70 25/45/70
f 46/50/31 54/21/31 34/7/31 26/42/31
f 1/16/71 9/1/71 40/6/71 35/17/71
f 49/51/72 53/52/72 43/26/72 36/25/72
f 2/1/73 38/6/74 78/5/75 70/4/76
f 48/16/77 47/1/77 27/2/77 28/15/77
f 35/15/78 40/2/78 47/1/78 48/16/78
f 49/1/79 79/4/80 76/3/81 29/2/82
f 29/36/83 33/35/83 53/52/83 49/51/83
f 39/8/31 44/7/31 54/21/31 46/50/31
f 38/12/84 42/11/84 52/39/84 45/49/84
f 76/3/85 79/4/85 50/16/85 30/15/85
f 28/37/31 31/7/31 51/48/31 48/47/31
f 26/15/86 30/2/86 50/1/86 46/16/86
f 62/41/60 32/46/60 52/39/60 65/38/60
f 56/2/87 82/3/88 74/5/89 23/6/90
f 78/3/91 80/4/91 47/16/91 40/15/91
f 61/18/31 34/7/31 54/21/31 66/20/31
f 31/7/31 61/18/31 66/20/31 51/48/31
f 33/35/60 62/41/60 65/38/60 53/52/60
f 16/43/92 32/46/92 62/41/92 58/40/92
f 53/52/60 65/38/60 64/23/60 43/26/60
f 22/10/31 34/7/31 61/18/31 55/19/31
f 20/32/93 24/31/93 57/30/93 59/29/93
f 43/26/94 64/23/94 56/24/94 23/27/94
f 51/48/31 66/20/31 63/18/31 41/7/31
f 72/5/95 81/3/95 60/15/95 18/17/95
f 58/2/96 81/3/97 72/5/98 16/6/99
f 74/5/100 82/3/100 57/15/100 24/17/100
f 41/7/101 63/18/101 59/19/101 17/10/101
f 13/15/102 18/2/102 60/1/102 55/16/102
f 9/16/103 70/4/103 78/5/103 40/17/103
f 11/16/104 68/4/104 76/5/104 30/17/104
f 12/16/105 69/4/105 74/3/105 24/15/105
f 10/16/106 67/4/106 72/3/106 18/15/106
f 27/17/107 75/5/107 67/4/107 10/16/107
f 21/15/108 73/3/108 68/4/108 11/16/108
f 37/15/109 77/3/109 69/4/109 12/16/109
f 15/17/110 71/5/110 70/4/110 9/16/110
f 71/5/111 14/6/112 2/1/113 70/4/114
