# Blender 3.6.5
# www.blender.org
mtllib Poly_Bridge_Spar_01_Left.mtl
o Cube
v 0.500000 0.600000 -0.400000
v 0.500000 0.000000 -0.400000
v 0.300000 0.600000 -0.400000
v 0.300000 0.000000 -0.400000
v 0.500000 0.600000 -0.600000
v 0.500000 0.000000 -0.600000
v 0.300000 0.600000 -0.600000
v 0.300000 0.000000 -0.600000
v -0.500000 0.800000 -0.400000
v 0.500000 0.800000 -0.400000
v -0.500000 0.600000 -0.400000
v 0.500000 0.600000 -0.400000
v -0.500000 0.800000 -0.600000
v 0.500000 0.800000 -0.600000
v -0.500000 0.600000 -0.600000
v 0.500000 0.600000 -0.600000
v 0.500000 0.600000 0.400000
v 0.500000 0.000000 0.400000
v 0.300000 0.600000 0.400000
v 0.300000 0.000000 0.400000
v 0.500000 0.600000 0.600000
v 0.500000 0.000000 0.600000
v 0.300000 0.600000 0.600000
v 0.300000 0.000000 0.600000
v -0.500000 0.800000 0.400000
v 0.500000 0.800000 0.400000
v -0.500000 0.600000 0.400000
v 0.500000 0.600000 0.400000
v -0.500000 0.800000 0.600000
v 0.500000 0.800000 0.600000
v -0.500000 0.600000 0.600000
v 0.500000 0.600000 0.600000
v 0.500000 -0.300000 -0.600000
v 0.300000 -0.300000 -0.600000
v 0.500000 -0.300000 -0.400000
v 0.300000 -0.300000 -0.400000
v 0.500000 -0.300000 0.600000
v 0.300000 -0.300000 0.600000
v 0.500000 -0.300000 0.400000
v 0.300000 -0.300000 0.400000
vn -0.0000 1.0000 -0.0000
vn -1.0000 -0.0000 -0.0000
vn -0.0000 -0.0000 -1.0000
vn 1.0000 -0.0000 -0.0000
vn -0.0000 -0.0000 1.0000
vn -0.0000 -1.0000 -0.0000
vt 0.025503 0.299440
vt 0.025503 0.250641
vt 0.037498 0.250641
vt 0.037498 0.299440
vt 0.037498 0.250462
vt 0.025503 0.250462
vt 0.025503 0.262828
vt 0.037498 0.262828
vt 0.157385 0.300924
vt 0.144487 0.300924
vt 0.144487 0.312321
vt 0.157385 0.312321
vt 0.066439 0.312268
vt 0.144487 0.312268
vt 0.144487 0.300909
vt 0.066439 0.300909
vt 0.080646 0.312321
vt 0.067748 0.312321
vt 0.067748 0.300924
vt 0.080646 0.300924
vt 0.066439 0.312268
vt 0.144487 0.312268
vt 0.144487 0.300909
vt 0.066439 0.300909
vt 0.010865 0.327990
vt 0.051572 0.327990
vt 0.051572 0.313213
vt 0.010865 0.313213
vt 0.080641 0.312321
vt 0.080641 0.300924
vt 0.067742 0.300924
vt 0.067742 0.312321
vt 0.010865 0.313213
vt 0.010865 0.327990
vt 0.051572 0.327990
vt 0.051572 0.313213
s 0
usemtl Material
f 1/1/1 5/2/1 7/3/1 3/4/1
f 4/3/2 3/4/2 7/1/2 8/2/2
f 8/2/3 7/1/3 5/4/3 6/3/3
f 6/5/4 2/6/4 35/7/4 33/8/4
f 2/2/5 1/1/5 3/4/5 4/3/5
f 6/3/4 5/4/4 1/1/4 2/2/4
f 9/9/2 13/10/2 15/11/2 11/12/2
f 12/13/6 11/14/6 15/15/6 16/16/6
f 16/16/3 15/15/3 13/14/3 14/13/3
f 14/17/4 10/18/4 12/19/4 16/20/4
f 10/21/5 9/22/5 11/23/5 12/24/5
f 14/25/1 13/26/1 9/27/1 10/28/1
f 17/1/1 19/4/1 23/3/1 21/2/1
f 20/3/2 24/2/2 23/1/2 19/4/2
f 24/2/5 22/3/5 21/4/5 23/1/5
f 18/6/4 22/5/4 37/8/4 39/7/4
f 18/2/3 20/3/3 19/4/3 17/1/3
f 22/3/4 18/2/4 17/1/4 21/4/4
f 25/9/2 27/12/2 31/11/2 29/10/2
f 28/13/6 32/16/6 31/15/6 27/14/6
f 32/16/5 30/13/5 29/14/5 31/15/5
f 30/29/4 32/30/4 28/31/4 26/32/4
f 26/21/3 28/24/3 27/23/3 25/22/3
f 30/33/1 26/34/1 25/35/1 29/36/1
f 33/6/6 35/7/6 36/8/6 34/5/6
f 37/6/6 38/5/6 40/8/6 39/7/6
f 24/6/2 20/5/2 40/8/2 38/7/2
f 4/5/2 8/6/2 34/7/2 36/8/2
f 20/5/3 18/6/3 39/7/3 40/8/3
f 22/5/5 24/6/5 38/7/5 37/8/5
f 8/6/3 6/5/3 33/8/3 34/7/3
f 2/6/5 4/5/5 36/8/5 35/7/5
o Cube.001
v 0.300000 0.550000 -0.600000
v 0.250000 0.600000 -0.600000
v 0.300000 0.350000 -0.600000
v 0.050000 0.600000 -0.600000
v 0.300000 0.550000 -0.400000
v 0.250000 0.600000 -0.400000
v 0.300000 0.350000 -0.400000
v 0.050000 0.600000 -0.400000
v 0.300000 0.550000 0.600000
v 0.250000 0.600000 0.600000
v 0.300000 0.350000 0.600000
v 0.050000 0.600000 0.600000
v 0.300000 0.550000 0.400000
v 0.250000 0.600000 0.400000
v 0.300000 0.350000 0.400000
v 0.050000 0.600000 0.400000
vn 1.0000 -0.0000 -0.0000
vn 0.7071 0.7071 -0.0000
vn -0.0000 1.0000 -0.0000
vn -0.0000 -0.0000 -1.0000
vn -0.0000 -0.0000 1.0000
vn -0.7071 -0.7071 -0.0000
vt 0.025056 0.285820
vt 0.037498 0.295296
vt 0.037498 0.263004
vt 0.025056 0.272371
vt 0.037498 0.263379
vt 0.025056 0.263379
vt 0.025056 0.294866
vt 0.037498 0.294866
vt 0.025056 0.263320
vt 0.037498 0.275491
vt 0.037498 0.282810
vt 0.025056 0.294871
s 0
usemtl Material
f 43/37/7 41/38/7 45/39/7 47/40/7
f 45/41/8 41/42/8 42/43/8 46/44/8
f 48/37/9 46/38/9 42/39/9 44/40/9
f 41/40/10 43/39/10 44/38/10 42/37/10
f 47/45/11 45/46/11 46/47/11 48/48/11
f 43/41/12 47/42/12 48/43/12 44/44/12
f 51/37/7 55/40/7 53/39/7 49/38/7
f 53/41/8 54/44/8 50/43/8 49/42/8
f 56/37/9 52/40/9 50/39/9 54/38/9
f 49/40/11 50/37/11 52/38/11 51/39/11
f 55/45/10 56/48/10 54/47/10 53/46/10
f 51/41/12 52/44/12 56/43/12 55/42/12
