# Blender 3.6.5
# www.blender.org
mtllib Poly_World_Map_Wall_01_Right_End.mtl
o Grid.001
v 0.500001 0.000000 0.150000
v 0.500001 0.900000 0.150000
v 0.500001 0.000000 -0.150000
v 0.500001 0.900000 -0.150000
v -0.500000 0.000000 0.150000
v -0.500000 0.900000 0.150000
v -0.500000 0.000000 -0.150000
v -0.500000 0.900000 -0.150000
v 0.500001 0.900000 0.080000
v -0.500000 0.900000 0.080000
v 0.500001 0.900000 -0.080000
v -0.500000 0.900000 -0.080000
v -0.500000 0.840000 0.080000
v -0.500000 0.840000 -0.080000
v 0.332619 0.000000 -0.150000
v 0.332619 0.900000 -0.150000
v 0.332619 0.000000 0.150000
v 0.332619 0.900000 0.150000
v 0.332619 0.900000 0.080000
v 0.332619 0.900000 -0.080000
v 0.332619 0.840000 0.080000
v 0.332619 0.840000 -0.080000
v -0.500000 0.840000 -0.000000
v 0.332619 0.900000 0.000000
v 0.500001 0.900000 -0.000000
v 0.332619 0.840000 -0.000000
vn -0.0000 1.0000 -0.0000
vn -0.0000 -0.0000 -1.0000
vn 1.0000 -0.0000 -0.0000
vn -0.0000 -0.0000 1.0000
vn -1.0000 -0.0000 -0.0000
vt 0.745503 0.684503
vt 0.745503 0.680954
vt 0.749991 0.680954
vt 0.749991 0.684503
vt 0.682248 0.439304
vt 0.656235 0.439304
vt 0.656235 0.480323
vt 0.682248 0.480323
vt 0.773423 0.627197
vt 0.749769 0.627197
vt 0.749769 0.667785
vt 0.755288 0.667785
vt 0.761596 0.667785
vt 0.767904 0.667785
vt 0.773423 0.667785
vt 0.682248 0.439304
vt 0.687477 0.439304
vt 0.687477 0.480323
vt 0.682248 0.480323
vt 0.604688 0.555712
vt 0.594847 0.555712
vt 0.594847 0.550904
vt 0.604684 0.550908
vt 0.761718 0.617688
vt 0.761718 0.622465
vt 0.757604 0.622465
vt 0.757604 0.617688
vt 0.562964 0.555712
vt 0.563006 0.550913
vt 0.614529 0.550913
vt 0.614522 0.555712
vt 0.511473 0.605441
vt 0.505128 0.605441
vt 0.505128 0.519167
vt 0.511473 0.519167
vt 0.500139 0.546625
vt 0.505090 0.546625
vt 0.505090 0.512877
vt 0.500139 0.512877
vt 0.656235 0.439304
vt 0.656235 0.480323
vt 0.562964 0.550913
vt 0.563008 0.555712
vt 0.614529 0.555712
vt 0.614522 0.550913
vt 0.687477 0.439304
vt 0.687477 0.480323
vt 0.505128 0.605441
vt 0.505128 0.519167
vt 0.765832 0.617688
vt 0.765832 0.622465
s 0
usemtl Material
f 16/1/1 20/2/1 11/3/1 4/4/1
f 15/5/2 7/6/2 8/7/2 16/8/2
f 1/9/3 3/10/3 4/11/3 11/12/3 25/13/3 9/14/3 2/15/3
f 17/16/4 1/17/4 2/18/4 18/19/4
f 19/2/1 18/1/1 2/4/1 9/3/1
f 24/20/5 20/21/5 22/22/5 26/23/5
f 24/24/1 25/25/1 11/26/1 20/27/1
f 12/28/4 14/29/4 22/30/4 20/31/4
f 23/32/1 13/33/1 21/34/1 26/35/1
f 10/36/1 6/37/1 18/38/1 19/39/1
f 5/40/4 17/16/4 18/19/4 6/41/4
f 13/42/2 10/43/2 19/44/2 21/45/2
f 3/46/2 15/5/2 16/8/2 4/47/2
f 8/37/1 12/36/1 20/39/1 16/38/1
f 14/48/1 23/32/1 26/35/1 22/49/1
f 19/50/1 9/51/1 25/25/1 24/24/1
f 19/44/5 24/20/5 26/23/5 21/45/5
