# Blender 3.6.5
# www.blender.org
mtllib Poly_World_Map_Trail_01.mtl
o Grid.002
v -0.250000 -0.004000 0.487000
v -0.190000 0.415000 -0.363000
v -0.410000 -0.004000 -0.400000
v -0.190000 0.415000 -0.400000
v 0.500000 -0.004000 0.487000
v -0.140000 0.415000 -0.363000
v 0.034826 -0.004000 -0.400000
v -0.140000 0.415000 -0.400000
v -0.360000 0.147000 0.230000
v -0.410000 0.147000 -0.400000
v 0.076921 0.147000 -0.400000
v -0.010000 0.147000 0.230000
v -0.155000 0.281000 -0.045000
v -0.430000 0.281000 -0.400000
v -0.000692 0.281000 -0.400000
v 0.073000 0.281000 -0.045000
v -0.430000 0.348000 -0.197000
v -0.430000 0.348000 -0.400000
v -0.140000 0.348000 -0.400000
v -0.270000 0.348000 -0.197000
v -0.400000 0.071000 -0.400000
v 0.063552 0.071000 -0.400000
v 0.180000 0.071000 0.399000
v -0.370000 0.071000 0.399000
v -0.420000 0.214000 -0.400000
v 0.036308 0.214000 -0.400000
v 0.110000 0.214000 0.091000
v -0.170000 0.214000 0.091000
v -0.440000 0.315000 -0.400000
v -0.049000 0.315000 -0.400000
v -0.079000 0.315000 -0.149000
v -0.380000 0.315000 -0.149000
v -0.380000 0.382000 -0.255000
v -0.380000 0.382000 -0.400000
v -0.140000 0.382000 -0.400000
v -0.240000 0.382000 -0.255000
v -0.330000 -0.004000 0.043000
v -0.190000 0.415000 -0.382000
v 0.034826 -0.004000 0.043000
v -0.140000 0.415000 -0.382000
v 0.076921 0.147000 -0.085000
v -0.385000 0.147000 -0.085000
v 0.013067 0.281000 -0.250000
v -0.389318 0.281000 -0.215089
v -0.088000 0.348000 -0.299000
v -0.430000 0.348000 -0.299000
v -0.385000 0.071000 -0.001000
v -0.006448 0.071000 -0.001000
v -0.301863 0.214000 -0.154000
v 0.036308 0.214000 -0.154000
v -0.410000 0.315000 -0.239000
v -0.027000 0.315000 -0.239000
v -0.135000 0.382000 -0.327000
v -0.380000 0.382000 -0.327000
vn -0.1711 0.9852 -0.0000
vn -0.0000 -0.0000 -1.0000
vn 0.4811 0.6785 0.5551
vn -0.0000 0.9564 0.2922
vn -0.0000 1.0000 -0.0000
vn -0.0000 0.9120 0.4101
vn 0.8980 0.4219 -0.1250
vn -0.9978 -0.0348 0.0559
vn -0.0000 0.8970 0.4419
vn 0.9568 -0.0618 -0.2841
vn -0.8309 -0.4647 0.3062
vn -0.0000 0.8240 0.5665
vn 0.1660 0.9651 0.2024
vn -0.9924 -0.0471 0.1136
vn -0.9605 -0.2564 0.1084
vn 0.4670 0.8074 -0.3605
vn -0.0000 0.7611 0.6487
vn -0.8101 0.5486 0.2067
vn 0.8739 -0.4857 0.0206
vn -0.0000 0.9008 0.4342
vn -0.9184 -0.3484 0.1877
vn 0.3376 0.9412 -0.0091
vn -0.0000 0.9505 0.3107
vn -0.0000 0.8627 0.5057
vn 0.3301 0.7711 0.5445
vn -0.5623 0.8269 -0.0000
vn 0.8401 0.4674 -0.2752
vn 0.6029 0.7948 -0.0693
vn -0.4505 -0.7664 0.4578
vn 0.8552 0.5184 -0.0000
vn -0.3728 0.9220 0.1044
vn 0.9908 0.1070 0.0824
vn -0.6816 -0.7277 0.0767
vn -0.7733 -0.6224 0.1208
vn 0.4357 0.8916 -0.1231
vn -0.6522 0.4936 0.5753
vn 0.9200 0.3907 -0.0320
vn -0.9861 0.1567 0.0552
vn 0.8611 -0.5014 0.0844
vn 0.9980 0.0299 -0.0548
vt 0.570885 0.278534
vt 0.567739 0.280421
vt 0.566709 0.280421
vt 0.566709 0.278534
vt 0.569512 0.276496
vt 0.582330 0.278723
vt 0.585703 0.278723
vt 0.585703 0.276496
vt 0.568826 0.280421
vt 0.575003 0.278534
vt 0.591196 0.402420
vt 0.591196 0.407500
vt 0.586067 0.407500
vt 0.586067 0.402420
vt 0.595866 0.380285
vt 0.595866 0.390178
vt 0.584975 0.390178
vt 0.584975 0.380285
vt 0.589532 0.260744
vt 0.584727 0.265092
vt 0.602745 0.265092
vt 0.612412 0.260744
vt 0.568163 0.255515
vt 0.567488 0.260643
vt 0.600337 0.260643
vt 0.599436 0.255515
vt 0.566709 0.265092
vt 0.566709 0.260744
vt 0.595866 0.385231
vt 0.584975 0.385231
vt 0.580780 0.268924
vt 0.575289 0.272756
vt 0.587015 0.272756
vt 0.594794 0.268924
vt 0.566814 0.265163
vt 0.566139 0.269683
vt 0.600073 0.269683
vt 0.602569 0.265163
vt 0.577286 0.272756
vt 0.566709 0.272756
vt 0.566709 0.268924
vt 0.598720 0.393330
vt 0.598720 0.398114
vt 0.591279 0.398114
vt 0.591279 0.393330
vt 0.575918 0.274701
vt 0.572486 0.276589
vt 0.578321 0.276589
vt 0.581066 0.274701
vt 0.565464 0.271976
vt 0.566139 0.274203
vt 0.585703 0.274203
vt 0.591842 0.271976
vt 0.566709 0.276589
vt 0.566709 0.274701
vt 0.592049 0.256454
vt 0.566709 0.256454
vt 0.567488 0.250456
vt 0.597498 0.250456
vt 0.617445 0.256454
vt 0.598673 0.394608
vt 0.591648 0.394608
s 0
usemtl Material
f 54/1/1 38/2/1 4/3/1 34/4/1
f 34/5/2 4/6/2 8/7/2 35/8/2
f 53/1/3 40/2/3 6/9/3 36/10/3
f 36/11/4 6/12/4 2/13/4 33/14/4
f 40/14/5 38/13/5 2/12/5 6/11/5
f 23/15/6 12/16/6 9/17/6 24/18/6
f 48/19/7 41/20/7 12/21/7 23/22/7
f 21/23/2 10/24/2 11/25/2 22/26/2
f 47/19/8 42/20/8 10/27/8 21/28/8
f 27/29/9 16/15/9 13/18/9 28/30/9
f 50/31/10 43/32/10 16/33/10 27/34/10
f 25/35/2 14/36/2 15/37/2 26/38/2
f 49/31/11 44/39/11 14/40/11 25/41/11
f 31/42/12 20/43/12 17/44/12 32/45/12
f 52/46/13 45/47/13 20/48/13 31/49/13
f 29/50/2 18/51/2 19/52/2 30/53/2
f 51/46/14 46/47/14 18/54/14 29/55/14
f 37/56/15 47/19/15 21/28/15 3/57/15
f 3/58/2 21/23/2 22/26/2 7/59/2
f 39/56/16 48/19/16 23/22/16 5/60/16
f 5/16/17 23/61/17 24/62/17 1/17/17
f 42/20/18 49/31/18 25/41/18 10/27/18
f 10/24/2 25/35/2 26/38/2 11/25/2
f 41/20/19 50/31/19 27/34/19 12/21/19
f 12/16/20 27/29/20 28/30/20 9/17/20
f 44/39/21 51/46/21 29/55/21 14/40/21
f 14/36/2 29/50/2 30/53/2 15/37/2
f 43/32/22 52/46/22 31/49/22 16/33/22
f 16/15/23 31/29/23 32/30/23 13/18/23
f 20/43/24 36/42/24 33/45/24 17/44/24
f 45/47/25 53/1/25 36/10/25 20/48/25
f 18/51/2 34/5/2 35/8/2 19/52/2
f 46/47/26 54/1/26 34/4/26 18/54/26
f 17/48/26 33/10/26 54/1/26 46/47/26
f 19/54/27 35/4/27 53/1/27 45/47/27
f 15/40/28 30/55/28 52/46/28 43/32/28
f 13/33/29 32/49/29 51/46/29 44/39/29
f 11/27/30 26/41/30 50/31/30 41/20/30
f 9/21/31 28/34/31 49/31/31 42/20/31
f 7/57/32 22/28/32 48/19/32 39/56/32
f 1/60/33 24/22/33 47/19/33 37/56/33
f 32/49/34 17/48/34 46/47/34 51/46/34
f 30/55/35 19/54/35 45/47/35 52/46/35
f 28/34/36 13/33/36 44/39/36 49/31/36
f 26/41/37 15/40/37 43/32/37 50/31/37
f 24/22/38 9/21/38 42/20/38 47/19/38
f 22/28/39 11/27/39 41/20/39 48/19/39
f 8/14/5 4/13/5 38/12/5 40/11/5
f 35/4/40 8/3/40 40/2/40 53/1/40
f 33/10/1 2/9/1 38/2/1 54/1/1
